<svg height="16.000002" width="9" xmlns="http://www.w3.org/2000/svg"><g transform="translate(-359 -556.36218)"><path d="m359 570.36218h9v2h-9z" fill="#333"/><path d="m359 559.36218v-2l4.5-1 4.5 1v2z" fill="#333"/><path d="m362 559.36218h2v1h-2z" fill="#c87137"/><path d="m362 560.36218h5v5h-5z" fill="#ff0"/><path d="m360 560.36218h2v4h-2z" fill="#008000"/><path d="m360 564.36218h3v4h-3z" fill="#f00"/><path d="m363 565.36218h4v3h-4z" fill="#00f"/><path d="m360 567.36218h4v3h-4z" fill="#fc0"/><path d="m364 568.36218h3v2h-3z" fill="#800080"/><path d="m364 559.36218h3v3h-3z" fill="#008000"/><path d="m360 559.36218h2v2h-2z" fill="#a00"/></g></svg>