<svg height="16" viewBox="0 0 16 16" width="16" xmlns="http://www.w3.org/2000/svg"><g transform="translate(0 -1036.3622)"><rect fill="#fff" fill-rule="evenodd" height="15.163445" rx="1.896553" ry="2.126741" stroke="#00669c" stroke-linecap="round" stroke-width=".836556" width="15.163444" x=".418278" y="1036.7805"/><path d="m12.299108 1043.5742a4.8839288 4.4040179 0 0 1 -2.4419649 3.814 4.8839288 4.4040179 0 0 1 -4.8839288 0 4.8839288 4.4040179 0 0 1 -2.4419643-3.814h4.8839288z" fill="#00669c" fill-rule="evenodd"/><g fill="none" stroke="#00669c"><path d="m3 1050.8333 3-5" stroke-linecap="round"/><path d="m8.882461 1050.8039-1-5" stroke-linecap="round"/><path d="m12.293848 1050.6276-3.0000004-5" stroke-linecap="round"/><path d="m14.774573 1037.5238-1.69146 1.8384"/><path d="m9.8851159 1040.663c2.7244261-3.178 4.8589401-.8588 1.8719581 1.8291" stroke-width=".927847"/><path d="m3.59375 1038.5899c.1766654 2.4283 1.8453544 2.0036 1.875 4.1964" stroke-linecap="round"/><path d="m5.59375 1038.5899c.1766654 2.4283 1.8453544 2.0036 1.875 4.1964" stroke-linecap="round"/></g></g></svg>