<svg height="16" viewBox="0 0 16 16" width="16" xmlns="http://www.w3.org/2000/svg"><path d="m381.8346 391.5447c2.4325-4.1228 9.1607-9.6569 15.741-12.947 5.4113-2.7058 18.38-5.7362 24.548-5.7362 2.1087 0 4.0946-.42155 4.413-.93678 1.978-3.2004-7.978-18.9-17.189-27.106-10.016-8.9227-32.972-17.444-50.772-18.846-10.97032-.41058-34.00566-5.55473-20.0232 7.7787 5.8647 5.5466 12.07 13.783 17.049 22.628 1.6641 2.9566 3.9407 6.412 5.0592 7.6788 1.1184 1.2668 2.5913 3.61 3.273 5.2071.68172 1.5971 2.71 5.1971 4.5072 8 7.2938 11.375 8.3793 13.215 9.0598 15.359.97561 3.0739 2.0403 2.8086 4.3346-1.08z" fill="#f00" transform="matrix(.07241444 .04389037 -.04761145 .08104442 2.23354 -39.342888)"/><path d="m178.89758 304.18379c15.289-9.4066 43.924-13.906 60.469-9.5019 2.9128.77536 5.9073 1.4151 6.6544 1.4216 2.4294.0212.34225-4.7685-7.4101-17.005-4.0966-6.4662-7.4483-12.069-7.4483-12.45 0-.38144-1.6397-3.2448-3.6438-6.363s-5.1509-8.0202-6.9929-10.893c-6.5564-10.227-19.363-21.805-19.363-17.506 0 .42333-2.0044 3.4495-4.4543 6.7249-5.8713 7.8497-13.574 23.366-18.37 37.005-4.9976 14.213-7.5892 31.5-4.7224 31.5.284 0 2.6606-1.3192 5.2814-2.9316z" fill="#ff0" transform="matrix(.07241444 .04389037 -.04761145 .08104442 6.837389 -25.801563)"/><path d="m-56.626918 263.82726c1.628019-11.45138 7.598129-28.84055 14.544-42.36344 1.594285-3.10363 4.046767-7.91548 5.449859-10.69287 1.403092-2.7775 3.848302-6.38613 5.4338-8.0192 5.353-5.51379 4.507226-5.76165-12.30988-3.60641-11.16858 1.43127-15.61561 2.52924-24.239998 5.98566-12.40987 4.97345-25.62471 14.42078-34.816713 24.88943-7.22393 8.22817-13.07142 21.05951-14.13899 31.02417-.81102 7.57319-.64482 7.73509 5.34795 5.20807 4.75609-2.00556 17.804273-2.40128 31.025173-.94089 10.37876 1.14635 13.02092 2.06252 18.07294 6.26625 1.607415 1.33754 3.258561 2.06534 3.669126 1.61741.410555-.44791 1.293709-4.66368 1.962531-9.36836z" fill="#f00" transform="matrix(.07169747 .04345581 -.04714005 .080242 21.572042 -13.024977)"/><path d="m335.05307 467.84424c-1.2707-54.675-.4699-68.38848-1.36247-70.06048-.8216-1.539-.52368-1.01446-4.13678-.47256-5.2256.78363-20.121 6.6669-25.539 10.087-5.0991 3.2189-7.9468 3.107-11.351-.44606-1.5322-1.5992-5.4939-4.1231-8.8039-5.6085-5.367-2.4085-7.5473-2.7534-20.151-3.1878-14.043-.48388-14.181-.46714-21.521 2.6085-7.4181 3.1083-10.13 3.7386-10.092 2.3455.0114-.4125.88492-5.989 1.9412-12.392 3.0216-18.318 5.4827-22.768 21.06-38.084 7.1189-6.9996 14.829-13.917 17.134-15.372 4.5676-2.8834 18.68-8.0123 25.844-9.3927 2.475-.4769 6.3-1.3186 8.5-1.8704 2.2-.55184 7.5291-1.2103 11.842-1.4633 8.4823-.49752 9.3159-.89336 9.8228-4.6648.4098-3.0486 3.8347-4.1257 3.8347-1.206 0 3.7239 2.0278 4.2259 13.465 3.3333 8.7138-.68007 12.633-.50409 20.41.91647 12.504 2.284 24.881 6.2471 33.625 10.767 11.962 6.1828 28.881 25.097 31.624 35.353 1.7558 6.5649.92455 7.9317-4.3817 7.2044-11.712-1.6053-34.13 6.964-39.808 15.217-1.5934 2.3159-4.0718 5.0665-5.5076 6.1124-2.5866 1.8842-2.7083 1.876-13.269-.89529-11.531-3.0259-15.80647-3.90855-17.69147-2.02355-.89903.89903-.55654 13.56859-.55654 48.50859 0 0-.0195 31.89332-.0305 46.27432-.54473 5.051-3.53518 6.95449-7.16516 8.97117-3.38248-1.15519-7.26946-10.16657-7.73556-30.55921zm-29.24307-65.91424c15.289-9.4066 43.924-13.906 60.469-9.5019 2.9128.77536 5.9073 1.4151 6.6544 1.4216 2.4294.0212.34225-4.7685-7.4101-17.005-4.0966-6.4662-7.4483-12.069-7.4483-12.45 0-.38144-1.6397-3.2448-3.6438-6.363s-5.1509-8.0202-6.9929-10.893c-6.5564-10.227-19.363-21.805-19.363-17.506 0 .42333-2.0044 3.4495-4.4543 6.7249-5.8713 7.8497-13.574 23.366-18.37 37.005-4.9976 14.213-7.5892 31.5-4.7224 31.5.284 0 2.6606-1.3192 5.2814-2.9316zm-8.7654-8.0377c1.6119-11.338 7.5229-28.555 14.4-41.944 1.5785-3.0729 4.0067-7.8371 5.3959-10.587 1.3892-2.75 3.8102-6.3229 5.38-7.9398 5.3-5.4592 4.4626-5.7046-12.188-3.5707-11.058 1.4171-15.461 2.5042-24 5.9264-12.287 4.9242-25.371 14.278-34.472 24.643-7.1524 8.1467-12.942 20.851-13.999 30.717-.80299 7.4982-.63843 7.6585 5.295 5.1565 4.709-1.9857 17.628-2.3775 30.718-.93157 10.276 1.135 12.892 2.0421 17.894 6.2042 1.5915 1.3243 3.2263 2.0449 3.6328 1.6014.40649-.44348 1.2809-4.6175 1.9431-9.2756zm84.79-2.3476c2.4325-4.1228 9.1607-9.6569 15.741-12.947 5.4113-2.7058 18.38-5.7362 24.548-5.7362 2.1087 0 4.0946-.42155 4.413-.93678 1.978-3.2004-7.978-18.9-17.189-27.106-10.016-8.9227-32.972-17.444-50.772-18.846-11.423-.89988-24.673-.12741-25.198 1.469-.19533.59388 2.1333 3.4333 5.1748 6.3097 5.8647 5.5466 12.07 13.783 17.049 22.628 1.6641 2.9566 3.9407 6.412 5.0592 7.6788 1.1184 1.2668 2.5913 3.61 3.273 5.2071.68172 1.5971 2.71 5.1971 4.5072 8 7.2938 11.375 8.3793 13.215 9.0598 15.359.97561 3.0739 2.0403 2.8086 4.3346-1.08z" fill="#4d4d4d" transform="matrix(.07169747 .04345581 -.04714005 .080242 2.373674 -38.889047)"/></svg>