<svg height="120" viewBox="0 0 160 120" width="160" xmlns="http://www.w3.org/2000/svg" xmlns:xlink="http://www.w3.org/1999/xlink"><linearGradient id="a" gradientTransform="matrix(.17197244 0 0 .13798973 9.331538 948.21259)" gradientUnits="userSpaceOnUse" x1="357.79999" x2="456.60001" y1="556.90997" y2="556.90997"><stop offset="0" stop-color="#8a8a8a"/><stop offset=".071429" stop-color="#676767"/><stop offset=".14286" stop-color="#878787"/><stop offset=".21429" stop-color="#b5b5b5"/><stop offset=".28571" stop-color="#d7d7d7"/><stop offset=".35714" stop-color="#d5d5d5"/><stop offset=".42857" stop-color="#c3c3c3"/><stop offset=".5" stop-color="#b3b3b3"/><stop offset=".57143" stop-color="#a3a3a3"/><stop offset=".64286" stop-color="#929292"/><stop offset=".71429" stop-color="#7a7a7a"/><stop offset=".78571" stop-color="#696969"/><stop offset=".85714" stop-color="#686868"/><stop offset=".92857" stop-color="#656565"/><stop offset="1" stop-color="#797979"/></linearGradient><linearGradient id="b" gradientUnits="userSpaceOnUse" x1="449.4522" x2="449.4522" y1="811.72" y2="837.36001"><stop offset="0" stop-color="#717171"/><stop offset="1" stop-color="#e3e3e3"/></linearGradient><g transform="translate(0 -933.3622)"><rect fill="url(#a)" fill-rule="evenodd" height="56.602951" rx="2.106548" ry="1.946996" stroke-width=".164161" width="15.704368" x="72.149345" y="996.75928"/><g transform="matrix(.16390816 0 0 .17679483 -1.190577 859.07004)"><g fill-rule="evenodd" transform="matrix(1 0 0 .83333 21.422 173.53)"><path d="m33.09 740.15002h16.011v25.618h-16.011z"/><path d="m898.76001 740.15002h16.011v25.618h-16.011z"/><path d="m682.34003 740.15002h16.011v25.618h-16.011z"/><path d="m249.50999 740.15002h16.011v25.618h-16.011z"/><path d="m465.92001 740.15002h16.011v25.618h-16.011z"/></g><path d="m966.48 812.6 9.1053-.0628 6.5646 23.891-13.718-.2011-473.09.061-473.09.0242-13.718.20109 6.5646-23.891 9.1053.0628 471.13-.0833z" fill="url(#b)" stroke="#000" stroke-width="1.9287"/></g><g fill="#803300" stroke-width="5.7861" transform="matrix(.16390816 0 0 .17679483 -.800656 878.69604)"><path d="m14.971 312.10001h956v366h-956z" stroke="#000"/><path d="m20.938 317.76999h944.06v354.66h-944.06z" fill-rule="evenodd" stroke="#828282"/></g><text style="font-size:1.969933;font-family:Calibri;letter-spacing:6.70076561;word-spacing:0;fill:#fc0;stroke-width:.164161" transform="scale(1.0158361 .98441078)" x="6.189384" y="998.85687"><tspan fill="#fc0" font-family="Calibri" font-size="55.115978" stroke-width=".164161" x="6.189384" y="998.85687">JOSM</tspan></text></g></svg>