<svg height="4.515555mm" viewBox="0 0 16 16" width="4.515555mm" xmlns="http://www.w3.org/2000/svg"><g transform="matrix(1.6191054 0 0 1.6189416 -.91965 0)"><path d="m1.75.2c-.541 0-.982.44-.982.98v7.523c0 .54.441.979.982.979h7.52c.541 0 .98-.439.98-.979v-7.523c0-.54-.439-.979-.98-.979h-7.52z" fill="#fff"/><path d="m9.27 9.883c.652 0 1.18-.527 1.18-1.18v-7.523c-.001-.653-.528-1.18-1.18-1.18h-7.52c-.652 0-1.182.527-1.182 1.18v7.523c0 .652.529 1.18 1.182 1.18z"/><g fill="#fff"><path d="m3.662 1.545h1.254v.898h-1.254z"/><path d="m6.332 5.42c-.119 0-.215-.096-.215-.215v-2.48h1.896l.799 3.385-.003.218v1.496c0 .115-.094.209-.209.209h-1.844c-.115 0-.209-.094-.209-.209v-2.404h-.199"/><path d="m4.695 5.426c.119 0 .215-.096.215-.215v-2.482h-1.892l-.801 3.384.004.221v1.496c0 .115.094.209.209.209h1.842c.117 0 .211-.094.211-.209v-2.404h.197"/><path d="m5.188 2.729h.65v2.305h-.65z"/><path d="m6.117 1.545h1.256v.898h-1.256z"/></g></g></svg>