<svg height="16" viewBox="0 0 11 16" width="11" xmlns="http://www.w3.org/2000/svg"><g fill-rule="evenodd"><path d="m1.304076 15.999821c-.72169714.00146-1.30195118-.616104-1.30340211-1.382713l-.00067389-.0022.00137529-13.2287994c-.00004126-.7689232.58164996-1.3849757 1.30342961-1.3863189l8.3904965.00219c.7217866-.00146 1.3038836.6154831 1.3032856 1.3823769l.001413 13.2308574c.000041.768924-.581664 1.384925-1.3041174 1.384312l-8.3913839.000474z" fill="#fff"/><g fill="#f00"><path d="m5.0301915 5.1332715 1.2045984-.00146-.6041315-2.115121-.6004669 2.1166832zm1.4883447.9849686-1.7691271-.00365-.2794976.9704488-1.1404966-.00146 1.6267393-5.3123161 1.3509429.0003869 1.6274474 5.3129731-1.1388832.00292-.2771251-.9687187z"/><path d="m4.4328052 8.9757924c-.1378909.00219-.2898418.034967-.4574878.11191-1.8283817 1.4207676.6370038 3.7129596 1.6761827 5.6801666l.031463.01139c1.1435993-2.152105 3.3214274-4.518991 1.6568231-5.6922136-1.3169026-.5990288-1.6687 1.3967726-1.6809715 1.4694886-.0118991-.063876-.2793224-1.5862386-1.2259803-1.5807197z"/></g></g></svg>