<svg height="16" width="12.044044" xmlns="http://www.w3.org/2000/svg"><g transform="matrix(.44101501 -.19152939 .19428651 .4347565 -2.045291 3.309835)"><path d="m5.461467 11.284021h11.761078v9.067503h-11.761078z" fill="#12abdb" stroke="#150b0b" stroke-dashoffset="18" stroke-width="2"/><path d="m5.461467 21.087101h11.761078v9.067503h-11.761078z" fill="#12abdb" stroke="#150b0b" stroke-dashoffset="18" stroke-width="2"/><path d="m5.456027 1.412359h11.761078v9.067503h-11.761078z" fill="#12abdb" stroke="#150b0b" stroke-dashoffset="18" stroke-width="2"/><g fill="#fff"><path d="m5.055803 5.493304h.959821v1.227679h-.959821z"/><path d="m5.055803 9.350446h.959821v1.227679h-.959821z"/><path d="m5.055803 13.207589h.959821v1.227679h-.959821z"/><path d="m5.055803 17.064732h.959821v1.227679h-.959821z"/><path d="m5.055803 20.921876h.959821v1.227679h-.959821z"/><path d="m5.055803 24.779017h.959821v1.227679h-.959821z"/><path d="m5.055803 28.636161h.959821v1.227679h-.959821z"/><path d="m5.055803 1.636161h.959821v1.227679h-.959821z"/><path d="m16.573661 5.493304h.959821v1.227679h-.959821z"/><path d="m16.573661 9.350446h.959821v1.227679h-.959821z"/><path d="m16.573661 13.207589h.959821v1.227679h-.959821z"/><path d="m16.573661 17.064732h.959821v1.227679h-.959821z"/><path d="m16.573661 20.921876h.959821v1.227679h-.959821z"/><path d="m16.573661 24.779017h.959821v1.227679h-.959821z"/><path d="m16.573661 28.636161h.959821v1.227679h-.959821z"/><path d="m16.573661 1.636161h.959821v1.227679h-.959821z"/></g></g></svg>