<svg height="16" viewBox="0 0 12 16" width="12" xmlns="http://www.w3.org/2000/svg"><path d="m3.390276 1052.1244c-.8020071-.2731-.5005155-1.2998-1.3727381-2.0263-.7171393-.5974-1.33136388-.6001-1.80573674-1.197-.20345284-.6868-.26409877-1.3498-.16554557-2.3407.35474047-.8347.97077541-2.0272 3.34402041-3.0314.9218686-.3644 1.5738332-.2724 2.1189832 0 1.4599653.6346.767543-5.3121 2.1189832-6.4466.9080683-.4607 1.6720546-1.3596 3.1784756 0 .861097.9618.706328 5.0141 1.059491 7.521.185883 1.0273.170732 2.1056 0 3.2233-.769456 2.7992-2.568982 3.4098-4.2379666 4.2977-1.5278603.4089-2.8845155.2101-4.2379664 0z" fill="#008000" fill-rule="evenodd" transform="translate(0 -1036.3622)"/></svg>