<svg enable-background="new 0 0 100 83.101" height="130" viewBox="0 0 160 130" width="160" xmlns="http://www.w3.org/2000/svg"><g fill="#0f0"><path d="m16.444.05-16.444-.05 15.868 16.397 6.093-5.53z" transform="matrix(1.6 0 0 1.5643615 .000001 -.000002)"/><g stroke-width="1.58208"><path d="m106.93105 69.738596c4.8 1.304678 9.9568-1.379767 11.3264-6.198 1.3152-4.743144-1.4864-9.727199-6.3216-11.069421l-3.7664-1.035607-4.8736 17.237698z"/><path d="m108.76473 51.714504-30.392005-8.466324c-1.9984-.514675-4.0048.671111-4.5552 2.646899l-2.856 10.0432c-.5616 1.97266.5264 3.996944 2.5744 4.589837l30.393595 8.375591z"/><path d="m116.2992 80.991684c-2.3168-2.179156-5.1984-3.90934-8.56-4.822927l-36.8448-10.191815-22.638399-39.692543c-1.192-2.050877-3.1104-3.682506-5.5936-4.353617-4.9648-1.379767-10.1232 1.503351-11.4784 6.410753-.6768 2.329334-.3568 4.707163.7168 6.718932l28.3216 49.089662s2.3168 3.680941 8.152 5.573819l51.484799 14.266982 23.8752 23.9582c.7936.81972 1.832 1.45485 3.072 1.80683 3.5952.98555 7.3584-1.13885 8.4096-4.65397.68-2.4936-.1296-5.11078-1.9216-6.72989z"/><path d="m143.7712 84.647596 5.352 6.91917 10.8768-11.737403-9.1856-5.057581c.8656-6.362258-3.1232-12.522714-9.5216-14.30765-7.0384-1.933551-14.3568 2.099373-16.3136 9.057653-1.9984 6.994261 2.1216 14.190323 9.1648 16.127002 3.344.946439 6.7504.430199 9.6272-1.001191z"/></g></g></svg>