<svg height="160" viewBox="0 0 160 160" width="160" xmlns="http://www.w3.org/2000/svg"><path d="m66.275 1.768c-41.335 0-64.571 21.371-64.571 65.036v450.123c0 40.844 20.895 62.229 62.192 62.229h452.024c41.307 0 62.229-20.315 62.229-62.229v-450.123c0-42.601-20.922-65.036-63.521-65.036-.004 0-448.495-.143-448.353 0z" fill="#0f0" fill-opacity=".74902" transform="matrix(.27756333 0 0 .27707952 -.472968 -.47227)"/><g fill-rule="evenodd" transform="matrix(.2652824 .157252 -.15752659 .26481998 -69.274 -230.45007)"><path d="m922.96817 588.96089c24.0243 2.80534 52.37886 8.1762 65.0633 31.40835 9.26227 13.69502 17.32513 28.38401 28.87643 40.36617 20.4742 10.36026 40.8732 22.80183 55.5624 40.70359 18.4349 27.56507 12.8528 67.04874-8.5754 91.25527-23.9937 21.96745-58.5285 32.94178-90.50944 24.81452-20.44108-4.08663-40.82293-16.11271-62.09074-9.39446-19.67342 5.52125-39.19757 14.22038-60.14891 11.8866-19.91653-.67497-37.78663-10.41533-54.54059-20.2091-19.53406-12.53883-31.7396-35.21136-30.41665-58.50793.067-34.97267 26.3604-63.96641 55.97055-79.31568 12.63694-6.1417 25.90432-12.81303 31.91156-26.45203 8.58936-15.73398 16.12353-35.49722 35.20799-40.86311 10.77032-3.919 22.26986-5.48983 33.6895-5.69219z"/><path d="m706.83161 545.9715c5.12977-18.01457 19.67126-34.6786 38.97729-37.11684 13.80277-1.78026 28.08593 1.72456 40.23749 8.24205 22.16066 14.75851 35.05953 39.74123 42.35302 64.6795 3.67599 11.92517 6.17666 24.67526 3.14767 37.03976-2.7993 14.60207-13.39057 26.97443-27.02046 32.66676-17.70364 10.64278-41.17953 9.20349-58.05972-2.43004-10.04038-6.64991-18.93779-15.32943-24.33797-26.20917-12.78899-23.06312-21.41515-50.46696-15.29732-76.87202z"/><path d="m421.73586 81.462526s29.46428.178571 45.71428 37.857144c0 0 11.21308 24.43717 7.32143 61.96429 0 0-.60865 37.77966-23.08454 53.18448 0 0-30.55712 27.7792-65.65992-9.59645 0 0-24.4962-26.26396-29.29442-63.38707 0 0-5.3033-38.3858 18.43528-61.36677 0 0 20.13932-18.834196 46.56789-18.655624z" transform="translate(452.857 333.791)"/><path d="m576.52455 89.717037s36.25 10.714283 32.32143 52.142853c0 0 2.05835 33.27693-17.63963 63.58151 0 0-19.95051 37.37564-46.46702 41.41625 0 0-29.29442 9.09137-50.50762-35.86042 0 0-15.15229-51.0127 8.33376-85.35789 0 0 27.42112-50.946446 73.95908-35.922303z" transform="translate(452.857 333.791)"/><path d="m1117.8 529.42866c17.0128 5.19957 29.0252 21.65542 30.538 39.14833 1.6415 15.71874-2.0788 31.51923-7.3703 46.23188-8.6097 21.5116-24.1266 40.31698-43.7581 52.63552-14.8357 8.09747-33.3338 4.66111-46.9133-4.41714-5.555-2.66124-8.9406-7.70303-11.333-13.19597-9.0423-17.99186-10.3113-39.89227-2.093-58.41912 6.9469-17.44643 15.4953-35.25253 30.1471-47.54014 11.1088-10.0964 25.6272-18.34264 41.1562-16.72517 3.2906.33413 6.5337 1.11092 9.6264 2.28181z"/></g></svg>