<svg height="459.80612" width="459.01599" xmlns="http://www.w3.org/2000/svg" xmlns:xlink="http://www.w3.org/1999/xlink"><linearGradient id="a"><stop offset="0" stop-color="#fff"/><stop offset="1" stop-color="#fff" stop-opacity="0"/></linearGradient><linearGradient id="b" xlink:href="#a"/><linearGradient id="c"><stop offset="0" stop-color="#dc0000"/><stop offset="1" stop-color="#ffb200"/></linearGradient><linearGradient id="d"><stop offset="0" stop-color="#fff" stop-opacity=".44928"/><stop offset="1" stop-color="#fff" stop-opacity="0"/></linearGradient><filter id="e" color-interpolation-filters="sRGB"><feGaussianBlur stdDeviation="8.8447956"/></filter><linearGradient id="f" gradientTransform="matrix(.68311 0 0 1.4639 22.742 -283.6)" gradientUnits="userSpaceOnUse" x1="198.88" x2="342.54001" xlink:href="#b" y1="246.21001" y2="403.09"/><linearGradient id="g" gradientTransform="matrix(.54412 0 0 1.8378 .3926 -250.42)" gradientUnits="userSpaceOnUse" x1="349.42999" x2="390.32001" xlink:href="#d" y1="179.97" y2="179.97"/><linearGradient id="h" gradientTransform="matrix(.79621 0 0 1.7063 1125.5 -315.48)" gradientUnits="userSpaceOnUse" x1="-1131" x2="-1102.7" xlink:href="#c" y1="404.57999" y2="306.76001"/><linearGradient id="i" gradientTransform="matrix(.60253 0 0 1.6597 .3926 -252.45)" gradientUnits="userSpaceOnUse" x1="533.78003" x2="572.40997" xlink:href="#d" y1="294.87" y2="294.87"/><linearGradient id="j" gradientTransform="matrix(.7951 0 0 1.2577 24.096 -278.86)" gradientUnits="userSpaceOnUse" x1="501.39999" x2="317.14001" xlink:href="#b" y1="384.39999" y2="485.78"/><linearGradient id="k" gradientTransform="matrix(.92675 0 0 1.4659 1125.5 -315.48)" gradientUnits="userSpaceOnUse" x1="-916.90002" x2="-857.96002" xlink:href="#c" y1="438.47" y2="362.16"/><linearGradient id="l" gradientTransform="matrix(1.3317 0 0 .75092 22.742 -276.15)" gradientUnits="userSpaceOnUse" x1="124.57" x2="153.34" y1="931.46002" y2="853.09998"><stop offset="0" stop-color="#fdffff"/><stop offset="1" stop-color="#fdffff" stop-opacity="0"/></linearGradient><linearGradient id="m" gradientTransform="matrix(.60192 0 0 1.6614 26.3 -269.45)" gradientUnits="userSpaceOnUse" x1="110.45" x2="239.46001" xlink:href="#b" y1="244.05" y2="376.89999"/><filter id="n" color-interpolation-filters="sRGB" height="1.3779" width="1.136" x="-.067992" y="-.18895"><feGaussianBlur stdDeviation="7.2835937"/></filter><filter id="o" color-interpolation-filters="sRGB" height="1.6823" width="1.2516" x="-.12582" y="-.34113"><feGaussianBlur stdDeviation="5.4634181"/></filter><linearGradient id="p" gradientTransform="matrix(1.1002 -1.2538 .4506 .39539 -311.02 864.05)" gradientUnits="userSpaceOnUse" x1="82.559998" x2="94.621002" xlink:href="#b" y1="1126.7" y2="1102.5"/><linearGradient id="q" gradientTransform="matrix(-.34546 -1.1031 .82555 -.25853 -265.09 1483.1)" gradientUnits="userSpaceOnUse" x1="78.646004" x2="122.42" xlink:href="#b" y1="743.14001" y2="713.54999"/><linearGradient id="r" gradientUnits="userSpaceOnUse" x1="181.14999" x2="194.54" y1="389.34701" y2="118.540999"><stop offset="0"/><stop offset="1" stop-opacity="0"/></linearGradient><linearGradient id="s" gradientTransform="matrix(-1.2948 -1.0517 -.37798 .46531 867.81 -33.651)" gradientUnits="userSpaceOnUse" x1="82.559998" x2="94.621002" xlink:href="#b" y1="1126.7" y2="1102.5"/><linearGradient id="t" gradientTransform="matrix(-.51746 -.4067 .36243 -.74685 -331.74 418.2)" gradientUnits="userSpaceOnUse" x1="-960.97998" x2="-928.92999" xlink:href="#d" y1="563.04999" y2="563.04999"/><linearGradient id="u" gradientTransform="matrix(1.6681 0 0 .59948 24.837 -275.56)" gradientUnits="userSpaceOnUse" x1="82.559998" x2="94.621002" xlink:href="#b" y1="1126.7" y2="1102.5"/><linearGradient id="v" gradientTransform="matrix(1.156 0 0 .86508 22.442 -276.15)" gradientUnits="userSpaceOnUse" x1="96.398003" x2="142.50999" xlink:href="#b" y1="789.25" y2="733.95001"/><linearGradient id="w" gradientTransform="matrix(1.5531 .60876 -.21878 .55814 242.02 -319.14)" gradientUnits="userSpaceOnUse" x1="82.559998" x2="94.621002" xlink:href="#b" y1="1126.7" y2="1102.5"/><linearGradient id="x" gradientTransform="matrix(1.1701 -1.1889 .42727 .4205 -456.67 35.746)" gradientUnits="userSpaceOnUse" x1="82.559998" x2="94.621002" xlink:href="#b" y1="1126.7" y2="1102.5"/><linearGradient id="y" gradientTransform="matrix(.69089 -1.5183 .54565 .24829 -495.04 283.93)" gradientUnits="userSpaceOnUse" x1="82.559998" x2="94.621002" xlink:href="#b" y1="1126.7" y2="1102.5"/><linearGradient id="z" gradientTransform="matrix(-.70286 -1.5128 .54367 -.2526 -290.4 830.24)" gradientUnits="userSpaceOnUse" x1="82.559998" x2="94.621002" xlink:href="#b" y1="1126.7" y2="1102.5"/><linearGradient id="A" gradientTransform="matrix(.25641 -1.6483 -.59236 -.092149 851 668.48)" gradientUnits="userSpaceOnUse" x1="82.559998" x2="94.621002" xlink:href="#b" y1="1126.7" y2="1102.5"/><linearGradient id="B" gradientTransform="matrix(-.74876 -1.4906 -.5357 .26909 944.83 255.49)" gradientUnits="userSpaceOnUse" x1="82.559998" x2="94.621002" xlink:href="#b" y1="1126.7" y2="1102.5"/><linearGradient id="C" gradientTransform="matrix(.5769 -.25828 .2613 1.0001 490.26 -420.38)" gradientUnits="userSpaceOnUse" x1="-961.27002" x2="-929.40997" xlink:href="#d" y1="562.82001" y2="562.82001"/><linearGradient id="D" gradientTransform="matrix(.42511 -.53051 .57538 .68663 219.53 -461.45)" gradientUnits="userSpaceOnUse" x1="-961.12" x2="-929.15997" xlink:href="#d" y1="562.94" y2="562.94"/><linearGradient id="E" gradientTransform="matrix(-.019583 -.86239 1.1799 -.025248 -445.95 -360.55)" gradientUnits="userSpaceOnUse" x1="-961.33002" x2="-929.51001" xlink:href="#d" y1="562.77002" y2="562.77002"/><linearGradient id="F" gradientTransform="matrix(-.5802 -.42153 .40645 -.77422 -466.27 461.47)" gradientUnits="userSpaceOnUse" x1="-961.04999" x2="-929.03998" xlink:href="#d" y1="562.98999" y2="562.98999"/><linearGradient id="G" gradientTransform="matrix(.93941 0 0 1.4462 1125.5 -315.48)" gradientUnits="userSpaceOnUse" x1="-1006.6" x2="-953.88" xlink:href="#c" y1="448.67999" y2="299.89001"/><linearGradient id="H" gradientTransform="matrix(.80596 0 0 1.2407 18.001 -263.96)" gradientUnits="userSpaceOnUse" x1="9.655" x2="323.10001" xlink:href="#a" y1="256.78" y2="500.79999"/><linearGradient id="I" gradientTransform="matrix(.70158 0 0 1.9364 1125.5 -315.48)" gradientUnits="userSpaceOnUse" x1="-1308.2" x2="-1335" xlink:href="#c" y1="330.20001" y2="272.82001"/><linearGradient id="J" gradientTransform="matrix(1.156 0 0 .86508 22.742 -276.15)" gradientUnits="userSpaceOnUse" x1="78.646004" x2="122.42" xlink:href="#b" y1="743.14001" y2="713.54999"/><linearGradient id="K" gradientTransform="matrix(.60694 0 0 1.6476 .3926 -250.42)" gradientUnits="userSpaceOnUse" x1="468.41" x2="502.45001" xlink:href="#d" y1="232.89999" y2="232.89999"/><linearGradient id="L" gradientTransform="matrix(1.3185 0 0 .75843 23.041 -277.35)" gradientUnits="userSpaceOnUse" x1="230.94" x2="163.66" xlink:href="#b" y1="927.57001" y2="832.44"/><g transform="matrix(1.3860633 0 0 1 -84.481447 -15.829491)"><path d="m215.89 37.057c-1.56 1.709-3.13 3.417-4.69 5.125-9.31 12.175-23.43 23.408-22.69 40.282-.1 14.029 5.43 27.116 9.57 40.276.82-.94 1.64-1.91 2.46-2.9.18.48.35.94.54 1.44 7.16-8.25 10.27-14.33 11.31-19.66 1.73 6.46 3 12.73 3.84 18.81.1 2.71.27 5.51.5 8.41-7.8 32.63-26.87 44.46-23.4 79.69-2.89-19.64-4.89-36.69-.85-51.13-2.31-17.9-4.63-33.2-22.53-45.91 5.49 22.24 11.83 55.76-6.94 64.13-2.99 6.15-12.85 20.9-15.25 43.28-1.32 4.25-2.43 8.59-3.25 12.97-.85 5.24-1.09 10.5-.78 15.72-.32 7.79.54 15.6 2.81 23.31.43 1.18.87 2.33 1.32 3.47-4.19-2.02-8.38-4.47-12.57-8.66 8.26 24.4 18.57 43.89 31.94 58.5l-31.62 17.91-.32-.19-5.09 9.85 4.94 3.37-39.065 10.78c-1.213.06-2.418.28-3.593.69-8.832 3.07-12.746 15.26-8.719 27.22s14.481 19.19 23.317 16.12c1.08-.37 2.07-.9 3-1.53l.09.22 50.12-36.25 3.6 2.47 8.59-5-5.94 9.47.32.09-.82 6.81-27.03 23.1c-1.78.64-3.4 1.59-4.75 2.97-2.95 3.02-4.05 7.3-3.5 11.84v.03c.03.19.04.38.07.56.29 3.56 1.78 7.35 4.37 10.44.34.41.7.8 1.06 1.16.64.78 1.32 1.52 2.07 2.25 8.39 8.21 20.18 9.77 26.34 3.47 1.81-1.85 2.94-4.16 3.41-6.72l29.09-42.88 9.44.94 1.47.53.15-.34 1.35.12-.29-2.53 4.63-10.28.91 50.13c-.58 1.71-.85 3.51-.82 5.37.2 10.24 10.21 18.3 22.35 18 .8-.02 1.59-.1 2.37-.19.61-.05 1.2-.15 1.78-.25.22-.04.44-.07.66-.12 2.04-.41 3.94-1.08 5.62-1.94.03-.01.07-.02.1-.03.47-.25.93-.51 1.37-.78 5.96-3.46 9.85-9.27 9.72-15.78-.05-2.74-.81-5.35-2.12-7.66l-14.41-51.91 8.97 5.85 39.94 53.03c1.13 1.77 2.59 3.3 4.37 4.47 5.77 3.77 13.19 2.74 18.81-1.97 2.39-1.11 4.57-3.21 6.1-6.13 1.72-3.27 2.29-6.97 1.81-10.28.12-3.99-.91-7.8-2.94-10.87l.44-.31-1.59-1.25c-.89-1.04-1.9-1.96-3.07-2.72-.48-.32-.99-.6-1.5-.85l-27.53-21.59 7.72-2.19v-11.28l-.06.03v-.19l-1.16.38-15.47-8.44c1.05-.06 2.09-.15 3.13-.25l62.44 35.78c.76.8 1.61 1.52 2.56 2.13 1.35.87 2.82 1.46 4.31 1.81l1.41.81.19-.53c6.39.76 13.32-2.77 17.34-9.53.43-.72.79-1.44 1.12-2.19.12-.2.24-.4.35-.62 1.91-3.93 2.21-8.47 1.12-12.16-.89-4.1-3.1-7.73-6.59-9.97-.2-.12-.39-.22-.59-.34l.06-.19-.81-.19c-1.84-.91-3.81-1.37-5.82-1.43l-30.93-7.66 18.84-20.84-7.28-7.97-.69.81-2.09-.12c8.71-14.52 11.69-33.14 6.25-54.41-6.98 12.84-11.55 19.99-23.07 23.84 3.52-13.99 1.01-28.63.5-42.87.16-4.79.86-9.48 2.04-14.03-.44 11.08 3.47 21.67 5.93 32.34.81-.77 1.63-1.56 2.44-2.37.29 1.01.58 2.03.91 3.09 12.15-11.71 13.13-18.36 12.28-25.75.16-2.11.01-4.29-.53-6.53-.01-2.86-1.11-5.53-1.75-8.19 1.17-4.96 4.67-12.05 8.18-23.66-.9 1.05-1.8 2.06-2.71 3 1.57-4.51 3-9.09 4.15-13.75-1.71 1.56-3.41 3.11-5.12 4.66-3.24 3.43-6.98 6.81-10.5 10.34 4.58-6.06 9.93-11.56 15.78-16.31.04-.05.06-.1.09-.15.31-.25.6-.51.91-.75-.16.01-.31.04-.47.06 1.83-3.69-2.79-4.98-6.13-5.06-10.95 1.55-22.03 5.39-31.59 11.37 5.43-18.59 5.5-38.65-8.59-55.78-4.49 14.94-9.55 27.03-16.66 38.22-2.39-6.97-6.44-13.55-10.97-19.63 3.26-14.35 5.03-28.49-.09-43.72 1.44-20.21-31.78-19.6-32.06-81.401-14.63 18.435-23.43 33.94-26.38 55.218-2.49-3.447-4.48-5.826-3.22 1.875.07 1.411.16 2.808.28 4.218-.53-.83-1.07-1.67-1.62-2.5.28-2.195.22-4.287-.03-6.374 0-2.112-.27-4.282-.88-6.469.02-4.585-2.72-8.293-3.59-12.437.57-5.83 3.98-14.364 6.9-28.75-.41.582-.82 1.163-1.25 1.719.84-3.559 1.59-7.155 2.1-10.782zm82.25 61.844c-.48 2.249-.96 4.499-1.44 6.749-1.87 7.98-1.02 16.78-4.5 24.22-8.14 6.22-11.69 17.79-8.12 27.59.84 6.26 2.54 8.57 5.31 6 .13.42.25.82.4 1.25 16.21-16.61 18.93-26.48 17.47-35.47-.07-2.76-.57-5.54-1.65-8.34-2.5-7.32-4.69-14.78-7.47-21.999z" fill="url(#r)" fill-rule="evenodd" filter="url(#e)"/><path d="m350.15 401.03-77.1-44.18 13-10.39 77.1 19.06z" style="fill:#924b00;fill-rule:evenodd;stroke:#000;stroke-width:1.9007;stroke-linejoin:bevel;stroke-opacity:.34351"/><path d="m340.42 373.48c5.31-8.93 15.73-12.26 23.25-7.43 7.53 4.83 9.33 15.99 4.02 24.93-5.32 8.93-15.73 12.26-23.26 7.43-7.52-4.83-9.32-15.99-4.01-24.93z" fill="#c15300" stroke="#000" stroke-linejoin="bevel" stroke-opacity=".34351" stroke-width="1.9007"/><path d="m354.89 383.43c.58-.49.89.63.74 1.07-.39 1.2-1.86 1.18-2.67.55-1.46-1.12-1.37-3.46-.3-4.83 1.57-2.01 4.43-1.78 6.1-.03 2.23 2.34 1.95 6.31-.16 8.59-2.64 2.87-7.01 2.42-9.51-.49-3.03-3.52-2.55-9.17.6-12.34 3.71-3.75 9.62-3.07 12.94 1 3.83 4.69 3.14 12.04-1.05 16.1-4.77 4.62-12.23 3.71-16.36-1.51-4.63-5.87-3.75-14.92 1.5-19.87 5.83-5.5 14.83-4.35 19.78 2.04" fill="none" stroke="#000" stroke-linejoin="bevel" stroke-opacity=".34351" stroke-width="1.9007"/><path d="m306.39 354.84c-7.11 6.16-11.78 4.67-24.02 7.05 17.03 8.63 38.85 22.99 56.7 31.91-3.76-7.6-3.23-17.34.09-25.41-10.66-.66-24.27-3.26-32.77-13.55z" fill="url(#s)" fill-rule="evenodd"/><path d="m353.47 375.85c3.05-6.29 9.03-8.64 13.36-5.24 4.32 3.4 5.36 11.26 2.3 17.55-3.05 6.29-9.03 8.63-13.36 5.24-4.32-3.4-5.35-11.26-2.3-17.55z" fill="url(#t)"/><path d="m91.99 366.38 50.25-13.86 39.85 3.47-71.91 51.97-6.93-15.59z" style="fill:#924b00;fill-rule:evenodd;stroke:#000;stroke-width:1.9007;stroke-linejoin:bevel;stroke-opacity:.34351"/><path d="m147.43 420.96 18.2 17.33 32.92-48.52-9.53-9.53-14.73-1.73-41.58 35.52z" style="fill:#924b00;fill-rule:evenodd;stroke:#000;stroke-width:1.9007;stroke-linejoin:bevel;stroke-opacity:.34351"/><path d="m242.73 434.82 13.86-5.2-26.85-97.03-16.47 11.27 1.74 96.16z" style="fill:#924b00;fill-rule:evenodd;stroke:#000;stroke-width:1.9007;stroke-linejoin:bevel;stroke-opacity:.34351"/><path d="m300.77 437.42-10.39-3.47-50.25-66.7 14.73-8.67 64.11 50.25-15.6 11.26z" style="fill:#924b00;fill-rule:evenodd;stroke:#000;stroke-width:1.9007;stroke-linejoin:bevel;stroke-opacity:.34351"/><path d="m180.81 316.6-44.75 25.32-.32-.19-5.09 9.84 33.69 23.1 8.62-5-5.94 9.47.29.09-1.32 11 28.28 1.72 12.91 1.28 1.34.47.16-.31 1.34.12-.28-2.56 12.66-28.19 40.69 26.63 30.34-8.66v-11.28l-.06.03v-.19l-1.16.38-61.15-33.38v-12.75l-16.19 4.03-.69-.37-12.59 3.53z" fill-rule="evenodd" filter="url(#n)"/><g stroke="#000"><path d="m115.78 382.05c4.03 11.96.13 24.15-8.7 27.22-8.835 3.07-19.271-4.15-23.299-16.11-4.027-11.95-.128-24.15 8.704-27.21 8.835-3.07 19.265 4.14 23.295 16.1z" fill="#c15300" stroke-linejoin="bevel" stroke-opacity=".34351" stroke-width="1.9007"/><path d="m160.64 415.1c8.4 8.21 10.21 19.99 4.05 26.29-6.16 6.29-17.97 4.74-26.37-3.47s-10.21-19.98-4.05-26.28 17.97-4.75 26.37 3.46z" fill="#c15300" stroke-linejoin="bevel" stroke-opacity=".34351" stroke-width="1.9007"/><path d="m235.64 416.62c12.13-.3 22.14 7.77 22.34 18.01s-9.49 18.8-21.62 19.1-22.14-7.77-22.34-18.01 9.48-18.8 21.62-19.1z" fill="#c15300" stroke-linejoin="bevel" stroke-opacity=".34351" stroke-width="1.9007"/><path d="m290.65 412.58c5.4-9.26 15.99-12.71 23.64-7.71 7.65 5.01 9.48 16.58 4.08 25.84s-15.99 12.72-23.64 7.71c-7.65-5-9.47-16.58-4.08-25.84z" fill="#c15300" stroke-linejoin="bevel" stroke-opacity=".34351" stroke-width="1.9007"/><path d="m135.38 341.58 44.97-25.45 24.26 16.46-22.45 30.98-18.27 10.61z" fill="#994200" fill-rule="evenodd" stroke-opacity=".20229" stroke-width="1.4255"/><path d="m166.57 378.66 29.38-46.93 34.65-8.66v19.92l-22.52 50.25z" fill="#994200" fill-rule="evenodd" stroke-opacity=".20229" stroke-width="1.4255"/><path d="m135.31 341.26-5.1 9.83 33.68 23.09 3.76-14.04z" fill="#c15300" fill-rule="evenodd" stroke-opacity=".20229" stroke-width="1.4255"/><path d="m207.61 381.53.44 10.78-42.5-2.56 1.34-11.24z" fill="#c15300" fill-rule="evenodd" stroke-opacity=".20229" stroke-width="1.4255"/><path d="m97.362 386.42c.128.93-.879.42-1.161-.05-.766-1.28-.11-2.72.738-3.07 1.516-.61 3.301 1.2 3.911 3.27.89 3.04-.54 5.7-2.64 6.07-2.806.49-5.789-2.71-6.656-6.47-1.091-4.74 1.171-8.75 4.537-9.09 4.079-.41 8.289 4.23 9.399 9.69 1.31 6.44-1.8 11.8-6.433 12.1-5.346.34-10.801-5.75-12.15-12.91-1.533-8.13 2.442-14.86 8.337-15.11 6.616-.28 13.316 7.27 14.896 16.12 1.76 9.83-3.08 17.92-10.236 18.12" fill="none" stroke-linejoin="bevel" stroke-opacity=".34351" stroke-width="1.9007"/><path d="m147.24 426.16c.62.71-.5.83-1 .59-1.34-.65-1.58-2.21-1.06-2.97.94-1.34 3.42-.81 5.06.6 2.41 2.05 2.68 5.06 1.12 6.52-2.08 1.95-6.33.9-9.12-1.77-3.51-3.38-3.8-7.97-1.17-10.09 3.19-2.58 9.25-1 13.17 2.96 4.62 4.67 4.95 10.87 1.23 13.65-4.28 3.21-12.18 1.1-17.23-4.15-5.73-5.97-6.09-13.77-1.29-17.21 5.38-3.85 15.12-1.21 21.29 5.34 6.85 7.26 7.23 16.68 1.35 20.77" fill="none" stroke-linejoin="bevel" stroke-opacity=".34351" stroke-width="1.9007"/><path d="m234.69 436.26c.81.24.07 1.1-.4 1.21-1.28.3-2.26-.97-2.28-2.01-.03-1.85 2-3.02 3.88-2.83 2.76.27 4.5 2.84 4.15 5.22-.46 3.17-4 5.05-7.35 4.46-4.21-.75-6.79-4.74-6.03-8.44.92-4.49 6.02-7.09 10.83-6.08 5.67 1.19 9.09 6.63 7.91 11.65-1.37 5.8-8.04 9.14-14.31 7.71-7.13-1.63-11.4-8.54-9.78-14.88 1.81-7.11 10.05-11.19 17.78-9.32 8.59 2.07 13.71 10.43 11.66 18.09" fill="none" stroke-linejoin="bevel" stroke-opacity=".34351" stroke-width="1.9007"/><path d="m304.99 421.92c.57-.25.49.78.25 1.11-.64.91-1.73.5-2.17-.26-.77-1.35-.03-3.3 1.16-4.17 1.75-1.28 3.83-.32 4.59 1.63 1 2.59-.34 5.87-2.57 7.24-2.81 1.71-5.96.14-7.01-3-1.26-3.81.71-8.47 3.98-10.31 3.85-2.17 8.1.02 9.43 4.37 1.53 5.02-1.08 11.07-5.39 13.37-4.9 2.63-10.24-.18-11.85-5.73-1.8-6.24 1.45-13.67 6.8-16.45 5.94-3.08 12.38.35 14.27 7.11" fill="none" stroke-linejoin="bevel" stroke-opacity=".34351" stroke-width="1.9007"/></g><path d="m208.25 380.47 1.33 12.58-43.39-4.36 1.34-11.24z" fill="url(#u)" fill-rule="evenodd"/><path d="m168.4 377.6 18.91-31.66 7.71.92 21.25 12.74-9.05 21.8z" fill="url(#v)" fill-rule="evenodd"/><path d="m165.29 361.27-1.85 11.59-32.22-21.98 5.34-9.98z" fill="url(#w)" fill-rule="evenodd"/><path d="m140.04 359.91c6.51 4.08 13.02 8.16 19.52 12.25-14.44 9.91-27.6 18.86-43.33 29.74 2.89-7.98 3.2-17.23-.99-24.88 10.52-1.84 17.5-5.94 24.8-17.11z" fill="url(#x)" fill-rule="evenodd"/><path d="m171.55 390.97c9.12.64 15.02.31 24.46 1.26-9.52 13.95-15.27 23.01-27.27 38.95-.03-8.48-4.84-16.96-11.4-22.71 9.25-5.34 11.18-4.5 14.21-17.5z" fill="url(#y)" fill-rule="evenodd"/><path d="m224.11 365.22c7.71 5.63 12.21 7.41 16.71 9.83 4.21 17 7.98 28.6 12.64 47.15-6.45-5.5-15.01-9.04-23.64-7.8 1.97-10.5 2.19-38.42-5.71-49.18z" fill="url(#z)" fill-rule="evenodd"/><path d="m223.63 363.88c-4.26 5.9-6.59 10.83-9.56 15.45.66 17.51.68 28.58 1.33 47.69 5.32-8.36 11.92-12.85 20.56-14.04-4.8-9.55-16.94-36.58-12.33-49.1z" fill="url(#A)" fill-rule="evenodd"/><path d="m262.94 388.47c-3.73-2.08-.45 1.27-9.85-5.07 10.05 13.57 21.5 29.29 34.11 44.76-2.98-10.01 4.18-17.14 10.52-23.13-9.45-4.98-17.09-19-34.78-16.56z" fill="url(#B)" fill-rule="evenodd"/><path d="m100.69 382.77c2.2 8.41.07 17-4.756 19.16-4.823 2.16-10.522-2.92-12.721-11.34-2.2-8.42-.07-17 4.752-19.16 4.823-2.16 10.522 2.92 12.725 11.34z" fill="url(#C)"/><path d="m148.09 418.45c4.84 5.78 5.89 14.07 2.33 18.51-3.55 4.43-10.36 3.34-15.21-2.44-4.84-5.78-5.89-14.07-2.34-18.51 3.56-4.43 10.37-3.34 15.22 2.44z" fill="url(#D)"/><path d="m236.3 427.51c9.93-.22 18.12 5.46 18.28 12.67.17 7.21-7.76 13.24-17.69 13.45s-18.12-5.47-18.29-12.68c-.16-7.21 7.77-13.23 17.7-13.44z" fill="url(#E)"/><path d="m302.09 417.57c3.42-6.52 10.13-8.95 14.98-5.43s6.01 11.67 2.59 18.19-10.14 8.95-14.99 5.43c-4.84-3.53-6-11.67-2.58-18.19z" fill="url(#F)"/><path d="m135.31 265.02c19.34 57.18 49.95 87.5 104.82 90.97 60.35 19.34 116.38-20.22 100.49-82.3-7.22 13.28-11.84 20.5-24.25 24.25 4.91-34.36-26.57-40.14-11.27-77.1 10.69-22.81 17.04-50.82-1.73-73.64-7.79 25.99-17.32 43.32-36.38 62.38 2.02-31.77 18.77-57.47 8.66-87.5 1.44-20.21-31.77-19.64-32.05-81.435-21.08 26.568-30.04 47.07-26.86 87.495-7.8 32.64-26.86 44.47-23.39 79.71-2.89-19.64-4.91-36.68-.87-51.12-2.31-17.9-4.62-33.21-22.52-45.91 5.49 22.23 11.84 55.73-6.93 64.1-5.2 10.69-31.19 47.36-2.6 104.83-8.37-4.91-16.75-6.35-25.12-14.73z" fill="url(#G)" fill-rule="evenodd" stroke="#ff0" stroke-opacity=".50382" stroke-width="2.1563"/><path d="m237.31 53.087c-14.99 19.685-21.35 44.824-19.44 69.333 1.43 11.99-4.94 23.15-9.48 33.86-8.34 15.96-15.89 33.39-13.61 51.83-.65 10.63-5.37-.08-4.88-5.43-2.26-15.03-3.23-30.63-.14-45.52-1.56-14.49-5.23-30.2-17.2-39.73 3.56 17.2 8.18 36.59-.4 53.03-3.08 5.51-9.96 7.01-11.4 13.63-14.45 25.3-15.53 56.84-4.57 83.63 2.28 6.1 5.26 11.92 7.84 17.9-8.04-4.6-16.88-7.72-24.65-12.75 10.77 31.54 31.26 62.58 63.6 74.86 12.71 5.41 26.58 6.42 40.02 8.55 29.45 9.2 66 3.16 85.43-22.47 11.41-14.83 14.58-34.84 10.7-52.91-5.15 10.4-14.06 18.83-25.57 21.5 2.65-13.35-1.38-26.72-8.28-38.14-7.44-12.18-9.2-27.59-3.25-40.76 9.01-19.76 15.83-43.68 5.33-64.25-3.25-9.5-5.54-3.67-7.19 3.06-6.86 21.12-20.73 39.09-36.42 54.5 1.09-21.55 8.61-41.94 11.8-63.12 1.83-10.79-.27-21.62-2.53-32.07-1.54-11.74-13.77-17.77-18.94-27.821-9.2-13.374-12.26-29.996-12.8-45.962-1.32 1.75-2.64 3.5-3.97 5.25z" fill="url(#H)" fill-rule="evenodd"/><path d="m234.07 347.32c-45.92-48.51-53.72-82.3-23.39-114.35 34.07-60.64 25.7-98.76.86-135.15 23.39 80.57-27.72 132.55-44.18 155.94-9.82-30.32-1.44-43.32 12.13-80.57-26.57 28.88-42.74 63.82-32.92 97.03 17.9 49.96 60.06 60.93 87.5 77.1z" fill="url(#I)" fill-rule="evenodd" stroke="#ff0" stroke-opacity=".50382" stroke-width="2.1563"/><path d="m289.79 164.02c-6.16-17.9-1.13-21.73 4.26-29.55 5.56-2.17 3.85-9.72 6.89-26.54 4.59 18.77 16.93 27.31-11.15 56.09z" fill="#ffd700" fill-rule="evenodd" stroke="#ff0" stroke-opacity=".50382" stroke-width="2.1563"/><path d="m168.17 360.4 13.06-5.94" fill="none" stroke="#000" stroke-opacity=".17939" stroke-width="1.0861pt"/><path d="m137.42 341.68 26.98-14.9 22.08 17.69-5.39 9.14-13.84 5.94z" fill="url(#J)" fill-rule="evenodd"/><path d="m296.71 104.99c-1.88 7.98-1.03 16.77-4.5 24.22-8.15 6.22-11.7 17.77-8.13 27.58 1.11 8.22 3.68 9.64 8.24 2.13 9.73-10.01 18.84-24.36 13.3-38.71-2.5-7.32-4.69-14.75-7.48-21.973-.48 2.253-.96 4.503-1.43 6.753z" fill="url(#K)" fill-rule="evenodd"/><path d="m198.55 341.26 64.11 43.31 30.32-14.72-76.24-41.59-21.66 6.07z" fill="#994200" fill-rule="evenodd" stroke="#000" stroke-opacity=".20229" stroke-width="1.4255"/><path d="m207.37 380.99 10.29-20.99" fill="none" stroke="#000" stroke-opacity=".17939" stroke-width="1.0861pt"/><path d="m195.53 339.72 64.11 43.31 30.32-14.72-76.24-41.59-21.66 6.07z" fill="url(#L)" fill-rule="evenodd"/><path d="m195.08 334.33v10.39l67.58 44.19 30.32-8.67v-11.26l-27.73 8.66z" fill="#c15300" fill-rule="evenodd" stroke="#000" stroke-opacity=".20229" stroke-width="1.4255"/><path d="m195.02 334.18v10.39l67.57 44.18 30.32-8.66v-11.26l-27.72 8.66z" fill="url(#l)" fill-rule="evenodd"/><path d="m281.37 323.77-20.65 22.5 66.56 8.63.87.9 19.41-21.47-7.28-7.96-.69.81z" fill-rule="evenodd" filter="url(#o)"/><g transform="translate(34.258 -832.81)"><g stroke="#000"><path d="m307.14 1159-58.99-3.5-20.66 22.5 67.89 8.8z" fill="#994200" fill-rule="evenodd" stroke-opacity=".20229" stroke-width="1.4255"/><path d="m288.13 1180.4 6.81 7.2 19.4-21.5-7.28-8z" fill="#c15300" fill-rule="evenodd" stroke-opacity=".20229" stroke-width="1.4255"/><path d="m288.92 1180.4-46.32-6.3" fill="none" stroke-opacity=".17939" stroke-width="1.0861pt"/></g><path d="m307.55 1159.2 5.84 7-18.42 20.7-6.37-7.2z" fill="url(#p)" fill-rule="evenodd"/><path d="m287.85 1179.8-39.05-5.8 23.98-16.2 15.8.7 16.39.6z" fill="url(#q)" fill-rule="evenodd"/></g><path d="m329.36 273.69c15.88-15.31 12.71-21.95 11.26-32.92-4.62-5.2 1.16-12.13 6.93-31.19-14.72 17.04-32.05 19.35-18.19 64.11z" fill="#ffd700" fill-rule="evenodd" stroke="#ff0" stroke-opacity=".50382" stroke-width="2.1563"/><path d="m254.86 347.32c17.9-10.1 22.81-41.87 25.12-77.1 4.33-34.08 13-68.15 70.17-73.64-23.39 18.77-42.45 41.87-33.78 84.9-2.31 62.67-48.81 60.36-61.51 65.84z" fill="url(#k)" fill-rule="evenodd" stroke="#ff0" stroke-opacity=".50382" stroke-width="2.1563"/><path d="m343.56 191.6c-24.38 3.46-49.51 18.11-56.66 42.99-11.49 31.1-5.14 66.49-20.8 96.36-5.95 2.58-4.5 13.67 2.85 11.5 21.51-3.9 41.94-18.85 47.39-40.78 5.25-15.24 2.27-31.35 1.71-47 .72-22.69 13.86-43.16 31.11-57.16 3.02-4.35-2.02-5.81-5.6-5.91z" fill="url(#j)" fill-rule="evenodd"/><path d="m343.86 203.49c-9.82 10.4-24.08 20.13-23.73 36.12-.73 11.46 3.35 22.38 5.89 33.38 8.53-8.14 18.22-18.74 15.1-31.58-.03-5.65-4.29-10.6-.94-16.11 3.21-8.73 6.57-17.41 8.81-26.47-1.71 1.55-3.42 3.1-5.13 4.66z" fill="url(#i)" fill-rule="evenodd"/><path d="m223.67 323.93c-2.31-27.72-5.49-47.65 29.46-72.77 59.19-41.29 30.03-65.26-6.93-108.29 10.97 42.74-6.65 76.81-21.66 99.63-9.82 14.15-43.9 43.02-.87 81.43z" fill="url(#h)" fill-rule="evenodd" stroke="#ff0" stroke-opacity=".50382" stroke-width="2.1563"/><path d="m201.09 120.58c15.99-18.41 11.88-25.987 9.27-38.663-5.55-5.843.13-14.122 4.68-36.476-14.56 20.374-33.35 23.763-13.95 75.139z" fill="#ffd700" fill-rule="evenodd" stroke="#ff0" stroke-opacity=".50382" stroke-width="2.1563"/><path d="m211.21 41.518c-9.31 12.174-23.43 23.408-22.69 40.281-.1 14.03 5.43 27.121 9.56 40.281 8.44-9.63 17.42-21.87 13.66-35.445.03-5.372-3.73-9.542-3.84-14.616 2.06-11.975 6.31-23.543 7.99-35.626-1.56 1.708-3.12 3.417-4.68 5.125z" fill="url(#g)" fill-rule="evenodd"/><path d="m245.3 135.71c6.41 29.13-.19 59.83-14.93 85.42-9.15 17.6-27.2 31.08-28.92 52.01-2.76 18.25 10.39 33.46 22.57 45.24 4.96 6.24.71-8.51 1.38-11.96-1.98-17.95 1.1-38.09 15.58-50.4 16.13-15.69 39.13-26.56 46.85-49.11 5.23-19.91-8.7-37.76-20.84-51.9-7.32-8.88-15.04-17.41-22.72-25.99.35 2.23.69 4.46 1.03 6.69z" fill="url(#f)" fill-rule="evenodd"/><path d="m216.21 109.86c.63 13.78 4.55 27.42 2.75 41.33-1.58 32.46-15.84 63-35.54 88.41-3.65 5.19-7.54 10.21-11.31 15.32-5.03-16.77-2.76-34.86 4.02-50.77 3.57-8.51 6.08-17.34 7.39-26.48-18.82 17.17-32.11 40.57-36.78 65.63-3.79 23.17 4.36 46.99 19.73 64.4 19.32 22.8 47.11 35.61 74.05 47.06-15.26-21.46-36.51-40.83-41.02-67.96-3.1-15.75 3.1-31.55 13.45-43.33 11.84-16.27 19.21-35.61 23.59-55.15 5.69-25.43 1.13-52.94-12.77-74.99-3.43-2.51-9.56-15.687-7.56-3.47z" fill="url(#m)" fill-rule="evenodd"/></g></svg>