<svg height="130" viewBox="0 0 160 130" width="160" xmlns="http://www.w3.org/2000/svg"><g stroke-width=".323275" transform="translate(0 -923.3622)"><path d="m91.466456 943.36362c2.686701 0 5.024635-.96995 7.015095-2.91051 1.989489-1.94055 2.984719-4.30336 2.984719-7.08777 0-2.78765-.99523-5.15175-2.984719-7.0923-1.99046-1.94023-4.328717-2.91083-7.015095-2.91083-2.784316 0-5.14617.9706-7.085882 2.91083-1.940036 1.94055-2.910377 4.30433-2.909731 7.0923-.000646 2.78441.969695 5.14722 2.909731 7.08777 1.939712 1.94056 4.301242 2.91051 7.085882 2.91051z" fill="#501616"/><path d="m8.499697 1003.2172h27.009231c1.095432 0 2.089692-.099 2.982781-.2961 2.288803-.3977 3.881042-1.0948 4.776717-2.091l13.278999-14.77655 15.519642 14.92695-6.266168 27.9088c-.200403.5985-.300605 1.0964-.300605 1.4941 0 1.7915.646463 3.334 1.939713 4.6276 1.293249 1.2936 2.835387 1.9406 4.62706 1.9406 3.381648 0 5.471664-1.7418 6.270369-5.2249l7.609518-33.88012c.895675-3.58334.4981-6.22064-1.193048-7.91224l-13.579282-13.58356 14.772653-17.16333 9.549554 9.55178c.995553.99291 2.140116 1.48953 3.433689 1.48953 1.69083 0 3.33155-.74557 4.92249-2.23639l15.51964-15.52379c.79516-.99614 1.19241-2.0909 1.19305-3.28426-.00064-1.49082-.52234-2.7343-1.56702-3.73045-1.04404-.99582-2.26327-1.49405-3.6564-1.49405-1.39377 0-2.48824.39768-3.28339 1.19337l-12.832936 12.84057-15.519641-15.52346c-1.193048-1.1966-2.685085-1.79507-4.476435-1.79507h-24.321883c-1.493977 0-2.787226.59847-3.880072 1.79507l-16.712366 19.25423c-1.193048.99291-1.790056 2.23639-1.789733 3.73044-.000323 1.39382.496807 2.58816 1.491391 3.58268.993937.99421 2.187954 1.49147 3.581729 1.49147 1.49042 0 2.783993-.59684 3.879748-1.79021l15.519641-18.06054 8.952546.15034-34.172043 39.70215-23.128836-.15066c-1.891228 0-3.483467.59781-4.77704 1.79279-1.292926 1.19466-1.939712 2.73689-1.939712 4.62571 0 1.79151.646786 3.3088 1.939712 4.5526 1.29325 1.2439 2.835711 1.8659 4.626737 1.8659z" fill="#501616"/><path d="m158.6844 951.68809c1.344-.88072 1.71992-2.68419.84008-4.02854-.88016-1.34403-2.68282-1.72102-4.02747-.8403l-36.52516 23.92552c-1.11547.7307-1.59159 2.12614-1.15523 3.38676l23.62596 68.23787h-135.947644c-3.034821 0-5.494936 2.4608-5.494936 5.4964s2.460115 5.4964 5.494936 5.4964h147.716834c3.03482 0 5.49493-2.4608 5.49493-5.4964s-2.46011-5.4964-5.49493-5.4964h-5.61195l-23.54322-67.99862z" fill="#f00"/></g></svg>