<svg height="15" viewBox="0 0 15 15" width="15" xmlns="http://www.w3.org/2000/svg"><path d="m0 0h15v14.999983h-15z" fill="#e6e6e6"/><path d="m3 9h3v3h-3z" fill="#f00"/><path d="m9 9h3v3h-3z" fill="#b3b3b3"/><path d="m3 3h3v3h-3z" fill="#b3b3b3"/><path d="m9 3h3v3h-3z" fill="#f00"/><path d="m0 6h3v3h-3z" fill="#b3b3b3"/><path d="m6 6h3v3h-3z" fill="#f00"/><path d="m0 0h3v3h-3z" fill="#b3b3b3"/><path d="m6 0h3v3h-3z" fill="#b3b3b3"/><path d="m0 12h3v3h-3z" fill="#f00"/><path d="m6 12h3v3h-3z" fill="#b3b3b3"/><path d="m12 6h3v3h-3z" fill="#b3b3b3"/><path d="m12 0h3v3h-3z" fill="#f00"/><path d="m12 12h3v3h-3z" fill="#b3b3b3"/></svg>