<svg height="16" viewBox="0 0 16 16" width="16" xmlns="http://www.w3.org/2000/svg"><path d="m1.652496-.00000046c-.911154 0-1.652496.74237-1.652496 1.65454996v12.6909105c0 .91325.741342 1.65454 1.652496 1.65454h12.691768c.914259 0 1.655736-.74129 1.655736-1.65454v-12.6909105c0-.91217996-.741342-1.65454996-1.655736-1.65454996h-12.691768z" fill="#fff"/><path d="m6.9213522 3.0774732c.6174871 0 1.1169764-.4874454 1.1169764-1.0876954 0-.6051683-.4996464-1.09246583-1.1169764-1.09246583-.6137158 0-1.1121051.48745693-1.1121051 1.09246583 0 .60025.4983893 1.0876954 1.1121051 1.0876954z"/><path d="m13.611819 6.1118426-1.014553-.1941-.590563 1.17362c.09598.0221.195055.0327.296294.0327.629709.00014 1.156963-.42801 1.308822-1.01219zm-12.6059548 1.98146c0-.77828.7683797-1.41092 1.5467077-1.41092h2.968607v-2.13222c0-.53046.428175-.95861.959614-.95861.530494 0 .958669.42815.958669.95861v.33002l1.414246.36173c.246754.057.404957.3037.349073.55044-.05588.25092-.303718.40601-.553711.35013l-1.209608-.28372v.82362h1.423695l3.8955521-4.03026-.115953 1.04822 1.918283 1.27486c.316407.18141.43128.59052.250939.90691-.14241.25308-.426016.37537-.692882.32583l-.154964-.0285c-.184526.74656-.859455 1.29699-1.661 1.29699-.158204 0-.312087-.0232-.457737-.0622l-1.453121 2.9684104v4.072515c0 .34905-.286843.63277-.6359161.63277-.349073 0-.632813-.28372-.632813-.63277v-4.165375h-3.206858l-.573689.981675 1.200158 2.86083c.175077.3068.06533.69176-.237305.86358-.306822.17399-.691802.0653-.866878-.23729l-1.400478-3.30247v-1.051325l-.626469.985995v3.06438c0 .34905-.28374.63277-.632813.63277s-.635918-.28372-.635918-.63277v-3.53896l.52415-.820385v-2.7755204l-.659717.79717v1.8477132h-1.0018637z"/><path d="m10.764184 9.1499062 2.264298 4.9904528c.144223.317863.0074.694714-.308916.842234-.316364.147541-.696713.01181-.840943-.306047l-2.2693259-5.0012261c.3917779-.2209537.7466999-.3864563 1.1548869-.5254137z"/></svg>