<svg height="15.991365" width="15.990621" xmlns="http://www.w3.org/2000/svg"><g stroke="#fff" transform="translate(-370.04571 -532.37082)"><path d="m15.95429 7.9913654a8 8 0 1 1 -16.00000009 0 8 8 0 1 1 16.00000009 0z" fill="#808080" stroke-width=".202533" transform="matrix(.98749177 0 0 .98749177 370.19091 532.47078)"/><g fill="none" stroke-linecap="round"><path d="m373.19531 534.36219h9.80919" stroke-width=".495207"/><path d="m370.29159 539.86219h15.41869" stroke-width=".490833"/><path d="m371.09799 536.86219h13.90344" stroke-width=".498273"/><path d="m370.71031 542.86219h14.57747" stroke-width=".510207"/><path d="m372.57736 545.86231h10.94457" stroke-width=".477506"/><path d="m6.625 2.0851154-.0625 2.46875" stroke-width=".4" transform="translate(370.04571 532.37082)"/><path d="m374.01446 537.11219.0312 2.7491" stroke-width=".393287"/><path d="m378.35821 537.04969v2.71875" stroke-width=".4"/><path d="m382.32696 536.92469v2.9375" stroke-width=".4"/><path d="m13.59375 4.3976154-1.5625-2.40625" stroke-width=".4" transform="translate(370.04571 532.37082)"/><path d="m9.6875 4.5538654-.28125-2.40625" stroke-width=".4" transform="translate(370.04571 532.37082)"/><path d="m372.67071 536.83094 1.34375-2.28125" stroke-width=".4"/><path d="m5.09375 1.9288654 1.8178617-1.65245871" stroke-width=".4" transform="translate(370.04571 532.37082)"/><path d="m10.8125 2.0226154-1.65625-1.68749997" stroke-width=".4" transform="translate(370.04571 532.37082)"/><path d="m8.0625 2.0226154v-1.78124997" stroke-width=".4" transform="translate(370.04571 532.37082)"/><path d="m1.375 7.6163654.625 2.7499996" stroke-width=".4" transform="translate(370.04571 532.37082)"/><path d="m5.5625 7.5538654.125 2.9999996" stroke-width=".4" transform="translate(370.04571 532.37082)"/><path d="m10.25 7.6163654.15625 2.9374996" stroke-width=".4" transform="translate(370.04571 532.37082)"/><path d="m14.5 7.6163654-.34375 2.7187496" stroke-width=".4" transform="translate(370.04571 532.37082)"/><path d="m373.68633 542.98718.95313 2.8125" stroke-width=".4"/><path d="m7.90625 10.647615.125 2.90625" stroke-width=".4" transform="translate(370.04571 532.37082)"/><path d="m381.60821 545.83093.4375-2.75" stroke-width=".4"/><path d="m375.92071 546.01843 1.40625 2.0625" stroke-width=".4"/><path d="m9.40625 15.647615c.125-.28125.71875-2.0625.71875-2.0625" stroke-width=".4" transform="translate(370.04571 532.37082)"/></g></g></svg>