<svg height="16" viewBox="0 0 16 16" width="16" xmlns="http://www.w3.org/2000/svg"><g fill-rule="evenodd"><path d="m0 13h16v3h-16z" fill="#45d749"/><path d="m0 0h16v13h-16z" fill="#a3b6f3"/><g fill="#008000"><rect height="2" ry="1" width="8" x="1" y="8"/><rect height="4.000017" ry="2.000009" width="6" x="2" y="6"/><rect height="2" ry="1" width="4" x="3" y="5"/><rect height="2" ry="1" width="2" x="4" y="4"/></g><path d="m4 10h2v3.000017h-2z" fill="#804000"/><rect fill="#008000" height="2" ry="1" width="8" x="8" y="11"/><rect fill="#008000" height="4.000017" ry="2.000009" width="6" x="9" y="9"/><rect fill="#008000" height="2" ry="1" width="4" x="10" y="8"/><rect fill="#008000" height="2" ry="1" width="2" x="11.000001" y="7"/><path d="m11.000001 13h2v2h-2z" fill="#804000"/></g></svg>