<svg height="16" viewBox="0 0 16 16" width="16" xmlns="http://www.w3.org/2000/svg"><rect fill="#fff" fill-rule="evenodd" height="16" ry="3" width="16"/><path d="m3.9995255 3.071c-1.322034 0-1.322034 1.9 0 1.9h8.0000005c1.33909 0 1.338983-1.9 0-1.9zm.9004745 2.3000014-.7504745 2.7004452-2.15-.0004466c-1.32203397-.0002746-1.32015778 1.970408 0 1.9l1.7754745.0004466-.875 3.3995524 1.8-.000447.875-3.399552 4.85.0004466.875 3.3995524 1.8-.000447-.875-3.399552h1.774526c1.33909 0 1.337663-1.9594517 0-1.9h-2.149526l-.75-2.7004452-1.8000002.0004466.7500002 2.7004452-4.1-.0004466.75-2.7004452z" fill="#734a08"/></svg>