<svg height="13" viewBox="0 0 14 13" width="14" xmlns="http://www.w3.org/2000/svg"><path d="m0-1h14v14h-14z" fill="none" visibility="hidden"/><path d="m3.40625 0c-.75363.047193-1.407726.7448953-1.40625 1.5.000287.7852156.714784 1.4994517 1.5 1.4994517s1.499713-.7142361 1.5-1.4994517c.0016-.8176455-.777702-1.5511045-1.59375-1.5zm8 3c-.75363.0471927-1.407726.7448953-1.40625 1.5.000287.7852156.714784 1.4994517 1.5 1.4994517s1.499713-.7142361 1.5-1.4994517c.001599-.8176455-.777702-1.5511044-1.59375-1.5zm-8.40625.5c-1.47099 0-1.865835 1.8734067-1.96875 2.875l-1.03125-.375v1.4501818l5.96875 2.125-.96875 3.4248182h4l-.9375-2.674818 5.9375 2.125v-1.450182l-.9375-.34375c.164062-.861328.6875-4.15625-1.0625-4.15625-1.638462 0-1.915209 2.244501-1.96875 3.09375l-5.9375-2.125c.191262-1.131219.52025-3.96875-1.09375-3.96875z" fill="#f60" stroke-width="1.333328"/></svg>