<svg height="14" width="14" xmlns="http://www.w3.org/2000/svg"><path d="m0 0h14v14h-14z" fill="none" visibility="hidden"/><path d="m1.65421264 11.0000406c-.42637274 0-1.05684474.3624563-1.63807407.6509474l-.01613857 2.0268076c.60987926-.2921572 1.26337235-.6777821 1.65421378-.6777821.66883871 0 1.94469256.9999865 2.65287443.9999865.63072334 0 1.97942224-.9999865 2.65287424-.9999865.66883872 0 2.01848023.9999865 2.65287425.9999865.6688398 0 2.0233808-.9999865 2.6528765-.9999865.3939905 0 1.0720025.3917099 1.6881539.684812l.0461329-2.0235194c-.5998076-.2997163-1.2974792-.6856813-1.7342834-.6612655-.6343955 0-1.9435995.9999864-2.65287612.9999864-.59015128 0-1.98403553-.9999864-2.65287425-.9999864-.66883871 0-2.06141223.9999864-2.65287462.9999864-.63072315 0-1.944692-.9999864-2.65287897-.9999864zm3.09578736-6.99972225c-.80645161.00005705-1.75.99968165-1.75 2.49968165v3.5h1.25v-4c0-.60235699.23208677-.7.5-.7v4.7h4.5v-4.7c.27068931 0 .46255839.10093421.5.7v4h1.25v-3.5c0-1.5-.9435484-2.50005705-1.75-2.5zm2.24999967-3.75031835c-.96650172 0-1.74999967.78352486-1.74999967 1.75000005s.78349795 1.74999995 1.74999967 1.74999995c.96650238 0 1.75000033-.78352476 1.75000033-1.74999995s-.78349795-1.75000005-1.75000033-1.75000005z" fill="#734a08" stroke-width="1.329875"/></svg>