<svg enable-background="new 0 0 580 580" height="16" viewBox="0 0 12 16" width="12" xmlns="http://www.w3.org/2000/svg"><rect fill="#fff" fill-rule="evenodd" height="16" ry=".134491" transform="scale(-1 1)" width="12" x="-12"/><path d="m3.8635101 4.3151508c.3049521.0000291.5674923-.104486.7876789-.3134579.2201865-.2089718.3302652-.4657445.3302652-.7703471 0-.3049521-.1100787-.5618996-.3302652-.7709006-.2201866-.2089718-.4827268-.3134578-.7876789-.3134578-.3046026 0-.5642299.104486-.778882.3134578-.214652.209001-.3219926.4659485-.3219926.7709006 0 .3046026.1073406.5613753.3219926.7703471.2146521.2089719.4742794.313487.778882.3134579z"/><path d="m10.81614 4.5903483c-.03966-.1467814-.13902-.2710168-.298091-.3726481 0 0-.356534-.029433-.5430602-.027484v-2.9514936c0-.2091467-.199139-.37867781-.4448108-.37867781-.2456719 0-.4448097.16953111-.4448097.37867781v2.9960902l-4.9611323.761813c-.1857935.0337606-.3350443.1156133-.4477521.2454998-.1127079.1299156-.1425786.2682495-.0895436.4150308l1.0940263 3.6411616-3.5423168 4.632789c-.066345.101311-.0995.208447-.0995.321468 0 .180571.076268.335771.2288715.465687.1525697.129886.3348732.194815.5469789.194844.2784166-.000029.5039009-.112846.6762817-.338538l3.7013532-4.8700452.035736.7961252-.3933288 3.454941c-.026689.180571.019639.34148.1390199.482726.1193802.141247.2851231.22878.4972289.26257.2124821.03376.4081641-.0029.5870459-.110079.1788819-.107137.2817014-.25118.3084243-.432071l.3847789-3.886008c.013343-.124381.0002054-.254268-.039451-.3896893l-1.0817279-4.1075882 2.4550068-.3753862v9.2982577c0 .209147.1991378.378678.4448097.378678.2456717 0 .4448098-.169531.4448098-.378678v-9.4346982c.1621494-.025867.6207304-.1339791.7221484-.2582437.106035-.1298865.145692-.2682204.119004-.4150308z"/></svg>