<svg height="120" viewBox="0 0 160 120" width="160" xmlns="http://www.w3.org/2000/svg"><g transform="translate(0 -933.3622)"><g fill-rule="evenodd"><path d="m86.351768 960.44934h50.328136v31.836567h-50.328136z" fill="#fff" stroke="#000" stroke-width="1.17522"/><path d="m87.271004 998.03412h36.07999v21.445467h-36.07999z" fill="#fff" stroke="#000" stroke-width="1.17522"/><path d="m72.480936 947.56171c-2.895545.006-6.118939 2.23478-8.171933 4.09749-8.777617 6.48384-15.200631 11.12873-29.870149 14.93112-5.57339 1.61961-16.922412-.35169-28.0541667-1.10769-7.10729086-1.06576-1.0159477 11.14521-.065528 16.11085 6.3198557 19.04112 13.5917377 38.31362 26.4347567 54.27612 7.324332 7.842 17.454198 14.6775 28.812383 14.5528 9.385893-.7529 17.132614-8.0035 19.329947-16.6421.189793-.5831.36517-1.1736.524201-1.7651.251854-.9057.494921-1.8094.720778-2.7196-1.38522-2.0778-2.431276-4.3702-3.042243-6.7722-.189792-.5831-.355811-1.1735-.514842-1.765-5.105349-18.3591-4.790764-37.68007-2.574205-56.41945.645523-3.00754 1.429204-5.98494 2.274661-8.94246-.587486-1.87898-1.169728-3.76151-1.731738-5.64645-1.126923-1.59195-2.555212-2.19151-4.071926-2.18833z" fill="#fff" stroke="#000" stroke-width="5.876098"/><path d="m87.083704 938.63727c-2.323997.57443-1.992615 3.48841-2.76142 5.18716-3.428539 10.5442-6.872809 21.27346-7.011201 32.41979-1.054476 16.7452-.379226 34.04308 5.681974 49.88138 3.57731 7.1446 12.147772 12.3038 20.462593 10.2843 11.72381-2.3258 21.06906-10.8116 27.15553-20.4154 11.41083-17.15234 17.85182-36.71447 23.69206-56.14029.11172-1.03305.55014-2.62254-.10296-3.36805-5.62814.37543-11.2955 1.09065-16.95233 1.56695-6.16456.5641-12.47187.01-18.24409-2.16132-10.30042-3.28254-19.374769-9.19265-27.632931-15.85867-1.2624-.81247-2.741054-1.45042-4.287225-1.39585zm18.421956 26.31405c4.88418-.15065 7.11552 6.56552 3.7911 9.63589-4.47793 4.64369-11.506915 7.76238-18.122406 6.11471-4.062831-1.40497-6.360579-7.03927-3.266902-10.3383 4.872673-4.07159 11.870786-3.38299 17.598208-5.4123zm19.76054 4.17856c5.1273-.14674 8.86352 4.51606 9.52924 9.03249 1.33907 3.10896 3.70797 6.60398 2.03128 10.03213-1.23052 2.58211-4.71789 3.05748-7.23585 2.10728-6.02356-1.34624-10.03798-7.08132-10.15642-12.90486-.54759-3.34056 1.08381-7.62452 4.94248-8.17698.29275-.0548.58976-.0844.88927-.0901zm-19.8916 30.42055c6.32799.0993 12.11235 3.81097 15.81968 8.54617 2.35593 3.8886 1.23345 10.1259-3.54773 11.7162-3.28379.6962-5.45649-2.3304-8.06897-3.6292-4.18314-2.5775-9.52695-2.6109-14.097289-1.0717-2.248676.6778-5.296114.1854-6.150003-2.1973-1.461345-3.3149.620615-7.1515 3.631963-8.9154 3.549535-2.6336 7.882769-4.43479 12.412349-4.44877z" fill="#333" stroke="#333" stroke-width="5.876098"/></g><path d="m78.579756 1020.7612c-5.105349-18.3591-4.782087-37.68696-2.565527-56.42634 1.880788-8.76274 4.875994-17.24776 7.436801-25.83651 3.278325-4.63112 9.109231-.93342 12.237596 1.905 8.777624 6.48383 15.205174 11.13293 29.874694 14.93532 5.57339 1.61962 16.91835-.35528 28.0501-1.11126 7.10729-1.06576 1.02253 11.14629.0721 16.11194-6.31986 19.04116-13.60008 38.30825-26.44309 54.27075-7.32433 7.842-17.44952 14.6831-28.80771 14.5585-9.385895-.753-17.134812-8.0063-19.332143-16.645-.189792-.5831-.3638-1.1709-.522831-1.7624z" fill="none" stroke="#333" stroke-width="5.876098"/><path d="m48.825549 1030.6451c-4.669135-.6239-9.129215-3.2877-11.374577-7.3345 2.48644-2.6578 6.037198.035 8.940195.2885 6.770838.8236 13.098629-3.4595 16.396896-8.8983 2.138141-1.9715 2.416741-7.3481 6.135351-6.5597 2.681913 1.4279 2.176544 4.7136 1.521409 7.1006-.424053 3.1827-2.031841 6.0442-4.157072 8.4707-1.674229 2.1573-3.336731 4.6258-6.232404 5.3402-3.703004.6629-7.387784 2.3466-11.229798 1.5925zm-16.543102-34.82401c-3.569217-2.02685-7.871457-3.27318-10.40155-6.63775-.564308-3.82789 4.45519-6.32394 7.794071-4.82894 3.931912 1.18349 7.650148 3.34962 10.138421 6.55797 1.651595 2.88677-1.215136 7.4451-4.782037 5.9582-.945914-.27503-1.827376-.71245-2.748905-1.04948zm22.764528-7.08681c-2.496354-3.15403-2.519757-8.64421 1.35969-10.80818 2.547936-1.61935 6.204388-2.73231 8.912533-.82107 1.421542 2.8183-1.082059 5.40133-2.211747 7.83964-.682558 2.46285-2.361044 5.22847-5.28618 5.47379-1.177757.028-2.223468-.7245-2.774296-1.68418z" stroke-width=".293805"/></g></svg>