<svg height="687.5" width="687.5" xmlns="http://www.w3.org/2000/svg" xmlns:xlink="http://www.w3.org/1999/xlink"><radialGradient id="a" cx=".196429" cy=".257813" fx=".214286" fy=".242188" r=".660899"><stop offset="0" stop-color="#ff5f5f"/><stop offset="1" stop-color="#890000"/></radialGradient><linearGradient id="b" x1=".647541" x2=".655738" y1=".648438" y2=".304688"><stop offset="0" stop-color="#a00000"/><stop offset="1" stop-color="#510000"/></linearGradient><radialGradient id="c" cx=".275286" cy=".293551" fx=".270442" fy=".279034" r=".642237"><stop offset="0" stop-color="#ffe59e"/><stop offset="1" stop-color="#db8e00"/></radialGradient><radialGradient id="d" cx=".196429" cy=".257813" fx=".214286" fy=".242188" r=".660899"><stop offset="0" stop-color="#67ff69"/><stop offset="1" stop-color="#1a7600"/></radialGradient><linearGradient id="e" x1=".466667" x2=".233333" y1="1.03125" y2=".179688"><stop offset="0" stop-color="#67e869"/><stop offset="1" stop-color="#1a4c00"/></linearGradient><linearGradient id="f" x1=".491935" x2=".693548" y1=".875" y2=".34375"><stop offset="0" stop-color="#f5db94"/><stop offset="1" stop-color="#be7900"/></linearGradient><path d="m.557573.557604h686.38483v686.38483h-686.38483z" fill="#fff" stroke="#fff" stroke-dashoffset=".6" stroke-linecap="square" stroke-width="1.115147"/><g transform="translate(-34.88493 -27.61724)"><path d="m270.41041 320.46525c-15.69626 33.09767 13.93913 62.90464 35.91665 84.01144 21.65726 20.68541 22.63385 51.05096 17.18343 78.44573-4.07195 34.22013-1.18807 73.44199 26.19689 97.99113 22.5108 20.78411 46.01128 54.20099 26.95798 84.77566-2.20285 3.72121-4.93534 7.1374-8.14372 10.04188" fill="none" stroke="#000" stroke-linecap="round" stroke-linejoin="round" stroke-width="2.664401"/><g fill-rule="evenodd"><path d="m118.73761 505.50611c5.92049 4.54502 8.14503 12.2066 8.89909 19.32712.59266 3.15428.11828 6.3348.17203 9.50269.0171 2.33202 1.32763 5.51901 4.18802 4.91107 2.01504-.53308 3.73287-1.87874 5.42656-3.07035 4.31033-3.43035 7.4337-8.72955 12.99766-10.30624 4.61463-.89638 9.69879-.94788 13.53927-4.03253 2.61724-1.86527 1.95447-6.0387-1.15411-6.96164-3.20591-1.42832-6.8713-1.91376-9.60161-4.3005-7.01748-4.78095-11.38862-12.43053-14.36168-20.20229-1.61518-2.8469-5.89123-2.06182-7.50768.38923-3.78415 4.41667-4.98908 10.98521-10.40744 13.95351-.68805.36425-1.42644.6359-2.19011.78993z" fill="url(#e)" transform="matrix(.710507 0 0 .710507 163.3868 -43.44494)"/><ellipse cx="315.09225" cy="321.40948" fill="url(#d)" rx="155.64345" ry="181.74011" transform="matrix(.598546 -.416502 .414663 .595902 -137.1147 141.6126)"/></g></g><path d="m302.33609 531.99524c-3.80669 44.12102-27.5241 91.41466-4.53752 133.95036 30.05164 45.86764 97.20361 51.31306 120.33411 103.76106 19.35629 33.49601 16.2321 72.75129 12.64291 109.64194-2.51541 28.90739 2.17293 60.27497 23.71764 81.49211 12.74109 17.14391 24.17359 37.40155 22.26754 59.54359" fill="none" stroke="#000" stroke-linecap="round" stroke-linejoin="round" stroke-width="3.75" transform="matrix(.710507 0 0 .710507 128.50187 -71.06218)"/><path d="m292.88809 498.92725c2.26367 7.11233-.28649 14.67176-3.73462 20.94718-1.31519 2.92763-3.52121 5.26733-5.28653 7.89832-1.31795 1.92395-2.06257 5.28846.63256 6.42323 1.95847.71339 4.13712.59001 6.20797.57932 5.49737-.35376 11.0879-2.91949 16.55551-1.03567 4.29981 1.90001 8.50244 4.76169 13.41669 4.42334 3.2137-.0362 5.05345-3.84038 3.02901-6.3735-1.81567-3.00355-4.54705-5.49561-5.4249-9.0142-3.02936-7.93256-2.24804-16.70824-.24935-24.78565.30031-3.25936-3.658-5.05733-6.38481-3.96873-5.62884 1.4639-10.36968 6.1673-16.51264 5.50891-.77282-.094-1.53407-.29278-2.24889-.60255z" fill="url(#b)" fill-rule="evenodd" transform="matrix(.710507 0 0 .710507 128.50187 -71.06218)"/><ellipse cx="315.09225" cy="321.40948" fill="url(#a)" fill-rule="evenodd" rx="155.64345" ry="181.74011" transform="matrix(.729199 0 0 .725978 120.14007 -79.30998)"/><path d="m501.47092 536.35583c-24.94245 36.68873-40.01561 84.73953-19.10656 126.80194 13.11516 41.23101 18.13066 90.84855-10.52372 127.01771-25.03396 36.0823-27.41254 81.50345-15.47412 122.64692 10.69088 42.80474-9.67709 83.28638-32.71557 117.9458l-3.5782 5.6051" fill="none" stroke="#000" stroke-linecap="round" stroke-linejoin="round" stroke-width="3.75" transform="matrix(.710507 0 0 .710507 128.5019 -71.06218)"/><path d="m500.45378 509.4209c.031 7.46381-4.66503 13.91331-9.83347 18.86888-2.13121 2.39972-4.93642 3.97182-7.40833 5.95377-1.83342 1.44124-3.55099 4.4286-1.3191 6.31807 1.65514 1.26691 3.77083 1.80132 5.74993 2.41098 5.35121 1.30798 11.45341.53329 16.10645 3.96735 3.53393 3.09995 6.68729 7.08839 11.4775 8.23652 3.07718.92745 5.97129-2.15166 4.7979-5.17461-.83337-3.40931-2.69357-6.60469-2.47796-10.22472-.51603-8.47563 2.85628-16.61507 7.18112-23.72387 1.26216-3.02003-1.97648-5.9204-4.90411-5.69792-5.80895-.28809-11.74028 2.78059-17.40451.31363-.70925-.32103-1.3761-.73855-1.96542-1.24808z" fill="url(#f)" fill-rule="evenodd" transform="matrix(.710507 0 0 .710507 128.5019 -71.06218)"/><ellipse cx="315.09225" cy="321.40948" fill="url(#c)" fill-rule="evenodd" rx="155.64345" ry="181.74011" transform="matrix(.695765 .21827 -.217306 .692692 386.1197 -120.0155)"/><path d="m374.44027 235.14714c-28.09375 122.13341-59.79626 271.36767-87.88998 393.50115-104.64634-72.4596-177.63194-13.56495-167.08109 69.36663 6.77066 53.21823 100.11352 110.19707 189.18223 23.31493 16.55572-80.97898 46.36721-214.48243 68.94394-319.25223l164.99181 117.07957c-16.83818 75.89794-33.38271 151.30022-51.511 230.1103-104.64627-72.4596-177.70447-13.58063-167.15361 69.35096 6.77068 53.21822 100.12906 110.12465 189.19778 23.2425l101.08896-438.09804c-.67183-.17126-1.34401-.33661-2.01583-.50786l.20729-.25911c-14.48114-11.41571-223.53791-164.17204-237.9605-167.8488zm19.70186 90.42226 165.12136 119.30791c-2.51106 11.12859-4.94588 22.14141-7.41055 33.16529l-165.21464-117.81028c2.13232-10.11484 5.70651-25.87164 7.50383-34.66292z" transform="matrix(-.41056467461 -.09258559367 -.09549772912 .42347774492 521.21148388977 304.32156117593)"/><path d="m362.59871 675.56622c-116.10037-66.42706-187.24323 1.80292-168.71665 87.68095 11.88873 55.10904 114.72831 106.33231 200.14744 7.33314 12.43356-106.95166 28.73083-214.41848 41.16439-321.37014 131.29429 115.75326 89.36426 185.78625 62.21946 266.43162 55.80618-22.9978 143.21738-124.53254 47.71918-267.74342-45.19059-63.44081-40.95062-18.64564-84.72471-145.19409-15.43211-2.54878-30.86428-5.0976-46.29637-7.64635-18.39872 130.40789-33.11404 250.1004-51.51274 380.50829z" transform="matrix(.37593000867 -.05392292747 .05703569636 .39763106291 -32.48121384777 246.94476554848)"/></svg>