<svg height="12.74338" width="16" xmlns="http://www.w3.org/2000/svg"><path d="m.014334.014331h15.970996v12.714715h-15.970996z" fill="#fff" stroke="#fff" stroke-dashoffset=".6" stroke-linecap="square" stroke-width=".028667"/><path d="m2.7610061 9.3704572c.15602.0492.53925.007.40791-.26899-.0729-.15361-.41577-.34697-.56723-.39284-.22821-.0692-.61166.23091-.31863.42333l-.0637.20444c-.2454-.1254-.31534-.50912-.29536-.78368.014-.19309.17709-.39671.24169-.57924.17645-.49865.32138-.98871.45862-1.4992.0549-.20406.0711-.59024.23701-.72479.15544-.12611.39417-.14447.56872-.23736.12866-.0684.21271-.20937.35109-.25513.29713-.0983.58986-.0729.73238-.4182.30092.48577.55213.93843.60206 1.53327.0355.42288-.23445.85645-.32557 1.26069-.0637.28257-.0441.57037-.11348.85182-.0866.35095-.25541.67532-.33778 1.02217-.0497.20925-.005.44732-.0662.6473618-.10933.358074-.73343.572044-.65922 1.022044.0343.20795.26102.24884.42228.28413.37446.0819.77756.0313 1.14708-.0305.12306-.0206.27247.005.36853-.0978.23194-.24798-.0421-.71658.0331-1.007392.0538-.208423.23818-.3900338.33446-.5792438.20935-.41147.3866-.8449.50663-1.29477h.0319c.008.39655.0971.89353.23942 1.26069.0898.23183.32112.5644628.31481.8177658-.0108.43408-.6259.71801-.3309 1.22597.29677.51098.99821-.003 1.36983-.093.20374-.0493.47693.0152.57691-.24853.13804-.36404-.14214-.70913-.18914-1.054792-.0538-.3955838.0157-.7935938-.0521-1.1925538-.0496-.29196-.27183-.63171-.26437-.91996.005-.20283.13988-.44301.1836-.64739l1.2108.60804.5098099.31193c.002.28962-.005.63566.0423.91996.0227.13578.14195.27296.10559.41331-.0709.2734718-.6968499.5540648-.5559699.8438158.0774.15925.29116.2138.4398999.25469.37669.10362 1.36359.2592 1.64052-.1185.12203-.16645.1119-.443391.11196-.643704.0002-.5048918.05-1.0398018-.0637-1.5332818.41002.27037.50325.8137.70877 1.26069.0712.1548308.21951.4003638.17098.5787258-.0749.27511-.84237.70467-.48725 1.07609.0985.10298.27743.11067.40409.1519.36649.11925 1.47893.31388 1.65217-.2058.1619-.48567.12057-1.343324.008-1.8394158-.0663-.29197-.22034-.54524-.24727-.85182-.0248-.28209.15799-.56759.17748-.85182.0271-.39569-.0873-.74316-.0986-1.1244-.007-.24526.0696-.4978.0696-.7496.34999.99203-.0164 2.05939.23837 3.06654.0371.14662.0516.9780918.32621.8943508.10299-.0313.13345-.2223308.11277-.3151108-.0902-.40485-.25351-.76279-.2544-1.19254-.00044-.21371.0909-.43396.11321-.64739.13189-1.26042.31609-3.01326-.69561-3.93748-.45112-.41211-.93977-.71311-1.43371-1.05433-.38654-.26702-.78213-.57875-1.24267-.68503-.33782-.0779-.70814.0372-1.0515.0195-.7486599-.0389-1.4840199-.19045-2.2304299-.26544-.33966-.0341-.6761.0359-1.01962-.0331-.73812-.14844-1.28403-.74489-2.00739-.93997-.22913-.0617999-.62621-.0194999-.86031.0245-.22107.0415-.33813.20712-.51029.3382-.49995.3807-1.15559.99116-1.43241 1.59273-.16993.36927-.18816.86278-.29717 1.26071-.1589.58002-.46077 1.06259-.55011 1.66957-.0936.63569.0498 1.30345.0497 1.94214-.00003.48015-.25121 1.0675-.0913 1.53327.22348.6511008 1.40982.8662328 1.49332 0z"/></svg>