<svg height="575" width="575" xmlns="http://www.w3.org/2000/svg"><path d="m.494836.494836h574.01031v574.01031h-574.01031z" fill="#fff" stroke="#0078ff" stroke-linecap="round" stroke-width=".989673"/><g stroke="#000" transform="matrix(.98757845 0 0 1 -171.61601 7.011037)"><circle cx="288.030085" cy="428.680847" fill="none" r="98.563073" stroke-width="24.48772"/><circle cx="640.04106" cy="426.844268" fill="none" r="98.563073" stroke-width="24.48772"/><path d="m419.33591 187.76277c-81.15626.791-67.39292-8.38456-111.05594 131.93826-35.56995 112.11783-31.69552 99.89097-31.88155 107.75543-.13037 6.10982 4.80163 10.95404 10.99923 11.36869 12.88887-1.30322 7.46752 1.39395 52.15306-137.36977 163.27931 172.24394 102.021 144.31296 189.89195 147.81092 115.48553-1.10739 124.87203 6.01158 126.24309-10.91575-.1582-5.74792-2.84759-9.17557-82.10546-185.56784l7.59356-20.88232 26.1029-.4746-.9492-21.83151h-97.2926c-8.5955 11.75949 3.48039 11.70675 46.98521 21.35692l-7.59357 21.3569-194.11061.47461c13.07781-45.66688 5.69518-42.8193 64.54534-42.71383zm-70.62884 88.427 189.94107-.33678-54.89431 147.50742zm212.84176 8.75614-53.88399 141.44548 117.87123.33677z" fill-rule="evenodd" stroke-width=".612193"/></g><path d="m230.667 88 5 42 20 6.333 18-11-6.333-43s36.667 11 39.667 37.333c0 0 3.999 23-10.334 34l-10.999 10s-14 10.667-10.667 34v204l-.333 7.667s1 9-9 9.333h-19s-10 1.667-11.667-12.333v-220.334s1.333-12.333-8.333-18.333l-12.333-10s-21.333-16.334-7.333-45.667c-.001 0 4.999-13.999 23.665-23.999z" fill="#1e1916" transform="matrix(0 -1.6091568 1.6672138 0 -129.48538 524.0285)"/></svg>