<svg height="394.8786" width="411.93304" xmlns="http://www.w3.org/2000/svg"><g transform="translate(-612.85914 202.69102)"><path d="m612.85913-202.69101h411.93304v394.8786h-411.93304z" fill="#fff"/><g transform="translate(628.80282 -202.69102)"><path d="m101.99 148.102c40.486 0 73.305-33.154 73.305-74.049 0-40.899-32.819-74.053-73.305-74.053-40.484 0-73.306 33.154-73.306 74.053 0 40.895 32.822 74.049 73.306 74.049z"/><path d="m156.681 37.263h156.553l25.144 25.4c4.626 4.673 4.508 7.909 0 12.461l-30.599 30.908-18.027-18.207-18.028 18.207-17.792-17.969-17.314 17.49-18.028-18.207-23.485 23.72h-38.424z"/></g><g transform="matrix(-2.3580476 0 0 2.3580476 1298.8426 -348.60879)"><circle cx="260.13436002872" cy="198.56346661613" fill="none" r="26.39882627385" stroke="#000" stroke-width="8.756878"/><circle cx="146.99647002872" cy="198.04919661613" fill="none" r="26.39882627385" stroke="#000" stroke-width="8.756878"/><path d="m167.90982 153.1369 67.88271.34285 23.99893 44.56945h-45.94082l-47.99787-32.56998" fill="none" stroke="#000" stroke-linejoin="round" stroke-width="7.030763"/><path d="m170.5183 126.42646c-3.68727 0-6.47436-.0823-9.3311 4.28198-.8223 1.45485-1.19826 3.23121-.89463 4.99942.36424 2.01063 1.55461 3.98605 2.9579 5.15545 1.8582 1.54851 3.62168 1.42905 3.33668 2.82107-.36568 1.78612-1.48168 4.26817-2.68771 8.29852-1.22421 4.09107-2.67788 9.09815-4.10479 14.02995-1.42691 4.93179-2.82762 9.79096-3.93638 13.57737-.55439 1.8932-1.03856 3.51883-1.41037 4.73629-.36225 1.18617-.68208 2.10756-.65255 2.04187-1.15517 2.03243-1.31241 3.35676-3.24999 5.08664-2.17245 1.9013-3.94123 3.30588-4.5551 3.73494-1.5592 1.13265-2.28405 3.52298-1.46069 4.70406 1.03764 1.60962 3.18064 1.85653 4.74689 1.37498 1.4872-.4721 3.84141-1.28303 6.57128-3.54405l.0211-.0316.0316-.0211c3.79847-3.25812 5.20374-7.21245 5.34674-7.44124l.19998-.30523.13683-.3368c.32914-.81022.52629-1.52463.91568-2.79968s.88302-2.92231 1.44194-4.83102c1.11784-3.8174 2.51144-8.68396 3.93638-13.60894 1.42495-4.92498 2.87506-9.90657 4.08374-13.94575s1.97229-7.35653 2.25456-8.06222c.68704-1.71759 1.03803-3.57187.56836-5.43095-.46966-1.85908-1.87315-3.35951-3.13301-3.7083-2.87573-.80454-2.1127-2.87302-.64144-2.87602l12.329-.0251.0304-7.87445c-.00008-.00017-8.00272-.00017-12.85122-.00017z" fill-rule="evenodd" stroke-linecap="round" stroke-width="25"/><g stroke="#000"><path d="m214.73026 196.65372 23.27289-56.97008" fill="#fff" fill-rule="evenodd" stroke-width="8.420075"/><path d="m204.30595 178.47178 18.90921 40.00027" fill="#fff" fill-rule="evenodd" stroke-linecap="round" stroke-width="3.073327"/><circle cx="200.53224" cy="461.96271" fill="none" r="78.380615" stroke-width="31.305" transform="matrix(.132315 0 0 .136689 187.5743 134.9894)"/><path d="m199.25786 179.69861 12.42128.11386" fill="#fff" fill-rule="evenodd" stroke-width="4.294238"/><path d="m216.88312 216.79001 12.42128.11386" fill="#fff" fill-rule="evenodd" stroke-width="4.294238"/><path d="m249.39728 134.59251h-29.21234c-1.09092 0-2.49896 1.92976-1.09092 3.21215 1.52286 1.44934 15.21224 4.42427 15.21224 4.42427s3.7576 1.03031 5.75762.78789c2.00001-.24243 8.90915-.84849 9.3334-8.42431z" fill-rule="evenodd" stroke-width=".336803pt"/></g></g><circle cx="695.77819" cy="-127.972098" fill="#fff" r="18.426456"/></g></svg>