<svg height="408.41373" width="505.72037" xmlns="http://www.w3.org/2000/svg"><path d="m0 0h505.72037v408.41373h-505.72037z" fill="#fff"/><g transform="matrix(-.6874148 0 0 1 492.43156 129.14804)"><path d="m640.23853 222.03787c0 27.10477-21.97275 49.07752-49.07752 49.07752s-49.07752-21.97275-49.07752-49.07752 21.97275-49.07752 49.07752-49.07752 49.07752 21.97275 49.07752 49.07752z" transform="matrix(1.079545 0 0 1.079545 -521.3741 -27.12071)"/><path d="m285.83418 10.247082c2.82136-3.2663359 6.0364-6.0733784 11.97048-5.7082016h256.30729l127.38367 101.1426896c1.40564 2.97091 2.11691 5.24745 2.47353 7.16934l.48411 89.62664c-2.36768 5.13743-5.15318 9.52279-10.12099 9.97998h-29.56544c0-87.62676-129.5449-87.80573-129.5449 0h-332.83376c0-87.28688-130.530777-87.62179-130.530777 0h-36.065656c-3.075207-1.43844-5.8419586-.10079-9.9050852-10.43052l-.3943528-64.45244c2.0973064-5.86412 4.713128-8.09863 7.323065-10.37434l187.348426-31.123032z" fill-rule="evenodd"/><path d="m640.23853 222.03787c0 27.10477-21.97275 49.07752-49.07752 49.07752s-49.07752-21.97275-49.07752-49.07752 21.97275-49.07752 49.07752-49.07752 49.07752 21.97275 49.07752 49.07752z" transform="matrix(1.079545 0 0 1.079545 -58.73586 -27.14299)"/><g fill="#fff" fill-rule="evenodd"><path d="m226.41173 97.07302 63.84346-62.997849c1.43945-1.223265 2.57157-2.907517 5.07365-2.536826h113.52297v77.161795h-177.57783c-6.7601-2.66645-7.67484-6.70827-4.86225-11.62712z"/><path d="m585.23723 89.186408-54.71158-55.100008c-1.43945-1.223265-2.57157-2.907517-5.07365-2.536826h-95.50602v77.161786h162.76938c7.70221-1.53592-2.43326-11.927375-7.47813-19.524952z"/></g></g><g fill="#00f"><ellipse cx="439.12631" cy="92.833603" rx="19.866571" ry="34.403088"/><ellipse cx="374.1965" cy="145.16507" rx="19.866571" ry="34.403088"/><ellipse cx="309.26675" cy="69.575195" rx="19.866571" ry="34.403088"/><ellipse cx="169.7162" cy="84.111694" rx="19.866571" ry="34.403088"/><ellipse cx="101.87912" cy="48.254955" rx="19.866571" ry="34.403088"/><ellipse cx="51.485863" cy="101.55551" rx="19.866571" ry="34.403088"/><ellipse cx="238.52237" cy="41.47126" rx="19.866571" ry="34.403088"/></g></svg>