<svg height="139.99617" width="149.28694" xmlns="http://www.w3.org/2000/svg"><g transform="translate(-305.35701 -413.79721)"><path d="m425.71429 469.50504c0 86.7876-70.35525 157.14285-157.14285 157.14285s-157.14285-70.35525-157.14285-157.14285c0-86.78761 70.35525-157.14286 157.14285-157.14286s157.14285 70.35525 157.14285 157.14286z" fill="#fff" stroke="#000" stroke-width="12.441978" transform="matrix(.42849139 0 0 .42849139 269.56245 282.61189)"/><path d="m343.92899 423.79074v120.00003h-15.00015c-31.81806-40.28928-31.03773-80.28218 0-120.00003z" fill="#f00"/><path d="m40 432.36218c0 77.31987-62.680135 140-140 140-77.31986 0-140-62.68013-140-140 0-77.31986 62.68014-140 140-140 77.319865 0 140 62.68014 140 140z" stroke="#fff" stroke-width="14.46901" transform="matrix(.3395943 0 0 .33959431 418.60243 336.96302)"/><g fill="#fff"><path d="m80 472.36218c0 11.0457-8.954305 20-20 20s-20-8.9543-20-20c0-11.04569 8.954305-20 20-20s20 8.95431 20 20z" transform="matrix(.75 0 0 .75 339.643 129.51912)"/><path d="m160 642.36218c0 16.56855-13.43146 30-30 30s-30-13.43145-30-30c0-16.56854 13.43146-30 30-30s30 13.43146 30 30z" transform="matrix(.16666667 0 0 .16666667 362.97633 346.73039)"/><path d="m160 642.36218c0 16.56855-13.43146 30-30 30s-30-13.43145-30-30c0-16.56854 13.43146-30 30-30s30 13.43146 30 30z" transform="matrix(.16666667 0 0 .16666667 392.97633 376.73039)"/><path d="m160 642.36218c0 16.56855-13.43146 30-30 30s-30-13.43145-30-30c0-16.56854 13.43146-30 30-30s30 13.43146 30 30z" transform="matrix(.16666667 0 0 .16666667 332.97633 376.73039)"/><path d="m160 642.36218c0 16.56855-13.43146 30-30 30s-30-13.43145-30-30c0-16.56854 13.43146-30 30-30s30 13.43146 30 30z" transform="matrix(.16666667 0 0 .16666667 362.97633 406.73039)"/></g></g></svg>