<svg height="527.45728" width="403.07874" xmlns="http://www.w3.org/2000/svg"><path d="m0 0h403.07874v527.45728h-403.07874z" fill="#fff"/><g transform="translate(25.336378 31.27854)"><g><path d="m214.064 176.821h41.43c22.548 0 34.512 12.316 40.034 26.725l29.335 75.669c11.62 1.49 32.218 15.146 32.218 40.985v96.245h-28.527v30.769c0 37.87-53.599 37.424-53.599 0v-30.769h-96.389-.054.056-.052-96.389v30.769c0 37.424-53.599 37.87-53.599 0v-30.769h-28.528v-96.245c0-25.839 20.577-39.495 32.197-40.985l29.335-75.669c5.522-14.409 17.487-26.725 40.035-26.725h41.911z"/><path d="m101.99 148.102c40.486 0 73.305-33.154 73.305-74.049 0-40.899-32.819-74.053-73.305-74.053-40.484 0-73.306 33.154-73.306 74.053 0 40.895 32.822 74.049 73.306 74.049z"/><path d="m156.681 37.263h156.553l25.144 25.4c4.626 4.673 4.508 7.909 0 12.461l-30.599 30.908-18.027-18.207-18.028 18.207-17.792-17.969-17.314 17.49-18.028-18.207-23.485 23.72h-38.424z"/></g><g fill="#fff"><path d="m178.512 278.445h-.054-115.89l22.087-59.56c2.761-8.367 6.904-14.409 16.568-14.499h77.235.054.054 77.274c9.663.09 13.805 6.132 16.566 14.499l22.086 59.56h-115.926z"/><path d="m56.18 358.445c-13.672 0-24.758-11.426-24.758-25.519 0-14.092 11.086-25.517 24.758-25.517 13.673 0 24.757 11.425 24.757 25.517 0 14.093-11.084 25.519-24.757 25.519z"/><path d="m300.881 358.445c13.673 0 24.757-11.426 24.757-25.519 0-14.092-11.084-25.517-24.757-25.517-13.672 0-24.758 11.425-24.758 25.517 0 14.093 11.086 25.519 24.758 25.519z"/><path d="m69.789 93.342c10.745 0 19.457-8.802 19.457-19.656 0-10.855-8.712-19.656-19.457-19.656s-19.457 8.801-19.457 19.656c0 10.854 8.712 19.656 19.457 19.656z"/></g></g></svg>