<svg height="15" viewBox="0 0 16 15" width="16" xmlns="http://www.w3.org/2000/svg"><path d="m2 2.999999h5v8h-5z" fill="#ff0" fill-rule="evenodd"/><path d="m3.2 1c-1.1655277 0-2.2.9950215-2.2 2.1995v10.8005h7v-7.875s.875-.125.875.875v4c0 2 1.864698 2.125 2.125 2.125.275652 0 2.125-.124975 2.125-2.125v-4s1.687558.017377 1.675-2.96875h-.85v-1.799625c0-.5671583-.95-.5637421-.95-.03125v1.799625h-1v-1.799625c0-.5461843-.95-.5451872-.95 0v1.799625h-.85c.01252 2.9863904 1.675 3 1.675 3v4c0 .874159-.767136.875-.875.875s-.875-.04279-.875-.875v-4c0-1.2809084-1.125-1.9255-2.125-1.9255v-1.875c0-1.2224558-1.0164954-2.1995-2.2-2.1995zm.8 3h2l-1.25 2h1.5l-2.75 4h-.5l1-3h-1.25z" fill="#008000"/></svg>