<svg height="16" width="16" xmlns="http://www.w3.org/2000/svg"><g transform="translate(-349.99999 -607.36218)"><path d="m350 616.36218h7v7.000001h-7z" fill="#0000b3"/><path d="m360 610.36218h5v1h-5z" fill="#00b9ff"/><path d="m357 612.36218 2-1v-1l-2-1z" fill="#666"/><g fill="none"><path d="m353.5 614.36218v-2.5c-.006-.43612.37464-.9872 1-1h2.5" stroke="#666"/><path d="m360 612.36218 5 1.5" stroke="#00b9ff"/><path d="m360 609.36218 5-1.5" stroke="#00b9ff"/></g><path d="m328 616.36218c0 1.65686-1.34315 3-3 3s-3-1.34314-3-3c0-1.65685 1.34315-3 3-3s3 1.34315 3 3z" fill="#0000b3" transform="matrix(1.1666667 0 0 1.1666667 -25.666689 -102.22702)"/></g></svg>