<svg height="11" width="6" xmlns="http://www.w3.org/2000/svg"><g transform="translate(0 -1041.3622)"><rect height="11" ry="2" width="6" y="1041.3622"/><g stroke-width=".2"><path d="m640 709.36218c0 1.10457-.89543 2-2 2s-2-.89543-2-2 .89543-2 2-2 2 .89543 2 2z" fill="#f00" stroke="#b20505" transform="matrix(1.0952381 0 0 1.0952381 -695.76191 267.44175)"/><path d="m640 719.36218c0 1.10457-.89543 2-2 2s-2-.89543-2-2 .89543-2 2-2 2 .89543 2 2z" fill="#0f0" stroke="#00b200" stroke-linecap="square" transform="matrix(1.0952381 0 0 1.0952381 -695.7619 261.48938)"/></g></g></svg>