<svg height="7" width="16" xmlns="http://www.w3.org/2000/svg"><g transform="translate(-492 -423.14789)"><path d="m492 423.14789h16v7h-16z" fill="#999"/><path d="m492 426.14789h2v1h-2z" fill="#999"/><g fill="#fff"><path d="m493 426.14789h2v1h-2z"/><path d="m505 426.14789h2v1h-2z"/><path d="m657 731.86218a2.5 2.5 0 1 1 -5 0 2.5 2.5 0 1 1 5 0z" transform="translate(-156 -305.21428)"/><path d="m657 731.86218a2.5 2.5 0 1 1 -5 0 2.5 2.5 0 1 1 5 0z" transform="translate(-153 -305.21428)"/></g><path d="m498 423.14789h4v7h-4z" fill="#999"/></g></svg>