<svg height="480" width="480" xmlns="http://www.w3.org/2000/svg"><g fill-rule="evenodd"><path d="m30.856274 5.7720243h420.004816c10.81582.7906802 23.07189 11.8437647 23.66646 24.8647647v418.806511c.04967 10.31854-11.79351 24.19224-25.16434 24.86477h-419.405663c-9.523815-.58318-24.4313132-15.37852-24.8647639-25.16434l.5991509-418.207366c-1.0815617-6.302442 14.286068-25.2982414 25.16434-25.1643397z" fill="#fff" stroke="#000" stroke-width="2"/><path d="m393.71875 16.71875v.03125h-308.96875v.03125h-49.5625c-11.760613-.514916-18.473169 7.51921-18.03125 20.375v406.40625c.046553 8.6672 3.728171 19.07043 15.6875 19.28125h51.3125l309.5625-.0625v.03125h53.5625c11.95933-.2108 15.6722-10.61405 15.71875-19.28125v-406.4375c.44191-12.855791-6.27063-20.88992-18.03125-20.375zm0 66.5v312.90625l-307.28125.21875v-313.0625z" fill="#039" stroke="#039"/><path d="m209.10368 104.93151 20.97028 10.48514v55.72104l-20.6707 9.28684z"/><path d="m268.48726 308.28724 21.47744-9.40268 42.81486 35.66121-6.09334 21.82645z"/><path d="m264.22557 318.22924 51.82656 43.43845c-36.8643 25.47881-99.60994 20.72395-154.88052-84.48029-45.33581-96.65554-3.43419-164.7424 36.84778-167.76226v68.60278c-14.78385 4.18158-19.65438 14.49997-17.67495 29.05882l53.62401 112.34081c11.39351 6.13959 21.25583 4.62321 30.25712-1.19831z"/></g></svg>