<svg height="16" viewBox="0 0 16 16" width="16" xmlns="http://www.w3.org/2000/svg"><rect fill="#fff" fill-rule="evenodd" height="16" ry="2" width="16"/><path d="m0 2h14v14h-14z" fill="none" visibility="hidden"/><path d="m5 1-4 3 4 3v-2h6v2l4-3-4-3v2h-6z"/><g fill="#41a8e2"><path d="m2.6666667 7.6666667c-.7118644 0-1.9897136 1.3333333-2.6666667 1.3333333v2c.7162452 0 2.0338983-1.333333 2.6666667-1.333333.6723164 0 1.9548022 1.333333 2.6666666 1.333333.6340031 0 1.9897136-1.333333 2.6666667-1.333333.6723164 0 2.028974 1.333333 2.666667 1.333333.672316 0 2.033898-1.333333 2.666666-1.333333s1.994351 1.333333 2.666667 1.333333v-2c-.553672 0-1.954803-1.3728813-2.666667-1.3333333-.637693 0-1.953704 1.3333333-2.666666 1.3333333-.593221 0-1.9943506-1.3333333-2.666667-1.3333333s-2.0721295 1.3333333-2.6666667 1.3333333c-.634003 0-1.9548022-1.3333333-2.6666666-1.3333333z"/><path d="m2.6666667 11.666667c-.7118644 0-1.9897136 1.333333-2.6666667 1.333333v2c.7162452 0 2.0338983-1.333333 2.6666667-1.333333.6723164 0 1.9548022 1.333333 2.6666666 1.333333.6340031 0 1.9897136-1.333333 2.6666667-1.333333.6723164 0 2.028974 1.333333 2.666667 1.333333.672316 0 2.033898-1.333333 2.666666-1.333333s1.994351 1.333333 2.666667 1.333333v-2c-.553672 0-1.954803-1.372881-2.666667-1.333333-.637693 0-1.953704 1.333333-2.666666 1.333333-.593221 0-1.9943506-1.333333-2.666667-1.333333s-2.0721295 1.333333-2.6666667 1.333333c-.634003 0-1.9548022-1.333333-2.6666666-1.333333z"/></g></svg>