<svg height="258.6857" width="224.8421" xmlns="http://www.w3.org/2000/svg"><path d="m0 0h224.8421v258.6857h-224.8421z" fill="#fff"/><g fill-rule="evenodd"><path d="m96.722164 245.98729 104.307056-.0664.0665-16.17865 9.77818.0665v-207.584932c-.00004-4.42786-2.56575-8.25555-7.39162-8.25555h-107.076166c-5.52644 0-11.03631 3.98245-11.03631 10.37179l-.11953 205.402142h11.35519z"/><path d="m85.876604 84.559648-10.43835-.06182c-.06768 42.474392.24187 126.299802.41877 127.734072.37762 3.06168.14928 6.23358-.63683 9.12325-16.36381 41.22353-69.3136398 22.28952-61.79545-17.82336 16.51257-39.7885 39.66654-66.71211 51.19026-113.641132l1.02585 34.885372c-10.37097 20.18119-28.66742 55.62424-42.85675 85.2509-1.19545 27.35321 31.34375 36.36524 41.5347 7.00526 4.54142-51.39277-.17075-107.41233-.25612-161.118502 6.62236-19.68707 13.92944-21.57153 21.34506-20.63384"/><path d="m107.00321 43.248708-.36109 53.08018c0 4.272082 3.42921 7.221792 7.40234 7.221792l68.78758.18055c4.17321 0 6.13852-2.66164 6.13852-6.319072v-53.9829c0-5.21832-2.98624-6.77043-6.77043-6.77043h-68.33621c-3.91657 0-6.86071 2.33958-6.86071 6.58988z" fill="#fff"/></g></svg>