<svg height="16" viewBox="0 0 10 16" width="10" xmlns="http://www.w3.org/2000/svg"><g transform="translate(0 -1036.3621)"><path d="m5 1a4 4 0 0 0 -4 4v10h8v-10a4 4 0 0 0 -4-4z" fill="none" stroke="#fff" stroke-linecap="round" stroke-width="2" transform="translate(0 1036.3621)"/><circle cx="5" cy="1041.3621" fill="#f00" r="4"/><path d="m657.32083 1187.3629c-.46092 0-.92605.034-1.39423.09-16.366 3.2398-9.73707 20.3533-11.05691 32.2739.007 7.7011 6.59052 13.4062 14.19453 12.5508 16.36601-3.37 9.74065-20.1946 11.05675-32.2737.0455-7.1342-5.88632-12.7075-12.80014-12.6408zm.24197 6.313c3.4452.026 6.21492 2.7762 6.20804 6.3285v20.0962l-.0747.8222-.22416.7469-.29889.747-.37344.6709c-.94381 1.6214-2.72557 2.6584-4.55716 2.914-1.83782.1898-3.76286-.3932-5.08022-1.7182-1.59852-1.5277-1.7879-2.4868-2.01696-4.5568v-19.7229l.0747-.4475.0746-.7469.14945-.7468.29888-.7478.37343-.7469c1.28871-1.6619 2.44311-2.4977 4.55733-2.8387.30039-.038.5972-.055.88916-.053z" fill-rule="evenodd"/><path d="m667 1199.3621v22c0 5-4.51387 8-9.51398 8-5 0-9.48614-3-9.48614-8s-.00012-16.8236 0-22c.00012-5 4.48602-9 9.48614-9 5 0 9.51398 4 9.51398 9z" fill="none" stroke="#f00" stroke-width="6.3"/><rect fill="#999" height="10" rx=".00004" width="8" x="1" y="1041.3621"/><path d="m3.5071212 1043.8555h2.9929026l-1.9952684 5" fill="none" stroke="#000" stroke-linecap="round" stroke-linejoin="round"/></g></svg>