<svg height="16" viewBox="0 0 16 16" width="16" xmlns="http://www.w3.org/2000/svg"><g transform="translate(0 -1036.3621)"><rect fill="#fff" height="16" rx="2" width="16" y="1036.3621"/><rect fill="#00f" height="15" rx="1.871535" width="15" x=".513868" y="1036.876"/><g fill="#fff"><path d="m4 1039.3621h1v10h-4z"/><path d="m7 1039.3621h-1v10h4z"/><path d="m9 1039.3621h5s.635471-.048.878906.332c.257216.4017-.132812.9532-.132812.9532l-2.652344 4.0117c-1.064693 1.4403-.333208-3.0618-.605347-3.3829-.470721-.5555-4.3876174-1.914-2.4884039-1.914z" fill-rule="evenodd"/><path d="m7.1093761 1042.8152s2.4710873-1.9092 4.4687509-1.8125l.734375.8125c-2.7561583.657-4.5781258 3.9688-4.5781258 3.9688z" fill-rule="evenodd"/></g></g></svg>