<svg height="16" viewBox="0 0 16 16" width="16" xmlns="http://www.w3.org/2000/svg"><rect fill="#fff" height="16" rx="2" width="16" x="-.000005"/><rect fill="#00f" height="15" rx="1.623776" width="15" x=".491766" y=".4918"/><g fill="#fff" transform="translate(0 -1036.3621)"><path d="m6 1049.3621h2v1.4864h1l-.0000001-1.4864h2v-1h-5z"/><path d="m12 1047.3621h-2l1.500001-2h-1l1.5-2h-1l1.5-2 1.5 2h-1l1.5 2h-1l1.5 2h-2v3.4864h-1z"/><path d="m3.5321082 1039.7267v3.9634h2.7658333c.6914515 0 1.2072343-.2081 1.5473488-.6243.3400995-.4159.5101528-.8683.5101609-1.3575-.0000081-.742-.2670341-1.2873-.8010792-1.6358-.3429254-.2305-.7842216-.3458-1.3238898-.3458zm-1.8635646 11.1218v-12.8841h4.4607497c.4778305 0 .9373973.05 1.3787005.1517.4412888.102.9008549.3373 1.3786994.7082.3710183.287.6858284.6818.9444307 1.185.2585851.5031.3878821 1.0864.3878911 1.7497-.000009.8769-.3274679 1.7116-.9823758 2.5043-.6549262.7928-1.6120047 1.1891-2.8712384 1.1891h-2.8332926v5.3961z"/></g></svg>