<svg height="16" viewBox="0 0 9 16" width="9" xmlns="http://www.w3.org/2000/svg"><g transform="translate(0 -1036.3621)"><path d="m147.89999 370.10001h6.5v14.1h-6.5z" fill="#808080" transform="matrix(1.3846066 0 0 1.1346381 -204.78325 616.43414)"/><g fill="#fff"><path d="m5 1039.3653h-1v-2h1z"/><path d="m5 1043.3621h-1v-2h1z"/><path d="m5 1047.3621h-1v-2h1z"/><path d="m5 1051.3653h-1v-2h1z"/></g><path d="m9 1047.3621h-3v-1h3z"/><path d="m9 1049.3621h-3v-1h3z"/><path d="m9 1051.3621h-3v-1h3z"/><path d="m3 1042.3621h-3v-1h3z"/><path d="m3 1040.3621h-3v-1h3z"/><path d="m3 1038.3621h-3v-1h3z"/><path d="m3 1044.3621h-3v-1h3z"/><path d="m9 1045.3621h-3v-1h3z"/></g></svg>