<svg height="16" viewBox="0 0 16 16" width="16" xmlns="http://www.w3.org/2000/svg"><rect fill="#fff" height="16" rx="2" width="16"/><rect fill="#00f" height="14.972305" rx="1.871535" width="14.97227" x=".513868" y=".5139"/><g fill="#fff" transform="matrix(.07422091 0 0 .07422091 7.836647 4.272191)"><path d="m100.25 91.111c2.31808 2.318083-6.552046 11.72595-9.139 9.139l-50.323445-52.721774s-3.033158-3.581623-7.640555 1.025774l-27.676-28.198c-13.142994-13.142994-2.4695526-24.2550087 2.0238624-19.76159376z"/><path d="m81.189 35.237c-3.405243 2.041853-9.363961-.368207-11.740962 2.008337l-11.496038 11.306663-6.267-6.527 11.75-11.75c2.804352-2.804352.10052-8.629344 2.089-12.271 5.513953-8.7932756 22.375744-19.1382555 23.76-17.754 1.488572 1.4885721-3.134 5.483-3.134 5.483l-9.508561 8.71911s-4.102961 3.740345-3.026589 4.90837c1.101122 1.194883 5.17152-3.02444 5.17152-3.02444l8.877-8.9296296s3.972117-4.7114218 5.27563-3.5014104c1.329158 1.2338167-3.395 5.222-3.395 5.222l-8.66648 8.662179s-4.702751 4.261506-3.71293 5.331561c1.091356 1.179821 5.43682-3.54859 5.43682-3.54859l8.76959-8.87915s4.104772-4.4048219 5.223-3.133c1.029329 1.1707114-3.395 5.222-3.395 5.222l-8.92963 8.50859s-4.75356 3.831021-3.55289 5.06626c1.060228 1.090753 5.17152-3.13085 5.17152-3.13085l8.877-8.877s3.850116-4.6022378 5.22415-3.33922c2.39379 2.393792-10.033388 18.970492-18.80015 24.22722z"/><path d="m42.286 51.425 6.342419 6.380129-39.240419 42.444871c-3.5621962 3.5622-12.497231-6.040769-9.138-9.4z"/></g><g fill-rule="evenodd" transform="matrix(1.3087815 0 0 1.3087815 -11.039033 -1363.612719)"><path d="m13.959108 1050.882v-5.5689c0-.1115-.0646-.2079-.186101-.2079h-2.695906c-.139141 0-.277865.1005-.277865.2612l-.0031 5.514z" fill="#fff"/><path d="m10.811968 1046.8825h-.262811s.156147 2.3898-.0055 3.4457c-.411999 1.0379-1.7451403.5611-1.5558515-.4488.4157448-1.0017.9987027-1.6796 1.2888405-2.8613l.02583.8784s-.7217719 1.4005-1.0790229 2.1464c-.030096.6888.7891539.9156 1.0457379.1764.114343-1.294-.0043-2.7044-.0065-4.0565 0-.4099.350708-.5431.537413-.5196" fill="#fff"/><path d="m11.343882 1045.8422-.0091 1.3366c0 .1077.08634.1817.186372.1817h1.731897c.105071 0 .154551-.067.154551-.1591v-1.3592c0-.1312-.07519-.1704-.170462-.1704h-1.720532c-.0986 0-.172735.059-.172735.1659z" fill="#00f"/></g></svg>