<svg height="16" viewBox="0 0 9 16" width="9" xmlns="http://www.w3.org/2000/svg"><g transform="translate(0 -1036.3621)"><path d="m147.89999 370.10001h6.5v14.1h-6.5z" fill="#808080" transform="matrix(1.3846066 0 0 1.1346381 -204.78325 616.43414)"/><path d="m5 1040.3621h-1v-2h1z" fill="#fff"/><path d="m5 1050.3621h-1v-2h1z" fill="#fff"/><path d="m0 1041.3621h9v6h-9z" fill="#1a1a1a"/><g fill="#fff"><path d="m8.000001 1046.3621h-1v-4h1z"/><path d="m2 1046.3621h-1v-4h1z"/><path d="m4 1046.3621h-1v-4h1z"/><path d="m6 1046.3621h-1v-4h1z"/><path d="m5 1037.3621h-1v-1h1z"/><path d="m5 1052.3621h-1v-1h1z"/></g></g></svg>