<svg height="16" width="6" xmlns="http://www.w3.org/2000/svg"><g transform="translate(0 -1036.362183)"><rect height="16" ry="2" width="6" y="1036.3622"/><g stroke-width=".2"><path d="m640 709.36218a2 2 0 1 1 -4 0 2 2 0 1 1 4 0z" fill="#f00" stroke="#b20505" transform="matrix(1.0952381 0 0 1.0952381 -695.7619 262.44169)"/><path d="m640 714.36218a2 2 0 1 1 -4 0 2 2 0 1 1 4 0z" fill="#ff0" stroke="#ffd600" stroke-linecap="square" transform="matrix(1.0952381 0 0 1.0952381 -695.7619 261.9655)"/><path d="m640 719.36218a2 2 0 1 1 -4 0 2 2 0 1 1 4 0z" fill="#0f0" stroke="#00b200" stroke-linecap="square" transform="matrix(1.0952381 0 0 1.0952381 -695.76189 261.48932)"/></g></g></svg>