<svg height="16" width="16" xmlns="http://www.w3.org/2000/svg"><g transform="translate(-19.5 -1032.612183)"><path d="m19.5 1041.6122h16v7h-16z" fill="#999"/><path d="m19.5 1044.6122h2v1h-2z" fill="#999"/><g fill="#fff"><path d="m20.5 1044.6122h2v1h-2z"/><path d="m32.5 1044.6122h2v1h-2z"/><path d="m657 731.86218c0 1.38071-1.11929 2.5-2.5 2.5s-2.5-1.11929-2.5-2.5 1.11929-2.5 2.5-2.5 2.5 1.11929 2.5 2.5z" transform="translate(-628.5 313.25004)"/><path d="m657 731.86218c0 1.38071-1.11929 2.5-2.5 2.5s-2.5-1.11929-2.5-2.5 1.11929-2.5 2.5-2.5 2.5 1.11929 2.5 2.5z" transform="translate(-625.5 313.25004)"/></g><path d="m25.5 1041.6122h4v7h-4z" fill="#999"/></g><g transform="translate(0 -1036.362183)"><rect height="16" ry="2" width="6" y="1036.3622"/><g stroke-width=".2"><path d="m640 709.36218c0 1.10457-.89543 2-2 2s-2-.89543-2-2 .89543-2 2-2 2 .89543 2 2z" fill="#f00" stroke="#b20505" transform="matrix(1.0952381 0 0 1.0952381 -695.7619 262.44169)"/><path d="m640 714.36218c0 1.10457-.89543 2-2 2s-2-.89543-2-2 .89543-2 2-2 2 .89543 2 2z" fill="#ff0" stroke="#ffd600" stroke-linecap="square" transform="matrix(1.0952381 0 0 1.0952381 -695.7619 261.9655)"/><path d="m640 719.36218c0 1.10457-.89543 2-2 2s-2-.89543-2-2 .89543-2 2-2 2 .89543 2 2z" fill="#0f0" stroke="#00b200" stroke-linecap="square" transform="matrix(1.0952381 0 0 1.0952381 -695.76189 261.48932)"/></g></g></svg>