<svg height="16" width="16" xmlns="http://www.w3.org/2000/svg"><path d="m0 9.000017h16v7h-16z" fill="#999"/><g fill="#fff"><path d="m5 10.000017h6v1h-6z"/><path d="m5 12.000017h6v1h-6z"/><path d="m5 14.000017h6v1h-6z"/><path d="m2 12.000017h2v1h-2z"/><path d="m0 12.000017h1v1h-1z"/><path d="m12 12.000017h2v1h-2z"/><path d="m15 12.000017h1v1h-1z"/></g><g transform="translate(0 -1036.362183)"><rect height="16" ry="2" width="6" y="1036.3622"/><g stroke-width=".2"><path d="m640 709.36218c0 1.10457-.89543 2-2 2s-2-.89543-2-2 .89543-2 2-2 2 .89543 2 2z" fill="#f00" stroke="#b20505" transform="matrix(1.0952381 0 0 1.0952381 -695.7619 262.44169)"/><path d="m640 714.36218c0 1.10457-.89543 2-2 2s-2-.89543-2-2 .89543-2 2-2 2 .89543 2 2z" fill="#ff0" stroke="#ffd600" stroke-linecap="square" transform="matrix(1.0952381 0 0 1.0952381 -695.7619 261.9655)"/><path d="m640 719.36218c0 1.10457-.89543 2-2 2s-2-.89543-2-2 .89543-2 2-2 2 .89543 2 2z" fill="#0f0" stroke="#00b200" stroke-linecap="square" transform="matrix(1.0952381 0 0 1.0952381 -695.76189 261.48932)"/></g></g></svg>