<svg height="16" width="12" xmlns="http://www.w3.org/2000/svg"><g transform="translate(0 -1036.3622)"><rect height="16" ry="2" width="6" y="1036.3622"/><g stroke-width=".2"><path d="m640 709.36218c0 1.10457-.89543 2-2 2s-2-.89543-2-2 .89543-2 2-2 2 .89543 2 2z" fill="#f00" stroke="#b20505" transform="matrix(1.0952381 0 0 1.0952381 -695.7619 262.44169)"/><path d="m640 714.36218c0 1.10457-.89543 2-2 2s-2-.89543-2-2 .89543-2 2-2 2 .89543 2 2z" fill="#ff0" stroke="#ffd600" stroke-linecap="square" transform="matrix(1.0952381 0 0 1.0952381 -695.7619 261.9655)"/><path d="m640 719.36218c0 1.10457-.89543 2-2 2s-2-.89543-2-2 .89543-2 2-2 2 .89543 2 2z" fill="#0f0" stroke="#00b200" stroke-linecap="square" transform="matrix(1.0952381 0 0 1.0952381 -695.76189 261.48932)"/></g><rect height="11" ry="2" width="6" x="6" y="1041.3622"/><path d="m640 709.36218c0 1.10457-.89543 2-2 2s-2-.89543-2-2 .89543-2 2-2 2 .89543 2 2z" fill="#f00" stroke="#b20505" stroke-width=".2" transform="matrix(1.0952381 0 0 1.0952381 -689.7619 267.44172)"/><path d="m640 719.36218c0 1.10457-.89543 2-2 2s-2-.89543-2-2 .89543-2 2-2 2 .89543 2 2z" fill="#0f0" stroke="#00b200" stroke-linecap="square" stroke-width=".2" transform="matrix(1.0952381 0 0 1.0952381 -689.76189 261.48935)"/></g></svg>