<svg height="725" width="725" xmlns="http://www.w3.org/2000/svg"><path d="m0-.000031h725v725h-725z" fill="#fff"/><g stroke="#000"><circle cx="362.5" cy="362.5" fill="none" r="295" stroke-width="100"/><path d="m391.90287 398.41428a15.551701 15.551701 0 1 1 -31.1034 0 15.551701 15.551701 0 1 1 31.1034 0z" opacity=".99" stroke-width="100" transform="translate(-13.851166 -35.914276)"/><path d="m117.79779 362.47787h489.40442v.044255h-489.40442z" opacity=".99" stroke-width="32.565044"/><path d="m-607.20221 362.47787h489.40442v.044255h-489.40442z" opacity=".99" stroke-width="32.565044" transform="rotate(-90)"/><path d="m267.87585-8.752955h489.40442v.044255h-489.40442z" opacity=".99" stroke-width="32.565044" transform="matrix(.69496171 .71904675 -.71904675 .69496171 0 0)"/><path d="m-235.97139 512.55591h489.40442v.044255h-489.40442z" opacity=".99" stroke-width="32.565044" transform="matrix(-.69496171 .71904675 .71904675 .69496171 0 0)"/></g></svg>