<svg height="320" width="320" xmlns="http://www.w3.org/2000/svg"><g transform="translate(-231.42857 -429.50504)"><path d="m231.42857 429.50504h320v320h-320z" fill="#55d400"/><path d="m514.2857 589.50507a82.85714 62.857143 0 1 1 -165.71428 0 82.85714 62.857143 0 1 1 165.71428 0z" fill="#ffe680" transform="matrix(.9655172 0 0 1.409091 14.876847 -281.16117)"/><path d="m434.28573 622.36218a75.714287 90 0 1 1 -151.42858 0 75.714287 90 0 1 1 151.42858 0z" fill="#ffe680" transform="matrix(1.1132075 0 0 1.3492063 -46.307278 -231.61854)"/><path d="m491.42859 530.93359a32.857143 32.857143 0 1 1 -65.71429 0 32.857143 32.857143 0 1 1 65.71429 0z" transform="matrix(.826087 0 0 .826087 71.180125 83.764847)"/><path d="m417.14287 595.2193a11.428572 11.428572 0 1 1 -22.85715 0 11.428572 11.428572 0 1 1 22.85715 0z"/><path d="m417.14287 595.2193a11.428572 11.428572 0 1 1 -22.85715 0 11.428572 11.428572 0 1 1 22.85715 0z" transform="translate(-17.142857 -37.142857)"/><g transform="matrix(1.0909091 0 0 .9482759 -30.909089 32.954691)"><rect height="165.71429" ry="12.340425" width="20" x="329.99997" y="526.64789"/><rect height="22.857143" ry="10" width="62.857143" x="308.57141" y="632.36218"/></g></g></svg>