<svg height="60" width="60" xmlns="http://www.w3.org/2000/svg"><g stroke-linecap="round" stroke-linejoin="round"><path d="m4.3727943 8.4361263c-.2091259-4.1825206 18.0710907 9.1649247 26.0178807-4.8465193 6.015021 14.011444 22.917611.8731233 23.96324 4.8465193 1.882135 3.3460157-8.561152 42.7349477-24.504365 42.6617097-17.154842-.301888-28.4045196-39.315695-25.4767557-42.6617097z" fill="#ccc" fill-rule="evenodd" stroke="#4c4c4c" stroke-width="2.882801"/><path d="m43.902772 48.302951-26.338882-26.338882-.451527-4.256389 4.268591.566567 26.275261 26.275261z" fill="#7f7f7f" fill-rule="evenodd" stroke="#333" stroke-width="1.875001"/><path d="m17.63353 18.331682 20.867521 20.867521" fill="none" stroke="#b3b3b3" stroke-width="1.25"/><path d="m43.902772 48.302951-26.338882-26.338882-.451527-4.256389 4.268591.566567 26.275261 26.275261z" fill="none" stroke="#333" stroke-width="1.875001"/><path d="m45.39355 48.848029c2.799302 4.835158 4.962398 10.30652 9.543073 6.743772 3.689989-4.453434-2.163096-6.234807-6.743771-9.543073z" fill="#4c4c4c" fill-rule="evenodd" stroke="#333" stroke-width="2.425001"/></g><rect fill="#7f7f7f" fill-rule="evenodd" height="3.99796" rx="1" stroke="#333" stroke-width="1.875001" transform="matrix(.707107 -.707107 .707107 .707107 0 0)" width="8.884355" x="-4.944476" y="63.574132"/></svg>