<svg height="14" viewBox="0 0 14 14" width="14" xmlns="http://www.w3.org/2000/svg"><path d="m7-.0000001c-3.865556 0-7 3.134444-7 7.0000001 0 3.865556 3.134444 7 7 7 .645556 0 1.1660156-.520461 1.1660156-1.166016 0-.303333-.1121788-.577093-.3027344-.783203-.1827769-.206111-.2910156-.473992-.2910156-.773437 0-.645556.5204596-1.166016 1.1660156-1.166016h1.3730468c2.146666 0 3.888672-1.742005 3.888672-3.888672 0-3.4377778-3.134445-6.2226561-7-6.2226561zm1.9335938 1.3046875a1.3891786 1.3891786 0 0 1 1.3886722 1.3886719 1.3891786 1.3891786 0 0 1 -1.3886722 1.390625 1.3891786 1.3891786 0 0 1 -1.3886719-1.390625 1.3891786 1.3891786 0 0 1 1.3886719-1.3886719zm-3.8945313.0195313a1.3891786 1.3891786 0 0 1 1.390625 1.390625 1.3891786 1.3891786 0 0 1 -1.390625 1.3886718 1.3891786 1.3891786 0 0 1 -1.3886719-1.3886718 1.3891786 1.3891786 0 0 1 1.3886719-1.390625zm-2.3320313 3.1230468a1.3891786 1.3891786 0 0 1 1.3886719 1.3906245 1.3891786 1.3891786 0 0 1 -1.3886719 1.388672 1.3891786 1.3891786 0 0 1 -1.3886718-1.388672 1.3891786 1.3891786 0 0 1 1.3886718-1.3906245zm8.5585938 0a1.3891786 1.3891786 0 0 1 1.388672 1.3906245 1.3891786 1.3891786 0 0 1 -1.388672 1.388672 1.3891786 1.3891786 0 0 1 -1.3886719-1.388672 1.3891786 1.3891786 0 0 1 1.3886719-1.3906245z" fill="#734a08"/></svg>