<svg height="365.71426" width="171.42857" xmlns="http://www.w3.org/2000/svg"><g transform="translate(-282.85715 -220.93361)"><path d="m283.53058 289.65994 85.71429-68.72633 85.71428 68.72633v296.98794h-171.42857z" fill="#999"/><path d="m313.617 440.8657 111.25573.13535" fill="#ffd42a" fill-rule="evenodd" stroke="#ffd42a" stroke-dasharray="40.29546 10.073865" stroke-width="10.073865"/><path d="m95.872 81.671c22.55 0 40.834-18.284 40.834-40.836 0-22.551-18.284-40.835-40.834-40.835-22.553 0-40.834 18.284-40.834 40.835 0 22.552 18.281 40.836 40.834 40.836z" fill="#ffd42a" transform="matrix(.6686826 0 0 1.2524888 305.13693 289.76346)"/><path d="m95.872 81.671c22.55 0 40.834-18.284 40.834-40.836 0-22.551-18.284-40.835-40.834-40.835-22.553 0-40.834 18.284-40.834 40.835 0 22.552 18.281 40.836 40.834 40.836z" transform="matrix(.3223502 0 0 .6037843 338.34051 316.25363)"/><path d="m424.87273 483.54464-111.25573.13535" fill="#ffd42a" fill-rule="evenodd" stroke="#ffd42a" stroke-dasharray="40.29546 10.073865" stroke-width="10.073865"/></g></svg>