<svg height="14" viewBox="0 0 16 14" width="16" xmlns="http://www.w3.org/2000/svg"><g fill="#eddbd0"><path d="m1.5037065 13.115611 4.2010768-.964702.7733325-.365571.2299104-.213251.3971167-.01015.031353-1.015475-.804684-.87331-4.8594546 3.330761.052247.142166" fill-rule="evenodd"/><path d="m9.8548624 7.4168412.6957986-.2220401m-.8698779-.0915258.4553719-.8754218m-.865631.7218008s.057331-.7803079-.06925-.9294287m-.1721727 1.0594579s-.4390189-.4632359-.718439-.6439093m.5391259.989415s-.7425503-.1791459-.935273-.2692719m1.0071548.5361876s-.5289257.3213456-.8484755.5240178m1.1168265-.2601239s-.2139579.7356755-.3631073.9678863m1.1191594-.9797963s.4929599.9271376.4480979 1.1441902m.05992-1.594021s.979565.4371094 1.155669.6151668m-10.1773058 5.0091722s-.089665-.984898 1.0971454-1.61823c1.186802-.633332 2.9538795-1.948739 3.8554601-1.792112m-4.9304656 3.433121s.2581828-.09187.4916538.163353c.233471.25522.671219.67114.972794.604963.301558-.06616.27238-.330849.4669419-.378114.194562-.04726.457211.113431.466943-.160695.0097-.274126-.1751-.529347.321021-.519891.49612.0095.710128.425363.885244.198513.1750989-.226865.282112-.595523.564223-.869653.2821119-.27413.4474799-.217409.787964-.39701.3404829-.179602.1698151-.278729.6831745-.191365m4.7117267-5.0845067s-.932297.4037041-1.261777.5049427m.05262-2.2810507s-.524261 1.4390997-.6240666 1.3976359m-.5348778-1.7399409s.075815 1.2258177-.021136 1.6207646m-1.3620172-1.4683947s.6940924 1.1160326.7315144 1.5653116m-2.0468829-.7726391s1.2773621.7250664 1.500868 1.1909016m-2.2713414.3003077s1.4636141.00428 1.9840797.3543277m-1.9864203 1.587652s1.3701278-.737853 2.0551417-.661635m-.9097846 2.4879153s.9469603-1.559495 1.5286899-1.768228m.9198899 3.752354s-.1338573-1.068524-.1144013-1.768066c.019454-.699491.094247-1.496616.1444019-1.688776m3.3155816 2.845736s-.502824-.287192-.814114-.759835c-.31129-.472626-1.340215-2.2429833-1.301272-2.2636173m4.183253 1.0325363s-.975353-.05452-1.179645-.186864c-.204295-.13234-1.712035-1.2572084-1.712035-1.2572084s-.30766-.2225595-.469984-.4279456m4.017734-2.9703224s-1.14475.6380277-1.679762.7987167c-.535029.1606951-1.874725.2978841-2.240909.234014m2.683204-3.4645923s-1.171953 1.1036521-1.522151 1.3399734c-.350199.2363214-1.259605 1.0063936-1.768048 1.0467365m.563421-4.4725622s.154044.552289-.04052.9587394c-.194562.4064662-1.337873 2.7954021-1.61741 2.9242456m-1.7686829-4.4093591s.5844885.057618.7012325.7949308c.116734.7373174.3345988 3.476665.1167961 3.4841387m-4.1699595-3.4979162s.8234946-.1563349 1.1542296.5242617c.3307529.6805958 1.7618607 3.2157271 1.492791 3.3717044m-5.3758901-1.9659451s.9452712-.3660262 1.7819252.295658c.836604.6616842 2.9567225 1.9770097 2.6723038 2.3690644m-6.41857739 1.8347942s.73086188-1.0087332 1.52855689-.9330999c.7976939.07562 4.1927167.4219993 4.1709791.94951m-5.60725459 3.2844874s.19120157-1.436078 1.35854049-1.6250859c1.167339-.1890572 4.1462334-.9277873 4.2866875-.4006656m-4.482043 4.5649415s-2.33415254-2.590905-.90341208-7.4034485c1.43075748-4.8125431 6.10824108-5.561071 7.56645328-5.6413338 1.4582803-.08021 4.2923721.1871556 5.9156181 2.1388353 1.623364 1.9516631 2.228703 4.2510256 1.705847 6.1225885-.569808 2.0398885-2.503759 3.7965805-4.07216 4.1173085-1.568336.320841-3.3292607.133679-4.5674286-.882295l.02751-.989235s-1.0180404-.935766-1.1831233-1.9784729c-.1650891-1.0427067-.02752-2.0587352.4127168-2.8072622.4402397-.7486093 1.5408126-1.3902759 2.5313473-1.4437468.9905348-.0534736 2.2250238.3427429 2.6413698 1.310077.425793.9892366.474133 1.6795163.110059 2.3794635-.340784.6552177-.935507 1.1496484-1.9260579 1.0694504-.9905347-.080211-1.5133069-.5079819-1.7334352-1.1496485-.2201114-.6416674.1375739-1.6575823.7979281-1.8715629.6603511-.2138836 1.393404-.1033056 1.636607.4638531.220211.5135548.233471.879093-.291843 1.2666642-.3438788.2537064-.9144224.3213938-1.1965344-.1512428-.282112-.4726269.3404841-.8980055.612864-.7089483.27238.1890573.291843.3497462.321021.4348187" stroke="#000" stroke-width=".164825"/></g></svg>