<svg height="148.65891" width="126.87975" xmlns="http://www.w3.org/2000/svg" xmlns:xlink="http://www.w3.org/1999/xlink"><linearGradient id="a"><stop offset="0" stop-color="#6f6234"/><stop offset=".5" stop-color="#7f7655"/><stop offset="1" stop-color="#2d2711"/></linearGradient><linearGradient id="b"><stop offset="0" stop-color="#fff" stop-opacity="0"/><stop offset=".4962" stop-color="#fff" stop-opacity=".020833"/><stop offset="1" stop-color="#fff" stop-opacity=".53125"/></linearGradient><linearGradient id="c"><stop offset="0" stop-color="#ede1b9"/><stop offset=".5" stop-color="#7a7152"/><stop offset="1" stop-color="#927f39"/></linearGradient><linearGradient id="d"><stop offset="0" stop-color="#1d1100" stop-opacity=".66667"/><stop offset=".52659" stop-color="#4f340c" stop-opacity=".30196"/><stop offset="1" stop-color="#3d3001" stop-opacity="0"/></linearGradient><radialGradient id="e" cx="104.16177" cy="56.434727" fx="86.442383" fy="60.641514" gradientTransform="matrix(.92416218 0 0 1.0820612 -21.02338 -2.735764)" gradientUnits="userSpaceOnUse" r="20.573427" xlink:href="#d"/><linearGradient id="f" gradientTransform="matrix(.48867066 0 0 .63997744 -16.21178 -12.168664)" gradientUnits="userSpaceOnUse" x1="106.91916" x2="291.10336" xlink:href="#c" y1="137.88396" y2="-13.319842"/><linearGradient id="g" gradientTransform="matrix(.4891886 0 0 .63929982 -16.21178 -12.168664)" gradientUnits="userSpaceOnUse" x1="167.38974" x2="423.51227" xlink:href="#c" y1="44.530285" y2="288.53662"/><linearGradient id="h" gradientTransform="matrix(.65517346 0 0 .4773365 -16.21178 -12.168664)" gradientUnits="userSpaceOnUse" x1="52.200809" x2="80.841118" xlink:href="#c" y1="222.94662" y2="139.84502"/><linearGradient id="i" gradientTransform="matrix(.501949 0 0 .62304776 -16.21178 -12.168664)" gradientUnits="userSpaceOnUse" x1="66.328804" x2="45.221279" xlink:href="#b" y1="210.41183" y2="233.77164"/><linearGradient id="j" gradientTransform="matrix(.52411373 0 0 .59669908 -16.21178 -12.168664)" gradientUnits="userSpaceOnUse" x1="182.66423" x2="226.5798" xlink:href="#b" y1="74.241417" y2="192.06702"/><linearGradient id="k" gradientTransform="matrix(.4891886 0 0 .63929982 -16.21178 -12.168664)" gradientUnits="userSpaceOnUse" x1="281.13297" x2="138.99986" xlink:href="#c" y1="52.916672" y2="167.97333"/><linearGradient id="l" gradientTransform="matrix(.68264915 0 0 .45812433 -16.21178 -12.168664)" gradientUnits="userSpaceOnUse" x1="90.823395" x2="66.36496" xlink:href="#a" y1="378.07291" y2="257.42313"/><linearGradient id="m" gradientTransform="matrix(2.4069002 0 0 .12993401 -16.21178 -12.168664)" gradientUnits="userSpaceOnUse" x1="23.705992" x2="24.911583" xlink:href="#a" y1="838.66858" y2="894.27612"/><linearGradient id="n" gradientTransform="matrix(.25436896 0 0 1.2294668 -16.21178 -12.168664)" gradientUnits="userSpaceOnUse" x1="187.5188" x2="197.01346" xlink:href="#a" y1="82.68367" y2="82.68367"/><linearGradient id="o" gradientTransform="matrix(.58793891 0 0 .53192292 -16.21178 -12.168664)" gradientUnits="userSpaceOnUse" x1="39.017715" x2="82.798813" xlink:href="#d" y1="273.28244" y2="253.13097"/><linearGradient id="p" gradientTransform="matrix(1.3401544 0 0 .74618265 -21.02338 -2.735764)" gradientUnits="userSpaceOnUse" x1="24.21303" x2="23.555061" xlink:href="#a" y1="116.10118" y2="104.70568"/><linearGradient id="q" gradientTransform="matrix(1.6424044 0 0 .60886345 -21.02338 -2.735764)" gradientUnits="userSpaceOnUse" x1="37.520344" x2="65.41333" xlink:href="#b" y1="233.65829" y2="233.9549"/><radialGradient id="r" cx="198.30634" cy="109.06019" fx="143.6067" fy="122.0465" gradientTransform="matrix(.51683436 0 0 .6051033 -16.21178 -12.168664)" gradientUnits="userSpaceOnUse" r="63.510036" xlink:href="#d"/><g fill-rule="evenodd"><g fill-opacity=".082645" transform="matrix(.55923 0 0 .55923 -200.65337 -198.88577)"><path d="m492.32 361.86c-31.52.35-52.24 31.14-53.67 60.24-6.77 15.8 11.32 38.09-4.25 48.44-9.51 8.32-22.81 17.12-19.88 31.63 2.61 9.41-2.11 16.63-12.28 14.03-8.56-.64-17.89 2-25.88-1.14 5.58-10.43-7.18-8.34-4.64 1.28 4.9 8.34 16.43 4.02 24.57 5.8 5.81.59 23.91-.98 14.96 6.16-7.21 1.23-17.27-2.66-22.46 2.34 5.27 4.98 15.38 1.13 22.66 2.35 6.13 4.84-11.75 2.35-16.9 3.03-5.76.44-17.85-.6-19.82.72-3.57-1.7 5.17 6.68 5.68 12.66-.44 10.6-.89 21.2-1.34 31.8-5.65 4.14-15.25 5.58-14.03 14.41 3.42 6.09 4.85 15.19 9.48 19.43 42.42-.25 84.85-.49 127.27-.74.74-9.9-10.83-12.02-16.83-17.65-3.54-5.55-.77-14.48-1.86-21.35.27-10.76-2.47-22.12 3.83-31.71-.47-4.75-13.32-3.58-18.62-6.06-12.91-3.78-26.47-1.23-39.7-1.79-.53-6.13 13.18-1.14 18.42-2.75 5.31.97 24.22-.15 12.25-4.69h-32.55c1.67-11.1-9.33 10.3-8.91-5.44 13.27-4.91 1.75-21.35 8.32-30.26 8.63-.79 17.56.67 26.31.76 15.43 30.01 47.24 60.24 83.66 52.28 34.97-8.66 46.81-49.74 42.86-81.66-4.11-39.97-27.37-80.47-64.45-98.03-7.01-2.88-14.61-4.4-22.2-4.09zm-74.4 171.13c13.83-2.23-.21 8.43 0 0z"/><path d="m486.44 360.66c-24.63 3.39-42.75 25.74-47.51 49.16-1.23 9.89-5.17 19.84-2.32 29.83 1.03 9.36 5.99 20.93-1.92 28.57-8.74 7.81-20.33 15.15-21.89 27.81-1.47 5.91 3.82 13.45-2.41 17.71-4.49 2.97-10.11-.15-15.14.88-5.57.33-11.21.63-16.66-.78 2.64-3.57-1.77-9.87-5.65-6.23-6.52 4.29-1.82 15.21 5.56 14.93 10.63 2 21.84.02 32.34 2.47.35 2.89-6.73 1.71-9.31 1.49-5.5-.35-11.46.01-15.59 4.16 1.39 2.61 11.39 4.4 4.33 3.79-6.18.07-12.37.19-18.55.24 2.03 6.97 8.87 12.63 6.84 20.41-.36 8.37-.71 16.74-1.06 25.12-6.1 3.41-15.63 7.26-14.03 15.94 3.78 6.67 4.62 15.77 11.06 20.5 42.98-.24 85.96-.49 128.94-.72 1.49-9.98-8.84-14.77-15.74-19.26-5.39-5.55-1.83-13.99-2.96-20.87.03-10.76-2.05-22.59 4.01-32.22-3.57-7.48-13.47-4.64-19.83-7.68-2.51-.82-8.07-1.38-8.79-1.66 2.94-.85 7.28-2.86 3.06-5.59-6.2-4.15-14.11-.96-21.04-1.97-4.26-.59-11.07 1.19-13.71-.91-1.22-4.89-6.18.34-8.53.72-1.26-4.31 5.59-5.47 5.56-9.92 2.14-7.29-1.86-15.39 1.69-22.39 8.09-.05 16.17.2 24.25.75 13.08 23.82 33.6 45.96 60.93 52.37 19.92 4.32 42.43-3.29 53.8-20.62 16.98-23.31 17.8-54.61 10.91-81.7-7.99-31.72-27.57-61.5-56.47-77.66-10.45-5.94-22.27-7.92-34.17-6.67zm-65 173.65c-1.79.78-1.59-.72 0 0z"/><path d="m486.47 358.16c-23.66 3.74-42.22 23.57-48.41 46.12-4.01 14.58-6.26 30.14-2.19 44.97 1.56 7.05.79 15.58-5.98 19.63-9.2 8.35-20.99 18.05-19.4 31.94 1.04 4.23 1.4 11.82-4.99 11.2-7.38.32-14.93.14-22.23.06-2.52-1.67-1.78-7.01-6.03-7.29-7.54-2.41-12.23 8.69-8.03 14.26 3.51 7.44 13.24 6 19.35 6.83-5.08.57-2.71 7.07-6.09 6.18-4.22.94-11.34-2.38-13.03 3.25 3.55 7.71 8.74 15.69 6.59 24.54-.26 6.27-.52 12.54-.78 18.81-7.15 3.45-16.69 10.01-13.6 19.21 3.82 7.22 5.25 16.97 12.97 21.16 43.77-.24 87.53-.49 131.29-.72 2.35-10.35-6.86-18.02-14.85-22.56-6.56-5.61-2.57-15.02-3.75-22.41-.15-10.09-1-20.98 4.38-30-4.09-5.23-2.7-3.69 1.97-.84 13.48 7.16 29.46 10.72 44.42 6.3 16.22-4.13 29.8-16.23 36.21-31.65 12.91-25.43 10.91-55.83 2.31-82.3-10.03-30.26-30.81-58.3-60.11-72.05-9.34-4.25-19.87-5.19-30.02-4.64zm-36.25 139.15c8.62 15.36 20.05 29.27 34.4 39.6-5.64-2.34-12.44-1.82-17.84-4.35.33-3.91-1.78-7.49-6.05-7.39-9.55-2.87-19.83.77-29.4-1.53-4.36-2.37-6.13-1.99-3.33-6.76 1.58-6.65-.76-13.61 1.06-20.22 7.05.22 14.11.43 21.16.65z"/><path d="m486.25 355.75c-25.79 4.56-46.2 26.8-51.36 52.07-4.1 15.19-4.18 31.3-.87 46.64.57 11.21-11.54 16.03-17.14 24.03-6.94 7.23-10.51 17.45-8.22 27.35-1.19 6.26-8.63 2.93-12.99 3.77-4.17-1-11.13 2.56-12.55-2.92-3.15-5.76-11.48-6.01-15.17-.7-6.11 7.47-.87 20.22 8.86 21.04 5.19-.04 7.97 2.75 1.07 2.75-4.76-1.55-12.67 1.96-10.06 7.79 5.13 8.56 6.98 18.66 5.52 28.55-.49 5.14 1.11 11.93-5.15 14.03-6.62 3.63-11.31 11.4-8.61 18.99 3.86 8 6.29 19.34 15.86 22.33 44.22-.24 88.43-.49 132.65-.72 3.2-11.49-5.92-21.63-15.31-26.78-5.54-7.68-1.91-17.68-3.07-26.41-.15-7.59.53-15.39 3.85-22.31 13.94 6.75 30.09 10.23 45.25 5.67 17.03-4.26 30.95-17.29 37.83-33.29 13.89-29 10.46-63.56-1.34-92.65-11.86-28.21-32.86-54.43-61.96-65.79-8.69-3.22-17.89-3.84-27.09-3.44zm-52.81 143.25c5.25 1.46 11.67-1.03 16.22 2.03 7.08 11.58 15.45 22.47 25.84 31.28-4.68.29-6.73-3.07-8.58-6.56-7.9-6.2-18.93-3.46-28.25-3.85-3.22-.59-11.16-.24-8.35-5.36 1.5-5.62-.89-12.67 1.87-17.51.41.01.83-.03 1.25-.03z"/></g><rect fill="url(#n)" height="11.673368" rx=".07511" ry="5.836684" stroke-width="1pt" width="2.415147" x="31.487185" y="89.488159"/><path d="m8.835573 82.514567-.8539442 3.416896c-.4099156 1.638543 1.4439319 3.897833 3.1311282 3.981717l21.916224 1.140829c2.078099.106254 4.611411-2.192181 4.55381-4.272517l-.284648-10.245093c-.03188-1.157607.836049-2.902404 1.992536-2.846481l17.080003.855622-6.548583-18.784536-13.3779 11.665538c-2.430414 2.125074-4.654472 5.318277-4.55381 8.539442l.284648 9.109857c.0274.872398-.833253 1.979674-1.707889 1.990858l-17.647062.285208c-.894768.01678-2.560154-.570415-2.276625-1.420444l1.138033-3.416896z" fill="url(#h)" stroke-linecap="round" stroke-linejoin="round" stroke-width="2.25"/><path d="m66.900983 2.5340517c23.336668-8.3487446 43.832457 15.3698773 52.371897 35.8634203 8.53944 21.060042 7.39861 52.561468-13.66199 63.187398-22.201438 10.62537-46.678935-10.245094-55.788791-34.722591-9.109857-23.910438-5.692962-56.549338 17.078884-64.3282273z" fill="url(#g)" stroke="url(#k)" stroke-width=".55923pt"/><path d="m68.511565 8.8019016c21.049417-7.5289135 39.526385 13.8599564 47.226975 32.3402714 7.7006 18.99201 6.67721 47.395301-12.31983 56.979944-20.020442 9.579603-42.09325-9.238479-50.302747-31.311287-8.215088-21.563909-5.133731-50.993947 15.395602-58.0089284z" fill="url(#f)" stroke-width=".90177pt"/><g stroke-width="1pt"><path d="m61.565929 20.85219c-9.322364 6.886358-12.370168 27.979954-3.964941 50.802131 8.366081 22.497823 39.710922 22.732699 48.144112 15.624886 8.47234-6.777868 21.13331-24.41039 3.19321-52.370212-17.861814-27.3032864-37.770402-20.978954-47.372381-14.056805z" fill="url(#r)"/><path d="m102.41769 80.663516c13.30967-17.330538-4.826165-55.706578 6.57654-38.934711 10.603 16.772426 8.89735 43.906266-2.37114 52.898684-13.689951 12.207991-33.676831-6.576545-42.669249-16.100232-8.992419-9.529279 25.154165 18.901974 38.463849 2.136259z" fill="url(#j)"/><path d="m9.1470642 98.346369 5.6353608 2.818511 57.762866.20133-15.697586-3.422487-47.6989632.402646z" fill="url(#m)"/><path d="m14.380338 100.56092 21.937475.40264 1.811346-9.864812 2.415314 9.663492 32.401786.60397-2.818519 6.63806.402646 23.54917 9.663494 6.64366.603968 3.82513-71.8498697.40264-4.6309837-10.87143.6039684-3.82513 7.245384-4.22219.804732-19.12007-4.2261012-6.039681z" fill="url(#l)"/><path d="m17.399062 130.14418-6.842739 8.25424-4.830628-9.86482 6.843297-4.62483z" fill="url(#i)"/><rect height="2.616413" rx="1.308207" width="42.063606" x="17.600388" y="93.917259"/><path d="m41.853071 107.84768-21.632694.57042v21.63101l-6.261698 10.2451 35.86342-.57042z" fill="url(#o)"/><path d="m16.38562 78.255236c0 1.519-2.846 4.955-5.726 4.955-2.8799994 0-4.7079994-3.436-4.7079994-4.955s1.828-.55 4.7079994-.55c2.88 0 5.726-.969 5.726.55z" fill="url(#p)"/><path d="m60.92362 39.230236c-5.4 3.989-7.165 16.207-2.297 29.428 4.845 13.031 23 13.17 27.89 9.052 4.9-3.928 12.24-14.142 1.85-30.338-10.348-15.815-21.881-12.152-27.443-8.142z" fill="url(#e)"/><path d="m78.50462 140.79423-24.52-.59-1.295-8.98 13.914.67z" fill="url(#q)"/></g></g></svg>