<svg height="695.06635" width="695.06635" xmlns="http://www.w3.org/2000/svg" xmlns:xlink="http://www.w3.org/1999/xlink"><filter id="a" color-interpolation-filters="sRGB"><feGaussianBlur stdDeviation="2.9027502"/></filter><g fill-opacity=".99608" transform="matrix(2.2848 0 0 2.2848 -452.42101 13.01034)"><path d="m204.98 1.2723h290.28v290.28h-290.28z" filter="url(#a)"/><path d="m200.98-2.7277h290.28v290.28h-290.28z" fill="#a05a2c"/><path d="m206.09 2.3828h280.04999v280.04999h-280.04999z" fill="#784421"/><path d="m218.36 14.648h255.52v255.52h-255.52z" fill="#c87137"/><path d="m228.58 24.868999h235.08v235.08h-235.08z" fill="#784421"/><path d="m243.91 40.200001h204.42v204.42h-204.42z" fill="#fff"/><path d="m486.64 282.98v-281.27h-281.27l4.9462 4.9461h271.38v271.38l4.9461 4.9461z" fill="#2b1100"/><path d="m205.37 1.7121v281.27h281.27l-4.9462-4.9461h-271.38v-271.38l-4.9461-4.9461z" fill="#d38d5f"/><g transform="matrix(.90578 0 0 .90578 -1237.3 -654.51)"><path d="m1888.9 1020.4v-281.27h-281.27l4.9462 4.9461h271.38v271.38l4.9461 4.9461z" fill="#2b1100"/><path d="m1607.7 739.11v281.27h281.27l-4.9462-4.9461h-271.38v-271.38l-4.9461-4.9461z" fill="#d38d5f"/></g><g transform="matrix(.83468 0 0 .83468 -1113 -591.95)"><path d="m1888.9 1020.4v-281.27h-281.27l4.9462 4.9461h271.38v271.38l4.9461 4.9461z" fill="#2b1100"/><path d="m1607.7 739.11v281.27h281.27l-4.9462-4.9461h-271.38v-271.38l-4.9461-4.9461z" fill="#d38d5f"/></g><g transform="matrix(.72802 0 0 .72802 -926.53 -498.12)"><path d="m1888.9 1020.4v-281.27h-281.27l4.9462 4.9461h271.38v271.38l4.9461 4.9461z" fill="#2b1100"/><path d="m1607.7 739.11v281.27h281.27l-4.9462-4.9461h-271.38v-271.38l-4.9461-4.9461z" fill="#d38d5f"/></g></g></svg>