<svg height="16" viewBox="0 0 16 16" width="16" xmlns="http://www.w3.org/2000/svg"><g transform="translate(0 -1036.3622)"><path d="m1.295261 1046.0461c.4758102-2.617 3.9820475-3.2654 6.704739-3.2918 2.722692-.026 4 0 7.490264 3.2389l-6.8728131 2.4055z" fill="#ccc" fill-rule="evenodd"/><path d="m8.2421875 2.7324219-.5859375 2.6757812-1.1835938.070312-1.4296874-2.3457026.3652343 2.6621094-1.0410156.5273437-1.5898437-2.4160156.6289062 3.015625-.7636719.5390625-1.79955581-2.3324913.69994651 3.1938194s-1.04882818.6350453-1.04882818 1.4941406c0 .8590958.85156248 1.2246098.85156248 1.2246098l-.81249998 3.09375 1.84179688-2.519532.9316406.488285-.7070312 2.988278 1.6816406-2.550781 1.1269531.396484-.3652343 2.662109 1.46875-2.410156 1.1230468.0293.6074219 2.781247.5136719-2.921875 1.0722656-.242187 1.365234 2.732421-.316406-3.044921 1.007813-.333985 1.52539 2.947266-.404297-3.351563 1.009766-.378906 1.595703 2.884766-.607422-3.273438s.996094-.339191.996094-1.2167968c0-.8415147-1.103516-1.5-1.103516-1.5l.759038-3.4616274-1.749272 2.6842837-.900391-.5683594.53688-3.1825983-1.583755 2.629864-1.058593-.421875.292968-2.8164063-1.2695309 2.5410156-1.1972656-.2148437zm-.9550781 4.6601562c2.258149-.1888014 6.0175786 2.1445313 6.0175786 2.1445313s-3.9387404 1.7891436-6.0253911 1.7128906c-1.5064141-.055049-4.2480469-1.5507812-4.2480469-1.5507812s1.9977104-2.1178393 4.2558594-2.3066407z" fill="#7f2aff" fill-rule="evenodd" transform="translate(0 1036.3622)"/><path d="m1.0137856 1040.3622c2.1448529 0 4.3896429-3 6.5344961-3 3.7258593 0 5.3068623 1 7.4517183 1" fill="none" stroke="#784421" stroke-linecap="round" stroke-width="2"/><circle cx="7.518728" cy="1045.6886" fill="#fff" r="1.934397"/><circle cx="7.518728" cy="1045.6886" r=".967198"/></g></svg>