<svg height="160" viewBox="0 0 160 160" width="160" xmlns="http://www.w3.org/2000/svg"><g clip-rule="evenodd" fill-rule="evenodd" stroke="#000" stroke-miterlimit="10" stroke-width=".036"><g transform="matrix(.51663058 0 0 .50688758 .029539 .01969)"><path d="m46.854.018c-1.476-.144-4.104.108-7.74.9-3.78.72-8.424 1.908-14.328 3.564-1.224 1.332-1.764 3.672-1.476 7.164.252 3.42 1.188 7.848 2.952 13.428.936 10.368 1.188 19.332.612 27.432-.612 8.028-1.728 14.796-4.176 20.592-2.628 5.688-7.704 9.432-11.052 13.716-3.384 4.14-7.2 7.416-8.928 11.34-1.764 3.924-2.268 7.776-1.512 11.952l2.7 4.464v8.64l-2.7 2.088c-1.008 2.448-1.404 15.048-1.188 38.231.18 23.293.972 56.197 2.376 100.225l1.8 3.6v6.553l-1.8 1.188v17.82c-.612 4.248-.108 7.633 1.512 10.729 1.584 2.916 4.176 5.398 8.064 7.164 3.816 1.619 9.108 2.195 14.904 2.988 5.76.756 12.096 1.402 19.404 1.799h8.496c7.2-.396 13.607-1.043 19.368-1.799 5.688-.793 10.979-1.369 14.903-2.988 3.816-1.766 6.372-4.248 8.064-7.164 1.548-3.096 2.052-6.48 1.512-10.729v-17.82l-1.8-1.188v-6.553l1.8-3.6c1.368-44.027 2.16-76.932 2.376-100.225.18-23.183-.216-35.783-1.188-38.231l-2.7-2.088v-8.64l2.7-4.464c.72-4.176.216-8.028-1.513-11.952-1.8-3.924-5.651-7.2-8.928-11.34-3.42-4.284-8.532-8.028-11.052-13.716-2.557-5.796-3.672-12.564-4.176-20.592-.612-8.1-.36-17.064.611-27.432 1.729-5.58 2.664-10.008 2.952-13.428.252-3.492-.288-5.832-1.476-7.164-5.94-1.656-10.584-2.844-14.328-3.564-3.672-.792-6.3-1.044-7.74-.9z"/><path d="m48.114 8.01c-1.872-.072-4.716.324-8.676 1.332-4.032.972-8.82 2.412-14.904 4.464-.288-1.152-.432-2.376-.288-3.672.072-1.332.288-2.736.792-4.212 7.092-1.728 12.24-2.952 15.984-3.672 3.528-.756 3.6-.684 5.76-.756 2.124-.144 4.86-.144 7.092 0 2.052.072 2.16 0 5.76.756 3.564.72 8.929 1.944 15.948 3.672.468 1.476.685 2.88.792 4.212.072 1.296.036 2.52-.252 3.672-6.3-2.052-11.052-3.492-14.939-4.464-3.889-1.008-6.372-1.404-7.849-1.332z" fill="#61a228"/><path d="m48.114 19.566c-2.376.18-5.22.612-8.676 1.296-3.492.576-7.452 1.584-12.024 2.628-.18-.792-.396-1.62-.792-2.628-.396-1.044-.972-2.124-1.584-3.384 7.092-1.728 12.24-2.952 15.984-3.672 3.528-.72 3.6-.756 5.76-.792 2.124-.144 4.86-.144 7.092 0 2.052.036 2.16.072 5.76.792 3.564.72 8.929 1.944 15.948 3.672-.468 1.44-1.116 2.736-1.548 3.888-.612 1.116-1.008 2.088-1.584 2.916-4.356-1.476-8.064-2.664-11.268-3.42-3.168-.828-5.832-1.26-7.849-1.296z" fill="#61a228"/><path d="m48.87 33.174c-4.356.072-8.064-.108-11.52-.54-3.456-.504-6.372-1.152-8.892-2.088-.72-1.512-1.08-2.592-.792-3.384.144-.828.936-1.224 2.088-1.332 1.944.936 4.572 1.584 7.884 2.088 3.24.432 7.164.612 11.772.54h2.088c4.536.072 8.46-.108 11.772-.54 3.239-.504 5.868-1.152 7.884-2.088 1.116.108 1.908.504 2.088 1.332.252.792-.108 1.872-.792 3.384-2.556.936-5.472 1.584-8.892 2.088-3.492.432-7.2.612-11.521.54z" fill="#cbc6d0"/><path d="m46.278 308.861c-9-.863-15.948-1.512-21.24-2.34-5.364-.863-7.236-1.188-10.188-2.375-3.06-1.369-5.508-3.348-7.344-4.969-1.872-1.619-2.88-3.061-3.42-4.463l.54-18.072 2.088-1.045v-7.596l-2.088-4.428c-.684-21.637-1.08-43.309-1.332-65.988-.324-22.752-.36-45.432-.252-69.156l3.132-2.628.54-10.729-3.132-5.508c-.468-2.16-.252-4.644.792-7.596 1.008-2.916 1.908-5.724 5.22-9.936 3.24-4.428 11.016-10.908 14.148-15.984 3.024-5.184 2.988-10.26 3.924-14.652.864-4.464 1.116-8.172 1.044-11.556 1.332.54 4.68.9 10.224 1.08l12.06.432c5.544.18 5.148-.288 10.729-.432 5.508-.18 8.892-.54 10.224-1.08-.108 3.384.144 7.092 1.044 11.556.864 4.392.828 9.468 3.924 14.652 3.024 5.076 10.8 11.556 14.148 15.984 3.239 4.212 4.104 7.02 5.22 9.936 1.008 2.952 1.224 5.436.792 7.596l-3.132 5.508.504 10.728 3.168 2.628c0 23.724 0 46.404-.288 69.156-.288 22.68-.72 44.352-1.296 65.988l-2.088 4.428v7.596l2.088 1.045.54 18.072c-.576 1.402-1.584 2.844-3.42 4.463-1.944 1.621-4.393 3.6-7.344 4.969-2.988 1.188-5.005 1.512-10.225 2.375-5.364.828-12.204 1.477-21.204 2.34h-8.1z" fill="#f1c810"/><path d="m44.694 129.258c-6.156-.036-12.132-.432-18.072-1.044-5.976-.648-11.772-1.656-17.532-2.88v-10.224c6.588.972 12.996 1.8 19.368 2.34 6.372.504 12.42.72 18.576.792h7.344c6.084-.072 12.24-.288 18.612-.792 6.336-.54 12.744-1.368 19.368-2.34v10.224c-5.796 1.224-11.592 2.232-17.532 2.88-5.976.612-11.952 1.008-18.072 1.044z"/><path d="m44.694 281.07c-6.156-.037-12.132-.432-18.072-1.045-5.976-.646-11.772-1.656-17.532-2.879v-10.189c6.588.973 12.996 1.801 19.368 2.342 6.372.504 12.42.719 18.576.791h7.344c6.084-.072 12.24-.287 18.612-.791 6.336-.541 12.744-1.369 19.368-2.342v10.189c-5.796 1.223-11.592 2.232-17.532 2.879-5.976.613-11.952 1.008-18.072 1.045z"/><path d="m34.758 161.621c-7.524 3.781-12.456 8.748-15.336 15.336-2.808 6.518-3.096 16.67-1.548 23.652 1.584 6.949 5.904 13.572 10.44 17.785 4.392 4.104 9.468 6.299 15.624 6.732-7.668-10.801-10.224-17.713-7.668-21.17 2.52-3.527 21.708 4.178 22.716.613.72-3.6-18.216-17.064-17.496-21.781.864-4.752 18.324-3.383 22.104-6.443 3.601-3.168 3.349-7.199-.611-12.24-2.521-2.268-6.012-3.6-10.765-3.996-4.752-.431-10.476.073-17.46 1.512z"/><path d="m69.103 165.006c2.664 1.512 4.968 3.924 7.056 7.381 2.052 3.383 4.392 7.307 5.22 13.176.685 5.795 1.404 15.227-.611 21.492-2.089 6.227-6.12 12.455-11.664 15.623-5.725 3.023-12.96 3.996-22.104 2.771-5.724-8.063-6.768-13.176-2.736-15.336 3.96-2.23 25.02 5.832 26.388 2.125 1.08-3.996-18.504-20.701-19.044-24.84-.468-4.068 13.248 4.283 16.271.611 2.915-3.743 3.275-11.411 1.224-23.003z"/><g fill="#408120"><path d="m36.594 164.105c-7.524 3.385-12.492 8.244-15.048 14.725-2.592 6.443-1.764 17.424-.288 23.904 1.368 6.299 5.904 10.908 8.892 14.111 2.88 3.096 5.976 4.68 8.892 4.607-7.884-9.539-10.548-15.982-7.992-19.332 2.556-3.383 21.888 2.521 23.004-.898.827-3.602-17.856-15.625-17.172-19.945.648-4.248 16.452-3.779 21.167-5.543 4.572-1.908 6.769-3.852 6.444-5.832-1.296-4.248-4.212-6.66-8.892-7.668-4.751-.972-10.907-.396-19.007 1.871z"/><path d="m71.874 171.773c3.24 3.205 5.725 6.732 7.057 11.016 1.296 4.213 1.655 9.109 1.224 14.113-.504 4.896-1.368 10.836-3.708 15.047-2.412 4.178-5.832 7.777-10.404 9.828-4.607 1.945-10.332 2.557-17.172 1.836-5.76-5.902-6.588-9.646-2.484-11.375 4.176-1.836 24.84 4.68 27 1.225 1.872-3.492-14.903-17.93-15.336-21.781-.396-3.924 10.152 1.729 12.601-1.512 2.338-3.455 2.699-9.359 1.222-18.397z"/></g></g><g transform="matrix(.51663058 0 0 .50688758 53.910239 .01969)"><path d="m46.854.018c-1.476-.144-4.104.108-7.74.9-3.78.72-8.424 1.908-14.328 3.564-1.224 1.332-1.764 3.672-1.476 7.164.252 3.42 1.188 7.848 2.952 13.428.936 10.368 1.188 19.332.612 27.432-.612 8.028-1.728 14.796-4.176 20.592-2.628 5.688-7.704 9.432-11.052 13.716-3.384 4.14-7.2 7.416-8.928 11.34-1.764 3.924-2.268 7.776-1.512 11.952l2.7 4.464v8.64l-2.7 2.088c-1.008 2.448-1.404 15.048-1.188 38.231.18 23.293.972 56.197 2.376 100.225l1.8 3.6v6.553l-1.8 1.188v17.82c-.612 4.248-.108 7.633 1.512 10.729 1.584 2.916 4.176 5.398 8.064 7.164 3.816 1.619 9.108 2.195 14.904 2.988 5.76.756 12.096 1.402 19.404 1.799h8.496c7.2-.396 13.607-1.043 19.368-1.799 5.688-.793 10.979-1.369 14.903-2.988 3.816-1.766 6.372-4.248 8.064-7.164 1.548-3.096 2.052-6.48 1.512-10.729v-17.82l-1.8-1.188v-6.553l1.8-3.6c1.368-44.027 2.16-76.932 2.376-100.225.18-23.183-.216-35.783-1.188-38.231l-2.7-2.088v-8.64l2.7-4.464c.72-4.176.216-8.028-1.513-11.952-1.8-3.924-5.651-7.2-8.928-11.34-3.42-4.284-8.532-8.028-11.052-13.716-2.557-5.796-3.672-12.564-4.176-20.592-.612-8.1-.36-17.064.611-27.432 1.729-5.58 2.664-10.008 2.952-13.428.252-3.492-.288-5.832-1.476-7.164-5.94-1.656-10.584-2.844-14.328-3.564-3.672-.792-6.3-1.044-7.74-.9z"/><path d="m48.114 8.01c-1.872-.072-4.716.324-8.676 1.332-4.032.972-8.82 2.412-14.904 4.464-.288-1.152-.432-2.376-.288-3.672.072-1.332.288-2.736.792-4.212 7.092-1.728 12.24-2.952 15.984-3.672 3.528-.756 3.6-.684 5.76-.756 2.124-.144 4.86-.144 7.092 0 2.052.072 2.16 0 5.76.756 3.564.72 8.929 1.944 15.948 3.672.468 1.476.685 2.88.792 4.212.072 1.296.036 2.52-.252 3.672-6.3-2.052-11.052-3.492-14.939-4.464-3.889-1.008-6.372-1.404-7.849-1.332z" fill="#61a228"/><path d="m48.114 19.566c-2.376.18-5.22.612-8.676 1.296-3.492.576-7.452 1.584-12.024 2.628-.18-.792-.396-1.62-.792-2.628-.396-1.044-.972-2.124-1.584-3.384 7.092-1.728 12.24-2.952 15.984-3.672 3.528-.72 3.6-.756 5.76-.792 2.124-.144 4.86-.144 7.092 0 2.052.036 2.16.072 5.76.792 3.564.72 8.929 1.944 15.948 3.672-.468 1.44-1.116 2.736-1.548 3.888-.612 1.116-1.008 2.088-1.584 2.916-4.356-1.476-8.064-2.664-11.268-3.42-3.168-.828-5.832-1.26-7.849-1.296z" fill="#61a228"/><path d="m48.87 33.174c-4.356.072-8.064-.108-11.52-.54-3.456-.504-6.372-1.152-8.892-2.088-.72-1.512-1.08-2.592-.792-3.384.144-.828.936-1.224 2.088-1.332 1.944.936 4.572 1.584 7.884 2.088 3.24.432 7.164.612 11.772.54h2.088c4.536.072 8.46-.108 11.772-.54 3.239-.504 5.868-1.152 7.884-2.088 1.116.108 1.908.504 2.088 1.332.252.792-.108 1.872-.792 3.384-2.556.936-5.472 1.584-8.892 2.088-3.492.432-7.2.612-11.521.54z" fill="#cbc6d0"/><path d="m46.278 308.861c-9-.863-15.948-1.512-21.24-2.34-5.364-.863-7.236-1.188-10.188-2.375-3.06-1.369-5.508-3.348-7.344-4.969-1.872-1.619-2.88-3.061-3.42-4.463l.54-18.072 2.088-1.045v-7.596l-2.088-4.428c-.684-21.637-1.08-43.309-1.332-65.988-.324-22.752-.36-45.432-.252-69.156l3.132-2.628.54-10.729-3.132-5.508c-.468-2.16-.252-4.644.792-7.596 1.008-2.916 1.908-5.724 5.22-9.936 3.24-4.428 11.016-10.908 14.148-15.984 3.024-5.184 2.988-10.26 3.924-14.652.864-4.464 1.116-8.172 1.044-11.556 1.332.54 4.68.9 10.224 1.08l12.06.432c5.544.18 5.148-.288 10.729-.432 5.508-.18 8.892-.54 10.224-1.08-.108 3.384.144 7.092 1.044 11.556.864 4.392.828 9.468 3.924 14.652 3.024 5.076 10.8 11.556 14.148 15.984 3.239 4.212 4.104 7.02 5.22 9.936 1.008 2.952 1.224 5.436.792 7.596l-3.132 5.508.504 10.728 3.168 2.628c0 23.724 0 46.404-.288 69.156-.288 22.68-.72 44.352-1.296 65.988l-2.088 4.428v7.596l2.088 1.045.54 18.072c-.576 1.402-1.584 2.844-3.42 4.463-1.944 1.621-4.393 3.6-7.344 4.969-2.988 1.188-5.005 1.512-10.225 2.375-5.364.828-12.204 1.477-21.204 2.34h-8.1z" fill="#f1c810"/><path d="m44.694 129.258c-6.156-.036-12.132-.432-18.072-1.044-5.976-.648-11.772-1.656-17.532-2.88v-10.224c6.588.972 12.996 1.8 19.368 2.34 6.372.504 12.42.72 18.576.792h7.344c6.084-.072 12.24-.288 18.612-.792 6.336-.54 12.744-1.368 19.368-2.34v10.224c-5.796 1.224-11.592 2.232-17.532 2.88-5.976.612-11.952 1.008-18.072 1.044z"/><path d="m44.694 281.07c-6.156-.037-12.132-.432-18.072-1.045-5.976-.646-11.772-1.656-17.532-2.879v-10.189c6.588.973 12.996 1.801 19.368 2.342 6.372.504 12.42.719 18.576.791h7.344c6.084-.072 12.24-.287 18.612-.791 6.336-.541 12.744-1.369 19.368-2.342v10.189c-5.796 1.223-11.592 2.232-17.532 2.879-5.976.613-11.952 1.008-18.072 1.045z"/><path d="m34.758 161.621c-7.524 3.781-12.456 8.748-15.336 15.336-2.808 6.518-3.096 16.67-1.548 23.652 1.584 6.949 5.904 13.572 10.44 17.785 4.392 4.104 9.468 6.299 15.624 6.732-7.668-10.801-10.224-17.713-7.668-21.17 2.52-3.527 21.708 4.178 22.716.613.72-3.6-18.216-17.064-17.496-21.781.864-4.752 18.324-3.383 22.104-6.443 3.601-3.168 3.349-7.199-.611-12.24-2.521-2.268-6.012-3.6-10.765-3.996-4.752-.431-10.476.073-17.46 1.512z"/><path d="m69.103 165.006c2.664 1.512 4.968 3.924 7.056 7.381 2.052 3.383 4.392 7.307 5.22 13.176.685 5.795 1.404 15.227-.611 21.492-2.089 6.227-6.12 12.455-11.664 15.623-5.725 3.023-12.96 3.996-22.104 2.771-5.724-8.063-6.768-13.176-2.736-15.336 3.96-2.23 25.02 5.832 26.388 2.125 1.08-3.996-18.504-20.701-19.044-24.84-.468-4.068 13.248 4.283 16.271.611 2.915-3.743 3.275-11.411 1.224-23.003z"/><g fill="#408120"><path d="m36.594 164.105c-7.524 3.385-12.492 8.244-15.048 14.725-2.592 6.443-1.764 17.424-.288 23.904 1.368 6.299 5.904 10.908 8.892 14.111 2.88 3.096 5.976 4.68 8.892 4.607-7.884-9.539-10.548-15.982-7.992-19.332 2.556-3.383 21.888 2.521 23.004-.898.827-3.602-17.856-15.625-17.172-19.945.648-4.248 16.452-3.779 21.167-5.543 4.572-1.908 6.769-3.852 6.444-5.832-1.296-4.248-4.212-6.66-8.892-7.668-4.751-.972-10.907-.396-19.007 1.871z"/><path d="m71.874 171.773c3.24 3.205 5.725 6.732 7.057 11.016 1.296 4.213 1.655 9.109 1.224 14.113-.504 4.896-1.368 10.836-3.708 15.047-2.412 4.178-5.832 7.777-10.404 9.828-4.607 1.945-10.332 2.557-17.172 1.836-5.76-5.902-6.588-9.646-2.484-11.375 4.176-1.836 24.84 4.68 27 1.225 1.872-3.492-14.903-17.93-15.336-21.781-.396-3.924 10.152 1.729 12.601-1.512 2.338-3.455 2.699-9.359 1.222-18.397z"/></g></g><g transform="matrix(.51663058 0 0 .50688758 107.79094 .01969)"><path d="m46.854.018c-1.476-.144-4.104.108-7.74.9-3.78.72-8.424 1.908-14.328 3.564-1.224 1.332-1.764 3.672-1.476 7.164.252 3.42 1.188 7.848 2.952 13.428.936 10.368 1.188 19.332.612 27.432-.612 8.028-1.728 14.796-4.176 20.592-2.628 5.688-7.704 9.432-11.052 13.716-3.384 4.14-7.2 7.416-8.928 11.34-1.764 3.924-2.268 7.776-1.512 11.952l2.7 4.464v8.64l-2.7 2.088c-1.008 2.448-1.404 15.048-1.188 38.231.18 23.293.972 56.197 2.376 100.225l1.8 3.6v6.553l-1.8 1.188v17.82c-.612 4.248-.108 7.633 1.512 10.729 1.584 2.916 4.176 5.398 8.064 7.164 3.816 1.619 9.108 2.195 14.904 2.988 5.76.756 12.096 1.402 19.404 1.799h8.496c7.2-.396 13.607-1.043 19.368-1.799 5.688-.793 10.979-1.369 14.903-2.988 3.816-1.766 6.372-4.248 8.064-7.164 1.548-3.096 2.052-6.48 1.512-10.729v-17.82l-1.8-1.188v-6.553l1.8-3.6c1.368-44.027 2.16-76.932 2.376-100.225.18-23.183-.216-35.783-1.188-38.231l-2.7-2.088v-8.64l2.7-4.464c.72-4.176.216-8.028-1.513-11.952-1.8-3.924-5.651-7.2-8.928-11.34-3.42-4.284-8.532-8.028-11.052-13.716-2.557-5.796-3.672-12.564-4.176-20.592-.612-8.1-.36-17.064.611-27.432 1.729-5.58 2.664-10.008 2.952-13.428.252-3.492-.288-5.832-1.476-7.164-5.94-1.656-10.584-2.844-14.328-3.564-3.672-.792-6.3-1.044-7.74-.9z"/><path d="m48.114 8.01c-1.872-.072-4.716.324-8.676 1.332-4.032.972-8.82 2.412-14.904 4.464-.288-1.152-.432-2.376-.288-3.672.072-1.332.288-2.736.792-4.212 7.092-1.728 12.24-2.952 15.984-3.672 3.528-.756 3.6-.684 5.76-.756 2.124-.144 4.86-.144 7.092 0 2.052.072 2.16 0 5.76.756 3.564.72 8.929 1.944 15.948 3.672.468 1.476.685 2.88.792 4.212.072 1.296.036 2.52-.252 3.672-6.3-2.052-11.052-3.492-14.939-4.464-3.889-1.008-6.372-1.404-7.849-1.332z" fill="#61a228"/><path d="m48.114 19.566c-2.376.18-5.22.612-8.676 1.296-3.492.576-7.452 1.584-12.024 2.628-.18-.792-.396-1.62-.792-2.628-.396-1.044-.972-2.124-1.584-3.384 7.092-1.728 12.24-2.952 15.984-3.672 3.528-.72 3.6-.756 5.76-.792 2.124-.144 4.86-.144 7.092 0 2.052.036 2.16.072 5.76.792 3.564.72 8.929 1.944 15.948 3.672-.468 1.44-1.116 2.736-1.548 3.888-.612 1.116-1.008 2.088-1.584 2.916-4.356-1.476-8.064-2.664-11.268-3.42-3.168-.828-5.832-1.26-7.849-1.296z" fill="#61a228"/><path d="m48.87 33.174c-4.356.072-8.064-.108-11.52-.54-3.456-.504-6.372-1.152-8.892-2.088-.72-1.512-1.08-2.592-.792-3.384.144-.828.936-1.224 2.088-1.332 1.944.936 4.572 1.584 7.884 2.088 3.24.432 7.164.612 11.772.54h2.088c4.536.072 8.46-.108 11.772-.54 3.239-.504 5.868-1.152 7.884-2.088 1.116.108 1.908.504 2.088 1.332.252.792-.108 1.872-.792 3.384-2.556.936-5.472 1.584-8.892 2.088-3.492.432-7.2.612-11.521.54z" fill="#cbc6d0"/><path d="m46.278 308.861c-9-.863-15.948-1.512-21.24-2.34-5.364-.863-7.236-1.188-10.188-2.375-3.06-1.369-5.508-3.348-7.344-4.969-1.872-1.619-2.88-3.061-3.42-4.463l.54-18.072 2.088-1.045v-7.596l-2.088-4.428c-.684-21.637-1.08-43.309-1.332-65.988-.324-22.752-.36-45.432-.252-69.156l3.132-2.628.54-10.729-3.132-5.508c-.468-2.16-.252-4.644.792-7.596 1.008-2.916 1.908-5.724 5.22-9.936 3.24-4.428 11.016-10.908 14.148-15.984 3.024-5.184 2.988-10.26 3.924-14.652.864-4.464 1.116-8.172 1.044-11.556 1.332.54 4.68.9 10.224 1.08l12.06.432c5.544.18 5.148-.288 10.729-.432 5.508-.18 8.892-.54 10.224-1.08-.108 3.384.144 7.092 1.044 11.556.864 4.392.828 9.468 3.924 14.652 3.024 5.076 10.8 11.556 14.148 15.984 3.239 4.212 4.104 7.02 5.22 9.936 1.008 2.952 1.224 5.436.792 7.596l-3.132 5.508.504 10.728 3.168 2.628c0 23.724 0 46.404-.288 69.156-.288 22.68-.72 44.352-1.296 65.988l-2.088 4.428v7.596l2.088 1.045.54 18.072c-.576 1.402-1.584 2.844-3.42 4.463-1.944 1.621-4.393 3.6-7.344 4.969-2.988 1.188-5.005 1.512-10.225 2.375-5.364.828-12.204 1.477-21.204 2.34h-8.1z" fill="#f1c810"/><path d="m44.694 129.258c-6.156-.036-12.132-.432-18.072-1.044-5.976-.648-11.772-1.656-17.532-2.88v-10.224c6.588.972 12.996 1.8 19.368 2.34 6.372.504 12.42.72 18.576.792h7.344c6.084-.072 12.24-.288 18.612-.792 6.336-.54 12.744-1.368 19.368-2.34v10.224c-5.796 1.224-11.592 2.232-17.532 2.88-5.976.612-11.952 1.008-18.072 1.044z"/><path d="m44.694 281.07c-6.156-.037-12.132-.432-18.072-1.045-5.976-.646-11.772-1.656-17.532-2.879v-10.189c6.588.973 12.996 1.801 19.368 2.342 6.372.504 12.42.719 18.576.791h7.344c6.084-.072 12.24-.287 18.612-.791 6.336-.541 12.744-1.369 19.368-2.342v10.189c-5.796 1.223-11.592 2.232-17.532 2.879-5.976.613-11.952 1.008-18.072 1.045z"/><path d="m34.758 161.621c-7.524 3.781-12.456 8.748-15.336 15.336-2.808 6.518-3.096 16.67-1.548 23.652 1.584 6.949 5.904 13.572 10.44 17.785 4.392 4.104 9.468 6.299 15.624 6.732-7.668-10.801-10.224-17.713-7.668-21.17 2.52-3.527 21.708 4.178 22.716.613.72-3.6-18.216-17.064-17.496-21.781.864-4.752 18.324-3.383 22.104-6.443 3.601-3.168 3.349-7.199-.611-12.24-2.521-2.268-6.012-3.6-10.765-3.996-4.752-.431-10.476.073-17.46 1.512z"/><path d="m69.103 165.006c2.664 1.512 4.968 3.924 7.056 7.381 2.052 3.383 4.392 7.307 5.22 13.176.685 5.795 1.404 15.227-.611 21.492-2.089 6.227-6.12 12.455-11.664 15.623-5.725 3.023-12.96 3.996-22.104 2.771-5.724-8.063-6.768-13.176-2.736-15.336 3.96-2.23 25.02 5.832 26.388 2.125 1.08-3.996-18.504-20.701-19.044-24.84-.468-4.068 13.248 4.283 16.271.611 2.915-3.743 3.275-11.411 1.224-23.003z"/><g fill="#408120"><path d="m36.594 164.105c-7.524 3.385-12.492 8.244-15.048 14.725-2.592 6.443-1.764 17.424-.288 23.904 1.368 6.299 5.904 10.908 8.892 14.111 2.88 3.096 5.976 4.68 8.892 4.607-7.884-9.539-10.548-15.982-7.992-19.332 2.556-3.383 21.888 2.521 23.004-.898.827-3.602-17.856-15.625-17.172-19.945.648-4.248 16.452-3.779 21.167-5.543 4.572-1.908 6.769-3.852 6.444-5.832-1.296-4.248-4.212-6.66-8.892-7.668-4.751-.972-10.907-.396-19.007 1.871z"/><path d="m71.874 171.773c3.24 3.205 5.725 6.732 7.057 11.016 1.296 4.213 1.655 9.109 1.224 14.113-.504 4.896-1.368 10.836-3.708 15.047-2.412 4.178-5.832 7.777-10.404 9.828-4.607 1.945-10.332 2.557-17.172 1.836-5.76-5.902-6.588-9.646-2.484-11.375 4.176-1.836 24.84 4.68 27 1.225 1.872-3.492-14.903-17.93-15.336-21.781-.396-3.924 10.152 1.729 12.601-1.512 2.338-3.455 2.699-9.359 1.222-18.397z"/></g></g></g></svg>