<svg height="10.584001" width="16" xmlns="http://www.w3.org/2000/svg"><path d="m.583919.583919h14.832162v9.416163h-14.832162z" fill="#fff" stroke="#fff" stroke-dashoffset=".6" stroke-linecap="square" stroke-width="1.167838"/><circle cx="-12.295294" cy="6.879695" fill="none" r="2.405474" stroke="#000" stroke-width=".597633" transform="scale(-1 1)"/><circle cx="-3.704291" cy="6.834896" fill="none" r="2.405474" stroke="#000" stroke-width=".597633" transform="scale(-1 1)"/><path d="m9.0907025.99998996c1.9806605.01930004 1.6447605-.20463 2.7103705 3.22001004.8681 2.73628.77355 2.43788.77809 2.62982.003.14911-.11719.26733-.26845.27745-.31455-.0318-.18224.034-1.27281-3.35256-3.9849105 4.20368-2.4898705 3.52202-4.6344005 3.60739-2.81847-.027-3.04755.14671-3.08101-.26641.004-.14028.0695-.22393 2.00381-4.52886l-.18532-.50964-.63705-.0116.0232-.5328h2.37447c.20978.28699-.0849.2857-1.14669.52122l.18532.52123 4.7373505.0116c-.31917-1.11452-.13899-1.04502-1.5752505-1.04245l-.0116-.54439004zm1.7237305 2.15810004-4.6355905-.008 1.33972 3.59998 3.2958705-3.59176zm-5.1944905.2137 1.31506 3.45203-2.8767.008 1.56164-3.46025z" fill-rule="evenodd"/></svg>