<svg viewBox="0 0 110 115" xmlns="http://www.w3.org/2000/svg" xmlns:xlink="http://www.w3.org/1999/xlink"><linearGradient id="a"><stop offset="0" stop-color="#bfbfbf"/><stop offset="1" stop-color="#f0f0f0"/></linearGradient><linearGradient id="b"><stop offset="0" stop-color="#5e411f"/><stop offset="1" stop-color="#be843f"/></linearGradient><linearGradient id="c" gradientUnits="userSpaceOnUse" x1="82.629" x2="87.409" y1="62.379" y2="34.903"><stop offset="0" stop-color="#fffe7f"/><stop offset="1" stop-color="#ffffbf"/></linearGradient><linearGradient id="d" gradientUnits="userSpaceOnUse" x1="26.595" x2="107.062" xlink:href="#b" y1="65.095" y2="117.671"/><linearGradient id="e" gradientUnits="userSpaceOnUse" x1="110.922" x2="117.512" xlink:href="#a" y1="84.031" y2="86.021"/><linearGradient id="f" gradientUnits="userSpaceOnUse" x1="85.272" x2="84.142" xlink:href="#a" y1="114.451" y2="125.531"/><linearGradient id="g" gradientUnits="userSpaceOnUse" x1="59.661" x2="112.442" xlink:href="#b" y1="60.305" y2="132.501"/><linearGradient id="h" gradientUnits="userSpaceOnUse" x1="37.548" x2="40.71" xlink:href="#b" y1="75.522" y2="76.419"/><g fill-rule="evenodd" stroke="#000" transform="translate(-22.269 -20.463)"><path d="m55.76 23.935c-2.053-.205-2.916 3.207-4.162 6.355l-25.938 83.93 5.341 3.14z" fill="url(#h)"/><path d="m29.901 109.39c-4.816-.41-6.508 12.96-2.998 13.72l85.247 8.89 17.35-88.172-14.43-1.967-13.25 68.909z" fill="url(#g)"/><path d="m104.31 114.26-72.679-6.17c-3.682.01-6.16 12.41-3.277 12.99l81.346 7.73" fill="url(#f)"/><path d="m126.03 45.556-16.88 83.004c-4.03-1.55-6.76-10.51-4.2-14.17l16.6-83.31c-1.24 3.888 1.31 13.362 4.48 14.476z" fill="url(#e)"/><path d="m107.32 117.17-77.623-7.78 26.009-85.404 69.014 4.916z" fill="url(#d)"/><path d="m64.316 33.137 43.664 3.255-5.69 28.898-44.558-4.117z" fill="url(#c)"/></g></svg>