<svg height="16" viewBox="0 0 16 16" width="16" xmlns="http://www.w3.org/2000/svg" xmlns:xlink="http://www.w3.org/1999/xlink"><linearGradient id="a" gradientUnits="userSpaceOnUse" x1="3" x2="17" y1="1049.3622" y2="1034.3622"><stop offset="0" stop-color="#f94eaa"/><stop offset="1" stop-color="#fcb2da"/></linearGradient><g transform="translate(0 -1036.3622)"><rect fill="url(#a)" fill-rule="evenodd" height="14.812368" ry="2.406145" stroke="#d31b7b" stroke-linecap="round" stroke-width="1.187632" width="14.812368" x=".593816" y="1036.9561"/><path d="m12.372466 1040.8348c-.263621-.1223-.567256-.2118-.910905-.2683-.343649-.061-.724959-.092-1.143929-.092-.7390808 0-1.5205295.12-2.344346.3601s-1.5605439.5626-2.210182.9674c-.5319501.3343-.9626885.7132-1.2922151 1.1369-.3248191.419-.4872286.7933-.4872286 1.1228 0 .2777.089443.5013.2683288.6708.1835934.1695.4307383.2542.7414348.2542.4895824 0 1.02624-.2024 1.6099729-.6073.5884404-.4095 1.0309476-.8968 1.3275215-1.4617.1176881-.2307.2024235-.4731.2542062-.7273.051783-.2589.1012117-.3884.148287-.3884.061198 0 .1035657.038.1271031.113.023538.071.035307.226.035307.4661 0 .8567-.2918664 1.584-.8755993 2.1819s-1.2804463.8968-2.0901402.8968c-.5319501 0-.9650423-.1342-1.2992764-.4025-.3295266-.2731-.4942899-.6214-.4942899-1.0451 0-.3907.1624095-.8003.4872286-1.2286.3295267-.4284.7885102-.8238 1.3769505-1.1863.6778833-.419 1.4405021-.7438 2.2878562-.9745.8473541-.2354 1.6900004-.3531 2.5279389-.3531.423677 0 .816756.038 1.179235.113.367187.075.727312.1907 1.080376.346.258914-.066.473106-.1178.642577-.1553.169471-.037.277744-.056.324819-.056.05178 0 .08944.01.112981.021.02825.014.04237.035.04237.063 0 .071-.117688.1295-.353065.1766-.164763.028-.301281.056-.409554.085.390725.1695.692006.3954.903844.6779.216546.2777.324819.5814.324819.9109 0 .5178-.242437.9815-.727312 1.3911-.484875.4095-1.172173.7273-2.061895.9532.517827.1507.903844.379 1.158051.685.258913.3013.38837.6849.38837 1.151 0 .6779-.334234 1.3134-1.002702 1.9065-.668468.5885-1.386365.8827-2.1536912.8827-.3860169 0-.6849447-.08-.8967832-.2401s-.3177578-.3884-.3177578-.685c0-.3483.1741784-.699.5225351-1.0521.3483567-.3577.6143317-.5366.7979251-.5366.032953 0 .061198.01.084735.028.02825.019.04237.042.04237.071 0 .037-.08474.1127-.2542066.226-.6025629.4048-.9038444.5576-.9038444.986 0 .1883.073483.3086.1553482.4519.1035655.113.2554281.2197.4248989.2197.2165461 0 .4071107-.1105.6637599-.2683.2474-.1521.456019-.3109.682501-.5878.273037-.4048.493159-.8015.629677-1.1687s.204777-.7156.204777-1.0451c0-.2448-.05178-.4519-.155348-.6214-.103565-.1741-.228315-.2612-.374248-.2612-.04237 0-.124748.012-.247145.035-.122395.019-.228315.028-.317758.028-.09415 0-.171825-.021-.233022-.063-.05649-.043-.08474-.094-.08474-.1554 0-.057.02354-.1014.07061-.1342.04707-.037.110625-.056.190655-.056.01883 0 .103569.014.254206.042.150641.023.291866.035.423677.035.367187 0 .755557-.2966 1.165112-.8897.409555-.5979.614332-1.2193.614332-1.8642 0-.1977-.03531-.3766-.105919-.5366-.06591-.1648-.162411-.3037-.289513-.4167-.856769.3013-1.621742 1.3088-2.294918 3.0223-.197715.5131-.357771.9039-.4801669 1.1722-.6308081 1.4263-1.381658 2.4737-2.2525497 3.1422-.8661843.6638-1.9136081.9957-3.1422716.9957-.6967134 0-1.2569087-.1483-1.6805858-.4449-.4189695-.3013-.6284543-.6991-.6284543-1.1934 0-.3577.1200418-.6614.3601255-.9109s.5343039-.3742.8826606-.3742c.2494987 0 .454276.068.6143317.2048.1600558.1318.2400837.3013.2400837.5084 0 .1883-.054137.3483-.1624095.4801-.1035655.1319-.2259611.2025-.3671868.2119h-.035306c-.5884404.047-.8826606.2003-.8826606.459 0 .2259.1506407.4213.4519222.5861.3012815.16.670822.24 1.1086217.24.4001395 0 .760265-.085 1.0803765-.2542.3248191-.1741.6402231-.4495.9462121-.8261.3106965-.3907.7084822-1.0239 1.1933571-1.8995s.828524-1.4782 1.0309475-1.8077c.5743179-.918 1.1933571-1.6783 1.8571176-2.2808.663761-.6073 1.303984-.9933 1.920669-1.1581z" transform="matrix(1.0286235 0 0 1.1000318 -.282042 -104.97547)"/></g></svg>