<svg height="14" viewBox="0 0 14 14" width="14" xmlns="http://www.w3.org/2000/svg"><path d="m12 0c-1.108 0-2 .892-2 2v10c0 1.108.892 2 2 2s2-.892 2-2v-10c0-1.108-.892-2-2-2zm-12 2v1h1v1.1992188h-1v1h1v1.2011718h-1v1h1v1.1992188h-1v1h1v1.2011716h-1v1h1v1.199219h-1v1h9v-12zm2 1 2 1 2-1 2 1v1l-2-1-2 1-2-1zm0 2.6660156 2 1 2-1 2 1v1l-2-1-2 1-2-1zm0 2.6679688 2 1 2-1 2 1v.9999996l-2-.9999996-2 .9999996-2-.9999996zm0 2.6660156 2 1 2-1 2 1v1l-2-1-2 1-2-1zm10 0c.552285 0 1 .447715 1 1s-.447715 1-1 1-1-.447715-1-1 .447715-1 1-1z" fill="#ac39ac"/></svg>