<svg height="14" viewBox="0 0 14 14" width="14" xmlns="http://www.w3.org/2000/svg"><path d="m2 5h10v8h-10z" fill="#fff" stroke-dashoffset="1.08" stroke-linecap="round" stroke-linejoin="round" stroke-width="2"/><path d="m0 0h14v14h-14z" fill="none" visibility="hidden"/><path d="m5 0c-1 0-1 0-1 1l.0097656 3h-3.0097656v9c0 1 0 1 1 1h10c1 0 1 0 1-1v-9h-2.960938l-.039062-3c0-1 0-1-1-1zm0 1h4v3h-4zm.1777344 4.4980469c.51708-.00286.6255224.05751.9296875.2246093.370221.2033884.7513073.9588036.8300781 1.2675782l.0488281.1914062.1191407-.2636718c.7319538-1.6023792 2.839853-2.0489579 3.5957032-.2832032.209419.4892278.266583 1.4905837.054687 2.0625-.276411.7460437-.7959586 1.3159184-1.9960934 2.1875004-.7870692.5716-1.6782245 1.435172-1.7402344 1.55664-.071983.141003-.0043486.022273-.3222656-.333984-.1676217-.187837-.5857564-.55277-.9296875-.8125-1.0190409-.769559-1.1565607-.880735-1.5703125-1.261719-.7627773-.7023688-1.0870476-1.408429-1.0859375-2.3652342.0005417-.4670744.0313086-.6465588.1621094-.921875.2219134-.4670969.5488687-.8150616.9667969-1.0273438.2960039-.1503515.4431934-.2179703.9375-.2207031z" fill="#ac39ac"/></svg>