<svg height="495.0741" width="632.17804" xmlns="http://www.w3.org/2000/svg" xmlns:xlink="http://www.w3.org/1999/xlink"><linearGradient id="a"><stop offset="0" stop-color="#848484"/><stop offset="1" stop-color="#fcfcfc"/></linearGradient><linearGradient id="b"><stop offset="0" stop-color="#fff"/><stop offset="1" stop-color="#fff" stop-opacity="0"/></linearGradient><linearGradient id="c"><stop offset="0" stop-opacity="0"/><stop offset=".5" stop-opacity="0"/><stop offset="1"/></linearGradient><linearGradient id="d"><stop offset="0" stop-color="#b8b8b8"/><stop offset="1" stop-color="#f1f1f1"/></linearGradient><linearGradient id="e"><stop offset="0"/><stop offset="1" stop-opacity="0"/></linearGradient><linearGradient id="f"><stop offset="0" stop-color="#ddd"/><stop offset="1" stop-color="#fff"/></linearGradient><linearGradient id="g"><stop offset="0" stop-color="#30b74b"/><stop offset="1" stop-color="#f2f2f2"/></linearGradient><linearGradient id="h"><stop offset="0" stop-color="#c3c3c3"/><stop offset="1" stop-color="#f2f2f2"/></linearGradient><linearGradient id="i" gradientTransform="matrix(.50658 0 0 .564163 320.8861 129.3425)" gradientUnits="userSpaceOnUse" x1="549.95361" x2="527.01196" y1="400.7225" y2="377.80753"><stop offset="0" stop-color="#305cb7"/><stop offset="1" stop-color="#f2f2f2"/></linearGradient><linearGradient id="j" gradientTransform="matrix(.50658 0 0 .564163 336.5016 101.8363)" gradientUnits="userSpaceOnUse" x1="549.95361" x2="527.01196" y1="400.7225" y2="377.80753"><stop offset="0" stop-color="#9fa4af"/><stop offset="1" stop-color="#f2f2f2"/></linearGradient><linearGradient id="k" gradientTransform="matrix(.50658 0 0 .564163 387.4581 77.02887)" gradientUnits="userSpaceOnUse" x1="549.95361" x2="527.01196" xlink:href="#g" y1="400.7225" y2="377.80753"/><linearGradient id="l" gradientTransform="matrix(.50658 0 0 .564163 345.7606 77.02887)" gradientUnits="userSpaceOnUse" x1="549.95361" x2="527.01196" y1="400.7225" y2="377.80753"><stop offset="0" stop-color="#d22235"/><stop offset="1" stop-color="#f1f1f1"/></linearGradient><radialGradient id="m" cx="212.32999" cy="392.48157" gradientTransform="matrix(1.151244 0 0 1.185109 -309.5196 -146.9647)" gradientUnits="userSpaceOnUse" r="12.38848" xlink:href="#e"/><radialGradient id="n" cx="212.32999" cy="392.48157" gradientTransform="matrix(1.151244 0 0 1.185109 -426.4725 -147.8079)" gradientUnits="userSpaceOnUse" r="12.38848" xlink:href="#e"/><linearGradient id="o" gradientTransform="matrix(4.058024 0 0 1.221794 -425.4907 -181.4881)" gradientUnits="userSpaceOnUse" x1="218.48817" x2="263.56339" xlink:href="#h" y1="531.83948" y2="576.43158"/><radialGradient id="p" cx="262" cy="424" gradientTransform="matrix(1 0 0 .252033 -585.6819 262.4441)" gradientUnits="userSpaceOnUse" r="246" xlink:href="#e"/><radialGradient id="q" cx="262" cy="424" gradientTransform="matrix(1 0 0 .252033 -748.7828 255.8277)" gradientUnits="userSpaceOnUse" r="246" xlink:href="#e"/><radialGradient id="r" cx="262" cy="424" gradientTransform="matrix(1 0 0 .252033 -462.1398 251.437)" gradientUnits="userSpaceOnUse" r="246" xlink:href="#e"/><radialGradient id="s" cx="291.23904" cy="771.20361" fx="291.23898" fy="771.20557" gradientTransform="matrix(.39013 .01218688 -.00969218 .726456 -796.5437 -43.69586)" gradientUnits="userSpaceOnUse" r="315.71429" spreadMethod="reflect" xlink:href="#d"/><radialGradient id="t" cx="391.96954" cy="884.11536" gradientTransform="matrix(-.00149894 .938851 -.914363 .04426339 131.5313 89.49414)" gradientUnits="userSpaceOnUse" r="315.71429" spreadMethod="reflect" xlink:href="#c"/><radialGradient id="u" cx="389.17291" cy="543.08972" fy="403.90533" gradientTransform="matrix(.742761 -.00000123 .00000061 .367138 -1001.226 197.2049)" gradientUnits="userSpaceOnUse" r="315.71429" spreadMethod="reflect" xlink:href="#d"/><linearGradient id="v" gradientUnits="userSpaceOnUse" spreadMethod="reflect" x1="-714.18913" x2="-714.18913" xlink:href="#b" y1="232.4868" y2="379.52996"/><radialGradient id="w" cx="384.29688" cy="557.6026" fy="506.29785" gradientTransform="matrix(.25576 0 0 .409576 -181.8235 110.5778)" gradientUnits="userSpaceOnUse" r="102.42188"><stop offset="0" stop-color="#6c6c6c"/><stop offset="1" stop-color="#6c6c6c" stop-opacity="0"/></radialGradient><radialGradient id="x" cx="262" cy="424" gradientTransform="matrix(1 0 0 .252033 -1283.668 91.05558)" gradientUnits="userSpaceOnUse" r="246" xlink:href="#e"/><linearGradient id="y" gradientTransform="matrix(.240904 0 0 .314882 -176.1141 163.3797)" gradientUnits="userSpaceOnUse" spreadMethod="reflect" x1="281.875" x2="398.8616" xlink:href="#d" y1="412.14062" y2="412.14062"/><linearGradient id="z" gradientTransform="matrix(.240904 0 0 .314882 -176.1141 163.3797)" gradientUnits="userSpaceOnUse" spreadMethod="reflect" x1="261.875" x2="350.15021" y1="412.14062" y2="412.14062"><stop offset="0" stop-color="#c6c6c6"/><stop offset=".13500696" stop-color="#696969"/><stop offset=".64723927" stop-color="#f9f9f9"/><stop offset="1" stop-color="#bcbcbc"/></linearGradient><radialGradient id="A" cx="265.16888" cy="405.72955" fx="265.16885" fy="399.27518" gradientTransform="matrix(.819405 0 0 3.674938 -300.8167 -1153.399)" gradientUnits="userSpaceOnUse" r="37.271915" xlink:href="#c"/><radialGradient id="B" cx="264.20367" cy="410.05835" fy="391.52805" gradientTransform="matrix(1.496663 -.00000046 0 1.740426 -478.9599 -363.2356)" gradientUnits="userSpaceOnUse" r="37.271915" xlink:href="#c"/><linearGradient id="C" gradientUnits="userSpaceOnUse" spreadMethod="reflect" x1="-1115.09031" x2="-1058.85215" xlink:href="#b" y1="345.18087" y2="303.53716"/><linearGradient id="D" gradientTransform="matrix(.873211 0 0 .923109 -45.57889 108.0836)" gradientUnits="userSpaceOnUse" spreadMethod="reflect" x1="76.308434" x2="274.80588" xlink:href="#d" y1="182.07208" y2="182.07208"/><radialGradient id="E" cx="138.17368" cy="775.61066" gradientTransform="matrix(1.928704 -.263623 .06956707 .508974 -61.61566 71.2933)" gradientUnits="userSpaceOnUse" r="237.48875"><stop offset="0" stop-color="#8bb7df"/><stop offset=".625" stop-color="#195d9c"/><stop offset="1" stop-color="#375e82"/></radialGradient><radialGradient id="F" cx="264.7041" cy="213.93657" gradientTransform="matrix(.469503 0 0 .356779 70.10503 192.3301)" gradientUnits="userSpaceOnUse" r="166.14122" spreadMethod="reflect" xlink:href="#d"/><radialGradient id="G" cx="415.09686" cy="333.86954" fx="415.09689" gradientTransform="matrix(0 -.660027 .618809 0 -89.98021 581.1104)" gradientUnits="userSpaceOnUse" r="5.95" spreadMethod="reflect" xlink:href="#a"/><linearGradient id="H" gradientUnits="userSpaceOnUse" spreadMethod="pad" x1="118.40675" x2="122.47404" xlink:href="#a" y1="309.83199" y2="316.75502"/><linearGradient id="I" gradientUnits="userSpaceOnUse" x1="95.0646" x2="95.0646" xlink:href="#b" y1="305.19976" y2="310.75628"/><radialGradient id="J" cx="415.09686" cy="333.86954" fx="415.09689" gradientTransform="matrix(0 -.660027 .618809 0 -277.1668 555.409)" gradientUnits="userSpaceOnUse" r="5.95" spreadMethod="reflect" xlink:href="#a"/><linearGradient id="K" gradientUnits="userSpaceOnUse" spreadMethod="pad" x1="-68.77995" x2="-64.71266" xlink:href="#a" y1="284.13055" y2="291.05358"/><linearGradient id="L" gradientUnits="userSpaceOnUse" x1="-110.1936" x2="-110.1936" xlink:href="#b" y1="277.01699" y2="282.57351"/><linearGradient id="M" gradientUnits="userSpaceOnUse" x1="-114.6936" x2="-105.6936" xlink:href="#g" y1="281.51699" y2="281.51699"/><radialGradient id="N" cx="219.30873" cy="77.963234" gradientTransform="matrix(2.665527 0 0 1.3098 -812.4959 -103.7983)" gradientUnits="userSpaceOnUse" r="164.14062" xlink:href="#b"/><linearGradient id="O" gradientTransform="matrix(2.036713 0 0 .49099 .00009 -.00102)" gradientUnits="userSpaceOnUse" x1="153.74297" x2="154.7247" xlink:href="#f" y1="600.22687" y2="680.078"/><linearGradient id="P" gradientTransform="matrix(2.036713 0 0 .49099 .00008 -.00102)" gradientUnits="userSpaceOnUse" x1="153.74297" x2="154.7247" xlink:href="#f" y1="600.22687" y2="680.078"/><linearGradient id="Q" gradientTransform="matrix(2.036709 0 0 .490989 .00002 .00002)" gradientUnits="userSpaceOnUse" x1="153.74297" x2="154.7247" xlink:href="#f" y1="600.22687" y2="680.078"/><linearGradient id="R" gradientTransform="matrix(2.036709 0 0 .490989 .00002 .00003)" gradientUnits="userSpaceOnUse" x1="153.74297" x2="154.7247" xlink:href="#f" y1="600.22687" y2="680.078"/><linearGradient id="S" gradientTransform="matrix(1.041781 0 0 1.788372 -126.4685 41.13549)" gradientUnits="userSpaceOnUse" x1="499.56372" x2="607.30701" xlink:href="#h" y1="113.22289" y2="226.30154"/><g transform="translate(-194.34501 -114.6196)"><g fill-rule="evenodd"><rect fill="url(#S)" height="228.46658" rx="4.251966" ry="4.251971" stroke="#c1c1c1" stroke-width="5.822432" width="226.40434" x="197.25623" y="269.69244"/><rect fill="url(#R)" height="40.430416" rx="4.251966" ry="4.251971" stroke="#c1c1c1" stroke-width="7.809649" width="212.26678" x="206.11215" y="289.9342"/><rect fill="#ababab" height="5.440901" rx=".708661" ry=".708662" width="183.46681" x="218.5329" y="478.04794"/><rect fill="#ababab" height="5.440901" rx=".708661" ry=".708662" width="183.46681" x="218.5329" y="487.80948"/><g stroke="#c1c1c1"><rect fill="url(#Q)" height="40.430408" rx="4.251966" ry="4.251972" stroke-width="7.809649" width="212.2668" x="204.77103" y="344.73972"/><rect fill="url(#P)" height="7.850479" rx="4.251966" ry="4.251972" stroke-width="1.085761" width="21.130013" x="198.8456" y="460.59012"/><rect fill="url(#O)" height="7.850479" rx="4.251966" ry="4.251972" stroke-width="1.085761" width="21.130013" x="199.51608" y="473.65097"/></g><path d="m549.06935 389.3613a10.491771 10.491771 0 1 1 -20.98355 0 10.491771 10.491771 0 1 1 20.98355 0z" fill="#0f0" stroke="#9c9c9c" stroke-width="3.664493" transform="matrix(.306764 0 0 .26995 76.37752 379.8462)"/><path d="m549.06935 389.3613a10.491771 10.491771 0 1 1 -20.98355 0 10.491771 10.491771 0 1 1 20.98355 0z" fill="#ffe100" stroke="#9c9c9c" stroke-width="3.664493" transform="matrix(.306764 0 0 .26995 88.43595 380.0984)"/></g><g><g fill-rule="evenodd"><path d="m549.06935 389.3613a10.491771 10.491771 0 1 1 -20.98355 0 10.491771 10.491771 0 1 1 20.98355 0z" fill="url(#i)" stroke="#9c9c9c" stroke-width="3.664493" transform="matrix(1.446315 0 0 1.271037 -407.6848 -71.55259)"/><path d="m549.06935 389.3613a10.491771 10.491771 0 1 1 -20.98355 0 10.491771 10.491771 0 1 1 20.98355 0z" fill="url(#j)" stroke="#9c9c9c" stroke-width="3.664493" transform="matrix(1.126517 0 0 .991321 -235.3613 74.02029)"/><path d="m549.06935 389.3613a10.491771 10.491771 0 1 1 -20.98355 0 10.491771 10.491771 0 1 1 20.98355 0z" fill="url(#k)" stroke="#9c9c9c" stroke-width="3.664493" transform="matrix(.788639 0 0 .692658 -86.38143 183.2308)"/><path d="m549.06935 389.3613a10.491771 10.491771 0 1 1 -20.98355 0 10.491771 10.491771 0 1 1 20.98355 0z" fill="url(#l)" stroke="#9c9c9c" stroke-width="3.664493" transform="matrix(.788639 0 0 .692658 -19.73543 183.2308)"/></g><path d="m228.48746 385.16458a12.123824 11.657523 0 1 1 -24.24765 0 12.123824 11.657523 0 1 1 24.24765 0z" fill="#d67ac9" opacity=".800971" transform="matrix(1.09075 0 0 1.020442 135.1562 31.14919)"/><path d="m228.48746 385.16458a12.123824 11.657523 0 1 1 -24.24765 0 12.123824 11.657523 0 1 1 24.24765 0z" fill="#17f076" opacity=".912621" stroke="url(#m)" transform="matrix(.571649 0 0 .534802 214.7457 246.6228)"/><path d="m228.48746 385.16458a12.123824 11.657523 0 1 1 -24.24765 0 12.123824 11.657523 0 1 1 24.24765 0z" fill="#17e8f0" opacity=".912621" stroke="url(#n)" transform="matrix(.571649 0 0 .534802 281.6016 247.0738)"/><rect fill="#53507d" fill-rule="evenodd" height="7.850479" rx="4.251966" ry="4.251972" stroke="#c1c1c1" stroke-width="1.085761" width="21.130013" x="383.68591" y="316.18457"/><rect fill="#53507d" fill-rule="evenodd" height="7.850479" rx="4.251966" ry="4.251972" stroke="#c1c1c1" stroke-width="1.085761" width="21.130013" x="384.9165" y="372.79108"/><g fill-rule="evenodd" transform="translate(61.61566 -71.2933)"><path d="m508 424a246 62 0 1 1 -492 0 246 62 0 1 1 492 0z" fill="url(#p)" opacity=".3" transform="matrix(.602645 0 0 .886066 389.4498 131.8566)"/><path d="m508 424a246 62 0 1 1 -492 0 246 62 0 1 1 492 0z" fill="url(#q)" opacity=".4" transform="matrix(.471376 0 0 .790447 423.8423 185.4413)"/><path d="m508 424a246 62 0 1 1 -492 0 246 62 0 1 1 492 0z" fill="url(#r)" opacity=".3" transform="matrix(.763748 0 0 .737622 347.2408 198.354)"/><path d="m700 543.79077a315.71429 151.42857 0 1 1 -631.428589 0 315.71429 151.42857 0 1 1 631.428589 0z" fill="url(#s)" transform="matrix(.32833416449 0 .00438051877 .23034154 418.7869297606 388.579648464)"/><path d="m700 543.79077a315.71429 151.42857 0 1 1 -631.428589 0 315.71429 151.42857 0 1 1 631.428589 0z" fill="url(#t)" opacity=".495455" transform="matrix(.32833416449 0 .00438051877 .23034154 418.7869297606 388.579648464)"/><path d="m700 543.79077a315.71429 151.42857 0 1 1 -631.428589 0 315.71429 151.42857 0 1 1 631.428589 0z" fill="url(#u)" transform="matrix(.32014050169 0 0 .20171705039 424.3179474586 400.6812572976)"/><path d="m147.375 456.5c-7.01873 4.02461-13.70245 8.1686-19.71875 12.5-31.547684 22.71257-48.125 48.42035-48.125 74.78125 0 35.6128 31.09425 70.71608 86.28125 97.1875s132.75381 43.28124 218.46875 43.28125c85.71494 0 163.28175-16.80983 218.46875-43.28125s86.28125-61.5747 86.28125-97.1875c0-26.35061-16.56844-52.04426-48.09375-74.75-6.0325-4.34483-12.74022-8.495-19.78125-12.53125 9.86731 13.01407 15.6875 27.49684 15.6875 43 0 18.54255-8.3288 35.88457-21.90625 50.625s-32.4572 27.3253-55.28125 37.8125c-45.64809 20.9744-107.33067 33.53125-175.375 33.53125-68.04433-.00001-129.72691-12.55685-175.375-33.53125-22.82405-10.4872-41.7038-23.07207-55.28125-37.8125s-21.90625-32.08245-21.90625-50.625c0-15.4976 5.7938-29.99027 15.65625-43z" fill="url(#v)" transform="matrix(.32014050169 0 0 .20171705039 424.3179474586 400.6812572976)"/><g transform="matrix(1.039518 0 0 1 281.22604 123.755939)"><path d="m241.28295 426.93409-9.63613-59.48318c-.1895-.84629-.31619-1.7054-.31619-2.58795 0-9.35836 11.05005-16.95441 24.66998-16.95441 13.61994 0 24.67751 7.59605 24.67751 16.95441 0 .61918-.05626 1.22821-.15057 1.83026l-9.63613 60.24087h-29.60847z" fill="url(#w)" opacity=".831818"/><path d="m508 424a246 62 0 1 1 -492 0 246 62 0 1 1 492 0z" fill="url(#x)" opacity=".2" transform="matrix(.264508 0 0 .214358 186.7029 279.178)"/><path d="m241.28295 302.10518-9.63613 59.48319c-.1895.84629-.31619 1.70538-.31619 2.58793 0 9.35837 11.05005 16.95445 24.66998 16.95443 13.61994 0 24.67751-7.59606 24.67751-16.95443 0-.61916-.05626-1.22821-.15057-1.83025l-9.63613-60.24087h-29.60847z" fill="url(#y)"/><path d="m241.28295 302.10518-9.63613 59.48319c-.1895.84629-.31619 1.70538-.31619 2.58793 0 9.35837 11.05005 16.95445 24.66998 16.95443 13.61994 0 24.67751-7.59606 24.67751-16.95443 0-.61916-.05626-1.22821-.15057-1.83025l-9.63613-60.24087h-29.60847z" fill="url(#z)" opacity=".327273"/><path d="m241.28295 302.10518-9.63613 59.48319c-.1895.84629-.31619 1.70538-.31619 2.58793 0 9.35837 11.05005 16.95445 24.66998 16.95443 13.61994 0 24.67751-7.59606 24.67751-16.95443 0-.61916-.05626-1.22821-.15057-1.83025l-9.63613-60.24087h-29.60847z" fill="url(#A)" opacity=".5"/><path d="m241.28295 302.10518-9.63613 59.48319c-.1895.84629-.31619 1.70538-.31619 2.58793 0 9.35837 11.05005 16.95445 24.66998 16.95443 13.61994 0 24.67751-7.59606 24.67751-16.95443 0-.61916-.05626-1.22821-.15057-1.83025l-9.63613-60.24087h-29.60847z" fill="url(#B)" opacity=".3"/><path d="m299.4375 434.46875-9.03125 42.625c-.04541.17898-.09753.35619-.15625.53125-.65758 2.24679-1 4.27599-1 6.15625 0 11.06616 8.89485 22.50404 26.0625 31.53125s41.74913 14.9375 68.96875 14.9375c2.62625 0 5.17722-.14311 7.75-.25-44.42944-15.75016-79.12941-51.20329-92.59375-95.53125z" fill="url(#C)" transform="matrix(.240904 0 0 .314882 163.4262 211.8423)"/></g><rect fill="url(#D)" height="277.41132" rx="5.644665" ry="5.967219" width="346.66031" x="374.01266" y="185.9129"/><rect fill="url(#E)" height="236.02142" rx="5.076907" stroke="url(#F)" stroke-linejoin="round" stroke-width="3.799072" width="311.79214" x="391.44662" y="199.11009"/><path d="m379.66319 187.80484c-2.05001 0-3.73972 1.72266-3.73972 4.0662v2.28538c2.21595-2.14837 5.19488-3.50227 8.51824-3.50227h325.8001c3.32334 0 6.30228 1.3539 8.51823 3.50227v-2.28538c0-2.34354-1.6897-4.0662-3.73971-4.0662z" fill="#fff" opacity=".777273"/><path d="m375.92347 455.07549v2.28538c0 2.34354 1.68971 4.0662 3.73972 4.0662h335.35714c2.05 0 3.73971-1.72267 3.73971-4.0662v-2.28538c-2.21678 2.14158-5.19765 3.50227-8.51823 3.50227h-325.8001c-3.32058 0-6.30146-1.36069-8.51824-3.50227z" opacity=".25"/><path d="m404 351.5a4.5 4.5 0 1 1 -9 0 4.5 4.5 0 1 1 9 0z" fill="url(#G)" stroke="url(#H)" stroke-linejoin="round" stroke-width="1.494147" transform="matrix(1.27131765501 0 0 1.27131765501 182.1973477656 .95261758)"/><path d="m404 351.5a4.5 4.5 0 1 1 -9 0 4.5 4.5 0 1 1 9 0z" fill="url(#I)" opacity=".827273" transform="matrix(1.15938654644 0 0 1.15938654644 226.91387835064 40.29644355656)"/><path d="m404 351.5a4.5 4.5 0 1 1 -9 0 4.5 4.5 0 1 1 9 0z" fill="url(#J)" stroke="url(#K)" stroke-linejoin="round" stroke-width="1.25077" transform="matrix(.75934675613 0 0 .75934675613 371.9211899496 183.68915378)"/><path d="m404 351.5a4.5 4.5 0 1 1 -9 0 4.5 4.5 0 1 1 9 0z" fill="url(#L)" opacity=".827273" transform="matrix(.69249129804 0 0 .69249129804 398.62997694024 207.18887197496)"/><path d="m404 351.5a4.5 4.5 0 1 1 -9 0 4.5 4.5 0 1 1 9 0z" fill="url(#J)" stroke="url(#K)" stroke-linejoin="round" stroke-width="1.25077" transform="matrix(.75934675613 0 0 .75934675613 359.8913899496 183.68915378)"/><path d="m404 351.5a4.5 4.5 0 1 1 -9 0 4.5 4.5 0 1 1 9 0z" fill="url(#M)" opacity=".827273" transform="matrix(.69249129804 0 0 .69249129804 386.60017694024 207.18887197496)"/><path d="m404 351.5a4.5 4.5 0 1 1 -9 0 4.5 4.5 0 1 1 9 0z" fill="url(#J)" stroke="url(#K)" stroke-linejoin="round" stroke-width="1.25077" transform="matrix(.75934675613 0 0 .75934675613 347.8615899496 183.68915378)"/><path d="m404 351.5a4.5 4.5 0 1 1 -9 0 4.5 4.5 0 1 1 9 0z" fill="url(#L)" opacity=".827273" transform="matrix(.69249129804 0 0 .69249129804 374.57037694024 207.18887197496)"/><path d="m108.5625 97.6875v136.25c27.14346 5.75223 56.54919 9.0625 87.4375 9.0625 103.03819 0 190.57971-36.09971 224.84375-83.125v-62.1875z" fill="url(#N)" opacity=".827273" transform="matrix(.949768 0 0 .949768 295.9352 113.9307)"/></g><g fill-rule="evenodd" transform="translate(51.28231 -31.55267)"><path d="m399.74632 518.72322c-6.84008.26104-12.4022 6.17053-15.43771 11.08759l-38.03069 90.83552c-5.96435 13.36149 3.0472 16.96671 22.25214 17.48883l374.19836-.85351c15.75435 0 36.10825-2.2219 27.24945-16.63532l-36.66689-88.10933c-4.16866-4.8419-12.3999-13.81378-24.22423-13.81378z" fill="url(#o)" stroke="#c4c4c4" stroke-width="6.222403"/><g fill="#bdbdbd" transform="matrix(4.598811 0 0 4.715294 -2065.15 -950.333)"><rect height="1.393455" rx=".154097" ry=".15029" width="71.082634" x="534.05829" y="316.83197"/><rect height="1.393455" rx=".154097" ry=".15029" width="73.073692" x="533.06281" y="319.33197"/><rect height="1.393455" rx=".154097" ry=".15029" width="74.702751" x="532.24823" y="321.83197"/><rect height="1.393455" rx=".154097" ry=".15029" width="76.693817" x="531.25269" y="324.33197"/><rect height="1.393455" rx=".154097" ry=".15029" width="78.503876" x="530.34766" y="326.83197"/><rect height="1.393455" rx=".154097" ry=".15029" width="80.404442" x="529.53314" y="329.33197"/><rect height="1.393455" rx=".154097" ry=".15029" width="69.272575" x="534.96332" y="314.33197"/><rect height="1.393455" rx=".154097" ry=".15029" width="82.033493" x="528.71863" y="331.83197"/></g></g></g></g></svg>