<svg height="16" viewBox="0 0 16 16" width="16" xmlns="http://www.w3.org/2000/svg"><g transform="translate(0 -1037.3622)"><path d="m1.79225 1037.3622c-1.1473 0-1.79225.5921-1.79225 1.802v12.472c0 1.1317.57997 1.7242 1.72622 1.7242h12.54653c1.14653 0 1.72725-.5629 1.72725-1.7242v-12.472c0-1.1804-.58072-1.802-1.76311-1.802-.00011 0-12.44858 0-12.44464 0z" fill="#ac39ac"/><g fill="#fff"><g transform="matrix(.02775633 0 0 .02770795 .20824 1037.5683)"><path d="m42.125 111.03125v424.53125h289.15625v-424.53125zm134.53125 85.28125c21.16701 0 39.23246 3.11388 54.15625 9.34375 15.07569 6.24554 27.24185 15.63783 36.53125 28.125 5.78647 7.61298 9.90701 17.04388 12.34375 28.3125 2.43627 11.11582 3.65598 27.86164 3.65625 50.25v145.96875h-42.25v-37.9375c-8.98481 15.22596-20.32607 26.50122-34.03125 33.8125-13.55323 7.15848-30.10182 10.75-49.59375 10.75-26.04027 0-46.81108-7.31885-62.34375-21.9375-15.532776-14.77146-23.312527-34.48752-23.3125-59.15625-.000027-28.47718 9.527243-50.10354 28.5625-64.875 19.18742-14.77146 47.27668-22.15625 84.28125-22.15625h56.4375v-6.625c-.15242-20.40577-5.32857-35.17535-15.53125-44.3125-10.20305-9.28995-26.52099-13.9375-48.90625-13.9375-14.31461 0-28.75606 2.02651-43.375 6.15625-14.61912 4.11015-28.86117 10.1439-42.71875 18.0625v-42.03125c15.53267-5.93601 30.36897-10.3584 44.53125-13.25 14.31437-3.05616 28.16158-4.5625 41.5625-4.5625zm11.21875 133.375c-24.51748 0-43.04425 4.35253-55.53125 13.03125-12.3349 8.52983-18.50007 21.32317-18.5 38.375-.00007 15.38269 4.64824 27.34909 13.9375 35.875 9.28909 8.52983 22.14721 12.78125 38.59375 12.78125 23.14668 0 41.34507-7.97874 54.59375-23.96875 13.24832-16.14281 19.97252-38.39438 20.125-66.71875v-9.375h-39.3125z"/><path d="m42.125 111.03125v424.53125h289.15625v-424.53125z" opacity=".5"/></g><g transform="matrix(.02775633 0 0 .02770795 -.0473 1037.3132)"><path d="m241.78125 38.3125v138.03125l48.40625-36c15.53267-5.93601 30.36897-10.3584 44.53125-13.25 14.31437-3.05616 28.19283-4.5625 41.59375-4.5625 21.16701 0 39.20121 3.11388 54.125 9.34375 15.07569 6.24554 27.2731 15.63783 36.5625 28.125 5.78647 7.61298 9.87576 17.04388 12.3125 28.3125 2.43627 11.11582 3.65598 27.86164 3.65625 50.25v145.96875h-42.25v-37.9375c-8.98481 15.22596-20.32607 26.50122-34.03125 33.8125-13.55323 7.15848-30.07057 10.75-49.5625 10.75-23.98279 0-43.52163-6.22389-58.59375-18.625v90.3125h232.375v-424.53125zm55.5625 333.21875c-.87852-.74901-1.7468-1.51539-2.59375-2.3125zm0-124.1875c.86144-.73573 1.74973-1.45278 2.65625-2.15625 19.18742-14.77146 47.30793-22.15625 84.3125-22.15625h56.40625v-6.625c-.15242-20.40577-5.32857-35.17535-15.53125-44.3125-10.20305-9.28995-26.48974-13.9375-48.875-13.9375-14.31461 0-28.78731 2.02651-43.40625 6.15625-12.11781 3.40691-23.96706 8.15933-35.5625 14.1875zm90.15625 8.59375c-24.51748 0-43.013 4.32128-55.5 13-12.3349 8.52983-18.50007 21.32317-18.5 38.375-.00007 15.38269 4.61699 27.34909 13.90625 35.875 9.28909 8.52983 22.17846 12.78125 38.625 12.78125 23.14668 0 41.34507-7.97874 54.59375-23.96875 13.24832-16.14281 19.94127-38.39438 20.09375-66.71875v-9.34375h-39.28125z" opacity=".8"/><path d="m241.78125 38.3125v138.03125c66.69029 16.56966 52.83028 166.22244 56.75 286.5h232.375v-424.53125z" opacity=".502"/></g></g></g></svg>