<svg height="13" viewBox="0 0 16 13" width="16" xmlns="http://www.w3.org/2000/svg"><g transform="translate(0 -1039.3622)"><path d="m.03003334 1039.3908c.0254-.012.0498-.029.0784-.029 5.26170996 0 10.52341966-.0002 15.78512966 0 .0283-.0004.0527.018.0781.03.0109.027.0289.054.0286.085 0 .9072-.00016 2.2356 0 3.1429.00065.032-.0174.059-.0284.086-.0252.012-.0495.03-.0775.03-.14017.0008-.28017-.0007-.42017.0003.002 1.0598-.00016 1.8991.001 2.9589.004.038-.0138.072-.0294.1043-.0244.011-.049.023-.073.034.024.012.0487.023.0733.034.0112.028.0286.055.0291.087-.001 1.6916.00065 3.3833-.00064 5.075-.002.082.0167.1718-.0284.2447-.0273.012-.0539.03-.0842.029-.36407-.0004-.72814.0001-1.09221-.0004-.10689 0-.21249.046-.28418.1329-.11332.1302-.19562.2877-.30299.4233-.17038.2405-.44283.4257-.73087.3882-.0993 0-.19465-.032-.28659-.068-.15158-.062-.28676-.1615-.41631-.2654-.13663-.1179-.26377-.2487-.40747-.3568-.0683-.049-.15945-.078-.23644-.034-.11975.066-.22214.1645-.3144.2691-.19691.1947-.38818.4021-.61997.5491-.0593.039-.13003.013-.19368.01-.1826-.03-.37966-.056-.5284997-.1859-.0775-.064-.11782-.1651-.13792-.2661-.0246-.1735.0436-.3393.10657-.4941.1417697-.3129.2933397-.6208.4193597-.9418.16251-.4049.25766-.8394.30588-1.2769.0553-.4031.0829-.812.18035-1.2069.0846-.4039.21989-.7984.42418-1.1494.10513-.1774.23725-.3414.40667-.4483.18935-.1271.41389-.1831.59183-.3315.042-.035.0754-.082.0918-.1372-.0683-.1465-.18999-.2494-.27952-.3787-.13213-.181-.22262-.3917-.31713-.5971-.0926-.1761-.17971-.3558-.25541-.5414-.21861-.521-.34607-1.08-.43271-1.6428-.008-.078-.0262.067-.0272-.011-2.0307497-.01-4.0616597.0005-6.0925597 0-.0696.4317-.13904.6466-.27261 1.0621-.0905.3083-.21169.6053-.35185.8907-.13647.2497-.2313.526-.39574.7576-.0807.1153-.18115.2124-.25862.3303-.0267.038-.0714.05-.11252.058.0307.013.0688.017.0908.046.0919.1419.24785.2057.38721.2772.16026.072.32132.1527.45055.2809.16523.1649.28772.3747.38368.5935.12408.2637.21136.5463.27357.834.13614.5461.15029 1.1158.25091 1.6692.053.2593.11364.5184.20976.7632.087.2316.1871.4568.29158.6797.0879.1963.18918.3871.25026.5961.0264.1163.0389.2452-.0124.3561-.0371.1203-.13984.1989-.24223.249-.15769.068-.32758.088-.49411.1121-.0595.01-.1093-.03-.15639-.062-.13711-.099-.26201-.2157-.38497-.3337-.0781-.09-.1699-.1641-.24657-.2557-.0964-.085-.1924-.1925-.32115-.2101-.13759.01-.23419.128-.33819.2107-.235.2237-.49057.4462-.80224.5234-.14241.026-.29286.03-.43013-.026-.17922-.068-.32645-.2085-.44122-.3693-.0952-.1259-.17488-.2649-.27341-.3878-.0718-.089-.17601-.1451-.28579-.1468-.33257-.0004-.66513 0-.99784996-.0002-.0645 0-.13374.012-.1908-.029-.0112-.028-.0292-.054-.0286-.086 0-1.7213 0-3.4426-.00016-5.1638-.00048-.032.0174-.058.0283-.086.0283-.013.0566-.026.0857-.036-.0291-.01-.0574-.021-.0854-.033-.0111-.029-.0294-.056-.0286-.088.00032-1.0655-.00016-1.9103.00032-2.9756-.12489-.0009-.24978.0003-.37468-.0004-.0286.0004-.0532-.017-.0788-.029-.0114-.028-.0302-.055-.0291-.088.00016-.866 0-2.1532.00016-3.0192.00097-.071-.0119-.1474.0286-.2093m.19481.2147c.001.8216.001 2.0646-.00016 2.8864.12216.001.24432.0001.36648.0003.0326 0 .0619.014.0902.029.0137.031.0301.062.027.098-.002 1.0619.00081 1.9031-.001 2.9652h2.77173996c.0449-.063.0961-.1188.14273-.1793.18855-.2062.30203-.4735.42017-.73.16508-.3045.29511-.6304.39477-.9664.11702-.3642.18372-.5235.24673-.9022.0164-.096.0108-.2012.0611-.2869.0281-.016.0572-.032.0902-.029 2.10099.0007 4.20198-.0003 6.3029697.0006.027 0 .0503.016.0749.026.0288.044.0338.098.0355.1504.0354.2809.0839.3395.14499.615.0427.2258.11267.4441.18083.662.0854.2466.17938.4909.30154.7189.0804.1493.13984.3106.2223.4586.086.1724.20622.3207.32999.4615.94079-.001 1.88174-.0008 2.82253-.0001 0-1.0626.00016-1.9047 0-2.9673-.005-.061.0365-.1226.0952-.1245.14386 0 .28772.0005.43174-.001-.001-.8218-.001-2.0648-.00016-2.8866-5.18392-.0007-10.3679997-.0007-15.55190966.0002m.48221 6.4775c.001 1.6356.001 3.2711 0 4.9065.30410996.001.60822996.0002.91233996.0005.0828.0009.16636 0 .24818.012.0577.023.11605.045.16732.083.11975.077.19723.206.27952.3237.1032.1576.20977.3192.35925.4294.1183.08.26827.1238.40457.076.0987-.029.19819-.063.2829-.1271.19112-.1234.35009-.2935.52432-.441.12232-.1019.27245-.1869.43126-.1696.16331.028.30026.1386.42274.2528.2067.216.41438.434.65259.6103.0808-.022.16524-.025.24592-.049.0894-.024.18807-.05.24609-.1348.0416-.048.0359-.1186.026-.178-.0564-.2077-.15623-.3965-.24335-.5899-.18598-.4011-.37098-.8082-.46517-1.2478-.13615-.5565-.14177-1.1387-.25702-1.6999-.0619-.2946-.131-.59-.24705-.8662-.0833-.2148-.19755-.4167-.3427-.5888-.10592-.1181-.2366-.2094-.37853-.2675-.18003-.09-.37645-.1679-.51034-.3341-.91957.001-1.83931-.0005-2.75887996.0009m11.80111966.039c-.0873.1421-.23468.2169-.37162.2891-.13004.069-.27101.1151-.3885.2094-.16685.1231-.28242.3079-.38449.4929-.19867.3936-.3017.8319-.38255 1.2687-.0222.1062-.0249.2155-.0474.3215-.0201.2265-.0551.4508-.0791.6767-.0542.3892-.13968.7761-.28531 1.1376-.12778.3341-.28723.6523-.43286.9775-.0358.098-.0818.1939-.0943.2992-.0146.09.0482.1679.11733.2064.1249.067.26699.072.40008.1078.1797-.1235.33867-.2794.49153-.4386.0726-.06.12811-.1395.19915-.201.11525-.105.24673-.2009.39863-.2255.13566-.012.26538.051.37564.1317.15463.1206.29029.2673.44508.3878.089.063.17424.1374.27695.1733.10818.043.22471.086.34108.057.18067-.036.32324-.1789.43078-.3327.12007-.1539.20912-.3377.35362-.4682.0958-.078.21217-.1365.33433-.1328.34799.001.69583-.0005 1.04382.0008v-4.9781c-.89964.001-1.79928 0-2.69893.0006-.0238-.01-.031.025-.0429.039z"/><g fill="#ff003c"><path d="m.22484334 1039.5854c5.18390996-.0009 10.36798966-.0009 15.55190966-.0002-.001.8218-.001 2.0956.00016 2.9174-.14402 0-.28788 0-.43174 0-.0587 0-.1.064-.0952.1244.00016 1.0626 0 1.894 0 2.9566-.94079-.0007-1.88174-.001-2.82253.0001-.12377-.1408-.244-.289-.32999-.4615-.0825-.148-.14193-.3093-.2223-.4586-.12216-.228-.21619-.4723-.30154-.7189-.0682-.2179-.13808-.4362-.18083-.662-.0611-.2755-.10962-.3233-.14499-.6042-.002-.053-.007-.106-.0355-.1505-.0246-.01-.0479-.027-.0749-.026-2.1009897-.0009-4.2019797.0002-6.3029697-.0005-.033 0-.062.014-.0902.029-.0503.086-.0447.1904-.0611.2868-.063.3787-.12971.5273-.24673.8915-.0997.336-.22969.6619-.39477.9664-.11814.2565-.23162.5238-.42016.73-.0466.061-.0979.1167-.14274.1793-.92391 0-1.84783.0002-2.77173996 0 .002-1.0621-.00032-1.8926.001-2.9544.003-.036-.0134-.067-.027-.098-.0283-.015-.0575-.032-.0902-.029-.12216-.0002-.24432.0008-.36648-.0004.001-.8218.001-2.0956.00016-2.9172z"/><path d="m.70705334 1046.083c.91956996-.001 1.83930996.0007 2.75887996-.0009.13389.1662.33031.2439.51034.3341.14193.058.27261.1494.37853.2674.14515.1721.25943.3741.3427.5889.11605.2762.18516.5715.24705.8662.11525.5611.12087 1.1433.25702 1.6999.0942.4396.27919.8467.46517 1.2478.0871.1933.18693.3822.24335.5898.01.059.0156.1303-.026.1781-.058.084-.15672.1112-.24609.1347-.0807.024-.16507.027-.24592.049-.23821-.1762-.44589-.3942-.65259-.6102-.12248-.1142-.25943-.2244-.42274-.2529-.15881-.017-.30894.068-.43126.1697-.17423.1475-.3332.3175-.52432.441-.0847.064-.1842.098-.2829.1271-.1363.048-.28627 0-.40457-.076-.14948-.1102-.25605-.2718-.35925-.4295-.0823-.1177-.15977-.2467-.27952-.3236-.0513-.038-.10962-.06-.16732-.083-.0818-.017-.1654-.011-.24818-.011-.30411-.0003-.60823.0007-.91233996-.0005.001-1.6354.001-3.2709 0-4.9065z"/><path d="m12.508173 1046.122c.0119-.015.0191-.045.0429-.039.89964-.0005 1.79928.0007 2.69892-.0005v4.9781c-.34799-.001-.69583.0002-1.04382-.0009-.12216 0-.23853.054-.33433.1329-.1445.1304-.23355.3142-.35362.4682-.10754.1538-.25011.2966-.43077.3326-.11638.03-.23291-.013-.34109-.056-.10271-.036-.1879-.1102-.27695-.1733-.15479-.1205-.29045-.2671-.44508-.3878-.11026-.081-.23998-.1433-.37564-.1316-.15189.025-.28338.1205-.39863.2254-.071.062-.12649.1413-.19915.2011-.15286.1592-.31183.3151-.49153.4385-.13309-.035-.27518-.041-.40007-.1077-.0691-.039-.13197-.1165-.11734-.2064.0125-.1054.0585-.2016.0943-.2993.14563-.3252.30508-.6434.43286-.9775.14563-.3614.23114-.7483.28531-1.1375.024-.226.059-.4502.0791-.6767.0225-.106.0252-.2154.0474-.3215.0808-.4368.18388-.8752.38255-1.2687.10207-.185.21764-.3698.38449-.493.1175-.094.25846-.1408.3885-.2094.13694-.072.28434-.147.37162-.2891z"/></g></g></svg>