<svg height="92" width="92" xmlns="http://www.w3.org/2000/svg" xmlns:xlink="http://www.w3.org/1999/xlink"><linearGradient id="a" gradientTransform="matrix(.866025 0 0 1.154701 -16.31031 -3.262063)" gradientUnits="userSpaceOnUse" x1="364.79874" x2="533.11829" y1="430.8544" y2="485.01993"><stop offset="0" stop-color="#fff"/><stop offset="1" stop-color="#fff" stop-opacity="0"/></linearGradient><linearGradient id="b" gradientTransform="matrix(1.063821 .04046455 -.03647746 .97038 21.43936 -34.26626)" gradientUnits="userSpaceOnUse" x1="347.20044" x2="514.80957" y1="574.46063" y2="622.51636"><stop offset="0" stop-color="#fffdff"/><stop offset=".5" stop-opacity=".498039"/><stop offset=".7" stop-opacity=".247059"/><stop offset="1" stop-opacity="0"/></linearGradient><linearGradient id="c"><stop offset="0"/><stop offset="1" stop-opacity="0"/></linearGradient><linearGradient id="d" gradientTransform="matrix(1.148733 0 0 .905362 0 -20.98799)" gradientUnits="userSpaceOnUse" x1="532.68054" x2="284.75259" xlink:href="#c" y1="625.84399" y2="616.76953"/><linearGradient id="e" gradientTransform="scale(1.901203 .525983)" gradientUnits="userSpaceOnUse" x1="102.90475" x2="188.49617" xlink:href="#c" y1="1453.4987" y2="1439.7363"/><linearGradient id="f" gradientTransform="scale(1.572461 .635946)" gradientUnits="userSpaceOnUse" x1="302.90421" x2="270.20834" y1="999.95508" y2="1138.5482"><stop offset="0" stop-color="#ffce63"/><stop offset="1" stop-color="#ffce63" stop-opacity="0"/></linearGradient><linearGradient id="g" gradientTransform="scale(.790682 1.264731)" gradientUnits="userSpaceOnUse" x1="738.6416" x2="891.12726" y1="326.92914" y2="121.82977"><stop offset="0" stop-color="#00398f"/><stop offset="1" stop-color="#fff"/></linearGradient><g fill-rule="evenodd" transform="matrix(.1339201 0 0 .1339201 -5.773898 -15.031715)"><g stroke="#000"><path d="m414.63983 465.72362c17.26128-16.24591 17.84485-31.3103 50.64025-35.81621 35.06103-8.48405 59.93036-36.36184 63.00177-120.82551 3.07141-84.46366 56.82101-176.60585 56.82101-176.60585s44.53539-49.142494 56.82102 7.67852c12.28562 56.82101-38.39258 198.10569-62.96383 241.10538-15.59205 25.04128 4.56916 55.90684 21.96958 62.46879 12.83126 4.02353 15.95326 25.63721 8.24945 35.8162-10.74993 3.07141-194.53925-13.82132-194.53925-13.82132z" fill="url(#g)"/><path d="m577.11876 639.30213-7.06645 50.76716s-27.60358 3.40472-36.61329 20.40742c-9.00971 17.00268-46.29011-17.87119-55.42953-11.61764s-35.30007 1.96179-42.92243 6.66122c-7.62237 4.69942-41.44244 2.03591-41.44244 2.03591l-3.44179-30.67476s-18.33445 7.90031-45.8639 17.44741c-27.52947 9.5471-6.58709-36.78007-6.58709-36.78007l14.85559-41.64626z" fill="url(#f)"/><path d="m345.53319 660.75789c-38.39258 0-67.27742 117.2166-226.99054 111.07379-44.53539 18.42844-27.93617 22.53238-27.93617 22.53238s379.88021 19.96414 410.26774 6.14281c19.67889-11.45498 78.08584-105.9635 67.33592-130.53475l-41.46399 23.03553-33.78547-13.82131-96.74929 13.82133c-6.14281-18.42844-3.07141-4.60712-6.14281-29.17837-33.78547-1.5357-67.57094 33.78547-44.53539-3.07141z" fill="#df0000"/></g><path d="m90.60648 788.22126 23.03555-13.82133s285.64076 26.10695 342.46178 1.5357c56.82101-24.57125 79.85656-56.82101 79.85656-56.82101l10.74992-15.35703s15.35703-15.35703 10.74992-1.5357c-4.60711 13.82132-46.07109 73.71374-46.07109 73.71374s-19.96414 19.96414-56.82102 21.49985c-36.85687 1.5357-322.49764-10.74993-322.49764-10.74993z" fill="#fff9ff" opacity=".50996"/><path d="m127.46335 771.32852-23.03554 12.28563 44.53539 4.60711 12.28562-15.35703z" fill="#fff" opacity=".23506"/><path d="m320.66562 678.20565c-53.52374 34.04416-47.38678 93.98262-206.08016 94.83678 51.29668 5.8755 161.84109 16.71453 298.51866 9.03602 116.71344-32.24976 76.78515-72.17805 76.78515-72.17805s-176.90217 22.05486-169.22365-31.69475z" fill="url(#e)"/><path d="m533.57662 298.45041s16.75359-126.92118 63.46058-169.05901c46.707-42.137828 28.17272 166.27811-61.23283 266.33746-8.63064 17.76896-2.73544-58.69441-2.22775-97.27845z" fill="#fff" opacity=".25498"/><path d="m635.72733 158.03391s-21.55008 154.44223-79.01696 219.09247 14.36672 66.44608 19.75424 62.8544-35.9168-21.55008 0-75.42528 59.26272-143.66719 59.26272-206.52159z" opacity=".270916"/><path d="m365.8948 607.0905-1.08735 35.33902 17.39767-33.16431-3.80574 40.23212 21.20341-40.23212-7.0678 42.9505 24.46548-41.31947-9.24252 44.58154 24.46548-44.03786-9.78619 44.58153 26.64018-42.9505-7.61148 39.68844 21.74709-37.51373-4.34941 38.60108 19.0287-34.25166-2.17471 34.25166 20.65974-33.70799-5.98045 33.16432 22.29077-31.53329-6.52413 32.07696 18.48503-31.53328-4.8931 31.53328 17.94135-31.53328-5.98045 30.98961 17.94135-29.90225-4.8931 30.9896 16.854-30.44593-3.80574 30.98961 14.13561-29.35857-3.26207 31.53328 9.7862-35.8827-217.47091-25.55283-11.41723 41.31947z" fill="#994a2c" opacity=".2749"/><path d="m379.6049 611.36053-1.04087 27.52065 16.65383-25.82707-3.64302 31.33121 20.29685-31.33121-6.76561 33.44817 23.41945-32.17799-8.84736 34.71837 23.41945-34.29497-9.36777 34.71836 25.50116-33.44818-7.28604 30.90781 20.81728-29.21423-4.16345 30.06102 18.21512-26.67386-2.08173 26.67386 19.77643-26.25047-5.72476 25.82708 21.33773-24.5569-6.24519 24.98029 17.69469-24.55689-4.68389 24.55689 17.17427-24.55689-5.72476 24.1335 17.17426-23.28671-4.68389 24.13349 16.1334-23.7101-3.64303 24.1335 13.53124-22.86331-3.1226 24.55689 9.36779-27.94405-208.17287-19.89955-10.92908 32.178z" fill="#994a2c" opacity=".2749"/><path d="m347.05411 619.15925s56.86548-164.03417 82.22681-165.67887c25.36134-1.6447 183.4967 16.44702 183.4967 16.44702s-.82206 15.37333-4.47553 37.82814c-7.45921 19.73641-25.90501 132.64983-31.87238 132.64983s-229.3756-21.24612-229.3756-21.24612z" fill="#959595" stroke="#000" stroke-width="1.019995"/><path d="m600.94819 468.51747 11.8025 3.55594-34.42258 167.33782-16.85315-.77096z" opacity=".346614" stroke="#000" stroke-width="1.016949"/><path d="m589.30287 468.04967 19.05304 2.39225-41.05788 167.48973-31.87222-1.38003z" fill="#fffdff" opacity=".10757"/><path d="m590.22773 472.34079-47.06319 163.0415 10.87483-2.62977z" fill="#fff" opacity=".545817"/><path d="m443.81819 453.79101 128.99905 11.18014 9.21422 6.38864-46.07109 166.10488-165.85593-17.56879z" fill="url(#d)" opacity=".14741"/><path d="m464.15317 453.25481 114.79729 12.31015-57.202 172.58374-142.36057-14.94731z" fill="url(#b)" opacity=".38247"/><path d="m390.651 448.64022 59.89242 3.07141-73.71375 168.92734-55.28531-6.14281z" fill="url(#a)" opacity=".23506"/><path d="m589.92962 441.10981s-7.10759 9.64601-1.52305 12.69211c5.58453 3.04611 6.09221.50769 8.12295 7.10759s12.18443 5.58453 12.18443 5.58453l-1.01537-13.1998z" fill="#fff" opacity=".38247"/></g><g opacity=".180412" transform="matrix(.09766704578 -.15155045973 .15155045973 .09766704578 -31.82696763919 54.93175054836)"><path d="m210.20159 128.19131h62.64286v480.40735h-62.64286z" stroke="#000" stroke-linecap="round" stroke-width="5"/><path d="m216.7392 153.14858h34.25495v447.19757h-34.25495z"/><path d="m134.28572 132.36218 193.88889.46402c.59471 41.60723 36.45503 52.58907 54.68254 52.43439v27.10159h-248.57143z" stroke="#000" stroke-linecap="round" stroke-width="5"/><path d="m140.08561 166.42895 188.9708.2382c.52067 21.35881 33.1068 26.99627 49.06455 26.91686v13.91243h-238.03535z"/></g><g transform="matrix(.09766704578 -.15155045973 .15155045973 .09766704578 -32.72410082541 51.10451403808)"><path d="m210.20159 128.19131h62.64286v480.40735h-62.64286z" fill="#893333" stroke="#000" stroke-linecap="round" stroke-width="5"/><path d="m216.7392 153.14858h34.25495v447.19757h-34.25495z" fill="#ae6767"/><path d="m134.28572 132.36218 193.88889.46402c.59471 41.60723 36.45503 52.58907 54.68254 52.43439v27.10159h-248.57143z" fill="#aaa" stroke="#000" stroke-linecap="round" stroke-width="5"/><path d="m140.08561 166.42895 188.9708.2382c.52067 21.35881 33.1068 26.99627 49.06455 26.91686v13.91243h-238.03535z" fill="#eee"/></g></svg>