<svg height="16" viewBox="0 0 16 16" width="16" xmlns="http://www.w3.org/2000/svg"><g transform="translate(0 -1037.3622)"><g transform="matrix(-.00909078 0 0 .00909078 -25.268506 994.48777)"><rect fill="#fff" height="1760.0249" ry="110.00144" transform="scale(-1 1)" width="1760.0249" x="2779.5752" y="4716.2544"/><path d="m-4429.5981 5596.2666h1166.0166v220.00313h-1166.0166z" stroke-width="1.029562"/><path d="m-3180.8059 5571.2998h81.786003v245h-81.786003z"/><path d="m-3026.0623 5570.6001h81.429001v245.71001h-81.429001z"/><g stroke-width=".920941"><path d="m-3180.7534 5532.1674v-86.7894c0-62.89-32.39-105.652-133.75-105.652h-214.69c-103.1 0-188.96-62.8957-188.96-168.7781-.5051-15.2139 4.6594-39.6739 4.6594-39.6739-82.999-4.3923-225.09-68.7344-225.09-207.945 0-106.1015 97.083-204.315 234.64-204.4592l.9393 69.1142c-73.374 0-153.04 48.1129-153.04 133.5299 0 136.9139 161.61 142.6644 182.46 142.6644 43.571 0 76.392 24.9595 43.571 68.2135-21.687 28.5812 0 137.0749 88.214 137.0749h198.92c172.49 0 244.3 69.7106 244.3 172.4255 0 40.6137 0 30.5725-.3572 90.572l-81.812-.3029z"/><path d="m-3025.6624 5533.1003-.3571-132.19c0-109.1375-105.24-222.2274-238.63-222.2274h-126.72c-42.021 0-88.515-19.407-40.058-71.9666 82.244-118.5519 3.9118-251.8782-161.97-251.8782-.2526 0 0-68.9676 0-68.9676 212.12 5.2119 328.44 155.6576 252.54 320.8483 326.63-15.4215 396.28 203.0512 396.28 304.14v121.3338l-81.071.9088z"/></g></g><path d="m1 1050.3622h5v1h-5z"/><path d="m10 1050.3622h5v1h-5z"/><path d="m3 1048.3622h1v5h-1z"/></g></svg>