<svg height="12.722" width="16" xmlns="http://www.w3.org/2000/svg" xmlns:xlink="http://www.w3.org/1999/xlink"><linearGradient id="a" gradientTransform="matrix(.52064708 0 0 .33294531 16.126655 17.963167)" gradientUnits="userSpaceOnUse" x1="29.420887" x2="-5.853413" y1="28.105722" y2="-16.60376"><stop offset="0"/><stop offset="1" stop-opacity="0"/></linearGradient><linearGradient id="b" gradientTransform="matrix(.74391497 0 0 .23301944 14.695087 18.901693)" gradientUnits="userSpaceOnUse" x1="12.828831" x2="9.371018" y1="53.589424" y2="42.531727"><stop offset="0" stop-color="#2c2c2c"/><stop offset="1" stop-color="#2c2c2c" stop-opacity="0"/></linearGradient><g transform="translate(-15.857145 -19.515667)"><g stroke="#000"><g fill="#3f3f3f" fill-rule="evenodd" stroke-width=".5" transform="matrix(.41634927 0 0 .41634927 14.695088 18.901693)"><path d="m34.098289 31.623542 1.043826-.677668-1.438159-1.154825z"/><path d="m6.1108233 25.087627 32.2291427 1.800818-.963515 1.944926-1.001209-.05472-.963515 1.944926-26.4725797-1.446801-1.155772-2.060751-.946067-.05171-.726485-2.076693z"/><path d="m35.753478 29.913804 1.329599-.856044-1.657446-1.092821z"/></g><rect fill="#fff" height="9.600555" rx=".685892" ry="9.464383" stroke-width=".208189" transform="matrix(.99810154 .06158985 -.07799026 .99695412 0 0)" width="15.130332" x="18.315828" y="18.506195"/><rect fill-opacity=".586387" height="9.600557" rx=".685891" ry="9.464385" stroke-width=".208189" transform="matrix(.99810154 .06158991 -.07799024 .99695412 0 0)" width="15.130319" x="18.407393" y="18.50025"/><rect fill="#fff" height="9.600557" rx=".685891" ry="9.464385" stroke-width=".208189" transform="matrix(.99810154 .06158991 -.07799024 .99695412 0 0)" width="15.130319" x="17.979231" y="18.944323"/><rect fill-opacity=".450262" height="9.600562" rx=".685891" ry="9.46439" stroke-width=".208189" transform="matrix(.99810154 .06158993 -.07799026 .99695412 0 0)" width="15.130316" x="17.944263" y="18.951958"/><rect fill="#fff" height="7.905883" rx=".685892" ry="9.464372" stroke-width=".17144" transform="matrix(.99810155 .06158981 -.07799022 .99695412 0 0)" width="12.459575" x="18.993519" y="19.924763"/><rect fill="url(#a)" height="7.905885" rx=".685892" ry="9.464375" stroke-width=".17144" transform="matrix(.99810154 .06158987 -.0779902 .99695413 0 0)" width="12.459564" x="18.972294" y="19.919594"/><path d="m30.926395 20.920029c.496486-.352939.496486-.352939.496486-.352939z" fill="none" stroke-width=".416349"/><path d="m17.007205 20.088436.552947-.470421z" fill="none" stroke-width=".208175"/><path d="m16.577343 29.774258 13.41858.74977-.401158.809768-.416853-.02278-.401159.809768-11.021839-.602374-.481205-.857992-.393894-.02153z" fill="#969696" fill-rule="evenodd" stroke-width=".208175"/></g><g transform="matrix(.24034469 -.02145945 0 .24034469 23.435354 22.139064)"><path d="m13.732812 37.130722c2.617383.0019 5.234993-.0039 7.852235.0029.446745.09769.625056.594662.749513.983995.243373.926721.234365 1.944273-.117445 2.842323-.130824.332526-.406477.71401-.81034.655302-2.574532-.0019-5.14929.0039-7.72368-.0029-.446744-.09769-.625055-.594663-.749512-.983997-.243374-.926721-.234365-1.944272.117445-2.842323.128087-.283852.329415-.641629.681784-.655301z" fill="#3f3f3f"/><g stroke="#000" stroke-width=".035951"><rect height=".055858" rx="6.590632" ry=".496565" width="8.363971" x="13.386724" y="37.425003"/><rect height=".055858" rx="6.590632" ry=".496565" width="8.363971" x="13.386724" y="41.255825"/><rect height=".055858" rx="6.590632" ry=".496565" width="8.363971" x="13.386724" y="40.161304"/><rect height=".055858" rx="6.590632" ry=".496565" width="8.363971" x="13.386724" y="39.066784"/><rect height=".055858" rx="6.590632" ry=".496565" width="8.363971" x="13.386724" y="38.519524"/><rect height=".055858" rx="6.590632" ry=".496565" width="8.363971" x="13.386724" y="40.708565"/><rect height=".055858" rx="6.590632" ry=".496565" width="8.363971" x="13.386724" y="37.972263"/><rect height=".055858" rx="6.590632" ry=".496565" width="8.363971" x="13.386724" y="39.614044"/></g></g><g transform="matrix(-.24034469 -.0475754 0 .24034469 22.985888 22.135154)"><path d="m13.732812 37.130722c2.617383.0019 5.234993-.0039 7.852235.0029.446745.09769.625056.594662.749513.983995.243373.926721.234365 1.944273-.117445 2.842323-.130824.332526-.406477.71401-.81034.655302-2.574532-.0019-5.14929.0039-7.72368-.0029-.446744-.09769-.625055-.594663-.749512-.983997-.243374-.926721-.234365-1.944272.117445-2.842323.128087-.283852.329415-.641629.681784-.655301z" fill="#3f3f3f"/><g stroke="#000" stroke-width=".035951"><rect height=".055858" rx="6.56736" ry=".496565" width="8.363971" x="13.386724" y="37.425003"/><rect height=".055858" rx="6.56736" ry=".496565" width="8.363971" x="13.386724" y="41.255825"/><rect height=".055858" rx="6.56736" ry=".496565" width="8.363971" x="13.386724" y="40.161304"/><rect height=".055858" rx="6.56736" ry=".496565" width="8.363971" x="13.386724" y="39.066784"/><rect height=".055858" rx="6.56736" ry=".496565" width="8.363971" x="13.386724" y="38.519524"/><rect height=".055858" rx="6.56736" ry=".496565" width="8.363971" x="13.386724" y="40.708565"/><rect height=".055858" rx="6.56736" ry=".496565" width="8.363971" x="13.386724" y="37.972263"/><rect height=".055858" rx="6.56736" ry=".496565" width="8.363971" x="13.386724" y="39.614044"/></g></g><path d="m20.999421 30.012301c1.350887.0655 2.701775.131002 4.052663.196502.202629.04061.238986.198421.280733.307428.05297.225332.05221.468259-.119053.664174-.131485.116016-.09408.04285-.421853.138299-1.309467.171064-2.483024.01364-3.79249-.267656-.20263-.04061-.238987-.198421-.280733-.307427-.05297-.225332-.05221-.46826.119052-.664175.0357-.03384.08785-.07002.161681-.06715z" fill="url(#b)" stroke="#000" stroke-width=".052044"/><rect fill="#181818" height=".858231" rx=".236332" ry=".233148" transform="matrix(.41581301214 .02112775612 -.07075189685 .41029346987 14.695088 18.901693)" width=".861197" x="19.964918" y="26.697214"/><rect fill="#181818" height=".858231" rx=".236332" ry=".233148" transform="matrix(.41581301214 .02112775612 -.07075189685 .41029346987 14.695088 18.901693)" width=".861197" x="21.377409" y="26.946699"/><rect fill="#181818" height=".858231" rx=".236332" ry=".233148" transform="matrix(.41581301214 .02112775612 -.07075189685 .41029346987 14.695088 18.901693)" width=".861197" x="22.789902" y="27.266041"/><rect fill="#181818" height=".858231" rx=".236332" ry=".233148" transform="matrix(.41581301214 .02112775612 -.07075189685 .41029346987 14.695088 18.901693)" width=".861197" x="24.202396" y="27.485588"/><rect fill="#181818" height=".858231" rx=".236332" ry=".233148" transform="matrix(.41581301214 .02112775612 -.07075189685 .41029346987 14.695088 18.901693)" width=".861197" x="25.614889" y="27.425713"/><rect fill="#181818" height=".858231" rx=".236332" ry=".233148" transform="matrix(.41581301214 .02112775612 -.07075189685 .41029346987 14.695088 18.901693)" width=".861197" x="27.027384" y="27.146288"/><rect fill="#181818" height=".858231" rx=".236332" ry=".233148" transform="matrix(.41581301214 .02112775612 -.07075189685 .41029346987 14.695088 18.901693)" width=".861197" x="28.439877" y="27.006577"/><g transform="matrix(.15210113 0 -.04066217 .15210113 23.36472 25.634936)"><circle cx="18.241751" cy="33.910843" fill="none" r=".593228" stroke="#ea9d1b" stroke-width=".3"/><path d="m18.132359 32.870544h.206833v.903937h-.206833z" fill="#ea9d1b" stroke="#181818" stroke-width=".02"/></g></g></svg>