<svg height="288" viewBox="0 0 306 288" width="306" xmlns="http://www.w3.org/2000/svg" xmlns:xlink="http://www.w3.org/1999/xlink"><filter id="a"><feGaussianBlur stdDeviation="3.982787"/></filter><linearGradient id="b" gradientUnits="userSpaceOnUse" x1="742" x2="742" y1="92" y2="576"><stop offset="0" stop-color="#f00"/><stop offset="1" stop-color="#800000"/></linearGradient><radialGradient id="c" cx="154.49001" cy="507.67999" gradientTransform="matrix(-.11869 2.956 -2.58 -.10359 1797.5 -275.65)" gradientUnits="userSpaceOnUse" r="89.498001"><stop offset="0" stop-color="#fff" stop-opacity=".8"/><stop offset="1" stop-color="#fff" stop-opacity="0"/></radialGradient><g transform="matrix(.70216437 -.20025316 .19865217 .72778207 -403.496567 50.39689)"><path d="m666.96 125.24c-37.63-8.31-81.08-1.06-114.02 29.91-28.16 27.26-40.88 72.83-36.39 112.35 4.56 52.15 27.52 96.52 52.3 136.38 25.02 39.26 54.3 74.45 86.24 105.49 8.51 2.55 17.04-4.08 25.62-5.5 63.3-20.7 126.94-49.02 181.41-97.5 28.63-26.11 54.28-62.16 60.85-104.49 5.33-35.16-5.34-70.1-25.68-92.46-28.22-33.18-70.08-49.83-111.9-44.51-16.67 2.8-33.74 10.78-46.01 26.11-5.21-29.42-26.9-48.53-49.43-58.22-7.35-3.33-15.12-5.8-22.99-7.56z" fill="#808080" filter="url(#a)"/><path d="m664.96 117.24c-37.63-8.31-81.08-1.06-114.02 29.91-28.16 27.26-40.88 72.83-36.39 112.35 4.56 52.15 27.52 96.52 52.3 136.38 25.02 39.26 54.3 74.45 86.24 105.49 8.51 2.55 17.04-4.08 25.62-5.5 63.3-20.7 126.94-49.02 181.41-97.5 28.63-26.11 54.28-62.16 60.85-104.49 5.33-35.16-5.34-70.1-25.68-92.46-28.22-33.18-70.08-49.83-111.9-44.51-16.67 2.8-33.74 10.78-46.01 26.11-5.21-29.42-26.9-48.53-49.43-58.22-7.35-3.33-15.12-5.8-22.99-7.56z" fill="#800000"/><path d="m663.63 123.01c-33.03-7.07-70.23-2.5-100.87 20.92-24.02 18.01-39.91 50.09-42.99 82.49-4.63 44.42 9.3 86.03 26.55 121.95 27.94 56.12 65.74 103.69 107.06 145.5 3.27 5.25 9.32.09 13.99-.42 56.43-17.38 112.64-41.17 163.75-78.1 31.8-23.62 63.2-54.44 78.37-96.22 11.08-29.56 10.56-63.49-2.09-89.18-17.24-35.71-49.65-57.3-83.75-65.48-23.9-5.24-51.53-4.71-73.83 13.16-6.61 5.41-12.3 12.49-16.4 20.74 1.36-27-14.46-48.07-32.45-59.78-11.48-7.59-24.15-12.64-37.34-15.58z" fill="url(#b)"/><path d="m653.7 131.04c-41.51-10.16-89.71 10.06-108.65 49.12-18.64 40.69-12.73 88.49 4.86 128.35 15.09 34.26 33.77 67.42 56.59 97.25l116.19-205.05c-10.39-3.85-16.72-16.09-16.32-26.98-5.77-23.96-30.38-37.45-52.67-42.69z" fill="url(#c)"/></g></svg>