<svg height="16" viewBox="0 0 13 16" width="13" xmlns="http://www.w3.org/2000/svg"><g fill-rule="evenodd" stroke-linecap="round"><rect fill="#008000" height="2.000017" ry=".977618" stroke="#008000" width="8" x="4.5" y="9.5"/><rect fill="#f00" height="2.000017" ry=".977618" stroke="#f00" width="8" x="4.5" y="6.5"/><rect fill="#cd9a00" height="2.000017" ry=".977618" stroke="#cd9a00" width="8" x="4.5" y="3.5"/><rect fill="#00009b" height="2.000017" ry=".977618" stroke="#00009b" width="8" x="4.5" y=".5"/><rect fill="#008000" height="2.000017" ry=".977618" stroke="#008000" width="8" x="3.500001" y="10.5"/><rect fill="#f00" height="2.000017" ry=".977618" stroke="#f00" width="8" x="3.500001" y="7.5"/><rect fill="#cd9a00" height="2.000017" ry=".977618" stroke="#cd9a00" width="8" x="3.500001" y="4.5"/><rect fill="#00009b" height="2.000017" ry=".977618" stroke="#00009b" width="8" x="3.500001" y="1.5"/><rect fill="#008000" height="2.000017" ry=".977618" stroke="#008000" width="8" x="2.500001" y="11.5"/><rect fill="#f00" height="2.000017" ry=".977618" stroke="#f00" width="8" x="2.500001" y="8.5"/><rect fill="#cd9a00" height="2.000017" ry=".977618" stroke="#cd9a00" width="8" x="2.500001" y="5.5"/><rect fill="#00009b" height="2.000017" ry=".977618" stroke="#00009b" width="8" x="2.500001" y="2.5"/><rect fill="#008000" height="2.000017" ry=".977618" stroke="#008000" width="8" x="1.5" y="12.5"/><rect fill="#f00" height="2.000017" ry=".977618" stroke="#f00" width="8" x="1.5" y="9.5"/><rect fill="#cd9a00" height="2.000017" ry=".977618" stroke="#cd9a00" width="8" x="1.5" y="6.5"/><rect fill="#00009b" height="2.000017" ry=".977618" stroke="#00009b" width="8" x="1.5" y="3.5"/><g fill="#fff"><rect height="2.000017" ry=".977618" stroke="#008000" width="8" x=".5" y="13.5"/><rect height="2.000017" ry=".977618" stroke="#f00" width="8" x=".5" y="10.5"/><rect height="2.000017" ry=".977618" stroke="#cd9a00" width="8" x=".5" y="7.5"/><rect height="2.000017" ry=".977618" stroke="#00009b" width="8" x=".5" y="4.5"/></g></g></svg>