<svg height="16" viewBox="0 0 16 16" width="16" xmlns="http://www.w3.org/2000/svg"><g fill="#ac39ac" stroke-width=".163195"><path d="m9.504122 11.274212c.363434 0 .654083-.29326.654083-.655389 0-.360823-.290649-.6565323-.654083-.6565323-.3621288 0-.6565318.2957093-.6565318.6565323 0 .362129.294566.655389.6565318.655389zm6.49449 4.725788c-3.884846.05744-7.9443108-.685907-11.0526768-3.180988-.01909-.01779-.02807-.0421-.02807-.07017 0-.05989.04847-.10575.104608-.10575l3.063651.0038c.146549 0 .27025-.121091.27025-.270251 0-.112277-.05092-.189958-.170864-.24985l-2.768759-1.322856c-.05222-.03182-.08796-.08796-.08796-.155524 0-.04847.0204-.09302.05222-.127455 0 0 3.374863-2.9820543 10.6177638-2.9171023v8.3961963z"/><path d="m14.415629 1.0003817c-2.398144.02676-4.402926.503772-7.0370498 2.663488-.09824-.02676-.3370621-.1063071-.3370621-.1063071-.418105 0-.758528.339118-.758528.75608 0 0 .02938.14149.04716.228146-.08013.0754-2.487106 2.5077346-2.487106 2.5077346l-1.7451365 1.7030285c-.169559.155525-.3723202.1946981-.6030772.1844171-.228146-.01142-.3723758-.0888749-.52528879-.2571289-.147854-.1645-.220639-.3156983-.220639-.5209973 0-.233368.0384475-.4798306.22334749-.6480836.3889735-.3361281 2.1018492-1.7562031 3.0263629-2.510759h-3.25964078l.64346338 1.1181793c-.38382261.2298853-.55908012.3027374-1.0127656.8413821s-.53596585 1.6915281.01497418 2.3022021c.554535.611979 1.67296982.7380905 2.28364382.1846975l.01665-.0204 1.684904-1.664501s2.4958136-2.4131229 2.5646816-2.4795439c.101996.02807.302236.07784.302236.07784.416962 0 .754775-.339118.754775-.757386 0 0-.01909-.110972-.03443-.189958 2.5474664-2.095908 4.2593164-2.3549295 6.4911644-2.3803885.457761-.0051.824949-.00636 1.426647.121094l.123701.02807v-.9896489l-.08029-.01779c-.621772-.132677-1.03139-.178535-1.503022-.173476z"/></g></svg>