<svg height="841.88976pt" width="595.27559pt" xmlns="http://www.w3.org/2000/svg"><g stroke-linejoin="round" transform="matrix(1.340218 0 0 1.340218 -653.5452 7.795854)"><path d="m796.8125 295.5c-.87575.08953-1.79246.40048-2.75.9375-6.26356 3.51284-1.11629 104.87666-27.09375 196.4375-8.97624-24.80427-42.99061-57.69588-89.78125-83.90625-63.24383-35.42684-125.80809-45.23801-139.65625-21.90625-13.84814 23.33175 26.22494 71.01067 89.46875 106.4375 53.2999 29.85661 106.01238 41.44166 129.59375 30.40625-6.78395 17.66096-14.85325 34.54151-24.90625 49.53125-65.83589 98.16593-173.25295 73.18272-176.15625 78.6875-30.59699 58.01098 126.47663 40.91594 192.3125-57.25 15.71762-23.43609 28.2892-53.68766 37.9375-85.90625.23459.41062.35958.88868.625 1.28125 15.19653 22.4768 75.41993 6.56112 134.4375-35.53125 59.01758-42.09238 94.57155-94.49195 79.37505-116.96875-15.19651-22.47681-75.41997-6.56113-134.43755 35.53125-29.57094 21.09053-53.26506 44.76238-67.625 65.96875 17.14781-84.21617 15.73377-165.49593-1.34375-163.75z" fill="#35e23e" stroke="#12892d" stroke-linecap="round" stroke-width="17.004999"/><g stroke="#f58006" stroke-width="4.02477"><path d="m521.87211 275.23304c-43.01606-29.58772 2.17555-28.10945-47.10459-10.86759-26.51418 9.27664 3.60143 50.21506 11.5895 23.28462 14.8469-50.05381 27.40597-6.61722-4.22043-48.15739-17.01594-22.34985-46.64446 18.94247-18.56363 18.21761 52.19194-1.34723 14.76226 24.01979 44.49622-18.89531 15.99775-23.08961-32.42929-38.50798-23.06246-12.02552 17.40949 49.22117-18.28239 21.46227 31.7206 36.47944 26.9031 8.07969 26.60206-42.7417 4.31025-25.64979-41.43228 31.7676-26.0614-10.75537-24.8918 41.44086.62927 28.08312 48.87026 12.09215 25.72634-3.82693z" fill="#fa9806" transform="matrix(4.224992 0 0 4.224992 -1287.368 -859.238)"/><path d="m539.80589 261.93216a8.8174267 8.8174267 0 1 1 -17.63485 0 8.8174267 8.8174267 0 1 1 17.63485 0z" fill="#fadc06" transform="matrix(4.224992 0 0 4.224992 -1440.171 -885.7572)"/></g></g></svg>