<svg height="672.13373" width="568.07068" xmlns="http://www.w3.org/2000/svg"><g stroke="#000" transform="translate(-70.97456 -194.21143)"><path d="m474.14884 842.22152c0 13.27833-41.24707 24.05495-92.06934 24.05495-50.82228 0-92.06934-10.77662-92.06934-24.05495 0-6.63917-19.05518-103.05297-28.58277-163.66446 57.14331-.08614 85.71656-.06441 111.12769-.06441 25.41114 0 50.80958-4.67752 131.76393-4.59139-17.46461 82.33855-30.17017 161.68109-30.17017 168.32026z" fill="#ff9602" stroke-linecap="round" stroke-linejoin="round" stroke-width=".137337"/><path d="m507.48428 671.50894c0 18.41833-56.53692 33.36655-126.19849 33.36655s-126.19849-14.94822-126.19849-33.36655c0-9.20916 1.83186-11.18788.86275-38.95428 44.03375.24598 90.50496 5.58773 125.33574 5.58773s66.2841-2.48328 125.73259-4.19099c.49081 21.49503.4659 28.34838.4659 37.55754z" fill="#ff9602" stroke-linecap="round" stroke-linejoin="round" stroke-width=".137337"/><path d="m507.48428 635.81449c0 18.41834-56.53692 33.36655-126.19849 33.36655s-126.19849-14.94821-126.19849-33.36655c0-18.41833 56.53692-33.36654 126.19849-33.36654s126.19849 14.94821 126.19849 33.36654z" fill="#ff9602" stroke-linecap="round" stroke-linejoin="round" stroke-width=".137337"/><path d="m534 459.86218a179 27.5 0 1 1 -358 0 179 27.5 0 1 1 358 0z" fill="#5d3c0e" stroke-linecap="round" stroke-linejoin="round" stroke-width=".25" transform="matrix(.552489 0 0 .543176 183.3266 402.2847)"/><path d="m383 510.36218c50 33-14 144-14 144l29-1s36-72 27-115c-5-54-162-147-168-159z" fill="#47b302" fill-rule="evenodd"/><g stroke-linecap="round" stroke-linejoin="round"><path d="m292 241.36218c0 27.048-23.296 93-52 93s-52-65.952-52-93 26.296-61 53-41c27.704-20 51 13.952 51 41z" fill="#fd19d2" stroke-width=".25"/><path d="m388.55155 342.70593c-21.79213 16.0218-88.72785 36.31907-105.73058 13.19273-17.00271-23.12632 22.3344-80.96198 44.12651-96.98376 21.79212-16.0218 64.72302-14.94693 64.42739 18.41497 32.52404 10.47372 18.96878 49.35427-2.82332 65.37606z" fill="#fd19d2" stroke-width=".25"/><path d="m349.8486 283.15229c-11.28427 24.5817-59.97086 74.80108-86.05756 62.82594-26.08669-11.97514-19.74371-81.63243-8.45945-106.21411 11.28427-24.5817 49.3471-44.46734 65.27228-15.15024 33.52176-6.6184 40.52899 33.95673 29.24473 58.53841z" fill="#fd19d2" stroke-width=".25"/><path d="m383.19092 408.61363c-26.65952 4.56784-95.59845-7.25563-100.44595-35.54736-4.8475-28.29171 56.22302-62.39103 82.88251-66.95886 26.6595-4.56784 64.56469 15.61666 49.36171 45.31469 24.39136 23.92851-5.13879 52.62368-31.79827 57.19153z" fill="#fd19d2" stroke-width=".25"/><path d="m328.0922 488.28939c-23.97175-12.52798-71.63269-63.72178-58.33769-89.16118 13.29498-25.43939 82.53619-15.53853 106.50791-3.01056 23.97174 12.52797 41.88262 51.55895 11.78866 65.96232 4.89352 33.81664-35.98715 38.73737-59.95888 26.20942z" fill="#fd19d2" stroke-width=".25"/><path d="m178.92382 504.90726c1.38994-27.01227 28.04427-91.68002 56.71036-90.20497 28.66606 1.47503 48.54218 68.53702 47.15224 95.54927-1.38994 27.01227-29.39589 59.56811-55.03686 38.2223-28.69515 18.54994-50.21566-16.55435-48.82574-43.5666z" fill="#fd19d2" stroke-width=".25"/><path d="m253.3573 517.8375c-14.45657-22.86051-30.01714-91.05317-5.75701-106.39483 24.2601-15.34166 79.1994 27.94859 93.65595 50.80907 14.45657 22.86049 10.37828 65.61074-22.88103 62.97982-12.72536 31.71084-50.56134 15.4664-65.01791-7.39406z" fill="#fd19d2" stroke-width=".25"/><path d="m114.0775 445.45733c15.04729-22.47607 71.09582-64.32022 94.94798-48.35165 23.85214 15.96854 6.52016 83.73263-8.52713 106.20869-15.04729 22.47607-55.78654 36.06022-66.85041 4.58493-34.147546 1.20718-34.617708-39.9659-19.57044-62.44197z" fill="#fd19d2" stroke-width=".25"/><path d="m166.59759 264.1637c22.8378 14.4924 66.04189 69.49945 50.66219 93.73549-15.37967 24.23602-83.54786 8.56862-106.38565-5.92377-22.837799-14.4924-37.415484-54.88679-6.22056-66.7181-2.04302-34.10774 39.1062-35.58599 61.94402-21.09362z" fill="#fd19d2" stroke-width=".25"/><path d="m110.89019 343.51514c26.51719-5.33228 95.7675 4.50462 101.42624 32.64533 5.65876 28.14067-54.40631 63.9814-80.92349 69.31368-26.51719 5.33228-64.986901-13.75428-50.643892-43.87705-25.069133-23.21746 3.623961-52.74964 30.141142-58.08196z" fill="#fd19d2" stroke-width=".25"/><path d="m228.49374 235.40574c12.3831 24.0469 21.86604 93.34656-3.65313 106.48781-25.51914 13.14125-76.42447-34.82767-88.80757-58.87456-12.3831-24.0469-4.54868-66.27056 28.34877-60.7153 15.47369-30.46435 51.72879-10.94484 64.11193 13.10205z" fill="#fd19d2" stroke-width=".25"/><path d="m298 376.36218a59 58 0 1 1 -118 0 59 58 0 1 1 118 0z" fill="#fdfa19" stroke-width=".25"/><path d="m638.50905 453.95027c.89556 1.32588-52.06274 11.78933-105.82547 78.5591-80.46188 55.55404-89.69955-5.05985-110.19263 9.26472 21.47877-16.43844-30.38506-33.77996 54.22021-92.13261 68.03168-47.15818 162.02178 4.64026 161.79789 4.30879z" fill="#47b302" stroke-width="1.05"/></g><path d="m425 539.36218c87-91 138-83 138-83" fill="none" stroke-width="2.2"/></g></svg>