<svg height="16" viewBox="0 0 16 16" width="16" xmlns="http://www.w3.org/2000/svg"><path d="m5 1.0000003v9.5312497c-.419737-.318836-.935465-.53125-1.5-.53125-1.37479 0-2.5 1.12521-2.5 2.5s1.12521 2.5 2.5 2.5c1.202941 0 2.203332-.863626 2.4375-2h.125c.234168 1.136374 1.234559 2 2.4375 2 1.37479 0 2.5-1.12521 2.5-2.5s-1.12521-2.5-2.5-2.5c-.564535 0-1.080263.212414-1.5.53125v-9.5312497zm4 0v2h4v.9999997h-4v1h4v1h-4v1h4v1h-4v1h4v6h2v-11.9999997c0-1-1-2-2-2zm-5.5 9.9999997c.834349 0 1.5.665651 1.5 1.5s-.665651 1.5-1.5 1.5-1.5-.665651-1.5-1.5.665651-1.5 1.5-1.5zm5 0c.834349 0 1.5.665651 1.5 1.5s-.665651 1.5-1.5 1.5-1.5-.665651-1.5-1.5.665651-1.5 1.5-1.5z" fill="#ac39ac"/></svg>