<svg height="160" viewBox="0 0 150 160" width="150" xmlns="http://www.w3.org/2000/svg" xmlns:xlink="http://www.w3.org/1999/xlink"><clipPath id="a"><path id="b" d="m55.8 12 .76.16c8.84-2.94 28.68 8.64 24.26 18.96-1.12 1.62-.93 4.5.42 6.31l-24.81 24.82c-1.39-1.39-4.48-1.36-5.9 0l-41.03 39.38c-3.74 3.59-.8 6.64.78 8.25l7.36 7.36c1.61 1.6 5.86 3.76 8.88.56l38.72-40.81c1.35-1.42 1.36-4.47 0-5.87 0 0 .01-.02 0-.02l24.91-24.9c2.63 2.37 5.113827 2.574854 7.47 1.93 4.55057-1.245432 7.08725 3.206643 9.81 6.46l-1.23 1.21c-1.82 1.84-1.65 4.94.39 6.98s5.15 2.21 6.97.39l8.14-8.13c1.82-1.84 1.65-4.94-.4-6.97-1.84-1.85-4.51-2.09-6.37-.77-5.58-6.26-2.65-7.2-10.01-15.35l-13.79-14.09c-9.93-9.74-22.83-9.73-35.33-5.86z"/></clipPath><clipPath id="c"><path id="d" d="m22.42 17.2 12.96 12.95-2.5 8.78-8.78 2.5-12.96-12.96-5.86 5.86 14.89 21.46 17.56-3.34 61.63 65.62c9.44 9.51 22.17-4.75 13.34-12.87l-65.85-62.28 4.01-17.76-22.14-14.27zm81.06 91.97c1.68-1.68 4.4-1.68 6.08 0s1.68 4.4 0 6.08c-1.68 1.67-4.4 1.67-6.08 0-1.68-1.68-1.68-4.4 0-6.08z"/></clipPath><g fill="#ac39ac" stroke="#ac39ac" stroke-linecap="round" stroke-linejoin="round" transform="translate(0 -893.3622)"><g stroke-width="2.347101" transform="matrix(-.7932034 -.82221181 .82237152 -.79304936 118.77808 1082.9729)"><use height="580" width="580" xlink:href="#d"/><use height="580" width="580" xlink:href="#d"/><use height="580" width="580" xlink:href="#d"/><use clip-path="url(#c)" height="580" width="580" xlink:href="#d"/><path d="m24.33 15.4 13.45 13.38-3.33 11.69-10.95 3.27-13.5680583-13.74-4.7319417 4.54 14.2 19.94 18.9-4.14 62.5 66.36c7.5 8.3 20.2-2.67 11.14-11.6l-66.9-63.1 3.86-17.17-19.96-14.03zm79.97 93.3c1.67-1.67 4.63-2 6.3-.3 1.7 1.67 3.06 4.63.65 7.84-2 2-5.2 1.92-7.2-.24-1.68-1.68-1.45-5.6.25-7.3z"/><path d="m24.2 15.42 23.47 23.65 3.22-13.87-22.1-14.4z"/></g><use clip-path="url(#a)" height="580" stroke-width="2.535154" transform="matrix(.92415346 -.92676516 .92694517 .92397399 -62.691105 961.36308)" width="580" xlink:href="#b"/></g></svg>