<svg height="16" viewBox="0 0 16 16" width="16" xmlns="http://www.w3.org/2000/svg"><g transform="translate(0 -1037.3622)"><path d="m66.275 1.768c-41.335 0-64.571 21.371-64.571 65.036v450.123c0 40.844 20.895 62.229 62.192 62.229h452.024c41.307 0 62.229-20.315 62.229-62.229v-450.123c0-42.601-20.922-65.036-63.521-65.036-.004 0-448.495-.143-448.353 0z" fill="#fff" transform="matrix(.02775633 0 0 .02770795 -.047297 1037.315)"/><path d="m7.7880704 1042.4533h.293326c1.6361054 0 2.5747476 1.5584 2.5812656 2.6109-.0065.205-.05703.3807-.290066.3758-.4905058 0-.31451-.7825-.7186481-1.4527-.1906618-.3302-.805016-.9272-1.5057385-.9223h-.257475c-.3748047-.01-1.0820458.2114-1.5562558.9223-.5915401.859-.2036985 1.4885-.7007225 1.4852-.076591 0-.2965848-.02-.2933255-.3741.022814-1.6154 1.5057385-2.6418 2.4476398-2.6451z"/><path d="m8.0113242 1051.3858c.6143542.01 1.0885641-.6149 1.0950825-1.0428v-.8882c-.00652-1.8187 1.9066173-2.5361 1.9000983-4.3564.0065-1.7048-1.5367005-2.9932-2.9951808-2.99-1.209154 0-2.033725.776-2.3449763 1.1794-.9353832 1.155-.3976191 2.2563-1.0592318 2.2563-.1874025 0-.3731754-.1057-.3748049-.4799-.029333-1.8057 1.4633694-3.7203 3.8164932-3.7236 1.8968398 0 3.7627166 1.5129 3.7627166 3.8277 0 2.1441-1.8805433 2.5931-1.8805433 4.4752v.8036c0 .8264-.738203 1.7716-1.9506157 1.7764-.043999-.013-.096146-.029-.1531816-.034-.2232532-.067-.378064-.3009-.3242877-.5286.063554-.1985.2476971-.2473.497024-.2733h.011408z"/><path d="m-739.53094 743.32471h1.073982v2.932118h-1.073982z" transform="matrix(.70652334 -.70768974 .70892131 .70528758 0 0)"/><path d="m7.1182774 1045.8728c.00391-.2596.2053278-.4626.4614992-.4607.248349 0 .4497656.203.4614991.4607-.011736.2401-.2131501.4451-.4614991.4353-.2561714.01-.4575883-.1952-.4614992-.4353z"/><path d="m1.0893936 1051.8875c-.011736-.244.1955503-.447.4399885-.4353.2561711-.014.4575884.1913.4614992.4353-.00391.2577-.2053281.4588-.4614992.4607-.2444382 0-.4517215-.205-.4399885-.4607z"/><path d="m3.096483 1049.8881c0-.2557.2033726-.4587.4614991-.4607.2405274 0 .4478109.205.4360773.4607.011736.246-.1955499.447-.4360773.4607-.2581265-.014-.4614991-.2147-.4614991-.4607z"/><g clip-rule="evenodd" fill-rule="evenodd"><path d="m9.3624511 1040.3672c1.6198099.4099 2.9185909 1.6333 3.4253929 3.2128l.598058-.1887c-.578503-1.7796-2.023947-3.1607-3.8507146-3.6211l-.1711068.6149v-.018h-.00163z"/><path d="m10.313345 1038.5681.169477-.6149c2.263496.5677 4.073968 2.2709 4.792616 4.4751l-.63391.205c-.648576-1.9879-2.28794-3.5414-4.328183-4.0652z"/></g></g></svg>