<svg height="16" viewBox="0 0 16 16" width="16" xmlns="http://www.w3.org/2000/svg"><g transform="translate(0 -1036.3622)"><path d="m7.5 1037.3613c-1.9270768 0-3.5 1.5729-3.5 3.5s1.5729232 3.5 3.5 3.5 3.5-1.5729 3.5-3.5-1.5729232-3.5-3.5-3.5z" fill="#ac39ac"/><path d="m7.5007686 1039.148v1.7135l1.5383171.7158" fill="none" stroke="#fff" stroke-linecap="round" stroke-linejoin="round"/><g fill="#ac39ac" fill-rule="evenodd"><path d="m12.492188 1037.3173a.50004994.50004994 0 0 0 -.492188.5058v7.5391h-1l-1 6h5l-1-6h-1v-7.5391a.50004994.50004994 0 0 0 -.507812-.5058z"/><path d="m1 1044.3722 1 1.99-1 5.0022h4l-1-5.0022.5022826-1h.4977174v2h1v-3z"/></g></g></svg>