<svg height="577.45203" width="577.45197" xmlns="http://www.w3.org/2000/svg"><g transform="translate(-43.206071 -260.77882)"><path d="m402.15692 375.45377h141.39085v140.98672h-141.39085z" fill="#fff" stroke-linecap="square" stroke-linejoin="round" stroke-width="1.129"/><g fill="#06f"><path d="m57.166 279.626 40.712-154.184h108.298l43.72 154.184z" transform="matrix(.97903483 0 0 1.0576771 60.700564 227.59602)"/><path d="m194.83911 494.229h32.347313v289.26938h-32.347313z"/><path d="m311.84154 794.1746c0 5.89761-44.24227 10.6762-98.80881 10.6762-54.56488 0-98.80716-4.77859-98.80716-10.6762 0-5.8976 44.24228-10.67619 98.80716-10.67619 54.56654 0 98.80881 4.77753 98.80881 10.67619z"/></g><g fill="#8e3900" transform="matrix(.93837554 0 0 .88379798 76.599274 280.78345)"><path d="m307.59 304.929 39.597-43.291v-149.752l-39.597-43.293z"/><path d="m531.824 65.115h-219.284l38.413 41.998h142.458z"/><path d="m531.929 308.521-38.414-41.998h-142.666l-38.413 41.998z"/><path d="m537.079 68.26-39.597 43.293v150.419l39.597 43.292z"/></g><path d="m547.76931 627.02952.78659-.77959h-175.80458l.78659.77959 34.78756 34.47766 8.52803 8.45207s-79.14226 72.88438-21.14488 119.37073c11.97284 9.59688 25.2337 15.22281 38.73863 18.122 8.7274 1.87291 17.55509 2.60579 26.20636 2.52556 8.65128.079 17.48017-.65265 26.20636-2.52556 13.50494-2.89919 26.76459-8.52512 38.73863-18.122 57.99739-46.48516-21.14488-119.37073-21.14488-119.37073l8.52803-8.45207z" fill="#677821"/></g></svg>