<svg height="181.3219" width="181.40341" xmlns="http://www.w3.org/2000/svg" xmlns:xlink="http://www.w3.org/1999/xlink"><linearGradient id="a"><stop offset="0" stop-color="#fff"/><stop offset="1" stop-color="#fff" stop-opacity="0"/></linearGradient><linearGradient id="b"><stop offset="0" stop-color="#bfb800"/><stop offset=".5" stop-color="#f8fe05"/><stop offset="1" stop-color="#bfb800"/></linearGradient><linearGradient id="c" gradientUnits="userSpaceOnUse" x1="8.063587" x2="174.316541" xlink:href="#b" y1="102.862456" y2="102.862456"/><linearGradient id="d" gradientUnits="userSpaceOnUse" x1="-48.11252194066" x2="103.19423557406" xlink:href="#b" y1="127.29776663758" y2="127.29776663758"/><linearGradient id="e" gradientUnits="userSpaceOnUse" x1="353.58734" x2="359.00797" xlink:href="#a" y1="493.62003" y2="180.48428"/><linearGradient id="f" gradientUnits="userSpaceOnUse" x1="357.9162" x2="357.00049" xlink:href="#a" y1="152.25885" y2="440.06088"/><linearGradient id="g" gradientUnits="userSpaceOnUse" x1="361.19095" x2="360.27524" xlink:href="#a" y1="110.5407" y2="444.9689"/><linearGradient id="h" gradientUnits="userSpaceOnUse" x1="361.19095" x2="360.27524" xlink:href="#a" y1="80.282722" y2="444.9689"/><radialGradient id="i" cx="259.8519" cy="485.57144" gradientTransform="matrix(-.279365 .654874 -.658877 -.0877378 657.025 359.295)" gradientUnits="userSpaceOnUse" r="13.5" xlink:href="#a"/><path d="m91.138739 36.696728c-43.069098 0-78.023233 29.752497-78.023233 66.414422-.000005 36.66193 34.954135 66.41442 78.023233 66.41442 43.069091.00001 78.023211-29.75249 78.023211-66.41442.00001-36.661929-34.95412-66.414422-78.023211-66.414422zm0 15.19024c30.933601-.000004 56.040591 21.379585 56.040591 47.711354 0 26.331768-25.107 47.697628-56.040591 47.697628-30.933599 0-56.026888-21.36586-56.026888-47.697628-.000004-26.331769 25.093289-47.711354 56.026888-47.711354z"/><path d="m90.701857 29.348485c-48.151772-.000001-87.2309263 33.263657-87.2309263 74.252135-.0000047 40.98849 39.0791543 74.25214 87.2309263 74.25215 48.151773 0 87.230913-33.26366 87.230913-74.25215.00001-40.988483-39.07914-74.252135-87.230913-74.252135zm0 16.982877c34.584153-.000005 62.654073 23.902634 62.654073 53.341877 0 29.439241-28.06993 53.326541-62.654073 53.326541-34.584137 0-62.638738-23.8873-62.638738-53.326541-.000005-29.439243 28.054596-53.341877 62.638738-53.341877z"/><g transform="matrix(.18938966 0 0 .18938966 -63.537578 -27.203563)"><path d="m812.27336 233.65414c-77.5924 0-145.00978 31.03659-178.91776 76.49839h-23.67657l.75865 75.45526c-2.58789 59.14115 96.31085 125.63028 203.82177 125.63026 107.51092 0 201.47605-56.55868 199.88115-125.63026l.7271-75.45526h-23.67658c-33.90977-45.45779-101.32954-76.49839-178.91776-76.49839z"/><ellipse cx="812.3984651018" cy="305.3261502726" rx="202.404069441" ry="143.369555515"/></g><path d="m91.190064 32.104076c-45.886101-.000001-83.126477 31.698515-83.126477 70.758384-.0000047 39.05986 37.240376 70.75837 83.126477 70.75838 45.886106 0 83.126476-31.69852 83.126476-70.75838.00001-39.059874-37.24037-70.758384-83.126476-70.758384zm0 16.183787c32.956876-.000005 59.706036 22.777952 59.706036 50.832001 0 28.054046-26.74917 50.817386-59.706036 50.817386-32.956863 0-59.691418-22.76334-59.691418-50.817386-.000005-28.054049 26.73455-50.832001 59.691418-50.832001z" fill="url(#c)"/><g transform="matrix(.467824 0 0 .467824 77.873922 -16.966091)"><path d="m27.54078 75.469492c-28.9747399 0-54.14991 11.58976-66.81191 28.566208h-8.84136l.28329 28.17669c-.96637 22.08464 35.96464 46.91317 76.11163 46.91317 40.147 0 75.23568-21.12029 74.64014-46.91317l.27148-28.17669h-8.84134c-12.66269-16.974958-37.83874-28.566208-66.81193-28.566208z" fill="url(#d)"/><ellipse cx="372.07529" cy="322.09503" fill="url(#e)" opacity=".187192" rx="199.92105" ry="141.61075" transform="matrix(.274552 0 0 .209226 -73.4314 80.2833)"/><ellipse cx="27.58815621269" cy="102.23366913683" fill="#c0b900" rx="75.58235208405" ry="53.53750175575"/><ellipse cx="27.47489189488" cy="104.11990896016" fill="#c2bc00" rx="74.1051354456" ry="52.491139924"/><ellipse cx="372.07529" cy="322.09503" fill="url(#f)" opacity=".340049" rx="199.92105" ry="141.61075" transform="matrix(.335835 0 0 -.298769 -96.9713 208.929)"/><ellipse cx="372.07529" cy="322.09503" fill="url(#g)" opacity=".630542" rx="199.92105" ry="141.61075" transform="matrix(.289277 0 0 .257349 -78.325 5.61153)"/><ellipse cx="28.14047845892" cy="98.95691647644" fill="#c0b900" rx="56.0874507354" ry="39.728612691"/><ellipse cx="28.30794343416" cy="99.63132791112" fill="#697dbc" rx="53.5196647692" ry="37.909764218"/><ellipse cx="372.07529" cy="322.09503" fill="url(#h)" rx="199.92105" ry="141.61075" transform="matrix(.231516 0 0 .205964 -57.3698 26.0148)"/><circle cx="264.5" cy="486.86218" fill="url(#i)" opacity=".5" r="13.5" transform="matrix(-.0421347 -1.12142 1.96207 -.0881344 -915.908 462.77)"/></g></svg>