<svg height="16" viewBox="0 0 16 16" width="16" xmlns="http://www.w3.org/2000/svg"><g transform="translate(0 -146)"><path d="m11.637686 147.84089c-.471062-1.19032-2.2445493-.70114-3.2984803-.86197-.871987-.13302-1.656705-.68741-2.526724-.88115-1.644784-.36622-4.016301.32743-4.94488504 1.56172-.945922 1.25768-1.041755 3.05217-.653493 4.47179.142778.52206.474119.98832.622255 1.51069.27382904.9658.38401404 2.20924.32452404 3.20314-.05521.92077-1.35311904 2.39658-.71884004 3.26254.372256.50921 1.18633804.77129 1.79096404 1.01444 1.639692.65968 3.39767.87891 5.182037.87791.663654 0 1.912607-.18236 2.446054-.56202.2782393-.19831.2127303-.62979.2527763-.90682.106134-.73442.110995-1.64621.547799-2.29693 1.088304-1.61931 2.465613-3.09871 3.676255-4.65265.549766-.70662 1.311337-1.51139 1.543975-2.35672.241897-.88041.148147-2.27002-.620368-2.94057-.903931-.78833-2.327536-.75923-3.460632-.47025" fill="#fff"/><path d="m11.637686 147.84089c-.471063-1.19032-2.2445503-.70114-3.2984806-.86197-.8719868-.13302-1.6567054-.68741-2.5267246-.88115-1.6447841-.36622-4.016301.32743-4.94488467 1.56172-.94592158 1.25768-1.04175448 3.05217-.65349237 4.47179.14277712.52206.47411819.98832.62225409 1.51069.27382975.9658.38401445 2.20924.32452395 3.20314-.055208.92077-1.35311877 2.39658-.71883927 3.26254.37225523.50921 1.18633717.77129 1.79096397 1.01444 1.6396916.65968 3.3976696.87891 5.1820364.87791.6636544 0 1.912607-.18236 2.4460536-.56202.2782395-.19831.2127305-.62979.2527765-.90682.106134-.73442.110995-1.64621.547799-2.29693 1.088305-1.61931 2.465614-3.09871 3.676256-4.65265.549766-.70662 1.311337-1.51139 1.543975-2.35672.241897-.88041.148147-2.27002-.620368-2.94057-.903931-.78833-2.327535-.75923-3.460632-.47025m-4.1636389-.69834c-1.3680492.36631-2.64449 2.08071-2.6466891 3.24372-.016319.37349.1619783 1.13549.6112818 1.34884-.1962954-1.338.1995477-3.14486 1.6445642-3.96617.9957131-.56591 2.960635-.5962 3.803686.24215.522684.52017.565901 1.02404.474466 1.67286-.149305 1.05828-1.019382 1.81084-1.500861 2.71596.878236-.21286 1.999991-1.88674 2.046287-2.64756.0463-.76481-.361179-1.44194.749927-1.69964 2.222212-.51519 2.65339 1.11266 2.566585 2.62893-.09491.56342-.36391 1.19986-.722705 1.85116-.803237 1.09754-1.592585 1.93376-2.574142 3.15027-.318286.31121-1.152646 1.82369-1.741764 1.21184-.20162-.20926.05972-.50223.188772-.68758.445137-.63985.950574-1.2236 1.382286-1.87372-.862612.36512-1.224474 1.42911-2.1365069 1.89447-.4777756.24415-1.0740114.0762-1.1683397-.41086-.096412-.49755-.02691-1.25824.2541077-1.67288-.6299739.40049-.4708311 1.16241-1.009949 1.52623-.2825219.19034-.6950779.1164-1.0005163.051-.3282392-.0702-.8352971-.10263-1.0731432-.33123-.1767353-.1698-.00943-.5188-.0099-.72836-.0009259-.47085-.1737837-.90201-.3131351-1.35562 0 0 .077488 1.51424-.2803807 1.90307-.3392346.36851-1.6010922.20791-1.7074575-.20882l-.187962-1.33172c-.1847214.43626-.1155083.91751-.2996515 1.33973-.1111106.2548-.5276017.55545-.7257489.17598-.1791659-.34289-.08964-.95349-.1313073-1.33096-.058102-.52675-.372915-1.05928-.5277754-1.57457 0 0 .1997676 1.59858.2103 2.35672.00451.32974-.06228.96872-.3255888.62901-.2917811-.65241-.1684482-.97904-.3584473-1.64899-.14253415-.50263-.40786858-1.14403-.5568841-1.64298-.39065793-1.308-.13693224-2.68549.6483651-3.87142 1.0115579-1.52754 3.3837114-2.0489 5.1663421-1.32465.3707159.15067.584407.21377.8165818.51902m-3.9864285 2.26395.054745.0802c.1981589-.89689.8913963-2.00331 1.840385-2.31606-1.3056885-.51549-2.2545035 1.48787-1.8951302 2.23585m10.2474117-.66467c.232638.48789.277082.90221.159027 1.4458-.04514.43348-.186805.96662-.299073 1.39432.736108-.52725 1.082171-2.29792.140046-2.84012m-3.5796138 11.9649c-2.6233676-1.18882-6.3161978-1.91037-9.23805944-1.24471.0500114-.94268.81367684-1.75863.90013474-2.70331.029282-.31988-.08765-.62771.1953347-.8851.4336786-.39432 1.3128181-.30787 1.8845748-.30199 1.8832089.0192 3.8875978.33307 5.5465023 1.13366.4219888.20329 1.0678187.30883 1.3374937.67354.240045.32486-.2567.62259-.378806.92652-.2813644.70154-.3433318 1.52902-.3439105 2.27241m-.7714894.26068c.339929.18535.6111662.22082.314987.37528-2.0295045.3541-3.5897405.33937-5.3424524-.13333-.4543961-.13951-1.7633021-.42052-1.7163116-.97557.049537-.58595.9149843-.43527 1.3460008-.43527 1.8760331.0668 3.6865572.37069 5.3977762 1.16889z"/></g></svg>