<svg height="520" width="370" xmlns="http://www.w3.org/2000/svg"><g transform="translate(-214.64286 -311.71933)"><path d="m226.06091 329.36148h348.57144v491.42856h-348.57144z" fill="#fff" stroke="#000" stroke-width="7"/><path d="m223.20378 420.79004h348.57143" fill="none" stroke="#000" stroke-width="5"/><g transform="translate(2.020305 -56.568543)"><path d="m574.28571 702.36218a124.28571 124.28571 0 1 1 -248.57142 0 124.28571 124.28571 0 1 1 248.57142 0z" fill="#808080" stroke="#ddd" stroke-width="37.351879" transform="matrix(.8089401 0 0 .7974459 36.323589 89.265623)"/><path d="m485.71428 659.50507a61.42857 61.42857 0 1 1 -122.85714 0 61.42857 61.42857 0 1 1 122.85714 0z" fill="none" stroke="#c4c4c4" stroke-width="5" transform="translate(-23.939072 -10.1436)"/><path d="m309.59274 617.17902h27.222099v64.36496h-27.222099z" fill="#b3b3b3" stroke="#d0d0d0" stroke-width="3.492185"/></g><path d="m505.7143 366.64789a17.142857 17.142857 0 1 1 -34.28571 0 17.142857 17.142857 0 1 1 34.28571 0z" fill="#505050" stroke="#505050" stroke-width="5" transform="translate(23.203772 11.284993)"/><g stroke="#000"><path d="m340.34663 329.36147v88.57142" fill="none" stroke-width="5"/><path d="m226.41806 396.90206h112.85715" fill="none" stroke-width="2.661056"/><path d="m382.13235 392.86148h10v2.857143h-10z" fill="#505050" stroke-width="7"/><path d="m405.94186 392.86148h10v2.857143h-10z" fill="#505050" stroke-width="7"/><path d="m429.7514 392.86148h10v2.857143h-10z" fill="#505050" stroke-width="7"/><path d="m453.56091 392.86148h10v2.857143h-10z" fill="#505050" stroke-width="7"/></g></g></svg>