<svg height="16" width="16" xmlns="http://www.w3.org/2000/svg"><path d="m16.400665 45.785957h13.67659v9.175686h-13.67659z" fill="#b3b3b3" stroke="#000" stroke-width=".253272" transform="matrix(.96411667 .26547889 -.27255437 .96214038 -.675471 -48.251355)"/><g fill="#fff" transform="matrix(.24690305934 .06798716526 -.06895790011 .24342735308 -.16218 -.240157)"><path d="m21.717131.645342h6.4v6.4h-6.4z"/><path d="m30.250463.645342h6.4v6.4h-6.4z"/><path d="m38.783798.645342h6.4v6.4h-6.4z"/><path d="m47.317131.645342h6.4v6.4h-6.4z"/><path d="m13.183798.645342h6.4v6.4h-6.4z"/><path d="m55.850464.645342h6.4v6.4h-6.4z"/><path d="m21.717131 9.178676h6.4v6.4h-6.4z"/><path d="m30.250463 9.178676h6.4v6.4h-6.4z"/><path d="m38.783802 9.178676h6.4v6.4h-6.4z"/><path d="m47.317135 9.178676h6.4v6.4h-6.4z"/><path d="m13.183798 9.178676h6.4v6.4h-6.4z"/><path d="m55.850468 9.178676h6.4v6.4h-6.4z"/><path d="m21.717125 17.712008h6.4v6.4h-6.4z"/><path d="m30.250458 17.712008h6.4v6.4h-6.4z"/><path d="m38.783798 17.712008h6.4v6.4h-6.4z"/><path d="m47.317131 17.712008h6.4v6.4h-6.4z"/><path d="m13.183793 17.712008h6.4v6.4h-6.4z"/><path d="m55.850464 17.712008h6.4v6.4h-6.4z"/><path d="m21.717131 26.24534h6.4v6.4h-6.4z"/><path d="m30.250463 26.24534h6.4v6.4h-6.4z"/><path d="m38.783806 26.24534h6.4v6.4h-6.4z"/><path d="m47.317135 26.24534h6.4v6.4h-6.4z"/><path d="m13.183799 26.24534h6.4v6.4h-6.4z"/><path d="m55.850468 26.24534h6.4v6.4h-6.4z"/></g><text style="font-size:13.688395;font-family:sans-serif;letter-spacing:0;word-spacing:0;fill:#00dc00;stroke:#005a00;stroke-width:.301293" transform="matrix(1.0071139 0 0 .99293639 -.675471 -48.251355)" x="6.440816" y="62.544891"><tspan fill="#00dc00" font-family="sans-serif" stroke="#005a00" stroke-width=".301293" x="6.440816" y="62.544891">$</tspan></text></svg>