<svg height="160" viewBox="0 0 120 160" width="120" xmlns="http://www.w3.org/2000/svg"><g stroke-width=".583406"><path d="m65.899527 24.866561c.14328-.0432.265274-.11948.377492-.21175-.150766.0497-.27276.12362-.377492.21175z" fill="#ffbf00"/><path d="m65.292438 11.496761c-.0018.004-.0037.009-.0065.013.03046-.0183.02594-.0195.0065-.013z" fill="#ffbf00"/><path d="m114.78572 98.197605c-3.29268-11.198487-6.24126-22.394005-7.73281-34.014813-.71758-5.593028-1.06744-11.281287-.88906-16.922816.0834-2.627344 2.29833-12.315189.14904-13.421261-1.16872-.600941-2.62402-.34424-2.62402-2.108033 0-2.282513.70262-2.894104-1.20958-4.251556-1.9214-1.363953-5.437371-1.423093-7.70173-1.866703-1.425951-.279181-2.832901-.647671-4.203606-1.140972-1.166428-.419351-.996092-2.636224-1.412714-3.836336-1.729209-4.981438-6.083584-8.427393-10.726836-10.265716-1.970317-.7801616-4.030403-.9623319-6.119262-1.1060621-1.356323-.0929002-4.140314 1.1859121-5.212366.4495206-1.1388-.7825312-.879849-3.5346854-1.889178-4.6945772-1.06284-1.2208119-2.656247-4.04098631-4.098305-4.70698735-1.146286-.52997082-3.505597-.20702032-4.77445-.27682043-3.801956-.20879032-13.695549 2.57589398-16.135428 4.38404678.336634.5855709.508692.9907316.806771 1.6159225 1.306257-.7346111 12.503228-5.21447806 16.471482-4.6862872 3.277726.4359206 10.076013 6.0011493 7.807616 10.1491964.01957-.007.02418-.005-.0065.013.0018-.004.0037-.009.0065-.013-.11221.0367-.923013.42054-.94776.42764-.722179-2.0033431-1.802862-3.7860659-2.992302-5.5303386-1.736686-2.5469039-4.475225-2.2919836-7.431847-2.557554-2.491669-.2241703-8.918792 2.3357537-11.36385 3.0473048-.370585.1076501-.692833.2123403-.975951.3194005.359652.8038212.544944 1.1953818 1.080682 1.8850429.449996-.2992905.725059-.5015708 1.660729-1.0510616 2.206823-1.2965221 10.096724-2.0571632 12.624649-2.0571632 1.905286 0 2.381751-.3176205 3.339868 1.4331522 1.317766 2.4073237 2.889305 3.931566 1.973769 6.0325-1.22627 2.813084-4.783661 5.950879-6.591124 8.571723.120267.0988.240535.17449.361378.23778.287725-.0639.608245-.0148.965014.163241 1.93752-.315251 3.823828-4.142717 5.119145-5.557539 1.58592-1.731853 4.32791-5.614919 6.688375-5.994049 8.218477-1.3190027 16.700511 2.898834 19.080544 11.288977-4.129383-3.667175-9.152427-7.605252-14.714076-8.367073-5.641652-.773061-10.02768 5.585929-13.197213 9.956966.240536.17212.462656.29338.676717.39156.323973-.0124.667514.0562 1.031197.221811 1.366671-.094 2.189557-1.824123 3.335262-3.170335.185871 1.236782.3516 2.482444.471295 3.732826.151339.004.287142-.016.411443-.0538.104723-.0881.226717-.16206.377483-.21175 1.291874-1.065842.67212-5.136408 1.699284-6.78545.849932 1.965483 1.07148 4.164606 1.143406 6.290979.241117.0248.442523.0189.623787-.002.212908-.18632.467834-.31171.77569-.34306.628384-.677841.164584-2.180194.04661-3.388585-.208883-2.140564-1.153191-3.431176.571994-4.423677 4.550603-2.618484 12.647659 5.377728 15.132425 8.226292-5.004628 1.092462-10.055871.600951-14.795797 2.903575-.313616-1.071762-.551271-2.193203-.605936-3.318195-.12372-.013-.238809-.0106-.349301.00059-.169173.18217-.419493.30284-.77569.34306-1.019113.893132-.988615 3.285665-.287723 4.564447.98401 1.795133 1.612385-.1875 3.871579-.51696 2.416283-.351931 12.977973-3.567206 14.758384-1.695763 1.38912 1.460362-1.216486 4.376357-2.152725 5.599529-2.250563 2.942024-4.228357 6.113539-5.729114 9.528734-.679597 1.545543-3.190828 10.679167-4.27669 10.859567-8.791052 1.465093-17.638486 2.423884-26.379467 4.221387 1.371281-4.366887 2.454841-8.819554 3.76685-13.204181.949482-3.172705 2.320763-10.539576 4.976429-12.650569 1.936948-1.539623 6.063443.12776 7.667207-1.106062 1.193473-.918571 1.059969-3.868276 1.008757-5.184918-.279093-.013-.503521.0177-.690536.0798-.112209.0923-.234203.16858-.377492.21175-.862016.726932-.383816 2.603104-2.026136 3.165015-1.311434.448341-2.987123.409891-4.372218.760642.822886-1.426653 1.725757-2.817815 2.690197-4.148047-.174933-.11771-.344686-.21057-.510988-.28569-.311889.0213-.653132-.0485-1.031197-.221801-2.126834.081-3.443455 3.605066-4.577649 5.622609-1.730359 3.079235-3.20637 6.42701-4.438394 9.747575-1.209581 3.259055-2.098065 6.62753-2.935335 10.002506-.76534 3.084574-.0938 8.048262-3.992423 7.901582 2.558994-12.423439 6.045604-23.917067 12.846195-34.634084-.196809-.16088-.3798-.2709-.556459-.35962-.321092.0521-.64392.004-.965017-.163251-1.25274.280361-1.920253 2.530354-2.648764 3.841076-1.54449 2.777585-1.492125 3.732826-4.573047 4.009637-6.557749.589111-12.777714 2.730864-19.302088 3.387405.773396-5.433339 2.38924-10.469786 5.313066-15.104614 1.400053-2.219233 2.998634-4.361576 4.821063-6.234789 1.336754-1.373412 2.401324-2.099754 3.020501-3.0656354-.287146-.4282307-.586952-.8884014-1.162971-2.0506632-3.631621 3.2986856-6.936966 6.8771306-9.499414 11.1783776-1.67454 2.811295-6.428276 12.68073-4.10291 15.969355 1.278634 1.807563 5.535762.0314 7.397897-.20761 5.131802-.658321 10.014436-2.190844 15.200329-2.834375-2.687895 4.851318-4.440693 10.239106-5.755005 15.640494-.669241 2.749785-1.320643 5.514949-1.86156 8.294903-.447694 2.300264-.223847 2.302634-2.458868 2.601924-1.449541.194601-2.882394.479691-4.316974.767742-5.275663 1.061111-11.029519 2.668164-16.409912 1.382282-2.438148-.582602-4.872847-1.850734-6.592847-3.713897-2.117055-2.293164-2.892177-1.715293-5.6479735-2.023453-3.4768266-.388601-5.0662008-2.406134-5.4143438-5.944959-.2618271-2.659295 1.6227499-2.681775 3.9130128-3.651196 2.3938439-1.012622 4.7531595-2.114543 7.1504555-3.124195 2.294867-.966481 4.607573-1.866123 6.92776-2.765174 3.719089-1.440842 4.609299-1.197152 4.826817-5.445749.296928-5.798869 2.959504-11.569338 6.135374-16.260955 1.801713-2.661664 3.829574-5.225728 6.120413-7.4656619 1.681446-1.6449025 2.957203-2.6906342 3.906684-3.4015953-.261251-.5471208-.522503-1.0889116-.806771-1.6159225-5.217543 4.0338963-14.757814 13.1107407-16.725255 24.6351287-.365982 2.142923.10991 6.72808-1.775817 7.515932-2.462321 1.028581-4.957443 1.943593-7.454866 2.876954-3.206944 1.198332-11.4818159 2.705424-13.52866706 5.659859-1.11635907 1.611192-.60651689 6.83928-.60536589 8.779923.00111 3.054405.2376582 6.13483.51329539 9.174445.39763116 4.385817.63931666 9.348334.49545606 13.15391-.46668376 12.369609 1.3217926 24.420419 2.2873865 36.708409.4672597 5.94555 1.0162329 12.3702.1640012 18.30333-.4246772 2.95622-2.73795786 10.27874-.3654064 12.94276 1.4178922 1.59226 4.5275867 2.37834 6.2694526 3.79671 2.4456326 1.99092 4.6944646 4.24623 7.0491776 6.35131.991489.88663 2.031314 1.65673 3.143646 2.37124 1.141679.73402 1.258494 2.54513 2.637832 3.10349 2.483612 1.00552 4.81243-1.87263 6.688375-3.068 3.77951-2.40614 9.936177-3.48678 14.310695-4.80045 5.324574-1.59877 10.641669-3.27029 16.006528-4.75255 11.558926-3.19398 23.531594-4.23498 35.244734-6.64172 6.059416-1.24506 11.951956-2.68058 17.840466-4.60998 2.63783-.86415 7.52104-.70682 7.58837-4.37696.20313-11.26887-3.14883-22.36028-5.20546-33.343475z" fill="#ff7f00"/><g fill="#ffbf00"><path d="m69.744059 24.15856c.355625-.0402.606517-.16088.775699-.34306-.307865.0313-.562782.15675-.775699.34306z"/><path d="m56.996265 22.418428c-.357342-.178621-.677871-.227721-.965013-.163251.321093.167391.643921.215301.965013.163251z"/><path d="m61.681527 24.358481c-.364256-.165611-.707216-.233631-1.031197-.221801.378074.173891.719307.243101 1.031197.221801z"/><path d="m50.490885 46.765495c-.08977.414631-.179539.829262-.269308 1.244472.08977-.41462.178964-.829251.269308-1.244472"/><path d="m89.229142 31.418972c-2.464053 4.193596-4.193833 8.953824-5.559932 13.633601-.784901 2.690054-1.237781 7.682142-4.796898 7.381661 2.244803-8.009802 3.458418-15.700224 10.35683-21.015262"/><path d="m2.0667724 55.061588c4.5293121 1.607053 8.7421316 4.140947 13.3266856 5.569379 2.23272.695571 4.555784 1.512412 6.902441 1.641942 2.112452.116521 3.900354-.724561 6.067473-.989541 8.845135-1.083002 17.98202-2.788234 27.05273-4.045136 10.89832-1.510633 24.659468-.484421 34.638224-5.748589 2.968132-1.565643 5.413763-3.007075 8.018223-5.132268 1.51226-1.233822 5.416071-4.585137 5.416071-6.4696 0-3.482626 1.63023-6.23478-2.11936-1.209572-4.389481 5.882859-10.150814 10.792137-17.251785 12.65056 1.659009-6.37792 3.413528-12.82445 6.297654-18.75226 1.584767-3.257285-1.059969-6.498 3.387052-5.927219 2.530798.324721 4.931548 1.510043 7.398469 2.142934-.85855 2.365913-3.755331 2.484213-5.246301 4.285856 2.21948 3.080425 9.887831-.531741 9.887831 3.214695 0 2.687684-1.56751 4.880888-2.08425 7.430752-.73542 3.627545-.54093 7.841242-.70723 11.545088-.11681 2.618484.43159 3.471395-1.57556 5.144688-1.839691 1.534302-3.680531 3.068594-5.520791 4.602897 2.26838-6.1857 7.325391-11.601878 6.188881-18.664729-2.407661 4.060506-4.557511 8.261193-6.625081 12.512159-1.062263 2.184334-2.099783 4.382267-3.161479 6.56719-1.37358 2.826685-2.836934 3.319386-5.696885 4.353297-8.633944 3.120055-18.070643 3.399825-26.95548 5.532109-9.566743 2.296123-19.272165 4.110776-29.141015 3.935706-2.504904-.0444-5.013835-.0728-7.512985-.271491-3.921645-.3123-3.860072-.4164-4.438968-4.216656-.555879-3.647656.01899-8.364703-2.958929-10.438436-2.02556 1.724162.821733 10.896237 1.210732 13.549611-4.638646-.481461-8.3939876-3.336535-11.6803435-6.52697-3.7449839-3.635826-2.8070112-11.044108-3.1160241-16.286396"/><path d="m41.478296 89.487472c4.764093-2.177824 9.764693-3.918546 14.795791-5.253518-2.965257.944591-5.803918 1.850152-8.479154 3.586735-2.510081 1.629523-6.371305 7.493452-9.276141 6.64409 1.116359-1.560322 2.947995-2.887014 2.959504-4.977307"/><path d="m18.207951 93.912339c-1.583044-.596811-3.393388-.218261-4.573046-1.659103-.05179.12184-.150191.577281-.134654.553031-.600188-.417581-4.7756016-3.062685-2.017504-2.592454 2.682716.456621 5.328028.789031 8.135039 1.038641 3.575229.317621 6.180835-.40635 9.350952-1.902792 2.343204-1.106072 5.865491-1.744863 6.993935-4.423677.05754 1.995653 2.469802-.0739 2.286811-.691441-.257222-.867112-4.190952.10174-4.842353.0686v.622831c-4.240441-2.914215-11.310911 1.148651-15.871873-3.733416 6.397776.717461 12.83641.869471 19.249723.17626 3.397992-.36731 6.741892-.900231 10.105931-1.517742 2.907139-.533511 7.229293-2.748014 10.055867-1.562093-13.339919 4.881478-24.24284 14.477643-38.738828 15.623345"/><path d="m36.904674 91.561795c-1.307408 1.385242-2.430096 4.859597-4.842354 3.318205 1.614117-1.106072 3.228236-2.212143 4.842354-3.318205"/><path d="m60.444327 83.266292c5.506984-1.410672 12.72132-4.579237 17.487139.27681-6.417342-3.738735-14.27905-.38209-20.984687.414631 1.177357-.19637 2.332274-.427051 3.497548-.691441"/><path d="m75.374773 79.532876c1.847169-.28805 3.59364.668371 5.111086 1.659693-1.820132.36908-3.674206-.559541-5.111086-1.659693"/><path d="m68.918302 75.938451c7.149877-2.129914 14.250268-3.225925 21.25284-5.94496-.864896 3.265556-2.126262 6.929771-1.344813 10.334927 1.002425 4.368666 4.476948 1.687492 6.79252.10351 2.75005-1.881503 5.483401-4.572737 6.961721-7.776772.81943-1.776223-.36138-5.819569-.16803-6.11768 1.08701-1.678022 1.20498.350161 1.61297 1.244472 1.54103 3.375575-.8436 6.25727-2.9808 8.697714-1.593401 1.819982-7.388116 7.572711-9.998897 6.6151-3.174148-1.164032-4.944203-4.159877-8.271997-5.219208-4.444144-1.415412-9.228378-1.773853-13.855514-1.937103"/><path d="m97.569609 74.555579c.96617-1.799283 1.9542-3.615126 2.689621-5.530339 1.28842 1.951883-1.188861 4.385817-2.689621 5.530339"/><path d="m8.7919754 91.147164c-.494881-.725741-.223272-1.289422-1.2107309-1.244472 0-.23067 0-.46076 0-.691441 1.2607949.182771 1.8149469.852922 1.2107309 1.935913"/><path d="m116.93902 132.34786c-22.224756 8.01041-46.037745 8.28781-68.451828 15.75288-5.229627 1.74191-10.657782 3.06623-15.718804 5.29669-2.327092 1.02564-8.595393 6.45068-10.659508 3.80204-2.748892-3.52759-6.397201-6.19398-9.53049-9.41517-3.1033636-3.19104-8.0918795-5.61432-6.5099855-10.49285 1.928309-5.9491.07193-14.54093-.304986-20.74555-.267581-4.40416-.575442-8.81069-.9765268-13.2036-.3182197-3.489732-1.9496012-8.970981-1.1060011-12.194546 7.8841454 5.803009 15.6980874 8.453433 25.5174484 7.424852 9.631192-1.008472 18.874534-3.734016 28.380277-5.483019 17.007803-3.128925 35.507138-2.375973 48.061584-16.459695.51271 1.959573 3.96019 13.654901 3.0884 14.683483-3.91819 4.621227-7.6367 7.666761-12.983721 10.414175-8.854916 4.55026-20.318321 4.53784-29.981155 5.64154-9.466616 1.08122-18.739884 3.94872-28.185782 5.34638-4.683532.69322-9.544875 1.26813-14.275017.87066-2.907139-.24369-1.555999-.30994-2.202221-2.39135-.301532-.97121-.425252-2.03823-.605942-3.04139-3.07114.43237-.762462 3.83515-2.286235 4.97671-1.539311 1.15279-8.2800506-3.21765-9.9534395-3.73341-.09034 6.30398 1.6382859 13.36862 8.3732725 13.99913 2.009447.18809 4.255977 4.37694 2.286811 4.80399-4.442997.96176-6.289019-3.14252-9.9873906-3.734-1.5629039-.24961-1.3707049-.77011-1.0760789 1.03745.06388.39097.5892539 1.2007.8067719 1.52187 2.0249836 2.98402 5.5386386 4.18118 8.7432816 5.25353 2.274151.76064 2.537129.12776 2.894479 2.97515.265279 2.11749.47359 4.24267.74002 6.35899.498909 3.97001 1.085285 7.92524 2.687895 11.61133 1.652097-2.1867-.281967-4.13917-.432733-6.37615-.229602-3.41165-.459779-6.82272-.689957-10.23436-.260675-3.86947-.269883-3.29455 3.593643-3.5826 9.899347-.73639 19.567367-3.05617 29.208341-5.37123 20.104835-4.82824 42.295066-5.4487 59.383427-18.54051 2.40708 7.19239 3.77778 15.7233 2.15215 23.22858"/><path d="m103.75793 99.857298c-4.014301 5.490112-9.343472 10.657282-15.469062 13.549612 2.568775-2.07431 5.367726-3.83456 7.922691-5.9355 2.83291-2.32924 4.632901-5.40908 7.546371-7.614112"/><path d="m87.616176 113.82154c-.448274.32235-.89712.64471-1.345384.96706.448264-.32235.896537-.64471 1.345384-.96706"/><path d="m79.275706 107.46195c-1.699865.96707-6.372462 4.75254-5.91901.96825 1.980093-.2709 3.946385-.6459 5.91901-.96825"/><path d="m60.174437 123.0847c-1.695249 1.0765-3.507323 2.82431-5.513891 2.90357 1.837968-.96766 3.675934-1.93532 5.513891-2.90357"/><path d="m48.203498 117.13974c2.672358-3.53764 6.297074-5.73498 10.626136-6.36018-4.085074 1.20603-6.228599 5.74268-10.626136 6.36018"/><path d="m21.705495 128.06141c-1.343661-2.8811.237082-4.71113 2.891601-5.52974 2.81104-.86712 4.805526-2.12815 7.377756-3.44715 4.371067-2.2417 8.567773-4.86728 13.403221-5.95442-7.205698 6.25075-14.880959 11.36883-23.672578 14.93131"/><path d="m44.975264 121.70182c-.607668.77484-.943727 1.35213-1.88285 1.38288.612846-.45011 1.219363-1.01852 1.88285-1.38288"/><path d="m42.150413 123.36152c-1.900113 1.99328-4.517803 3.32174-7.128589 4.00845 2.141799-1.77858 4.726689-2.68946 7.128589-4.00845"/><path d="m21.166879 116.72512c2.508358-.19401 4.926945.83871 7.398473 0-2.589494 1.14806-8.226536 5.42387-7.398473 0"/><path d="m46.320649 33.078074c2.247681 2.631494-2.552665 2.963905-3.960774 3.425846-5.090371 1.669752-10.081188 3.535275-15.020217 5.631478-4.457382 1.892143-8.805431 4.504117-12.587243 7.572122-1.816674 1.473962-4.464287 3.357235-6.9024395 2.311504 11.6987585-9.017104 24.3113205-15.185054 38.4706735-18.94095"/><path d="m28.161391 37.08771c-.395905 1.745463-6.347714 3.630506-8.172444 4.605858-2.965258 1.585162-6.042152 2.927824-9.178893 4.104266 3.25931-2.670524 13.076946-10.317756 17.351337-8.710124"/></g><path clip-rule="evenodd" d="m47.262073 56.996911c2.042823-12.134199 5.832117-23.114426 12.710967-33.251201-3.389935-2.234614-4.590313 2.483034-6.066325 5.123398-1.654399 2.959174-2.933033 6.168539-4.11039 9.352474-2.313282 6.25608-3.745558 12.65825-5.090944 19.19055.81943-.13308 1.773514-.14373 2.556692-.415221" fill="#8b5c29" fill-rule="evenodd"/><path d="m69.590995 13.583504c7.053203-.379141 13.189154 4.038616 18.293907 8.572313-2.048575-7.221381-9.882655-12.8333401-17.487138-11.545098-5.206034.881902-10.048967 7.773232-12.84504 12.166739 2.865701 2.145294 4.106935-1.323732 5.918427-3.318205 1.924283-2.117493 4.026379-3.945756 6.119844-5.875749" fill="#8b5c29"/><path clip-rule="evenodd" d="m67.976875 17.869361c-1.233748 1.980863-1.008748 4.453837-1.008748 6.7056 3.457837.353121 1.922548-4.591057 1.008748-6.7056" fill="#ffbf00" fill-rule="evenodd"/><path clip-rule="evenodd" d="m58.292164 30.865941c-4.184043 8.181932-6.000142 17.119776-8.743855 25.85475 8.459011-1.739543 17.016433-2.661654 25.523206-4.078846 2.35356-.392151 3.446898-7.166952 4.485-9.529315 1.572111-3.578456 3.419289-6.838101 5.636465-10.034456.75096-1.083001 3.799651-4.298276 3.363469-5.841449-.741747-2.627944-10.707276.311121-12.500925.571961-.918988.13426-6.54624 1.366902-6.499062 1.708783-.246858-1.786863-.356769-3.559526-.436754-5.357619-3.946394-.35548-.978258 3.356646-2.891603 5.184908-1.175631 1.124402-6.034098.945772-7.935941 1.521283" fill="#8b5c29" fill-rule="evenodd"/><path d="m95.954349 33.078074c1.49097-1.801643 4.387751-1.920533 5.246301-4.285856-2.302921-.590891-4.520101-1.644313-6.859853-2.073734-5.043754-.926251-1.85005 1.591673-3.472797 4.926438-3.050418 6.26909-4.994842 12.9327-6.750525 19.683841 5.02247-1.314263 9.608746-4.202457 13.265694-7.964863 1.79711-1.848963 3.616081-3.842246 4.970671-6.068579.37174-.612181.67212-1.031542.91553-1.285282.0973-.536471.25608-1.044552.47244-1.530753-2.33917-.30934-6.009921 1.065852-7.787461-1.401212z" fill="#8b5c29"/><path d="m103.74124 34.478696c-.21637.486201-.3752.994282-.47244 1.530753.66003-.687301.89769-.11948.95811 1.423692.1709 4.341457-5.699181 8.551603-8.566621 10.892087-4.665689 3.807946-11.065196 5.034088-16.744814 6.201669-10.781502 2.216864-22.605712 2.994065-33.469499 4.129117-2.141224.22358-4.160454 1.010841-6.254492 1.452082-1.6239.341871-6.004173-.31171-7.061837.449521-2.146404 1.544352-9.01777 1.906343-11.400104 1.486392-6.622199-1.167582-12.3829606-4.753727-18.6633466-6.981831.3090138 5.242288-.6289588 12.65057 3.1160251 16.286396 3.2863549 3.190435 7.0416965 6.044919 11.6803435 6.52698-.627809-4.286457-1.255041-8.572314-1.88285-12.85877.224423-.230681.44827-.460761.672117-.690851 2.898507 2.018723 2.313857 6.238929 2.858227 9.781895.608243 3.959356.186443 4.411247 4.250798 4.843027 2.581438.273861 5.209487.256711 7.801858.302251 9.868849.17508 19.574847-1.638993 29.141018-3.935706 8.884265-2.132284 18.321526-2.412054 26.955479-5.532109 2.721268-.983631 4.108662-1.434932 5.528853-4.007276 1.16815-2.115123 2.112449-4.387597 3.161484-6.56719 2.10554-4.373997 4.32157-8.688844 6.793101-12.85818 1.13709 7.062271-3.920491 12.479039-6.188891 18.664729 1.59283-1.327872 3.18508-2.655154 4.777911-3.983026 2.30004-1.918163 2.25171-1.998014 2.28508-5.003318.042-3.858226.53114-7.694562.70607-11.545088.11854-2.606654 2.31731-5.031718 2.11936-7.673262-.12199-1.624803-.95179-2.181973-2.10094-2.333984z" fill="#ffbf00"/><path clip-rule="evenodd" d="m81.427859 51.742803c2.627474-6.78841 4.087376-14.002682 7.801283-20.323831-6.897839 5.315038-8.112027 13.00546-10.35683 21.015262.889061.0166 1.782729-.2076 2.555547-.691431" fill="#8b5c29" fill-rule="evenodd"/><path clip-rule="evenodd" d="m13.09629 51.051952c5.842474-4.740117 12.102144-8.116283 19.020697-10.899187 3.366917-1.354492 6.800011-2.519114 10.242888-3.648245 1.200374-.393931 3.198888-.209391 4.095427-1.352123 2.639558-3.365525-6.09797-.39334-7.343804.005-3.730598 1.194192-7.385237 2.637995-10.950107 4.280537-7.313883 3.369655-13.909612 7.646642-20.3108405 12.58136 1.9628359.841671 3.4555355-.282731 5.2457395-.967662" fill="#ffbf00" fill-rule="evenodd"/><path clip-rule="evenodd" d="m10.810054 45.797834c3.136741-1.176442 6.213635-2.519104 9.178893-4.104266 1.82473-.975352 7.777115-2.860395 8.172444-4.605858-4.274391-1.607632-14.092027 6.0396-17.351337 8.710124" fill="#ffbf00" fill-rule="evenodd"/><path clip-rule="evenodd" d="m91.515954 83.266292c4.871115-2.211543 10.545556-6.080409 12.682756-11.352268.45058-1.111981.3798-4.548477-.57717-5.584158-.62032-.671921-1.12844-.422901-1.47831.622241.14041-.419951 1.12614 1.943013 1.14283 2.212133.0593.938672-.11682 1.945963-.40339 2.834365-1.50017 4.656127-6.669381 8.803583-10.896011 10.611146-5.535185 2.367694-2.36737-10.534846-1.816099-12.61626-7.002562 2.719035-14.102953 3.815636-21.252839 5.94496 4.627144.16325 9.411378.521691 13.854951 1.935913 3.439421 1.094831 5.367728 4.368666 8.743282 5.391928" fill="#ffbf00" fill-rule="evenodd"/><path clip-rule="evenodd" d="m100.25865 69.02524c-.734841 1.915213-1.723451 3.731056-2.689611 5.530339 1.50133-1.144522 3.978611-3.578456 2.689611-5.530339" fill="#ffbf00" fill-rule="evenodd"/><path d="m75.374773 123.36152c-12.839289 2.37123-25.417899 6.15138-38.289411 8.30318-3.318004.55481-6.641763 1.05106-9.997748 1.30066-.491429.0373-4.718059.22358-4.701945.46254.142134 2.10686.284268 4.21252.425827 6.31937.207735 3.08575.132352 6.16736 1.078956 9.08809.4874 1.50235.864316 3.02364-.16803 4.38936-1.458172-3.35309-2.103244-6.96053-2.55842-10.57979-.40914-3.25728.222121-9.68134-3.158607-10.26217-3.333542-.57314-6.275783-2.20563-8.7432826-4.56327-.593857-.56782-2.5929459-4.80103-.874097-3.69911 2.8720356 1.84246 5.7452226 4.21725 9.2813206 4.21725 3.480856 0 1.467956-4.11078-.672117-4.9075-3.161485-1.17645-4.087373-.0781-6.431728-3.59975-1.9628356-2.94734-2.3610425-6.96467-2.3115545-10.43429 1.6739639.51518 8.4147035 4.88621 9.9534385 3.73342 1.523774-1.14156-.784904-4.54434 2.286236-4.97671.323975 1.80283.204282 5.21389 1.832787 5.35111 5.010958.42054 9.941931-.10705 14.91491-.74585 9.536242-1.22495 18.807206-4.0546 28.314105-5.36591 9.485603-1.30835 20.866144-.87479 29.609416-5.36708 5.357381-2.752743 9.249101-5.624968 13.185711-10.267495 1.36782-1.613552-2.03707-12.548239-2.71149-15.128273-12.381816 13.889711-30.289025 13.1894-47.053403 16.273965-9.478703 1.743683-18.750242 4.553807-28.348633 5.559319-10.259 1.074131-18.247877-1.200112-26.5566994-7.316012-1.1825355 4.518907 1.1462823 12.500336 1.5226229 17.374126.456327 5.91065.7475 11.82249 1.033495 17.74379.207736 4.30065.757859 8.16774-.571415 12.27025-1.1923181 3.68019 6.4581985 8.85149 8.8439845 11.16418 1.982977 1.9223 4.401565 3.5672 6.254492 5.59954.727935.79849 1.116935 1.93886 2.018079 2.55696 1.893783 1.29948 10.085792-4.58811 12.40828-5.42624 10.855159-3.91795 21.916904-7.65315 33.202489-9.95045 12.180979-2.47949 24.706648-3.15496 36.748948-6.37142 3.24147-.86593 6.34253-1.79337 9.50115-2.93197 3.38303-1.21963 2.98194-4.18235 2.96928-7.67208-.019-5.45108-1.10197-11.23516-2.826-16.38339-11.68495 8.95204-25.274615 11.93546-39.410947 14.24165" fill="#ffbf00"/><path d="m104.69705 126.67971c-.60307-3.00294-.13465-9.49738 3.22938-10.64603-.11278 2.95325-1.38049 8.36292-3.22938 10.64603" fill="#ffbf00"/><path clip-rule="evenodd" d="m33.003745 84.234544c.361953.0592.572565.0941 0 0" fill="#ffbf00" fill-rule="evenodd"/><path clip-rule="evenodd" d="m55.063932 77.874364c-12.313907 3.342455-24.837276 4.740707-37.528099 3.318205 4.560962 4.882067 11.631433.819201 15.871873 3.733416-.310164-.493291-.09552-.360801-.403386-.691441.925313.16739 4.157002-.915612 4.84293-.208201.789508.814472-1.827608 2.855665-1.883426.899642-1.187139 2.818994-4.316974 2.817214-6.59055 4.181166-3.125807 1.876773-6.126168 2.467654-9.754912 2.145303-1.546215-.13723-3.094733-.20761-4.640373-.34602-.566237-.0509-2.77191-.789031-3.292686-.658311-2.6366796.661271.505815 1.646672 1.816099 2.558144-.01554.0242.08286-.431191.134654-.553031 3.556238 4.343237 14.137486.353111 17.991804-1.416592 8.619563-3.956406 16.384016-9.278545 25.320073-12.54824-.6186-.13545-1.255618-.35844-1.884001-.41404" fill="#ffbf00" fill-rule="evenodd"/><path clip-rule="evenodd" d="m80.485859 81.192569c-1.517446-.990732-3.263917-1.947743-5.111086-1.659693 1.43688 1.100152 3.290954 2.028773 5.111086 1.659693" fill="#ffbf00" fill-rule="evenodd"/><path clip-rule="evenodd" d="m77.931466 83.543102c-4.765819-4.856047-11.980155-1.687482-17.487139-.27681 5.462677-1.052242 12.336351-2.724944 17.487139.27681" fill="#ffbf00" fill-rule="evenodd"/><path clip-rule="evenodd" d="m56.946779 83.957733c1.175631-.13959 2.35644-.37263 3.497548-.691441-1.165274.26439-2.320191.495071-3.497548.691441" fill="#ffbf00" fill-rule="evenodd"/><path d="m52.844448 85.271405c1.150886-.31762 2.293716-.675461 3.429639-1.036861-1.152612.3058-2.317884.58793-3.429639 1.036861" fill="#ffbf00"/><path clip-rule="evenodd" d="m40.805603 94.465369c3.085525-4.169936 7.178077-7.475121 12.038845-9.194554-2.973315.925672-9.148394 1.871443-11.366152 4.216657-.840723.889001-2.046851 3.701485-2.958929 4.977897.72621 0 1.573837.136631 2.286236 0" fill="#ffbf00" fill-rule="evenodd"/><path d="m7.5818195 89.902692c.427554.388011 1.0277409.189281 1.2107319 1.244472.714125-1.281732-.6485249-2.403173-1.2107319-1.244472" fill="#ffbf00"/><path d="m36.904674 91.561795c-1.614118 1.106062-3.228237 2.212133-4.842354 3.318205 2.412833 1.541392 3.534946-1.932963 4.842354-3.318205" fill="#ffbf00"/><path d="m88.288868 113.40691c6.102569-3.2904 11.324141-7.88028 15.469062-13.549612-2.80414 2.122812-4.555211 4.991502-7.197651 7.327842-2.593522 2.29258-5.587546 4.05459-8.271411 6.22177" fill="#ffbf00"/><path clip-rule="evenodd" d="m79.275706 107.46195c-1.972625.32235-3.938917.69735-5.91901.96825-.454024 3.78429 4.219145-.001 5.91901-.96825" fill="#ffbf00" fill-rule="evenodd"/><path clip-rule="evenodd" d="m48.203498 117.13974c4.397537-.6175 6.541062-5.15474 10.626136-6.36018-4.329062.6252-7.953778 2.82254-10.626136 6.36018" fill="#ffbf00" fill-rule="evenodd"/><path clip-rule="evenodd" d="m30.17947 120.0439c-2.66833 2.67586-11.224594 2.12165-8.473975 8.0181 8.791619-3.56248 16.467455-8.68055 23.673154-14.93131-5.414344 1.21726-10.362004 4.25215-15.199179 6.91321" fill="#ffbf00" fill-rule="evenodd"/><path clip-rule="evenodd" d="m105.36974 119.07506c-.0512 2.57057-1.19174 5.0193-.67269 7.60465 1.84889-2.28311 3.1166-7.69278 3.22938-10.64603-1.34825.46135-2.45598 1.54671-2.55669 3.04138" fill="#ffbf00" fill-rule="evenodd"/><path d="m21.166879 116.72512c-.828063 5.42387 4.808979 1.14746 7.398473 0-2.472103.83871-4.890115-.19401-7.398473 0" fill="#ffbf00"/><path clip-rule="evenodd" d="m44.975264 121.70182c-.663487.36436-1.270004.93277-1.88285 1.38288.939698-.0308 1.275182-.60804 1.88285-1.38288" fill="#ffbf00" fill-rule="evenodd"/><path d="m60.174437 123.0847c-1.837957.96825-3.675923 1.93532-5.513891 2.90357 2.00715-.0787 3.818642-1.82707 5.513891-2.90357" fill="#ffbf00"/><path d="m42.150413 123.36152c-2.402475 1.31899-4.987365 2.23046-7.128589 4.00845 2.610786-.68671 5.228476-2.01517 7.128589-4.00845" fill="#ffbf00"/><path d="m35.82917 33.907925c-1.808617.347191-6.692979 2.034684-7.936511.276811-2.336875-3.304595 2.475556-13.520041 4.29856-16.263915 1.774091-2.670534 3.624716-5.145878 5.753856-7.527172.742322-.8304317 2.408229-1.9873735 3.635649-3.1904353-.181265-.3614006-.395329-.8079613-.567387-1.1687719-9.450502 7.9140032-15.683127 17.7769182-16.348915 30.7764582-3.995301 1.514782-7.987725 3.046125-11.924907 4.713507-2.655095 1.124402-10.0006254 3.140755-10.8068214 5.517909-.7503776 2.212723 1.2308732 5.500758 2.9595046 6.56719 1.3235183.816241 2.7460143.26321 4.1696602.415221 2.6671786.28391 2.8064356 1.312492 4.9096806 3.041384 7.569954 6.22355 18.019425 1.744873 26.443913.614551 2.935911-.39392 2.449662-2.607244 3.053876-5.367088.539191-2.460554 1.091041-4.912238 1.741867-7.344991 1.281511-4.785658 2.884121-9.501525 5.27969-13.825832-5.058719.626971-9.696215 1.811113-14.661715 2.765174z" fill="#8b5c29"/><path clip-rule="evenodd" d="m65.286105 11.509771c.03046-.0183.02594-.0195.0065-.013-.0018.004-.0037.009-.0065.013z" fill="#ffbf00" fill-rule="evenodd"/><path clip-rule="evenodd" d="m56.996265 1.3298145c-1.71942-.0633-12.827773 2.6936042-15.982928 4.7046273.21349.4258707.369435.7275212.567387 1.1687719 3.952719-.9451915 11.763208-3.5003755 15.919061-2.9668646 3.719659.4779107 5.553028 4.1060463 6.844893 7.6886419.02474-.007.835541-.39156.94776-.42764 2.349526-4.2965073-4.765247-10.0379963-8.296173-10.1675365z" fill="#8b5c29" fill-rule="evenodd"/></g></svg>