<svg height="16" width="16" xmlns="http://www.w3.org/2000/svg" xmlns:xlink="http://www.w3.org/1999/xlink"><linearGradient id="a" gradientTransform="scale(1.533 .65232)" gradientUnits="userSpaceOnUse" x1="62.832001" x2="312.91" y1="339.76999" y2="191.32001"><stop offset="0" stop-color="#fff" stop-opacity=".525"/><stop offset="1" stop-color="#fff" stop-opacity="0"/></linearGradient><linearGradient id="b" gradientTransform="scale(1.2211 .81893)" gradientUnits="userSpaceOnUse" x1="109.53" x2="370.89999" y1="332.17001" y2="332.17001"><stop offset="0" stop-color="#fff" stop-opacity="0"/><stop offset="1" stop-color="#5f0e00" stop-opacity=".41667"/></linearGradient><g transform="matrix(.43132129 0 0 .43132129 3.825221 4.943686)"><path d="m12.54946 1.24301s-.9764 5.34442-4.76925 3.33284c-.00066.003.0908-4.36172995 4.76925-3.33284z" fill="#009100"/><path d="m6.16561 7.04786c.65543-.64838 1.57668-1.43258 2.57039-1.43258 2.00506 0 3.63659 1.62448 3.63659 3.63305 0 .074 0 .13743-.004.21496h-.007c-.0634.78581-.31362 1.76191-.90563 2.9741 0 0-1.01838 1.94867-1.83591 2.84372l-.074.0705c-.39466.3982-.95143.64839-1.554.64839-.74 0-1.39543-.35943-1.79362-.9162h-.0106c-.39819.55677-1.05362.9162-1.79363.9162-.60962 0-1.15933-.24667-1.55752-.64839l-.074-.0705c-.81048-.89505-1.83591-2.84372-1.83591-2.84372-.592-1.21219-.84219-2.19534-.89857-2.9741h-.0176c-.0106-.074-.0106-.13743-.0106-.21496 0-2.00857 1.63153-3.63305 3.64363-3.63305.99019 0 1.83284.75799 2.49531 1.40638" fill="#f00"/><path d="m.56464106.04697604s.74802014 5.01014976 4.28647864 3.29890476c.0003663.0022.00419-3.80803669-4.28647864-3.29890476z" fill="#009100"/><path d="m5.71287 6.09502s.26571-3.9979-.55861-5.11601995c-.82432-1.11812 2.53688 0 2.53688 0-.58649 1.92607995-.45782 6.04990995-1.97827 5.11601995z" fill="#722a00"/></g><path d="m1 3h1v13.000006h-1z" fill="#a40" fill-rule="evenodd"/><path d="m14 3h.999991v13.000007h-.999991z" fill="#a40" fill-rule="evenodd"/><rect id="c" fill-rule="evenodd" height="3" ry="1" width="2" x=".000429" y="1.000429"/><use fill="#f00" xlink:href="#c"/><use fill="#ffe500" transform="translate(2)" xlink:href="#c"/><use fill="#f00" transform="translate(4)" xlink:href="#c"/><use fill="#ffe500" transform="translate(6)" xlink:href="#c"/><use fill="#f00" transform="translate(8)" xlink:href="#c"/><use fill="#ffe500" transform="translate(10)" xlink:href="#c"/><use fill="#f00" transform="translate(12)" xlink:href="#c"/><use fill="#ffe500" transform="translate(14)" xlink:href="#c"/><g fill-rule="evenodd"><path d="m0 0h16v2h-16z" fill="#a40"/><g transform="matrix(.02235904 0 0 .02235904 3.201145 6.91333)"><path d="m388.75 93.75c-18.75-17.5 31.25-30 37.5-23.75 10 5-8.75 8.75-7.5 17.5s0 55 10 57.5 22.5 11.25 22.5 23.75c31.25 77.5-91.25 290-381.25 183.75-5-3.75-32.5-35-37.5-42.5-2.5-8.75-6.25-30 8.75-37.5 128.75-33.75 277.5 32.5 345-118.75 11.25-26.25 2.5-60 2.5-60z" fill="#ffe200" stroke="#000" stroke-linejoin="round" stroke-width="10"/><g stroke-width="1pt"><path d="m43.75 290 2.5-12.5c92.5-35 263.75 38.75 346.25-120-41.25 112.5-113.75 181.25-348.75 132.5z" fill="url(#a)"/><path d="m386.15 89.136c2.92-17.6 29.12-18.073 36.45-18.944 11.98 1.566-15.49 21.444-36.45 18.944z" fill="#442400"/><path d="m32.518 305.14c-.933-18.37-1.866-24.43 8.743-30.49 4.617 6.93 3.75 28.37-8.743 30.49z" fill="#442400"/><path d="m133.75 366.25c218.75 55 292.99-83.12 306.25-116.25 22.5-40 8.75-85 8.75-85-1.25 135-142.5 243.75-315 201.25z" fill="url(#b)"/></g></g></g></svg>