<svg height="14" viewBox="0 0 14 14" width="14" xmlns="http://www.w3.org/2000/svg"><path d="m5.5449219 1a1.5 1.5 0 0 0 -1.5 1.5 1.5 1.5 0 0 0 1.5 1.5 1.5 1.5 0 0 0 1.5-1.5 1.5 1.5 0 0 0 -1.5-1.5zm-1.2148438 3.5097656c-.389399.0511985-.7405976.3191922-.8730469.7050782l-1.2988281 3.7851562h2.0683594l.9472656-2.7578125 1.0175781 1.046875c.0156104.01606.0356517.0235897.0527344.0371094.0170154.0149579.0374786.0244608.0566406.0371093.0298018.0176132.0577339.0359798.0898438.046875.0165354.0066098.0293333.0185.046875.0234376l1.9238281.5410156c.2666385.0750528.5421347-.0790647.6171875-.3457032.0750529-.2666384-.0790646-.5401815-.3457031-.6152343l-1.8085937-.5097657-1.6582032-1.7050781c-.0116066-.0119409-.0266241-.0168069-.0390625-.0273437-.1097493-.1054984-.2390638-.1935301-.4023437-.2363282-.1315506-.0344813-.2647316-.0424567-.3945313-.0253906zm7.1699219 3.4902344a1.5 1.5 0 0 0 -1.5 1.5 1.5 1.5 0 0 0 1.5 1.5 1.5 1.5 0 0 0 1.5-1.5 1.5 1.5 0 0 0 -1.5-1.5zm-10.5 2c-.554 0-1 .446-1 1s.446 1 1 1h4.5390625 1.4609375 2.1953125l2.0585935.949219c.066982.030919.13713.043133.205078.042969.014195.0012.0265.007812.041016.007812h2c.277 0 .5-.223.5-.5s-.223-.5-.5-.5h-1.939453l-4.216797-1.947266c-.0825356-.038099-.1674716-.041721-.25-.033203-.0324398-.003148-.0604567-.019531-.09375-.019531h-3.1171875-2.0683594z" fill="#ac39ac"/></svg>