<svg height="160" viewBox="0 0 150 160" width="150" xmlns="http://www.w3.org/2000/svg"><g fill-rule="evenodd" stroke="#000" stroke-miterlimit="10" transform="translate(-230.68626 18.69835)"><g transform="matrix(1.1291439 0 0 .95811107 -32.972931 -149.53932)"><path d="m295.86 136.6c-2.1037.0666-3.9109.24295-5.4688.5625-3.0358.61248-4.2449 1.6881-5.6562 3.3125-1.3848 1.5978-2.1584 3.6403-2.5312 6.25.86612 1.0264.27734 1.7542 6.7749 3.3858 1.0652-1.4646 2.9222-2.9597 5.3188-3.3858 2.4766-.47934 5.7566-.61929 9.9375-.40625 1.2516-1.8108 1.7177-3.4335 1.5312-5.0312-.15978-1.6244-1.0677-3.0886-2.7188-4.5-2.7029-.18641-5.0838-.25407-7.1875-.1875z" stroke-width=".02663"/><path d="m291.28 145.44c.80097-.96645 1.0573-1.85.76893-2.9822-.25631-1.1045-1.0573-2.3471-2.4029-3.6172-1.4417.60748-2.6913 1.3254-3.6204 2.4575-.96117.99405-1.5699 2.7889-2.0825 3.8934-.38447 1.1045-.67281 1.9329-.60874 2.5956.76894.46941 1.3777 1.0769 1.9544 1.9329.5767.85598 1.1214 1.8224 1.5058 3.1202.19222-2.5956-.43066-.57227.27419-1.7872.83301-1.2702 2.8336-5.7234 4.2112-5.6129z" fill="#c0c0c0" stroke-width=".029743"/></g><path d="m261.75386 31.765844-10.56439 16.79761s-5.11648 5.91845-6.64997 10.84294c-1.50426 4.87324-3.4588 11.48105-3.87974 19.03287-.36082 7.60396.84191 19.00798 1.86422 25.846966 1.20185 6.60742 3.06697 10.35814 4.7809 14.00758 1.71393 3.64782 3.3076 5.84275 5.26204 7.75563 2.13566 1.81216 4.66065 2.70445 6.64524 3.26582 1.89515.43373 3.30748.35717 4.81094-.12763 1.6237-.5102 3.21817-1.35218 4.78181-2.62791l8.99058.58684c-1.32301 1.88806-3.18644 3.62224-5.26203 5.10214-2.10563 1.53077-4.54119 3.01067-7.42695 3.85333-2.85741.71437-6.1649 1.83699-9.59185.61233-3.36768-1.35228-7.27665-4.46566-10.55411-8.34313-3.18723-3.92922-6.10483-8.52106-8.3892-15.05384-2.19505-6.71023-4.15028-15.996626-4.57123-24.416506-.27062-8.47075 1.3832-18.85467 2.64604-25.84696 1.35305-7.01567 3.48883-11.71004 5.26283-15.87015 1.89436-4.15878 3.54732-6.78678 5.77241-8.95547 2.25603-2.21907 7.43056-4.73661 10.227-5.37452l5.84557-1.0888z" fill="#c0c0c0" stroke-width=".027698"/><g transform="matrix(1.1291439 0 0 .95811107 -719.77712 -950.75789)"><path d="m874.02 1078.6c0 5.2616-2.3039 9.5238-5.1838 9.5238-2.8415 0-5.1454-4.2622-5.1454-9.5238 0-5.2606 2.3039-9.5228 5.1454-9.5228 2.8799 0 5.1838 4.2622 5.1838 9.5228z" stroke-width=".038398"/><path d="m872.43 1077.9c0 3.649-1.5978 6.6049-3.595 6.6049-1.9706 0-3.5684-2.9559-3.5684-6.6049 0-3.6483 1.5978-6.6042 3.5684-6.6042 1.9972 0 3.595 2.9559 3.595 6.6042z" fill="#c0c0c0" stroke-width=".02663"/><path d="m884.03 1073.3c.0607 11.133-.63662 25.628-4.8286 38.409-3.9663 13.759-14.287 18.432-22.196.4703-4.8128-22.449-6.6817-36.161-.49824-57.782 4.6922-13.588 11.934-15.805 17.27-12.32 2.8848 5.4393 6.9068 8.8085 10.254 31.222zm5.5912-29.99c2.573 5.9868 4.5946 12.981 5.6054 20.003 1.0414 6.8533 1.164 13.456.49008 21.205-.55134 7.778-1.7459 17.402-4.1657 24.982-2.4811 7.5255-6.2179 15.191-10.506 19.863-4.1351 4.5321-9.1741 6.2636-13.891 6.0957-4.6558-.2797-8.554-3.218-12.873-8.8123-4.2882-5.763-8.0183-16.314-10.53-26.33-2.3892-10.126-2.2904-24.454-1.4021-35.784 1.072-11.442 4.0507-21.895 8.5533-29.756 3.3012-5.0833 8.8928-10.598 14.529-11.856 5.7585-1.1749 10.713 1.2552 14.879 4.9759 4.1657 3.6928 6.8306 9.3719 9.3116 15.415z" stroke-width=".029273"/><path d="m882.26 1054.2c1.5712 4.9531 2.3434 9.134 2.7162 15.712.37282 6.5775.23967 16.244-.39944 23.248-.47933 6.8438-1.0386 12.516-2.9026 17.842-1.8641 5.326-5.1662 11.211-8.1487 13.768-2.876 2.4225-5.9917 2.7421-9.0274.8514-2.9559-2.0231-6.3378-5.7513-8.7079-12.729-2.2103-7.1634-4.6602-19.2-4.8732-29.319-.13315-10.226 1.225-22.662 3.7814-30.731 2.6896-8.0688 8.0422-14.753 11.637-16.883 3.595-2.1304 6.8704 1.4113 9.5068 4.4738 2.7428 3.0897 4.8466 8.7352 6.4177 13.768zm5.6188-8.7878c2.2369 5.6988 3.9944 12.356 4.8732 19.04.90541 6.5236 1.0119 12.808.42607 20.185-.47933 7.4037-1.5179 16.564-3.6216 23.78-2.157 7.1634-5.4058 14.46-9.134 18.907-3.595 4.314-8.415 7.1641-12.516 7.0043-4.0477-.2663-8.0954-3.0631-11.85-8.3883-3.7282-5.4857-8.0688-14.327-10.252-23.861-2.0771-9.6392-3.089-22.316-2.3168-33.101.93203-10.892 3.3021-23.726 7.2166-31.209 3.9678-7.4829 11.025-11.77 15.925-12.969 5.0064-1.1184 9.5334 2.3967 13.155 5.9384 3.6216 3.5151 5.9384 8.9209 8.0954 14.673z" fill="#c0c0c0" stroke-width=".02663"/></g><path d="m356.5342-15.124106c-2.37538.0638-4.41597.23278-6.17506.53893-3.42786.58683-4.7931 1.61739-6.38666 3.17375-1.56364 1.5308702-2.43715 3.4878102-2.8581 5.9882002-18.24245 2.03157-40.9055 3.83474-55.65437-4.02254 2.20341 62.4075198 7.71318 71.4827498-41.39103 101.4831198 7.93088.1386 58.49304 8.091726 71.91179 6.33378 47.37549-14.52783 32.10269-48.10962 31.73121-95.7708498.24054-2.75554002.5916-4.50735 1.76428-5.80855 1.20276-1.40325 2.58665-1.80739 5.29286-2.21563 2.79644-.45927 6.50003-.59336 11.22087-.38924 1.41324-1.73495 1.93953-3.28968 1.72895-4.8204502-.18042-1.55636-1.20559-2.95922-3.06992-4.31149-3.05197-.17861-5.74034-.24344-8.11572-.17965z" stroke-width=".027698"/><path d="m351.36273-6.6544058c.9044-.92597 1.19384-1.77251.86823-2.85728-.28942-1.0582302-1.19385-2.2487802-2.71322-3.4656802-1.62789.58203-3.03887 1.26989-4.08796 2.35456-1.08529.9524102-1.77264 2.6720802-2.35144 3.7303102-.43413 1.05823-.7597 1.85193-.68736 2.48687.86824.44975 1.55563 1.03179 2.20681 1.85193.65117.82013 1.26621 1.74606998 1.70026 2.98949998.21704-2.48686998.72352-4.31225998 1.51938-5.47636998.94058-1.21699 1.98966-1.71962 3.54528-1.61384z" fill="#c0c0c0" stroke-width=".030936"/><g transform="matrix(1.1291439 0 0 .95811107 -719.77712 -948.84168)"><path d="m956.47 1083.6c0 5.2617-2.3039 9.5239-5.1838 9.5239-2.8415 0-5.1454-4.2622-5.1454-9.5239 0-5.2606 2.3039-9.5228 5.1454-9.5228 2.8799 0 5.1838 4.2622 5.1838 9.5228z" stroke-width=".038398"/><path d="m954.88 1083c0 3.649-1.5978 6.6049-3.595 6.6049-1.9706 0-3.5684-2.9559-3.5684-6.6049 0-3.6483 1.5978-6.6041 3.5684-6.6041 1.9972 0 3.595 2.9558 3.595 6.6041z" fill="#c0c0c0" stroke-width=".02663"/><path d="m962.48 1073.1c.0607 11.133-.63662 26.89-4.8286 39.672-3.9663 13.759-14.287 18.432-22.196.4703-4.8128-22.449-6.6817-36.161-.49824-57.782 4.6922-13.588 11.934-15.805 17.27-12.32 2.8848 5.4393 7.1593 8.3034 10.254 29.96zm5.5912-28.728c2.573 5.9868 4.5946 12.981 5.6054 20.003 1.0414 6.8533 1.164 13.456.49008 21.205-.55134 7.778-1.7459 17.402-4.1657 24.982-2.4811 7.5254-6.2179 15.191-10.506 19.863-4.1351 4.532-9.6792 7.5262-14.396 7.3584-4.6558-.2798-9.3116-3.218-13.63-8.8124-4.2882-5.763-8.031-15.944-10.543-25.96-2.3892-10.126-2.8388-22.908-1.9505-34.238 1.072-11.442 3.7981-24.926 8.3008-32.787 4.5639-7.8612 10.717-12.008 16.353-13.267 5.7585-1.175 10.966 2.5178 15.131 6.2386 4.1657 3.6928 6.8306 9.3718 9.3116 15.415z" stroke-width=".029273"/><path d="m960.71 1055.2c1.5712 4.9532 3.101 9.134 3.4738 15.712.37282 6.5776.23967 16.244-.39944 23.248-.47933 6.8438-1.7962 12.516-3.6602 17.842-1.8641 5.3259-5.1662 11.211-8.1487 13.768-2.876 2.4226-5.9917 2.7421-9.0274.8514-2.9559-2.0231-6.3378-5.7513-8.7079-12.729-2.2103-7.1633-4.6602-19.2-4.8732-29.319-.13315-10.226 1.225-22.662 3.7814-30.731 2.6896-8.0688 8.0422-14.753 11.637-16.883 3.595-2.1304 6.8704 1.4114 9.5068 4.4738 2.7428 3.0898 4.8466 8.7352 6.4177 13.768zm5.6188-8.7877c2.2369 5.6987 3.9944 12.356 4.8732 19.04.90541 6.5235 1.0119 12.808.42607 20.184-.47933 7.4038-1.5179 16.564-3.6216 23.78-2.157 7.1633-5.4058 14.46-9.134 18.907-3.595 4.314-8.415 7.1641-12.516 7.0043-4.0477-.2663-8.0954-3.0631-11.85-8.3883-3.7282-5.4857-8.0688-14.327-10.252-23.861-2.0771-9.6392-3.089-22.316-2.3168-33.101.93203-10.892 3.3021-23.726 7.2166-31.209 3.9678-7.483 11.025-11.77 15.925-12.969 5.0064-1.1184 9.5334 2.3967 13.155 5.9384 3.6216 3.5151 5.9384 8.921 8.0954 14.673z" fill="#c0c0c0" stroke-width=".02663"/></g></g></svg>