<svg height="16" viewBox="0 0 16 16" width="16" xmlns="http://www.w3.org/2000/svg"><g fill="#ac39ac" transform="translate(0 -1037.3622)"><g stroke="#da8dda" stroke-width=".477"><path d="m1.0368432 1039.8644h14.0938398"/><path d="m1.0368432 1042.8582h14.0938398"/><path d="m1.0368432 1045.852h14.0938398"/><path d="m1.0368432 1048.8458h14.0938398"/><path d="m1.0368432 1051.8397h14.0938398"/></g><g stroke="#ac39ac" stroke-linecap="round" stroke-linejoin="round" transform="matrix(.03437867 0 0 .03431875 -1.825337 1035.6294)"><circle cx="177.989416" cy="402.010594" r="52.169312" stroke-width="10"/><path d="m225.875 162.78125c-2.61273.0409-5.1927 1.15475-7.0142 3.02829-1.8215 1.87355-2.86227 4.48387-2.82955 7.09671v193.4375c-9.518-10.14902-23.01953-16.5-38.03125-16.5-28.81232 0-52.1875 23.34393-52.1875 52.15625s23.37518 52.1875 52.1875 52.1875c26.28278 0 53.24254-16.72266 57.625-48.71875.14129-.11507.46132-5.4127.40625-9.46875v-223.09375c.0334-2.66492-1.05191-5.32625-2.93935-7.20788-1.88743-1.88163-4.55209-2.9587-7.2169-2.91712z" stroke-width="20"/><path d="m401.00727 92.19924c-2.61273.04088-5.1927 1.15475-7.0142 3.02829-1.8215 1.87355-2.86227 4.48387-2.82955 7.09671v193.4375c-9.518-10.14902-23.01953-16.5-38.03125-16.5-28.81232 0-52.1875 23.34393-52.1875 52.15625s23.37518 52.1875 52.1875 52.1875c26.28278 0 53.24254-16.72266 57.625-48.71875.14129-.11507.46132-5.4127.40625-9.46875v-223.09375c.0334-2.66492-1.05191-5.32625-2.93935-7.20788-1.88743-1.88163-4.55209-2.9587-7.2169-2.91712z" stroke-width="20"/><path d="m227.85714 170.61905 171.08466-67.81481" stroke-width="40"/></g></g></svg>