<svg viewBox="0 0 432 432" xmlns="http://www.w3.org/2000/svg" xmlns:xlink="http://www.w3.org/1999/xlink"><linearGradient id="a"><stop offset="0" stop-color="#8eff6d"/><stop offset="1" stop-color="#9af978" stop-opacity="0"/></linearGradient><linearGradient id="b"><stop offset="0" stop-color="#525252" stop-opacity=".63478"/><stop offset="1" stop-color="#ececec" stop-opacity=".43478"/></linearGradient><filter id="c" color-interpolation-filters="sRGB"><feGaussianBlur stdDeviation="4.055"/></filter><filter id="d" color-interpolation-filters="sRGB"><feGaussianBlur stdDeviation="1.7120313"/></filter><filter id="e" color-interpolation-filters="sRGB"><feGaussianBlur stdDeviation="1.755396"/></filter><filter id="f" color-interpolation-filters="sRGB"><feGaussianBlur stdDeviation="1.8863557"/></filter><radialGradient id="g" cx="239.83" cy="323.14" gradientTransform="matrix(.78775 .45481 -.34925 .60492 163.76 18.588)" gradientUnits="userSpaceOnUse" r="203.35"><stop offset="0" stop-color="#ff70ff"/><stop offset="1" stop-color="#ff70ff" stop-opacity="0"/></radialGradient><radialGradient id="h" cx="240.29" cy="320.81" gradientTransform="matrix(1.3666 -.36617 .33705 1.2579 -193.58 2.6914)" gradientUnits="userSpaceOnUse" r="152.3" xlink:href="#a"/><linearGradient id="i" gradientUnits="userSpaceOnUse" spreadMethod="reflect" x1="34" x2="241.3" y1="316.874" y2="316.874"><stop offset="0" stop-color="#7eeebc" stop-opacity=".81961"/><stop offset="1" stop-color="#fdffdc" stop-opacity=".8"/></linearGradient><linearGradient id="j" gradientTransform="matrix(0 1 -1 0 559.35 79.59)" gradientUnits="userSpaceOnUse" spreadMethod="reflect" x1="237.28" x2="237.28" xlink:href="#b" y1="532.97" y2="105.9"/><linearGradient id="k" gradientTransform="matrix(0 1 -1 0 559.35 79.59)" gradientUnits="userSpaceOnUse" spreadMethod="reflect" x1="175.67" x2="298.9" xlink:href="#b" y1="319.44" y2="319.44"/><linearGradient id="l" gradientUnits="userSpaceOnUse" x1="38.21" x2="184.959" xlink:href="#a" y1="381.184" y2="381.184"/><radialGradient id="m" cx="238.03" cy="319.44" gradientTransform="matrix(1 0 0 1.8479 2.629 -273.43)" gradientUnits="userSpaceOnUse" r="115.58" xlink:href="#a"/><linearGradient id="n" gradientUnits="userSpaceOnUse" x1="20.733" x2="459.089" xlink:href="#b" y1="316.874" y2="316.874"/><linearGradient id="o" gradientUnits="userSpaceOnUse" x1="243.159" x2="239.379" xlink:href="#b" y1="219.424" y2="361.334"/><radialGradient id="p" cx="239" cy="315.98" gradientTransform="matrix(1.3872 0 0 1.187 -93.096 -61.665)" gradientUnits="userSpaceOnUse" r="211.06" xlink:href="#a"/><linearGradient id="q" gradientUnits="userSpaceOnUse" spreadMethod="reflect" x1="22.958" x2="238.409" xlink:href="#b" y1="316.874" y2="316.874"/><linearGradient id="r" gradientUnits="userSpaceOnUse" x1="293.55" x2="446.11" xlink:href="#a" y1="252.62" y2="252.62"/><g transform="translate(-24.688 -100.73)"><path d="m239.91 107.8c-115.46 0-209.06 93.602-209.06 209.06s93.602 209.06 209.06 209.06 209.06-93.602 209.06-209.06-93.602-209.06-209.06-209.06zm0 133.06c41.967 0 76 34.033 76 76s-34.033 76-76 76-76-34.033-76-76 34.033-76 76-76z" fill="#a1ea7f"/><path d="m452.51 316.87c0-117.42-95.181-212.6-212.6-212.6s-212.6 95.181-212.6 212.6 95.181 212.6 212.6 212.6 212.6-95.181 212.6-212.6zm-186.04 0c0 14.677-11.886 26.563-26.563 26.563s-26.563-11.886-26.563-26.563 11.886-26.594 26.563-26.594 26.563 11.917 26.563 26.594z" fill="url(#q)"/><path d="m48.816 238.18c-7.2062 17.969-11.999 37.092-14.031 56.844l129.63 12.25c.86437-7.0028 2.6856-13.787 5.3231-20.156l-120.92-48.93z" fill="url(#p)" filter="url(#f)"/><path d="m314.2 329.03c-.81604 5.1711-2.1688 10.18-3.9692 15l120.92 48.906c4.8911-12.667 8.5699-25.846 10.954-39.438l-127.9-24.47z" fill="url(#p)" filter="url(#f)"/><path d="m185.4 370.53-87.785 97.75c7.0288 6.7806 14.521 13.046 22.4 18.75l73.354-109.28c-2.8239-2.2046-5.4705-4.6264-7.9692-7.2188z" fill="url(#p)" filter="url(#f)"/><path d="m413.47 209.9-110.19 66.938c3.606 5.6927 6.461 11.907 8.4375 18.5l124.66-33.06c-5.1777-18.664-12.962-36.275-22.906-52.375z" fill="url(#r)" filter="url(#c)"/><path d="m239.91 288.2c-15.831 0-28.668 12.837-28.668 28.668s12.837 28.668 28.668 28.668 28.668-12.837 28.668-28.668-12.837-28.668-28.668-28.668zm0 .82161c15.378 0 27.846 12.469 27.846 27.846 0 15.378-12.469 27.846-27.846 27.846-15.378 0-27.846-12.469-27.846-27.846 0-15.378 12.469-27.846 27.846-27.846z" fill="url(#o)"/><path d="m239.91 247.72c-38.186 0-69.15 30.963-69.15 69.15 0 38.186 30.963 69.15 69.15 69.15 38.186 0 69.15-30.963 69.15-69.15 0-38.186-30.963-69.15-69.15-69.15zm0 1.9818c37.093 0 67.168 30.075 67.168 67.168s-30.075 67.168-67.168 67.168-67.168-30.075-67.168-67.168 30.075-67.168 67.168-67.168z" fill="url(#n)"/><path d="m239.94 113.03c-19.84 0-38.992 2.8383-57.125 8.125l38.406 123.16c5.9864-1.5406 12.252-2.375 18.719-2.375 14.537 0 28.134 4.115 39.625 11.281l66.938-110.12c-31.007-19.053-67.502-30.062-106.56-30.062z" fill="url(#m)" filter="url(#c)"/><path d="m278.63 381.06c-11.294 6.8203-24.535 10.75-38.688 10.75-13.96 0-27.027-3.8193-38.219-10.469l-66.906 110.19c30.697 18.519 66.661 29.188 105.12 29.188 36.011 0 69.86-9.362 99.219-25.75l-60.52-113.91z" fill="url(#m)" filter="url(#c)"/><path d="m104.5 164.56c-9.3517 8.3246-17.938 17.506-25.625 27.406l103.59 76.875c2.9537-3.5308 6.2027-6.7842 9.75-9.7188l-87.71-94.56z" fill="#a9c386" filter="url(#c)"/><path d="m344.75 499.72c11.895-6.6058 23.168-14.373 33.688-23.312l-84.59-101.6c-3.9312 3.4601-8.1775 6.4782-12.656 9.0312l63.562 115.88z" fill="url(#g)" filter="url(#e)"/><path d="m41.16 371.12 127.03-36.84c-.80821-3.526-1.3496-7.104-1.6562-10.719l-130.97 18.625c1.1883 9.7737 3.0543 19.444 5.5938 28.938z" fill="url(#g)" filter="url(#e)"/><path d="m318.75 303.93 131.38-15.156c-1.7504-12.732-4.6513-25.283-8.6875-37.469l-126.38 39c1.6455 4.4243 2.8749 8.9755 3.6875 13.625z" fill="url(#g)" filter="url(#e)"/><path d="m168.94 340.84-121 44.562c4.526 12.681 10.268 24.745 17.094 36.125l110.19-66.9c-2.5379-4.3405-4.6481-8.9417-6.2812-13.781z" fill="url(#l)" filter="url(#c)"/><path d="m239.91 378.49c34.025 0 61.614-27.589 61.614-61.614s-27.589-61.614-61.614-61.614-61.614 27.589-61.614 61.614 27.589 61.614 61.614 61.614zm0-1.7658c-33.05 0-59.848-26.798-59.848-59.848s26.798-59.848 59.848-59.848 59.848 26.798 59.848 59.848-26.798 59.848-59.848 59.848z" fill="url(#k)"/><path d="m179.59 316.87c0 33.311 27.01 60.321 60.321 60.321s60.321-27.01 60.321-60.321-27.01-60.321-60.321-60.321-60.321 27.01-60.321 60.321zm1.7288 0c0-32.357 26.236-58.592 58.592-58.592 32.357 0 58.592 26.236 58.592 58.592 0 32.357-26.236 58.592-58.592 58.592-32.357 0-58.592-26.236-58.592-58.592z" fill="url(#j)"/><path d="m237.69 113.03c-38.464 0-74.428 10.669-105.12 29.188l66.906 110.19c11.192-6.6494 24.259-10.469 38.219-10.469 14.153 0 27.394 3.9297 38.688 10.75l60.531-113.91c-29.359-16.388-63.208-25.75-99.219-25.75zm39.625 267.5c-11.491 7.1662-25.088 11.281-39.625 11.281-6.4667 0-12.732-.8344-18.719-2.375l-38.406 123.16c18.133 5.2867 37.285 8.125 57.125 8.125 39.061 0 75.556-11.009 106.56-30.062l-66.938-110.12z" fill="url(#i)" filter="url(#c)"/><g fill="#97bd84" fill-opacity=".97401"><path d="m376.44 167.75-85.875 96.25c2.4944 2.4951 4.7804 5.1718 6.9062 8l98.594-83.219c-6.0447-7.4611-12.609-14.502-19.625-21.031z" filter="url(#c)"/><path d="m58.941 218.72c-6.4078 11.62-11.688 23.882-15.75 36.719l122.53 40.156c1.4563-4.8957 3.4026-9.5702 5.7812-14l-112.56-62.875z" filter="url(#c)"/><path d="m310.07 335.87c-1.7357 6.6608-4.3844 12.961-7.7812 18.781l112.56 62.906c9.353-16.45 16.503-34.348 21-53.188l-125.78-28.5z" filter="url(#c)"/><path d="m181.85 367.03-100.72 80.59c8.0418 9.6148 16.946 18.489 26.594 26.469l84.219-97.688c-3.6516-2.8038-7.0138-5.9538-10.094-9.375z" filter="url(#c)"/></g><path d="m239.91 109.59c-114.47 0-207.28 92.814-207.28 207.28s92.814 207.28 207.28 207.28 207.28-92.814 207.28-207.28-92.814-207.28-207.28-207.28zm0 1.4062c113.69 0 205.88 92.188 205.88 205.88s-92.188 205.88-205.88 205.88-205.88-92.188-205.88-205.88 92.188-205.88 205.88-205.88z" fill="#333"/><path d="m391.1 180.59c-8.3246-9.3516-17.506-17.938-27.406-25.625l-76.875 103.59c3.5308 2.9537 6.7842 6.2027 9.7188 9.75l94.562-87.719z" fill="url(#h)" filter="url(#d)"/><path d="m345.76 489.56-66.938-110.19c-5.6927 3.606-11.907 6.461-18.5 8.4375l33.062 124.66c18.664-5.1777 36.275-12.962 52.375-22.906z" fill="url(#h)" filter="url(#d)"/><path d="m196.04 377.56c-2.9036-2.0218-5.6659-4.2229-8.25-6.625l-93.063 89.312c6.7802 6.7744 14.043 13.074 21.719 18.844l79.594-101.53z" fill="url(#h)" filter="url(#d)"/><path d="m239.91 240.87c-41.967 0-76 34.033-76 76s34.033 76 76 76 76-34.033 76-76-34.033-76-76-76zm0 5.8887c38.715 0 70.111 31.396 70.111 70.111s-31.396 70.111-70.111 70.111-70.111-31.396-70.111-70.111 31.396-70.111 70.111-70.111z" fill="#4d4d4d"/></g></svg>