<svg height="160" viewBox="0 0 160 160" width="160" xmlns="http://www.w3.org/2000/svg"><g transform="matrix(.65082175 0 0 .60298643 24.753818 -.150022)"><path d="m213.122 217.444c-6.4.89-13.2 3.399-19.97 4.75-5.4 1.069-10.79 1.409-15.94-.391 6.28-.12 12.49-.74 18.65-2.02 1.689-.351 5.239-1.521 8.699-2.36 3.791-.9 7.471-1.4 8.561.021z" fill="#047391"/><path d="m195.342 209.983c.22 2.461-.79 2.11-2.41 2.641.67-.951 1.62-1.771 2.41-2.641z"/><path d="m191.432 147.793c1.641 4.7 3.82 9.88 4.94 14.47-9.15 1.48-18.101 3.99-27.07 6.3-.189.051-.38.101-.57.15-4.97 1.35-7.029 2.72-9.189-2.32-1.36-3.18-2.93-6.52-3.61-9.93-.84-4.21 6.17-4.5 9.92-5.45 3.29-.83 6.63-1.58 9.96-2.3 1.431-.31 2.851-.61 4.271-.91 3.308-.689 10.088-3.59 11.348-.01zm-16.4 9.19c2.59-1.109 9.449 6.4 9.29-1.489-.85-5.651-8.43-3.071-9.29 1.489z" fill="#023f4f"/><path d="m182.032 143.603c2.489-.569 4.96-1.029 7.34-1.3-4.66 1.101-9.29 3.21-14.04 4.2-1.92.39-3.851.61-5.811.5 4.101-1.179 8.341-2.44 12.511-3.4z" fill="#047391"/><path d="m179.742 156.063c.81-2.989 2.149-2.109 1.83.23-.61-.07-1.22-.15-1.83-.23z" fill="#8c8c8c"/><path d="m181.572 156.293c.319-2.34-1.021-3.22-1.83-.23.61.08 1.22.16 1.83.23zm2.75-.799c.159 7.89-6.7.38-9.29 1.489.86-4.56 8.44-7.14 9.29-1.489z"/><path d="m171.252 206.543c.6 1.39 5.46 10.63 2.29 10.04-1.75-.33-3.5-4.68-4.95-9.38-1.45-4.71-2.6-9.78-3.11-11.57-2.14-7.38-4.5-14.86-7.31-22.02 5.08 2.08 3.72 10.17 7 14l.61-.12c1.26 6.52 2.82 12.93 5.47 19.05z" fill="#047391"/><path d="m165.172 187.614c3.28-8.761-8.11-13.761 4.09-16.91.46-.12.96-.24 1.5-.351 8.641-1.85 17.05-3.729 25.84-4.88 5.721 15.01 12.12 29.931 15.431 45.71.79 3.8-3.23 3.471-6.601 4.311-.42.1-.84.21-1.26.31-2.86.7-5.74 1.38-8.6 2.101-2.33.579-4.75-1.271-7.801-.181-2.899 1.04-6.01 1.95-8.38-.63.94-.53 2.311-.86 1.261-2.06-.311-.36-1.721.199-1.721.33-.399-.631-2.83-2.851-3.63-4.32-4.08-7.54-4.38-16.771-9.56-23.771.01.07.029.15.04.221zm27.76 25.01c1.62-.53 2.63-.18 2.41-2.641-.79.87-1.74 1.69-2.41 2.641z" fill="#047391"/><path d="m165.402 85.053c.68.88.159 1.34.109 2.41-.039-.799-.079-1.609-.109-2.41z" fill="#fff"/><path d="m165.402 109.723c0 .15.63 1.15.109 2.18-.699-.56-.229-1.15-.109-2.18z" fill="#fff"/><path d="m153.922 149.983c3.83-.8 7.65-1.6 11.48-2.409-3.39 2.399-7.44 2.819-11.48 2.409z" fill="#047391"/><path d="m183.412 227.423c-4.9 1.63-22.16 1.18-24.23 6.18l-.439-.08c.37-.949.609-2.22-.92-1.46-.92.46-1.29-1.58-1.141-2.229.48-2.101 8.7-4.54 11.42-5.7 7.75-3.321 8.8 4.23 15.31 3.289z" fill="#047391"/><path d="m159.092 233.843c5.76-.41 11.561-.88 17.26-1.87 4.03-.689 13.38-1.22 15.771-4.21-2.04-.47-4.19-.28-6.311-.46 1.521-1.479 4.431-2.54 7.721-3.35 4.81-1.2 10.439-1.86 13.739-2.5 2.4-.46 6.631-2.141 5.5 1.779-.47 1.65-1.529 3.23-2.75 3.961-4.899-.37-10.29-1.921-15.029.109-2.95 1.271-1.88 2.13-6.08 3.33-9.681 2.771-22.79 1.71-31.2 8.03-.44-1.771.62-3.72.57-4.23.04 0 .26-.42.46-.91l.439.08c-.04.081-.07.161-.09.241z" fill="#047391"/><path d="m152.092 154.694c2.73 5.039 4.51 10.529 6.65 15.829-3.87-.199-5.94-12.18-6.65-15.829z" fill="#047391"/><path d="m153.922 149.983c4.04.41 8.09-.01 11.48-2.409-3.83.809-7.65 1.609-11.48 2.409zm4.82 20.54c-2.141-5.3-3.92-10.79-6.65-15.829.71 3.649 2.78 15.63 6.65 15.829zm8.1 37.24c-5.1-16.109-11.61-31.91-16.82-48.02-.949-2.95-4.38-9.99-2.29-12.4.591-.68 8.65-1.149 9.94-1.479 7.87-1.96 15.91-2.95 23.79-4.74l.57 2.479c-4.17.96-8.41 2.221-12.511 3.4 1.96.11 3.891-.11 5.811-.5l.479 2.21c-3.33.72-6.67 1.47-9.96 2.3-3.75.95-10.76 1.24-9.92 5.45.681 3.41 2.25 6.75 3.61 9.93 2.16 5.04 4.22 3.67 9.189 2.32l.53 1.99c-12.2 3.149-.81 8.149-4.09 16.91-3.28-3.83-1.92-11.92-7-14 2.81 7.159 5.17 14.64 7.31 22.02.511 1.79 1.66 6.86 3.11 11.57z"/><g fill="#047391"><path d="m136.942 42.033c3.26.67 19.569-.58 19.39 2.18-1.59.12-3.19.22-4.79.28-4.99.2-10 .08-14.94-.62.11-.62.23-1.229.34-1.84z"/><path d="m155.872 35.383c1.79 6.65-6.04 4.41-9.63 4.01-3.03-.34-6.44.55-9.49.81-.01 0-.021 0-.03 0-.779-3.81 2.2-9.25-1.84-11.82 2.85-.65 5.91-.33 8.85.23 1.07.21 2.12.45 3.141.69 5.739 1.35 6.469.841 8.999 6.08z"/><path d="m153.122 236.023c.33 2.62-.561 5.82-1.03 7.921-.29-2.7.38-5.311 1.03-7.921z"/><path d="m153.122 231.433c-.5 1.21.12 2.25-1.61 1.61.01-.99.34-2.13.58-3.1 1.13.181.83.751 1.03 1.49z"/><path d="m150.481 232.813c-.89 1.71-2.47 2.45-4.359 1.841.66-2.2 2.44-3.46 4.359-1.841z"/><path d="m149.912 235.914c1.229 6.95-3.28 9.64-8.82 10.83-2.229.47-4.63.7-6.899.87.029-.66.1-1.28.199-1.86 1.35-7.831 8.69-7.93 15.52-9.84z"/></g><path d="m165.512 111.903c.521-1.03-.109-2.03-.109-2.18-.121 1.03-.591 1.62.109 2.18zm0-24.44c.05-1.07.57-1.53-.109-2.41.029.801.069 1.611.109 2.41zm-9.18-43.25c.18-2.76-16.13-1.51-19.39-2.18l-.19-1.83c3.05-.26 6.46-1.15 9.49-.81 3.59.4 11.42 2.64 9.63-4.01-2.53-5.24-3.26-4.73-9-6.08-1.021-.24-2.07-.48-3.141-.69l.57-2.79c1.47.3 2.95.6 4.42.9 5.931 1.2 7.62.37 9.91 5.33 3.53 7.67 5.09 17.39 7.13 25.57 4.71 18.8 12.141 37.36 18.05 55.86 6.261 19.63 13.141 39.02 20.03 58.44 3.74 10.521 7.54 21.021 11.101 31.61 3.09 9.16 5.02 14.14-.561 22.51-1.11 1.66-2.05 2.6-3.09 3.2l-1.271-2.05c1.221-.73 2.28-2.311 2.75-3.961 1.131-3.92-3.1-2.239-5.5-1.779-3.3.64-8.93 1.3-13.739 2.5l-.38-1.76c6.77-1.351 13.569-3.86 19.97-4.75-1.09-1.421-4.771-.921-8.561-.021l-.39-1.62c.42-.1.84-.21 1.26-.31 3.37-.84 7.391-.511 6.601-4.311-3.311-15.779-9.71-30.7-15.431-45.71-8.79 1.15-17.199 3.03-25.84 4.88-.54.11-1.04.23-1.5.351l-.53-1.99c.19-.05.381-.1.57-.15 8.97-2.31 17.92-4.819 27.07-6.3-1.12-4.59-3.3-9.77-4.94-14.47-1.26-3.58-8.04-.68-11.35.01-1.42.3-2.84.601-4.271.91l-.479-2.21c4.75-.99 9.38-3.1 14.04-4.2-2.38.271-4.851.73-7.34 1.3l-.57-2.479v-.01c2.16-.48 4.3-1.03 6.42-1.681-6.14-18.05-13.939-35.52-19.39-53.81-.601 7.59-1.9 15.56-1.061 23.18.721 6.37 1.8 13.82-1 19.84-1.46-1.39-1.729-3.44-1.609-5.39-.511 3.04 1.63 5.88.229 8.84-5.42-24.8-3.729-50.19-6.77-75.26-.311-2.59-.71-8.18-3.21-9.41-.75-.36-2.08-.4-3.45-.34l-.08-2.59c1.603-.058 3.203-.159 4.793-.279z"/><path d="m147.842 73.693c.4 3.12.811 6.23.811 9.38 0 2.45.739 4.78.8 6.11.109 2.55.26 4.95-1.95 6.66-4.29-13.62-.94-28.12-4.59-41.76l1.67-.78c2.409 5.17 2.969 18.111 3.259 20.39z"/><path d="m137.172 235.454c.91-.471.76-1.28 2.07-.69-.53.209-1.58.44-2.07.69z" fill="#fff"/><path d="m136.492 58.783c.46 1.31.359 2.78-.23 4.13-.84-1.51-.87-2.99.23-4.13z"/><path d="m136.262 62.914c.59-1.35.69-2.82.23-4.13-1.1 1.139-1.07 2.619-.23 4.13zm1.37-10.321c1.01-1.47 1.36-3.26 1.49-5.05-.19 2.33-.38 4.66-.57 7-.17-.39-.31-.98-.46-1.38-1.77 2.02.75 4.61.521 7.17-.37 4.07-2.28 8.94 1.779 11.87 1.98-3.04 1.021-6.8 1.03-10.21.34 1.82.44 3.64 1.26 5.28.971-4.35.971-8.81.23-13.19 3.649 13.64.3 28.14 4.59 41.76 2.21-1.71 2.06-4.11 1.95-6.66-.061-1.33-.8-3.66-.8-6.11 0-3.15-.41-6.26-.811-9.38-.29-2.28-.85-15.22-3.26-20.39-.91-1.95-2.09-2.79-3.62-1.52-.65-5.07 3.08-4.47 6.83-4.47.89 0 2.38-.17 3.83-.23 1.37-.06 2.7-.02 3.45.34 2.5 1.23 2.899 6.82 3.21 9.41 3.04 25.07 1.35 50.46 6.77 75.26 1.4-2.96-.74-5.8-.229-8.84-.12 1.95.149 4 1.609 5.39 2.8-6.02 1.721-13.47 1-19.84-.84-7.62.46-15.59 1.061-23.18 5.45 18.29 13.25 35.76 19.39 53.81-2.12.65-4.26 1.2-6.42 1.681v.01c-7.88 1.79-15.92 2.78-23.79 4.74-1.29.33-9.35.8-9.94 1.479-2.09 2.41 1.341 9.45 2.29 12.4 5.21 16.109 11.721 31.91 16.82 48.02.37 1.16.73 2.32 1.08 3.48.98 3.239 2.12 6.93.23 9.069-1.271 1.431-5.94 2.721-7.801 3.091-4.649.93-4.77 1.399-6.43-3.9-1.12-3.61-2.37-7.17-3.61-10.73-.449-1.29-.899-2.59-1.34-3.88-6.7-19.64-13.09-39.55-19.01-59.449-3.46-11.621-6.66-23.311-9.99-34.971-1.569-5.51-3.08-11.03-4.72-16.52-1.33-4.47-5.13-10.58-3.43-15.09 5.26 2.19 9.779 4.95 14.68 7.8 6.96 4.04 7.75 1.67 7.06-6.16-.96-10.84 1.7-22.02 2.24-32.85 1.861 1.37.291 3.13 1.831 4.94z" fill="#047391"/><path d="m133.622 240.614c-.28 1.54-.36 3.31-.811 4.84-.34 1.18-.899 2.21-1.949 2.85-.17-.34-.45-1.46-.301-2.25.101-.49.351-.85.881-.85 1.88 0 1.43-3.271 2.18-4.59z" fill="#047391"/><path d="m129.432 173.733c.011-.069 0-.159-.04-.25l2.771-.899c5.03 15.61 9.93 31.25 14.54 46.92 1.95 6.64 3.34 8.7-3.391 6.77-3.43-.979-5.77 8.07-7.08 2.921-1.81-7.091-4.05-14.04-6.38-20.971-3.409-10.17-6.989-20.279-9.649-30.7 4.859 1.939 8.099 3.019 9.229-3.791z" fill="#047391"/><path d="m128.892 162.543c1.101 3.34 2.181 6.689 3.271 10.04l-2.771.899c-.479-1.21-4.699-4.18-6.439-3.649-1.88.57-2.4 3.729-4.021 4.82-6.72-17.78-12.97-35.78-18.68-53.92l1.82-.57c.31.88 5.98 3.43 7 2.58 2.06-1.72 3.63-3.99 4.59-6.48 5.06 15.401 10.2 30.82 15.23 46.28z" fill="#047391"/><path d="m129.262 244.404c-.09.449-.18.899-.28 1.359-.319 1.351-.76 2.681-1.56 3.8-.24-1.21-.14-2.42.35-3.439.33-.67.82-1.26 1.49-1.72z" fill="#047391"/><path d="m123.642 173.614c2.021-1.33 2.73 1.31 2.641 2.3-1.981 1.879-4.841-.84-2.641-2.3z" fill="#8c8c8c"/><path d="m127.312 76.684c.42-1.92.58-3.88.58-5.86h1.25v10.79c-8.16-9.72-18.489-18.77-29.02-25.81 5.03-4.691 22.94 17.38 27.19 20.88z"/><path d="m115.082 3.684c.63.12 1.27.26 1.899.38-.289-.021-1.319-.251-1.899-.38z" fill="#fff"/><path d="m114.832 3.633c.08.01.17.03.25.05-.101-.019-.18-.039-.25-.05z" fill="#fff"/><path d="m110.332 92.164c7.54 24.23 14.91 48.51 22.83 72.62 3.97 12.09 8.1 24.12 12.27 36.14.891 2.55 2.021 5.44 3.08 8.47 1.87 5.311 3.53 11.021 3.351 15.96-2.65-2.18-3.471-9.359-4.591-12.62-2.199-6.43-4.85-12.72-7-19.159-3.479-10.45-7.14-20.83-10.54-31.301-1.14-3.489-2.239-6.989-3.3-10.51-4-13.25-6.729-27.07-11.399-40.09-4.42-12.37-9.391-24.35-11.47-37.4 3.319 5.37 4.999 12.43 6.769 17.89z" fill="#047391"/><path d="m106.662 117.293c.24-3.23 3.399-.39 3.33 1.37-1.37 1.59-3.52 1.18-3.33-1.37z" fill="#8c8c8c"/><path d="m104.942 237.173c.529-1.76 1.069-3.52 1.6-5.28-.35 1.91-.45 4.231-1.6 5.28z" fill="#047391"/><path d="m106.542 3.263c-.89.15-1.78.29-2.67.43.89-.21 1.79-.37 2.67-.43z" fill="#fff"/><path d="m100.252 120.733c-1.49-4.74-2.95-9.48-4.36-14.24-1.76-5.91-3.52-11.83-5.18-17.77-1.03-3.7-3.73-8.58-1.95-12.39 1.66-3.54 8.21-4.9 11.82-3.21 2.86 14.26 8.7 27.72 12.04 41.87-1.93-1.3-4.86-3.44-6.99-1.66-1.76 1.46-4.38 4.48-3.56 6.83z" fill="#047391"/><path d="m100.122 55.803c10.53 7.04 20.859 16.09 29.02 25.81 0-3.6 0-7.19 0-10.79.011-14.73.141-29.44 1.04-44.16 2.84 12.99-.2 27.97.261 41.24.109 3.36.14 6.74.369 10.1.28 4.01 1.591 7.71-2.899 4.22-6.03-4.69-11.19-10.36-16.78-15.52-2.49-2.31-5.46-5.78-8.49-7.35-1.06-.55-2.48 1.77-3.67.35-2.64-3.17 4.08-11.09 5.51-13.77 3.45-6.48 5.7-13.64 8.591-20.39 1.399-3.27 3-6.44 4.729-9.55 2.5-4.49 1.78-5.63.33-10.67 3.14 6.86 9.5 13.81 9.521 21.68-.641 8.74-1.15 17.33-1.15 26.04 0 5.78 1.39 11.88 1.39 17.78 0 1.98-.16 3.94-.58 5.86-4.252-3.499-22.162-25.57-27.192-20.88z" fill="#047391"/><path d="m52.742 13.813c16.83-4.53 33.91-7.29 51.09-10.11-2.68.65-5.34 1.84-7.5 2.88 2.33.08 9.04 2.86 8.6 5.59-1.43 8.78-6.87 11.57-14.61 12.78-.8.12-1.63.23-2.48.33-3.65.42-7.31.56-10.95 1.15-1.86.3-3.44.8-5.22 1.41-1.43.49-.71-1.37-1.72-1.64-6.28-1.69-11.67-7.69-17.21-12.39z" fill="#023f4f"/><path d="m98.512 64.523c1.53.61 3.12 1.98 3.56 2.98-1.11.83-2.78 1.46-4.02 1.95.16-1.64.31-3.289.46-4.93z" fill="#047391"/><path d="m96.562 240.733c.92-1.039 2.53-1.63 4.13-1.609-1.35.57-2.75 1.12-4.13 1.609z" fill="#047391"/><path d="m90.372 31.763c7.36-.36 7.91 5.6 9.75 11.76-2.37 1.12-7.87 3.13-12.73 4.07-3.12.6-5.98.76-7.58-.05-3.43-1.73-4.27-9.49-5.96-12.62 3.8-.82 7.49-1.87 11.28-2.54 1.72-.3 3.46-.529 5.24-.62z" fill="#022d38"/><path d="m98.402 47.193c-.62 4.14-4.21 6.87-4.7 11.13-3.49-1.04-6.45-3.29-9.24-5.63-.87-.72-1.73-1.46-2.58-2.17 1.91-.69 3.84-1.16 5.78-1.53 3.55-.68 7.15-1.039 10.74-1.8z" fill="#023f4f"/><path d="m94.612 63.833c.2.24 1.37 2.05 1.38 2.06-1.71 3.07-5.69.39-1.38-2.06z" fill="#8c8c8c"/><path d="m90.662 27.083c2.66-.42 5.35-.74 8.08-.94 4.78-.35 6.581-.45 5.85 4.65-.36 2.57-2.16 5.75-2.75 7.91-1.35-2.87-2.7-5.75-4.05-8.63-1.64-3.5-3.22-1.76-6.73-1.12-2 .37-4.14.83-6.31 1.21-3.41.6-6.9.97-10.1.4 5.35-1.41 10.63-2.64 16.01-3.48z" fill="#023f4f"/><path d="m82.452 244.513c3.02-2.84 7.63-2.03 11.36-2.979-3.73 1.299-7.38 2.699-11.36 2.979z" fill="#047391"/><path d="m104.702 147.253c-4.33-13.76-8.58-27.54-12.95-41.29-1.78-5.63-3.23-11.46-5.17-17.01-.77-2.23-2.36-4.41-1.72-6.77 11.49 32.93 21.01 67.299 33.5 99.47 1.26 3.31 6.1 15.6 9.96 27.079 3.62 10.79 6.38 20.881 4.489 22.131-2.659-7.32-5.26-14.65-7.81-22-7.099-20.419-13.809-40.97-20.299-61.61z" fill="#047391"/><path d="m107.002 229.253c-3.1-10.1-7.37-19.91-10.77-29.95-1.79-5.26-3.34-10.59-4.37-16.05 4.99 15.371 11.3 30.661 15.14 46z" fill="#047391"/><path d="m86.012 166.733c1.49 4.521 2.98 9.03 4.47 13.54-3.23-3.72-3.39-8.949-4.47-13.54z" fill="#047391"/><path d="m51.712 172.704c7.03-2.05 14.01-2.601 21.22-3.9 2.22-.399 8.32-2.689 10.33-1.27 1.44 1.029 4.32 12.239 4.24 14.12-7.73 2.399-15.9 2.529-23.66 4.79-4.42 1.289-8.37 2.149-10.99-2.61-1.05 1.12.14 8.43-3.09 2.52-4.49 9.591-8.07-6.13-8.95-10.67 3.65-.681 7.34-1.951 10.9-2.98zm9.75 6.189c-.19-8.08-14.02-3.42-9.91 1.891-.3-.681 5.13.63 4.98.64 1.96-.111 3.9-.861 4.93-2.531z" fill="#023f4f"/><path d="m72.592 31.593c-2.27-.32-4.65.29-6.66 1.38.69 1.21 1.59 2.63 2.53 3.67 1.24-.8.43-.54 2.06-.92.44-1.11.17-1.87-.34-2.75.83-.39 1.61-.92 2.41-1.38zm-19.85-17.78c5.54 4.7 10.93 10.7 17.21 12.39 1.01.27.29 2.13 1.72 1.64 1.78-.61 3.36-1.11 5.22-1.41 3.64-.59 7.3-.73 10.95-1.15.85-.1 1.68-.21 2.48-.33l.34 2.13c-5.38.84-10.66 2.07-16.01 3.48 3.2.57 6.69.2 10.1-.4l.38 2.22c-3.79.67-7.48 1.72-11.28 2.54 1.69 3.13 2.53 10.89 5.96 12.62 1.6.81 4.46.65 7.58.05l.27 1.4c-1.94.37-3.87.84-5.78 1.53.85.71 1.71 1.45 2.58 2.17l-1.2 1.43c-4.76-3.97-12.83-8.9-14.92-10.6-6.21-5.04-12.4-10.14-18.24-15.6-4.18-2.08-9.3-5.87-8.83-11.13-1.32 1.9.16 7.14-1.15 7.92-1.29.78-2.48 4.65-3.05 8.17l-2.95-.42c.26-1.97.41-4.2.77-6.77.35-2.49.06-9.92 2.13-11.99 3.11-3.11 12.01-3.87 16.29-4.94 6.29-1.57 12.58-2.94 18.95-4.14 11.17-2.1 22.74-3.77 34.17-4.25l.11 2.89c-.88.06-1.78.22-2.67.43-.021.01-.03.01-.04.01-17.18 2.82-34.26 5.58-51.09 10.11zm-5.83 4.22c-.17.44-.29 1.05-.37 1.86.17-.63.32-1.269.37-1.86zm0-.01c1.02-2.74 3.39.96 3.42 1.18.23-1.4.35-3.33.46-4.93-1.76.46-3.52.92-5.28 1.38 1.22.261 1.5 1.221 1.4 2.37zm12.14 6c2.08 2.57 5.39 8.34 8.14 4.7-2.65-.86-5.44-3.17-8.14-4.7z"/><path d="m75.112 246.353c1.76-1.29 3.84-2.93 5.28-1.489-1.31 1.399-3.22 1.429-5.28 1.489z" fill="#047391"/><path d="m81.192 163.983c-6.56 2.57-13.88 3.591-20.88 3.9 6.85-1.969 14-2.189 20.88-3.9z" fill="#047391"/><path d="m74.422 229.713c-1.44.13-1.7-1.6-1.95-3.55.28 1.541 1.01 2.36 1.95 3.55z"/><path d="m106.662 117.293c-.19 2.55 1.96 2.96 3.33 1.37.07-1.76-3.09-4.6-3.33-1.37zm10.319-113.23c-.63-.12-1.27-.26-1.899-.38-.08-.02-.17-.04-.25-.05.07.01.149.03.25.05.58.13 1.61.36 1.899.38zm10.671 22.94c-.021-7.87-6.381-14.82-9.521-21.68 1.45 5.04 2.17 6.18-.33 10.67-1.729 3.11-3.33 6.28-4.729 9.55-2.891 6.75-5.141 13.91-8.591 20.39-1.43 2.68-8.149 10.6-5.51 13.77 1.19 1.42 2.61-.9 3.67-.35 3.03 1.57 6 5.04 8.49 7.35 5.59 5.16 10.75 10.83 16.78 15.52 4.49 3.49 3.18-.21 2.899-4.22-.229-3.36-.26-6.74-.369-10.1-.461-13.27 2.579-28.25-.261-41.24-.899 14.72-1.029 29.43-1.04 44.16h-1.25c0-5.9-1.39-12-1.39-17.78.002-8.71.512-17.3 1.152-26.04zm-1.37 148.911c.09-.99-.62-3.63-2.641-2.3-2.199 1.46.661 4.179 2.641 2.3zm-30.29-110.02c-.01-.01-1.18-1.82-1.38-2.06-4.31 2.449-.33 5.129 1.38 2.06zm2.52-1.371c-.15 1.64-.3 3.29-.46 4.93 1.24-.49 2.91-1.12 4.02-1.95-.44-1-2.03-2.37-3.56-2.98zm-11.7-6.2c-.12-1.02-1.54-2.52-3.55-4.2l1.2-1.43c2.79 2.34 5.75 4.59 9.24 5.63.49-4.26 4.08-6.99 4.7-11.13-3.59.76-7.19 1.12-10.74 1.8l-.27-1.4c4.86-.94 10.36-2.95 12.73-4.07-1.84-6.16-2.39-12.12-9.75-11.76-1.78.09-3.52.32-5.24.62l-.38-2.22c2.17-.38 4.31-.84 6.31-1.21 3.51-.64 5.09-2.38 6.73 1.12 1.35 2.88 2.7 5.76 4.05 8.63.59-2.16 2.39-5.34 2.75-7.91.73-5.1-1.07-5-5.85-4.65-2.73.2-5.42.52-8.08.94l-.34-2.13c7.74-1.21 13.18-4 14.61-12.78.44-2.73-6.27-5.51-8.6-5.59 2.16-1.04 4.82-2.23 7.5-2.88.01 0 .02 0 .04-.01.89-.14 1.78-.28 2.67-.43l-.11-2.89c1.45-.06 2.891-.1 4.34-.12 7.421-.11 10.2 1.92 13.54 8.59 2.5 5.01 4.551 10.33 8.28 14.61 3.9.79 7.8 1.58 11.71 2.37l-.57 2.79c-2.939-.56-6-.88-8.85-.23 4.04 2.57 1.061 8.01 1.84 11.82h.03l.19 1.83c-.11.61-.23 1.22-.341 1.84 4.94.7 9.95.82 14.94.62l.08 2.59c-1.45.06-2.94.23-3.83.23-3.75 0-7.48-.6-6.83 4.47 1.53-1.27 2.71-.43 3.62 1.52l-1.67.78c.74 4.38.74 8.84-.23 13.19-.819-1.64-.92-3.46-1.26-5.28-.01 3.41.95 7.17-1.03 10.21-4.06-2.93-2.149-7.8-1.779-11.87.229-2.56-2.29-5.15-.521-7.17.15.4.29.99.46 1.38.19-2.34.38-4.67.57-7-.13 1.79-.48 3.58-1.49 5.05-1.54-1.81.03-3.57-1.83-4.94-.54 10.83-3.2 22.01-2.24 32.85.69 7.83-.1 10.2-7.06 6.16-4.9-2.85-9.42-5.61-14.68-7.8-1.7 4.51 2.1 10.62 3.43 15.09 1.64 5.49 3.15 11.01 4.72 16.52 3.33 11.66 6.53 23.35 9.99 34.971 5.92 19.899 12.31 39.81 19.01 59.449.44 1.29.891 2.59 1.34 3.88l-1.8.62c-1.06-3.029-2.189-5.92-3.08-8.47-4.17-12.02-8.3-24.05-12.27-36.14-7.92-24.11-15.29-48.39-22.83-72.62-1.771-5.46-3.45-12.52-6.77-17.89 2.08 13.05 7.05 25.03 11.47 37.4 4.67 13.02 7.399 26.84 11.399 40.09 1.061 3.521 2.16 7.021 3.3 10.51l-.84.271c-5.029-15.46-10.17-30.88-15.229-46.28-.96 2.49-2.53 4.76-4.59 6.48-1.021.85-6.69-1.7-7-2.58-.82-2.35 1.8-5.37 3.56-6.83 2.13-1.78 5.061.36 6.99 1.66-3.34-14.15-9.18-27.61-12.04-41.87-3.61-1.69-10.16-.33-11.82 3.21-1.78 3.81.92 8.69 1.95 12.39 1.66 5.94 3.42 11.86 5.18 17.77 1.41 4.76 2.87 9.5 4.36 14.24 5.71 18.14 11.96 36.14 18.68 53.92 1.62-1.091 2.141-4.25 4.021-4.82 1.74-.53 5.96 2.439 6.439 3.649.04.091.051.181.04.25-1.13 6.811-4.37 5.73-9.229 3.79 2.66 10.421 6.24 20.53 9.649 30.7l-1.529.51c-3.86-11.479-8.7-23.77-9.96-27.079-12.49-32.171-22.01-66.541-33.5-99.47-.64 2.36.95 4.54 1.72 6.77 1.94 5.55 3.39 11.38 5.17 17.01 4.37 13.75 8.62 27.53 12.95 41.29 6.49 20.64 13.2 41.19 20.3 61.61l-2.19.76c-3.1-8.82-6.949-17.5-10.3-25.91-6.67-16.75-12.6-33.63-17.98-50.83-4.76-15.23-7.74-30.9-13-45.99-3.97 5.24-7.95 10.47-11.93 15.71-1.59-2.19-2.78-4.63-4.17-6.95l2.64-.74c.84 1.65 1.47 1.68 3.71-1.14 2.04-2.55 3.54-5.9 4.94-8.83 4.02-8.47 7.66-17.49 13.99-24.55-3.74-1.43-12.46 16.19-18.03 26.18l-.22-.12c1.45-2.65 2.96-6.49 3.35-7.36 1.61-3.63 3.05-7.33 4.76-10.9.85-1.751 6.42-8.451 6.24-9.871z"/><path d="m62.612 224.893c.78 1.21 1.76 2.391 2.41 3.681-.92-4.94-4.45-9.771-5.63-14.92-.4 1.09-.58 2.51-.68 3.67.68 0 1.62 6.79 2.17 9.409.44-.97 1.1-1.029 1.73-1.84zm-5.74-28.449c4.27-4.381-5.01-5.311 5.02-7.82 8.92-2.23 18.27-3 27.33-4.57 1.8 5.271 3.61 10.53 5.42 15.79 2.92 8.51 5.84 17 8.75 25.51 1.03 3.021-.26 5.341-1.55 7.57-1.9 3.31-1.43 4.271-5.74 5.51-3.17.92-6.55.74-9.75 1.721.79-4.841 6.18-2.87 8.38-5.62 2.54-3.181-2.69-3.061-5.03-1.86-4.77 2.46-11.27 4.521-15.39 7.94-1.16.96-.54 2.399-2.41 3.33 3.5-3.87-2.43-.61-4.25 0-1.64.55-2.42-.761-2.63-.69-1.73.57-1.76 2.26-3.91 2.64.42-7.5-2.67-14.18-5.52-20.91-2.79-6.609-4.15-13.619-6.52-20.39-.32-.91-5.72-15.31-.8-13.42 3.06 1.18.91 8.49 5.96 9.86.61-2.13-4.18-9.181-2.06-10.44 2.21-1.311 4.15 4.769 4.7 5.849zm1.15 1.039c.79 2 .8 4.271 2.75 5.5-.92-1.829-1.83-3.67-2.75-5.5zm14.45 28.681c.25 1.95.51 3.68 1.95 3.55-.94-1.191-1.67-2.01-1.95-3.55zm-5.85-10.67c-.08-.601-.68-2.79-1.03-3.9-.88 1.949-.13 2.669 1.03 3.9z" fill="#047391"/><path d="m146.122 234.654c1.89.609 3.47-.131 4.359-1.841-1.919-1.619-3.699-.359-4.359 1.841zm5.39-1.611c1.73.64 1.11-.4 1.61-1.61-.2-.739.1-1.31-1.03-1.489-.24.97-.571 2.109-.58 3.099zm.58 10.901c.47-2.101 1.36-5.301 1.03-7.921-.65 2.61-1.32 5.221-1.03 7.921zm-45.55-12.051c-.53 1.761-1.07 3.521-1.6 5.28 1.15-1.049 1.25-3.37 1.6-5.28zm-12.73 9.641c-3.73.949-8.34.14-11.36 2.979 3.98-.28 7.63-1.68 11.36-2.979zm6.88-2.41c-1.6-.021-3.21.57-4.13 1.609 1.38-.489 2.78-1.039 4.13-1.609zm-28.79 4.82c1.87-.931 1.25-2.37 2.41-3.33 4.12-3.42 10.62-5.48 15.39-7.94 2.34-1.2 7.57-1.32 5.03 1.86-2.2 2.75-7.59.779-8.38 5.62 3.2-.98 6.58-.801 9.75-1.721 4.31-1.239 3.84-2.2 5.74-5.51 1.29-2.229 2.58-4.55 1.55-7.57-2.91-8.51-5.83-17-8.75-25.51l1.59-.54c3.4 10.04 7.67 19.851 10.77 29.95-3.84-15.34-10.15-30.63-15.14-46l2.14-.71c.63 1.89 1.29 3.77 1.99 5.64 4.42 11.9 10 23.4 13.13 35.74 1.979 7.771 2.79.57 6.26 2.47 2.88 1.57-2.27 3.73-3.9 3.21-.539 2.83-1.069 5.66-1.609 8.49 3.31-.45 7.399-2.28 11.47-3.439 4.38-1.261 7.19-1.82 6.37-6.771-1.02-6.13-2.78-12.229-4.9-18.26l2.19-.76c2.55 7.35 5.15 14.68 7.81 22 1.891-1.25-.869-11.341-4.489-22.131l1.529-.51c2.33 6.931 4.57 13.88 6.38 20.971 1.311 5.149 3.65-3.9 7.08-2.921 6.73 1.931 5.341-.13 3.391-6.77-4.61-15.67-9.51-31.31-14.54-46.92-1.09-3.351-2.17-6.7-3.271-10.04l.84-.271c3.4 10.471 7.061 20.851 10.54 31.301 2.15 6.439 4.801 12.729 7 19.159 1.12 3.261 1.94 10.44 4.591 12.62.18-4.939-1.48-10.649-3.351-15.96l1.8-.62c1.24 3.561 2.49 7.12 3.61 10.73 1.66 5.3 1.78 4.83 6.43 3.9 1.86-.37 6.53-1.66 7.801-3.091 1.89-2.14.75-5.83-.23-9.069-.35-1.16-.71-2.32-1.08-3.48l1.75-.56c1.45 4.7 3.2 9.05 4.95 9.38 3.17.59-1.69-8.65-2.29-10.04-2.65-6.12-4.21-12.53-5.47-19.05-.011-.07-.03-.15-.04-.221 5.18 7 5.479 16.23 9.56 23.771.8 1.47 3.23 3.689 3.63 4.32 0-.131 1.41-.69 1.721-.33 1.05 1.199-.32 1.529-1.261 2.06 2.37 2.58 5.48 1.67 8.38.63 3.051-1.09 5.471.76 7.801.181 2.859-.721 5.739-1.4 8.6-2.101l.39 1.62c-3.46.84-7.01 2.01-8.699 2.36-6.16 1.279-12.37 1.899-18.65 2.02 5.15 1.8 10.54 1.46 15.94.391l.38 1.76c-3.29.81-6.2 1.87-7.721 3.35 2.12.18 4.271-.01 6.311.46-2.391 2.99-11.74 3.521-15.771 4.21-5.699.99-11.5 1.46-17.26 1.87.021-.08.05-.16.09-.24 2.07-5 19.33-4.55 24.23-6.18-6.51.94-7.561-6.61-15.311-3.29-2.72 1.16-10.939 3.6-11.42 5.7-.149.649.221 2.689 1.141 2.229 1.529-.76 1.29.511.92 1.46-.2.49-.42.91-.46.91.05.511-1.011 2.46-.57 4.23 8.41-6.32 21.52-5.26 31.2-8.03 4.2-1.2 3.13-2.06 6.08-3.33 4.739-2.03 10.13-.479 15.029-.109l1.271 2.05c-1.53.88-3.3 1.04-6.18 1.68-4.551 1.01-9.12 1.84-13.67 2.81-8.58 1.83-17.141 3.74-25.7 5.62-4.891 1.07-6.12 3.48-10.32 5.49-4.08 1.95-8.53 2.57-12.97 3.23-.351.05-.69.109-1.04.18l-.32-1.51c5.54-1.19 10.05-3.88 8.82-10.83-6.83 1.91-14.17 2.01-15.521 9.84l-1.58-.3c.45-1.53.53-3.3.811-4.84-.75 1.319-.3 4.59-2.18 4.59-.53 0-.78.359-.881.85l-1.58-.29c.101-.46.19-.91.28-1.359-.67.46-1.16 1.05-1.49 1.72l-1.489-.46c.399-1.101.34-2.72.22-3.67-2.64-.46-7.75 3.649-7.91.92-7.2-.25-14.75 6.08-20.76 4.47.22.311.45.61.68.92-5.26-1.37-12.74.01-17.32 2.641 3.16 1.8-3.53 2.539-5.39 3.21-3.57 1.27-6.97 3-10.6 3.949-1.21.311-2.45.54-3.74.641 4.99-3.41 11.13-4.41 16.06-7.92-5.37 3.02-11.75 2.68-17.55 1.26.53-.67 3.09-3.83 1.66-4.24-.2-.06-.38-.08-.53-.08l.01-1.87c2.15-.38 2.18-2.069 3.91-2.64.21-.07.99 1.24 2.63.69 1.817-.611 7.747-3.87 4.247 0zm.8 1.489c-2.5.55-5.01 1.11-7.51 1.66 2.76-.49 6.09 1.74 7.51-1.66zm7.69-.569c-1.44-1.44-3.52.199-5.28 1.489 2.06-.06 3.97-.09 5.28-1.489zm58.85-10.101c-1.311-.59-1.16.22-2.07.69.49-.249 1.54-.48 2.07-.69z"/><path d="m65.192 247.093c2.5-.55 5.01-1.11 7.51-1.66-1.42 3.4-4.75 1.17-7.51 1.66z" fill="#047391"/><path d="m65.932 32.973c2.01-1.09 4.39-1.7 6.66-1.38-.8.46-1.58.99-2.41 1.38.51.88.78 1.64.34 2.75-1.63.38-.82.12-2.06.92-.94-1.039-1.84-2.459-2.53-3.67z" fill="#023f4f"/><path d="m78.092 255.994c-4.3 1.04-8.43 2.189-12.56 3.319l-.33-1.21c3.63-.949 7.03-2.68 10.6-3.949 1.86-.671 8.55-1.41 5.39-3.21 4.58-2.631 12.06-4.011 17.32-2.641-.23-.31-.46-.609-.68-.92 6.01 1.61 13.56-4.72 20.76-4.47.16 2.729 5.271-1.38 7.91-.92.12.95.18 2.569-.22 3.67-4.561.689-9.101 1.38-13.66 2.06.689-.52 1.43-1.069 2.18-1.49-.229-.3-.46-.609-.68-.909-11.47 6-23.6 7.659-36.03 10.67z" fill="#047391"/><path d="m65.592 211.593c.35 1.11.95 3.3 1.03 3.9-1.16-1.23-1.91-1.95-1.03-3.9z"/><path d="m67.192 28.723c-2.75 3.64-6.06-2.13-8.14-4.7 2.7 1.53 5.49 3.84 8.14 4.7z" fill="#023f4f"/><path d="m63.412 70.023c.79 1.36 1.29 2.87 1.26 4.25-.36-1.43-.84-2.83-1.26-4.25z"/><path d="m65.022 228.574c-.65-1.29-1.63-2.471-2.41-3.681-.63.811-1.29.87-1.73 1.84-.55-2.619-1.49-9.409-2.17-9.409.1-1.16.28-2.58.68-3.67 1.18 5.149 4.71 9.979 5.63 14.92z"/><path d="m57.672 113.164c1.38 2.37 2.76 4.74 4.13 7.11-.71-2.371-1.49-5.751-4.13-7.11zm-1.03-2.181c1.47-3.92-10.8-19.28-15.95-16.98.78 2.44 11.35 10.65 8.04 11.13.41.81.66 1.17.91 1.95.14-.46.6-1.76.46-2.53 2.43 1.91 3.26 5.881 6.54 6.43zm-11.55-37.879c3.06 6.41 7.22 12.31 11.32 18.09 2.15 3.03 8.88 15.78 11.93 15.66-3.25-5.55-6.5-11.09-9.75-16.64 1.34 1.99 2.68 3.98 4.02 5.97.9-1.42.66-2.81 0-4.47 1.09 1.21 1.99 2.55 2.82 3.94 1.39 2.32 2.58 4.76 4.17 6.95 3.98-5.24 7.96-10.47 11.93-15.71 5.26 15.09 8.24 30.76 13 45.99 5.38 17.2 11.31 34.08 17.98 50.83 3.351 8.41 7.2 17.09 10.3 25.91 2.12 6.03 3.881 12.13 4.9 18.26.82 4.95-1.99 5.51-6.37 6.771-4.07 1.159-8.16 2.989-11.47 3.439.54-2.83 1.07-5.66 1.609-8.49 1.631.521 6.78-1.64 3.9-3.21-3.47-1.899-4.28 5.301-6.26-2.47-3.13-12.34-8.71-23.84-13.13-35.74-.7-1.87-1.36-3.75-1.99-5.64-1.36-4.07-2.57-8.2-3.65-12.36-.52-2.04-.23-7.229-1.47-8.5-1.27-1.29-7.58-1.109-9.27-.979-5.7.47-11.24 1.51-16.85 2.6-4.9.95-14.04-.25-17.94 2.28-.78-7.58-5.93-14.18-5.04-22.021-1.02.141-2.1.7-2.87 1.37 1.31 2.271 3.25 7.511 2.64 10.271-.63 2.84 2.41 7.88 2.41 11.189-.69.301-2.45.761-3.45 1.141-3.77-17.23-8.53-34.15-13.56-51.061-2.64-8.88-5.26-17.76-7.79-26.68-1.33-4.69-1.07-8.74-3.42-12.88 5.43-1.87 13.03-7.35 19.3-9.34 5.84-1.84 10.51-.68 11.21 9.22-1.42 1.99-.4 6.69 2.29 5.51 1.06 1.78 5.44 7.91 8.57 13.18 2.25 3.78 3.86 7.11 3.15 8.06-2.59 3.45 8.16 14.82 10.72 18.41 4.86 6.79 9.78 13.5 15.01 20.01 2.69 3.35 11.12 15.63 15.21 15.25-14.01-21.15-30.14-40.69-42.96-62.39-4.119-6.97-7.899-14.171-11.149-21.72zm-12.77-.551c.08 2.23.7 4.56 3.1 5.04-1.04-1.679-2.07-3.36-3.1-5.04zm2.64 7.68c1.64 2.41 3.29 4.82 4.93 7.23-.89-2.18-2.8-5.259-4.93-7.23zm4.93 59.66c.02-1.479-.72-3.13-1.83-4.36.61 1.45 1.22 2.9 1.83 4.36z" fill="#047391"/><path d="m59.972 252.083c5.8 1.42 12.18 1.76 17.55-1.26-4.93 3.51-11.07 4.51-16.06 7.92 1.29-.101 2.53-.33 3.74-.641l.33 1.21c-3.95 1.091-7.9 2.16-11.99 3.101-.2-2.94 1.95-3.78 3.96-5.34 2.73-2.12.65-3.86 1.84-5.851.66-1.1.29-3.46 1.76-3.46.15 0 .33.021.53.08 1.43.411-1.13 3.572-1.66 4.241z" fill="#047391"/><path d="m61.802 120.273c-1.37-2.37-2.75-4.74-4.13-7.11 2.64 1.36 3.42 4.74 4.13 7.11z"/><path d="m58.022 197.483c.92 1.83 1.83 3.671 2.75 5.5-1.95-1.23-1.96-3.5-2.75-5.5z"/><path d="m56.242 94.823c12.82 21.7 28.95 41.24 42.96 62.39-4.09.38-12.52-11.9-15.21-15.25-5.23-6.51-10.15-13.22-15.01-20.01-2.56-3.59-13.31-14.96-10.72-18.41.71-.95-.9-4.28-3.15-8.06z"/><path d="m59.052 177.173c-.05 3.12-4.23 2.51-3.44.23.66-1.9 2.97-.73 3.44-.23z" fill="#8c8c8c"/><path d="m55.612 177.404c-.79 2.279 3.39 2.89 3.44-.23-.47-.501-2.78-1.671-3.44.23zm5.85 1.489c-1.03 1.67-2.97 2.42-4.93 2.53.15-.01-5.28-1.32-4.98-.64-4.11-5.31 9.72-9.97 9.91-1.89z"/><path d="m56.312 61.293c.08.35.15.7.22 1.05-.08-.34-.16-.69-.22-1.05z"/><path d="m47.582 170.523c1.95-2.27 5.3-1.55 8.03-1.72-2.49 1.04-5.54 1.021-8.03 1.72z" fill="#047391"/><path d="m53.542 262.414c4.09-.94 8.04-2.01 11.99-3.101 4.13-1.13 8.26-2.279 12.56-3.319 12.43-3.011 24.56-4.67 36.03-10.67.22.3.45.609.68.909-.75.421-1.49.971-2.18 1.49 4.56-.68 9.1-1.37 13.66-2.06l1.489.46c-.489 1.02-.59 2.229-.35 3.439.8-1.119 1.24-2.449 1.56-3.8l1.58.29c-.149.79.131 1.91.301 2.25 1.05-.64 1.609-1.67 1.949-2.85l1.58.3c-.1.58-.17 1.2-.199 1.86 2.27-.17 4.67-.4 6.899-.87l.32 1.51c-5.2 1.03-10.32 3.88-15.71 3.2-2.36-.29-2.17-2.87-4.24-2.521-3.36.55-6.5 1.58-9.79 2.49-9.41 2.59-18.86 5.06-28.36 7.271-9.59 2.239-19.17 4.46-28.85 6.3-.22.04-.43.08-.63.109z"/><path d="m48.952 73.233c2.56 3.69 5.77 8.22 7.92 11.48-4.15-2.7-5.22-7.62-7.92-11.48z" fill="#047391"/><path d="m53.432 49.033c-.33-.03-.65-.13-.93-.28.07-.14.15-.27.24-.41z"/><path d="m51.482 66.813c-5.4-7.86-12.59-15.11-15.49-24.2 11.5 16.48 23.18 32.88 32.81 50.13.88-.94 2.25-3.22 3.88-6.17 5.57-9.99 14.29-27.61 18.03-26.18-6.33 7.06-9.97 16.08-13.99 24.55-1.4 2.93-2.9 6.28-4.94 8.83-2.24 2.82-2.87 2.79-3.71 1.14-.48-.92-1.02-2.35-1.96-4.07-4.5-8.26-9.31-16.28-14.63-24.03z" fill="#047391"/><path d="m52.112 51.533c.31.83.63 1.67.97 2.55-.46-.82-.83-1.68-.97-2.55z"/><path d="m45.512 15.653c1.76-.46 3.52-.92 5.28-1.38-.11 1.6-.23 3.53-.46 4.93-.03-.22-2.4-3.92-3.42-1.18.1-1.149-.18-2.109-1.4-2.37z" fill="#023f4f"/><path d="m50.102 104.553c.14.77-.32 2.07-.46 2.53-.25-.78-.5-1.14-.91-1.95 3.31-.48-7.26-8.69-8.04-11.13 5.15-2.3 17.42 13.06 15.95 16.98-3.28-.549-4.11-4.52-6.54-6.43z"/><path d="m48.502 36.644c.46.99.91 1.99 1.37 2.98-.5-.971-.93-2-1.37-2.98z" fill="#fff"/><path d="m46.912 18.033c-.05.59-.2 1.23-.37 1.86.08-.81.2-1.42.37-1.86z" fill="#fff"/><path d="m64.672 74.273c.03-1.38-.47-2.89-1.26-4.25.42 1.42.9 2.82 1.26 4.25zm-12.56-22.74c-.17-.95-.09-1.89.39-2.78.28.15.6.25.93.28-.23-.23-.46-.46-.69-.69-.09.14-.17.27-.24.41-1.45-.72-2.23-2.69-.79-4.54.11.27.23.54.34.8.08-1 .54-1.98.58-2.98 1.48 2.95 2.64 6.54 1.37 9.75-.11-.27-.23-.53-.34-.8.86 3.44 1.92 6.84 2.65 10.31.06.36.14.71.22 1.05-.07-.35-.14-.7-.22-1.05-.28-1.57-.32-3.2.79-4.35 2.08 3.95 1.09 8.64 3.21 12.51-.39-1.27-.33-6.83.57-8.72.54 2.48 1.29 5 2.3 7.34-.41-3.86-9.32-29.91-11.01-29.37-1.04-1.68-2.07-3.36-3.1-5.04-.2 1.01-.88 1.96-1.03 2.98-.12-.49-.46-.89-.58-1.49.21 1.37-.74 1.66-1.03 2.52-1.3-3.44-2.6-6.88-3.9-10.32.96 3.67.51 6.6 1.26 10.21.6 2.87 2.3 5.49 2.98 8.37-.37-2.71-2.32-5.3-.34-7.8 2.44 4.79 3.92 8.77 5.68 13.4.14.87.51 1.73.97 2.55-.34-.879-.66-1.72-.97-2.55zm-11.99-26.82c1.31-.78-.17-6.02 1.15-7.92-.47 5.26 4.65 9.05 8.83 11.13 5.84 5.46 12.03 10.56 18.24 15.6 2.09 1.7 10.16 6.63 14.92 10.6 2.01 1.68 3.43 3.18 3.55 4.2.18 1.42-5.39 8.12-6.24 9.87-1.71 3.57-3.15 7.27-4.76 10.9-.39.87-1.9 4.71-3.35 7.36-.82 1.48-1.61 2.6-2.17 2.62-2.31.08-5.35-8.7-6.47-10.8-7.47-14.06-18.98-25.65-26.79-39.6-.46-.82-.38-3.21.04-5.79.57-3.52 1.76-7.39 3.05-8.17z" fill="#047391"/><path d="m49.872 39.624c-.46-.99-.91-1.99-1.37-2.98.44.98.87 2.009 1.37 2.98zm-6.08-2.061c-.75-3.61-.3-6.54-1.26-10.21 1.3 3.44 2.6 6.88 3.9 10.32.29-.86 1.24-1.15 1.03-2.52.12.6.46 1 .58 1.49.15-1.02.83-1.97 1.03-2.98 1.03 1.68 2.06 3.36 3.1 5.04 1.69-.54 10.6 25.51 11.01 29.37-1.01-2.34-1.76-4.86-2.3-7.34-.9 1.89-.96 7.45-.57 8.72-2.12-3.87-1.13-8.56-3.21-12.51-1.11 1.15-1.07 2.78-.79 4.35-.73-3.47-1.79-6.87-2.65-10.31.11.27.23.53.34.8 1.27-3.21.11-6.8-1.37-9.75-.04 1-.5 1.98-.58 2.98-.11-.26-.23-.53-.34-.8-1.44 1.85-.66 3.82.79 4.54-.48.89-.56 1.83-.39 2.78-1.76-4.63-3.24-8.61-5.68-13.4-1.98 2.5-.03 5.09.34 7.8-.68-2.88-2.38-5.499-2.98-8.37z"/><path d="m39.552 172.244c1.2-1.53 2.86-1.59 4.01-.57-1.19 1.039-2.4 1.4-4.01.57z" fill="#047391"/><path d="m86.012 166.733c1.08 4.591 1.24 9.82 4.47 13.54-1.49-4.51-2.98-9.02-4.47-13.54zm-25.7 1.15c7-.31 14.32-1.33 20.88-3.9-6.88 1.711-14.03 1.931-20.88 3.9zm-20.76 4.361c1.61.83 2.82.47 4.01-.57-1.15-1.02-2.81-.961-4.01.57zm1.26 3.439c.88 4.54 4.46 20.261 8.95 10.67 3.23 5.91 2.04-1.399 3.09-2.52 2.62 4.76 6.57 3.899 10.99 2.61 7.76-2.261 15.93-2.391 23.66-4.79.08-1.881-2.8-13.091-4.24-14.12-2.01-1.42-8.11.87-10.33 1.27-7.21 1.3-14.19 1.851-21.22 3.9-3.56 1.03-7.25 2.3-10.9 2.98zm6.77-5.16c2.49-.699 5.54-.68 8.03-1.72-2.73.17-6.08-.55-8.03 1.72zm-5.62-4.13c0-3.31-3.04-8.35-2.41-11.189.61-2.76-1.33-8-2.64-10.271.77-.67 1.85-1.229 2.87-1.37-.89 7.841 4.26 14.44 5.04 22.021 3.9-2.53 13.04-1.33 17.94-2.28 5.61-1.09 11.15-2.13 16.85-2.6 1.69-.13 8-.311 9.27.979 1.24 1.271.95 6.46 1.47 8.5 1.08 4.16 2.29 8.29 3.65 12.36l-2.14.71c1.03 5.46 2.58 10.79 4.37 16.05l-1.59.54c-1.81-5.26-3.62-10.52-5.42-15.79-9.06 1.57-18.41 2.34-27.33 4.57-10.03 2.51-.75 3.439-5.02 7.82-.55-1.08-2.49-7.16-4.7-5.851-2.12 1.26 2.67 8.311 2.06 10.44-5.05-1.37-2.9-8.681-5.96-9.86-4.92-1.89.48 12.51.8 13.42 2.37 6.771 3.73 13.78 6.52 20.39 2.85 6.73 5.94 13.41 5.52 20.91l-.01 1.87c-1.47 0-1.1 2.36-1.76 3.46-1.19 1.99.89 3.73-1.84 5.851-2.01 1.56-4.16 2.399-3.96 5.34l.29 2.689c-8.4 1.25-6.18-6.38-7.63-12.75-.93-4.06-1.86-8.13-2.79-12.189l2.06-.47c.63 2.689 1.29 5.359 1.99 8.029-.25-3.99-.53-8.22-.92-12.16-.46-4.75-.28-11.92-2.06-16.399-1.89 3.979-1.83-1.021-2.06-2.98.83.17 1.8-.31 2.63-.12-.07-.8-.39-2.069-.8-2.75-.43.83-1.31 1.45-1.72 2.29-2.36-17.08-6.27-33.6-10.94-50.18-2.2-7.83-5.55-16.02-6.84-24.04-.86-5.36-4.67-13.06-3.56-18.47-.27.57-.53 1.15-.8 1.72-2.78-2.7-2.78-7.15-2.41-10.67.3.23.68.54 1.03.8-3.3-12.78-6.3-23.62-11.58-35.9-.56-1.39-1.8-3.12-3.45-3.79 4.26 18.26 8.69 36.64 13.72 54.78l-1.63.46c-5.5-19.93-11.26-39.34-15.72-59.56-.56-2.53 1.32-4.13 3.35-5.26 2.39-1.33 2.37-3.94 2.06-6.5l2.02-.25c.3 2.84 2.38 6.16 2.97 9.91 5.99-1.06 11.23-3.95 16.78-6.12l.77 2.05c-5.47 2.09-10.67 5.23-16.29 7.39 1.24 2.37 9.45-2.37 12.28-3.55 1.68-.7 4.17-1.32 6.45-2.18l2.3 1.33c-6.27 1.99-13.87 7.47-19.3 9.34 2.35 4.14 2.09 8.19 3.42 12.88 2.53 8.92 5.15 17.8 7.79 26.68 5.03 16.91 9.79 33.83 13.56 51.061 1-.38 2.76-.84 3.45-1.141zm-34.76-95.789c.3-1.04.59-1.69 0-2.64-2.05 1.559-2.02 2.279 0 2.64z"/><path d="m38.062 135.533c1.11 1.23 1.85 2.88 1.83 4.36-.61-1.46-1.22-2.91-1.83-4.36z"/><path d="m39.892 87.463c-1.64-2.41-3.29-4.82-4.93-7.23 2.13 1.971 4.04 5.05 4.93 7.23z"/><path d="m32.322 72.553c1.03 1.68 2.06 3.36 3.1 5.04-2.4-.48-3.02-2.81-3.1-5.04z"/><path d="m35.992 62.573c-.88 1.7-2.97 2.81-5.25 3.67s-4.77 1.48-6.45 2.18c-2.83 1.18-11.04 5.92-12.28 3.55 5.62-2.16 10.82-5.3 16.29-7.39 2.48-.95 5.02-1.68 7.69-2.01z" fill="#047391"/><path d="m28.902 52.954c-1.64 2.94 5.25 4.3 4.22 7.78-1.92.46-3.77 1.09-5.59 1.8-5.55 2.17-10.79 5.06-16.78 6.12-.59-3.75-2.67-7.07-2.97-9.91-.26-2.41.76-4.46 5.04-6.15 4.9-1.93 12.41 3.419 16.08.36z" fill="#047391"/><path d="m29.802 51.903c-.26.43-.57.77-.9 1.05.19-.329.48-.68.9-1.05z" fill="#fff"/><path d="m27.402 161.824c8.4 25.239 11.95 51.92 18.07 77.87l-2.06.47c-8.46-36.78-17.29-73.45-27.34-109.85l1.63-.46c2.99 10.76 6.19 21.439 9.7 31.97z"/><path d="m37.032 38.673c7.81 13.95 19.32 25.54 26.79 39.6 1.12 2.1 4.16 10.88 6.47 10.8.56-.02 1.35-1.14 2.17-2.62l.22.12c-1.63 2.95-3 5.23-3.88 6.17-9.63-17.25-21.31-33.65-32.81-50.13 2.9 9.09 10.09 16.34 15.49 24.2 5.32 7.75 10.13 15.77 14.63 24.03.94 1.72 1.48 3.15 1.96 4.07l-2.64.74c-.83-1.39-1.73-2.73-2.82-3.94.66 1.66.9 3.05 0 4.47-1.34-1.99-2.68-3.98-4.02-5.97 3.25 5.55 6.5 11.09 9.75 16.64-3.05.12-9.78-12.63-11.93-15.66-4.1-5.78-8.26-11.68-11.32-18.09 3.25 7.55 7.03 14.75 11.15 21.72l-1.13.66c-3.13-5.27-7.51-11.4-8.57-13.18-2.69 1.18-3.71-3.52-2.29-5.51-.7-9.9-5.37-11.06-11.21-9.22l-2.3-1.33c2.28-.86 4.37-1.97 5.25-3.67-2.67.33-5.21 1.06-7.69 2.01l-.77-2.05c1.82-.71 3.67-1.34 5.59-1.8 1.03-3.48-5.86-4.84-4.22-7.78.33-.28.64-.62.9-1.05-.42.37-.71.72-.9 1.05-3.67 3.06-11.18-2.29-16.08-.36-4.28 1.69-5.3 3.74-5.04 6.15l-2.02.25c-.14-1.15-.33-2.28-.39-3.29-.36-5.92 17.02-10.83 21.76-13.2 5.27-2.63 6.41-5.71 6.99-10.04l2.95.42c-.42 2.58-.5 4.971-.04 5.79zm19.84 46.04c-2.15-3.26-5.36-7.79-7.92-11.48 2.7 3.86 3.77 8.78 7.92 11.48z"/><path d="m45.472 239.694c-6.12-25.95-9.67-52.631-18.07-77.87-3.51-10.53-6.71-21.21-9.7-31.97-5.03-18.14-9.46-36.52-13.72-54.78 1.65.67 2.89 2.4 3.45 3.79 5.28 12.28 8.28 23.12 11.58 35.9-.35-.26-.73-.57-1.03-.8-.37 3.52-.37 7.97 2.41 10.67.27-.57.53-1.15.8-1.72-1.11 5.41 2.7 13.11 3.56 18.47 1.29 8.021 4.64 16.21 6.84 24.04 4.67 16.58 8.58 33.1 10.94 50.18.41-.84 1.29-1.46 1.72-2.29.41.681.73 1.95.8 2.75-.83-.189-1.8.29-2.63.12.23 1.96.17 6.96 2.06 2.98 1.78 4.479 1.6 11.649 2.06 16.399.39 3.94.67 8.17.92 12.16-.7-2.67-1.36-5.34-1.99-8.029z" fill="#047391"/><path d="m7.202 67.963c.59.95.3 1.6 0 2.64-2.02-.36-2.05-1.08 0-2.64z" fill="#047391"/></g><g transform="matrix(.3333552 0 0 .30885362 -36.105587 -40.433002)"><path d="m138 284.36218c-12 14 42-18 42-18s12-8 40-12 56 2 56 2l-10 68-84 66z" fill="#573400" fill-rule="evenodd" stroke="#000"/><path d="m380 510.36218-98-48s-72-114-72-136-2-38 16-62 60-26 60-26 20 6 6-2 4-4 4-4-2-6 6 4 4 34 8 64 10 70 24 96 92 80 92 80l34 42z" fill="#753f00" fill-rule="evenodd" stroke="#000"/><path d="m93.851901 511.60588 2.988983-49.15966s8.966946-41.71123 13.450416-53.62873c.41273-11.33595 2.65757-16.71317 2.65757-16.71317s1.90721-13.47887 4.81489-17.54962l.50023-25.5079c1.16307-4.83551-2.00093-9.88611 1.5758-16.82469 0-7.44844-5.06501-14.27551-5.06501-14.27551s-7.47245-17.87624-2.98898-25.32468c4.48347-7.44843 19.42837-14.89686 31.38431-14.89686 11.95592 0 46.32922 14.89686 73.23006 20.85561 26.90083 5.95875 29.88982 13.40718 35.86778 25.32468 5.97796 11.91749 17.93389 65.54621 28.39533 75.97402s11.95593 17.87624 44.83473 50.64935 59.77964 37.24217 59.77964 37.24217l19.42839 8.93812 22.41736-11.91749s-59.77964-16.38656-68.74659-34.2628-43.34024-81.93277-43.34024-81.93277-4.48347-26.81436-5.97796-46.18029c-1.4945-19.36593 4.48347-29.79374 4.48347-29.79374s5.97797 31.28343 7.47246 46.18029c.91295 25.36451 6.05306 40.54019 25.40634 68.5256 5.97797 2.97937 48.07384 33.49007 68.99671 53.77212 22.41737 11.91749 23.66174 20.71221 68.49646 41.56783 34.3733 8.93812 51.64435 15.15179 51.64435 15.15179s26.15049 8.38844 18.59674 41.45631c-10.46144 20.85561-26.90084 23.83499-19.42838 23.83499l-20.92288 10.4278-82.197 25.32468-95.64744-2.97938-80.7025-37.24216-68.7466-19.36593-88.174965-13.40718z" fill="#803a00" fill-rule="evenodd" stroke="#000"/><path d="m99.442567 580.15537-10.467638-55.82741 5.233819-26.75063s30.821382 22.67989 36.636732 23.84296c5.81536 1.16307 43.03363 22.67988 43.03363 22.67988s34.31059 1.74461 42.45209 3.48921c8.1415 1.74461 31.40292 5.81536 41.28902 11.04918s45.9413 30.82138 52.33819 34.31059 45.94131 17.44607 61.06123 16.86453 76.18115.58154 81.41497-2.32614c5.23381-2.90768 4.65228-8.1415 22.09834-15.70146 17.44607-7.55996 40.70749-13.37532 52.91973-20.35374 12.21225-6.97843 26.1691-18.60914 28.49524-18.60914s4.07075-2.32614 5.23382 1.74461 1.16307 25.58756-3.48921 40.70748c-4.65229 15.11993-41.28902 25.58756-55.24587 30.82138s-90.71954 19.77221-92.46414 20.93528c-.10904.0727-2.03708.32711-2.84748.38163-.8104.0545-.24113-2.83323-1.33534-2.7878-1.09421.0454-9.74889.44627-11.27698.47353-1.5281.0273-1.35419 2.73225-3.03235 2.75042-1.67816.0182-19.94542.0182-21.77805 0s.19183-2.21225-1.56797-2.23951c-1.7598-.0273-7.17612-.6977-8.81851-.73404-1.64238-.0363-.40491 3.62685-1.8853 3.58142-1.48039-.0454-12.44461-1.35296-13.17153-1.42565-.72692-.0727-4.16729-.644-5.14523-.85186-.97793-.20785-.22277-2.49058-1.30321-2.75835s-8.30544-3.2185-9.54489-3.59076c-1.23946-.37226-1.74464 2.936-3.0406 2.51916-1.29596-.41685-14.86437-5.30311-16.23302-5.84716-1.36865-.54406 1.22848-2.88708-.12001-3.45016s-8.17534-3.30575-9.48834-3.88274c-1.313-.577-1.07169 2.79987-2.33386 2.21408-1.26217-.5858-9.34517-4.70595-10.36286-5.28749-3.48921-13.95684-4.07074-16.28299-4.07074-16.28299s-38.96288-28.49524-43.03363-27.33217-17.44607 5.23382-17.44607 5.23382l-9.8861-.58153v6.97842l-11.63071 15.11992s-.22489-.0432-.64897-.12466c-.42409-.0815-1.04736-.20132-1.84414-.35465-.79677-.15334-1.76703-.34018-2.8851-.5557-1.11806-.21552-2.38393-.45972-3.77189-.72777s-2.89802-.55995-4.50448-.87088c-1.60647-.31093-3.30933-.64088-5.0829-.98503s-3.61784-.7025-5.50712-1.07022c-1.88929-.36772-.34557-3.67937-2.29917-4.061-1.9536-.38164-9.46956-2.18075-11.43607-2.56664-1.96652-.38589.52954 3.68469-1.3985 3.30419s-6.21512-.86457-8.05329-1.23002-3.61855-.72095-5.31545-1.0617c-1.6969-.34074-3.31032-.66672-4.81456-.9731-1.50424-.30639.36132-3.20168-.89886-3.46405-1.26019-.26237-6.73299-1.26114-7.69772-1.46984-.96473-.20871-.68201 2.98114-1.29989 2.83576-2.47153-.58154-5.81536-1.85364-9.44087-3.43469s-1.86355-.73421-5.4618-2.55151c-.89956-.45432.22393-2.2603-.26124-2.38802-.48518-.12771-3.04037-1.2882-3.37448-1.35004-.33411-.0618-1.13439 2.53174-1.73183 2.20917-2.38975-1.29028-13.458843-8.18637-13.458843-8.18637z" fill-rule="evenodd" stroke="#000"/><g fill="none" stroke="#000" transform="translate(-2)"><path d="m391.95187 522.67769c-1.46524-5.86096 33.70054-48.35294 31.50268-58.60963-2.19787-10.25668-83.51872 20.51337-90.84492 12.45455-7.32621-8.05882 2.19786-24.17647 8.05882-32.96791 5.86096-8.79145 21.24599-15.38503 19.78075-24.17647-1.46524-8.79145-7.32621-9.52407-12.45455-10.25669s-70.33155 21.24599-70.33155 21.24599-35.16577 14.65241-38.09626.73262c-2.93048-13.91979 11.72193-23.44385 11.72193-23.44385s62.27273-19.04813 67.40107-27.10695c5.12834-8.05883 7.3262-16.11765 7.3262-16.11765" stroke-width="8.1"/><path d="m394.14973 521.94507c56.41177-33.70053 57.87701-35.16578 57.87701-35.16578s4.39572-10.9893-2.93048-10.9893c-7.32621 0-80.58824 27.10695-85.71658 26.37433s-8.05882 0-5.12834-5.86096 36.63101-54.94652 30.03743-58.60963c-6.59358-3.6631-28.57219-7.3262-56.41176 2.93048-27.83958 10.25669-45.42246 30.77006-37.36364 13.91979s38.82888-57.87701 38.82888-57.87701-94.50803-.73261-97.43851-7.3262c-2.93048-6.59358 72.52942-54.94652 71.79679-71.79679" stroke-width="8.7"/></g><path d="m321.62032 360.7686c-1.46524-2.93048-88.64706-8.05882-88.64706-21.24599s69.59893-32.96791 69.59893-32.96791" fill="none" stroke="#000" stroke-width="8.1"/><g fill-rule="evenodd"><path d="m400.0107 521.94507c0 5.26-3.60806 9.52407-8.05882 9.52407-4.45077 0-8.05883-4.26407-8.05883-9.52407s3.60806-9.52407 8.05883-9.52407c4.45076 0 8.05882 4.26407 8.05882 9.52407z" fill="#b3b3b3" stroke="#505050" stroke-opacity=".497297" stroke-width="1.7"/><path d="m369.97328 501.4317c0 5.26-3.44406 9.52407-7.69251 9.52407-4.24846 0-7.69252-4.26407-7.69252-9.52407s3.44406-9.52407 7.69252-9.52407c4.24845 0 7.69251 4.26407 7.69251 9.52407z" fill="#b3b3b3" stroke="#505050" stroke-opacity=".497297" stroke-width="1.7"/><path d="m336.27273 476.88892c0 5.05769-3.77206 9.15776-8.42513 9.15776-4.65308 0-8.42514-4.10007-8.42514-9.15776s3.77206-9.15776 8.42514-9.15776c4.65307 0 8.42513 4.10007 8.42513 9.15776z" fill="#b3b3b3" stroke="#505050" stroke-opacity=".497297" stroke-width="1.7"/><path d="m301.83957 453.81137c0 4.85538-3.28005 8.79145-7.3262 8.79145-4.04616 0-7.32621-3.93607-7.32621-8.79145s3.28005-8.79145 7.32621-8.79145c4.04615 0 7.3262 3.93607 7.3262 8.79145z" fill="#b3b3b3" stroke="#505050" stroke-opacity=".497297" stroke-width="1.7"/><path d="m249.82353 430.73383c0 8.69922-3.77206 15.75134-8.42513 15.75134-4.65308 0-8.42514-7.05212-8.42514-15.75134s3.77206-15.75134 8.42514-15.75134c4.65307 0 8.42513 7.05212 8.42513 15.75134z" fill="#b3b3b3" stroke="#505050" stroke-opacity=".497297" stroke-width="1.7"/><path d="m246.16042 387.50925c.004 4.65621-3.44119 8.43317-7.69251 8.43317s-7.69657-3.77696-7.69251-8.43317c-.004-4.65621 3.44119-8.43317 7.69251-8.43317s7.69657 3.77696 7.69251 8.43317z" fill="#b3b3b3" stroke="#505050" stroke-opacity=".497297" stroke-width="1.7"/><path d="m241.76471 335.49319c0 4.24846-3.28005 7.69252-7.3262 7.69252-4.04616 0-7.32621-3.44406-7.32621-7.69252s3.28005-7.69252 7.32621-7.69252c4.04615 0 7.3262 3.44406 7.3262 7.69252z" fill="#b3b3b3" stroke="#505050" stroke-opacity=".497297" stroke-width="1.7"/><path d="m452.75935 479.08679c.003 2.63172-2.29418 4.76644-5.12834 4.76644s-5.13097-2.13472-5.12834-4.76644c-.003-2.63172 2.29418-4.76644 5.12834-4.76644s5.13097 2.13472 5.12834 4.76644z" fill="#b3b3b3" stroke="#505050" stroke-opacity=".497297" stroke-width="1.7"/><path d="m419.79144 457.47449c0 2.42769-1.80403 4.39573-4.02941 4.39573-2.22539 0-4.02942-1.96804-4.02942-4.39573s1.80403-4.39573 4.02942-4.39573c2.22538 0 4.02941 1.96804 4.02941 4.39573z" fill="#b3b3b3" stroke="#505050" stroke-opacity=".497297" stroke-width="1.7"/><path d="m389.754 436.59482c0 2.22538-1.96803 4.02941-4.39573 4.02941-2.42769 0-4.39572-1.80403-4.39572-4.02941s1.96803-4.02941 4.39572-4.02941c2.4277 0 4.39573 1.80403 4.39573 4.02941z" fill="#b3b3b3" stroke="#505050" stroke-opacity=".497297" stroke-width="1.7"/><path d="m360.4492 410.58679c.002 2.02445-1.63865 3.66663-3.6631 3.66663s-3.66505-1.64218-3.6631-3.66663c-.002-2.02445 1.63865-3.66663 3.6631-3.66663s3.66505 1.64218 3.6631 3.66663z" fill="#b3b3b3" stroke="#505050" stroke-opacity=".497297" stroke-width="1.7"/></g><path d="m308.43316 305.82208s-19.04813-2.19787-26.37434-.73262c-7.3262 1.46524-19.78075 13.18716-19.78075 19.04812 0 5.86097 1.46525 13.91979 5.12835 16.11765s16.85026 1.46524 19.04813-4.39572c2.19786-5.86096 15.38502-13.91979 19.04812-20.51337 3.66311-6.59358 16.11765-19.04813 22.71123-24.17647 6.59359-5.12834 15.38503-8.79144 19.78075-2.93048s15.38503 6.59358 13.91979 16.85027c-1.46524 10.25668 5.12834 16.11764-5.12834 15.38502-10.25669-.73262-8.05883-5.12834-17.58289-8.79144-9.52407-3.6631-19.78075-3.6631-25.64171-5.12834-5.86097-1.46524-12.45455 2.93048-5.12834-.73262z" fill="none" stroke="#000" stroke-width="8.1"/><path d="m318.68984 302.89159c-.73262 2.93049-7.3262-5.86096-7.3262-5.86096l8.79144-13.91978 13.91979-5.86097 5.12834-2.19786" fill="none" stroke="#000" stroke-width="8.1"/><path d="m303.30481 307.28732 18.31551 16.11764 1.46524 18.31551" fill="none" stroke="#000" stroke-width="8.1"/></g></svg>