<svg height="687.5" width="687.5" xmlns="http://www.w3.org/2000/svg" xmlns:xlink="http://www.w3.org/1999/xlink"><radialGradient id="a" cx="238.37162" cy="215.97427" fx="244.37827" fy="210.71845" gradientTransform="scale(.92542244 1.0805876)" gradientUnits="userSpaceOnUse" r="222.30843"><stop offset="0" stop-color="#ff5f5f"/><stop offset="1" stop-color="#890000"/></radialGradient><linearGradient id="b" gradientTransform="scale(.97022246 1.0306915)" gradientUnits="userSpaceOnUse" x1="319.30365" x2="319.65744" y1="506.98996" y2="492.15268"><stop offset="0" stop-color="#a00000"/><stop offset="1" stop-color="#510000"/></linearGradient><radialGradient id="c" cx="238.37162" cy="215.97427" fx="244.37827" fy="210.71845" gradientTransform="scale(.92542244 1.0805876)" gradientUnits="userSpaceOnUse" r="222.30843"><stop offset="0" stop-color="#67ff69"/><stop offset="1" stop-color="#1a7600"/></radialGradient><linearGradient id="d" gradientTransform="scale(.96062594 1.0409879)" gradientUnits="userSpaceOnUse" x1="146.36213" x2="134.98328" y1="519.61125" y2="478.0835"><stop offset="0" stop-color="#67e869"/><stop offset="1" stop-color="#1a4c00"/></linearGradient><path d="m.557573.557604h686.38483v686.38483h-686.38483z" fill="#fff" stroke="#fff" stroke-dashoffset=".6" stroke-linecap="square" stroke-width="1.115147"/><g transform="translate(162.45405 268.39124)"><path d="m270.41041 326.46525c-15.69626 33.09767 13.93913 62.90464 35.91665 84.01144 21.65726 20.68541 22.63385 51.05096 17.18343 78.44573-4.07195 34.22013-1.18807 73.44199 26.19689 97.99113 22.5108 20.78411 46.01128 54.20099 26.95798 84.77566-2.20285 3.72121-4.93534 7.1374-8.14372 10.04188" fill="none" stroke="#000" stroke-linecap="round" stroke-linejoin="round" stroke-width="11.764"/><g fill-rule="evenodd"><path d="m118.73761 505.50611c5.92049 4.54502 8.14503 12.2066 8.89909 19.32712.59266 3.15428.11828 6.3348.17203 9.50269.0171 2.33202 1.32763 5.51901 4.18802 4.91107 2.01504-.53308 3.73287-1.87874 5.42656-3.07035 4.31033-3.43035 7.4337-8.72955 12.99766-10.30624 4.61463-.89638 9.69879-.94788 13.53927-4.03253 2.61724-1.86527 1.95447-6.0387-1.15411-6.96164-3.20591-1.42832-6.8713-1.91376-9.60161-4.3005-7.01748-4.78095-11.38862-12.43053-14.36168-20.20229-1.61518-2.8469-5.89123-2.06182-7.50768.38923-3.78415 4.41667-4.98908 10.98521-10.40744 13.95351-.68805.36425-1.42644.6359-2.19011.78993z" fill="url(#d)" transform="matrix(.710507 0 0 .710507 163.3868 -43.44494)"/><ellipse cx="315.09225" cy="321.40948" fill="url(#c)" rx="155.64345" ry="181.74011" transform="matrix(.598546 -.416502 .414663 .595902 -137.1147 141.6126)"/></g></g><path d="m302.33609 531.99524c-3.80669 44.12102-27.5241 91.41466-4.53752 133.95036 30.05164 45.86764 97.20361 51.31306 120.33411 103.76106 19.35629 33.49601 16.2321 72.75129 12.64291 109.64194-2.51541 28.90739 2.17293 60.27497 23.71764 81.49211 12.74109 17.14391 24.17359 37.40155 22.26754 59.54359" fill="none" stroke="#000" stroke-linecap="round" stroke-linejoin="round" stroke-width="16.557191" transform="matrix(.710507 0 0 .710507 325.84085 224.9463)"/><path d="m292.88809 498.92725c2.26367 7.11233-.28649 14.67176-3.73462 20.94718-1.31519 2.92763-3.52121 5.26733-5.28653 7.89832-1.31795 1.92395-2.06257 5.28846.63256 6.42323 1.95847.71339 4.13712.59001 6.20797.57932 5.49737-.35376 11.0879-2.91949 16.55551-1.03567 4.29981 1.90001 8.50244 4.76169 13.41669 4.42334 3.2137-.0362 5.05345-3.84038 3.02901-6.3735-1.81567-3.00355-4.54705-5.49561-5.4249-9.0142-3.02936-7.93256-2.24804-16.70824-.24935-24.78565.30031-3.25936-3.658-5.05733-6.38481-3.96873-5.62884 1.4639-10.36968 6.1673-16.51264 5.50891-.77282-.094-1.53407-.29278-2.24889-.60255z" fill="url(#b)" fill-rule="evenodd" transform="matrix(.710507 0 0 .710507 325.84085 224.9463)"/><ellipse cx="315.09225" cy="321.40948" fill="url(#a)" fill-rule="evenodd" rx="155.64345" ry="181.74011" transform="matrix(.729199 0 0 .725978 317.47905 216.6985)"/><path d="m-7.638125 168.27547 171.101185-17.76506-58.03131 222.04429z" fill="#f00"/><path d="m330.93561 111.18855 161.01515-60.588075.0958 229.514465z" fill="#0f0"/><path d="m163.46306 150.51041 167.47255-39.32186-29.44937 227.61414z" fill="#00f"/><path d="m491.95076 50.600475 155.75829-73.067919 18.12185 228.796744z" fill="#ff8f00"/><path d="m-62.483289 162.3022c470.101109 23.04334 1265.727289-487.95434 1274.665189-499.90233" fill="none" stroke="#000" stroke-width="32.765999"/></svg>