<svg height="122" width="147" xmlns="http://www.w3.org/2000/svg" xmlns:xlink="http://www.w3.org/1999/xlink"><radialGradient id="a" cx="27.799845" cy="53.432285" gradientTransform="matrix(-1.2578576 1.2578576 -.7681944 -.7681944 106.05052 60.620874)" gradientUnits="userSpaceOnUse" r="18.192326"><stop offset="0" stop-color="#fff700"/><stop offset="1" stop-color="#f60"/></radialGradient><g transform="translate(-317.92856 -608.50507)"><path d="m336.41254 656.18829c0-24.93244 24.64718-45.16746 55.01602-45.16746 30.36886 0 55.01603 20.23502 55.01603 45.16746" fill="none" stroke="#000" stroke-dashoffset=".1" stroke-linecap="square" stroke-width="3"/><path d="m391.42856 611.14448v82.60576" fill="none" stroke="#000" stroke-width="3"/><g fill="url(#a)" stroke="#fff" stroke-dashoffset=".098415" stroke-linecap="square" stroke-width=".960368"><path d="m35.576973 66.420525a17.712141 17.712141 0 1 1 -35.42428211 0 17.712141 17.712141 0 1 1 35.42428211 0z" transform="matrix(1.0412678 0 0 1.0412678 318.46854 605.34963)"/><path d="m35.576973 66.420525a17.712141 17.712141 0 1 1 -35.42428211 0 17.712141 17.712141 0 1 1 35.42428211 0z" transform="matrix(1.0412678 0 0 1.0412678 427.18443 605.34963)"/><path d="m35.576973 66.420525a17.712141 17.712141 0 1 1 -35.42428211 0 17.712141 17.712141 0 1 1 35.42428211 0z" transform="matrix(1.0412678 0 0 1.0412678 372.82649 641.38467)"/></g></g></svg>