<svg height="16" viewBox="0 0 16 16" width="16" xmlns="http://www.w3.org/2000/svg"><g transform="translate(0 -1036.3622)"><path d="m6 1042.8622h5s4 1 4 3-5 6-5 6h-3s-5-4-5-6 4-3 4-3z" fill="#fff" fill-rule="evenodd" stroke="#ac39ac"/><path d="m3 1047.3622 3.8942644 4.5815 3.0396509-.013 4.0660847-4.5685z" fill="#ac39ac" fill-rule="evenodd"/><path d="m8.5000002 1042.3622v7" fill="none" stroke="#ac39ac"/><rect fill="#ac39ac" height="1.000017" rx="0" ry=".000017" width="6" x="9" y="1039.3622"/><ellipse cx="13.5" cy="1039.8622" fill="#ac39ac" rx="2.5" ry="2.500006"/><rect fill="#ac39ac" height="6.000035" rx="1.000017" width="3" x="7" y="1037.3622"/><g fill="none"><path d="m2 1036.8622h-1" stroke="#ac39ac"/><path d="m4 1037.8622h-1" stroke="#ac39ac"/><path d="m2 1041.8622h-1" stroke="#ac39ac"/><path d="m1 1038.8622h-1" stroke="#ac39ac"/><path d="m6 1039.8622h-1" stroke="#ac39ac"/><path d="m3 1039.8622h-1" stroke="#ac39ac"/><path d="m6 1038.8622h-1" stroke="#fff"/><path d="m4 1040.8622h-1" stroke="#fff"/><path d="m2 1038.8622h-1" stroke="#fff"/><path d="m4 1038.8622h-1" stroke="#fff"/><path d="m1 1040.8622h-1" stroke="#fff"/><path d="m3 1036.8622h-1" stroke="#fff"/></g></g></svg>