<svg height="16" viewBox="0 0 16 16" width="16" xmlns="http://www.w3.org/2000/svg"><g transform="matrix(.14047698 0 0 .1363083 -1.092232 .126278)"><path d="m15.454 21.608 4.879 25.876c-3.7786 6.3618-5.9245 13.63-5.9245 21.346 0 25.017 22.513 45.305 50.271 45.305s50.315-20.288 50.315-45.305c0-7.4745-2.0588-14.519-5.6196-20.736l4.879-25.833-20.562 9.5402c-8.1959-5.2251-18.217-8.3205-29.013-8.3205-10.481 0-20.213 2.8909-28.272 7.8413l-20.948-9.714z" fill="none" stroke="#000" stroke-linecap="round" stroke-linejoin="round" stroke-width="6"/><path d="m15.454 21.608 4.879 25.876c-3.7786 6.3618-5.9245 13.63-5.9245 21.346 0 25.017 22.513 45.305 50.271 45.305s50.315-20.288 50.315-45.305c0-7.4745-2.0588-14.519-5.6196-20.736l4.879-25.833-20.562 9.5402c-8.1959-5.2251-18.217-8.3205-29.013-8.3205-10.481 0-20.213 2.8909-28.272 7.8413l-20.948-9.714z" fill="#fff" stroke="#000" stroke-linecap="round" stroke-linejoin="round" stroke-width="3.9782"/><circle cx="72" cy="48" r="4" transform="matrix(1.9388 .8723 -.8723 1.9388 -50.299 -95.029)"/><circle cx="72" cy="48" fill="#fff" r="4" transform="matrix(.76796 .34552 -.34552 .76796 11.205 -1.3029)"/><circle cx="72" cy="48" r="4" transform="matrix(1.9388 .8723 -.8723 1.9388 -15.389 -95.1)"/><circle cx="72" cy="48" fill="#fff" r="4" transform="matrix(.76796 .34552 -.34552 .76796 46.115 -1.3742)"/><path d="m41.227 86.168c.71997 5.451 3.9594 11.035 11.152 11.152 9.5596.15794 17.384-10.258 19.682-17.547-5.2586-.76083-10.517-.71929-15.776-.23408 2.2988 6.9385 10.416 17.652 18.397 17.781 7.6568.12382 10.288-4.9103 11.152-11.152" fill="none" stroke="#000" stroke-linecap="round" stroke-linejoin="round" stroke-width="2.788"/></g><path d="m4.0000003 5.9999999h2v-3.9999999h.9999997v3.9999999h1v-3.9999999h1v3.9999999h1v-3.9999999h1v3.9999999h1v-3.9999999h6v-2h-11.9999997c-1 0-2 1-2 2z" fill="#ac39ac"/></svg>