<svg height="13.019" width="15.99997" xmlns="http://www.w3.org/2000/svg" xmlns:xlink="http://www.w3.org/1999/xlink"><linearGradient id="a" gradientUnits="userSpaceOnUse" x1="289.29999" x2="289.29999" y1="429.13" y2="420.67999"><stop offset="0" stop-color="#729fcf"/><stop offset="1" stop-color="#eeeeec"/></linearGradient><linearGradient id="b" gradientTransform="matrix(.58027148 0 0 .79986757 -180.30929 695.4509)" gradientUnits="userSpaceOnUse" x1="329.03" x2="329.03" y1="434.63" y2="433.06"><stop offset="0" stop-color="#babdb6"/><stop offset="1" stop-color="#eeeeec"/></linearGradient><linearGradient id="c" gradientUnits="userSpaceOnUse" x1="17.86490815001" x2="17.86490815001" y1="1045.0946696868" y2="1051.17027642201"><stop offset="0" stop-color="#babdb6"/><stop offset=".81098" stop-color="#7b7f76"/><stop offset="1" stop-color="#50524e"/></linearGradient><g transform="translate(0 -1039.3432)"><path d="m3.6371104 1040.0339c-.71368 0-1.28923.5295-1.3583 1.2316-.42591.1497-.72519.5411-.72519 1.013v8.311c0 .5986.48346 1.082 1.08203 1.082h11.5916196c.59857 0 1.08204-.4834 1.08204-1.082v-8.311c0-.5986-.48347-1.082-1.08204-1.082h-7.4361296c-.1036-.6677-.64462-1.1626-1.33528-1.1626z" fill="url(#c)"/><path d="m6.5033604 1041.5878c-.0345.9094.48347 1.508 1.10506 1.508h7.4131096v-.5525c0-.4144-.34533-.7252-.79426-.7252h-7.4361296c-.14964 0-.27627-.1036-.28778-.2303z" fill="url(#b)"/><path d="m3.6371104 1039.3432c-.89786 0-1.57701.6331-1.85327 1.4504-.52951.2993-.92088999.8288-.92088999 1.4849v8.311c0 .9669.80577999 1.7727 1.77269999 1.7727h11.5916196c.97844 0 1.7727-.8058 1.7727-1.7727v-8.311c0-.9784-.79426-1.7727-1.7727-1.7727h-7.0677796c-.34533-.6561-.92088-1.1626-1.70363-1.1626zm0 1.3813h1.81875c.35684 0 .59857.2302.64462.5756.0575.3338.34533.587.69066.5755h7.4361296c.23022 0 .40289.1727.40289.4029v8.311c0 .2302-.17267.3914-.40289.3914h-11.5916196c-.23022 0-.39137-.1612-.39137-.3914v-8.311c0-.1842.1036-.3108.26475-.3568.25324-.092.42591-.3223.46044-.5871.0345-.3568.29929-.6101.66764-.6101z" fill="#555753"/><path d="m283.125 434.98718c0 .62132-.50368 1.125-1.125 1.125s-1.125-.50368-1.125-1.125.50368-1.125 1.125-1.125 1.125.50368 1.125 1.125z" fill="#ef2929" transform="matrix(1.1238458 0 0 1.1238458 -310.96764 554.79061)"/><path d="m295 425.11218c0 3.45178-2.79822 6.25-6.25 6.25s-6.25-2.79822-6.25-6.25 2.79822-6.25 6.25-6.25 6.25 2.79822 6.25 6.25z" style="stroke:#555753;stroke-width:2.9467;stroke-linecap:round;stroke-linejoin:round;stroke-miterlimit:2.4142;fill:url(#a)" transform="matrix(.54181309 0 0 .54181309 -146.31719 817.11107)"/><path d="m.41402041 1042.8886h3.13100999c.59857 0 1.08203.495 1.08203 1.0935-.41439 1.6807-.34533 3.3728 0 5.0534 0 .5986-.48346 1.082-1.08203 1.082h-3.13100999c-.79426-.8057-.0345-2.2676-.046-3.7065-.0115-1.3583-.85182-2.7051.046-3.5224z" fill="#555753"/><g fill="#babdb6"><path d="m.05718041 1044.3505c.0576.4144.19569.8863.28778 1.3698h2.49788999c.48347 0 .87484-.2647.87484-.6101v-.1496c0-.3453-.39137-.6101-.87484-.6101z"/><path d="m.35647041 1047.1707c-.0691.495-.19569.9554-.25325 1.3813h2.76264999c.48347 0 .87484-.2762.87484-.6101v-.1496c0-.3453-.39137-.6216-.87484-.6216z"/></g></g></svg>