<svg viewBox="0 0 668 692" xmlns="http://www.w3.org/2000/svg" xmlns:xlink="http://www.w3.org/1999/xlink"><filter id="a"><feGaussianBlur stdDeviation=".080260832"/></filter><filter id="b"><feGaussianBlur stdDeviation=".06950493"/></filter><linearGradient id="c"><stop offset="0"/><stop offset="1" stop-opacity="0"/></linearGradient><linearGradient id="d" xlink:href="#c"/><filter id="e"><feGaussianBlur stdDeviation=".052773018"/></filter><filter id="f"><feGaussianBlur stdDeviation=".10492554"/></filter><filter id="g"><feGaussianBlur stdDeviation=".083783289"/></filter><filter id="h"><feGaussianBlur stdDeviation=".14911291"/></filter><filter id="i" height="1.2009" width="1.0477" x="-.02387" y="-.10043"><feGaussianBlur stdDeviation=".139889"/></filter><filter id="j"><feGaussianBlur stdDeviation=".079515375"/></filter><filter id="k"><feGaussianBlur stdDeviation=".15094464"/></filter><linearGradient id="l"><stop offset="0" stop-color="#4d4d4d"/><stop offset="1" stop-color="#4d4d4d" stop-opacity="0"/></linearGradient><filter id="m"><feGaussianBlur stdDeviation=".14602923"/></filter><filter id="n"><feGaussianBlur stdDeviation=".19096396"/></filter><filter id="o"><feGaussianBlur stdDeviation=".29143607"/></filter><filter id="p"><feGaussianBlur stdDeviation=".18001918"/></filter><linearGradient id="q"><stop offset="0" stop-color="#fff"/><stop offset="1" stop-color="#4d4d4d" stop-opacity="0"/></linearGradient><filter id="r" height="1.0487" width="2.4536" x="-.72679" y="-.024362"><feGaussianBlur stdDeviation=".15719063"/></filter><linearGradient id="s"><stop offset="0" stop-color="#fff"/><stop offset="1" stop-color="#fff" stop-opacity="0"/></linearGradient><linearGradient id="t" xlink:href="#s"/><filter id="u"><feGaussianBlur stdDeviation=".28665188"/></filter><filter id="v" height="1.2661" width="1.1195" x="-.059726" y="-.13305"><feGaussianBlur stdDeviation="2.3861645"/></filter><radialGradient id="w" cx="985.76" cy="238.35" gradientTransform="matrix(1.1641 -1.9754 2.046 1.2058 -614.23 1863.9)" gradientUnits="userSpaceOnUse" r="11.035" xlink:href="#s"/><linearGradient id="x" gradientUnits="userSpaceOnUse" x1="1002.9" x2="1002.9" xlink:href="#t" y1="233.49" y2="218.97"/><linearGradient id="y" gradientUnits="userSpaceOnUse" x1="1008.094" x2="1008.904" xlink:href="#q" y1="183.484" y2="179.064"/><linearGradient id="z" gradientUnits="userSpaceOnUse" x1="1019.314" x2="1019.614" xlink:href="#t" y1="180.294" y2="187.744"/><linearGradient id="A" gradientUnits="userSpaceOnUse" x1="1021.838" x2="1022.648" xlink:href="#q" y1="182.63" y2="178.21"/><linearGradient id="B" gradientUnits="userSpaceOnUse" x1="1007.614" x2="1007.614" xlink:href="#l" y1="172.724" y2="184.854"/><linearGradient id="C" gradientUnits="userSpaceOnUse" x1="1013.484" x2="1013.484" xlink:href="#l" y1="207.77404" y2="219.90404"/><linearGradient id="D"><stop offset="0" stop-color="#b3b3b3"/><stop offset="1" stop-color="#fff"/></linearGradient><linearGradient id="E" gradientUnits="userSpaceOnUse" x1="1016.622" x2="1020.482" xlink:href="#D" y1="171.12" y2="177.67"/><linearGradient id="F" gradientUnits="userSpaceOnUse" x1="1006.7" x2="1006.1" y1="170.13" y2="164.62"><stop offset="0" stop-color="#7f7f7f" stop-opacity="0"/><stop offset="1"/></linearGradient><linearGradient id="G" gradientUnits="userSpaceOnUse" x1="1015.5" x2="1013" y1="170.63" y2="165.69"><stop offset="0" stop-color="#333"/><stop offset="1" stop-color="#fff" stop-opacity="0"/></linearGradient><linearGradient id="H" gradientUnits="userSpaceOnUse" x1="1019.5" x2="1015.7" xlink:href="#c" y1="174.22" y2="169.45"/><linearGradient id="I" gradientUnits="userSpaceOnUse" x1="1027.7" x2="1017.1" y1="166.91" y2="174.3"><stop offset="0" stop-color="#333"/><stop offset="1" stop-color="#ccc"/></linearGradient><linearGradient id="J" gradientUnits="userSpaceOnUse" x1="1036.5" x2="1025.1" y1="164.83" y2="174.4"><stop offset="0" stop-color="#ccc"/><stop offset="1" stop-color="#fff"/></linearGradient><linearGradient id="K" gradientUnits="userSpaceOnUse" x1="1004.5" x2="1008.6" xlink:href="#d" y1="162.97" y2="162.04"/><linearGradient id="L" gradientUnits="userSpaceOnUse" x1="1028.925" x2="1030.625" xlink:href="#d" y1="162.4376" y2="164.5776"/><linearGradient id="M" gradientUnits="userSpaceOnUse" x1="1031.8" x2="1032.4" xlink:href="#s" y1="164.11" y2="171.9"/><linearGradient id="N" gradientUnits="userSpaceOnUse" x1="411.3705" x2="511.005" y1="300.50205" y2="300.50205"><stop offset="0" stop-color="#ccc"/><stop offset="1" stop-color="#191919"/></linearGradient><radialGradient id="O" cx="999.93" cy="205.93" gradientTransform="matrix(55.986 25.92 -51.367 110.96 -45063 -48503)" gradientUnits="userSpaceOnUse" r="2.8655"><stop offset="0" stop-color="#fff"/><stop offset="1"/></radialGradient><linearGradient id="P" gradientUnits="userSpaceOnUse" x1="278.5245" x2="189.9605" xlink:href="#D" y1="291.1712" y2="316.63335"/><radialGradient id="Q" cx="990.44" cy="209.14" gradientTransform="matrix(-28.792 -35.184 33.772 -27.637 21787 40907)" gradientUnits="userSpaceOnUse" r="5.838"><stop offset="0" stop-color="#fff"/><stop offset="1" stop-color="#b3b3b3"/></radialGradient><linearGradient id="R" gradientUnits="userSpaceOnUse" x1="202.50685" x2="215.47515" xlink:href="#c" y1="752.22505" y2="684.53685"/><radialGradient id="S" cx="1006.3" cy="164.89" gradientTransform="matrix(15.657 27.812 -42.83 24.111 -8504.3 -31809)" gradientUnits="userSpaceOnUse" r="5.4729"><stop offset="0" stop-color="#333"/><stop offset="1" stop-color="#efefef"/></radialGradient><linearGradient id="T" gradientUnits="userSpaceOnUse" x1="469.9385" x2="661.3" y1="324.27115" y2="723.9162"><stop offset="0" stop-color="#e6e6e6"/><stop offset="1" stop-color="#666"/></linearGradient><linearGradient id="U" gradientUnits="userSpaceOnUse" x1="250.26815" x2="282.0563" y1="730.2422" y2="421.8497"><stop offset="0" stop-color="#fff"/><stop offset="1" stop-color="#e6e6e6"/></linearGradient><g transform="translate(-20.219 -117.73)"><path d="m1281.8 669.91 53.2 20.64 42.7-29.39-53.2-13.65z" fill-rule="evenodd" filter="url(#v)" opacity=".75581" transform="matrix(6.968 0 0 7.1641 -8911.7 -4137.4)"/><path d="m38.852 368.18v277.03l354.81 128.85 273.95-183.15v-263.18l-281.65 149.29z" fill="#500" fill-rule="evenodd"/><path d="m997.28 194.51 22.12 8.26v-17.07l-22.12-6.72z" fill="url(#w)" fill-rule="evenodd" filter="url(#u)" opacity=".52536" transform="matrix(15.815 0 0 15.815 -15731 -2436.6)"/><path d="m1002.7 222.42h.43929v15.805h-.43929z" fill="url(#x)" filter="url(#r)" opacity=".52174" transform="matrix(18.002 0 0 18.002 -17663 -3520.4)"/><path d="m319.5 219.77 355.65 56.07-.87 95.52-279.89 141.64-360.74-110.9.584-97.65 285.27-84.68z" fill="#500"/><g fill-rule="evenodd"><path d="m996.92 175.07.09 4.36 22.19 6.9.1-5.08z" fill="url(#y)" filter="url(#p)" opacity=".5" transform="matrix(15.815 0 0 15.815 -15731 -2436.6)"/><path d="m997.08 173.49 22.42 5.94 17.5-7.69v.46l-17.3 7.67-.1 6.23h-.5v-6.23l-21.99-5.85z" fill="url(#z)" filter="url(#o)" transform="matrix(15.815 0 0 15.815 -15731 -2436.6)"/><path d="m1023.9 170.19-18.3 5.78-.2 21.61 4.6 1.87.2-22.15 18.7-7.08z" filter="url(#n)" transform="matrix(15.815 0 0 15.815 -15731 -2436.6)"/><path d="m467.13 243.06-296.48 97.89-4.41 351.7 73.66 26.47 3.71-357.02 297.45-107.8z" fill="url(#U)"/><path d="m1014.7 176.33.4 4.61 17.8 4.54.1-5.09z" fill="url(#A)" filter="url(#p)" opacity=".5" transform="matrix(-15.815 3.8478 0 15.815 16726 -6396.6)"/><path d="m1005.3 170.83 21.8 5.57v21.42l4.2-2.82-.2-20.54-21.6-4.75z" filter="url(#m)" transform="matrix(15.815 0 0 15.815 -15731 -2436.6)"/><path d="m168.16 264.43 347.16 86.04-1.31 343.43 65.88-44.22-1.13-329.87-342.1-76.34z" fill="url(#T)"/><path d="m244.01 172.71s3.45 28.5 23.26 54.73c9.4 12.45 45.83 33.52 45.83 33.52l19.85 23.94s-20.53 6.85-30.79 5.48-61.17-16.14-80.32-27.09c-19.16-10.94-53.36-49.52-55.42-58.42-2.05-8.89-11.5-32.01-3.29-47.07 8.21-15.05 24.1-22.03 28.89-22.72 4.79-.68 49.94 22.58 49.94 22.58z" fill="url(#S)"/><path d="m1005.6 175.93 4.2 1.02-.3 11.59-4-3.55z" fill="url(#B)" filter="url(#k)" opacity=".59058" transform="matrix(15.815 0 0 15.815 -15731 -2436.6)"/><path d="m168.62 651.7-1.18 39.97 71.34 25.75.59-44.11z" fill="url(#R)"/><path d="m1011.5 210.58 4.1 1.82-.2 11.19-4-3.55z" fill="url(#C)" filter="url(#k)" opacity=".67391" transform="matrix(-13.1 0 0 13.1 13829 -2431.5)"/><g transform="matrix(15.741 1.5274 -1.5274 15.741 -15388 -3975.6)"><path d="m1015 173.21s1.9-.14 2.2.99-.6 2.48 1.8 4.67c.7-.36.7-1.06.7-1.06l1.9.77s-1.5-2.19-1.5-3.11c0-.91.2-2.05-.4-2.4-.7-.35-3.8-.35-3.8-.35z" filter="url(#j)" opacity=".9529"/><path d="m1015.1 173.08s1.9-.14 2.2.99-.6 2.47 1.8 4.66c.7-.35.7-1.06.7-1.06l1.9.78s-1.5-2.19-1.5-3.11.2-2.05-.4-2.4c-.7-.36-3.8-.36-3.8-.36z" fill="url(#E)"/></g><path d="m1010.4 171.77s-1.8.92-2.7 1.2c-.8.28-5.5-.07-5.5-.07l2.4.78-.6 1.41s3.5.04 4.8-.14c1.9-.26 2.5-1.77 5.1-1.84 1.6-.04 2.4.14 2.4.14s-2.1-1.69-5.9-1.48z" filter="url(#i)" transform="matrix(15.815 0 0 15.815 -15731 -2436.6)"/><path d="m1008.6 163.52s-1.1-.63-1.5-.63c-.5 0-2 .58-2.1 1.36-.2.79-.4 2.42.3 3.36.8.95 1.9 1.94 1.9 1.94s-1.7-3.16-1-4.61c.8-1.59 2.4-1.42 2.4-1.42z" fill="url(#F)" filter="url(#h)" transform="matrix(15.815 0 0 15.815 -15731 -2436.6)"/><path d="m232.25 117.91c-29.76 2.09-61.2 23.06-71.66 41.02-13.95 23.95 8.02 67.13 40.3 92.09 44.25 34.2 110.44 35.47 110.44 35.47 0-1.03 43.23 11.95 25.7-38.6-25.18-72.57-42.19-108.02-76.11-125.04-8.69-4.36-18.75-5.64-28.67-4.94zm-41.62 28.34c30.19-9.41 49.04 31.59 62.38 48.27 16.42 20.52 57.82 81.05 57.82 81.05l8.4 10.87s-4.57.08-50.41-10.87c-45.83-10.95-78.79-42-80.16-44.74-27.31-32.41-35.35-72.42 1.97-84.58z" fill="url(#Q)"/><path d="m253.71 276.38s-29.07 14.53-42.48 19-87.19-1.12-87.19-1.12l38.01 12.3-10.07 22.35s55.74.55 76.02-2.23c29.92-4.1 39.12-27.95 80.48-29.07 24.81-.67 38.01 2.24 38.01 2.24s-33.54-26.83-92.78-23.47z" fill="url(#P)"/><path d="m1019.9 171.39s-3.1-1.43-3.8-1.43-1.9 1.37-1.5 2.21c.3.85 2.8 1.44 3.6 1.44.7-.18 1.3-.4 2-.72 0-.45-.3-1.5-.3-1.5z" filter="url(#g)" transform="matrix(15.815 0 0 15.815 -15731 -2436.6)"/><path d="m1011.9 167.01 2.8 4.38 1.4-1.04s-1.4-3.13-2.2-4.52-1.3-2.02-1.3-2.02 1.2 2.92.9 3.48-1.5-.28-1.6-.28z" fill="url(#G)" filter="url(#f)" transform="matrix(15.815 0 0 15.815 -15731 -2436.6)"/><path d="m398.03 272.81c-4.89-4.12-49.56-24.03-60.91-24.03s-29.91 21.66-24.76 35.07c5.16 13.41 45.39 22.7 57.77 22.7 11.03-2.83 21.05-6.33 31.98-11.35 0-7.22 2.15-15.29-4.08-22.39z" fill="url(#O)"/><path d="m379.46 306.11s35.54 13.03 57.43 16.45 66.4 10.92 77.35 6.81c10.94-4.1 70.46-16.42 78.67-29.41 8.21-13-43.78-15.06-43.78-15.06s-29.42 18.48-49.95 19.84c-20.52 1.37-80.72-12.99-80.72-12.99l-38.31 10.26z" fill="url(#N)"/><path d="m1015.6 169.98s.4-.17.7-.07c.4.13.7.18 1.6.57 1 .43 1.7.76 1.8.81.5.48.1.98.2 1.54-.4.17-1.4.51-1.6.54-.7-.65.1-1.76 1.1-1.84-.2-.22-1.2-.73-1.5-.85-.8-.33-1.7-.65-1.7-.65s-.9-.11-1.3.61c.1-.36.7-.7.7-.66z" fill="url(#H)" filter="url(#e)" transform="matrix(15.815 0 0 15.815 -15731 -2436.6)"/><g transform="matrix(15.815 0 0 15.815 -15731 -2436.6)"><path d="m1019 173.12 2.1-.52s3.5-2.94 3.9-3.12c2-1.64 4.5-2.25 6.5-1.51 0 0-.2-2.64-.9-2.98-.7-.35-2.6-.61-2.6-.61s-2.6 1.73-2.9 2.03-4.7 4.63-4.7 4.63l-1.3 1.62-.3.56z" fill="url(#I)"/><path d="m1029.8 163.55c-3.4.22-10 8.06-10.4 8.49s-1 1.37-1 1.32 4.3 1.88 7.9 1.66 8.2-2.41 8.6-5.54c.6-3.6-1.8-6.14-5.1-5.93zm-2.3 1.49c1.1-.2 3.5-.22 3.1 3.42-.3 2.25-1.9 5.82-5.2 6-3.3.17-6.6-1.27-6.6-1.31 0 0 5.3-5.61 5.6-5.79.2-.17 1.8-2 3.1-2.32z" fill="url(#J)"/></g><path d="m1004.7 164.66c-.1-.82 1.5-2.01 2.9-2.53 1.3-.53 3-.36 3-.36s-1.5.67-2.1 1.12c-1.2-.12-2.4.41-2.4.41s-.7.28-1.4 1.36z" fill="url(#K)" filter="url(#b)" opacity=".55797" transform="matrix(15.815 0 0 15.815 -15731 -2436.6)"/><path d="m1026.8 165.52c.8-1.14 1.3-1.64 2.9-2.13 1.4-.42 3.8.67 3.8.67s-1.3 1.37-1.9 1.83c-.7-.94-2.5-1.22-2.5-1.22s-1.1-.15-2.3.85z" fill="url(#L)" filter="url(#b)" opacity=".55797" transform="matrix(15.416 3.5311 -3.5311 15.416 -14738 -6002.9)"/><path d="m1030.8 165.7s.7 1.76.3 3.24-1 2.36-1 2.36 2 .38 3-.05c1-.44 1.5-1.27 1.5-1.27s.5-2.47-.1-3.62-1.4-1.43-1.4-1.43-1.4 0-2.3.77z" fill="url(#M)" filter="url(#a)" transform="matrix(15.815 0 0 15.815 -15731 -2436.6)"/></g></g></svg>