<svg height="14" viewBox="0 0 14 14" width="14" xmlns="http://www.w3.org/2000/svg"><path d="m2 5h10v9h-10z" fill="#fff" stroke-dashoffset="1.08" stroke-linecap="round" stroke-linejoin="round" stroke-width="2"/><path d="m0 0h14v14h-14z" fill="none" visibility="hidden"/><path d="m5 0c-1 0-1 0-1 1l.0097656 3h-3.0097656v9c0 1 0 1 1 1h10c1 0 1 0 1-1v-9h-2.960938l-.039062-3c0-1 0-1-1-1zm0 1h4v3h-4zm2.5058594 4 .203125.0371094c1.4184316.2527341 2.6035986 1.2443161 3.0937496 2.5917968.121126.3329605.195195.6761819.22461 1.0175782.081396.9446952-.227854 1.8586386-.765625 2.6289066h.367187c.267265.000488.488927.220151.488282.486328l-.001954.373047c-.000638.265861-.220957.484871-.488281.484375l-2.3398436-.003907c-.1641538-.000327-.3012464-.137028-.3007813-.300781l.0039063-2.3281249c.0004751-.2660126.222903-.4848708.4902344-.484375l.375.0019531c.2672713.0004894.4868264.2202893.4863281.4863282v.1249996c.3023102-.6327388.4446963-1.3387418.1933593-2.0292965-.3261287-.896906-1.1194558-1.558169-2.0644531-1.7265625l-.203125-.0351562zm-4.1328125.3808594 2.3398437.0058594c.1639553.0004606.3011159.1352842.3007813.2988281l-.0058594 2.328125c-.0004997.2659735-.2210347.4866517-.4882813.4863281l-.375-.0019531c-.267272-.0004967-.4847071-.2204534-.484375-.4863281l-.0019531-.1289063c-.3037885.6334818-.4450944 1.3374703-.1933593 2.0292969.3262929.8967306 1.1176105 1.5620716 2.0625 1.7304686l.2050781.035156-.2382813 1.322266-.2050781-.037109c-1.4186143-.252811-2.6016495-1.246279-3.0917969-2.59375-.4568788-1.256417-.168686-2.5924599.5664063-3.6425785h-.3945313c-.2672646-.0004973-.486817-.2203028-.4863281-.4863281v-.3730469c.0006449-.2658402.2229931-.4866522.4902344-.4863281z" fill="#ac39ac"/></svg>