<svg height="11" viewBox="0 0 16 11" width="16" xmlns="http://www.w3.org/2000/svg" xmlns:xlink="http://www.w3.org/1999/xlink"><filter id="a" color-interpolation-filters="sRGB" height="1.3818" width="1.3818" x="-.19091" y="-.19091"><feGaussianBlur stdDeviation=".32141218"/></filter><g transform="translate(-219.14 -732.22999)"><g stroke="#000" stroke-width=".077128"><rect fill="#ecece9" height="10.922127" rx=".31616" ry=".293751" width="15.922884" x="219.17857" y="732.26855"/><path d="m221.93752 733.33645c-.85985 0-1.55171.644-1.55171 1.44287 0 .79891.69186 1.44173 1.55171 1.44173h13.16426v-2.8846z" fill="none" stroke-linejoin="round"/><path d="m221.79414 733.73732v2.08313h13.30764v-2.08313z" fill="none" stroke-linejoin="round"/><path d="m226.30797 736.80864c-.25476 0-.46022.18973-.46022.42644s.20547.4276.46022.4276h1.19333v-.85404z" fill="#666" stroke-linejoin="round"/><path d="m227.96015 736.80864v.85404h1.60327v-.85404z" fill="#666" stroke-linejoin="round"/><path d="m229.92111 736.80864v.85404h1.60326v-.85404z" fill="#666" stroke-linejoin="round"/><path d="m231.98328 736.80864v.85404h1.19333c.25476 0 .45897-.1909.45897-.4276 0-.23671-.20421-.42644-.45897-.42644z" fill="#666" stroke-linejoin="round"/><path d="m226.30797 738.02373c-.25476 0-.46022.18973-.46022.42644s.20547.4276.46022.4276h1.19333v-.85404z" fill="#666" stroke-linejoin="round"/><path d="m227.96015 738.02373v.85404h1.60327v-.85404z" fill="#666" stroke-linejoin="round"/><path d="m229.92111 738.02373v.85404h1.60326v-.85404z" fill="#666" stroke-linejoin="round"/><path d="m231.98328 738.02373v.85404h1.19333c.25476 0 .45897-.1909.45897-.4276 0-.23671-.20421-.42644-.45897-.42644z" fill="#666" stroke-linejoin="round"/><path d="m226.30797 739.23882c-.25476 0-.46022.18973-.46022.42644s.20547.4276.46022.4276h1.19333v-.85404z" fill="#666" stroke-linejoin="round"/><path d="m227.96015 739.23882v.85404h1.60327v-.85404z" fill="#666" stroke-linejoin="round"/><path d="m229.92111 739.23882v.85404h1.60326v-.85404z" fill="#666" stroke-linejoin="round"/><path d="m231.98328 739.23882v.85404h1.19333c.25476 0 .45897-.1909.45897-.4276 0-.23671-.20421-.42644-.45897-.42644z" fill="#666" stroke-linejoin="round"/><path d="m226.41488 740.7611c-.31448 0-.56713.23473-.56713.52693 0 .29219.25264.52692.56713.52692h1.08645v-1.05385z" fill="#666" stroke-linejoin="round"/><path d="m227.96015 740.7611v1.05385h1.60327v-1.05385z" fill="#666" stroke-linejoin="round"/><path d="m229.92111 740.7611v1.05385h1.60326v-1.05385z" fill="#666" stroke-linejoin="round"/><path d="m231.98328 740.7611v1.05385h1.08517c.31449 0 .56713-.23472.56713-.52692 0-.29219-.25264-.52693-.56713-.52693z" fill="#666" stroke-linejoin="round"/><path d="m220.543 737.41975a.20121489.1869531 0 0 0 -.16599.27222l2.88839 5.49943h.44765l-2.97388-5.66418a.20121489.1869531 0 0 0 -.17605-.10748.20121489.1869531 0 0 0 -.0201 0zm-.11443 1.6567a.20121489.1869531 0 0 0 -.16598.27106l2.01823 3.84392h.44764l-2.10372-4.00867a.20121489.1869531 0 0 0 -.19617-.10632zm-.14461 1.65554a.20121489.1869531 0 0 0 -.16472.27105l1.14806 2.18829h.44765l-1.23484-2.35185a.20121489.1869531 0 0 0 -.19617-.10749z" fill="none"/></g><path d="m221.79414 733.73732v2.08313h11.95728v-2.08313z" fill="#0c080a" stroke-width=".030851"/><path d="m226.24911 734.12451h7.185446v1.308526h-7.185446z" fill="#837a76" stroke-width=".030851"/><path d="m226.37137 734.23157h6.941237v1.094889h-6.941237z" fill="#5ef804" stroke-width=".030851"/><path d="m221.79414 733.73732v2.08313h3.66537l-.73311-1.43239c-.0315.0135-.0662.0211-.10311.0211-.13706 0-.24898-.10398-.24898-.23132 0-.0904.0566-.16879.13832-.20681l-.11945-.23366h-2.59918z" fill="#837a76" stroke="#000" stroke-linejoin="round" stroke-width=".077128"/><circle cx="354.56354" cy="501.32397" fill="#d43307" filter="url(#a)" r="2.020305" transform="matrix(.11065587 0 0 .10281276 185.38905 682.63664)"/></g></svg>