<svg height="375" width="500" xmlns="http://www.w3.org/2000/svg" xmlns:xlink="http://www.w3.org/1999/xlink"><linearGradient id="a"><stop offset="0" stop-color="#d0f0ff"/><stop offset="1" stop-color="#003968"/></linearGradient><linearGradient id="b" gradientTransform="matrix(.704605 0 0 .63704 415.2939 76.68502)" gradientUnits="userSpaceOnUse" x1="-228.3437" x2="104.23048" xlink:href="#a" y1="156.02844" y2="-528.19983"/><linearGradient id="c" gradientTransform="matrix(.92616 0 0 .484648 415.2939 76.68502)" gradientUnits="userSpaceOnUse" x1="-84.01284" x2="-42.793274" xlink:href="#a" y1="-27.979443" y2="44.798901"/><linearGradient id="d" gradientTransform="matrix(-1.395913 0 0 .490448 414.647 -29.53995)" gradientUnits="userSpaceOnUse" x1="220.02895" x2="208.66641" y1="367.8714" y2="322.10733"><stop offset="0" stop-color="#fff"/><stop offset="1" stop-color="#fff" stop-opacity="0"/></linearGradient><linearGradient id="e" gradientTransform="matrix(-1.204457 0 0 .568407 414.647 -29.53995)" gradientUnits="userSpaceOnUse" x1="286.5863" x2="-509.75967" xlink:href="#a" y1="228.04239" y2="776.38965"/><linearGradient id="f" gradientTransform="scale(-1.15136 .868538)" gradientUnits="userSpaceOnUse" x1="-273.97739" x2="-289.79379" xlink:href="#a" y1="46.203632" y2="111.63103"/><linearGradient id="g" gradientTransform="matrix(-1.035418 0 0 .661204 414.647 -29.53995)" gradientUnits="userSpaceOnUse" x1="214.88705" x2="-46.229206" xlink:href="#a" y1="108.75815" y2="352.20242"/><radialGradient id="h" cx="195.70198" cy="252.70335" gradientTransform="scale(1.297277 .770846)" gradientUnits="userSpaceOnUse" r="158.86395"><stop offset="0" stop-color="#00006d"/><stop offset=".5" stop-color="#1f4b72" stop-opacity=".836735"/><stop offset="1" stop-color="#fff" stop-opacity="0"/></radialGradient><path d="m459.97014 194.79526a206.09052 122.45958 0 1 1 -412.181032 0 206.09052 122.45958 0 1 1 412.181032 0z" fill="url(#h)" fill-rule="evenodd" transform="matrix(1.169082 0 0 .861789 -53.87817 43.84823)"/><path d="m146.00811 137.38942s144.85881-48.966353 144.85881-58.147549-4.08051-4.080532-5.10065-14.281853c16.32212-19.382517.00001-20.402658-11.22145-26.523464-7.14095 17.342268-46.9261 33.664387-46.9261 33.664387l-90.79182 49.986499z" fill="url(#g)" fill-rule="evenodd" stroke="#000" stroke-width="1.552868"/><path d="m375.92337 59.859354c-3.0604-6.120798-22.44291-12.241587-26.52345-8.161064-4.08053 4.080532-23.98323 15.065031-30.10404 19.145539-6.12079 4.080539-8.42401 11.221461-16.82205 10.438316-6.12081-3.060415-24.4832-12.241587-25.50334-6.120806-1.02011 6.120806-6.12078 41.825431 21.4228 41.825431 27.54359 0 57.12742 10.20133 65.28849-6.1208 8.16105-16.322121 12.24159-51.006616 12.24159-51.006616z" fill="url(#f)" fill-rule="evenodd" stroke="#000" stroke-width="1.552868"/><path d="m395.94059 152.69142s1.02013-51.00663-3.0604-60.187829c-4.08052-9.181188-12.24159-27.543573-16.32211-31.624105-4.08054-4.08054-7.14093-5.100664-11.22146 0-4.08054 5.100657-4.08054 23.463041-9.1812 30.603972-5.10066 7.14093-8.16107 12.241592-18.36239 13.261732-10.20132 1.02012-21.42278-4.08054-30.60398-12.241599-9.18119-8.161064-15.30198-18.362377-22.44291-20.40265-7.14092-2.040266-8.16106 0-20.40266 7.14093-12.24158 7.14093-113.2347 44.885839-113.2347 44.885839l-10.20133-1.02015 104.05352-61.20794s-83.65087 44.88583-98.95286 53.04689c-15.30199 8.16105-23.46306 16.32212-31.62411 17.34226-8.16106 1.02014-32.644245-5.10067-39.785166-1.02014-7.140929 4.08055-14.281857 6.12079-17.342255 14.28186-3.060405 8.16106-6.120796 35.70464-6.120796 35.70464s12.241584 16.32213 27.543581 20.40266c15.301983 4.08051 89.771656 20.40264 108.134046 17.34225 18.36238-3.0604 47.94623-3.0604 60.18782-10.20132 12.24159-7.14093 34.68452-8.16107 45.90596-8.16107 11.22148 0 61.20796 4.08053 74.46969-2.04027 13.26172-6.12079 21.42279-29.58384 25.50331-33.66437 4.08053-4.08054 3.0604-12.24159 3.0604-12.24159z" fill="url(#e)" fill-rule="evenodd" stroke="#000" stroke-width="1.552868"/><path d="m393.38156 144.75114c2.25626-5.64065 2.25626 31.58772 1.12813 33.84398-117.32576 22.56264-186.14182 7.89692-186.14182 7.89692s86.86618 7.89693 174.8605-20.30638c7.89692-6.76879 10.15319-21.43452 10.15319-21.43452z" fill-opacity=".227027" fill-rule="evenodd"/><path d="m397.98086 158.40119 3.06039 24.87799s0 1.55488-1.02014 6.99694c-1.02012 5.44205-2.04025 8.5518-8.16105 10.88411-6.1208 2.3323-63.24822 10.88411-66.30861 10.88411-3.0604 0-26.52346-6.2195-38.76504-4.66462-12.24161 1.55486-20.40266 3.10976-26.52346 5.44206-6.12078 2.33231-19.38252 9.32924-44.88582 10.10669-25.50332.77742-53.0469 2.3323-82.63073-3.8872-29.58387-6.21949-30.69339-6.9402-54.984395-16.89352-13.773283-6.87977-24.52513-12.39775-32.7914-21.06031-.266113-15.99813 10.245715-30.4606 10.245715-24.24111 5.645247 16.09867 11.353739 14.41664 30.086607 23.0792 14.882343 5.44205 38.262263 18.90239 57.644793 16.57006 19.38251-2.3323 58.14755-8.55179 66.30861-8.55179 8.16107 0 76.50995 4.66462 97.93274 2.3323 21.42278-2.3323 68.34887-10.10667 78.55019-13.99384 10.20132-3.8872 12.2416-17.88107 12.2416-17.88107z" fill="#171717" fill-rule="evenodd" stroke="#000" stroke-width="1.355623"/><path d="m141.92759 118.00691 22.01519 13.4987 6.07457-30.84096 46.37991 2.94192 3.06039-28.445231 45.90598 8.161064-10.20134-16.322119-19.38252-1.020141 5.69309 26.167991-45.19619-6.197328-6.71207 29.778864z" fill="none" stroke="#000" stroke-linecap="round" stroke-linejoin="round" stroke-width="6.25"/><path d="m136.44148 127.57353s-8.16105 4.08054-17.34225 5.10066c-9.18119 1.02015-35.704638-2.04026-35.704638-2.04026s-11.22146 0-1.020126 6.1208c10.20132 6.12079 87.731404 24.48318 76.509934 18.36239-11.22146-6.12081-39.78517-9.18119-47.94622-14.28185-8.16106-5.10069 25.5033-13.26174 25.5033-13.26174z" fill="url(#d)" fill-rule="evenodd"/><path d="m373.30686 65.736303s-2.17225-8.161056-4.44241-2.040258c-2.27018 6.120781-4.82614 21.422783-9.43592 27.543572-3.1322 5.222585-19.14325 23.617323-6.14766 13.749403 21.32182-22.442927 20.02599-39.252717 20.02599-39.252717z" fill="#fff" fill-opacity=".616216" fill-rule="evenodd"/><path d="m233.73951 103.72505s-89.77166 28.56372-76.50994 34.68451c13.26173 6.12079 76.50994-34.68451 76.50994-34.68451z" fill-opacity=".054054" fill-rule="evenodd"/><path d="m256.18243 67.000284c9.1812-3.060407 6.12079-3.060407 14.28185-1.020141 8.16105 2.040258 16.32213 12.241587 7.14094 13.261728-9.18121 1.020133-16.32213-3.06039-21.42279-12.241587z" fill="none" stroke="#000" stroke-linecap="round" stroke-linejoin="round" stroke-width="4.658606"/><path d="m257.20256 63.939877s-4.08054-9.18118-11.22146-8.161055c-7.14094 1.020141-17.34226 8.161072-9.1812 5.100664 7.14092 5.100657 20.40266 3.060391 20.40266 3.060391z" fill="none" stroke="#000" stroke-linecap="round" stroke-linejoin="round" stroke-width="4.658606"/><path d="m247.00123 89.443192 9.1812-23.463049s-19.38251 10.201338-25.50332 15.302002" fill="none" stroke="#000" stroke-width="4.658606"/><g fill-rule="evenodd"><path d="m323.39842 122.87026s-26.75742-12.01939-32.83864-18.57542c-6.08124-6.556046-8.51373-10.926737-12.16247-10.926737s-83.921 37.150867-91.21848 40.428887c-7.29746 3.27801-34.05489 6.55605-17.02744 8.74139 17.02744 2.18533 70.54229 0 88.78598-4.3707 18.24369-4.37069 64.46105-15.29742 64.46105-15.29742z" fill="#fff" fill-opacity=".216216" stroke="#000" stroke-linejoin="round" stroke-width="1.541068"/><path d="m301.20484 87.358137s27.43915 8.004835 40.43664 2.668278c12.99748-5.336557 28.88331-25.348647 34.65997-28.016925s17.49995-6.805004 27.60911-.134307c10.10916 6.670696 10.29419-.700858 13.18253 13.974674 2.88833 14.675532 3.97749 40.859343-7.57583 43.527623-11.55333 2.66828-108.31242-32.019343-108.31242-32.019343z" fill="url(#c)" stroke="#000" stroke-width="1.425"/><path d="m218.8874 176.74547 83.76161-84.050776s-7.22083-4.002418-4.3325-10.673115c2.88833-6.670696 7.22084-20.012089 21.66249-18.67795s38.99246-2.668279 40.43663 6.670696c1.44416 9.338975-1.44417 17.343812 0 25.348647 1.44416 8.004838-5.77667 2.668279-10.10916 8.004838-4.3325 5.33656-115.53324 97.39216-115.53324 97.39216l-17.32999-6.67069z" fill="url(#b)" stroke="#000" stroke-width=".921211"/><path d="m385.10077 66.392322c5.00792-5.222555 14.70354-4.461695 18.70447-.125323 7.08437 3.529768 19.91369 10.254742 10.68807 28.306244-3.29607 10.317407-8.97292 23.109087-12.43677 13.851447 1.00024 15.17731-.50241-35.251945-16.95577-42.032368z" fill-opacity=".324324"/><path d="m129.34914 254.12554s5.77667-28.01692 14.44166-32.01934c8.66499-4.00241 36.10413-16.00966 43.32497-21.34623 7.22082-5.33656 18.77415-26.68278 25.99497-32.01933 7.22083-5.33656 49.10163-48.02902 59.2108-54.69972 10.10915-6.6707 18.77414-33.35348 24.5508-32.019341 5.77667 1.33414 11.55333 6.670697 5.77667 16.009672-5.77667 9.338969-80.87327 78.714219-80.87327 84.050779 0 5.33655 2.88832 13.34138 8.66499 13.34138s98.20325-94.72388 111.20075-97.392159c12.99748-2.668279 30.32747-5.336558 38.99247-1.334137 8.66499 4.002416 23.10664 20.012086 24.55081 14.675526 1.44417-5.33655 18.63018-26.672157 8.52102-37.345272-4.12147-8.926704-9.3048-10.669628-16.52563-13.337906-7.22083-2.668279-5.39387-3.076724 9.44878 1.320028 11.55332 5.336557 20.21831 1.334139 23.10664 13.341393 2.88834 12.007254 10.10916 13.341393 12.9975 33.353487 2.88833 20.01208 10.10915 69.37524 10.10915 69.37524l-67.87578 49.36315-8.66499 8.00484-20.21832 34.68762s-25.99497 24.01451-54.87829 25.34865c-28.8833 1.33414-79.4291 0-92.42659-4.00242-12.99749-4.00243-59.21079-13.34139-67.87578-20.01209-8.66499-6.67069-11.55333-17.34382-11.55333-17.34382z" fill="#b6d9ec" stroke="#000" stroke-width="1.675"/><path d="m129.34914 252.83508s0 18.09696 1.44417 24.12929c1.44417 6.03232 4.3325 13.57272 11.55333 16.58888 7.22082 3.01616 49.10162 18.09697 95.31492 19.60505 46.2133 1.50807 64.98745-1.50808 89.53827-10.55657 24.5508-9.04848 28.8833-13.57272 31.77163-21.11312 2.88833-7.54041 5.77667-21.11313-7.22083-21.11313-12.99748 0-30.32747 19.60504-41.8808 25.63736-11.55332 6.03232-75.0966 7.54041-75.0966 7.54041s-5.77667-7.54041-10.10917-13.57273c-4.33249-6.03232-89.53825-12.06464-95.31492-27.14544z" stroke="#000" stroke-width=".712308"/><path d="m195.78076 207.43067s-24.55081 6.6707-33.21581 12.00726c-8.66499 5.33655-8.66499 2.66827-7.22083 6.67069 1.44417 4.00243 24.55081 16.00967 67.87578 6.6707 43.32498-9.33898 118.42158-26.68278 90.98243-25.34865-27.43914 1.33414-75.0966 14.67553-85.20577 13.34139-10.10916-1.33413-33.2158-13.34139-33.2158-13.34139z" fill="#fff" fill-opacity=".345946"/><path d="m360.41563 264.79867s1.44416-23.25784 21.66249-37.79399c20.21831-14.53614 56.32245-34.88675 63.54328-45.06205 7.22082-10.1753 7.22082-14.53615 7.22082-14.53615s5.77667 36.34037 1.44417 46.51567c-4.33249 10.17531-59.21079 33.43314-66.43161 33.43314-7.22083 0-4.3325 0-11.55333 2.90721-7.22082 2.90724-15.88582 14.53617-15.88582 14.53617z"/><path d="m407.26729 111.03645s8.98724-10.58641 9.86139-18.591243c.87415-8.004836 5.10135-11.037868-1.89189-19.042703-7.56211-7.534933-26.98743-14.942955-19.99419-13.608816s25.75408 7.628438 28.37654 15.633274c2.62247 8.004835.25709 18.26568-4.98784 26.270518-5.24493 8.00483-7.86739 21.34623-11.36401 9.33897z" fill="#d2eeff"/></g><path d="m211.66657 183.41617 33.21582 9.33897-10.10916-36.02176 53.43413-6.67069-10.10916-34.68763 59.21078-9.33897-20.21831-16.009675-25.99499 8.004836 20.21833 30.685199-57.76663 9.33898 11.55333 34.68762z" fill="none" stroke="#000" stroke-linecap="round" stroke-linejoin="round" stroke-width="7.0877"/><path d="m280.98653 196.75756 72.20827-74.7118s2.88833-5.33656 11.55333-4.00242c8.66499 1.33414 10.10916 6.6707 18.77415 9.33898 8.66499 2.66827 25.99498 8.00483 27.43914 6.67069 1.44417-1.33414-43.32497 37.3559-60.65495 45.36074-17.32998 8.00483-57.76662 21.34622-69.31994 17.34381z" style="fill:#fff;fill-opacity:.259459;fill-rule:evenodd;stroke:#000;stroke-width:1.674929;stroke-linecap:round;stroke-linejoin:round"/><path d="m315.84766 87.292882s-2.93689-7.34223-13.21601-8.810676c-10.27912-1.468447-26.43204 11.747569-16.15291 10.279123 10.27912-1.468447 41.1165-8.810677 51.39562-5.873785s29.36892 19.089796 14.68446 19.089796-36.71116-14.684458-36.71116-14.684458z" fill="none" stroke="#000" stroke-linecap="round" stroke-linejoin="round" stroke-width="7.0877"/><path d="m292.35253 107.85113s13.21601-13.216017 20.55824-19.089801c7.34223-5.873785 1.46845 19.089801 5.87379 33.774261s1.46844 13.21601 1.46844 13.21601" fill="none" stroke="#000" stroke-width="7.0877"/></svg>