<svg height="16" viewBox="0 0 16 16" width="16" xmlns="http://www.w3.org/2000/svg"><path d="m9.9156798.87299003c-1.7516928 1.40493337-3.2056707 3.51460517-4.6681212 5.27262177-.9921082 1.1928239-2.1324853 3.1756713-1.3816086 4.8759222.7133388 1.615096 3.3504096 1.108577 4.4647809.340751 1.3212418-.908929 2.3471221-2.3211318 3.4017151-3.5631537.756996-.8911455 2.178143-2.0931859 1.39573-3.4362-.711339-1.2208628-1.778993-1.7748918-2.914428-.8843954-.6417935.5031435-1.6108375 1.3513219-1.5422337 2.328142.3093645 1.2845996 1.7463977-.9908395 2.1469597-.8869916 1.03447.2722116.136384 1.0749565-.167333 1.4550401-.424685.5310526-.8496048 1.0618456-1.274172 1.5928983-.4789325.5986836-1.0016397 1.215281-1.5588254 1.7195928-.5723655.5178115-2.1626098.9847385-2.379012-.1565509-.2825349-1.488531 1.4054963-2.8369971 2.2323904-3.7753934 1.0855412-1.2317669 3.396067-4.92057711 5.068683-2.9870575.511646.5915441 1.108605 1.1262314 1.095073 2.0223097-.011768.7756146-.404681 1.3659904-.877376 1.8876967-1.766167 1.9481882-3.5320984 3.8962469-5.2977943 5.8445649-1.2469897 1.375466-3.3790044 1.841873-5.018201 1.062624-.7194578-.341789-.765586-1.616134-.7176927-2.355012.0483639-1.13415.2667666-2.1081146.9912844-2.9381196 1.0136425-1.160631 2.0349337-2.3150311 3.0688161-3.4537243.6310848-.6950026 1.2754668-1.3726107 1.9226729-2.0491803.4097403-.4282432 1.1472022-.9502091 1.0915425-1.6711737-.1721568-1.82707549-2.0115166.0659435-2.5275164.63529-1.0805989 1.1921749-2.1614331 2.3842199-3.2421496 3.5763948-.6679168.7369312-1.3425409 1.467372-2.0046916 2.2105341-1.18791739 1.3336678-1.35689703 3.099603-1.14755526 4.902144.10625947.914122.36102334 2.153807 1.12978656 2.670581.7638209.513398 1.7480449.680074 2.6190666.823385 1.6109549.265331 3.3914778-.308559 4.5480939-1.584721 2.1496659-2.371368 4.2996849-4.7427371 6.4495859-7.1144953 1.249813-1.3787118 1.713331-3.2762741.342901-4.8321765-.505997-.5741495-.985989-1.2231994-1.549764-1.73010739-1.081776-.97227675-2.70897-.88400596-3.6997835.19860927m-5.5952734 10.46047792c-1.2951183-1.4281697.1779229-3.9444064 1.0798928-5.0287091.6069617-.7294023 1.2193364-1.4536122 1.836065-2.1730191.8707864-1.0158929 1.7434556-2.2916654 2.8107571-3.0605299 1.642845-1.44673221 3.029749-.7039595 4.328868.7700328 1.183093 1.3427545 2.18332 3.1519161.685685 4.8042674-1.780993 1.9648038-3.56234 3.9296079-5.3435688 5.8942819-.650501.717849-1.2826449 1.559148-2.028697 2.163024-1.5396446 1.245396-3.4273683 1.206453-5.1838857.708762-.9027937-.255336-1.54199802-.588039-1.9032567-1.589523-.28959532-.802615-.36749541-1.670135-.37420282-2.526751-.01447388-1.8421339.5056445-2.8851571 1.64637472-4.1440542 1.7866419-1.9706453 3.5725778-3.9411608 5.3589843-5.9118061.3364295-.37099697.86302-.92476634 1.3466595-.49678284.564246.49937904-.1040237 1.13324114-.4558685 1.50073314-1.3751365 1.435958-2.723208 2.8973588-4.0424494 4.3958852-.8596074.9768201-1.9489142 1.9183319-2.2275658 3.3021063-.1710978.8494765-.2286403 1.8329165-.0373026 2.6864175.2679433 1.19529 1.1182545 1.378971 2.1121277 1.496969 3.0433986.360742 4.9663068-2.637609 6.8892151-4.7592236.818774-.9032178 1.637784-1.8065655 2.456559-2.710043.560598-.6186743.905029-1.5046274.720752-2.3843497-.158506-.756922-.795593-1.3069268-1.262287-1.8461575-1.672851-1.93338984-4.3435768 2.179899-5.3768708 3.3554582-.9565707 1.0879374-2.8038146 2.66422-1.8983144 4.3549946.4117408.492499 1.2378111.318814 1.7525165.15759.8885552-.278443 1.5042247-1.2338442 2.1277784-1.9432557.7384033-.8400004 1.4022013-1.7495789 2.1541373-2.5768579.176393-.1945852-.027065-.4789988-.157212-.681762-.456575-.7109693-.983636-.3053131-1.4235007.1834215-.1420323.1575893-.6034315.796514-.9045588.6905891-.5651875-.2004266.3731437-1.4027267.5654228-1.5783596.9357427-.8555775 1.7509867-1.6893471 2.7659237-.5693465.676389.7464073 1.156616 1.4697086.400091 2.4549663-.90397 1.1771169-1.921025 2.2646649-2.8771254 3.3903771-.7744116.9115257-1.8233562 1.8988607-2.9871505 2.0656657-.7464051.108262-1.9697424.251053-2.554346-.394232" fill="#5e5d5d"/><path d="m15.150283 2.5540293c-.98646-1.1196111-1.942795-2.60204108-3.534452-2.43757183-.997403.10306912-1.778522.89698693-2.4514986 1.64573093-.950334 1.0570427-1.8799573 2.1365425-2.8007551 3.2247395-.4020915.4749747-.8007705.9533245-1.1996848 1.4314147-.8313657.9168479-1.1046043 1.7717764-1.3384223 3.0021154-.4308039 2.265184 1.4846909 2.654744 3.0626971 2.423163 1.6761461-.24625 2.8840681-1.9063895 3.9796117-3.195792.652266-.7679559 2.59965-2.4404277 2.371128-3.6292274-.124028-.6455451-.569071-.9994071-.974457-1.4466025-.803007-.8858233-1.704153-.3267317-2.4457334.4064351-.256176.25274-1.7248632 1.9651933-.8007705 2.1078544.4976427.0769774.8800826-.7378399 1.2082749-.9995368.384323-.4239594 1.340658-.1932871 1.243224.5475385-.03742.2842838-.82101.9178864-1.040943 1.1926941-.9996389 1.2501999-2.1043609 3.1748926-3.6634216 3.4554116-.8700803.156551-1.5351729-.181474-1.4237358-1.251368.1806294-1.0299123.7521712-1.6343076 1.3866686-2.3652676.6006072-.6916276 1.2061568-1.3781926 1.816178-2.0598248.8121849-.9071121 1.8362998-2.5149385 3.1002348-2.5634875.777824-.030116 1.256992.7440708 1.738396 1.3008259.730519.8449331.703572 2.0395744.05142 2.9466865-.623318.8673903-1.43868 1.6131486-2.146018 2.3934364-1.034703 1.1411595-2.0690556 2.2824491-3.103644 3.4237381-.9963444 1.098971-2.208738 2.043988-3.700607 1.951044-.6373215-.039722-1.6932088-.035178-2.1779074-.569736-.5549498-.685137-.5294146-1.781642-.4649293-2.64332.1340305-1.7909888 1.0990736-2.7395103 2.1582559-3.9460941 1.4688048-1.6732506 2.9866797-3.2815963 4.5089085-4.8947449.4930534-.5223554.5335332-1.64482225-.4045627-1.51462284-.9112662.1261753-1.9357346 1.76126184-2.5545814 2.44406234-1.2376934 1.3650817-2.4750338 2.7301635-3.7124919 4.0955048-1.18026865 1.3021239-1.73015851 2.3647484-1.71368417 4.2739937.006707.779768.0716634 1.558888.29630273 2.303738.34360761 1.139991.95998314 1.5916 1.97150754 1.890812 1.8166487.537803 3.7880386.582717 5.3798126-.717849 1.7694615-1.446862 3.2620366-3.527716 4.8139196-5.239261 1.531642-1.6898663 4.908881-4.4006881 2.565172-6.9872818" fill="#7f7f7f"/><path d="m8.6802222.83145084c-.7239295-1.12285633-3.1563654 2.29283366-3.5636346 2.74379356-.961866 1.0650909-1.9651531 2.0831905-2.9224298 3.1536036-.9455093 1.0575619-1.66543787 1.8583597-1.73380637 3.404137-.0317719.714474.0110613 1.433751.0897851 2.142903.0248292.222754.0130618.894131.17039172 1.068466-.0630732-.06945.0269473-.791581.0298892-.897247.0191808-.664756.0624848-1.331331.16721453-1.987001.23934862-1.4968388 1.04812092-2.558944 1.94503092-3.6668722.8516056-1.0514608 1.7679317-2.031007 2.664018-3.0349573.6017841-.6748821 1.1933304-1.3643029 1.7481626-2.0870849.2220505-.2893464.502585-.5284564.8545474-.5876498.1088483-.0181734.7898268.1155309.5514196-.25183134" fill="#e5e5e5"/><path d="m8.8553208 1.2611219c-.340548-.0893093-.9512753.8178028-1.1510855 1.046528-.5662465.6473624-1.1239028 1.3040711-1.7006223 1.9403996-.7131035.7869081-1.4591556 1.5364309-2.1748479 2.320613-.733108.8031344-1.6703802 1.662087-1.9592694 2.798184-.1250873.4922394-.4652824 2.3158095-.0648383 2.7558655-.3035985-.334909.1689796-2.2355871.2837116-2.599834.3429016-1.0884566 1.2090987-1.8439507 1.9159655-2.654614.5602451-.6426893 5.1796494-5.1032198 4.8506333-5.6068825" fill="#999898"/><path d="m14.996601 2.6072514c-.75629-1.0131669-1.721804-2.3499501-3.026336-2.37318609-1.65367-.02972649-2.7389762 1.66909669-3.7974524 2.83660769-1.038354 1.1457029-2.0818856 2.294002-3.0382209 3.5246006-.4956422.6377564-.8882021 1.249421-1.0677724 2.0820222-.1121432.5211871.0183571 1.3916932-.1381491 1.8347342.1130845-.319982.0357728-.8205288.1362663-1.1782851.2702968-.9615025.7862966-1.8361622 1.3766662-2.5950313 1.0450614-1.3430141 2.3107612-2.421735 3.4398417-3.6681704.9272699-1.0229027 1.9903356-2.94084511 3.5642226-2.29893476.773824.31543826 2.024814 1.13064496 2.549992 1.83551316" fill="#e5e5e5"/><path d="m13.290683 3.2439693c-.553302-.9709786-1.123314-1.7915075-2.243687-1.4301165-1.012466.3268615-1.7845237 1.444785-2.5029225 2.2207891-.8237168.890107-1.6806177 1.750877-2.4350247 2.7149757-.3454904.4414838-.5914288.8836166-.7152216 1.4578959-.0484817.22548-.2948907 1.2209927-.1128492 1.4238857-.0496584-.0550394.082254-.6777379.0956688-.7535469.1167324-.6663147.3829107-1.1451837.8119495-1.6218459.9383312-1.042504 1.8558341-2.1070756 2.7868695-3.157498 1.2094522-1.3643029 2.9638512-3.21928749 4.3152172-.8547987" fill="#999898"/><path d="m14.183122 5.0679293c.532003.586871-5.1153999 6.2668367-5.5950384 6.7928267-.836308.916848-1.5064605 1.875624-2.7248555 2.133297-.6390866.135262-1.2766435.265721-1.9311454.21873-.1035529-.0077-1.5849489-.230543-1.5849489-.276106 0 .263255 1.323007.508466 1.4756299.538192.7780595.151488 1.6561417.170051 2.4271407-.05128 1.0418841-.298693 1.696033-1.143106 2.4137258-1.961688 1.252991-1.428689 2.4977448-2.8537428 3.8615848-4.1544388.515647-.4917202 2.489978-2.3219111 1.658377-3.2395379" fill="#e5e5e5"/><path d="m15.871506 4.035291c0 1.387409-.767587 2.3452769-1.593892 3.2662787-1.490104 1.6607889-3.013392 3.2896443-4.5335026 4.9169423-1.1489674 1.230599-2.1832028 2.735745-3.8242822 3.141661-.837014.207047-1.7196855.237423-2.5707027.126435-.1206157-.015837-1.8247682-.346592-1.8247682-.392026 0 .349319 1.7560467.663848 1.9615052.700065.9559823.167974 1.9605639.113973 2.8795966-.236124 1.302061-.496264 2.1063617-1.531758 3.0697574-2.556867 1.5368205-1.635606 3.0226875-3.3256022 4.5663335-4.9535491.628849-.6634588 1.315946-1.3398986 1.696857-2.2207892.280887-.6504778.173216-1.1296064.173216-1.7920267" fill="#999898"/><path d="m11.707029 5.8303034c0 .2163932-.254411.502105-.35867.658526-.525649.788336-1.090248 1.5566813-1.6707334 2.2959491-.5177649.6593049-1.1121354 1.3778035-1.8140599 1.7991665-.2076943.124617-2.1400164.229763-2.1400164.05218 0-.01077 1.7642839-.299471 1.990806-.46446.8448982-.6154258 1.4892801-1.6343043 2.1787311-2.4402945.4531616-.5298843.9092656-1.0601581 1.3940816-1.5551235.02601-.026481.419861-.3693094.419861-.3459436" fill="#e5e5e5"/><path d="m13.211842 5.4730663c0 .5819381-.624495 1.1427172-.960689 1.537729-.716752.8427264-1.421618 1.7018089-2.153196 2.5285686-.666505.7535471-1.4427994 1.6661111-2.3578311 2.0425601-.1805117.07425-2.3360611.497042-2.3360611.246249 0 .117998 2.3688921-.643727 2.6174192-.799369 1.1414363-.714085 2.030697-1.956107 2.929843-2.9855001.60202-.6895506 1.195684-1.3870196 1.789466-2.0850079.04224-.049587.471049-.4774411.471049-.4852297" fill="#999898"/><path d="m12.477322 4.0159493c-.547419-.6055636-1.023292-.8978957-1.777111-.5284565-.202163.0989152-2.1070675 1.5674555-1.7616947 1.9629866.1636843.1869263 1.7813467-1.5882251 1.9632707-1.7132322.407151-.2794808.697335-.1574595 1.068831.1617433.09143.078275.941626 1.1229861 1.030352 1.0252392.134384-.1481132-.461987-.8400004-.523648-.9082804" fill="#e5e5e5"/></svg>