<svg clip-rule="evenodd" fill-rule="evenodd" height="16" image-rendering="optimizeQuality" shape-rendering="geometricPrecision" text-rendering="geometricPrecision" viewBox="0 0 14 16" width="14" xmlns="http://www.w3.org/2000/svg"><g transform="matrix(8.851 0 0 8.851 -.1381 -28909.065)"><path d="m1537 1691-1537-888 18 1595 1519 980z" fill="#a57f58" transform="matrix(.00052192 0 0 .00052822 .015603 3266.2091)"/><path d="m0 803 1537-800 1461 844-1461 844-899-519z" fill="#c2996d" transform="matrix(.00052706 0 0 .00053328 .015603 3266.192)"/><path d="m1.594151 3267.5407-.59768942.3493zm0 0-.0016-.8991-.76845293.4491v.8995h.0047z" fill="#836648" stroke-width=".00053"/><path d="m1.210452 3266.8687-.699938-.4092" fill="none" stroke-width=".00053"/><path d="m1.210452 3266.8687.002106.0202" fill="none" stroke-width=".00053"/><g transform="matrix(.00052706 0 0 .00053328 .015603 3266.192)"><path d="m1540.3494 1660.7585-9.2108 66.0002 1470.2108-839.48278-3.3494-40.27592-25.0482-19.58629z" fill="#664f34"/><path d="m-5.0240981 847.06907 21.1867481-61.34499 1524.18675 875.03442v70.9658z" fill="#664f34"/><path d="m2113 1358-1485-882 314-166 1484 867z" fill="#dfc9b1"/></g><path d="m1.2062296 3266.8528.01476-.012c.01423-.011.01898-.012.03584-.016-.01581.013-.03373.022-.047959.033-.0037 0-.0047 0-.0031-.01z" fill="#fff" stroke-width=".00053"/><path d="m1.1334956 3266.8965.01476-.012c.01423-.011.01898-.012.03584-.016-.01581.013-.033729.022-.047959.033-.0037 0-.0047 0-.0031-.01z" fill="#fff" stroke-width=".00053"/><path d="m2998 875-3-17-1455 840 8 12 1450-831z" fill="#422b22" transform="matrix(.00025897 .00045905 -.00046446 .00026202 1.221055 3265.0407)"/><path d="m2113 1358 313-181v420l-44-14-33 73-49-32-29 60-43-24-33 74-36-35-36 73z" fill="#ab9073" transform="matrix(.00052706 0 0 .00053328 .015603 3266.192)"/><path d="m772 409 9-7 1494 862-12 7z" fill="#9b7b58" fill-rule="nonzero" stroke-width="703.259361" transform="matrix(.00052706 0 0 .00053328 .015603 3266.192)"/><path d="m1522 1707 15-24 27 17v1658l-37 14z" fill="#664f34" transform="matrix(.00091555 0 0 .00053328 -.584498 3266.192)"/><path d="m1.5973109 3266.6448v.8943s-.000565 0-.0031.01l-.77109091.4506-.79850046-.5237.79850046.5167.76792491-.4485v-.898h.0063z" fill="#675341" fill-rule="nonzero" stroke-width=".00053"/><path d="m1531 0h12l356 206 1 7-6 3-357-206-1526 800-11-7z" fill="#675341" fill-rule="nonzero" transform="matrix(.00052706 0 0 .00053328 .015603 3266.192)"/></g></svg>