<svg enable-background="new 0 0 455.148 454.788" height="10" viewBox="0 0 16 10" width="16" xmlns="http://www.w3.org/2000/svg"><g clip-rule="evenodd" fill-rule="evenodd"><path d="m15.938112 7.0329251c-.13451.03763-.31645.03165-.54577-.01786-.23126-.05143-.4492-.304762-.83773-.28689-.39997.0138-.96477.372035-1.51058.372035-.55346-.0098-1.17514-.39193-1.7399-.389907-.56292.0023-1.07466.397855-1.6147602.407695-.54968.0023-1.09738-.364218-1.63572-.372043-.54582-.0138-1.06328.324527-1.57309.320619-.50986-.0079-.94385-.376121-1.44803-.356271-.51175.01786-1.07277.421567-1.57313.441332-.50036.008-.9609-.368089-1.40442-.372043-.44542-.008-.95712.275034-1.25849004.338406-.30326.06131-.49469.0594-.56669.01579v1.049008c.072.04361.26343.04552.56669-.01579.30137004-.06338.81307004-.346392 1.25849004-.338491.44352.0038.90402.380029 1.40442.372128.50036-.02384 1.06138-.419598 1.57313-.439447.50415-.01579.93817.344376 1.44803.354339.50985.0038 1.02727-.33449 1.57309-.320656.53834.0079 1.08604.374012 1.63572.372081.5401002-.01188 1.0518402-.401856 1.6147602-.405764.56476 0 1.18644.376036 1.7399.387938.54581 0 1.11066-.35821 1.51058-.372082.38853-.01778.60647.235465.83773.286928.22932.04951.41126.05541.54577.01786v-1.04897z" fill="#7f7f7f" stroke-width=".042961"/><path d="m15.938112 8.7885051c-.13451.03771-.31645.03165-.54577-.0177-.23126-.05158-.4492-.304892-.83773-.287066-.39997.01379-.96477.372081-1.51058.372081-.55346-.0099-1.17514-.391839-1.7399-.389907-.56292.0038-1.07466.393908-1.6147602.405802-.54968.0023-1.09738-.364256-1.63572-.372166-.54582-.0099-1.06328.326635-1.57309.32268-.50986-.008-.94385-.376074-1.44803-.356316-.51175.01786-1.07277.421574-1.57313.441332-.50036.0098-.9609-.372081-1.40442-.374013-.44542-.008-.95712.275118-1.25849004.338483-.30326.05733-.49469.06323-.56669.0177v1.0490079c.072.04368.26343.0456.56669-.01579.30137004-.06338.81307004-.346392 1.25849004-.338483.44352.0038.90402.380067 1.40442.372081.50036-.01977 1.06138-.423506 1.57313-.44134.50415-.01977.93817.348331 1.44803.356317.50985-.0023 1.02727-.328558 1.57309-.322718.53834.0038 1.08604.378097 1.63572.374143.5401002-.0099 1.0518402-.405803 1.6147602-.407742.56476-.0023 1.18644.380029 1.7399.389915.54581 0 1.11066-.358248 1.51058-.372081.38853-.01786.60647.235465.83773.286974.22932.04951.41126.05549.54577.01778v-1.0490159z" fill="#7f7f7f" stroke-width=".042961"/><g fill="#ac39ac"><path d="m15.750552 6.8369371c-.13649.04169-.31276.03372-.54397-.01579-.235-.05349-.44919-.30283-.83962-.289035-.39992.01387-.96477.37212-1.51054.37212-.55351-.0118-1.17514-.387977-1.73994-.387977-.56292.0038-1.07466.393862-1.6148102.405764-.54963.0023-1.09738-.364133-1.63564-.372035-.54585-.01387-1.06327.32465-1.57312.320611-.50225-.0098-.94767-.37015-1.44614-.35434-.51174.01993-1.07277.415689-1.57313.439447-.50415.008-.96094-.368088-1.40631-.372127-.44915-.0079-.95335004.275118-1.25660004.33849-.30326.05748-.49469.06338-.56669.01786v1.049055c.072.04552.26343.03962.56669-.01786.30325-.06338.80740004-.346392 1.25660004-.33849.44541.0038.90216.380028 1.40631.372035.50036-.0197 1.06139-.425522 1.57313-.439393.49847-.01977.94384.348361 1.44614.35627.50985.0038 1.02727-.332428 1.57312-.322549.53826.0079 1.08601.373974 1.63564.372081.5401502-.01188 1.0518902-.401855 1.6148102-.405802.5648-.0015 1.18643.380067 1.73994.390037.54577 0 1.11066-.358378 1.51054-.372173.39043-.01786.60462.235511.83962.286982.23121.04951.40748.0574.54397.01579z" stroke-width=".042961"/><path d="m6.8409202 6.4915135 4.1590798-2.2732095c-.37192-.7314723-.626809-1.2829695-.780912-1.6757742-.156239-.3909238-.2220676-.4779919-.133642-.6637647.09032-.1915803-.03491-.2206015.653549-.474126.690448-.2612121 2.809833-.69025597 3.483929-.72512076.653505-.0289986.612921.68746626.501952.91197166-.119242.2128298-.753716.0759079-1.218193.2403863-.468629.1625525-1.014732.1455936-1.610714.3468248l2.153707 4.2689285c-.277443.2108978-.645307.2960329-1.142585.263191-.503512-.044505-1.183756-.4780299-1.810576-.4799257-.633012.00773-1.339952.4818137-1.9153434.4973992-.5795333-.00225-.7845364-.3757944-1.2674573-.4184673-.4828342-.042559-.6391552-.004116-1.0727941.1816867z" stroke-width=".044233"/><path d="m14.742862 2.6985881c.66852 0 1.271827.566613 1.271827 1.264762 0 .69811-.603357 1.26467-1.271827 1.26467-.66855 0-1.21114-.56656-1.21114-1.26467 0-.698149.54263-1.264762 1.21114-1.264762" stroke-width=".042961"/><path d="m4.0000001 6.6102835c-.5371208-.0982358-1.0854163-.2533031-1.6826667-.4738206-.6014019-.2319129-1.62464884-.5278408-1.87284142-.842807-.24814302-.3150725-.08815291-.9822392.39637454-1.0201182.48441678-.0447986 1.46839168.425865 2.47958948.7952768 1.0072226.369499 2.1628864.8411353 3.5204642 1.422699-.1632824.1042291-.3815648.1387684-.6625922.1036767-.2852635-.0465415-.6511045-.3291908-1.0161876-.3305082-.3670926.0009074-.7491263.1192668-1.1621404.3455964z" stroke-width=".047126"/><path d="m15.750552 8.5926551c-.13649.03755-.31276.03165-.54397-.01786-.235-.05143-.44919-.304892-.83962-.287058-.39992.0138-.96477.372081-1.51054.372081-.55351-.0118-1.17514-.387892-1.73994-.387892-.56292.0038-1.07466.393908-1.6148102.405718-.54963.0023-1.09738-.364134-1.63564-.372081-.54585-.01387-1.06327.324611-1.57312.320657-.50225-.0099-.94767-.37015-1.44614-.354294-.51174.01977-1.07277.415597-1.57313.439439-.50415.0079-.96094-.368211-1.40631-.372165-.44915-.0079-.95335004.275118-1.25660004.33849-.30326.06146-.49469.0594-.56669.01586v1.0490079c.072.04353.26343.0456.56669-.01586.30325-.06338.80740004-.346346 1.25660004-.338483.44541.0038.90216.380029 1.40631.372166.50036-.02383 1.06139-.419682 1.57313-.439447.49847-.01586.94384.344415 1.44614.354293.50985.0038 1.02727-.334528 1.57312-.320656.53826.008 1.08601.374104 1.63564.372081.5401502-.0118 1.0518902-.401848 1.6148102-.405718.5648 0 1.18643.376074 1.73994.387892.54577 0 1.11066-.358248 1.51054-.372081.39043-.01387.60462.235464.83962.288997.23121.04951.40748.0574.54397.01586z" stroke-width=".042961"/></g></g></svg>