<svg height="160" viewBox="0 0 160 160" width="160" xmlns="http://www.w3.org/2000/svg"><g transform="translate(0 -893.3622)"><g stroke="#000"><g fill="#3d5889" fill-rule="evenodd" stroke-width="1.732483" transform="matrix(.99174847 0 0 1.2211756 -65.765762 226.37604)"><path d="m67.613793 570.41735c24.468075-13.10042 45.356037-11.77452 66.041377-23.06206 11.09637 2.43104 19.357 1.4592 26.99311-.26207 23.42862 10.78637 44.02825 12.51579 66.04138 23.5862-1.82964 11.55946-5.85886 21.54778-12.57932 29.6138-8.15361-4.36994-15.86829-6.10632-23.32413-6.28966l-.52414 78.62069c-32.1215 5.98273-59.34716 3.39775-85.95862-.26207l-.26207-78.09655c-9.370679-.2722-16.500436 3.19047-23.848277 6.28966-7.067215-9.63539-10.36885-19.80873-12.57931-30.13794z"/><path d="m71.282759 569.10701c2.214678 10.74851 6.083496 20.78686 13.627586 29.35172"/><path d="m105.35172 668.16908c28.12874 4.60443 56.25747 5.59295 84.38621-.26207"/><path d="m133.3931 547.61736c-.22816 2.3247 1.69237 12.73282 13.88965 13.36551 11.93593.61914 14.27527-11.53603 13.88966-13.10345"/><path d="m128.21194 550.41871c-.22816 2.3247 4.57424 15.11165 18.34482 15.46206 14.03248.35707 19.77872-14.68086 19.39311-16.24828"/><path d="m134.52279 552.33459c8.53814 2.23324 16.08174 1.75419 25.31809-.20185"/><path d="m104.16182 558.28077c2.57594 9.88539 6.83803 21.48891-.26207 35.37931"/><path d="m190.37521 558.48262c-2.57594 9.88539-6.83803 21.48891.26207 35.37931"/><path d="m223.28276 568.84494c-2.21468 10.74851-6.0835 20.78686-13.62759 29.35172"/></g><g transform="matrix(.20343683938 .22033479426 -.17893961008 .25049913075 49.58573182887 763.18160060655)"><ellipse cx="497.14285" cy="642.36218" fill="none" rx="37.142857" ry="64.285713" stroke-width="10"/><path d="m500 578.07647-34.28571-465.71429-5.71429 488.57143z" fill-rule="evenodd" opacity=".99"/><ellipse cx="497.14285" cy="642.36218" fill="none" rx="37.142857" ry="64.285713" stroke-width="10"/><path d="m500 578.07647-34.28571-465.71429-5.71429 488.57143z" fill-rule="evenodd" opacity=".99"/></g><g transform="matrix(-.13011846329 -.29262078802 -.23764493932 .16021956961 234.72268597303 1047.89311127549)"><ellipse cx="497.14285" cy="642.36218" fill="none" rx="37.142857" ry="64.285713" stroke-width="10"/><path d="m500 578.07647-34.28571-465.71429-5.71429 488.57143z" fill-rule="evenodd" opacity=".99"/><ellipse cx="497.14285" cy="642.36218" fill="none" rx="37.142857" ry="64.285713" stroke-width="10"/><path d="m500 578.07647-34.28571-465.71429-5.71429 488.57143z" fill-rule="evenodd" opacity=".99"/></g></g><path d="m148.58591 1018.2425s-26.17714-20.85043-29.96848-26.03105c-3.79134-5.18057-22.155068.46605-28.342257 1.4303-6.187192.96424-15.038804 12.93625-17.191211 19.45175-2.152404 6.5156-1.525752 14.9386 1.858514 21.1683 3.384258 6.2294 11.283745 13.066 16.72658 11.7282 5.442832-1.3379 11.617534-5.9509 12.312614-11.1561.69511-5.2054-2.20761-14.3375-5.110886-17.1634-2.903288-2.826-7.297034-3.2862-9.757173-1.4304" fill="none" stroke="#efeb00" stroke-width="4.51129"/></g></svg>