<svg height="492.54675" width="492.54626" xmlns="http://www.w3.org/2000/svg"><g transform="translate(-112.37155 -285.65871)"><g fill="#4d4d4d" opacity=".5" transform="translate(68.644928 241.93196)"><path d="m271.20801 195.659h169.69901v56.567001h-169.69901z" transform="matrix(.7071 .7071 -.7071 .7071 262.6363 -186.1794)"/><path d="m105.154 361.71201h169.69901v56.567001h-169.69901z" transform="matrix(.7071 .7071 -.7071 .7071 331.4186 -20.126)"/><path d="m189.99899 234.015h169.69901v142.271h-169.69901z" transform="matrix(.7071 .7071 -.7071 .7071 296.2747 -104.9703)"/></g><path d="m558.82393 499.78696 40.836-40.835c7.011-7.01 7.01-18.376 0-25.386l-142.648-142.649c-7.012-7.011-18.377-7.011-25.388 0l-40.836 40.835 1.6 1.6-3.862 3.862-1.6-1.599-269.297 269.296c-7.01 7.011-7.01 18.375.001 25.387l44.008 44.008c15.086-15.086 39.547-15.086 54.633 0 15.086 15.087 15.086 39.547 0 54.633l44.008 44.009c7.009 7.01 18.375 7.01 25.386 0l269.297-269.296-1.6-1.599 3.864-3.863zm-41.159-41.159 6.593 6.593-3.862 3.863-6.594-6.593zm-13.187-13.187 6.593 6.593-3.862 3.863-6.594-6.593zm-13.188-13.187 6.594 6.594-3.862 3.863-6.594-6.593zm-13.186-13.188 6.593 6.594-3.862 3.863-6.594-6.594zm-13.188-13.186 6.594 6.594-3.862 3.863-6.594-6.594zm-13.186-13.188 6.593 6.594-3.862 3.863-6.594-6.593zm-13.188-13.187 6.594 6.594-3.862 3.862-6.594-6.593zm-13.186-13.187 6.594 6.594-3.863 3.863-6.594-6.594zm-23.644-15.917-6.594-6.593 3.863-3.863 6.593 6.594zm10.456 2.73 6.594 6.594-3.862 3.863-6.594-6.594zm-113.521 358.794-119.995-119.995 39.999-39.999 119.994 119.996zm54.543-54.544-119.995-119.995 100.602-100.601 119.996 119.995zm111.511-111.51-119.996-119.995 39.999-39.999 119.995 119.995zm68.881-63.6-6.594-6.593 3.863-3.863 6.593 6.593zm13.188 13.187-6.594-6.594 3.862-3.863 6.595 6.594z" fill="#ac39ac"/></g></svg>