<svg viewBox="0 0 16 16" xmlns="http://www.w3.org/2000/svg"><g fill="#ac39ac" transform="translate(-189.96206 -428.35103)"><path d="m205.51409 437.19895c-.01.00028-.0193.002-.0293.004-.15985.04-1.50565.0329-2.05342.0834-.52679.0485-1.49997.21273-2.35915.61235-.85919.39962-2.51623 1.29586-3.68512 2.05514-1.09532.71149-1.88821 1.12895-2.12799 1.1889-.23977.0599-.49949 0-.65934-.27974-.15984-.27973-.47959-1.37878-.47959-1.37878-.20364-.51375-.89912-.61936-1.51853-.63934-.5795-.0187-1.76968.20294-1.90822.78921-.0851.36019-.29296 1.58577-.29962 2.23787-.006.63434.24785 1.21176.57937 1.59854.59943.69934 1.20623.8607 1.82826.87916.54766.0163 1.49863-.10997 2.3778-.66944.79013-.50281 5.01523-3.73644 5.8944-4.33586.87916-.59943 1.73017-1.00575 2.19787-1.11894.71973-.17418 2.37774-.13987 2.37774-.13987s-.0588.0552.14106.0352c.19981-.02.21493-.20915.0987-.43479-.12869-.24978-.23093-.49079-.37491-.48702zm-13.0723 1.91366c.6247-.00001 1.13109.1888 1.13096.42168-.00003.23283-.50638.42157-1.13096.42156-.62454-.00001-1.13081-.18874-1.13084-.42156-.00011-.23287.50619-.42167 1.13084-.42168z" fill-rule="evenodd"/><path d="m189.96878 432.88483c.18005-1.42838 2.55049-3.14676 2.85356-3.26589.61391-.70441-1.05475 1.21586-1.43685 1.80096-.57435.81025-.88645 1.84982-.22851 2.83507.52198.74825 1.72588 2.0939.90214 1.8228-.82374-.27109-2.20502-1.84963-2.09034-3.19294z"/><path d="m192.49379 433.50891c.80034.44313 1.56528 1.22871 1.88396 2.27397.31867 1.04527-.38448 1.71955-1.00122 1.77039.93016-1.59519-.0746-2.19704-.94984-3.3013-.21028-.4541-.15423-.54501.0671-.74306z"/></g></svg>