<svg height="478.29468" width="439.00189" xmlns="http://www.w3.org/2000/svg"><rect height="255.02942" rx="9.352839" ry="20.971859" transform="matrix(.834898 -.550405 .864612 .502441 -119.99828 -330.27552)" width="265.99307" x="-390.42795" y="513.17072"/><rect height="219.91122" rx="13.064381" ry="23.303207" transform="matrix(.835911 -.548865 -.01115279 .999938 -119.99828 -330.27552)" width="264.3092" x="415.70972" y="822.96997"/><rect fill="#f41809" height="57.293526" rx="10.133426" ry="7.257944" transform="matrix(.827575 -.561355 0 1 -119.99828 -330.27552)" width="75.21022" x="419.25668" y="978.3692"/><rect fill="#f41809" height="57.293526" rx="11.229022" ry="8.793893" transform="matrix(.827575 -.561355 0 1 -119.99828 -330.27552)" width="75.210205" x="421.13376" y="908.84857"/><rect fill="#f41809" height="57.293526" rx="6.573601" ry="13.178907" transform="matrix(.827575 -.561355 0 1 -119.99828 -330.27552)" width="75.21019" x="421.13422" y="838.35925"/><rect fill="#f41809" height="57.293526" rx="10.163038" ry="11.398757" transform="matrix(.829696 -.558215 0 1 -119.99828 -330.27552)" width="75.633125" x="505.80771" y="835.5835"/><rect fill="#f41809" height="57.293526" rx="7.978212" ry="13.613882" transform="matrix(.829696 -.558215 0 1 -119.99828 -330.27552)" width="75.633224" x="505.80765" y="905.64008"/><rect fill="#f41809" height="57.293526" rx="11.255482" ry="14.721444" transform="matrix(.829696 -.558215 0 1 -119.99828 -330.27552)" width="75.633179" x="503.93579" y="974.91052"/><rect fill="#f41809" height="57.293526" rx="10.163044" ry="11.43206" transform="matrix(.829696 -.558215 0 1 -119.99828 -330.27552)" width="75.633118" x="589.6532" y="972.40277"/><rect fill="#f41809" height="57.293526" rx="9.070607" ry="11.660234" transform="matrix(.829696 -.558215 0 1 -119.99828 -330.27552)" width="75.63308" x="590.87598" y="907.00354"/><rect fill="#f41809" height="57.293526" rx="9.070599" ry="7.458157" transform="matrix(.829696 -.558215 0 1 -119.99828 -330.27552)" width="75.633041" x="590.87598" y="836.25555"/><rect height="213.04601" rx="7.997265" ry="20.767048" transform="matrix(.858337 .513087 -.01174769 .999931 -119.99828 -330.27552)" width="264.44156" x="147.73535" y="386.89716"/><rect fill="#00d" height="57.293526" rx="9.52109" ry="12.922897" transform="matrix(.845439 .534071 0 1 -119.99828 -330.27552)" width="73.621025" x="323.19785" y="530.08698"/><rect fill="#00d" height="57.293526" rx="9.52109" ry="6.767173" transform="matrix(.845439 .534071 0 1 -119.99828 -330.27552)" width="73.621025" x="324.43497" y="458.46951"/><rect fill="#00d" height="57.293526" rx="9.52109" ry="8.793893" transform="matrix(.845439 .534071 0 1 -119.99828 -330.27552)" width="73.621025" x="324.43497" y="390.69592"/><rect fill="#00d" height="57.293526" rx="9.52109" ry="11.16412" transform="matrix(.845439 .534071 0 1 -119.99828 -330.27552)" width="73.621025" x="240.31349" y="530.0022"/><rect fill="#00d" height="57.293526" rx="9.52109" ry="11.967944" transform="matrix(.845439 .534071 0 1 -119.99828 -330.27552)" width="73.621025" x="240.31349" y="460.63699"/><rect fill="#00d" height="57.293526" rx="9.52109" ry="9.597717" transform="matrix(.845439 .534071 0 1 -119.99828 -330.27552)" width="73.621025" x="240.91728" y="393.49118"/><rect fill="#00d" height="57.293526" rx="9.52109" ry="8.182445" transform="matrix(.845439 .534071 0 1 -119.99828 -330.27552)" width="73.621025" x="155.55878" y="530.29865"/><rect fill="#00d" height="57.293526" rx="9.52109" ry="7.838939" transform="matrix(.845439 .534071 0 1 -119.99828 -330.27552)" width="73.621025" x="156.79585" y="463.12341"/><rect fill="#00d" height="57.293526" rx="9.52109" ry="6.940273" transform="matrix(.845439 .534071 0 1 -119.99828 -330.27552)" width="73.621025" x="156.79585" y="394.70844"/><rect fill="#ffe200" height="70.533371" rx="5.393063" ry="11.47725" transform="matrix(.858218 .513286 -.834194 .551472 -119.99828 -330.27552)" width="71.099503" x="517.44788" y="295.32614"/><rect fill="#ffe200" height="70.533371" rx="5.393058" ry="11.47725" transform="matrix(.858218 .513286 -.834194 .551472 -119.99828 -330.27552)" width="71.099434" x="601.07758" y="296.96936"/><rect fill="#ffe200" height="70.533371" rx="5.393058" ry="11.47725" transform="matrix(.858218 .513286 -.834194 .551472 -119.99828 -330.27552)" width="71.099434" x="685.29041" y="296.95157"/><rect fill="#ffe200" height="70.533371" rx="5.393058" ry="11.47725" transform="matrix(.858218 .513286 -.834194 .551472 -119.99828 -330.27552)" width="71.099434" x="518.03107" y="210.43871"/><rect fill="#ffe200" height="70.533371" rx="5.393058" ry="11.47725" transform="matrix(.858218 .513286 -.834194 .551472 -119.99828 -330.27552)" width="71.099434" x="601.07758" y="210.40494"/><rect fill="#ffe200" height="70.533371" rx="5.393058" ry="11.47725" transform="matrix(.858218 .513286 -.834194 .551472 -119.99828 -330.27552)" width="71.099434" x="687.09668" y="210.41183"/><rect fill="#ffe200" height="70.533371" rx="5.393058" ry="11.47725" transform="matrix(.858218 .513286 -.834194 .551472 -119.99828 -330.27552)" width="71.099434" x="518.03107" y="127.44115"/><rect fill="#ffe200" height="70.533371" rx="5.393058" ry="11.47725" transform="matrix(.858218 .513286 -.834194 .551472 -119.99828 -330.27552)" width="71.099434" x="602.27228" y="126.19641"/><rect fill="#ffe200" height="70.533371" rx="5.393058" ry="11.47725" transform="matrix(.858218 .513286 -.834194 .551472 -119.99828 -330.27552)" width="71.099434" x="687.09668" y="127.35677"/><g fill="#fff"><rect height="9.721617" opacity=".418079" rx="6.93455" ry="6.666136" transform="matrix(.86241 .50621 -.971166 .238406 -119.99828 -330.27552)" width="66.726181" x="661.7085" y="367.68378"/><rect height="9.721624" opacity=".418079" rx="6.934547" ry="6.666142" transform="matrix(.86241 .50621 -.971166 .238406 -119.99828 -330.27552)" width="66.726151" x="704.979" y="476.18167"/><rect height="9.721624" opacity=".418079" rx="6.934547" ry="6.666142" transform="matrix(.86241 .50621 -.971166 .238406 -119.99828 -330.27552)" width="66.726151" x="806.00317" y="572.07086"/><rect height="9.721628" opacity=".418079" rx="6.934546" ry="6.666144" transform="matrix(.86241 .50621 -.971166 .238406 -119.99828 -330.27552)" width="66.726135" x="792.71735" y="482.18478"/><rect height="9.721624" opacity=".418079" rx="6.934547" ry="6.666142" transform="matrix(.86241 .50621 -.971166 .238406 -119.99828 -330.27552)" width="66.726151" x="877.44794" y="483.28918"/><rect height="9.721624" opacity=".418079" rx="6.934547" ry="6.666142" transform="matrix(.86241 .50621 -.971166 .238406 -119.99828 -330.27552)" width="66.726151" x="898.237" y="576.9176"/><rect height="9.721624" opacity=".418079" rx="6.934547" ry="6.666142" transform="matrix(.86241 .50621 -.971166 .238406 -119.99828 -330.27552)" width="66.726151" x="975.47064" y="576.513"/><rect height="9.721624" opacity=".418079" rx="6.934547" ry="6.666142" transform="matrix(.86241 .50621 -.971166 .238406 -119.99828 -330.27552)" width="66.726151" x="903.29169" y="658.4646"/><rect height="9.721624" opacity=".418079" rx="6.934547" ry="6.666142" transform="matrix(.86241 .50621 -.971166 .238406 -119.99828 -330.27552)" width="66.726151" x="992.48706" y="662.67249"/><rect height="9.721624" opacity=".418079" rx="6.934547" ry="6.666142" transform="matrix(.86241 .50621 -.971166 .238406 -119.99828 -330.27552)" width="66.726151" x="1076.4445" y="664.12"/><rect height="9.721624" opacity=".418079" rx="6.934547" ry="6.666142" transform="matrix(.86241 .50621 -.971166 .238406 -119.99828 -330.27552)" width="66.726151" x="748.61578" y="370.9436"/><rect height="9.721624" opacity=".418079" rx="6.934547" ry="6.666142" transform="matrix(.86241 .50621 -.971166 .238406 -119.99828 -330.27552)" width="66.726151" x="624.30426" y="261.58273"/><rect height="9.721624" opacity=".418079" rx="6.934547" ry="6.666142" transform="matrix(.86241 .50621 -.971166 .238406 -119.99828 -330.27552)" width="66.726151" x="709.68542" y="260.00729"/><rect height="9.721624" opacity=".418079" rx="6.934547" ry="6.666142" transform="matrix(.86241 .50621 -.971166 .238406 -119.99828 -330.27552)" width="66.726151" x="794.41608" y="261.11169"/><rect height="9.721624" opacity=".418079" rx="6.934547" ry="6.666142" transform="matrix(.86241 .50621 -.971166 .238406 -119.99828 -330.27552)" width="66.726151" x="835.73175" y="369.87903"/><path d="m259.60921 501.82904a9.5964489 9.0913725 0 1 1 -19.1929 0 9.5964489 9.0913725 0 1 1 19.1929 0z" opacity=".3" transform="matrix(.392835 .139358 -.257425 .725654 398.53402 -152.64142)"/><path d="m259.60921 501.82904a9.5964489 9.0913725 0 1 1 -19.1929 0 9.5964489 9.0913725 0 1 1 19.1929 0z" opacity=".3" transform="matrix(.392835 .139358 -.257425 .725654 328.53402 -104.17632)"/><path d="m259.60921 501.82904a9.5964489 9.0913725 0 1 1 -19.1929 0 9.5964489 9.0913725 0 1 1 19.1929 0z" opacity=".3" transform="matrix(.392835 .139358 -.257425 .725654 327.53402 -32.64142)"/><path d="m259.60921 501.82904a9.5964489 9.0913725 0 1 1 -19.1929 0 9.5964489 9.0913725 0 1 1 19.1929 0z" opacity=".3" transform="matrix(.392835 .139358 -.257425 .725654 400.40852 -83.64142)"/><path d="m259.60921 501.82904a9.5964489 9.0913725 0 1 1 -19.1929 0 9.5964489 9.0913725 0 1 1 19.1929 0z" opacity=".3" transform="matrix(.392835 .139358 -.257425 .725654 259.53402 -57.64142)"/><path d="m259.60921 501.82904a9.5964489 9.0913725 0 1 1 -19.1929 0 9.5964489 9.0913725 0 1 1 19.1929 0z" opacity=".3" transform="matrix(.392835 .139358 -.257425 .725654 256.40852 14.35858)"/><rect height="9.72164" opacity=".248588" rx="6.934543" ry="6.666152" transform="matrix(.842776 -.538264 -.228865 .973458 -119.99828 -330.27552)" width="66.726105" x="674.46985" y="975.60944"/><rect height="9.721636" opacity=".248588" rx="6.93454" ry="6.66615" transform="matrix(.842776 -.538264 -.228865 .973458 -119.99828 -330.27552)" width="66.726074" x="762.71179" y="978.85162"/><rect height="9.721636" opacity=".248588" rx="6.93454" ry="6.66615" transform="matrix(.842776 -.538264 -.228865 .973458 -119.99828 -330.27552)" width="66.726074" x="845.4859" y="975.84167"/><rect height="9.721634" opacity=".248588" rx="6.934538" ry="6.666149" transform="matrix(.842776 -.538264 -.228865 .973458 -119.99828 -330.27552)" width="66.726059" x="532.28467" y="759.51495"/><rect height="9.721636" opacity=".248588" rx="6.93454" ry="6.66615" transform="matrix(.842776 -.538264 -.228865 .973458 -119.99828 -330.27552)" width="66.726074" x="448.58212" y="761.51392"/><rect height="9.721636" opacity=".248588" rx="6.93454" ry="6.66615" transform="matrix(.842776 -.538264 -.228865 .973458 -119.99828 -330.27552)" width="66.726074" x="611.38715" y="758.0542"/><rect height="9.721636" opacity=".248588" rx="6.93454" ry="6.66615" transform="matrix(.842776 -.538264 -.228865 .973458 -119.99828 -330.27552)" width="66.726074" x="565.07758" y="869.57178"/><rect height="9.721636" opacity=".248588" rx="6.93454" ry="6.66615" transform="matrix(.842776 -.538264 -.228865 .973458 -119.99828 -330.27552)" width="66.726074" x="644.18005" y="868.11102"/><rect height="9.721636" opacity=".248588" rx="6.93454" ry="6.66615" transform="matrix(.842776 -.538264 -.228865 .973458 -119.99828 -330.27552)" width="66.726074" x="729.39166" y="864.89191"/></g></svg>