<svg enable-background="new 0 0 2391.878 1675.53" height="11" viewBox="0 0 16 11" width="16" xmlns="http://www.w3.org/2000/svg"><g stroke-width=".006612"><path d="m10.64069.19578738c.410269-.0271602.825098-.0281302 1.233275-.0194001.429367.0097.860252.0194001 1.289808.0194001.06746 0 .10404 0 .151832.0455903.05511.0562604.110881.11300574.166273.16946011.04846.0494703.113922.0991347.149361.15985705-.03896.0097-.07791.0116401-.117626.0106701-.191928-.0097-.38395-.0097-.575877-.0116401-.556113-.0242502-1.114793-.0194001-1.671002-.0097-.205324.0097-.410553.0135801-.615497.0281302-.100904.0097-.202284.0135801-.302903.0242502-.09406.0106701-.198198.0106701-.289886.0339502-.1417601.0271602-.2864659.0436503-.4219551.0960306-.029454.0135801-.061758.0271602-.077911.0562604-.5760666 1.66617976-1.5006428 4.50732836-1.5006428 4.50732836l-.3007176-.0552903c.592504-1.9698889.6195828-2.0398264 1.4336583-4.55864188.0370555-.07178047.0617592-.15432801.1251327-.20767836.1445155-.11882577.3545903-.15258199.5318854-.18759922.2618581-.05141034.5265641-.08536056.7926971-.10233567z" fill="#414141" stroke="#2f2f2f"/><path d="m5.7479715.36243447c.556399-.0097 1.6634008 0 1.6634008 0l-.000285.27150477-.0095.0097h-.9718941s0 3.01264566.000285 4.51896856c-.000285.05335 0 .1056337 0 .158596-.026604 0-.053207.0097-.079811.0097-.0095.160051 0 .3203931 0 .4806381 0 .1121328-.0095.2248475.0095.3366892.025654.0097.051307.01164.077911.01649 0 .4332049 0 .8667007.0008551 1.2998085-.078861-.000388-.1585774 0-.2377237 0 .010452.152679.037056.303903.040856.457261 0 .1583051.037056.3136031.039905.4721021.020903-.01746.041806-.03395.062709-.05238.020903-.0194.041805-.03977.058908-.06305-.0095-.02619-.020903-.0485-.033255-.07081.055107-.06014.1282681-.097583.1937324-.1444339.013302.02231.026604.04559.040856.0679.079811-.01843.1412851-.078571.2218565-.095061-.0095-.02522-.017103-.04947-.024704-.074691.06936-.04268.1484109-.06596.2292675-.06984.0095.02231.016153.04462.024704.067901.076961 0 .1528767-.0097.2282224-.0194 0-.02522.0095-.05044.011402-.07566.076961-.0097.154777-.0097.232023.00097v.092151c.076961.01164.1510713.03298.2277473.04462.012352-.02522.024704-.04947.037056-.07372.07411.02425.1470808.05238.2150155.091181-.010452.02619-.019953.05335-.029455.08051.067459.03298.1311185.073721.1957277.1119387.019953-.01746.039906-.03492.059858-.05238.067459.04268.1331139.091181.1809057.156753-.013302.02037-.027554.04074-.040856.06111.043706.0582.086462.1170798.1381496.1689751.022803-.0097.045606-.0194.06936-.0291.050357.06111.083612.1344429.1160114.2067084-.023754.01164-.046556.02425-.07031.03589.023754.070811.050357.1417179.080762.2101034.028504-.000776.056058 0 .084562 0 .016153.074691.025654.149963.030405.2261085-.023754.0097-.047506.0194-.07031.0291 0 .04171.0095.08439.012352.1263918.024704 0 .050357.0097.075061.01164 0 .07566 0 .151806-.018053.2263024-.029454 0-.057958.0097-.086462.0097-.010452.073721-.032305.144725-.057958.2142744.025654.01358.051307.02716.076961.04074-.017103.05432-.039905.107962-.067459.1582085-.011402.0194-.024704.03686-.037055.05529-.022804-.0097-.045606-.01843-.06841-.02716-.036106.05529-.07221.109999-.112781.162088-.030405.03395.021853.06014.041805.08342-.056058.06014-.1001442.137741-.1743497.178093-.020903-.01746-.036106-.04074-.054157-.06208-.049407.05238-.1081253.09506-.1706441.130369-.014252.03201.025654.06014.013302.09215-.049407.03492-.105655.0582-.1569623.09021-.018053.01358-.039905.0097-.059858.01067-.0095-.02134-.011402-.04171-.017103-.06208-.076961.0097-.1438504.05529-.2194811.07081 0 .02522.0095.05335 0 .07663-.074111.02328-.1537318.02231-.2307879.02425-.0095-.02134-.016153-.04171-.024704-.06305-.075061.0097-.1492662-.00097-.2233767-.0097 0 .02231-.0095.04559-.010452.06887-.080761.0097-.161618-.01164-.2406692-.02813 0-.03104 0-.06111.0095-.09118-.07126-.02231-.1432803-.04365-.2115-.07469-.013302.02425-.027554.0485-.041806.07275-.065559-.03201-.1305485-.06499-.1921173-.103887-.023754-.03007.0095-.06014.022804-.08536-.044656-.03492-.095678-.06208-.1365343-.102529-.014252-.01261-.027554-.03007-.047506-.03201-.023754.0097-.041806.03104-.066509.03686-.0627086-.047532-.1024238-.118148-.1533511-.177028.020903-.01843.042756-.03686.064609-.05432-.033255-.05238-.079811-.09603-.1022346-.154037-.0095-.01455-.010452-.03395-.028504-.03686-.024704.0097-.046557.01843-.06936.0291-.038956-.073721-.082662-.149575-.092163-.2340628.025654-.0097.052257-.0194.077911-.03007-.034205-.06693-.037056-.1441429-.047506-.2174754-.031355.000388-.061758.000582-.093113-.000388-.0095-.083421-.0095-.1660651 0-.2490007.023754 0 .048456.0005821.07221.0009701.0095-.078571.013302-.1572381.026604-.2351296-.022804-.00097-.046556 0-.06936 0 0-.08148.039906-.154619.054157-.2336745.030405-.00097.059858.0097.088363.01746.026604-.070811.07126-.1341519.093113-.2069994-.090263 0-.1812858 0-.2718337.000291-.07316-.0097-.1317836.04559-.1976279.067901-.048456.02522-.105655.03783-.1443254.0776-.0095.1741161 0 .3492023 0 .5237064 0 .04462.011402.09962-.025654.1339579-.033255.03977-.077911.07566-.1324488.06499-.053207 0-.092163-.03783-.1141112-.08148-.024704-.03589-.015202-.08148-.017103-.1221238 0-.7169317.0008551-1.4338634.0005701-2.1507951.000095-.03686.0095-.07178.020903-.1057307.015202-.04656.062709-.07469.1097405-.06984.076961-.01261.1674138.05044.1579124.1352189v1.1338404c0 .03201.038956.01358.057008.01455.07126-.01067.1446105-.01067.2164407-.02134.010452-.05238.0095-.1067007.0095-.159857-.0095-2.5353056 0-7.71222948 0-7.71222948m1.4585534 8.30189558c-.1261778.02716-.254541.07275-.3467991.1685871-.098054.07275-.1667486.1798392-.1999083.297889-.049407.1204748-.063659.2584097-.021853.3835405.029455.08148.053207.1680051.1069852.2382336.095774.1414272.2489353.2312498.4081779.279362.098244.02328.2006684.01649.3006227.0097.07221 0 .1333989-.04365.1966778-.07469.095869-.0485.1863214-.1146551.2447547-.2076787.064609-.0776.086462-.1777052.1256079-.2683037.0190029-.1192141.0218529-.247643-.0285035-.3597757-.0313546-.0776005-.0655592-.155783-.1188618-.2206764-.0389555-.0485004-.0912129-.0834206-.1383396-.1229968-.0513074-.0455903-.1163916-.0688705-.1787204-.0931207-.1103107-.0465603-.2330681-.0378302-.3495546-.0310402z" fill="#212121" stroke="#2f2f2f"/><path d="m6.5799095.75955506c.2237567 0 .4476085 0 .6715552-.000776-.0002851.51255134-.0004751 1.53765404-.0004751 1.53765404l-.670795-.000388s.0005701-1.0243267-.0002851-1.53649004z" fill="#090909" stroke="#090909"/><path d="m8.2324788 2.1083489c.023754-.082451.083612-.1750862.1784353-.1750862.087413 0 .3493645.081481.3493645.081481l-.0370555.1083493s-.2532109-.084391-.3239009-.07081c-.075061.06693-.085512.1782872-.095964.2729598.038956.0097.067459 0 .087413.04074.027554.05141.0095.094091 0 .1452099-.019003.1281379-.047506.2545297-.084562.3788845-.0095.02037-.027554.04753-.048457.05335-.013302 0-.026604 0-.039905.000873-.054157-.0097-.1051799-.02134-.1583875-.03104-.038956-.0097-.080762 0-.1088854-.03783-.035155-.04268-.019003-.1094167-.0095-.158596.022804-.078571.022804-.1627671.048457-.2409496.017103-.05529.026604-.1150428.054157-.1667441.038006-.03201.090263-.01067.134064-.0097.020903-.06208.037056-.1256158.047506-.1907032z" fill="#090909" stroke="#090909"/><path d="m6.618485 2.2964331c.095203.000485.1905019.000388.2858955 0 .0095 1.0076426 0 2.0155762 0 3.0233158-.096914 0-.1937324 0-.2904562 0 0-1.0796171.010452-2.0346853.0007601-3.0249648z" fill="#415c77" stroke="#415c77"/><path d="m12.531554 3.2529564c.05511-.1034027.190311-.142591.295586-.1018507.05986.02619.108126.07954.131023.1412329 0 .608873-.000475 1.218037 0 1.827007v.2841149s-.07506-.093121-.117721-.1281379c-.09558-.06693-.223091-.087301-.333687-.04947 0-.6018889.000855-1.2037779 0-1.8055698 0-.05626-.0095-.1178558.02185-.1676171z" fill="#090909" stroke="#090909"/><path d="m12.97004 5.4143245c.019.0291.0247.1992393-.0114.2877039-.0209.03977-.05701.073721-.08646.1076707-.06271.077601-.167794.085361-.24751.1365769h-.0095c.01425-.01261.0285-.02619.04276-.0388-.08741 0-.180146-.01261-.250645-.070811-.08646-.06596-.13549-.1738251-.13682-.2831449 0-.1474409.09558-.2914869.237439-.3314511.110595-.0388.238104-.01843.333687.04947.08551.0679.08076.05723.128743.1390019z" fill="#403447" stroke="#403447"/><path d="m8.579468 3.5350342c.034205-.0097.07126-.0097.1067001-.0097.1672237.07954.3425237.1408449.5133579.2119464.1347291.07178.2838052.1105807.4198645.1793541.039905.01843.085512.03104.1135411.0679.013302.03783.012352.082451-.0008551.1209598-.031355.0388-.083612.06693-.1333039.05044-.0617593-.0213393-.1214272-.0465595-.1787203-.0766297-.0779111-.0339502-.1589576-.0582004-.2342083-.0979707-.0617592-.0291001-.1284582-.0446202-.1899319-.0737204-.1325439-.0727505-.2855155-.0997167-.4126435-.1815852-.024704-.02134-.055107-.04365-.057958-.078571 0-.04462.019953-.089241.054157-.1154308z" fill="#090909" stroke="#090909"/><path d="m8.9959121 3.9108147.1553471.0630504-.7293235 1.3845871-.1770102-.0223102z" fill="#7e7e7e" stroke="#7e7e7e"/><path d="m4.6330835 4.5513099.5464224.3738404c.012352 1.4670376 0 3.0156528 0 4.3741466-.1214272.068871-.2354434.150933-.3402432.2434716-.057958.05044-.2100748.05723-.2100748.05723z" fill="#7d8d9f" stroke="#7d8d9f"/><path d="m8.8680239 4.8569589c.0171027-.0708105.078861-.1383229.1547771-.1353159.078861-.0097.1447055.05626.1752048.1245488.026604.076631-.027554.155007-.091213.1922553-.050357.03201-.1123059.01358-.1662735 0-.099194.1174677-.204089.2294065-.302428.3475532-.023754.000388-.047506 0-.07031 0 .0004751-.0097 0-.01746 0-.02134.1003341-.1302719.330932-.3769445.330932-.3769445s-.043707-.088271-.032305-.1370619z" fill="#090909" stroke="#090909"/><path d="m7.6956527 5.3730993c.038956-.07275.061759-.1211538.061759-.1211538s.5474677.1078647.8125552.1189227c-.0005701.0097 0 .01649 0 .02134.023754-.00097.046557 0 .07031 0 .029455 0 .058908.0097.088363.01261-.0095 0-.028504 0-.037055.0097.0095.0388.023754.081481 0 .1193108-.0684104.1364802-.1394801.2758701-.2490306.3834438-.0722101.0708105-.1948726.0873006-.2337331.1911883-.1215222.3818915-.2468451.7492329-.3552555 1.1147313-.023754.08439-.063659.162767-.082662.2483216-.3841396.000097-.768184 0-1.1523234-.00097 0-.3852865.00019-.7707671 0-1.1560536.0004751-.05238-.0006651-.1060217-.0095-.158499.098339 0 .1970579-.0097.2949218.0097v1.0391678c.039905-.04365.047506-.1047606.075061-.155298.260812-.5508666.4551145-1.1315124.7132662-1.6644339z" fill="#415c77" stroke="#415c77"/><path d="m6.3471265 5.329158.5610545-.0097.000285.8339145-.5586791-.0097z" fill="#403447" stroke="#403447"/><path d="m8.6892086 5.4073405c.0095 0 .028504 0 .037055-.0097.1040397.0097.2051342.03783.309554.04268.067459 0 .120382.079541.093113.1423969-.026604.072751-.060808.143658-.1084104.2048654-.058908.078571-.1049898.1710121-.189932.2239744-.056058.03977-.119622.067901-.1727344.1111628-.07126.1838162-.1084104.3796604-.1844213.5617306-.045606.146762-.085512.295076-.1351091.4405769-.106225.03395-.1676987.1372559-.2031388.2375546-.012352.03104-.010452.06887-.029454.096031-.1112607.0097-.2232816-.000291-.3347324 0 .019003-.085361.058908-.1642221.082662-.2483216.0285043-.0950608.0560589-.1897335.0874126-.2838241.0427564-.151321.1027096-.2965309.1439454-.4483369.0342046-.1300779.0883629-.2530747.1241826-.3825705.0389555-.1036937.161808-.1201838.2337331-.1912853.1095505-.1074767.1809057-.2468666.2491253-.3833465.021853-.03783.0095-.08051 0-.1193108z" fill="#2f2f2f" stroke="#2f2f2f"/><path d="m10.458644 5.6813673c.03135-.084391.125134-.1283319.209791-.1253248.533975 0 1.067761-.0009701 1.601736 0 0 .1093197.05036.2170874.13682.2831448.07031.0582.163233.06693.250645.070811-.01425.01261-.0285.02619-.04276.0388-.04276.0194-.09026.02813-.136344.0291-.52609-.000873-1.05218-.000097-1.57827-.000388-.118672 0-.240954.01358-.35478-.0291-.09511-.04656-.133304-.1737281-.08646-.2681097z" fill="#090909" stroke="#090909"/><path d="m13.049757 5.9781892c.04846 0 .101949 0 .142045.03298.04181.03395.07696.07469.114206.1139758.152782.4378608.107746 1.3457868.107746 1.3457868s-1.957753.01746-2.907317-.0097c-.06651-.05917-.139671-.1354129-.132355-.2323165 0-.304097.000855-.608194.00038-.912194 0-.05141-.0095-.1051487.0095-.155007.03991-.085361.111831-.156947.201809-.1858532.615022-.000388 1.750528-.0097 2.464079 0z" fill="#7d8d9f" stroke="#7d8d9f"/><path d="m7.0752147 7.7263347c.1650384-.03492.3354925-.03007.5029064-.02037.1254177.0097.2434245.05044.3624764.086331.1166765.0388.2307877.089241.3324521.159566.2150155.1339579.402572.3179681.52932.5405846.1359644.2064173.1952528.4532839.2264172.6966585.017103.1597601 0 .3216541-.025654.4792802 0 .02134-.012352.04753.010452.06208.065559.01261.1334938 0 .2002883.0097 1.0339369.000097 2.0677779-.000291 3.1017139.000097.02185 0 .05131 0 .06461-.02231.000095-.04753-.01235-.093121-.0171-.1391959-.02185-.1818762 0-.3653044.03896-.5432036.02755-.1005896.06651-.1977843.1029-.2951729.04086-.1110657.112495-.2062234.174825-.305552.08076-.1181468.180999-.2218405.29093-.3123421.07506-.079541.1734-.1282348.262903-.1884722.144515-.091181.309364-.1391959.472027-.1846892.126367-.04074.260242-.04462.39174-.04559.118292.000097.238199 0 .354021.0291.142424.03686.285419.076631.418819.1403599.102234.04171.189741.1106777.28333.1682961.02755.0194.06366.0388.06176.07857.0095.1191168 0 .2387186.000855.3580294-.05321-.04171-.09406-.095061-.143755-.1395839.0114-.02716.02375-.05335.03516-.080511-.04656-.04268-.09311-.086331-.148221-.1177587-.03231-.02328-.06271.01843-.09026.03298-.06271-.02813-.124847-.05723-.181001-.096031.00038-.02813.0095-.05626 0-.083421-.06556-.0291-.135204-.04947-.204469-.06693-.0152.02134-.0304.04365-.04466.06596-.06556-.0097-.13207-.0097-.197059-.02037-.03896-.0097-.0152-.06014-.01995-.088271-.07696-.0097-.154302-.0097-.230787.000194v.089241c-.07791.0097-.154777.01455-.231833.02328-.0114-.02328-.0228-.04559-.03325-.0679-.06841.02134-.13815.03977-.204564.06693-.01045.02813.000665.06014-.01045.088271-.05226.04171-.116487.06499-.17549.096031-.01995-.01552-.03991-.03201-.05986-.04753-.06651.03783-.126843.085361-.18024.1399719.0152.02328.0304.04559.04561.06887-.05606.04753-.103945.1034997-.149076.161506-.0228-.01358-.04656-.02716-.06936-.03977-.05131.05238-.09625.1136847-.123993.1824582.0095.02619.03516.04171.05321.06111-.0228.06499-.05036.1280408-.07791.1909942-.0285-.00097-.05606 0-.08361 0-.03611.0679-.04751.14521-.05511.2210645.02185.0097.04371.01843.06556.02716 0 .072751-.01235.145113-.0133.2180575-.02565 0-.05131.0097-.07696.0097 0 .07469 0 .148605.01045.2228105.03135.0097.06271.0097.09406.01358.0095.06887.0247.1371589.04941.2027313-.0228.01649-.04561.03201-.06841.0485.01615.05529.03801.109999.06366.161894-1.128095 0-2.256095.000485-3.3841895.00097-.2319278 0-.4639508 0-.6954036 0 .027554-.05044.050357-.1033053.067459-.1581107-.025654-.01358-.051307-.02716-.076961-.04074.025654-.06984.046556-.1407479.057958-.2143714.028504 0 .057958-.0097.086462-.0097.014252-.074691.019953-.150545.018053-.2263025-.025654 0-.050357-.0097-.07506-.01164-.0095-.04171-.0095-.084391-.012352-.1263919.022803-.0097.046556-.0194.07031-.0291-.0095-.076631-.015202-.151709-.030405-.2261084-.028504.000582-.057008 0-.084562 0-.031355-.068871-.057008-.1389049-.080761-.2101034.022803-.01164.046556-.02425.07031-.03589-.032305-.071781-.065559-.145404-.1160114-.2066114-.023754.0097-.046556.0194-.06936.0291-.051307-.05141-.094064-.1110657-.1382446-.1689751.013302-.02037.026604-.04074.040856-.06111-.047506-.06596-.1137311-.1137818-.1809055-.156753-.019953.01746-.039906.03492-.059858.05238-.064609-.0388-.1279831-.079541-.1957277-.1119387.0095-.02716.019953-.05335.029455-.080511-.06841-.0388-.141-.06693-.2150154-.091181-.012352.02425-.024704.04947-.037056.07372-.076961-.01067-.1511664-.03298-.2277473-.04462 0-.03104 0-.06208 0-.092151-.076961-.0097-.154872-.0097-.2320229 0 0 .02522-.0095.05044-.011402.07566-.075061.01455-.1516416.02231-.2282224.0194-.0095-.02328-.016152-.04559-.024704-.0679-.080761 0-.1600027.02619-.2292675.06984.0095.02425.016153.04947.024704.07469-.080761.01649-.1424252.076631-.2218565.095061-.013302-.02231-.027554-.04559-.040856-.0679-.065559.04656-.1385296.084391-.1937324.144434.012352.02231.027554.04462.033255.07081-.016153.02328-.038005.04365-.058908.06305-.0123518-.0572268-.0247037-.1139722-.0304046-.1721726-.0114018-.0640204.0503574-.1043727.0931129-.1380319.0902629-.0562603.1723544-.1270708.2712634-.1677141.1312136-.0582004.268223-.1029176.4072277-.1379349z" fill="#b00a23" stroke="#c00e28"/><path d="m13.98849 7.8792077c.07696-.0097.154017-.0097.230883-.000097.0095.02813-.01995.079541.01995.088271.06461.01164.131403.01261.197057.02037.0152-.02231.02946-.04365.04466-.06596.06936.01843.138624.0388.204469.06693.0095.02716 0 .05529 0 .08342.05606.03977.118387.06887.181.096031.02755-.01358.05796-.05626.09026-.03298.05511.03104.10176.074691.148221.1176618-.01235.02716-.02375.05335-.03515.08051.05036.04462.09121.098262.143756.1395839l.0095.0097c.02661-.01067.06176-.04753.08646-.01164.03706.05723.09121.1094167.10442.1788692-.01995.01455-.06746.02425-.05226.0582.0285.05917.04751.1229968.07981.1799362.0266-.00097.05416-.0097.08076 0 .04086.06305.04181.1459859.05036.2197064-.01995.0097-.04086.01067-.05986.01552-.00057.07857.0095.156074.0152.2340625.0228-.000485.04561-.000776.06841-.000194.00095.079541 0 .1591781-.0095.2382336-.0266-.000679-.05416 0-.08076 0-.02375.07081-.04371.1432699-.06461.2154384.0247.01164.05416.01843.07411.0388-.0095.07857-.06651.1387111-.08836.2132073-.02755-.0097-.05606-.01649-.08361-.02522-.03421.06596-.08456.121154-.121617.185077.01995.01552.03991.03395.05701.05335-.04181.05432-.08266.112423-.135204.157238-.03325.02328-.06081-.01746-.08646-.03298-.05131.04656-.108125.08633-.166083.124355-.01425.0291.0209.05723.0285.08536-.07411.03395-.14081.08439-.218911.107089-.0095-.02134-.0133-.04171-.019-.06208-.07506.0097-.144705.04074-.216915.06014-.00019.03007.000665.05917 0 .08924-.07791.01358-.155727.03201-.234589.02813 0-.02231-.0095-.04365-.01045-.06499-.01615-.02231-.03991-.0097-.05986 0-.05131.0097-.105941.0097-.154967-.01164-.01235.02328-.0171.04753-.0171.07372-.08171.01746-.163708-.01358-.24542-.01843.000665-.03104 0-.06208 0-.09312-.07221-.01649-.139765-.04947-.213116-.06111-.01425.01843-.01615.05626-.03991.06111-.06936-.0291-.134063-.06984-.202379-.102142.0114-.02813.0247-.05432.03706-.08245-.06081-.03977-.121523-.07954-.174445-.129302-.0228.01746-.04561.03395-.06841.05044-.04371-.03686-.08076-.08051-.116486-.124743-.01615-.0194-.04086-.04171-.02661-.06887.01425-.01261.02946-.02425.04466-.03589-.03991-.06111-.08266-.120086-.123327-.180033-.02185.0097-.04371.01164-.06556.01649-.01995-.0097-.03325-.02328-.04181-.04074-.0266-.05141-.04751-.1062156-.06366-.1618943.0228-.01649.04561-.03201.06841-.0485-.02375-.06596-.03896-.1337639-.04941-.2027313-.03136-.0097-.06271-.0097-.09407-.01358-.0095-.073721-.0133-.148508-.01045-.2229075.02565 0 .05036-.0097.07696-.0097 0-.07275.0095-.145307.0133-.2179605-.02185-.0097-.04466-.01746-.06556-.02716.0095-.075661.019-.15297.05511-.2210645.02755.00097.05511 0 .08361 0 .02755-.06305.05511-.1260038.07791-.1909942-.01805-.0194-.04466-.03492-.05321-.06111.02755-.068871.07221-.1301749.123993-.1824582.0228.01358.04561.02619.06936.03977.04561-.0582.09311-.1140727.149076-.161603-.0152-.02328-.0304-.04656-.04561-.06887.05321-.05529.113732-.1025297.180241-.1399719.01995.01552.03991.03201.05986.04753.05891-.03104.122947-.05432.175491-.096031.0114-.02813-.000286-.06014.01045-.088271.06651-.02716.135869-.04559.204564-.06693.0114.02231.02185.04559.03325.0679.07696-.0097.154302-.01843.231927-.02328 0-.03007 0-.05917 0-.089241m.06081.7594179c-.114966.02328-.228602.06402-.320195.139972-.07221.06984-.149742.1394869-.191072.2335775-.09026.1876962-.09311.4156477-.0095.6051869.0247.07372.08456.1239669.131118.1824582.03231.04074.07506.07275.120572.098941.05416.03007.10651.06693.168839.076631.08741.01455.174919.0485.264897.03298.130169-.0194.263853-.053351.370078-.1365769.10708-.073721.177391-.1888605.231548-.3055523.07031-.1813912.06271-.3969266-.03991-.5643497-.02946-.07178-.07981-.1323088-.13606-.1837192-.155822-.1506412-.383284-.2137886-.593929-.1796444z" fill="#212121" stroke="#2f2f2f"/><path d="m14.048919 8.6386256c.210644-.03395.438107.0291.593929.1795482.05701.05141.106604.1119387.136059.1838162.10195.1673261.110026.3828615.03991.5642527-.05416.1167888-.124467.2318315-.231548.3056493-.106225.08245-.239909.1168858-.370077.13648-.09026.01552-.177485-.01843-.264897-.03298-.06271-.0097-.115062-.04656-.168839-.076631-.04561-.02522-.08836-.0582-.120667-.098941-.04656-.0582-.106035-.1090287-.131024-.1823612-.08646-.1895392-.08456-.4175877.0095-.6051869.04086-.094091.118768-.1640281.191073-.2335776.09121-.076631.205228-.1169827.320195-.1400689z" fill="#b4b3c1" stroke="#b4b3c1"/><path d="m7.2065233 8.6644278c.1164865-.0097.2392439-.01552.3495546.03104.062709.02425.1276982.04753.1787203.093121.046556.03977.099004.07469.1383397.1228998.053207.06499.088363.1427849.1188619.2206765.050357.1122297.047506.2406585.028504.3597753-.038956.090211-.061759.1909943-.1256078.2684008-.057958.093121-.1488861.1592753-.2447547.2075816-.063659.03007-.1248477.07081-.196678.07469-.099954.0097-.2023787.01358-.3006226-.0097-.1592429-.0485001-.3124046-.1378377-.4080832-.2793619-.0532074-.0698404-.0779111-.156268-.1070802-.2382335-.0418055-.1251309-.0275537-.2630658.0218527-.3835405.0332546-.1179528.1018545-.2252355.1999084-.297889.0921628-.0960306.2206212-.1410389.3467991-.1685871z" fill="#b4b3c1" stroke="#b4b3c1"/><path d="m4.6327034 5.2750316-4.03959285-.1822642-.18964689 3.9187287 4.05298964.2296005z" fill="#ffc41f" stroke="#ffc41f"/><path d="m4.6268125 9.2111234c-1.2461017.02037-2.5347694-.073721-3.66904023-.1309509-.0266038.000388-.0522574 0-.077911.0097.009501.02425.0133018.05335.0323046.073721.0627089.07275.15240153.1132967.24161923.1412329.120287.03783.2390538.04753.3639015.06014 1.0515141.1098047 2.0614124.1868232 3.1107412.2397855 0-.1296898.000285-.2591856 0-.3887785z" fill="#090909" stroke="#090909"/><path d="m12.937736.56923982.575877.0116401.527989 6.88830608h-.641435z" fill="#415c77" stroke="#415c77"/><path d="m2.4456832 5.179001.4829535.02425-.058908.9736924-.4659461-.01358z" fill="#b68401" stroke="#b68401"/><path d="m15.221195 5.9890533c0-.099814-.0095-.2058354-.05986-.2938149-.05416-.078571-.141-.1308539-.232023-.153552-.14499-.05141-.301667-.03977-.452359-.03298-.193542-.00097-.594309.000582-.594309.000582l.158577 1.9592189-5.3539137-.0097s-.036105-.2035073-.1119259-.2733478c-.060808-.06693-.1559171-.06402-.2376286-.06014-.106225.03395-.1676988.1372559-.2031388.2375546-.012352.03104-.010452.06887-.029454.096031-.1112607.0097-.2231867-.000291-.3346374 0-.3841395.000097-.768184 0-1.1523235 0-.063659.000194-.1267479.000097-.1898368-.000291-.078861-.000485-.1585776 0-.2377237 0 .010452.152679.037056.303806.040856.457164 0 .158305.037056.313603.039905.4721021.020903-.01746.041806-.03395.062709-.05238-.012352-.05723-.024704-.1139757-.030405-.1721761-.011402-.06402.050357-.1042757.093113-.1380319.090263-.05626.1723545-.1270708.2712634-.1677141.1312136-.0582.268128-.1028207.4071327-.1379349.1651335-.03492.3355876-.03007.5030014-.0194.1254178.0097.2434245.05044.3624765.08633.1166764.0388.2307876.089241.3324521.1595661.2150154.1340549.402572.3179681.5293199.5405845.1359645.2064174.1952528.453284.2264172.6966586.017103.15976 0 .3216541-.025654.4792801 0 .02134-.012352.04753.010452.06208.065559.01261.1334939 0 .2002883.0097 1.0339369.000097 2.0677779-.000291 3.1017139.000097.02185 0 .05131 0 .06461-.02231.000095-.04753-.01235-.093121-.0171-.139196-.02185-.1818761 0-.3653044.03896-.5432035.02755-.1005897.06651-.1977843.1029-.2951729.04086-.1110658.112495-.2062234.174825-.305552.08076-.1182438.180999-.2218405.29093-.3123421.07506-.079541.1734-.1282348.262903-.1884722.144515-.091181.309364-.1391959.472027-.1846892.126367-.04074.260242-.04462.39174-.04559.118292.000097.238199 0 .354021.0291.142424.03686.285324.076631.418819.1403599.102234.04171.189741.1106777.283235.1682961.02755.0194.06461.0388.06176.07857.0095.1191168 0 .2387186.000855.3580293l.0095.0097c.0095-.01358-.0095-1.8109048 0-2.4926253z" fill="#d30c31" stroke="#ea113a"/></g></svg>