<svg height="130" viewBox="0 0 160 130" width="160" xmlns="http://www.w3.org/2000/svg" xmlns:xlink="http://www.w3.org/1999/xlink"><filter id="a" color-interpolation-filters="sRGB" height="2.8437" width="1.0243" x="-.012158" y="-.92185"><feGaussianBlur stdDeviation="2.2619444"/></filter><filter id="b" color-interpolation-filters="sRGB" height="1.7799" width="1.5543" x="-.27713" y="-.38996"><feGaussianBlur stdDeviation="4.8408367"/></filter><filter id="c" color-interpolation-filters="sRGB" height="1.8081" width="1.0907" x="-.045333" y="-.40405"><feGaussianBlur stdDeviation="8.3536643"/></filter><linearGradient id="d" gradientUnits="userSpaceOnUse" x1="377.60001" x2="377.60001" y1="309.89999" y2="506.98001"><stop offset="0" stop-color="#08a"/><stop offset="1" stop-color="#19c5f0"/></linearGradient><linearGradient id="e" gradientUnits="userSpaceOnUse" x1="381.13" x2="381.13" y1="105.55" y2="190.39999"><stop offset="0" stop-color="#56b8ff"/><stop offset="1" stop-color="#4e6f86" stop-opacity=".95536"/></linearGradient><g transform="matrix(.33169821 0 0 .32275968 -47.512687 -39.219609)"><g fill="none" stroke="#000"><path d="m566.7 186.66s-177.79-19.193-368.71 3.0305c-38.386 6.0609-41.416 42.426-41.416 42.426-8.0812 125.26-1.0102 239.41-1.0102 239.41 4.2065 24.078 28.471 40.325 34.345 40.406 156.78 2.1752 391.94 1.0102 391.94 1.0102 33.335-6.0609 36.365-36.365 36.365-36.365 3.0305-140.92-5.4426-247.49-6.0609-252.54-3.4271-27.952-45.457-37.376-45.457-37.376z"/><path d="m197.48 196.76c189.4-19.698 369.72-1.5152 369.72-1.5152 41.921 4.5457 42.426 35.355 42.426 35.355 9.5964 172.23 7.0771 235.72 6.0609 242.94-3.3069 23.493-33.678 39.457-33.678 39.457"/><path d="m163.93 490.93c-9.2857-16.071-6.0714-32.857-6.0714-32.857-6.4286-134.64 3.5714-228.21 3.5714-228.21 3.5714-29.286 37.5-33.214 37.5-33.214"/><path d="m431.79 179.51c6.8828-9.4441-1.1563-20.082-18.319-9.8835s-51.904 3.3804-58.734-1.5451c-10.374-7.4818-21.795 2.9171-14.375 11.429"/><path d="m338.21 170.58 8.2143-29.286 79.643-.71428 6.4286 26.786"/><path d="m333.57 179.15c-7.8571-2.5-8.2143-7.5-8.2143-7.5l10-46.786c53.571-5.7143 99.286-1.0714 99.286-1.0714l9.6428 47.5c-3.5714 5.7143-8.5714 7.5-8.5714 7.5"/></g><path d="m230.68 511.58-43-.52503-5-2.9216c-11.601-6.7784-21.462-20.131-23.474-31.784-1.0293-5.9615-3.0914-83.023-3.0257-113.07.0876-39.995 3.6316-117.79 6.066-133.15 2.333-14.721 11.422-24.546 27.806-30.057 8.2075-2.7606 34.703-5.3302 88.628-8.5953 35.939-2.176 136.87-3.0282 180.16-1.5212 38.674 1.3464 74.205 3.413 98.838 5.7486 9.35.88654 18.195 1.6607 19.655 1.7203s2.4756.39746 2.2569.75075c-.58711.94849 4.4954 2.0291 5.7891 1.2308.72115-.44501.82248-.22195.28996.63836-.59931.9682-.35895 1.1463.89743.66493 1.1564-.44308 1.4825-.28028 1 .49923-.4825.7795-.15641.94229 1 .49922 1.1564-.44308 1.4825-.28027 1 .49923-.4825.77951-.15641.9423 1 .49922.94379-.3616 1.4853-.28476 1.2033.17078-.75333 1.217 5.2552 5.3523 6.5847 4.5318.66238-.40874.85841-.25546.47189.36898-.81138 1.3108 4.1818 7.451 5.4319 6.6796.49356-.30456.60107.21724.23891 1.1596-.44376 1.1546-.28072 1.4802.5.99845.78071-.48177.94376-.15618.5.99846s-.28072 1.4802.5.99846c.78071-.48177.94376-.15619.5.99844-.48212 1.2544-.30375 1.4944.66596.89605.83508-.51532 1.0843-.42927.6744.23289-.85699 1.3845.35782 7.3535 1.3695 6.7292.43174-.26643.55987.37509.28474 1.4256s.21443 15.766 1.0879 32.701c4.1729 80.904 6.1538 153.53 5.1425 188.55.82893 37.738-6.5933 41.588-30.734 60.381-3.2864 2.0006-4.4133 2.0134-157.31 1.7949-84.7-.12104-173.35-.45634-197-.74511z" fill="url(#d)"/><path d="m193.17 206.43c-.16571.0818-.35594.0783-.53655.0928-.23745.0198-.47473.0415-.71208.0624-.30437.0269-.60897.0508-.91364.0738-.3676.0276-.73546.0514-1.1034.0743-.40389.0633-.80911.0858-1.2069.18379-.44486.0777-.87518.21669-1.3017.36185-.5307.19276-1.0641.37701-1.5976.56184-.56576.18381-1.1147.41368-1.6751.61276-6.5618 2.4542 16.228-6.1771 11.191-4.3046-.58762.2149-1.161.46606-1.7375.70874-.57652.25755-1.1457.53262-1.713.8102-.56321.29064-1.112.6074-1.6646.9173-.55135.31403-1.0929.64376-1.6327.97713-.53035.34299-1.0554.69606-1.5583 1.0784-.50945.37018-.9997.76483-1.4751 1.1775-.47676.4187-.92475.86848-1.3484 1.3404-.43899.47034-.8588.95752-1.2637 1.4573-.41126.51026-.78908 1.0458-1.155 1.5891-.37445.55902-.71716 1.1381-1.049 1.7232-.34023.60292-.65118 1.2215-.95225 1.8447-.30765.65026-.59935 1.308-.88674 1.9674-.29459.67678-.56541 1.3634-.82768 2.0533-.26798.70782-.51354 1.4238-.75157 2.1421-.12089.3659-.23516.73391-.34923 1.102 0 0-13.232 4.1029-13.232 4.1029.10933-.3755.21885-.75096.33462-1.1246.22835-.73479.46381-1.4674.72043-2.1929.25163-.70853.51118-1.4143.79413-2.111.27469-.67366.56329-1.3414.85287-2.0087.28887-.64848.58706-1.293.91278-1.9239.31887-.61476.64803-1.2244 1.0072-1.8167.3523-.57799.71589-1.1494 1.1119-1.6987.38858-.53598.78869-1.0642 1.2271-1.5609.43719-.48598.84658-.99743 1.3124-1.4574.45885-.45948.93048-.90721 1.4408-1.3098.50976-.393 1.0045-.80499 1.5361-1.1693.52307-.3723 1.0628-.72252 1.6152-1.0496.54219-.33582 1.0964-.65219 1.6505-.96777.55088-.32637 1.1238-.60541 1.6932-.89736.56057-.28073 1.1372-.52633 1.709-.78294 4.8174-2.0082 9.7146-3.822 14.622-5.596.56176-.21126 1.1302-.40223 1.6987-.59455.55357-.18857 1.1094-.37528 1.6772-.51631.48374-.11139.97111-.20021 1.4648-.25469.42509-.0287.84714-.0846 1.2726-.1064.37763-.0382.75509-.0786 1.1313-.12944.31276-.0431.62533-.0888.93499-.15086.24027-.0497.4807-.10266.71218-.18542.16388-.062.31874-.1536.49081-.18778l-12.471 7.0824z" fill="#fff" filter="url(#b)" transform="matrix(1.3673 0 0 1 -60.131 0)"/><path d="m161.5 226.75c239-13.25 446.5 0 446.5 0" fill="#fff" filter="url(#a)"/><path d="m314.36 232.35c-61.303-.5789-142.17 7.612-147.16-1.8849l-3.9106-7.4402 2.0918-4.1751c4.7864-9.5536 14.611-16.801 27.479-20.27 10.417-2.8089 71.01-7.3056 126.75-9.4063 22.696-.85536 113.65-.86406 136-.013 43.748 1.6662 95.648 4.7699 111.25 6.653 17.489 2.1109 29.434 8.2426 36.428 18.7 2.3982 3.5856 2.5563 20.952 1.966 22.055-2.3856 4.4564-26.277-2.0128-62.644-1.3217-62.599 1.1896-168.2-2.3292-228.25-2.8963z" fill="#fff" filter="url(#c)" opacity=".56195" transform="matrix(1 0 0 .73963 0 49.25)"/><path d="m201.17 512.49c3.6579 11.536 28.109 17.884 35.781-.11335" fill="none" stroke="#000"/><path d="m214.99 522.25c-5.9308-1.3056-10.542-4.3769-12.585-8.3829l-.74577-1.4618 8.0486.23424c4.4267.12883 12.17.23424 17.206.23424h9.1579l-.79915 1.4219c-1.2095 2.152-4.3885 5.1087-6.808 6.3318-3.9299 1.9867-9.0304 2.6009-13.474 1.6225z" fill="#fff" opacity=".56195"/><path d="m216.95 522.62c-2.5495-.32675-4.8962-1.0084-7.1235-2.0691-3.5929-1.7111-6.1908-4.0614-7.6105-6.8852-.65155-1.296-.90959-1.205 3.1403-1.1076 5.6219.13513 20.328.31823 25.75.3206 2.7328.001 4.9688.0352 4.9688.0756 0 .18704-.98391 1.8017-1.6211 2.6603-2.9186 3.9329-7.0178 6.2886-12.104 6.9559-1.5054.1975-4.0622.22093-5.3998.0495z" fill="#035c72"/><path d="m539.17 512.49c3.6579 11.536 27.953 18.165 35.625.1679" fill="none" stroke="#000"/><path d="m555.63 523.12c-7.0984-.74205-12.989-3.9196-15.588-9.7503 2.6924-.0476 4.2662.4155 6.2911.18511 9.2851.19952 18.137-.18316 27.422-.038-3.448 8.0403-10.59 10.455-18.125 9.6032z" fill="#035c72"/><path d="m155.59 460.8c-.2773-.84873-1.1296-25.363-1.8211-52.375-.64041-25.02-.32108-96.395.53017-118.5 1.3108-34.038 2.7004-58.401 3.5362-62 1.5685-6.7537 4.5646-13.575 8.2363-18.752 3.0503-4.3009 9.0666-9.8206 13.599-12.477 8.2919-4.8593 12.636-5.8661 35.655-8.2625 104.1-10.838 222.93-11.799 335-2.7086l16.25 1.318 6.6544 2.199c21.821 7.2109 35.655 19.284 38.024 33.183 2.1176 12.428 5.3916 82.597 6.5788 141 .69152 34.017.6567 46.138-.13179 45.875-.46232-.15375-.65383-2.4747-.73576-8.9167-.35509-27.919-3.0428-97.985-5.5989-145.96-1.3571-25.471-1.5332-27.504-2.6975-31.139-2.1158-6.606-8.3162-15.724-10.201-15-.6084.23347-.73493.10328-.49849-.51287.23426-.61046-.49272-1.3982-2.7882-3.0214-4.218-2.9826-8.8049-5.3143-9.7448-4.9536-.44937.17244-.64431.0868-.46457-.20398.58211-.94188-9.2694-3.64-16.896-4.6273-9.5505-1.2364-54.604-4.2913-81.25-5.5091-65.358-2.9872-138.86-2.9041-201.5.22768-25.233 1.2616-65.425 4.2868-85.75 6.4543-4.519.48192-12.546 2.9077-16.894 5.1051-11.907 6.0185-19.012 14.82-21.333 26.431-1.3235 6.6189-3.6251 41.249-5.0678 76.25-1.3863 33.633-1.0861 105.71.59443 142.73.28666 6.3154.38254 12.222.21307 13.125-.30851 1.6445-1.1147 2.1919-1.4984 1.0174z" fill="#136478"/><path d="m590.58 509.15c0-.35957 2.3477-2.5806 5.217-4.9356 5.4778-4.4959 12.362-12.044 15.258-16.729.94178-1.5238 2.4076-4.6909 3.2574-7.0378 2.6093-7.2062 4.2264-5.812 2.0091 1.7321-1.801 6.128-5.8242 13.105-10.108 17.528-4.9482 5.1099-15.634 11.563-15.634 9.4421z" fill="#136478"/><path d="m615.87 475.7c.90226-4.9289 1.5204-28.243 1.3647-51.469l-.1016-15.156h1.1449l.003 15.906c.003 14.889-.45732 51.037-.65302 51.254-.0486.054-.24491-.0318-.43624-.19059-.26779-.22224-.4201-.20167-.66165.0894-.52369.63101-.81994.43618-.66058-.43442z" fill="#136478"/><path d="m340.26 178.45c-1.8932-2.0955-2.1884-5.1757-.76358-7.9686 1.4088-2.7615 4.0503-4.2454 7.5917-4.2648 2.4357-.0134 3.5375.33297 7.514 2.3618 12.412 6.3329 35.9 8.7033 50.16 5.0622 1.65-.4213 5.8625-2.1179 9.361-3.7703 7.9028-3.7325 11.654-4.527 15.12-3.203 2.8961 1.106 4.2643 3.1213 4.2658 6.2836.0005 1.2375-.39231 3.0187-.87313 3.9582l-.87423 1.7082-31.5-.0555c-17.325-.0305-37.76.10079-45.412.29179-12.04.30056-14.003.24626-14.59-.40362z" fill="#4d4d4d"/><path d="m333.51 179.02c0-.23323-.90791-.83348-2.0176-1.3339-2.2837-1.0298-5.4801-4.3028-5.487-5.6185-.005-.87313 9.5347-46.223 9.79-46.542.4318-.53907 23.657-2.1094 38.838-2.626 13.822-.47035 21.398-.47181 34.192-.007 15.476.56276 25.03 1.1683 25.361 1.6076.24473.32473 9.3335 45.636 9.3289 46.508-.009 1.7733-7.4091 7.9353-9.5293 7.9353-1.175 0-1.1888-.13614-.20647-2.0357 1.0271-1.9861 1.0469-5.5928.0434-7.8659-.44885-1.0166-2.2712-7.8983-4.0497-15.293-1.7785-7.3943-3.3022-13.513-3.386-13.596-.31628-.31628-79.862.60952-80.185.93325-.68444.68443-8.1938 28.203-8.4965 31.136-.25944 2.5136-.1307 3.3855.75674 5.125l1.0694 2.0961h-3.0102c-1.6556 0-3.0102-.19083-3.0102-.42406z" fill="url(#e)"/></g></svg>