<svg height="16" viewBox="0 0 16 16" width="16" xmlns="http://www.w3.org/2000/svg"><circle cx="8" cy="8" fill="#fc0" fill-rule="evenodd" r="7.437536" stroke="#000" stroke-linecap="round" stroke-width="1.124927"/><path d="m8.6945188 1040.8537q-1.1150488 0-1.871689.5376-.4513293.3186-.816375.9026-.3716829.604-.4380549 1.1483h4.5265671l-.1792043.8894h-4.4535579q-.00664.1393-.00664.2654 0 .5111.00664.6107h4.2743537l-.1858415.8893h-3.9491311q.2787622 1.52 1.3407134 2.1571.7632775.458 1.6526616.458 1.2411555 0 1.9380611-.6504v1.3672q-.8296495.385-1.831866.385-3.0000122 0-4.0553262-2.4956-.2123902-.5044-.3650457-1.2213h-1.0154909l.1858415-.8893h.6969055q-.019912-.2788-.019912-.604 0-.1328.00664-.2721h-.8694726l.1858415-.8894h.7699146q.4115061-2.1638 2.143814-3.1062 1.0685885-.5841 2.3562043-.5841 1.2345183 0 2.0774424.5376l-.265488 1.2345q-.8097379-.6703-1.8385032-.6703z" transform="translate(0 -1036.3622)"/></svg>