<svg height="13" width="16" xmlns="http://www.w3.org/2000/svg"><path d="m.014824.014824h15.970353v12.970353h-15.970353z" fill="#fff" stroke="#fff" stroke-dashoffset=".6" stroke-linecap="square" stroke-width=".029647"/><path d="m.80590777 7.4573173c-.036385-2.68144-.1818775-.37415 1.43425303-4.34954 1.1692315-2.70222-.01558-1.9747 6.0332315-2.07343 5.3836597.10912 4.2975727-.67036 5.5343587 2.19815 1.548585 3.67399 1.429066 1.75124 1.418673 4.14687-.05719 2.6294697.914593 1.95392-7.2336427 2.04226-8.08588703-.10913-7.12971203.57682-7.18687353-1.96431zm1.63692603-2.5879 1.106864-2.55672c.2065205-.45415.1406285-.38711.6235895-.38974l7.7386717-.00083c.418941.002.357476-.0257.530053.37415l1.100717 2.54196-11.0998952.0312zm-.791616 4.84552 2.069974-.005c-.00665 2.5988697.209019 2.4539497-.9197995 2.4706897-1.3441835-.005-1.131697.13049-1.1501745-2.4660697zm10.6599222.0185h2.073432c-.01387 2.6029097.175531 2.4250697-.997738 2.4319997-1.213121-.0162-1.058955.17553-1.075694-2.4319997z" fill-rule="evenodd"/><g fill="#fff"><circle cx="2.680585" cy="6.782275" r="1.0108"/><circle cx="13.320568" cy="6.782275" r="1.0108"/></g></svg>