<svg enable-background="new 0 0 580 580" height="7" viewBox="0 0 16 7" width="16" xmlns="http://www.w3.org/2000/svg"><g fill="#008080" transform="translate(34.40678 -597.87627)"><path d="m412.636 369.844c-5.094 0-10.078.459-14.933 1.293h-215.406c-4.855-.834-9.839-1.293-14.933-1.293-48.382 0-87.602 39.219-87.602 87.602s39.22 87.602 87.602 87.602c34.259 0 63.903-19.676 78.303-48.332h88.666c14.4 28.656 44.045 48.332 78.304 48.332 48.381 0 87.601-39.219 87.601-87.602s-39.221-87.602-87.602-87.602z" fill="#c8beb7" transform="matrix(.03805278 0 0 .03995343 -37.441946 583.09974)"/><g fill-rule="evenodd"><circle cx="-19.906384" cy="601.39709" fill="#f81615" r=".623295"/><circle cx="-23.887184" cy="601.39709" fill="#02bf02" r=".623295"/><circle cx="-21.887184" cy="599.39709" fill="#1716f6" r=".623295"/><circle cx="-21.887184" cy="603.39709" fill="#f8f715" r=".623295"/><rect fill="#000" height="3.2" ry=".533333" width="1" x="-31.40678" y="599.77661"/><rect fill="#000" height="1" ry=".5" width="3.2" x="-32.506779" y="600.87671"/></g></g></svg>