<svg viewBox="0 0 128 128" xmlns="http://www.w3.org/2000/svg" xmlns:xlink="http://www.w3.org/1999/xlink"><linearGradient id="a" gradientUnits="userSpaceOnUse" x1="-16.9870357355" x2="144.98519755" y1="907.37476054" y2="1069.3818196"><stop offset="0" stop-color="#4d4d4d"/><stop offset=".2398" stop-color="#808080"/><stop offset=".49761" stop-color="#ccc"/><stop offset=".75054" stop-color="#808080"/><stop offset="1" stop-color="#4d4d4d"/></linearGradient><linearGradient id="b" gradientUnits="userSpaceOnUse" x1=".610978" x2="127.38901675" y1="924.95872177" y2="1051.7856388"><stop offset="0" stop-color="#ccc"/><stop offset=".27036104" stop-color="#2639c2"/><stop offset=".49761" stop-color="#7c82f1"/><stop offset=".7199809" stop-color="#2f48e2"/><stop offset="1" stop-color="#8a89ff"/></linearGradient><linearGradient id="c" gradientUnits="userSpaceOnUse" x1="-.91646825" x2="134.4152695" y1="921.14621593" y2="1064.3717959"><stop offset="0" stop-color="#ccc"/><stop offset=".2398" stop-color="#e6e6e6"/><stop offset=".49761" stop-color="#6e6e6e"/><stop offset=".75054" stop-color="#ccc"/><stop offset="1" stop-color="#ccc"/></linearGradient><linearGradient id="d" gradientUnits="userSpaceOnUse" x1="14.6634835" x2="111.1980865" y1="930.9340915" y2="1055.2071184"><stop offset="0" stop-color="#4d4d4d"/><stop offset=".2398" stop-color="#808080"/><stop offset=".49761" stop-color="#b3b3b3"/><stop offset=".75054" stop-color="#808080"/><stop offset="1" stop-color="#4d4d4d"/></linearGradient><g transform="translate(0 -924.36)"><g fill-rule="evenodd"><path d="m73.011933 988.35389c0 4.97715-4.03478 9.01193-9.011933 9.01193s-9.011933-4.03478-9.011933-9.01193 4.03478-9.01193 9.011933-9.01193 9.011933 4.03478 9.011933 9.01193zm15.274463 0c0 13.41341-10.87334 24.28641-24.286396 24.28641s-24.286396-10.8735-24.286396-24.28641c0-13.41293 10.87334-24.2864 24.286396-24.2864s24.286396 10.87334 24.286396 24.2864z" fill="url(#c)" opacity=".45673"/><path d="m88.286396 988.35389c0 13.41341-10.87334 24.28641-24.286396 24.28641s-24.286396-10.8735-24.286396-24.28641c0-13.41293 10.87334-24.2864 24.286396-24.2864s24.286396 10.87334 24.286396 24.2864zm39.102624.00001c0 35.0091-28.379951 63.389-63.38902 63.389s-63.38902148-28.3799-63.38902148-63.389c0-35.00907 28.37995248-63.38902 63.38902148-63.38902s63.38902 28.37995 63.38902 63.38902z" fill="url(#b)"/><path d="m64 924.36c-35.338998 0-64 28.661-64 64s28.661002 64 64 64 64-28.661 64-64-28.661002-64-64-64zm0 1.22196c34.679141 0 62.77804 28.0989 62.77804 62.77804 0 34.6791-28.098899 62.778-62.77804 62.778s-62.778043-28.0989-62.778043-62.778c0-34.67914 28.098902-62.77804 62.778043-62.77804z" fill="url(#a)"/></g><path d="m64 963.46263c-13.743351 0-24.897375 11.15414-24.897375 24.89737 0 13.7432 11.154146 24.8974 24.897375 24.8974s24.897375-11.1542 24.897375-24.8974c0-13.74323-11.154146-24.89737-24.897375-24.89737zm0 1.22195c13.082272 0 23.675418 10.59266 23.675418 23.67542 0 13.0828-10.592657 23.6754-23.675418 23.6754s-23.675418-10.5926-23.675418-23.6754c0-13.08276 10.592657-23.67542 23.675418-23.67542zm0 14.05251c-5.307326 0-9.622912 4.31558-9.622912 9.62291s4.315586 9.62291 9.622912 9.62291 9.622912-4.31558 9.622912-9.62291-4.315586-9.62291-9.622912-9.62291zm0 1.22196c4.64698 0 8.400955 3.75397 8.400955 8.40095s-3.753975 8.40095-8.400955 8.40095-8.400955-3.75397-8.400955-8.40095 3.753975-8.40095 8.400955-8.40095z" fill="url(#d)"/></g></svg>