<svg height="16" viewBox="0 0 16 16" width="16" xmlns="http://www.w3.org/2000/svg"><path d="m5 0-.2519531 5.6914062c-.4663077.654-.7480469 1.4475938-.7480469 2.3085938 0 .8611.2817392 1.6565468.7480469 2.310547l.2519531 5.689453h6l.251953-5.689453c.278128-.3900762.477908-.835919.603516-1.310547h.144531c.552285 0 1-.4477 1-1s-.447715-1-1-1h-.144531c-.125641-.4742683-.32554-.9187303-.603516-1.3085938l-.251953-5.6914062zm3 5.1445312c1.584724 0 2.857422 1.2708688 2.857422 2.8554688 0 1.5848-1.272698 2.857422-2.857422 2.857422-1.5847242 0-2.8574219-1.272622-2.8574219-2.857422 0-1.5846 1.2726977-2.8554688 2.8574219-2.8554688zm-.1425781.6953126c-.030073 0-.0610558.0115781-.0898438.0175781-.2014597.043-.3429941.2236875-.3378906.4296875v1.7148437.2128907l.1777344.125 1.1425781.8574218c.468902.5093 1.1248113-.3794342.5-.6777344l-.9628906-.7304687v-1.5c.011027-.2447-.1847996-.4500187-.4296875-.4492187z" fill="#ac39ac" fill-rule="evenodd"/></svg>