<svg height="10" viewBox="0 0 16 10" width="16" xmlns="http://www.w3.org/2000/svg"><g fill-rule="evenodd" transform="matrix(.0818825436 0 0 .0818825436 -18.595916742 -55.86140789)"><g stroke="#000" stroke-linecap="round" stroke-linejoin="round" stroke-miterlimit="2.6131" stroke-width="3.5433"><path d="m315.36 745.85h6.0112c.41163 5.4867 2.5646 9.3625 5.5105 12.506-1.169.4631-2.3379.9262-3.5065 1.3897-4.1495-3.0944-7.2442-7.2875-8.0152-13.896z" fill="#ccc"/><path d="m344.11 755.22c-.44538 17.474-33.586 16.543-37.87 7.1253-2.5558-5.619-3.915-13.176-1.5768-19.149h44.896c-6.1491 3.5259-5.1145 3.9313-5.4496 12.023zm-33.019-2.8759c4.4185-7.2132 25.163-8.6263 27.774.164 3.9129 13.173-22.755 13.94-26.497 8.8806-2.4582-3.3233-2.2301-7.4888-1.2772-9.0446z" fill="#ccc"/><path d="m285.33 695.91c7.633.075 7.4721 10.51 3.543 16.502l2.6365 4.3048c3.5571-2.1539 14.358-11.129 15.743-15.34-1.3635-6.031-5.5921.9935-15.804-8.3895-3.5444-3.2566-6.3918-1.131-6.1182 2.9225z" fill="#b3b3b3"/><path d="m420.07 691.02h-3.0888c-4.265 7.836-13.944 2.6237-13.944 5.8266v5.8265h17.032v-11.653z" fill="#b3b3b3"/><path d="m315.28 692.57h33.745l13.207 4.4798v34.825c-6.5211 1.5026-11.366 8.2445-11.179 11.751h-74.734v-23.235c.009-3.2552.6105-4.894 5.4688-4.9163 11.342-1.8655 31.257-19.827 33.492-22.904z" fill="#ccc"/><path d="m320.4 698.55h17.283v33.695h-17.283c-7.577 0-13.776-7.5813-13.776-16.847 0-9.2658 6.1994-16.847 13.776-16.847z" fill="#666"/><g fill="#ccc"><path d="m361.9 699.59h58.841v21.097h-58.841z"/><path d="m361.9 729.82h58.841v-9.1356h-58.841z"/></g></g><path d="m362.89 703.65h53.288v6.4914h-53.288z" fill="#fff"/><path d="m361.9 697.02h-10.946v36.145h10.946z" style="fill:#808080;stroke:#000;stroke-width:3.5433;stroke-linecap:round;stroke-linejoin:round;stroke-miterlimit:2.6131"/><g fill="#b3b3b3"><path d="m352.53 718h7.8095v4.3739h-7.8095z"/><path d="m352.53 701.28h7.8095v4.3738h-7.8095z"/><path d="m350.88 697.02h-25.974v36.145h25.974z" stroke="#000" stroke-linecap="round" stroke-linejoin="round" stroke-miterlimit="2.6131" stroke-width="3.5433"/></g><path d="m319.9 697.02h5.0096v36.145h-5.0096z" style="fill:#808080;stroke:#000;stroke-width:3.5433;stroke-linecap:round;stroke-linejoin:round;stroke-miterlimit:2.6131"/><path d="m350.88 707.43h-25.974v15.316h25.974z" style="fill:#b3b3b3;stroke:#000;stroke-width:3.5433;stroke-linecap:round;stroke-linejoin:round;stroke-miterlimit:2.6131"/><path d="m328.48 700.24h19.222v4.3738h-19.222z" fill="#fff"/><path d="m328.48 710.65h19.222v4.3738h-19.222z" fill="#fff"/><g stroke="#000" stroke-linecap="round" stroke-linejoin="round" stroke-miterlimit="2.6131" stroke-width="3.5433"><path d="m304.88 731.9c1.8471 0 3.3445 1.4977 3.3445 3.3445 0 1.8471-1.4974 3.3445-3.3445 3.3445-1.8468 0-3.3445-1.4974-3.3445-3.3445 0-1.8468 1.4978-3.3445 3.3445-3.3445z" fill="#b3b3b3"/><path d="m228.99 797.37c-1.468-14.001 12.392-49.105 30.931-58.981 15.636-15.392 28.323-16.157 32.755-4.8861.80262 1.9246 3.133 9.703.0908 12.252-6.6932 5.6087-4.7346 9.9063-5.2834 10.885-1.9542 3.4835-5.5456 3.532-6.6059 9.7757-.30688 1.8067 2.6565 5.6477 2.5569 7.5815-.2625 5.0893-3.5954 3.5452-2.4845 10.878.82938 1.997 3.6659 4.5808 3.989 6.3933.65413 3.6684-2.8162 3.4264-.72987 9.0489-12.843 3.1513-51.187 3.6751-55.219-2.9467z" fill="#630"/><path d="m279.95 732.56c3.5811 0 6.4852 2.9044 6.4852 6.4852 0 3.5813-2.9041 6.4857-6.4852 6.4857-3.5812 0-6.4854-2.9044-6.4854-6.4857 0-3.5808 2.9041-6.4852 6.4854-6.4852z" fill="#666"/><path d="m239.12 789.11c2.1795 0 3.9466 1.7673 3.9466 3.9465 0 2.1795-1.7671 3.9465-3.9466 3.9465-2.1791 0-3.9465-1.767-3.9465-3.9465 0-2.1792 1.7674-3.9465 3.9465-3.9465z" fill="#b3b3b3"/></g></g></svg>