<svg height="160" viewBox="0 0 80 160" width="80" xmlns="http://www.w3.org/2000/svg"><g transform="matrix(.69383632 0 0 .74925294 0 -.000318)"><path d="m5 211.61c11.05 2.07 23.26 2.045 34.444 1.188 3.036-.232 6.068-.386 9.101-.674 2.379-.226 5.315-.275 7.106-2.065 1.747-1.747 1.149-5.769 1.149-8.057v-94.975c0-8.788.214-17.604-.109-26.388-.229-6.192-2.711-11.658-6.59-16.431-3.716-4.572-9.016-8.547-10.59-14.394-.521-1.934-.274-4.273-.359-6.259-.188-4.422-.377-8.843-.565-13.265-.147-3.454-.294-6.907-.441-10.361-.026-.609-.043-1.212-.043-1.821 0-1.111.341-.642.9-1.2.677-.677.1-4.042.1-4.97 0-1.565.111-3.088-.351-4.48-.426-1.283-.982-2.103-1.05-3.35-.098-1.799-.691-2.596-2.566-3.223-2.521-.841-5.364-.578-7.978-.578-1.994 0-6.38-.163-7.555 1.9-.495.869-.026 2.069-.2 2.8-.283 1.186-1.178 2.115-1.4 3.3-.397 2.116.051 4.435-.1 6.6-.027.394-.357 1.249-.2 1.6.264.593 1.2.378 1.2 1 0 5.917-.445 11.854-.697 17.765-.167 3.924-.334 7.848-.502 11.771-.086 2.03-.195 3.955-1.275 5.755-3.097 5.161-8.081 8.868-11.322 13.942-3.431 5.378-4.907 10.502-4.907 16.883v7.928 97.348 15.402c0 3.49.449 7.05 4.8 7.32" fill="#004033"/><path d="m5 211.61c11.05 2.07 23.26 2.045 34.444 1.188 3.036-.232 6.068-.386 9.101-.674 2.379-.226 5.315-.275 7.106-2.065 1.747-1.747 1.149-5.769 1.149-8.057v-94.975c0-8.788.214-17.604-.109-26.388-.229-6.192-2.711-11.658-6.59-16.431-3.716-4.572-9.016-8.547-10.59-14.394-.521-1.934-.274-4.273-.359-6.259-.188-4.422-.377-8.843-.565-13.265-.147-3.454-.294-6.907-.441-10.361-.026-.609-.043-1.212-.043-1.821 0-1.111.341-.642.9-1.2.677-.677.1-4.042.1-4.97 0-1.565.111-3.088-.351-4.48-.426-1.283-.982-2.103-1.05-3.35-.098-1.799-.691-2.596-2.566-3.223-2.521-.841-5.364-.578-7.978-.578-1.994 0-6.38-.163-7.555 1.9-.495.869-.026 2.069-.2 2.8-.283 1.186-1.178 2.115-1.4 3.3-.397 2.116.051 4.435-.1 6.6-.027.394-.357 1.249-.2 1.6.264.593 1.2.378 1.2 1 0 5.917-.445 11.854-.697 17.765-.167 3.924-.334 7.848-.502 11.771-.086 2.03-.195 3.955-1.275 5.755-3.097 5.161-8.081 8.868-11.322 13.942-3.431 5.378-4.907 10.502-4.907 16.883v7.928 97.348 15.402c0 3.49.449 7.05 4.8 7.32" fill="none" stroke="#000" stroke-linecap="square" stroke-miterlimit="10" stroke-width=".4"/><path d="m3.3 82.413c1.035-.027 2.067-.134 3.101-.2.499-.032 2.784.121 3.1-.2.44-.446 0-3.395 0-4.074 0-1.166.314-2.364.491-3.514.694-4.503 3.413-8.609 5.959-12.271 2.635-3.79 4.871-6.976 5.082-11.66.256-5.693.512-11.387.768-17.081-.591.034-3.157-.197-3.5.2-.253.293-.068 1.799-.082 2.166-.129 3.392-.258 6.783-.386 10.175-.083 2.173-.236 3.849-.801 5.947-.558 2.071-2.757 4.169-4.17 5.695-3.464 3.741-6.667 7.445-9.415 11.746-2.71 4.242-2.966 9.43-3.146 14.271.038-1.18 2.309-.919 2.999-1.2" fill="#608f86"/><path d="m56.8 206.31c.305 6.307-8.062 6.021-12.532 6.207-5.929.246-11.829.594-17.767.594-5.868 0-11.746-.367-17.582-.948-4.512-.449-8.719-.938-8.719-6.422v-85.437-35.788c0-.666-.241-1.807.585-1.958 2.841-.517 5.69-.726 8.57-.9 6.269-.379 12.572-.448 18.852-.448 5.799 0 11.62.075 17.41.426 3.044.184 6.141.367 9.15.869 1.551.258 2.033.452 2.033 1.846v34.106 86.995.87" fill="#001f17"/><path d="m56.8 206.31c.305 6.307-8.062 6.021-12.532 6.207-5.929.246-11.829.594-17.767.594-5.868 0-11.746-.367-17.582-.948-4.512-.449-8.719-.938-8.719-6.422v-85.437-35.788c0-.666-.241-1.807.585-1.958 2.841-.517 5.69-.726 8.57-.9 6.269-.379 12.572-.448 18.852-.448 5.799 0 11.62.075 17.41.426 3.044.184 6.141.367 9.15.869 1.551.258 2.033.452 2.033 1.846v34.106 86.995.87" fill="none" stroke="#292929" stroke-linecap="square" stroke-miterlimit="10" stroke-width=".2"/><path d="m43 68.013c1.098 11.516 1.223 23.416.988 34.979-.016.756-.019 8.904-.395 8.928-3.045.197-5.979.362-8.938 1.152-.622.166-2.357 1.413-2.856 1.341-.843-.121-.399-2.254-.399-3.224 0-2.735.051-5.49.118-8.225.192-7.824.461-15.903-.649-23.67-.252-1.763-.369-3.586-.369-5.367 0-.925-.277-2.005-.1-2.915.086-.44-.274-1 .285-1 .618 0 1.211-.033 1.827-.084 1.778-.148 3.551-.724 5.287-1.116 1.564-.348 3.897-.279 5.201-.795" fill="#fff"/><path d="m43 68.013c1.098 11.516 1.223 23.416.988 34.979-.016.756-.019 8.904-.395 8.928-3.045.197-5.979.362-8.938 1.152-.622.166-2.357 1.413-2.856 1.341-.843-.121-.399-2.254-.399-3.224 0-2.735.051-5.49.118-8.225.192-7.824.461-15.903-.649-23.67-.252-1.763-.369-3.586-.369-5.367 0-.925-.277-2.005-.1-2.915.086-.44-.274-1 .285-1 .618 0 1.211-.033 1.827-.084 3.542-.295 6.885-1.957 10.487-1.815" fill="none" stroke="#a6a6a6" stroke-linecap="square" stroke-miterlimit="10" stroke-width=".1"/><path d="m31 81.513c-.212-3.202-.508-6.397-.6-9.6-.014-.489-.227-1.9.285-1.9.734 0 1.476-.01 2.202-.131 1.654-.276 3.277-.7 4.912-1.069 1.481-.334 3.026-.7 4.55-.7 1.114 0 .95 2.93.95 4.019 0 3.22.232 6.465.4 9.681-4.232-.101-8.466-.2-12.699-.3" fill="#c7d8c7"/><path d="m43.601 81.413c.386 5.825.399 11.726.399 17.565 0 2.767-.032 5.556-.131 8.32-.054 1.5-.109 2.999-.164 4.498-.01.276-3.472.345-4.127.395-2.592.198-5.418.651-7.627 2.121-1.082.72-.55-1.53-.55-2.145 0-1.554.077-3.102.1-4.655.089-5.96.217-11.94.05-17.9-.076-2.717.095-5.825-.55-8.4 4.199.059 8.399.126 12.6.193" fill="#b8c2b8"/><path d="m30.3 75.613c4.688-1.101 9.227-2.405 14.101-2.1" fill="none" stroke="#608f86" stroke-linecap="square" stroke-miterlimit="10" stroke-width=".5"/><path d="m37.4 68.813c.281 4.231.283 8.464.6 12.7" fill="none" stroke="#608f86" stroke-linecap="square" stroke-miterlimit="10" stroke-width=".5"/><path d="m38 81.313c.719 10.008.429 20.39-.2 30.4" fill="none" stroke="#363" stroke-linecap="square" stroke-miterlimit="10" stroke-width=".5"/><path d="m30.9 80.712c4.852-1.04 8.946-2.466 14-2.2" fill="none" stroke="#608f86" stroke-linecap="square" stroke-miterlimit="10" stroke-width=".5"/><path d="m30.8 85.712c2.282-.342 4.593-.837 6.741-1.696 2.252-.9 4.999-.616 7.36-.503" fill="none" stroke="#363" stroke-linecap="square" stroke-miterlimit="10" stroke-width=".5"/><path d="m38.8 35.913c-1.179-2.226-7.821-1.66-10.022-1.79-2.492-.146-8.778-.359-10.478 1.79.132-3.202.264-6.404.396-9.606.098-2.365 1-6.062.305-8.394-.276-.925-.323-.423-.9-1-.47-.47-.196-.755-.2-1.4-.014-2.162-.19-4.635.1-6.8.153-1.146 1.021-2.02 1.3-3.1.23-.893.2-1.866.2-2.8 0-3.787 12.496-2.545 14.686-2.148 1.799.327 3.199.785 3.515 2.648.148.873-.05 1.5.2 2.3.299.958 1.013 1.703 1.2 2.7.336 1.788.1 3.822.1 5.653 0 .811.481 2.366-.1 2.947-.426.426-.622.067-.9.7-.199.452.002 1.343.023 1.859.132 3.198.264 6.396.395 9.595.076 1.878.778 5.192.18 6.846" fill="#404040"/><path d="m38.8 35.913c-1.179-2.226-7.821-1.66-10.022-1.79-2.492-.146-8.778-.359-10.478 1.79.132-3.202.264-6.404.396-9.606.098-2.365 1-6.062.305-8.394-.276-.925-.323-.423-.9-1-.47-.47-.196-.755-.2-1.4-.014-2.162-.19-4.635.1-6.8.153-1.146 1.021-2.02 1.3-3.1.23-.893.2-1.866.2-2.8 0-3.787 12.496-2.545 14.686-2.148 1.799.327 3.199.785 3.515 2.648.148.873-.05 1.5.2 2.3.299.958 1.013 1.703 1.2 2.7.336 1.788.1 3.822.1 5.653 0 .811.481 2.366-.1 2.947-.426.426-.622.067-.9.7-.199.452.002 1.343.023 1.859.132 3.198.264 6.396.395 9.595.076 1.878.778 5.192.18 6.846" fill="none" stroke="#333" stroke-linecap="square" stroke-miterlimit="10" stroke-width=".3"/><path d="m19.2 35.212c-.162 4.795-.324 9.591-.486 14.386-.139 4.107-3.858 7.537-6.447 10.342-2.65 2.871-5.781 6.018-7.508 9.562-2.124 4.359-3.078 8.197-3.56 13.011" fill="none" stroke="#c7d8c7" stroke-linecap="square" stroke-miterlimit="10" stroke-width=".8"/><path d="m1.2 82.513v29.097" fill="none" stroke="#a6a6a6" stroke-linecap="square" stroke-miterlimit="10" stroke-width=".8"/><path d="m38.8 35.913c-1.179-2.226-7.821-1.66-10.022-1.79-2.492-.146-8.778-.359-10.478 1.79.132-3.202.264-6.404.396-9.606.098-2.365 1-6.062.305-8.394-.276-.925-.323-.423-.9-1-.47-.47-.196-.755-.2-1.4-.014-2.162-.19-4.635.1-6.8.153-1.146 1.021-2.02 1.3-3.1.23-.893.2-1.866.2-2.8 0-3.787 12.496-2.545 14.686-2.148 1.799.327 3.199.785 3.515 2.648.148.873-.05 1.5.2 2.3.299.958 1.013 1.703 1.2 2.7.336 1.788.1 3.822.1 5.653 0 .811.481 2.366-.1 2.947-.426.426-.622.067-.9.7-.199.452.002 1.343.023 1.859.132 3.198.264 6.396.395 9.595.076 1.878.778 5.192.18 6.846" fill="#cc7a00"/><path d="m38.8 35.913c-1.179-2.226-7.821-1.66-10.022-1.79-2.492-.146-8.778-.359-10.478 1.79.132-3.202.264-6.404.396-9.606.098-2.365 1-6.062.305-8.394-.276-.925-.323-.423-.9-1-.47-.47-.196-.755-.2-1.4-.014-2.162-.19-4.635.1-6.8.153-1.146 1.021-2.02 1.3-3.1.23-.893.2-1.866.2-2.8 0-3.787 12.496-2.545 14.686-2.148 1.799.327 3.199.785 3.515 2.648.148.873-.05 1.5.2 2.3.299.958 1.013 1.703 1.2 2.7.336 1.788.1 3.822.1 5.653 0 .811.481 2.366-.1 2.947-.426.426-.622.067-.9.7-.199.452.002 1.343.023 1.859.132 3.198.264 6.396.395 9.595.076 1.878.778 5.192.18 6.846" fill="none" stroke="#662900" stroke-linecap="square" stroke-miterlimit="10" stroke-width=".3"/><path d="m33.3.613c1.494 1.524 1.4 4.729 1.4 6.675 0 .424.4.799.4 1.363v3.342c0 1.299.067 2.461-.301 3.62-.159.501-.5.599-.5 1.297v5.371 12.031" fill="none" stroke="#662900" stroke-linecap="square" stroke-miterlimit="10" stroke-width=".1"/><path d="m32.601.513c.688.616.86 1.346 1 2.2.246 1.494.5 2.609.5 4.247 0 1.557.3 3.35.3 5.034 0 .503.386 3.275-.2 3.57-1.441.724-.6 5.609-.6 6.718v12.031" fill="none" stroke="#ffe699" stroke-linecap="square" stroke-miterlimit="10" stroke-width=".1"/><path d="m19.2 35.113c.261-5.993.7-12.001.7-18" fill="none" stroke="#ffe699" stroke-linecap="square" stroke-miterlimit="10" stroke-width=".8"/><path d="m18.7 15.913c.837-2.588-.421-5.924.45-8.55.363-1.096.915-1.967 1.05-2.95.119-.868.218-1.785.3-2.7" fill="none" stroke="#ffe699" stroke-linecap="square" stroke-miterlimit="10" stroke-width=".8"/><path d="m38.9 35.913c-1.761-2.2-7.486-1.635-10.123-1.79-2.491-.146-8.777-.359-10.477 1.79" fill="none" stroke="#662900" stroke-linecap="square" stroke-miterlimit="10" stroke-width=".3"/><path d="m1.2 195.41v9.764c0 1.041.133 2.061.6 2.937-.2-4.23-.4-8.46-.6-12.7" fill="#99b399"/><path d="m56.8 194.21c-1.234 1.89-6.354 1.704-8.375 1.982-2.735.378-5.556.537-8.313.669-5.986.287-11.961.358-17.952.224-6.184-.141-12.394-.465-18.488-1.571-1.531-.278-3.471-.202-3.471-2.027v-5.655-49.853-21.2-4.653c0-.673 1.437-.316 1.966-.316h47.013 6.918c.943 0 .703.15.703 1.088v16.124c-.001 21.63-.001 43.93-.001 65.2" fill="#fff9e6"/><g fill="none" stroke-linecap="square" stroke-miterlimit="10"><path d="m56.8 194.21c-1.234 1.89-6.354 1.704-8.375 1.982-2.735.378-5.556.537-8.313.669-5.986.287-11.961.358-17.952.224-6.184-.141-12.394-.465-18.488-1.571-1.531-.278-3.471-.202-3.471-2.027v-5.655-49.853-21.2-4.653c0-.673 1.437-.316 1.966-.316h47.013 6.918c.943 0 .703.15.703 1.088v16.124 65.288" stroke="#994d4d" stroke-width=".2"/><path d="m17.8 16.712c3.069-1.75 7.54-1.4 10.957-1.4 3.134 0 7.819-.423 10.543 1.4" stroke="#662900" stroke-width=".3"/><path d="m19.4 4.913c2.898-.972 6.188-.8 9.2-.8 2.97 0 6.253-.19 9.1.8" stroke="#662900" stroke-width=".3"/><path d="m19.5 2.712c.743-2.906 6.912-2.4 9.101-2.4" stroke="#333" stroke-width=".3"/><path d="m28.601.212c2.219.148 8.353-.416 9.1 2.5" stroke="#333" stroke-width=".3"/><path d="m30.9 81.212c4.261 0 8.545.403 12.8.3" stroke="#737373" stroke-width=".2"/><path d="m91.3 212.61c3.538.093 7.097.151 10.625-.213 3.385-.35 8.002-.254 10.982-2.117 3.101-1.938-4.953-3.053-6.307-3.27-3.849-.616-7.585-1.331-11.4-2.201 1.076-1.688-.254-4.25-.445-6.128-.294-2.879-.542-5.759-.777-8.644-.489-6.011-.678-11.997-.678-18.027 0-2.958.099-5.883.283-8.835.095-1.506.278-2.956.5-4.449.117-.787.342-.543.917-1.116.856-.852 1.225-1.353.65-2.5-.893-1.784 1.021-2.072 2.405-3.117 2.412-1.818 5.046-3.447 7.031-5.734 2.429-2.799 4.119-5.165 5.884-8.42 2.681-4.944 3.884-11.111 3.972-16.698.093-6.004-.562-11.867-1.865-17.731-.3-1.352-.533-2.734-.954-4.054-.345-1.079-.616-3.621-1.522-4.345-1.63-1.302-6.247-.944-8.216-1.02-5.772-.222-11.529-.382-17.305-.176-2.97.106-5.922.313-8.887.47-1.247.065-2.444.283-3.643.626-1.289.368-1.437 2.939-1.773 4.068-3.434 11.524-4.265 23.732-.549 35.248 1.718 5.325 5.174 10.798 9.681 14.196 1.518 1.145 3.035 2.288 4.553 3.433.752.567 1.782.884 2.438 1.555 1.317 1.348-.297 1.521-.101 2.899.174 1.218 1.521 1.387 1.9 2.301 1.02 2.456.616 6.498.689 9.126.164 5.869-.032 11.731-.286 17.597-.146 3.38-.388 6.783-.73 10.148-.202 1.975-.262 4.012-.772 5.929-.33 1.239-.787 2.159-.101 3.399-3.57.824-7.065 1.7-10.701 2.13-1.682.199-3.437.471-5.07.917-.773.211-4.218 1.115-2.295 2.184 3.295 1.829 7.346 1.944 11.014 2.323 3.632.375 7.307.347 10.953.347" stroke="#000" stroke-width=".7"/></g><path d="m91.3 212.61c3.538.093 7.097.151 10.625-.213 3.385-.35 8.002-.254 10.982-2.117 3.101-1.938-4.953-3.053-6.307-3.27-3.849-.616-7.585-1.331-11.4-2.201 1.076-1.688-.254-4.25-.445-6.128-.294-2.879-.542-5.759-.777-8.644-.489-6.011-.678-11.997-.678-18.027 0-2.958.099-5.883.283-8.835.095-1.506.278-2.956.5-4.449.117-.787.342-.543.917-1.116.856-.852 1.225-1.353.65-2.5-.893-1.784 1.021-2.072 2.405-3.117 2.412-1.818 5.046-3.447 7.031-5.734 2.429-2.799 4.119-5.165 5.884-8.42 2.681-4.944 3.884-11.111 3.972-16.698.093-6.004-.562-11.867-1.865-17.731-.3-1.352-.533-2.734-.954-4.054-.345-1.079-.616-3.621-1.522-4.345-1.63-1.302-6.247-.944-8.216-1.02-5.772-.222-11.529-.382-17.305-.176-2.97.106-5.922.313-8.887.47-1.247.065-2.444.283-3.643.626-1.289.368-1.437 2.939-1.773 4.068-3.434 11.524-4.265 23.732-.549 35.248 1.718 5.325 5.174 10.798 9.681 14.196 1.518 1.145 3.035 2.288 4.553 3.433.752.567 1.782.884 2.438 1.555 1.317 1.348-.297 1.521-.101 2.899.174 1.218 1.521 1.387 1.9 2.301 1.02 2.456.616 6.498.689 9.126.164 5.869-.032 11.731-.286 17.597-.146 3.38-.388 6.783-.73 10.148-.202 1.975-.262 4.012-.772 5.929-.33 1.239-.787 2.159-.101 3.399-3.717.858-7.339 1.732-11.123 2.181-1.676.198-3.399.524-5.027.97-1.386.379-3.64 1.123-1.482 2.32 3.164 1.758 7.397 1.754 10.908 2.117 1.864.192 3.756.223 5.628.277 1.403.02 4.075.35 4.912-.09" fill="#e6e6e6"/><path d="m91.3 212.61c3.538.093 7.097.151 10.625-.213 3.385-.35 8.002-.254 10.982-2.117 3.101-1.938-4.953-3.053-6.307-3.27-3.849-.616-7.585-1.331-11.4-2.201 1.076-1.688-.254-4.25-.445-6.128-.294-2.879-.542-5.759-.777-8.644-.489-6.011-.678-11.997-.678-18.027 0-2.958.099-5.883.283-8.835.095-1.506.278-2.956.5-4.449.117-.787.342-.543.917-1.116.856-.852 1.225-1.353.65-2.5-.893-1.784 1.021-2.072 2.405-3.117 2.412-1.818 5.046-3.447 7.031-5.734 2.429-2.799 4.119-5.165 5.884-8.42 2.681-4.944 3.884-11.111 3.972-16.698.093-6.004-.562-11.867-1.865-17.731-.3-1.352-.533-2.734-.954-4.054-.345-1.079-.616-3.621-1.522-4.345-1.63-1.302-6.247-.944-8.216-1.02-5.772-.222-11.529-.382-17.305-.176-2.97.106-5.922.313-8.887.47-1.247.065-2.444.283-3.643.626-1.289.368-1.437 2.939-1.773 4.068-3.434 11.524-4.265 23.732-.549 35.248 1.718 5.325 5.174 10.798 9.681 14.196 1.518 1.145 3.035 2.288 4.553 3.433.752.567 1.782.884 2.438 1.555 1.317 1.348-.297 1.521-.101 2.899.174 1.218 1.521 1.387 1.9 2.301 1.02 2.456.616 6.498.689 9.126.164 5.869-.032 11.731-.286 17.597-.146 3.38-.388 6.783-.73 10.148-.202 1.975-.262 4.012-.772 5.929-.33 1.239-.787 2.159-.101 3.399-3.57.824-7.065 1.7-10.701 2.13-1.682.199-3.437.471-5.07.917-.773.211-4.218 1.115-2.295 2.184 3.295 1.829 7.346 1.944 11.014 2.323 3.632.375 7.307.347 10.953.347" fill="none" stroke="#bfbfbf" stroke-linecap="square" stroke-miterlimit="10" stroke-width=".1"/><path d="m91.3 212.61c3.538.093 7.097.151 10.625-.213 3.385-.35 8.002-.254 10.982-2.117 3.101-1.938-4.953-3.053-6.307-3.27-3.849-.616-7.585-1.331-11.4-2.201 1.076-1.688-.254-4.25-.445-6.128-.294-2.879-.542-5.759-.777-8.644-.489-6.011-.678-11.997-.678-18.027 0-2.958.099-5.883.283-8.835.095-1.506.278-2.956.5-4.449.117-.787.342-.543.917-1.116.856-.852 1.225-1.353.65-2.5-.893-1.784 1.021-2.072 2.405-3.117 2.412-1.818 5.046-3.447 7.031-5.734 2.429-2.799 4.119-5.165 5.884-8.42 2.681-4.944 3.884-11.111 3.972-16.698.093-6.004-.562-11.867-1.865-17.731-.3-1.352-.533-2.734-.954-4.054-.345-1.079-.616-3.621-1.522-4.345-1.63-1.302-6.247-.944-8.216-1.02-5.772-.222-11.529-.382-17.305-.176-2.97.106-5.922.313-8.887.47-1.247.065-2.444.283-3.643.626-1.289.368-1.437 2.939-1.773 4.068-3.434 11.524-4.265 23.732-.549 35.248 1.718 5.325 5.174 10.798 9.681 14.196 1.518 1.145 3.035 2.288 4.553 3.433.752.567 1.782.884 2.438 1.555 1.317 1.348-.297 1.521-.101 2.899.174 1.218 1.521 1.387 1.9 2.301 1.02 2.456.616 6.498.689 9.126.164 5.869-.032 11.731-.286 17.597-.146 3.38-.388 6.783-.73 10.148-.202 1.975-.262 4.012-.772 5.929-.33 1.239-.787 2.159-.101 3.399-3.717.858-7.339 1.732-11.123 2.181-1.676.198-3.399.524-5.027.97-1.386.379-3.64 1.123-1.482 2.32 3.164 1.758 7.397 1.754 10.908 2.117 1.864.192 3.756.223 5.628.277 1.403.02 4.075.35 4.912-.09" fill="#e6e0e6"/><path d="m91.3 212.61c3.538.093 7.097.151 10.625-.213 3.385-.35 8.002-.254 10.982-2.117 3.101-1.938-4.953-3.053-6.307-3.27-3.849-.616-7.585-1.331-11.4-2.201 1.076-1.688-.254-4.25-.445-6.128-.294-2.879-.542-5.759-.777-8.644-.489-6.011-.678-11.997-.678-18.027 0-2.958.099-5.883.283-8.835.095-1.506.278-2.956.5-4.449.117-.787.342-.543.917-1.116.856-.852 1.225-1.353.65-2.5-.893-1.784 1.021-2.072 2.405-3.117 2.412-1.818 5.046-3.447 7.031-5.734 2.429-2.799 4.119-5.165 5.884-8.42 2.681-4.944 3.884-11.111 3.972-16.698.093-6.004-.562-11.867-1.865-17.731-.3-1.352-.533-2.734-.954-4.054-.345-1.079-.616-3.621-1.522-4.345-1.63-1.302-6.247-.944-8.216-1.02-5.772-.222-11.529-.382-17.305-.176-2.97.106-5.922.313-8.887.47-1.247.065-2.444.283-3.643.626-1.289.368-1.437 2.939-1.773 4.068-3.434 11.524-4.265 23.732-.549 35.248 1.718 5.325 5.174 10.798 9.681 14.196 1.518 1.145 3.035 2.288 4.553 3.433.752.567 1.782.884 2.438 1.555 1.317 1.348-.297 1.521-.101 2.899.174 1.218 1.521 1.387 1.9 2.301 1.02 2.456.616 6.498.689 9.126.164 5.869-.032 11.731-.286 17.597-.146 3.38-.388 6.783-.73 10.148-.202 1.975-.262 4.012-.772 5.929-.33 1.239-.787 2.159-.101 3.399-3.57.824-7.065 1.7-10.701 2.13-1.682.199-3.437.471-5.07.917-.773.211-4.218 1.115-2.295 2.184 3.295 1.829 7.346 1.944 11.014 2.323 3.632.375 7.307.347 10.953.347" fill="none" stroke="#bfb6bf" stroke-linecap="square" stroke-miterlimit="10" stroke-width=".1"/><path d="m90 200.41c.198.264 0 .493.4.7-.837.482-1.674.966-2.512 1.448-.488.282-.165 1.909-.288 2.251-1.774-2.34 1.076-3.74 2.4-4.4" fill="#1a1a1a"/><path d="m90 200.41c.198.264 0 .493.4.7-.837.482-1.674.966-2.512 1.448-.488.282-.165 1.909-.288 2.251-1.446-1.906.445-4.174 2.5-4.299" fill="none" stroke="#1a1a1a" stroke-linecap="square" stroke-miterlimit="10" stroke-width=".1"/><path d="m88 201.31c.948-2.587.808-6.192 1.043-9.071.317-3.895.577-7.808.664-11.716.091-4.105.258-8.207.093-12.313-.085-2.104-.238-4.207-.374-6.308-.07-1.081 0-3.075-.626-3.692.223.03 2.101.177 2.101.252 0 2.35.018 4.699 0 7.049-.032 4.423-.131 8.849-.211 13.271-.084 4.68-.15 9.362-.293 14.041-.071 2.342-.14 4.683-.285 7.021-.05.8-1.326 1.05-2.112 1.47" fill="#fff"/><path d="m88 201.31c.948-2.587.808-6.192 1.043-9.071.317-3.895.577-7.808.664-11.716.091-4.105.258-8.207.093-12.313-.085-2.104-.238-4.207-.374-6.308-.07-1.081 0-3.075-.626-3.692.223.03 2.101.177 2.101.252 0 2.35.018 4.699 0 7.049-.032 4.423-.131 8.849-.211 13.271-.084 4.643-.161 9.286-.289 13.928-.063 2.246-.125 4.494-.265 6.737-.087 1.401-.985 1.075-2.035 1.862" fill="none" stroke="#a6a6a6" stroke-linecap="square" stroke-miterlimit="10" stroke-width=".1"/><path d="m89.7 180.71c.16-4.171.285-8.327.1-12.5-.09-2.03-.137-4.074-.3-6.1-.078-.967-.057-3.386-.7-3.9" fill="none" stroke="#4d4d4d" stroke-linecap="square" stroke-miterlimit="10" stroke-width=".1"/><path d="m72.4 94.813c4.551-.675 9.193-1 13.8-1" fill="none" stroke="#000" stroke-linecap="square" stroke-miterlimit="10" stroke-width=".1"/><path d="m94.601 153.81c5.144-2.968 9.994-6.139 13.335-11.212 3.312-5.029 5.953-10.865 6.472-16.967.265-3.119.498-6.186.393-9.321-.05-1.475-.196-2.952-.295-4.424-.011-.161-.985-.076-1.126-.076h-21.422-22.146-1.402c-.277 0-.439 3.722-.483 4.213-.266 2.999.066 6.066.32 9.052.503 5.918 2.752 11.801 5.991 16.721 3.547 5.389 8.382 8.782 13.806 12.079.559.34 2.913-.165 3.657-.165.798.01 2.584.23 2.91.11" fill="#800066"/><path d="m110.8 95.212c-1.957 1.689-7.026 1.167-9.477 1.261-3.346.129-6.685.239-10.032.239-3.473 0-6.937-.122-10.406-.26-2.547-.102-6.821.305-8.984-1.24" fill="none" stroke="#999" stroke-linecap="square" stroke-miterlimit="10" stroke-width=".2"/><path d="m102.7 96.513c-5.981.527-11.92.312-17.9.2" fill="none" stroke="#fff" stroke-linecap="square" stroke-miterlimit="10" stroke-width=".1"/><path d="m90.3 96.613c-5.721 0-12.135.389-17.699-1.1" fill="none" stroke="#333" stroke-linecap="square" stroke-miterlimit="10" stroke-width=".1"/><path d="m108.1 99.712c.915 5.404 1.196 11.027.899 16.5-.1 1.83.42 2.86-1.493 2.983-1.501.097-3.062.106-4.547.34-2.315.364-4.387 1.443-6.56 1.877.958-5.458-.051-11.182-.726-16.607-.078-.623-.301-3.593.185-3.593 1.418 0 2.838-.153 4.237-.369 2.47-.38 5.79-.46 8-1.128" fill="#fff"/><path d="m108.1 99.712c.915 5.404 1.196 11.027.899 16.5-.1 1.83.42 2.86-1.493 2.983-1.501.097-3.062.106-4.547.34-2.315.364-4.387 1.443-6.56 1.877.962-5.477-.235-10.954-.7-16.4-.057-.664-.523-3.33-.1-3.8.325-.361 3.415-.202 4.05-.3 2.814-.434 5.581-1.16 8.45-1.1" fill="none" stroke="#a6a6a6" stroke-linecap="square" stroke-miterlimit="10" stroke-width=".1"/><path d="m68.8 124.71c.905 6.622 2.942 12.709 7.101 18" fill="none" stroke="#4d4d4d" stroke-linecap="square" stroke-miterlimit="10" stroke-width=".6"/><path d="m69.101 113.91c2.173.1 2.3-.064 2.3 2.167 0 1.515-.101 3.021-.101 4.537 0 3.072.195 6.042.5 9.097-2.719-.883-2.657-4.963-2.773-7.281-.075-1.47-.027-2.94-.027-4.4 0-1.28.438-2.98.101-4.13" fill="#e6b8da"/><path d="m70.4 113.91c1.483-.29 1 2.056 1 3.037 0 1.371-.101 2.739-.101 4.112 0 2.921.211 5.746.5 8.65-1.61-1.902-1.451-5.069-1.574-7.407-.145-2.79.111-5.6.175-8.39" fill="#cc8fb8"/><path d="m72.101 96.013c-1.516 4.841-2.335 9.816-3.2 14.8" fill="none" stroke="#808080" stroke-linecap="square" stroke-miterlimit="10" stroke-width=".6"/><path d="m72.3 96.513c-1.438 4.849-2.473 9.884-3.1 14.9" fill="none" stroke="#b3b3b3" stroke-linecap="square" stroke-miterlimit="10" stroke-width=".6"/><path d="m69.5 105.11c-.307 3.446-1.031 6.821-1.235 10.298-.101 1.727-.176 4.731.235 6.103 0-2.952-.019-5.89.165-8.837.15-2.414 1.443-5.714 1.035-7.963-.025.19-.151.32-.2.4" fill="#fff"/><path d="m69.5 105.11c-.307 3.446-1.031 6.821-1.235 10.298-.101 1.727-.176 4.731.235 6.103 0-2.952-.019-5.89.165-8.837.15-2.414 1.443-5.714 1.035-7.963-.065.125-.048.271-.1.4" fill="none" stroke="#b3b3b3" stroke-linecap="square" stroke-miterlimit="10" stroke-width=".1"/><path d="m73.4 96.113c-1.096 4.755-1.7 9.713-1.7 14.6" fill="none" stroke="#fff" stroke-linecap="square" stroke-miterlimit="10" stroke-width=".6"/><path d="m109.1 112.01h4.2" fill="none" stroke="#999" stroke-linecap="square" stroke-miterlimit="10" stroke-width=".3"/><path d="m111.9 100.21c2.105 6.738 2.6 13.876 2.6 20.9-1.193-.821-.503-4.543-.64-6.176-.23-2.772-.264-5.687-.902-8.401-.575-2.451-2.399-6.424-1.658-8.823-.09.907.64 2.011.6 2.503" fill="#fff"/><path d="m111.9 100.21c2.105 6.738 2.6 13.876 2.6 20.9-1.193-.821-.503-4.543-.64-6.176-.23-2.772-.264-5.687-.902-8.401-.575-2.451-2.399-6.424-1.658-8.823-.093.946.51 1.706.7 2.6" fill="none" stroke="#999" stroke-linecap="square" stroke-miterlimit="10" stroke-width=".1"/><path d="m96 107.01c4.339-.896 8.209-2 12.7-2" fill="none" stroke="#e6e6e6" stroke-linecap="square" stroke-miterlimit="10" stroke-width=".5"/><path d="m109 111.71c.297 1.555.169 3.541-.025 5.108-.063.495.152 1.927-.175 2.292-.325.364-2.558.161-3.1.199-1.883.134-3.743.271-5.571.76-1.285.343-2.477 1.038-3.729 1.341.578-3.087.324-6.48.1-9.601 4.169-.03 8.329-.06 12.499-.1" fill="#e673cf"/><path d="m102.5 100.41c.272 3.788.046 7.645.7 11.399" fill="none" stroke="#e6e6e6" stroke-linecap="square" stroke-miterlimit="10" stroke-width=".5"/><path d="m72.5 131.71c2.246 4.828 4.498 8.96 8.5 12.6-2.833-4.2-5.667-8.4-8.5-12.6" fill="#cc8fb8"/><path d="m83.4 149.41c-.382-.082-.626-.174-.9.101 1.753 1.193 3.618 2.161 5.4 3.299-6.248-2.81-13.425-8.608-15.601-15.399 1.07.108 1.309 1.333 1.852 2.093.975 1.363 1.927 2.742 3 4.029 1.715 2.057 4.265 4.966 6.749 5.979-.217.05-.333-.04-.5-.1" fill="#cc8fb8"/><path d="m78.7 94.113c5.598 0 11.196-.3 16.8-.3" fill="none" stroke="#e6e6e6" stroke-linecap="square" stroke-miterlimit="10" stroke-width=".1"/><path d="m110.4 95.513c-.665.269-1.384.31-2.101.4 1.115.197.958.295 1.4 1.2.553 1.13.95 2.544 1.8 3.5.38-1.166-.151-2.706-.448-3.893-.338-1.35-.574-1.07-1.651-.808.3-.108 1-.398 1-.396" fill="#807380"/><path d="m110.4 95.513c-.665.269-1.384.31-2.101.4 1.115.197.958.295 1.4 1.2.553 1.13.95 2.544 1.8 3.5.38-1.166-.151-2.706-.448-3.893-.338-1.35-.574-1.07-1.651-.808.354-.157.741-.306 1.1-.4" fill="none" stroke="#665766" stroke-linecap="square" stroke-miterlimit="10" stroke-width=".1"/><path d="m112.4 120.11c-2.04 11.986-6.65 24.283-18.994 28.661-1.36.482-5.711-.552-6.456.938-.235.471.742 1.657 1.05 1.9.845.669 2.833.952 3.877.89 3.048-.18 5.729-.729 8.497-2.03 1.071-.505 2.171-1.979 3.078-2.79 1.093-.978 2.162-1.994 3.086-3.134 3.678-4.543 5.503-9.882 6.168-15.648.367-3.185.557-6.274.656-9.48.011-.318.188-2.16-.362-2.207-.65-.05-.63 2.55-.61 2.9" fill="#4d003d"/><path d="m95.9 151.51c-2.588 1.491-5.813 1.431-8.4 0 2.563.76 6.199 1.18 8.4 0" fill="#ccc"/><path d="m95.9 151.51c-2.588 1.491-5.813 1.431-8.4 0 2.563.76 6.199 1.18 8.4 0" fill="none" stroke="#ccc" stroke-linecap="square" stroke-miterlimit="10" stroke-width=".1"/><path d="m79.101 114.31c.12 4.127-1.216 10.255.899 14" fill="none" stroke="#ccc" stroke-linecap="square" stroke-miterlimit="10" stroke-width=".3"/><path d="m80.4 130.81c.284 1.136.518 2.306.899 3.4" fill="none" stroke="#ccc" stroke-linecap="square" stroke-miterlimit="10" stroke-width=".1"/><path d="m69 123.01c.571.591 1.602 1.06 2.4 1.199" fill="none" stroke="#4d003d" stroke-linecap="square" stroke-miterlimit="10" stroke-width="1.3"/><path d="m93.3 157.11c.112-.832.061-1.946.5-2.7.841-1.442 3.682-2.461 5.158-3.352 4.014-2.423 7.447-5.963 9.942-9.898 5.737-9.048 5.961-19.081 5.3-29.45" fill="none" stroke="#ccc" stroke-linecap="square" stroke-miterlimit="10" stroke-width=".3"/><path d="m68.601 111.61c-.644 1.552-.4 4.267-.4 6.118 0 2.597.173 5.114.394 7.704.407 4.779 2.316 9.3 4.273 13.604 1.956 4.304 5.691 7.807 9.244 10.767 1.815 1.513 3.935 2.581 5.97 3.778 1.248.734.997 2.123 1.219 3.43" fill="none" stroke="#ccc" stroke-linecap="square" stroke-miterlimit="10" stroke-width=".3"/><path d="m91 158.11c1.191.05 3.807-.456 3.8-2.1-.007-1.604-2.523-2.096-3.699-2.101-1.263-.005-3.663.459-3.7 2.101-.039 1.67 2.721 2.18 3.599 2.1" fill="#a69da6"/><path d="m94.5 157.31c1.661-1.446-.702-4.168-2.3-3.199.471.44 1.081.901 1.3 1.699.175.64-.473 2.14 1 1.5" fill="#4d3d4d"/><path d="m94 157.41c-2.146 1.892-9.439-.415-5.85-2.8.593-.395 1.51-.431.55.05-1.256.628-1.656 1.593-.5 2.55.895.74 2.858.97 3.95.75.528-.105.965-.294 1.45-.449.471-.15.422-.16.4-.1" fill="#fff"/><path d="m94 157.41c-2.146 1.892-9.439-.415-5.85-2.8.737-.49 1.019-.58.649 0-.481.757-2.337 1.299-.8 2.449 1.039.778 2.624 1.047 3.9.951.71-.054 1.976-.677 2.1-.5" fill="none" stroke="#fff" stroke-linecap="square" stroke-miterlimit="10" stroke-width=".1"/><path d="m92.601 158.01c-1.17.394-2.821.281-4-.201-1.19-.487-2.424-2.034-.9-2.899" fill="none" stroke="#404040" stroke-linecap="square" stroke-miterlimit="10" stroke-width=".2"/><path d="m93.8 158.01c-.278.172-1.8.432-1.8.556v5.944c0 3.147-.794 7.401 0 10.299.517-5.53 1.873-11.24 1.8-16.8" fill="#808080"/><path d="m93.8 158.01c-.278.172-1.8.432-1.8.556v5.944c0 3.147-.794 7.401 0 10.299.516-5.511 1.809-11.164 1.8-16.699" fill="none" stroke="#808080" stroke-linecap="square" stroke-miterlimit="10" stroke-width=".1"/><path d="m93.7 158.11c-.276.035-.223.219-.4.1-1.624 7.661-1.448 15.894-1.599 23.725-.083 4.35-.001 8.71-.001 13.06 0 .635-.128 5.312.149 5.312 1.064 0 2.264.28 3.15.9-.279-1.44-.363-3.028-.5-4.5-.058-.626.1-1.445-.314-1.935-.858-1.015-.987-1.205-1.035-2.515-.145-3.906-.234-7.813-.332-11.721-.092-3.659-.019-7.3-.019-10.959 0-1.962.051-3.912.2-5.871.124-1.62.897-4.19.701-5.6" fill="#4d3d4d"/><path d="m95.5 155.51c.562 1.587-1.061 1.694-1.7 2.6-.819 1.16-.741 4.17-.8 5.6" fill="none" stroke="#999" stroke-linecap="square" stroke-miterlimit="10" stroke-width=".4"/><path d="m91.3 205.61c.725.149 4.882-.079 3.801-.801 3.856.891 7.612 1.579 11.5 2.201 1.819.291 6.507.469 7.3 2.399-2.207 2.052-7.212 1.889-10.086 2.195-4.146.442-8.256.499-12.414.505-4.015.006-7.997-.022-12-.45-3.005-.32-8.294-.108-10.601-2.25.794-1.931 5.481-2.108 7.301-2.399 3.888-.622 7.644-1.311 11.5-2.201-1.104.75 3.375.99 3.704.81" fill="#261926"/><path d="m112.2 210.21c-8.52 2.436-17.855 1.9-26.6 1.9" fill="none" stroke="#000" stroke-linecap="square" stroke-miterlimit="10" stroke-width=".1"/><path d="m91.3 210.11c-3.56-.118-7.854-.006-11.199-1.4-2.477-1.032-1.015-1.943.803-2.361 2.232-.513 4.465-1.026 6.697-1.539-1.105.735 3.114.903 3.8.9.685-.003 4.801-.166 3.7-.9l6.696 1.539c1.816.418 3.281 1.328.804 2.361-1.595.665-3.905.98-5.616 1.108-1.596.12-4.206.73-5.684.29" fill="#403040"/><path d="m79.3 208.31c2.367-.833 4.733-1.667 7.101-2.5-.844-.847-4.639.789-5.882 1.108-.565.145-1.864.161-1.918.792-.03.35.641.6.699.6" fill="#bfbfbf"/><path d="m79.3 208.31c2.367-.833 4.733-1.667 7.101-2.5-.808-.811-4.215.681-5.396.983-.752.193-3.779.744-1.704 1.617" fill="none" stroke="#bfbfbf" stroke-linecap="square" stroke-miterlimit="10" stroke-width=".1"/><path d="m94.7 201.41c.335.641 1.275 3.3-.101 3.3-.721 0-1.703.086-2.049-.6-.389-.77.749-1.469.749-2.35.001-1.15.463-.82 1.401-.35" fill="#404040"/><path d="m94.7 201.41c.335.641 1.275 3.3-.101 3.3-.721 0-1.703.086-2.049-.6-.389-.77.749-1.469.749-2.35.001-1.15.463-.82 1.401-.35" fill="none" stroke="#404040" stroke-linecap="square" stroke-miterlimit="10" stroke-width=".1"/><path d="m93.601 201.21c.442.79.24 2.143-.2 2.9" fill="none" stroke="#0d0d0d" stroke-linecap="square" stroke-miterlimit="10" stroke-width=".3"/><path d="m89.7 201.01c-1.179.541-3.619 2.406-1.7 3.699-.357-.838-.314-2.076.75-2.5.221-.088 1.96-.364 1.95-.8-.011-.46-.624-.47-1-.4" fill="#fff"/><path d="m89.7 201.01c-1.179.541-3.619 2.406-1.7 3.699-.357-.838-.314-2.076.75-2.5.221-.088 1.96-.364 1.95-.8-.011-.46-.624-.47-1-.4" fill="none" stroke="#fff" stroke-linecap="square" stroke-miterlimit="10" stroke-width=".1"/><path d="m95.601 205.21c-.346.339-.819.525-1.301.6 1.272.971 2.785 2.668 4.301 2.801 1.313.115 2.795-1.062 4.1-.6-.066.066-.134.133-.2.199.044.204.246.021.101.4.675-.009 2.359-1.061 1.038-1.391-2.68-.67-5.36-1.34-8.039-2.01" fill="#8c8c8c"/><path d="m95.601 205.21c-.346.339-.819.525-1.301.6 1.272.971 2.785 2.668 4.301 2.801 1.313.115 2.795-1.062 4.1-.6-.066.066-.134.133-.2.199.044.204.246.021.101.4.691-.009 1.792-.576 1.399-1.301" fill="none" stroke="#1a1a1a" stroke-linecap="square" stroke-miterlimit="10" stroke-width=".3"/><path d="m95.1 205.81 3.3 2.5" fill="none" stroke="#a6a6a6" stroke-linecap="square" stroke-miterlimit="10" stroke-width=".4"/><path d="m104.1 207.71c-2.745-.245-5.433-1.766-8-2.199 4.93 1.122 9.819 2.133 14.8 3v.199c-2.41-.48-4.49-.58-6.8-1" fill="#0d0d0d"/><path d="m104.1 207.71c-2.745-.245-5.433-1.766-8-2.199 4.93 1.122 9.819 2.133 14.8 3v.199c-2.353-.471-4.477-.471-6.7-1" fill="none" stroke="#0d0d0d" stroke-linecap="square" stroke-miterlimit="10" stroke-width=".1"/><path d="m78.5 207.41c-1.172-.044-9.936.434-9.6 2 .478 2.229 8.867-.86 10.399-1-.46-.22-.81-.74-.799-1" fill="#736273"/><path d="m87.9 204.61c1.208 1.003 3.335.6 4.8.6" fill="none" stroke="#000" stroke-linecap="square" stroke-miterlimit="10" stroke-width=".1"/><path d="m98.2 111.71c3.79-.541 6.837-1.933 10.8-1.7" fill="none" stroke="#e6e6e6" stroke-linecap="square" stroke-miterlimit="10" stroke-width=".5"/><path d="m85.2 112.01h23.9" fill="none" stroke="#4d4d4d" stroke-linecap="square" stroke-miterlimit="10" stroke-width=".3"/><path d="m68.8 209.41c1.69 2.642 7.9 2.565 10.65 2.851 3.945.407 7.899.449 11.861.449 3.805 0 7.617-.003 11.406-.395 2.981-.309 9.271-.161 11.183-2.905" fill="none" stroke="#4d4d4d" stroke-linecap="square" stroke-miterlimit="10" stroke-width=".1"/><path d="m103.1 111.71c.318 2.702.055 5.21-.2 7.9" fill="none" stroke="#4d003d" stroke-linecap="square" stroke-miterlimit="10" stroke-width=".5"/><path d="m96.7 117.11c4.332-.651 7.937-2.234 12.4-2" fill="none" stroke="#4d003d" stroke-linecap="square" stroke-miterlimit="10" stroke-width=".5"/></g></svg>