<svg fill-rule="evenodd" height="600" image-rendering="optimizeQuality" shape-rendering="geometricPrecision" text-rendering="geometricPrecision" viewBox="0 0 600 600" width="600" xmlns="http://www.w3.org/2000/svg"><path d="m0 0h600v600h-600z" fill="#fff"/><g fill="#009a3b"><path d="m0 0h300 300v300 300h-300-300zm259 553c21-11 49-30 77-55 30-25 53-49 74-75 27-32 46-65 51-90 2-13 2-36 0-50-5-27-16-52-33-72-20-25-48-40-75-41-19-1-37 3-55 12-15 7-26 14-38 26-4 5-8 8-8 8s-4-3-8-7c-19-19-41-32-65-37-32-7-60 0-86 20-27 23-47 60-52 98-2 16-1 35 3 48 9 35 38 79 85 125 38 38 83 73 115 90 4 1 7 3 8 3 0 0 3-1 7-3zm253-393v-28l29-1h30v-24-24h-29c-22 0-29-1-30-1 0-1 0-8 0-29v-29h-27-26v28c0 25 0 29-1 30 0 1-4 1-30 1h-29v24 24h30c26 0 29 0 30 1v29 27h26 26z"/><path d="m201 479c-1-1 10-26 24-57 13-31 24-57 24-58l1-1h-35c-31-1-34-1-34-2 0 0 21-26 56-68 31-37 57-68 58-69 2-2 3-2 3-1s-10 25-22 54c-12 30-22 54-22 54 0 1 6 1 33 1 23 0 32 1 32 1 0 1-116 145-117 146-1 0-1 0-1 0z"/></g></svg>