<svg height="400" viewBox="0 0 178 178" width="400" xmlns="http://www.w3.org/2000/svg"><path d="m0 0h178v178h-178z" fill="#fff"/><g fill-rule="evenodd"><path d="m5 5h168v168h-168z" fill="#085"/><g fill="#fff"><path d="m44.9 117.94v-29.1c0-2.52 2.2-4.2 4.5-4.2h27.3c-.1 3.44 2.3 5.86 4.2 8.4h-6.9c-5 0-7.5 3.11-7.5 8.7v16.2h-9.6v-21.9h-4.2v21.9zm25.8 9.9v-26.4c0-3.03 2-4.5 4.8-4.5h27c3.3 0 4.8 2.79 4.8 4.2v26.7h-5.7v-21.3h-4.2v21.3h-16.5v-21.3h-4.5v21.3zm62.4-9.9v-27.9c0-3.05-1.6-5.4-4.5-5.4h-27.3c0 3.31-2.3 5.9-4.2 8.4h6.6c4.7 0 7.8 4.08 7.8 8.7v16.2h9.6v-21.9h4.2v21.9z"/><path d="m97.86 58.49a8.855 8.855 0 0 1 -17.71 0 8.855 8.855 0 1 1 17.71 0z"/><path d="m122.54 71.069a8.8551 8.8551 0 0 1 -17.71 0 8.8551 8.8551 0 1 1 17.71 0z"/><path d="m72.283 70.693a8.8551 8.8551 0 0 1 -17.71 0 8.8551 8.8551 0 1 1 17.71 0z"/><path d="m97.702 83.413a8.8551 8.8551 0 0 1 -17.71 0 8.8551 8.8551 0 1 1 17.71 0z"/><path d="m14.761 8.9-5.861 5.596 26.375 26.503h-18.561l7.816 7.951h24.42v-23.853l-7.814-7.951v18.258z"/><path d="m163.24 8.902 5.86 5.59-26.38 26.507h18.56l-7.81 7.951h-24.42v-23.858l7.81-7.95v18.26z"/><path d="m14.761 169.1-5.861-5.6 26.375-26.5h-18.561l7.816-7.95h24.42v23.85l-7.814 7.95v-18.26z"/><path d="m163.24 169.1 5.86-5.59-26.38-26.51h18.56l-7.81-7.95h-24.42v23.86l7.81 7.95v-18.26z"/></g></g></svg>