<svg height="16" width="16" xmlns="http://www.w3.org/2000/svg"><path d="m1.792253.00176061c-1.14729917 0-1.792253.59215-1.792253 1.80201999v12.4719804c0 1.13171.57994055 1.72424 1.726228 1.72424h12.546522c1.146528 0 1.72725-.56291 1.72725-1.72424v-12.4719804c0-1.18038999-.580722-1.80201999-1.763142-1.80201999-.00008 0-12.4485419-.004-12.444605 0z" fill="#4d4d4d"/><g fill="none" stroke="#fff" stroke-linecap="round" stroke-linejoin="round" stroke-width="37.050331" transform="matrix(.03016554 0 0 .02741884 -.262751 -.49455)"><path d="m51.484508 291.68574h131.121442l-58.06063-69.35799"/><path d="m51.484508 296.87387h131.121442l-58.06063 69.35799"/></g><path d="m9 4h4v8h-4z" fill="#fff"/><path d="m7 6h8v4h-8z" fill="#fff"/><g fill="#f00"><path d="m10 5h2v6h-2z"/><path d="m8 7h6v2h-6z"/></g></svg>