<svg height="1000" width="1000" xmlns="http://www.w3.org/2000/svg"><path d="m563.20227 25.983147a14.747191 25.983147 0 0 1 14.74719-25.983147 14.747191 25.983147 0 0 1 14.74719 25.983147" fill="#00f" transform="matrix(2.1904762 0 0 1.7567568 -413.45641 54.77528)"/><circle cx="748" cy="412" fill="#333" r="77" transform="matrix(-1 0 0 1 1000.5636 0)"/><path d="m704.78238 86.8125 179.71875 12.40625c30.47969 2.30812 21.17696-5.964782 54.875 83.46875 32.75021 83.89734 27.22785 54.69534 26.875 98.9375v99c-.27094 25.8873-4.14714 32.25908-32.25 32.46875-4.06576-130.67211-191.17929-131.13315-194.90625.75l-389.0625.25c.18769-33.99395-14.18774-59.89665-37.1875-78.6875l391.9375-.3125v-101.9375h41.5625v-105.34375h-41.5625zm76.28125 40.90625 1.5625 105.46875 132.625 15.53125c23.51693 3.05984 24.87949-3.12824 16.28125-24.0625l-25.59375-68.25c-6.42718-21.15547-6.57284-21.24684-24.8125-22.46875zm-588.9375 207.84375c-23.83155 19.10818-37.29341 46.28246-37.0625 78.625l-56.718748.0625-64.59375-22.875.1875-55.78125z" fill="#d40000" fill-rule="evenodd"/><path d="m705.46988 86.59375v41.21875h-115.03125v105.34375h115.03125v104.59375h-670.656248v-251.15625h512.093748v228h18.25v-228z" fill="#d40000"/><circle cx="164" cy="412" fill="#333" r="77" transform="matrix(-1 0 0 1 1000.5636 0)"/><path d="m58.988766 112.35955h223.31461v203.65169h-223.31461z" fill="#333"/><path d="m58.988766 112.35955h223.31461v203.65169h-223.31461z" fill="#808080"/><path d="m296.34833 110.95506h223.31461v203.65169h-223.31461z" fill="#808080"/><g fill="none"><path d="m853.93264 48.318081v-40.5928699" stroke="#00f" stroke-width="10.7645"/><path d="m871.91661 52.531564 23.02074-33.433916" stroke="#00f" stroke-width="10.7645"/><path d="m835.94859 51.12707-23.02074-33.433916" stroke="#00f" stroke-width="10.7645"/></g><path d="m960 740c0-70-120-200-340-200-170-10-305.15949 23.74509-380 100-50 70-81.91752 183.4708-60 220 30 50 231.24257 188.7978 620 60 98.77591-44.86061 161.61857-101.69254 160-180z" fill="#2090cf"/><path d="m300 780c-40 0-220 20-220-80-.88265-79.15429 60-60 80-120 20-80-80-80-60-200" fill="none" stroke="#f60" stroke-linecap="round" stroke-width="70"/></svg>