<svg height="16" width="16" xmlns="http://www.w3.org/2000/svg"><g transform="translate(-767.63214 -289.54467)"><path d="m767.63214 289.5285h16v16h-16z" fill="#333"/><g transform="matrix(.04078562 0 0 .04078562 767.78237 274.24304)"><path d="m331.94786 761.34772s33.78147-78.4488 32.13874-117.88126c-1.64273-39.43245-40.80405-99.32339-39.6378-132.25702 1.16625-32.93362 23.93544-55.41638 17.85487-74.75396s-22.82671-36.29032-39.63781-36.29032c-16.81109 0-30.70046 16.95275-36.78103 36.29032s16.68862 41.82034 17.85487 74.75396c1.16625 32.93363-37.99507 92.82457-39.6378 132.25702-1.64273 39.43246 29.28198 117.88126 29.28198 117.88126z" fill="#fff" fill-rule="evenodd" stroke="#000" stroke-width="5.015412"/><path d="m284.65128 500.23621h38.880768v38.222721h-38.880768z" fill="#f00"/></g><g fill="#fff"><path d="m772.18408 297.95572q0-2.2522.60425-3.41187.61035-1.15966 1.79443-1.15966 1.04981 0 1.65406.93994.73242 1.13525.73242 3.63159 0 2.23999-.60425 3.40576-.60425 1.15967-1.79443 1.15967-1.04981 0-1.72119-1.02539-.66529-1.02539-.66529-3.54004zm.92163 0q0 2.17895.41504 2.92358.42114.73853 1.07422.73853.61646 0 1.03149-.75073.41504-.75074.41504-2.91138 0-2.18506-.42114-2.92358-.41504-.73853-1.08032-.73853-.61035 0-1.02539.75073-.40894.75073-.40894 2.91138z" transform="matrix(1.0297514 0 0 1 -23.436212 .035591)"/><path d="m770.7179 302.49756h-.90332v-7.00073q-.31128.36621-.83619.75073-.5249.37842-.96435.57373v-1.06201q.74463-.42725 1.31225-1.0437.57373-.61646.80567-1.2024h.58594z"/></g></g></svg>