<svg height="16" width="16" xmlns="http://www.w3.org/2000/svg"><path d="m0-.01617h16v16h-16z" fill="#333"/><g transform="matrix(.04078562 0 0 .04078562 .15023 -15.30163)"><path d="m331.94786 761.34772s33.78147-78.4488 32.13874-117.88126c-1.64273-39.43245-40.80405-99.32339-39.6378-132.25702 1.16625-32.93362 23.93544-55.41638 17.85487-74.75396s-22.82671-36.29032-39.63781-36.29032c-16.81109 0-30.70046 16.95275-36.78103 36.29032s16.68862 41.82034 17.85487 74.75396c1.16625 32.93363-37.99507 92.82457-39.6378 132.25702-1.64273 39.43246 29.28198 117.88126 29.28198 117.88126z" fill="#fff" fill-rule="evenodd" stroke="#000" stroke-width="5.015412"/><path d="m284.65128 500.23621h38.880768v38.222721h-38.880768z" fill="#f00"/></g><path d="m769.68704 300.62961 1.13593-.11791q.27198 1.70974 1.5999 1.70974.59196 0 1.07194-.36848.48797-.37585.82394-1.32652.33599-.95068.33599-2.21825v-.2653q-.36799.65589-.99194 1.03911-.62397.38322-1.27193.38322-1.17592 0-2.03187-.94331-.84795-.95067-.84795-2.59409 0-1.695.87994-2.66779.88795-.98015 2.15188-.98015.89594 0 1.67189.54535.77596.54535 1.19993 1.60657.42397 1.06121.42397 3.05837 0 2.22561-.45597 3.45633-.45597 1.23072-1.23993 1.79818-.77595.56746-1.74389.56746-1.09593 0-1.83189-.68537-.73595-.69274-.87994-1.99716zm4.8397-4.76812q0-1.15702-.55996-1.82028-.55997-.66326-1.28792-.66326-.75996 0-1.35992.70747-.59197.70748-.59197 1.88662 0 1.06122.56797 1.695.56796.62641 1.35992.62641.78395 0 1.32792-.63378.54396-.63378.54396-1.79818z" fill="#fff" transform="translate(-767.63214 -289.54467)"/></svg>