<svg height="420" width="420" xmlns="http://www.w3.org/2000/svg"><g transform="translate(-192.14286 -170.57647)"><path d="m192.14285 170.57646h420v420h-420z" fill="#fff"/><path d="m-617.14283-679.28571a105.71429 105.71429 0 0 1 -105.71429 105.71429 105.71429 105.71429 0 0 1 -105.71428-105.71429 105.71429 105.71429 0 0 1 105.71428-105.71428 105.71429 105.71429 0 0 1 105.71429 105.71428z" transform="matrix(1.2027027 0 0 1.2027027 1331.525 1198.2695)"/><path d="m-94.285709-666.42859a52.857143 52.857143 0 0 1 -52.857141 52.85714 52.857143 52.857143 0 0 1 -52.85715-52.85714 52.857143 52.857143 0 0 1 52.85715-52.85714 52.857143 52.857143 0 0 1 52.857141 52.85714z" fill="#2a7fff" transform="matrix(1.6936937 0 0 1.6936937 711.35776 1510.0167)"/><path d="m-5.7142868-509.28574a30 30 0 0 1 -30.0000002 30 30 30 0 0 1 -30-30 30 30 0 0 1 30-30 30 30 0 0 1 30.0000002 30z" fill="#f00" transform="matrix(1.8587301 0 0 1.8587301 528.52605 1327.9155)"/><path d="m0-405a14.285714 14.285714 0 0 1 -14.285714 14.28571 14.285714 14.285714 0 0 1 -14.285714-14.28571 14.285714 14.285714 0 0 1 14.285714-14.28571 14.285714 14.285714 0 0 1 14.285714 14.28571z" fill="#ff0" transform="matrix(1.9666667 0 0 1.9666667 490.23807 1177.7908)"/><g fill="none" stroke="#000" transform="translate(-108.57143 -2.857143)"><path d="m394.28572 178.07647s15.98315 12.46219 14.28571 45.71428-68.23874 106.98864-68.57143 160 66.36284 132.23266 68.57143 165.71429-11.42857 42.85714-11.42857 42.85714" stroke-width="15"/><path d="m408.57143 552.36218v-334.28572" stroke-width="10"/></g></g></svg>