<svg enable-background="new 0 0 300 300" height="300" viewBox="0 0 300 300" width="300" xmlns="http://www.w3.org/2000/svg"><rect fill="#fff" fill-rule="evenodd" height="300" ry="1.532498" width="300"/><path d="m108.422 50.727c10.115-4.038 21.298-1.269 30.866 2.97 10.676 5.017 21.583 12.316 25.963 23.775 1.965 4.676.675 10.132-2.701 13.797-2.656 2.269-6.434 1.636-9.617 1.315-7.225-1.551-11.648-7.978-17.263-12.188-4.867-4.284-10.048-8.922-16.636-10.107-5.877-.971-10.982 2.918-14.749 6.952-5.669 6.993-9.25 15.397-12.042 23.882-1.814 7.4-5.674 14.461-5.209 22.271-.552-7.204-2.607-14.216-2.804-21.455-.368-9.334.816-18.72 3.16-27.745 4.299-9.672 10.943-19.245 21.032-23.467z"/><path d="m200.646 56.913c7.323-.85 15.021 2.023 19.936 7.537 3.334 4.104 5.573 9.274 5.537 14.615-.646 6.494-3.914 12.911-9.367 16.643-6.428 4.556-15.215 5.505-22.448 2.347-10.746-4.083-17.004-17.916-11.48-28.365 3.107-7.108 10.272-11.733 17.822-12.777z"/><path d="m276.883 94.662c.434-.024.871-.035 1.313-.027-.185 3.852.819 7.701.184 11.538-1.017 6.596-3.673 12.791-6.55 18.764-6.32 14.098-18.271 25.74-32.761 31.219-6.652 2.346-14.544 2.166-20.538-1.839-9.694-6.33-17.318-15.983-20.652-27.126-2.111-6.018-2.184-13.245 1.445-18.699 1.814-2.39 4.266-5.059 7.545-4.88 3.388.313 6.416 2.348 8.462 5 4.817 6.323 5.825 14.547 9.796 21.298 3.322 4.354 8.694 9.526 14.633 6.979 7.157-3.026 13.181-8.173 19-13.22 7.358-6.328 12.479-14.775 16.567-23.473.821-1.745 1.394-3.605 1.556-5.534z"/><path d="m98.081 135.092c4.257-3.605 10.544-3.255 15.495-1.452 4.974 2.115 10.214 3.749 14.755 6.757 7.051 4.518 13.789 9.584 19.817 15.404 6.811 5.506 13.136 11.648 18.556 18.54 4 4.705 8.176 10.202 7.861 16.718-2.955 9.494-11.091 16.436-19.554 21.081-11.224 5.707-23.743 7.972-35.739 11.474-5.188 1.675-10.634 2.285-16.029 2.865-6.109.33-12.251 1.591-18.356.51 3.912-2.844 8.648-4.108 12.948-6.214 12.347-5.33 23.968-12.164 35.998-18.153 5.096-2.467 10.087-5.611 13.001-10.634-.156-1.104-.308-2.205-.455-3.304-3.425-3.467-7.653-5.944-12.011-8.045-5.085 4.203-10.947 7.4-15.631 12.093-12.854 9.567-27.063 17.068-40.752 25.346-18.428 10.356-35.862 22.431-54.64 32.177-1.094.393-2.215.697-3.362.916 7.211-7.857 15.608-14.544 22.708-22.509 10.246-10.732 20.492-21.47 31.182-31.764 11.29-10.871 22.263-22.063 32.726-33.733-4.413-4.08-10.111-7.839-11.452-14.096-1.274-4.733-.524-10.323 2.934-13.977z"/></svg>