<svg height="470.85999" width="470" xmlns="http://www.w3.org/2000/svg" xmlns:xlink="http://www.w3.org/1999/xlink"><radialGradient id="a" cx="257.64386" cy="341.40033" gradientTransform="scale(1.020069 .980326)" gradientUnits="userSpaceOnUse" r="555.5459"><stop offset="0" stop-color="#997c75"/><stop offset="1" stop-color="#929648"/></radialGradient><linearGradient id="b" gradientTransform="scale(.965896 1.035308)" gradientUnits="userSpaceOnUse" x1="457.40964" x2="602.93018" y1="292.32196" y2="528.50598"><stop offset="0" stop-color="#f00"/><stop offset="1" stop-color="#761414"/></linearGradient><linearGradient id="c" gradientTransform="scale(1.021654 .978805)" gradientUnits="userSpaceOnUse" x1="301.9812" x2="481.55508" y1="354.11786" y2="624.12701"><stop offset="0" stop-color="#fff"/><stop offset="1" stop-color="#929648" stop-opacity="0"/></linearGradient><g transform="translate(-182.14285 -260.21931)"><path d="m637.14285 486.64789a220 211.42857 0 1 1 -440 0 220 211.42857 0 1 1 440 0z" fill="url(#a)" fill-rule="evenodd"/><path d="m394.85268 292.15625c-72.59739 7.04555-140.81659 54.65887-169.32573 122.2627-32.74849 74.35859-9.74472 168.68426 53.2618 219.89124 62.97867 54.68008 159.72173 66.39398 233.585 27.36605 61.94558-31.50119 106.91856-97.12439 107.82729-167.39289 3.46268-70.73604-37.17755-140.74436-98.97104-174.76283-38.01089-21.93709-82.72401-31.24943-126.37732-27.36427z" fill="url(#c)" fill-rule="evenodd" opacity=".68"/><g fill="none" stroke-linejoin="round"><path d="m325.71428 292.36218c95.06814-.39613 108.87949 73.97766 80 117.14286-37.12034 74.2632-80.36372 119.63628-42.85714 174.28571 33.06874 44.49731 124.09255 66.91148 148.57143-40 32.06115-64.43859 56.6275-91.94392 120-65.71428" stroke="url(#b)" stroke-dasharray="50 25" stroke-width="25"/><path d="m637.14285 486.64789a220 211.42857 0 1 1 -440 0 220 211.42857 0 1 1 440 0z" stroke="#000" stroke-width="30"/></g></g></svg>