<svg height="251.88049" width="252.26271" xmlns="http://www.w3.org/2000/svg" xmlns:xlink="http://www.w3.org/1999/xlink"><radialGradient id="a" cx="362.17661" cy="386.00372" gradientTransform="matrix(1.137734 .8803895 -.611057 .7896716 185.98624 -237.57876)" gradientUnits="userSpaceOnUse" r="126.13136"><stop offset="0" stop-color="#ffd52a"/><stop offset="1" stop-color="#ff7f2a"/></radialGradient><g stroke="#000" transform="translate(-274.91695 -319.59866)"><path d="m290.0785 500.00544c-30.11295-61.16013-4.83796-135.19883 56.41738-165.26497s135.4093-4.83043 165.52224 56.32969c30.11294 61.16013 4.83796 135.19884-56.41738 165.26497-61.19954 30.03875-135.27102 4.89016-165.44407-56.1712" fill="url(#a)" stroke-width="4.924308"/><g fill="none" stroke-width="4.394742"><path d="m278.66319 433.19164c19.44633-47.32695 235.46979-.82308 244.77022 24.69233"/><path d="m430.85192 324.54541c103.99563 36.62695 55.80254 231.28477-41.8519 243.2194"/><path d="m349.6846 333.18772c59.18451 4.93847 98.07718 93.83084 161.06641 61.73082"/><path d="m295.15031 510.97246c84.97204 12.7577 197.84535-105.35392 205.45478 8.64232"/></g></g></svg>