<svg height="140" width="140" xmlns="http://www.w3.org/2000/svg"><g transform="translate(-257.14284 -335.21933)"><path d="m257.14285 335.21936h140v140h-140z" fill="#fff"/><g stroke-width="5"><path d="m339.99999 342.36218a15.714286 15.714286 0 0 1 -15.71428 15.71429 15.714286 15.714286 0 0 1 -15.71429-15.71429 15.714286 15.714286 0 0 1 15.71429-15.71428 15.714286 15.714286 0 0 1 15.71428 15.71428z" fill="#999" transform="translate(48.571429 14.285715)"/><path d="m339.99999 342.36218a15.714286 15.714286 0 0 1 -15.71428 15.71429 15.714286 15.714286 0 0 1 -15.71429-15.71429 15.714286 15.714286 0 0 1 15.71429-15.71428 15.714286 15.714286 0 0 1 15.71428 15.71428z" fill="#999" transform="translate(-42.857147 34.285714)"/><path d="m339.99999 342.36218a15.714286 15.714286 0 0 1 -15.71428 15.71429 15.714286 15.714286 0 0 1 -15.71429-15.71429 15.714286 15.714286 0 0 1 15.71429-15.71428 15.714286 15.714286 0 0 1 15.71428 15.71428z" fill="#999" transform="translate(8.571426 111.42858)"/><path d="m339.99999 342.36218a15.714286 15.714286 0 0 1 -15.71428 15.71429 15.714286 15.714286 0 0 1 -15.71429-15.71429 15.714286 15.714286 0 0 1 15.71429-15.71428 15.714286 15.714286 0 0 1 15.71428 15.71428z" transform="matrix(.8181819 0 0 .8181819 81.818184 110.8191)"/></g></g></svg>