<svg enable-background="new 0 0 580 580" height="160" viewBox="0 0 160 160" width="160" xmlns="http://www.w3.org/2000/svg"><g stroke-width=".362586"><ellipse cx="54.784023" cy="16.92157" fill="#501616" rx="14.84234" ry="16.921574"/><path d="m9.84984 123.89822c3.06946-1.61674 6.54675-2.56952 10.14086-2.56952 3.59377 0 7.07107.95239 10.12151 2.56952 3.01105 1.52808 6.37187 2.41388 9.88821 2.41388 3.49665 0 6.85747-.8858 9.84951-2.41388 3.04976-1.61674 6.52739-2.56952 10.14052-2.56952 3.61312 0 7.05205.95239 10.14086 2.56952 2.97234 1.52808 6.35251 2.41388 9.8495 2.41388 3.49665 0 6.87683-.8858 9.84917-2.41388 3.08915-1.61674 6.54675-2.56952 10.16055-2.56952 3.61347 0 7.05205.95239 10.12151 2.56952 3.01105 1.52808 6.37187 2.41388 9.86886 2.41388 3.51634 0 6.85747-.8858 9.8692-2.41388 3.04976-1.61674 6.52739-2.56952 10.1215-2.56952 3.08882 0 6.08051.66474 8.8002 1.88271 4.40978-5.49289 7.12982-12.80151 7.12982-20.79733 0-17.054372-12.1033-30.852802-27.04242-30.852802l-3.03074.3767c-3.32177 15.37103-16.80409 16.03577-16.80409 16.03577l-61.73861-.0224-5.16772-3.45532 12.45272-23.80937 13.6185 8.96989c8.15907 6.02484 12.41366-2.41388 12.41366-2.41388l13.65721-25.38197c5.94468-11.02992-6.66323-19.86702-12.54984-8.79297l-9.5578 17.80699-22.72941-14.32999c-15.75513-10.01094-22.4187 6.57808-22.4187 6.57808l-17.85407 34.86173c-3.03041 7.24243-.33041 10.36518-.33041 10.36518l-8.8199-.0221v38.006562h.0387c3.47831.00039 6.81944-.90787 9.81113-2.43595z" fill="#501616"/><path d="m150.17019 140.73075c-3.08915-1.61713-6.52773-2.56952-10.16021-2.56952-3.59411 0-7.07141.95239-10.12151 2.56952-3.01105 1.52808-6.35251 2.43633-9.8692 2.43633-3.49699 0-6.85747-.90825-9.86886-2.43633-3.06946-1.61713-6.50804-2.56952-10.1215-2.56952-3.61347 0-7.07141.95239-10.16022 2.56952-2.97234 1.52808-6.35285 2.43633-9.8495 2.43633-3.49699 0-6.87717-.90825-9.84951-2.43633-3.08915-1.61713-6.52773-2.56952-10.14086-2.56952-3.61312 0-7.09076.95239-10.14052 2.56952-2.99204 1.52808-6.35251 2.43633-9.8495 2.43633-3.51601 0-6.87717-.90825-9.88822-2.43633-3.04976-1.61713-6.52773-2.56952-10.1215-2.56952-3.59411 0-7.07141.95239-10.14087 2.56952-2.99169 1.52808-6.35251 2.43633-9.8495 2.43633v16.83292c3.49699 0 6.85781-.8858 9.8495-2.41427 3.06946-1.61674 6.54676-2.56913 10.14087-2.56913 3.59377 0 7.0714.95239 10.1215 2.56913 3.01105 1.52847 6.37221 2.41427 9.88822 2.41427 3.49699 0 6.85746-.8858 9.8495-2.41427 3.04976-1.61674 6.50804-2.56913 10.14052-2.56913 3.59411 0 7.05205.95239 10.14086 2.56913 2.97234 1.52847 6.35252 2.41427 9.84951 2.41427 3.49665 0 6.87716-.8858 9.8495-2.41427 3.08881-1.61674 6.5274-2.56913 10.16022-2.56913 3.59377 0 7.05204.95239 10.1215 2.56913 3.01105 1.52847 6.37187 2.41427 9.86886 2.41427 3.51635 0 6.85781-.8858 9.8692-2.41427 3.04976-1.61674 6.50804-2.56913 10.12151-2.56913 3.61346 0 7.07106.95239 10.16021 2.56913 2.97234 1.52847 6.33316 2.41427 9.82981 2.41427v-16.83292c-3.49665 0-6.85747-.90825-9.82981-2.43633z" fill="#00f"/></g></svg>