<svg height="16" viewBox="0 0 16 16" width="16" xmlns="http://www.w3.org/2000/svg"><g fill-rule="evenodd"><path d="m0 0h16v16h-16z" fill="#fff"/><path d="m0 14h2v2h-2z"/><path d="m0 10h2v2h-2z"/><path d="m0 6h2v2h-2z"/><path d="m0 2h2v2h-2z"/><path d="m2 0h2v2h-2z"/><path d="m2 4h2v2h-2z"/><path d="m2 8h2v2h-2z"/><path d="m2 12h2v2h-2z"/><path d="m4 14h2v2h-2z"/><path d="m4 10h2v2h-2z"/><path d="m4 6h2v2h-2z"/><path d="m4 2h2v2h-2z"/><path d="m6 0h2v2h-2z"/><path d="m6 4h2v2h-2z"/><path d="m6 8h2v2h-2z"/><path d="m6 12h2v2h-2z"/><path d="m8 14h2v2h-2z"/><path d="m8 10h2v2h-2z"/><path d="m8 6h2v2h-2z"/><path d="m8 2h2v2h-2z"/><path d="m10 0h2v2h-2z"/><path d="m10 4h2v2h-2z"/><path d="m10 8h2v2h-2z"/><path d="m10 12h2v2h-2z"/><path d="m12 14h2v2h-2z"/><path d="m12 10h2v2h-2z"/><path d="m12 6h2v2h-2z"/><path d="m12 2h2v2h-2z"/><path d="m14 0h2v2h-2z"/><path d="m14 4h2v2h-2z"/><path d="m14 8h2v2h-2z"/><path d="m14 12h2v2h-2z"/></g></svg>