<svg height="346.87723" width="168.57144" xmlns="http://www.w3.org/2000/svg"><g transform="translate(-308.57141 -286.64789)"><path d="m391.85111 310.49076-44.99425 233.49385-16.56511 85.96328" fill="#ff8080" fill-rule="evenodd" stroke="#004e00" stroke-width="7.154452"/><path d="m351.42857 379.50504a21.428572 21.428572 0 1 1 -42.85714 0 21.428572 21.428572 0 1 1 42.85714 0z" fill="#ffd42a" transform="translate(0 -41.428571)"/><path d="m-493.64743 207.37912h18.253916v99.711678h-18.253916z" fill="#ff2a2a" transform="matrix(-.2975847 -.9546954 .9228932 -.385056 0 0)"/><path d="m13.348231 571.49854h17.142857v105.71428h-17.142857z" fill="#d38d5f" transform="matrix(.8265252 -.5628997 .5628997 .8265252 0 0)"/><path d="m391.42856 286.64789h85.714287v342.14282h-85.714287z" fill="#784421"/><path d="m308.57141 362.36221h37.142857v105.71429h-37.142857z" fill="#ff2a2a"/></g></svg>