<svg height="659.23596" width="271.93799" xmlns="http://www.w3.org/2000/svg" xmlns:xlink="http://www.w3.org/1999/xlink"><linearGradient id="a" gradientTransform="matrix(.50364 .153907 -.55494 1.815962 69.28644 -234.43574)" gradientUnits="userSpaceOnUse" x1="284.05496" x2="622.53253" y1="298.13403" y2="345.0676"><stop offset="0" stop-color="#826b35"/><stop offset=".5" stop-color="#bfad62"/><stop offset="1" stop-color="#b1a855"/></linearGradient><linearGradient id="b" gradientTransform="matrix(.347622 .10623 -.804006 2.630995 71.67734 -233.70511)" gradientUnits="userSpaceOnUse" x1="611.54199" x2="729.05194" y1="125.26135" y2="125.26135"><stop offset="0" stop-color="#ca3030"/><stop offset="1" stop-color="#a52727"/></linearGradient><path d="m122.00016 220.02161 42.36915-2.85789 39.32839 12.01837 37.0679 27.13307-121.37517 397.18276c-21.32682 1.2883-41.34406 9.37426-63.45459 2.14402-26.32144-7.94641-37.04919-25.05142-55.31084-38.43757z" fill="url(#a)" stroke="#473b18" stroke-width="1pt"/><path d="m231.20112 7.0080694 39.66754 12.1220096-64.3689 210.637971-49.58259 91.28771 9.91504-103.40972z" fill="url(#b)" stroke="#7b0505" stroke-width=".988289pt"/><path d="m263.08085 183.7635a19.074261 13.495939 0 1 1 -38.14852 0 19.074261 13.495939 0 1 1 38.14852 0z" fill="#bd1e1e" stroke="#810404" stroke-width="1pt" transform="matrix(1.042164 .318475 -.229092 .749672 39.04414 -203.09324)"/></svg>