<svg height="14" viewBox="0 0 16 14" width="16" xmlns="http://www.w3.org/2000/svg" xmlns:xlink="http://www.w3.org/1999/xlink"><radialGradient id="a" cx="108.82" cy="788.21002" gradientTransform="matrix(.24316586 -.00184855 .00036847 .05144755 -18.951518 1011.9535)" gradientUnits="userSpaceOnUse" r="88.678001"><stop offset="0" stop-color="#2a3228"/><stop offset="1" stop-color="#2a3228" stop-opacity="0"/></radialGradient><radialGradient id="b" cx="58.308998" cy="664.73999" gradientTransform="matrix(.08607154 .02751689 -.01509979 .05013267 8.263497 1011.2735)" gradientUnits="userSpaceOnUse" r="88.678001"><stop offset="0" stop-color="#f0f3f0"/><stop offset="1" stop-color="#f0f3f0" stop-opacity="0"/></radialGradient><g stroke-width=".06726" transform="translate(0 -1038.36)"><path d="m2.0399595 1043.0504s-.9004081.5024-1.22981116.8916c-.34806328.4113-.63379774.9179-.72878192 1.4547-.03908572.221-.09628297 2.3422-.06808724 2.8857.04644179.895.60859056 1.6732 1.25234132 2.2762.8349383.7821 2.0081593 1.1037 3.09729 1.4078 1.0324742.2883 2.1192194.3399 3.1884043.3754 1.2306727.041 2.4757912.027 3.6894332-.1877 1.046324-.1847 2.171437-.3272 3.0517-.9385.74515-.6196 1.345775-1.5903 1.480293-2.2525.198636-.1165.182845-1.9441.204971-2.6278.0188-.581-.26121-1.3594-.592124-1.8302-.359401-.5113-1.36645-1.267-1.36645-1.267l-2.732899.6101-4.8736542.094-3.461681-.3754z" fill="#bdc8bb"/><path d="m2.0399595 1043.0504s-.9004081.5024-1.22981116.8916c-.34806328.4113-.63379774.9179-.72878192 1.4547-.03908572.221-.094189 2.3444-.06599459 2.8878.04644179.8951.60650321 1.6711 1.25022077 2.2741.8349384.7821 2.0081594 1.1037 3.0972901 1.4078 1.0324742.2883 2.1192193.3399 3.1884043.3754 1.2306727.041 2.475791.027 3.689434-.1877 1.046323-.1847 2.171436-.3272 3.051699-.9385.74515-.6196 1.345775-1.5903 1.480293-2.2525.198636-.1165.182845-1.9441.204971-2.6278.0188-.581-.26121-1.3594-.592124-1.8302-.359401-.5113-1.366449-1.267-1.366449-1.267l-2.732899.6101-4.873655.094-3.461681-.3754z" fill="url(#b)"/><path d="m2.0855498 1042.9917c.2806453-.5654.994902-.7637 1.4081302-1.235.5070329-.5783.7760288-1.3511 1.2883232-1.9245.2867218-.321.5840858-.6815.9823116-.8296 1.7385272-.6464 5.5447192-.035 5.5447192-.035s.501971.012.66045.2346c.158479.2231.134306.7083.02277.9385-.11153.2304-.478254.352-.478254.352s-3.5144939-.3943-5.2152501-.024c-.2360291.052-.5183112.1042-.6604495.305-.1215034.1717-.068319.6335-.068319.6335s1.8389186-.036 2.7556942.024c1.1520824.075 2.3253694.1086 3.4388854.4223.744222.2097 1.606064.3673 2.117961.962.121099.1407.237805.3699.15942.5397-.172554.3738-.725204.3728-1.115902.4693-1.251944.3089-2.562068.288-3.8488006.3284-1.3964675.044-2.8006218.053-4.1904629-.094-.8294384-.088-1.7026779-.109-2.4596224-.4693-.1420787-.068-.3028176-.1568-.3643843-.305-.03745-.09-.020567-.206.022774-.2933z" fill="#ffc510"/><path d="m2.0399595 1043.0504s-.9004081.5024-1.22981116.8916c-.34806328.4113-.63379774.9179-.72878192 1.4547-.03908572.221-.09732333 2.3401-.06913422 2.8835.04644179.8951.60963754 1.6754 1.2534015 2.2784.8349384.7821 2.0081593 1.1037 3.0972901 1.4078 1.0324741.2883 2.1192193.3399 3.1884043.3754 1.2306726.041 2.4757909.027 3.6894339-.1877 1.046323-.1847 2.171436-.3272 3.051699-.9385.74515-.6196 1.345775-1.5903 1.480293-2.2525.198636-.1165.182845-1.9441.204971-2.6278.0188-.581-.26121-1.3594-.592124-1.8302-.359401-.5113-1.366449-1.267-1.366449-1.267l-2.732899.6101-4.8736549.094-3.461681-.3754z" fill="url(#a)"/><path d="m2.0399595 1043.0504s-.9004081.5024-1.22981116.8916c-.34806328.4113-.63379774.9179-.72878192 1.4547-.03908572.221-.10255826 2.3368-.07436253 2.8803.04644179.895.61486585 1.6786 1.25863651 2.2816.8349383.7821 2.0081593 1.1037 3.09729 1.4078 1.0324742.2883 2.1192193.3399 3.1884043.3754 1.2306727.041 2.4757913.027 3.6894333-.1877 1.046324-.1847 2.171436-.3272 3.0517-.9385.745149-.6196 1.345775-1.5903 1.480293-2.2525.198636-.1165.182845-1.9441.204971-2.6278.0188-.581-.26121-1.3594-.592124-1.8302-.359401-.5113-1.36645-1.267-1.36645-1.267l-2.732899.6101-4.8736543.094-3.461681-.3754z" fill="url(#a)"/><path d="m.03853673 1046.2263s-.01419925.6855-.0252708 1.0281c-.01156058.3578-.00017136 1.0281-.00017136 1.0281 2.05229173 2.1346 5.86988183 1.9041 8.35799783 1.9944 2.6523206.1169 5.6471656-.1529 7.4468556-1.4547l.15942-.3989.02277-1.7832c-1.534232.8368-3.42656 1.0793-4.941973 1.1731-1.4021667.083-2.8100981.1107-4.2131921.047-1.0746185-.049-2.1487733-.1551-3.211133-.3285-1.5048107-.2125-2.3312009-.4202-3.59566871-1.3054z" fill="#9d9d9d"/></g></svg>