<svg enable-background="new 0 0 455.148 454.788" height="140" viewBox="0 0 160 140" width="160" xmlns="http://www.w3.org/2000/svg"><path d="m0 0h160v140h-160z" fill="#fff"/><g clip-rule="evenodd" fill-rule="evenodd" stroke-width=".469375"><path d="m81.364963 45.899323-13.21998 12.8859 18.94425 10.90736c.11819 8.3205.18526 15.4225.13461 21.69634-.0502 6.24003.50653 12.294027-.40476 15.490137-.97929 3.07821-3.27557 3.11156-5.20038 3.11156-1.94217-.0503-5.11643-.91271-6.26457-3.22993-1.14767-2.40084-.60737-5.95255-.65849-10.653697-.11819-4.73498-.11819-10.41695 0-17.36722-6.04413-2.82455-11.07567-5.27612-15.34741-7.6779-4.32287-2.3844-7.93612-4.15954-10.13109-6.44295-2.17808-2.36749-2.93834-4.9379-2.93834-7.3223-.0333-2.40131.81091-4.19384 2.66772-6.81499 1.8404-2.67188 4.72763-5.44522 8.27334-8.9119 3.52883-3.5005 9.26998-9.31776 12.66327-11.78671 3.32622-2.46895 5.01465-3.027 7.3447-2.97627 2.34645.0169 4.59254 1.55578 6.53471 3.11156 1.8404 1.48813 2.63349 2.99318 4.66008 6.07091 1.99236 3.06083 4.37305 7.10247 7.20916 12.26021 5.436757-.49041 9.573427-.49041 12.545077 0 2.88722.43968 4.66008 1.36976 5.06577 2.8579.38834 1.50504.0844 4.92099-2.66773 6.07091-2.83704 1.01464-10.48565.52423-14.014477.49041-3.4946 0-5.36876.20293-7.05813-.49041-1.78881-.77788-1.99236-2.09691-3.34264-3.95708-1.35028-1.89352-2.97071-4.31174-4.79469-7.32184z" fill="#7f7f7f"/><path d="m95.086323 10.227283c6.328817 0 11.464947 4.77303 11.464947 10.6537 0 5.88115-5.13613 10.6537-11.464947 10.6537-6.32788 0-11.46401-4.77302-11.46401-10.6537 0-5.88067 5.13613-10.6537 11.46401-10.6537" fill="#7f7f7f"/><path d="m39.053233 71.992433c17.70841 0 32.07981 13.35658 32.07981 29.813437 0 16.45687-14.3714 29.81298-32.07981 29.81298s-32.0802843-13.35658-32.0802843-29.81345c0-16.456857 14.3718743-29.812967 32.0802843-29.812967zm0 5.76652c14.28792 0 25.88372 10.77302 25.88372 24.046447 0 13.27344-11.59627 24.04692-25.88372 24.04692s-25.88372-10.77348-25.88372-24.04692c0-13.273427 11.5958-24.046447 25.88372-24.046447z" fill="#7f7f7f"/><path d="m122.95114 71.992433c17.70888 0 32.08028 13.35658 32.08028 29.813437 0 16.45687-14.37187 29.81345-32.08028 29.81345-17.70794 0-32.080277-13.35658-32.080277-29.81345 0-16.456857 14.372337-29.813437 32.080277-29.813437zm0 5.76652c14.27901 0 25.86684 10.77302 25.86684 24.046447 0 13.27344-11.58783 24.04692-25.86684 24.04692-14.27807 0-25.866837-10.77348-25.866837-24.04692 0-13.273427 11.588767-24.046447 25.866837-24.046447z" fill="#7f7f7f"/><path d="m80.251063 43.836233-13.22092 12.8859 18.94425 10.90735c.11819 8.33695.18573 15.38868.13555 21.67943-.0511 6.22312.50653 12.327857-.4057 15.507047-.97929 3.09465-3.27556 3.06083-5.20038 3.09465-1.94217-.0507-5.11596-.91317-6.26363-3.22993-1.1486-2.36749-.6083-6.003277-.65849-10.653697-.11819-4.75189-.11819-10.38313 0-17.35078-6.04507-2.80716-11.07614-5.30994-15.34835-7.69433-4.30551-2.3844-7.96942-4.16002-10.1475-6.44296-2.19543-2.40131-2.88676-4.90408-2.92099-7.30539-.0338-2.40131.81045-4.19384 2.66773-6.81498 1.84039-2.65497 4.72762-5.47905 8.2738-8.92882 3.52836-3.53432 9.26951-9.28393 12.66327-11.7698 3.32622-2.46895 5.01419-3.027 7.34423-2.97627 2.34692.0338 4.59254 1.52196 6.53424 3.09465 1.8404 1.48813 2.6335 2.99318 4.66009 6.07092 1.99235 3.09464 4.37305 7.10246 7.21009 12.27711 5.43676-.4904 9.573427-.4904 12.545077 0 2.88722.45659 4.66008 1.31903 5.06483 2.84099.38835 1.50505.0854 4.92099-2.66772 6.07092-2.83611 1.04846-10.484717.52423-14.013547.50732-3.5293 0-5.38611.20292-7.07455-.50732-1.72314-.77789-2.02612-2.09692-3.32716-3.95709-1.38358-1.89352-2.92005-4.32865-4.79422-7.30492z" fill="#17057a"/><path d="m93.961633 8.085273c6.327887 0 11.464007 4.77255 11.464007 10.6537 0 5.88114-5.13612 10.6537-11.464007 10.6537-6.32882 0-11.46495-4.77303-11.46495-10.6537 0-5.88068 5.13566-10.6537 11.46495-10.6537" fill="#17057a"/><path d="m37.938863 69.912423c17.70794 0 32.08028 13.35658 32.08028 29.81344 0 16.456867-14.37281 29.813447-32.08028 29.813447-17.70841 0-32.0802813-13.35658-32.0802813-29.813447 0-16.45686 14.3718713-29.81344 32.0802813-29.81344zm0 5.76653c14.28745 0 25.88372 10.77348 25.88372 24.04691 0 13.273437-11.59627 24.046447-25.88372 24.046447-14.28792 0-25.88372-10.77301-25.88372-24.046447 0-13.27343 11.5958-24.04691 25.88372-24.04691z" fill="#17057a"/><path d="m121.83724 69.912423c17.70794 0 32.08028 13.35658 32.08028 29.81344 0 16.456867-14.37281 29.813447-32.08028 29.813447-17.70888 0-32.080277-13.35658-32.080277-29.813447 0-16.45686 14.371397-29.81344 32.080277-29.81344zm0 5.76653c14.27807 0 25.86684 10.77348 25.86684 24.04691 0 13.273437-11.58877 24.046447-25.86684 24.046447-14.27901 0-25.866837-10.77301-25.866837-24.046447 0-13.27343 11.587827-24.04691 25.866837-24.04691z" fill="#17057a"/></g></svg>