<svg height="14" viewBox="0 0 16 14" width="16" xmlns="http://www.w3.org/2000/svg"><g fill-rule="evenodd"><path d="m0 0h16v14h-16z" fill="#fff"/><path d="m478.66596 493.02539c-2.2115 5.15789-4.448 11.38492-5.88841 16.78946-4.17194.46355-6.25567 7.30997-12.93377 13.88487l-4.18357 4.87825-6.97005 5.57679c-3.486 4.87995-27.18983 10.45646-36.94967 11.15361-8.36559 1.39427-37.64271 3.48644-42.5226 6.27535-8.36564 0-6.27365-.69763-11.1536-4.18357-2.78853 0-4.18355.00055-4.18355 2.09177 0 1.39472 2.78924 2.79087 4.18355 4.88213 0 2.09128.69468 2.08989.69468 4.87825 0 .69765-2.08938 2.78792-2.78645 3.48501-1.39431 3.48545-2.09178 2.7884-2.09178 7.66858-.74803 12.18422 3.22026 10.23823-.15285 23.95543-.86761 4.03175-5.10542 7.47547-7.66858 9.06568-2.09138 2.09126-4.87863 4.17963-6.97003 6.27147-4.4508 2.74752-1.15739 10.7462-.69855 15.33716l.50508 15.21517c1.57908 4.7403 6.3953 4.30556 10.64851 4.30556 2.09144 0 2.0918-1.39375 2.0918-3.48501 2.02706-1.99847 0 0-4.39905-6.05348-2.70085-3.71662-.75266-10.2917-.26655-14.1062.92337-7.24561 13.12175-12.11005 19.45703-17.73967 8.25843-3.44534 11.48333-8.86159 16.73041-16.73041 1.54632-.92243 3.18704-1.52884 4.8821-2.09177 5.5512 1.64468 5.54054 3.91712 7.66858-1.39709h8.36329c10.70783.22488 15.68328 9.08303 29.22202 11.27558 6.33441-.11813 4.04837-.11813 6.33441-.11813l1.39322.69468 1.39324 8.36714c1.07574 7.51834-2.51898 27.1388 1.70871 30.67433v2.78645c3.11971 8.84003 5.52951 7.10445 11.4271 7.10445l.69854-.69855 2.09177-.69469-2.79031-5.5768v-.69854l-4.18357-2.79033-.6947-1.39324c-2.30356-10.8698 2.47488-21.59186 5.50534-32.1981l.69468-1.39709 4.36462-11.8483c4.76722-4.49415 6.29203-7.81853 6.9739-13.94392 5.04179-11.83031 1.76362-21.48851 7.66858-30.67433l3.48501-4.87825c2.78836-2.09142 4.18164-4.18355 9.06182-4.18355 3.48545 0 4.18314 2.78991 7.66859.69854h3.48501c4.60235-.8342 7.74445-1.26117 10.45891-4.88211v-.69856c.69765-.69709 1.39324-1.39217 1.39324-2.78645 0-1.39425-1.3947-1.39324-2.09179-1.39324l-11.86789-5.255-3.48501-5.57679c-.83373-1.79665-2.46412-2.79033-4.39747-2.79033-2.09126-.69709-4.16594-1.71505-6.9543-1.71505h-1.17931c-.41251-1.37507-.71014-2.52736-.99573-3.65097-.26168-4.16294.54057-8.18019-1.7946-11.68619z" transform="matrix(.08016301 0 0 .08016301 -25.997934 -38.67042)"/></g></svg>