<svg enable-background="new 0 0 580 580" height="160" viewBox="0 0 150 160" width="150" xmlns="http://www.w3.org/2000/svg"><path d="m50.339 534.896h32.742v-349.84l161.783-65.859-161.783-60.202v-12.555h-32.742z" fill="#f00" transform="matrix(.31294249 0 0 .31343479 -15.753212 -10.895934)"/><g fill="#a05a2c" stroke-width=".313189"><path d="m97.981658 46.924006c2.365532-2.24858 3.548142-5.01151 3.548142-8.2891 0-3.28135-1.18261-6.04615-3.548142-8.29505-2.36553-2.24858-5.18608-3.37287-8.46227-3.37287-3.27244 0-6.0617 1.12429-8.36777 3.37287-2.30608 2.2489-3.45927 5.0137-3.45927 8.29505 0 3.27759 1.15319 6.04052 3.45927 8.2891 2.30607 2.24858 5.09533 3.37318 8.36777 3.37287 3.27588 0 6.09674-1.12429 8.46227-3.37287z"/><path d="m149.92636 50.113206c-.3627-1.5794-1.27149-2.9162-2.72636-4.00977l-69.868792-46.10343989-6.36869 9.29270999c-1.57691 2.1874699-1.21234 4.0712099 1.09374 5.6502899 2.18058 1.33492 4.05886.96977 5.63578-1.09545l3.64265-5.4666199 56.764632 37.3611199-46.392152 8.38093c-1.69928.36327-3.06434 1.24402-4.09517 2.64163-1.03083 1.39792-1.30403 2.88642-.81897 4.46582l10.00602 39.179664-32.74943 49.0234c-.60679 1.09012-.91035 2.24294-.91035 3.45906 0 1.94298.69755 3.61297 2.09328 5.01088 1.39541 1.39761 3.06308 2.09626 5.00269 2.09657 2.54673-.00031 4.60871-1.21425 6.18531-3.64274l34.204302-51.57632 1.82133 7.10776-5.09189 38.6346c-.2441 1.94298.17963 3.6744 1.27149 5.19424 1.09185 1.51985 2.60774 2.46172 4.54768 2.8253 1.94337.36327 3.73309-.0317 5.36915-1.18447 1.63606-1.15281 2.57645-2.70275 2.82086-4.64918l5.27527-39.54136c.12205-1.33837.002-2.73598-.36082-4.19313l-11.6496-46.471104 30.38954-5.46662c1.5766-.24103 2.84996-1.06035 3.82008-2.45827.96981-1.39729 1.33251-2.88579 1.08842-4.4655z"/></g></svg>