<svg height="300" viewBox="0 0 240 240" width="300" xmlns="http://www.w3.org/2000/svg"><g stroke="#000"><path d="m.438393.438386h239.12321v239.12321h-239.12321z" fill="#fff" stroke-dashoffset=".6" stroke-linecap="round" stroke-width=".876785"/><g transform="matrix(-.8 0 0 -.8 278.4489 251.57613)"><circle cx="163.730169" cy="232.216773" r="21.6"/><path d="m184.21456 127.80624c-9.70817 15.54222-37.22434-9.48895-65.93051-33.166041-26.78452-21.914367-58.995826-46.308671-57.793732-48.390739 1.079604-2.152786 36.343473 16.247222 67.926162 32.113659 32.38822 16.16822 63.99545 36.376221 55.79808 49.443121z"/><g stroke="#000"><path d="m193.13742 208.00589c-9.46109 9.17823 10.81875 24.53657 31.2541 42.00211 18.9505 16.26347 39.10303 33.87042 40.44653 32.80978 1.41422-.98997-14.07142-22.83954-29.27424-43.27495-15.55632-20.93034-31.32482-42.49712-42.42639-31.53694z"/><path d="m190.49779 134.56311c-4.12529 17.85472 33.03129 19.61188 70.07186 23.16798 34.43531 3.4437 74.46152 8.97117 75.08375 6.64891.75886-2.28565-37.18724-14.21019-70.73883-25.32327-34.3346-11.46927-70.9735-19.52974-74.41678-4.49362z"/><path d="m154.39456 195.56197c9.46109 9.17823-10.81875 24.53657-31.2541 42.00211-18.9505 16.26347-39.103029 33.87042-40.446529 32.80978-1.41422-.98997 14.07142-22.83954 29.274239-43.27495 15.55632-20.93034 31.32482-42.49712 42.42639-31.53694z"/></g></g></g></svg>