<svg height="284.39795" width="284.39795" xmlns="http://www.w3.org/2000/svg"><g transform="translate(-50.6582 -318.735)"><rect fill="#fff" height="269.39795" ry="21.770645" stroke="#000" stroke-linejoin="round" stroke-width="15" width="269.39795" x="58.158169" y="326.23465"/><path d="m185.45832 465.0883s-28.70965 21.8708-34.90695 26.02082c-6.29685 4.21673-9.71167 5.93961-14.85087.84974-5.06258-5.01388-.80711-7.26681 3.92211-11.93901 4.62801-4.57231 33.76106-27.68152 33.76106-27.68152z" fill-rule="evenodd"/><path d="m193.55946 471.57843s-67.77368 82.79072-71.82382 88.10374c-4.10551 5.38565-2.464 8.5179.86146 11.08577 3.24941 2.50922 7.79747 1.89269 11.25522-2.39247 3.39834-4.21164 70.49308-87.39488 70.49308-87.39488z" fill-rule="evenodd"/><path d="m176.96875 238.12976a.61328125.78710937 0 0 1 -.61328.78711.61328125.78710937 0 0 1 -.61328-.78711.61328125.78710937 0 0 1 .61328-.78711.61328125.78710937 0 0 1 .61328.78711z" stroke="#000" stroke-width=".177745" transform="matrix(17.8035 0 0 13.3809 -2958.09 -2825.88)"/><path d="m253.67202 401.81635c11.72258 5.97797 38.30256 31.34659 38.30256 31.34659 8.79565 10.71093 8.96986 22.35534-4.30004 29.31778-12.6483 6.63628-29.5416 13.33937-37.94998 15.99433-8.33023 2.63036-12.14652 2.52637-13.25806-2.96443-1.1067-5.46688 4.78531-8.84619 10.22867-11.23847 5.65184-2.48376 11.14615-3.90985 22.67231-11.20569 11.64242-7.36947 8.04587-9.57862-.5212-16.84151-8.6317-7.31769-19.23313-9.48372-25.63675-.52096-8.98578 12.01543-22.59793 33.54252-25.4085 37.03775-2.76538 3.43894-5.63174 6.02152-9.89568 3.95096-4.22833-2.05328-26.17372-19.64133-29.22563-24.42589-2.91498-4.56973-3.17283-5.72714.55331-10.86169 3.68219-5.0741 11.59563-14.59418 11.59563-14.59418 9.71047-12.15928 19.5732-17.52286-2.33188-21.2871-21.8746-3.759-26.71345-20.10758-27.88442-32.46356-1.0992-11.59868 4.44798-13.8464 7.00256-9.99267 2.58645 3.90182 2.32653 15.66409 11.75699 21.98489 9.59879 6.43363 35.61101 1.85037 49.7291 5.9973 14.11809 4.14694 12.9489 4.83982 24.57101 10.76655z" fill-rule="evenodd"/><path d="m179.09375 229.38562a.703125.6484375 0 0 1 -.70313.64844.703125.6484375 0 0 1 -.70312-.64844.703125.6484375 0 0 1 .70312-.64844.703125.6484375 0 0 1 .70313.64844z" transform="matrix(25.0177 0 0 27.1277 -4209.89 -5846.56)"/></g></svg>