<svg height="16" viewBox="0 0 16 16" width="16" xmlns="http://www.w3.org/2000/svg"><rect fill="#fff" fill-rule="evenodd" height="16" ry=".082081" width="16"/><rect height=".844954" ry=".111059" width="1.315701" x="13.857678" y="14.086217"/><path d="m10.209686 2.0275115a1.174315 1.1628816 0 0 1 -2.3486298 0 1.174315 1.1628816 0 1 1 2.3486298 0z"/><g fill="#050505"><path d="m1.7975139 7.002025c.1309865.0366336.4495526.1557878.5799798.1953058-.2557361.5990276-.6233147 1.1489608-.7690893 1.7984486.0206574.1689058.1120215.3147091.184277.4631817-.0793872.112745-.3473508.144922-.4302751.254775-.1581489-.283971-.3890352-.5766871-.3182509-.9311332.1513472-.6387807.4946805-1.1922503.7533585-1.7805779z"/><path d="m4.6118657 13.298673c.3474261.360979.6909546.729097 1.0690461 1.048324.2013033.157215.4608293.05505.6857229.119981.098932.07265.154792.200106.2281818.30228-.3258838.08113-.8342396.439529-1.1368457.186361-.4627114-.313443-.8151793-.788772-1.230331-1.173039.081585-.102135.302495-.382551.3842259-.484319z"/><path d="m4.8529265 7.01628c.0023224-.45573.368546-.87008.7163663-.90046.1346737-.0118.2362734.19925.3537694.3002.2506112-.0743.5448462-.1906.7788462-.0122.4461448.29585.5999886.87521.7468667 1.38067.1912748.74691.4652008 1.49971.3773842 2.29043-.175831.71595-.3466029 1.598117-.8041013 2.154017-.4371648.52715-1.022058 1.043384-1.5954833 1.225183.6266078-.88457 1.2442701-1.85517 1.3982056-2.98265.1160748-.822-.2898168-1.57622-.6277758-2.27372-.0708633.70804-.1762101 1.45678-.5744797 2.04689-.2777061.36218-.6828705.53196-1.1002641.42649-.8737115-.24419-1.8703589-1.1347784-2.0680623-2.0673983.6628286.20955 1.0959013.3962683 1.782246.8559254.2026013.027.4931015-.0128557.5831658-.2659557.182603-.79809-.0115589-1.3708314.0333161-2.1773914z"/><path d="m7.1569009 3.19159c.2012023-.0826.44511.0168.5323867.22286.2343305.46363.087294 1.01604.1378691 1.51419.1077979.76088.2468528 1.55473.6930075 2.17968-.2952319-.84561-.4610882-1.79771-.1789435-2.67435.0814781-.17946.152608-.38844.3857423-.43255.2885876-.0546.5632465.20712.5334384.53186-.0560244.96627-.3376871 2.00561.0663136 2.92524.935336 2.00332 1.448649 3.490664 2.393012 5.489304.03258.0779.0809.16713.167267.1823.368082.0428.760722.0141 1.147885.0118.001.14954.0051.62973.0061.78049-.339041.008-.678538.0216-1.016808-.005-.311208-.0786-.629631-.37855-.762501-.67391-.735597-1.57671-1.248745-2.803211-1.9877079-4.3780605-.082425-.15117-.1437779-.33933-.3031414-.41477-.6075962-.32061-.851512-.8981735-1.3035214-1.4396035-.7156952-.88547-.9529778-2.10859-.888626-3.25573.0448756-.23312.1533789-.47145.3782276-.56374z"/></g></svg>