<svg enable-background="new 0 0 300 300" height="300" viewBox="0 0 300 300" width="300" xmlns="http://www.w3.org/2000/svg"><path d="m0 0h300v300h-300z" fill="#fff" fill-rule="evenodd"/><path d="m177.674 7.913c7.322-.845 15.018 2.038 19.925 7.555 3.139 3.83 5.17 8.563 5.552 13.52-.25 8.892-6.073 17.573-14.627 20.443-7.661 2.973-16.822 1.364-23.079-3.932-7.173-5.995-10.104-17.092-5.304-25.433 3.191-6.815 10.226-11.127 17.533-12.153z" fill="none" stroke="#000" stroke-miterlimit="10" stroke-width=".1"/><path d="m177.674 7.913c7.322-.845 15.018 2.038 19.925 7.555 3.139 3.83 5.17 8.563 5.552 13.52-.25 8.892-6.073 17.573-14.627 20.443-7.661 2.973-16.822 1.364-23.079-3.932-7.173-5.995-10.104-17.092-5.304-25.433 3.191-6.815 10.226-11.127 17.533-12.153z"/><path d="m43.813 25.835c29.426 2.921 58.877 6.049 88.004 11.274 6.189.81 12.321 2.167 18.328 3.837 5.32 1.519 8.843 8.105 6.037 13.135-2.229 4.947-8.131 6.951-13.226 6.274-11.728-1.084-23.135-4.391-34.396-7.702-15.777-5.053-31.434-10.632-46.416-17.738-6.05-3.139-12.612-5.354-18.331-9.08z" fill="none" stroke="#000" stroke-miterlimit="10" stroke-width=".1"/><path d="m43.813 25.835c29.426 2.921 58.877 6.049 88.004 11.274 6.189.81 12.321 2.167 18.328 3.837 5.32 1.519 8.843 8.105 6.037 13.135-2.229 4.947-8.131 6.951-13.226 6.274-11.728-1.084-23.135-4.391-34.396-7.702-15.777-5.053-31.434-10.632-46.416-17.738-6.05-3.139-12.612-5.354-18.331-9.08z"/><path d="m45.751 50.92c1.891-2.616 5.073-3.747 8.187-3.945 7.739-.978 14.65 3.344 21.077 7.01 7.732 3.958 14.192 9.851 21.192 14.906 9.005 7.623 17.703 15.611 26.582 23.385 4.475 4.525 9.811 9.857 9.04 16.807-1.772 9.09-7.403 16.74-12.907 23.949-3.793 5.48-7.801 10.809-11.497 16.356-3.578 5.332-8.33 9.7-12.639 14.415-4.703 4.75-9.04 9.905-14.356 14.004 7.365-16.395 14.759-32.786 21.974-49.253 2.519-5.946 6.109-11.405 8.159-17.551-9.063-5.439-19.116-8.976-28.156-14.456-5.871-3.505-12.06-6.445-17.875-10.046-1.371 7.148-2.181 14.44-4.345 21.412-1.803 5.677-5.904 11.276-12.127 12.339-15.801 3.577-32.011 4.79-48.058 6.789v-9.974c8.958-3.386 17.901-6.813 26.893-10.109 4.842-1.497 9.743-2.81 14.499-4.576-.007-11.782-.044-23.565.007-35.347.229-5.555.84-11.568 4.35-16.115z" fill="none" stroke="#000" stroke-miterlimit="10" stroke-width=".1"/><path d="m45.751 50.92c1.891-2.616 5.073-3.747 8.187-3.945 7.739-.978 14.65 3.344 21.077 7.01 7.732 3.958 14.192 9.851 21.192 14.906 9.005 7.623 17.703 15.611 26.582 23.385 4.475 4.525 9.811 9.857 9.04 16.807-1.772 9.09-7.403 16.74-12.907 23.949-3.793 5.48-7.801 10.809-11.497 16.356-3.578 5.332-8.33 9.7-12.639 14.415-4.703 4.75-9.04 9.905-14.356 14.004 7.365-16.395 14.759-32.786 21.974-49.253 2.519-5.946 6.109-11.405 8.159-17.551-9.063-5.439-19.116-8.976-28.156-14.456-5.871-3.505-12.06-6.445-17.875-10.046-1.371 7.148-2.181 14.44-4.345 21.412-1.803 5.677-5.904 11.276-12.127 12.339-15.801 3.577-32.011 4.79-48.058 6.789v-9.974c8.958-3.386 17.901-6.813 26.893-10.109 4.842-1.497 9.743-2.81 14.499-4.576-.007-11.782-.044-23.565.007-35.347.229-5.555.84-11.568 4.35-16.115z"/><path d="m267.691 109.908c7.31-.828 14.985 2.04 19.891 7.541 3.33 4.099 5.56 9.26 5.541 14.592-.654 6.746-4.172 13.381-9.959 17.073-7.916 5.301-19.038 4.983-26.641-.758-7.947-5.78-11.426-17.553-6.37-26.316 3.201-6.808 10.236-11.107 17.538-12.132z" fill="none" stroke="#000" stroke-miterlimit="10" stroke-width=".1"/><path d="m267.691 109.908c7.31-.828 14.985 2.04 19.891 7.541 3.33 4.099 5.56 9.26 5.541 14.592-.654 6.746-4.172 13.381-9.959 17.073-7.916 5.301-19.038 4.983-26.641-.758-7.947-5.78-11.426-17.553-6.37-26.316 3.201-6.808 10.236-11.107 17.538-12.132z"/><path d="m133.73 127.862c32.258 3.069 64.523 6.753 96.395 12.688 5.19 1.434 11.641 1.372 15.184 6.083 3.413 4.305 1.73 10.91-2.811 13.695-4.848 3.309-10.977 1.904-16.383 1.207-13.436-2.538-26.635-6.254-39.509-10.847-13.579-4.617-26.915-9.967-39.795-16.287-4.326-2.248-9.03-3.785-13.081-6.539z" fill="none" stroke="#000" stroke-miterlimit="10" stroke-width=".1"/><path d="m133.73 127.862c32.258 3.069 64.523 6.753 96.395 12.688 5.19 1.434 11.641 1.372 15.184 6.083 3.413 4.305 1.73 10.91-2.811 13.695-4.848 3.309-10.977 1.904-16.383 1.207-13.436-2.538-26.635-6.254-39.509-10.847-13.579-4.617-26.915-9.967-39.795-16.287-4.326-2.248-9.03-3.785-13.081-6.539z"/><path d="m138.528 150.43c5.431-2.564 11.943-1.797 17.285.666 21.877 10.123 38.971 27.549 56.946 43.139 4.476 4.554 9.804 9.845 9.106 16.814-2.239 11.547-10.627 20.245-16.938 29.705-4.852 6.223-8.634 13.271-14.277 18.861-6.721 6.715-12.721 14.215-20.199 20.125 7.48-16.607 14.957-33.232 22.275-49.92 2.419-5.688 5.963-10.889 7.781-16.822-9-5.469-19.046-8.939-28.041-14.418-5.865-3.549-12.131-6.395-17.895-10.112-2.287 9.644-2.021 20.596-8.326 28.772-2.126 3.138-5.813 4.535-9.365 5.316-15.181 3.323-30.712 4.325-46.065 6.556-9.258.919-18.547 3.031-27.88 1.972 15.811-8.385 32.8-14.119 49.478-20.479 6.173-2.541 12.763-3.814 18.982-6.231.002-12.104-.078-24.211.035-36.313.383-6.323 1.36-13.839 7.098-17.631z" fill="none" stroke="#000" stroke-miterlimit="10" stroke-width=".1"/><path d="m138.528 150.43c5.431-2.564 11.943-1.797 17.285.666 21.877 10.123 38.971 27.549 56.946 43.139 4.476 4.554 9.804 9.845 9.106 16.814-2.239 11.547-10.627 20.245-16.938 29.705-4.852 6.223-8.634 13.271-14.277 18.861-6.721 6.715-12.721 14.215-20.199 20.125 7.48-16.607 14.957-33.232 22.275-49.92 2.419-5.688 5.963-10.889 7.781-16.822-9-5.469-19.046-8.939-28.041-14.418-5.865-3.549-12.131-6.395-17.895-10.112-2.287 9.644-2.021 20.596-8.326 28.772-2.126 3.138-5.813 4.535-9.365 5.316-15.181 3.323-30.712 4.325-46.065 6.556-9.258.919-18.547 3.031-27.88 1.972 15.811-8.385 32.8-14.119 49.478-20.479 6.173-2.541 12.763-3.814 18.982-6.231.002-12.104-.078-24.211.035-36.313.383-6.323 1.36-13.839 7.098-17.631z"/><path d="m63.379 184.381c19.081-.001 38.161-.001 57.242 0-.003 1.998-.003 3.999-.006 6.001-19.076-.003-38.152-.003-57.228.001-.006-2.003-.007-4.004-.008-6.002z" fill="none" stroke="#000" stroke-miterlimit="10" stroke-width=".1"/><path d="m63.379 184.38136c19.081-.001 38.161-.001 57.242 0-.003 2.97036-.003 5.94517-.006 8.92146-19.076-.004-38.152-.004-57.228.001-.006-2.97778-.007-5.95259-.008-8.92295z"/><path d="m25.639 202.824c2.714-.006 5.428-.006 8.142-.012.032 2.332.042 4.667.043 7.004-2.737.004-5.473.003-8.209-.003.003-2.332.007-4.661.024-6.989z" fill="none" stroke="#000" stroke-miterlimit="10" stroke-width=".1"/><path d="m25.639 202.824c2.714-.006 5.428-.006 8.142-.012.032 2.332.042 4.667.043 7.004-2.737.004-5.473.003-8.209-.003.003-2.332.007-4.661.024-6.989z"/><path d="m61.64 202.822c2.709-.003 5.419-.004 8.13-.014.042 2.334.054 4.67.055 7.008-2.738.004-5.475.003-8.211-.004.003-2.332.008-4.662.026-6.99z" fill="none" stroke="#000" stroke-miterlimit="10" stroke-width=".1"/><path d="m61.64 202.822c2.709-.003 5.419-.004 8.13-.014.042 2.334.054 4.67.055 7.008-2.738.004-5.475.003-8.211-.004.003-2.332.008-4.662.026-6.99z"/><path d="m97.639 202.822c2.71-.003 5.42-.004 8.131-.014.042 2.334.054 4.67.055 7.008-2.737.004-5.474.003-8.21-.004.002-2.332.006-4.662.024-6.99z" fill="none" stroke="#000" stroke-miterlimit="10" stroke-width=".1"/><path d="m97.639 202.822c2.71-.003 5.42-.004 8.131-.014.042 2.334.054 4.67.055 7.008-2.737.004-5.474.003-8.21-.004.002-2.332.006-4.662.024-6.99z"/><path d="m241.64 202.821c2.708-.002 5.418-.003 8.13-.013.041 2.334.053 4.67.055 7.008-2.738.004-5.476.003-8.211-.004.001-2.333.006-4.662.026-6.991z" fill="none" stroke="#000" stroke-miterlimit="10" stroke-width=".1"/><path d="m241.64 202.821c2.708-.002 5.418-.003 8.13-.013.041 2.334.053 4.67.055 7.008-2.738.004-5.476.003-8.211-.004.001-2.333.006-4.662.026-6.991z"/><path d="m277.639 202.822c2.711-.003 5.422-.004 8.136-.012.036 2.333.046 4.668.05 7.006-2.739.003-5.475.003-8.209-.004-.001-2.332.003-4.662.023-6.99z" fill="none" stroke="#000" stroke-miterlimit="10" stroke-width=".1"/><path d="m277.639 202.822c2.711-.003 5.422-.004 8.136-.012.036 2.333.046 4.668.05 7.006-2.739.003-5.475.003-8.209-.004-.001-2.332.003-4.662.023-6.99z"/><path d="m169.641 202.819c2.711 0 5.422-.001 8.137-.008.035 2.333.044 4.666.049 7.003-2.74.005-5.477.006-8.212-.002 0-2.333.006-4.664.026-6.993z" fill="none" stroke="#000" stroke-miterlimit="10" stroke-width=".1"/><path d="m169.641 202.819c2.711 0 5.422-.001 8.137-.008.035 2.333.044 4.666.049 7.003-2.74.005-5.477.006-8.212-.002 0-2.333.006-4.664.026-6.993z"/><path d="m44.144 218.895c1.982-.753 3.959-1.518 5.924-2.312 6.609 17.909 13.199 35.825 19.844 53.722-1.919.771-3.893 1.411-5.933 1.776-6.481-17.776-13.318-35.423-19.835-53.186z" fill="none" stroke="#000" stroke-miterlimit="10" stroke-width=".1"/><path d="m44.144 218.895c1.982-.753 3.959-1.518 5.924-2.312 6.609 17.909 13.199 35.825 19.844 53.722-1.919.771-3.893 1.411-5.933 1.776-6.481-17.776-13.318-35.423-19.835-53.186z"/><path d="m153.379 286.381c19.08-.002 38.16 0 57.242 0-.004 1.997-.005 3.998-.006 6.001-19.077-.003-38.152-.003-57.229 0-.005-2.003-.007-4.004-.007-6.001z" fill="none" stroke="#000" stroke-miterlimit="10" stroke-width=".1"/><path d="m153.379 286.38137c19.08-.003 38.16 0 57.242 0-.004 2.81946-.005 5.64457-.006 8.47251-19.077-.004-38.152-.004-57.229 0-.005-2.82794-.007-5.65305-.007-8.47251z"/></svg>