<svg enable-background="new 0 0 580 580" height="160" viewBox="0 0 160 160" width="160" xmlns="http://www.w3.org/2000/svg"><path d="m17.837663 150.0613 11.06454-73.837724 8.67461-5.27511 8.48543 5.41553s9.620531 74.592154 8.717211 74.144884c-.90333-.44727-36.761251.22379-36.941791-.44758z" fill="#c87137" stroke-width=".311017"/><path d="m75.033694 110.98099c-.013-.58926-.27189-1.14466-.71291-1.52799l-29.675091-25.804784 29.675091-25.80446c.44071-.38333.69994-.93905.71291-1.52799.013-.58894-.2219-1.15595-.64563-1.5584l-10.06864-9.56979c-.42589-.40496-1.003-.60399-1.5829-.55008-.58081.0549-1.11071.35983-1.45574.8375l-23.763531 32.90501-23.76352-32.90501c-.34504-.47767-.87493-.78265-1.45575-.8375-.57959-.0539-1.15701.14544-1.5829.55008l-10.0689506 9.56979c-.42373001.40277-.65828002.96946-.64562001 1.5584.0126.58894.27189 1.14466.71290001 1.52799l29.6750906 25.80446-29.6750906 25.804784c-.44070001.38333-.69994001.93873-.71290001 1.52799-.01300001.58895.22189 1.15595.64562001 1.5584l10.0689506 9.56948c.3796.36076.87863.55917 1.39372.55917.063 0 .12622-.003.18918-.009.58082-.0549 1.11071-.35951 1.45575-.8375l23.76352-32.904704 23.763531 32.904704c.34503.47767.87493.78264 1.45574.8375.0633.006.12623.009.18919.009.51508 0 1.01411-.19841 1.39371-.55917l10.06864-9.56948c.42373-.40276.65859-.96945.64563-1.5584zm-38.809541-27.332774 1.29279-1.27003 1.29249 1.27003-1.29249 1.27036z" fill="#502d16" stroke-width=".311017"/><g fill="#500" transform="matrix(.30861723 0 0 .31343479 -8.479366 -10.895934)"><path d="m545.682 194.647c-1.16-5.038-4.064-9.303-8.713-12.793l-223.264-147.091-20.352 29.649c-5.039 6.979-3.873 12.988 3.496 18.027 6.967 4.259 12.971 3.094 18.01-3.495l11.639-17.442 181.391 119.199-148.246 26.739c-5.43 1.16-9.791 3.969-13.086 8.429-3.295 4.459-4.166 9.209-2.617 14.247l31.975 125.002-104.65 156.407c-1.939 3.478-2.91 7.156-2.91 11.036 0 6.198 2.23 11.527 6.689 15.987 4.459 4.459 9.787 6.688 15.986 6.688 8.139 0 14.727-3.874 19.766-11.622l109.299-164.551 5.82 22.676-16.271 123.263c-.781 6.198.574 11.723 4.064 16.572 3.488 4.85 8.332 7.854 14.531 9.014 6.211 1.159 11.93-.101 17.158-3.779s8.232-8.623 9.014-14.833l16.855-126.155c.391-4.271.004-8.729-1.152-13.378l-37.227-148.263 97.109-17.441c5.039-.769 9.107-3.383 12.207-7.843 3.1-4.459 4.258-9.208 3.479-14.249z"/><path d="m379.693 184.472c7.559-7.174 11.338-15.989 11.338-26.446 0-10.468-3.779-19.289-11.338-26.464-7.561-7.174-16.572-10.761-27.041-10.761-10.457 0-19.371 3.587-26.74 10.761-7.369 7.175-11.053 15.996-11.053 26.464 0 10.457 3.684 19.272 11.053 26.446 7.369 7.175 16.283 10.762 26.74 10.762 10.469-.001 19.481-3.588 27.041-10.762z"/></g></svg>