<svg height="558.8587" width="596.53082" xmlns="http://www.w3.org/2000/svg"><path d="m0 0h596.53082v558.8587h-596.53082z" fill="#fff"/><g transform="matrix(-.79157777 .52526625 .52526625 .79157777 331.22721 -172.51071)"><g fill-rule="evenodd"><path d="m438.12826 429.16927c-62.79839-3.16426-155.20224 7.89495-186.20451-31.3992-14.20607-74.76934-54.80076-112.40662-124.50145-113.18313-42.795768-82.64828 34.88862-95.59972 87.99076-116.8342 3.3733 38.41563 1.30629 78.34741 62.06817 100.7695 2.43911-11.88771 7.42309-21.59411 23.36684-21.90641l89.81629.36511 63.52859-49.65454c10.2664 16.32783 30.63852 37.24918 30.66898 48.92432l96.38822.36511c7.01925 5.97861 12.97283 21.84281-1.09532 37.60601-57.74129-1.75276-162.68681 4.55533-142.02657 144.94743z"/><path d="m281.45311 113.13794.25817-34.043529 38.12235-5.174139v-27.017909l-38.89686 6.464987c2.8605-24.34011 18.51028-41.939346 52.98479-47.0361453 21.6463 1.5255947 44.34631 2.6992313 57.25914 43.1895493 3.78428 16.060343 1.42553 32.309362-8.54869 46.305931-32.28759-17.699463-56.45288-5.617153-78.49798 14.239165z"/><path d="m215.04795 186.7383 113.54824-85.80012c15.26233-8.1407 32.0941-9.689721 52.21028 2.55575 17.19617 15.62165 46.2444 58.89814 69.37031 88.35586l-64.62391 48.37667-62.06818-86.34778-98.21375 75.21202c-7.55995-13.19498-9.32895-28.68129-10.22299-42.3524z"/></g><path d="m241.70075 414.19989a83.609474 83.609474 0 1 1 -167.218946 0 83.609474 83.609474 0 1 1 167.218946 0z" fill="none" stroke="#000" stroke-linecap="round" stroke-linejoin="round" stroke-width="34.999699" transform="matrix(.974466 0 0 .974466 -15.3767 -10.0838)"/><path d="m241.70075 414.19989a83.609474 83.609474 0 1 1 -167.218946 0 83.609474 83.609474 0 1 1 167.218946 0z" fill="none" stroke="#000" stroke-linecap="round" stroke-linejoin="round" stroke-width="34.999699" transform="matrix(.974466 0 0 .974466 388.618 -9.97323)"/></g><path d="m596.05585 177.69519c-244.72833 273.31484-566.849387 380.68851-566.849387 380.68851h566.849387z" fill="#d45500" stroke="#000" stroke-width=".95"/></svg>