<svg height="16" viewBox="0 0 16 16" width="16" xmlns="http://www.w3.org/2000/svg"><g fill="#502d16" stroke="#a05a2c" transform="translate(-263.31 -702.69)"><path d="m273.79564 708.31969c-.10816.008-.21329.0242-.31957.0363h-.006l-.25419 1.38723c-.41436.0944-.80413.25448-1.15483.47209l-1.14101-.82072c-.30826.23931-.58876.51843-.83521.82072l.79166 1.15483c-.24036.36733-.42113.78679-.52293 1.22742-.00001.002-.00001.006 0 .006l-1.37999.21789c-.0251.20606-.0363.41903-.0363.63187 0 .17416.004.34598.0218.51568l1.37998.24693c.0982.47922.28459.92677.54472 1.32189l-.82072 1.12578c.23505.2918.50641.55747.79891.79166l1.16208-.79892c.40614.25909.85951.44076 1.35094.53021l.21787 1.37274c.15484.0141.31363.0145.47211.0145.22372 0 .43745-.009.65368-.0363l.26147-1.40179c.46657-.11611.90489-.31756 1.28552-.58831l1.11846.81347c.29006-.24677.5553-.53043.78443-.83527l-.81347-1.17664c.2203-.38046.37292-.80026.45029-1.24922l1.37274-.21789c.012-.14324.0144-.28216.0144-.42852 0-.25431-.0296-.50366-.0654-.74806l-1.39447-.25421c-.10928-.40351-.28858-.78002-.51566-1.11853l.82072-1.12577c-.2544-.31111-.5446-.59852-.86426-.84253l-1.18388.81348c-.34026-.20124-.70641-.35564-1.10397-.44305l-.21788-1.37998c-.19831-.0233-.39827-.0363-.60282-.0363-.0553 0-.11218-.001-.16706 0-.0268.00078-.0532-.001-.0799 0-.006.00048-.0146-.00048-.0218 0zm.18885 3.52984c.0265-.001.053 0 .0799 0 .85971 0 1.56153.70181 1.56153 1.56153 0 .85971-.70182 1.55428-1.56153 1.55428-.85972 0-1.55429-.69457-1.55429-1.55428 0-.83284.65184-1.51982 1.47438-1.56153z" stroke-width=".232415"/><path d="m265.86604 703.04061c-.0831.0387-.161.0837-.24116.12559l-.005.0009.21955 1.17196c-.29847.20003-.55758.4445-.76843.72252l-1.14925-.3021c-.17079.2823-.30763.58758-.41058.90087l.97475.6716c-.0785.36277-.0941.74861-.0409 1.12724.00063.002.00091.005.00091.005l-1.0231.59015c.0414.17052.0981.34178.16259.50979.0532.13732.10856.27164.17355.40038l1.16398-.22351c.22269.34849.50538.64526.83042.87832l-.30668 1.1372c.27392.15911.5686.28657.8704.3828l.67518-.98267c.39904.0815.81193.0875 1.22689.01l.58789 1.01746c.12601-.0375.25187-.0838.37688-.13208.17634-.0685.34263-.1394.50491-.22678l-.21838-1.18561c.33309-.23302.61799-.52482.83638-.85383l1.12927.30318c.15416-.28264.27756-.5869.36608-.89694l-.99859-.68223c.0587-.36703.0519-.74464-.0233-1.12243l1.0175-.58787c-.0324-.11717-.0747-.22694-.11901-.3424-.0768-.20082-.17599-.38856-.2782-.57064l-1.17775.22152c-.2085-.2854-.46406-.52824-.74586-.72661l.30672-1.13722c-.29508-.16845-.61122-.30737-.93744-.40312l-.68794 1.00074c-.32955-.0557-.66532-.0666-1.0056-.0152l-.59009-1.02319c-.16394.0402-.32536.0919-.4866.15456-.0433.018-.0886.0339-.13159.0514-.0227.00091-.0421.0164-.0638.022-.005.00091-.0124.00091-.0185.00091zm1.21855 2.72883c.0225-.00091.0415-.0172.0637-.0219.67852-.26061 1.44513.0808 1.70558.75937.26052.67853-.083 1.43939-.76153 1.69988-.67855.26052-1.43728-.0774-1.69772-.75587-.25232-.65735.0541-1.39703.69059-1.67919z" stroke-width=".196492"/></g></svg>