<svg height="284.39795" width="284.39795" xmlns="http://www.w3.org/2000/svg"><g transform="translate(-50.6582 -318.735)"><rect fill="#fff" height="269.39795" ry="21.770645" stroke="#000" stroke-linejoin="round" stroke-width="15" width="269.39795" x="58.158169" y="326.23465"/><g stroke-linecap="round" transform="matrix(1.0059105 0 0 .91621256 5.45151 35.853391)"><ellipse cx="216.662398" cy="414.98469" fill="none" rx="17.172594" ry="35.355339" stroke="#724500" stroke-linejoin="round" stroke-width="7"/><path d="m220.19643 323.73214c-2.09526.0127-3.78582 1.71721-3.78125 3.8125l-.58929 55.24107c-.0173 2.10559.77235 2.68751 3.33483 4.29019 2.56247 1.60268 4.27291 1.89576 4.29017-.20983l.58929-59.22768c.0278-1.03339-.36621-2.03359-1.09127-2.77044s-1.71877-1.14691-2.75248-1.13581z" fill="#dddd89" fill-rule="evenodd" stroke="#000" stroke-width="1.1"/></g><path d="m180.95481 544.89121c-32.79632-42.19559-80.1082-86.18096-105.309231-119.55446-3.548871-4.70635 11.679907-14.82004 14.359678-12.00274 25.050593 26.33627 66.325933 88.94247 97.565473 126.47951 9.15795 11.0167 15.27684 19.13886 27.22826 32.30735 9.11721-.20305 3.75101 5.48622 1.75597 7.07756-1.99507 1.59134-9.47628 7.00282-7.89537-1.00136-10.48662-12.81383-18.3139-21.2236-27.70478-33.30586z" fill="#a54f00" fill-rule="evenodd"/><g stroke-linecap="round"><path d="m-207.57811 269.4982a35.616119 39.714497 0 0 1 -35.61612 39.7145 35.616119 39.714497 0 0 1 -35.61612-39.7145 35.616119 39.714497 0 0 1 35.61612-39.7145 35.616119 39.714497 0 0 1 35.61612 39.7145z" fill-opacity=".14377" stroke="#000" stroke-linejoin="round" stroke-width="6.04296" transform="matrix(1.43652 -.432524 .217915 .868469 543.475 170.614)"/><path d="m252.81295 546.57068c-41.95443 6.09762-37.44009-17.34614-79.69065-7.88574 26.63142-15.95129 28.30955-41.72837 54.03094-56.01051" fill="none" stroke="#000" stroke-linejoin="round" stroke-width="7"/><path d="m175.3271 537.93677-50.17218 18.24021" fill="none" stroke="#000" stroke-linejoin="round" stroke-width="7"/><g fill="none" stroke="#000" transform="matrix(.744933 0 0 .728604 16.1045 104.159)"><path d="m-333.60289 985.94891a47.855976 44.699249 0 0 1 -47.85597 44.69929 47.855976 44.699249 0 0 1 -47.85598-44.69929 47.855976 44.699249 0 0 1 47.85598-44.69925 47.855976 44.699249 0 0 1 47.85597 44.69925z" stroke-linejoin="round" stroke-width="6.05757" transform="matrix(1.0972 0 0 1.21706 595.681 -802.555)"/><g stroke-width="7"><path d="m226.13628 377.58016c-29.02857 23.16556-63.22715 15.56365-98.23734 5.55583"/><path d="m229.16674 407.63222c-34.66963 15.3278-73.8137 13.1085-99.50003 4.2931"/><path d="m160.7289 345.25527c-.12815 16.27538 5.18242 38.87615 9.34391 45.96194"/><path d="m191.7911 345.00274c4.04133 16.73508 1.64793 32.49938-1.01016 47.22463"/></g></g><g transform="matrix(1.0061126 0 0 .91342111 55.915321 37.116473)"><ellipse cx="216.662398" cy="414.98469" fill="none" rx="17.172594" ry="35.355339" stroke="#724500" stroke-linejoin="round" stroke-width="7"/><path d="m220.19643 323.73214c-2.09526.0127-3.78582 1.71721-3.78125 3.8125l-.58929 55.24107c-.0173 2.10559.77235 2.68751 3.33483 4.29019 2.56247 1.60268 4.27291 1.89576 4.29017-.20983l.58929-59.22768c.0278-1.03339-.36621-2.03359-1.09127-2.77044s-1.71877-1.14691-2.75248-1.13581z" fill="#dddd89" fill-rule="evenodd" stroke="#000" stroke-width="1.1"/></g></g></g></svg>