<svg height="16" viewBox="0 0 16 16" width="16" xmlns="http://www.w3.org/2000/svg"><g transform="translate(0 -1036.3622)"><path d="m0 1036.3622h16v16h-16z" fill="#fff" fill-rule="evenodd"/><path d="m13.02 1038.8442c.1136.1466.03445.3313.01888.4953-.06949.352-.1392.7041-.212107 1.0554-.244266.9111-.858293 1.6577-1.48272 2.3401-.253013.2253-.45552.5935-.835733.5964-.314453.043-.6135467-.2777-.51536-.5888.011627-.1353.1368-.204.234507-.2759.787093-.5619 1.53504-1.2145 2.052106-2.0414.268854-.5167.532907-1.0364.740427-1.5811z"/><path d="m2.6573333 1039.0191c.3812267-.3828.9315734-.5339 1.4577067-.5614.04912.1037.093227.2125.077173.3299-.2098133.072-.4434133.091-.6236266.232-.3531734.2471-.46096.7027-.50992 1.1062-.086773 1.1676.26672 2.3208.7606933 3.3661.39824.2096.8558933.2538 1.2984533.2682.2251733.015.45424 0 .6711467-.068.4786133-.1536.84176-.5318 1.3112533-.7051.2141867-.065.5072-.0006.5948267.2285.07376.1449.00784.3115-.069333.4402-.1800534.2776-.4821867.4483-.7865067.5584-.4456.173-.93264.137-1.4009067.1392-.4960533-.026-1.0066667-.1008-1.44688-.3452-.43488-.2189-.77792-.5918-1.0141866-1.0129-.4571734-.7247-.8021867-1.546-.8526934-2.4093-.036587-.5625.1108267-1.1702.5328-1.5671z"/><path d="m2.5871467 1039.6965c.092693-.2519.2930666-.4346.4775466-.6196-.2677333.369-.3322133.8434-.3554133 1.2872-.018027.7173.1379733 1.4237.3288 2.1108-.2600533-.5521-.5044267-1.1244-.5705067-1.7371-.014187-.3499-.026933-.7141.1195734-1.0413z" fill="#fff"/><path d="m8.3061867 1039.7723c.46336-.057.9576.1943 1.1611733.6196.3202667.5586.028427 1.342-.56544 1.5757-.3585067.1641-.7944.1116-1.1155733-.112-.3914134-.2792-.5994667-.8191-.43472-1.2812.1288-.4243.5152533-.7456.95456-.8021z"/><path d="m9.3057067 1046.4419c.025013-.2115.20704-.3656.3981333-.4319.212-.014.422293.062.61424.1463.64912.3434 1.105867 1.0009 1.256427 1.7144.109066.4416.02315.9259-.24512 1.2951-.381014.4851-.875414.8893-1.4507203 1.1202-.4252267.1909-.8802134.3027-1.3335467.404-.2108267.053-.4222933.1388-.6439467.1122.4341334-.2874.9364267-.4432 1.4045334-.6634.5893333-.3008 1.1338663-.7903 1.3065603-1.4505.107893-.3316.04635-.7268-.216907-.9694-.283253-.2534-.6516267-.4055-.89696-.7032-.1221333-.1625-.2328533-.3637-.1926933-.5738z"/><path d="m7.84064 1046.7625c.1577067-.3519.52992-.6799.9389333-.5674.097227.1271.2556267.2222.28128.3922.08112.2993-.0005866.6085-.079413.8989-.10112.3382-.2344533.6676-.40432.9773-.3999467.8138-.91008 1.5835-1.5705067 2.2098-.6192533.6097-1.38256 1.0519-2.18048 1.3844-.06448.021-.1309333.029-.1993066.023.28336-.2327.57248-.4588.8487466-.7001.5346667-.4874.93872-1.0941 1.3317334-1.6958.1644266-.3011.3799466-.5767.4896-.9052.2155733-.6626.2619733-1.3752.5437333-2.0169z"/><path d="m13.5 1037.3622c.276125 0 .5.2238.5.4999 0 .2763-.223875.5001-.5.5001s-.5-.2238-.5-.5001c0-.2761.223875-.4999.5-.4999"/></g></svg>