<svg height="16" viewBox="0 0 16 16" width="16" xmlns="http://www.w3.org/2000/svg" xmlns:xlink="http://www.w3.org/1999/xlink"><linearGradient id="a" gradientUnits="userSpaceOnUse" x1="-195.38350312457" x2="-195.38350312457" y1="615.83865171082" y2="561.13401951998"><stop offset="0" stop-color="#dcdcdc"/><stop offset="1" stop-color="#fff"/></linearGradient><radialGradient id="b" cx="-601.7984" cy="260.15005" gradientTransform="matrix(1 0 0 1.2 0 -52.03003)" gradientUnits="userSpaceOnUse" r="2.525381"><stop offset="0" stop-color="#722e00"/><stop offset=".5" stop-color="#722e00"/><stop offset="1" stop-color="#722e00" stop-opacity="0"/></radialGradient><g transform="translate(0 -1036.3622)"><rect fill="#008000" fill-rule="evenodd" height="14.977016" ry="2.488543" stroke="#001a00" stroke-width="1.022984" width="14.977016" x=".511492" y="1036.8737"/><g clip-rule="evenodd" fill-rule="evenodd" stroke="#000" stroke-miterlimit="10" stroke-width=".036" transform="matrix(.08966889 0 0 .09416287 2.044698 1038.1613)"><path d="m52.83.018c29.152 0 52.813 22.531 52.813 50.292 0 27.76-23.66 50.292-52.813 50.292s-52.812-22.532-52.812-50.292c0-27.761 23.66-50.292 52.812-50.292"/><g fill="#fff"><path d="m25.254 11.218c-1.548.648-2.664 1.332-3.78 2.196-1.116.756-1.908 1.692-2.664 2.664-.864.9-1.584 1.872-2.16 2.916l7.128-1.836c.468-1.98.972-3.96 1.476-5.94z"/><path d="m32.886 8.086 15.984-3.888 11.016 9.108-2.916 11.628-12.24 5.688-15.48-4.104-2.304-9.468z"/><path d="m63.342 14.026-1.943 11.016 12.131 12.132 12.96-1.944 3.996-14.544-14.184-11.628z"/><path d="m76.05 41.278 12.24-2.196 7.272 12.24-10.044 16.596-12.6-1.188-4.607-10.549z"/><path d="m94.482 75.91-5.832-6.768 10.188-17.209 3.528-1.943c.036 4.176-.288 7.703-.972 11.268-.828 3.527-2.053 6.732-3.276 9.324-1.223 2.447-2.34 4.176-3.636 5.328z"/><path d="m33.894 63.418 14.436-10.656 16.236 4.248 5.184 12.205-8.964 11.771-20.232-4.248z"/><path d="m64.962 97.113c-2.988.434-6.012.756-9.216.828-3.312.072-6.84 0-10.044-.359-3.42-.504-6.588-1.404-9.36-2.305-2.772-.971-4.896-2.051-6.768-3.383l-.252-4.861 9.576-7.271 21.457 3.781 6.155 9.432z"/><path d="m14.31 43.726 13.212-13.428 14.292 3.996 3.636 15.48-14.904 11.521-12.96-.361z"/><path d="m9.45 71.123c-1.152.467-2.232-.758-3.384-3.277-1.26-2.736-2.952-8.244-3.528-12.348-.54-4.141-.504-8.172.252-12.24l7.524 2.412 3.996 16.705z"/></g></g><g transform="matrix(.04639138292 -.03935878894 .03935878894 .04639138292 -5.28188890024 1014.04325920662)"><path d="m-154.88169 526.71821c42.59952-.90826 78.680414 29.96229 78.590875 47.4857-.08736 17.09691-33.639665 46.6801-77.239375 46.6801-43.29428 0-79.83533-31.66156-80.42352-47.4857-.58819-15.82412 36.47251-45.77183 79.07202-46.6801z" fill="#ad4700"/><path d="m-154.97557 545.09317c38.75501-1.61118 78.153693 12.54824 78.684772 29.10969.531075 16.56145-43.125432 31.09477-78.985982 29.84028-36.29251-1.25669-78.66157-20.64544-78.67692-30.64587-.0154-10.01263 40.22312-26.69292 78.97813-28.3041z" fill="none" stroke="#722e00" stroke-linecap="round" stroke-linejoin="round" stroke-width=".855235"/><path d="m-206.64649 541.9655c5.31638 10.96889 9.02803 36.91689.0693 63.21257 4.35714 2.7866 9.12327 5.22579 14.11079 7.4694 14.01257-27.44141 7.74247-69.75309.30459-77.91935-5.10842 2.07955-9.82552 4.44124-14.48471 7.23738z" fill="url(#a)"/><path d="m-117.9519 614.55382c6.05822-2.56898 11.74575-5.57547 16.85603-8.82714 12.408032-19.52899 9.166278-45.8891.93681-62.71447-5.14095-3.4559-10.94992-6.62557-17.25821-9.22863 8.57786 13.87429 13.20948 56.96284-.53463 80.77024z" fill="url(#a)"/><path d="m-176.45096 547.4503c12.94624-2.90958 34.65289-3.20703 48.11554-1.05005" fill="none" stroke="#ececec" stroke-linecap="round" stroke-width="4.276174"/><path d="m-176.45096 547.4503c12.94624-2.90958 34.65289-3.20703 48.11554-1.05005" fill="none" stroke="#722e00" stroke-linecap="round" stroke-width=".470379"/><g fill="url(#b)"><ellipse cx="-601.7984" cy="260.15005" rx="2.525381" ry="3.030458" transform="matrix(.00400569 -.7839546 .7839546 .00400569 -375.12131 79.283681)"/><ellipse cx="-601.7984" cy="260.15005" rx="2.525381" ry="3.030458" transform="matrix(.00400569 -.7839546 .7839546 .00400569 -375.88076 69.452588)"/><ellipse cx="-601.7984" cy="260.15005" rx="2.525381" ry="3.030458" transform="matrix(.00400569 -.7839546 .7839546 .00400569 -370.31489 68.617109)"/><ellipse cx="-601.7984" cy="260.15005" rx="2.525381" ry="3.030458" transform="matrix(.00400569 -.7839546 .7839546 .00400569 -368.6365 78.290924)"/><ellipse cx="-601.7984" cy="260.15005" rx="2.525381" ry="3.030458" transform="matrix(.00400569 -.7839546 .7839546 .00400569 -361.83182 78.001727)"/><ellipse cx="-601.7984" cy="260.15005" rx="2.525381" ry="3.030458" transform="matrix(.00400569 -.7839546 .7839546 .00400569 -363.34815 68.328724)"/><ellipse cx="-601.7984" cy="260.15005" rx="2.525381" ry="3.030458" transform="matrix(.00400569 -.7839546 .7839546 .00400569 -356.21806 67.825205)"/><ellipse cx="-601.7984" cy="260.15005" rx="2.525381" ry="3.030458" transform="matrix(.00400569 -.7839546 .7839546 .00400569 -355.02501 77.388524)"/><ellipse cx="-601.7984" cy="260.15005" rx="2.525381" ry="3.030458" transform="matrix(.00400569 -.7839546 .7839546 .00400569 -348.16902 77.639535)"/><ellipse cx="-601.7984" cy="260.15005" rx="2.525381" ry="3.030458" transform="matrix(.00400569 -.7839546 .7839546 .00400569 -348.92933 67.970424)"/><ellipse cx="-601.7984" cy="260.15005" rx="2.525381" ry="3.030458" transform="matrix(.00400569 -.7839546 .7839546 .00400569 -348.87502 67.86275)"/><ellipse cx="-601.7984" cy="260.15005" rx="2.525381" ry="3.030458" transform="matrix(.00400569 -.7839546 .7839546 .00400569 -341.53368 68.27818)"/><ellipse cx="-601.7984" cy="260.15005" rx="2.525381" ry="3.030458" transform="matrix(.00400569 -.7839546 .7839546 .00400569 -341.52898 77.889392)"/><ellipse cx="-601.7984" cy="260.15005" rx="2.525381" ry="3.030458" transform="matrix(.00400569 -.7839546 .7839546 .00400569 -333.9717 78.306019)"/><ellipse cx="-601.7984" cy="260.15005" rx="2.525381" ry="3.030458" transform="matrix(.00400569 -.7839546 .7839546 .00400569 -334.2488 69.125375)"/></g><path d="m-572.31596 276.19311a14.268405 4.2931485 0 0 1 -4.16257 4.95836 14.268405 4.2931485 0 0 1 -16.9778.24194 14.268405 4.2931485 0 0 1 -5.70138-4.8178" fill="none" stroke="#fff" stroke-linecap="round" stroke-linejoin="round" stroke-width="5.343418" transform="matrix(-.03687439 -.3597848 .4276117 .00218492 -314.06098 335.7153)"/><path d="m-572.31596 276.19311a14.268405 4.2931485 0 0 1 -4.16257 4.95836 14.268405 4.2931485 0 0 1 -16.9778.24194 14.268405 4.2931485 0 0 1 -5.70138-4.8178" fill="none" stroke="#fff" stroke-linecap="round" stroke-linejoin="round" stroke-width="5.343418" transform="matrix(-.06198655 -.3599131 .4276117 .00218492 -322.4983 335.02423)"/><path d="m-572.31596 276.19311a14.268405 4.2931485 0 0 1 -4.16257 4.95836 14.268405 4.2931485 0 0 1 -16.9778.24194 14.268405 4.2931485 0 0 1 -5.70138-4.8178" fill="none" stroke="#fff" stroke-linecap="round" stroke-linejoin="round" stroke-width="5.343418" transform="matrix(-.06198655 -.3599131 .4276117 .00218492 -315.90829 334.51797)"/><path d="m-572.31596 276.19311a14.268405 4.2931485 0 0 1 -4.16257 4.95836 14.268405 4.2931485 0 0 1 -16.9778.24194 14.268405 4.2931485 0 0 1 -5.70138-4.8178" fill="none" stroke="#fff" stroke-linecap="round" stroke-linejoin="round" stroke-width="5.343418" transform="matrix(-.03687428 -.3597848 .4276117 .00218492 -294.29091 334.19645)"/><path d="m-572.31596 276.19311a14.268405 4.2931485 0 0 1 -4.16257 4.95836 14.268405 4.2931485 0 0 1 -16.9778.24194 14.268405 4.2931485 0 0 1 -5.70138-4.8178" fill="none" stroke="#fff" stroke-linecap="round" stroke-linejoin="round" stroke-width="5.343418" transform="matrix(-.01804007 -.3596886 .4276117 .00218492 -276.13513 334.18122)"/><path d="m-572.31596 276.19311a14.268405 4.2931485 0 0 1 -4.16257 4.95836 14.268405 4.2931485 0 0 1 -16.9778.24194 14.268405 4.2931485 0 0 1 -5.70138-4.8178" fill="none" stroke="#fff" stroke-linecap="round" stroke-linejoin="round" stroke-width="5.343418" transform="matrix(.00707235 -.3595599 .4276117 .00218492 -254.41414 334.72417)"/><path d="m-572.31596 276.19311a14.268405 4.2931485 0 0 1 -4.16257 4.95836 14.268405 4.2931485 0 0 1 -16.9778.24194 14.268405 4.2931485 0 0 1 -5.70138-4.8178" fill="none" stroke="#fff" stroke-linecap="round" stroke-linejoin="round" stroke-width="5.343418" transform="matrix(.00707235 -.3595599 .4276117 .00218492 -247.07311 335.19365)"/><path d="m-154.9375 524.71875c-21.75575.46386-41.97483 8.29278-56.78125 18.0625-7.40321 4.88486-13.46085 10.27359-17.6875 15.53125s-6.70813 10.39775-6.53125 15.15625c.17468 4.69944 2.81593 9.89484 7.15625 15.28125s10.45116 10.92406 17.90625 15.96875c14.91019 10.08938 35.20907 18.15624 57.34375 18.15625 22.2522 0 41.89709-7.53051 56.0625-17.28125 14.165414-9.75074 23.137168-21.52417 23.1875-31.375.02591-5.07016-2.457879-10.59656-6.65625-16.15625s-10.177251-11.15255-17.5-16.15625c-14.6455-10.0074-34.70543-17.65218-56.5-17.1875zm.0937 4c20.80494-.44358 40.10256 6.88709 54.125 16.46875 7.011221 4.79083 12.720901 10.15263 16.59375 15.28125s5.862613 10.02721 5.84375 13.71875c-.03702 7.24608-7.904993 18.80992-21.4375 28.125-13.53251 9.31508-32.46499 16.5625-53.8125 16.5625-21.1596-.00001-40.76279-7.77132-55.09375-17.46875-7.16548-4.84871-13.00175-10.15558-17.03125-15.15625s-6.19309-9.72487-6.3125-12.9375c-.11722-3.15357 1.79946-7.66355 5.6875-12.5s9.66787-9.99388 16.78125-14.6875c14.22676-9.38723 33.81249-16.96184 54.65625-17.40625z"/></g></g></svg>