<svg enable-background="new 0 0 455.148 454.788" height="160" viewBox="0 0 160 160" width="160" xmlns="http://www.w3.org/2000/svg"><path d="m0 0h160v160h-160z" fill="#fff"/><g clip-rule="evenodd" fill-rule="evenodd" stroke-width=".439635"><path d="m104.75739 36.012166c0 6.95359-5.33049 12.58867-11.90527 12.58867s-11.90438-5.63508-11.90438-12.58867 5.3296-12.58867 11.90438-12.58867 11.90527 5.63552 11.90527 12.58867z" fill="#7f7f7f"/><path d="m20.39434 31.931486c0 3.20211-2.77228 5.79205-6.19323 5.79205s-6.1942203-2.58994-6.1942203-5.79205c0-3.2021 2.7732703-5.80774 6.1942203-5.80774s6.19323 2.60564 6.19323 5.80774z" fill="#7f7f7f"/><path d="m65.13272 53.969506c-4.62744-1.75802-9.16001-2.02486-13.85172-.81622-4.69171 1.22433-10.43623 6.63966-14.05874 8.05235-3.607 1.36561-6.31945 1.397-7.42056.20406-1.0692-1.22434-1.24519-4.48923.973-7.44019 2.25011-2.95096 6.99014-7.73842 12.30378-10.10861 5.33004-2.35448 13.58088-3.81427 19.32583-3.92414 5.74495-.0942 11.44203 1.56966 14.84113 3.29628 3.36718 1.74232 3.2076 5.5252 5.26577 7.03208 2.07545 1.47548 5.12302.18835 7.02249 1.85219 1.89859 1.67954 3.14377 4.47353 4.29276 8.05236 1.14899 3.57882-.47875 8.46046 2.53691 13.21653 3.08038 4.75607 7.21355 9.88886 14.65008 15.27279 3.92527-5.13235 5.4413-7.78508 8.04338-11.22307 2.58523-3.43755 8.68126-12.8869 8.68126-12.8869s-2.93675-8.13084-.38344-12.76133c2.56971-4.59911 6.75076-11.50561 9.99028-13.42059 3.23996-1.89929 7.64398 1.33421 11.52182 4.39504 3.90976 3.07654 6.89351 3.2335 6.63817 6.67106-.25444 3.43755-5.20148 9.37086-8.44144 13.32641-4.93153 5.61938-12.84636 4.85024-14.92093 4.85024-1.9305 2.68412-5.87262 8.94706-8.05889 12.36892-2.18627 3.45325-7.24502 10.59564-9.75046 13.62465-2.48904 3.01374-3.07949 4.11294-5.07427 4.34839-2.01118.18836-3.98955-1.19294-6.83011-3.10793-2.85696-1.91542-6.94182-4.89734-10.14942-8.25684-3.22311-3.37477-6.15987-7.22044-8.98447-11.75675l-7.61206 9.90455c4.7551 3.75149 8.77657 7.3931 12.28737 11.14502 3.52721 3.75148 7.34122 6.984984 8.60147 11.144584 1.22834 4.1596.38256 6.63966-1.1809 13.62465-1.57987 7.04777-5.88814 21.95953-8.20252 28.0812-2.28202 6.04276-3.27099 7.26753-5.45815 8.05236-2.20179.7373-6.60625.31393-7.61206-3.51604-.97301-3.87706.91006-12.66715 1.75584-19.40099.8613-6.7334 1.94735-13.49907 3.31975-20.64102l-15.81458-11.77245c-9.33599 12.99722-16.75656 23.19957-22.64469 31.17344-5.85711 7.92678-8.90468 12.19669-12.30378 16.10514-3.36762 3.87706-5.20237 6.2782-7.80356 7.01638-2.60119.72204-7.10185.14127-7.61207-2.68412-.47874-2.85678.27129-5.74495 4.69172-14.23681 4.45234-8.5856 13.69214-22.28873 21.65528-36.54168 7.99329-14.284774 16.41922-30.106944 25.77073-48.314994zm66.80105-4.92873c-4.13229 5.27406-4.30827 11.94511-.39807 14.91177 3.92527 2.96665 10.43622 1.09876 14.5694-4.1753l4.21296-5.66647c4.11678-5.27405.0962-6.27864-3.83041-9.24529l-3.81401-2.52715c-3.90976-2.96666-6.62221 1.42839-10.73987 6.70244z" fill="#7f7f7f"/><path d="m1.2201097 74.249506v3.09223h40.4859603v-3.09223z" fill="#7f7f7f"/><path d="m40.81808 77.357436h3.14377l-.0319-15.91635-3.11185 1.80511z" fill="#7f7f7f"/><path d="m40.8336 43.798116 3.12825-1.42839v-40.7954503h-3.14377z" fill="#7f7f7f"/><path d="m47.57869 84.201146 1.59582-2.55854-7.37224-7.25183-2.21819 2.19753z" fill="#7f7f7f"/><path d="m123.12528 147.67819 2.21819-2.18183-27.62365-26.7627-1.13259 4.00264z" fill="#7f7f7f"/><path d="m103.97544 34.851056c0 6.95359-5.33049 12.58867-11.90527 12.58867s-11.90438-5.63508-11.90438-12.58867 5.3296-12.58867 11.90438-12.58867 11.90527 5.63508 11.90527 12.58867z" fill="#a02c2c"/><path d="m19.49458 30.769936c0 3.20211-2.75476 5.79205-6.17621 5.79205-3.4209603 0-6.1937303-2.58994-6.1937303-5.79205 0-3.2021 2.77277-5.80774 6.1937303-5.80774 3.42145 0 6.17621 2.60564 6.17621 5.80774z" fill="#160379"/><path d="m64.35077 52.807956c-4.62744-1.75801-9.16001-2.02486-13.86724-.81622-4.69171 1.22434-10.42115 6.63966-14.04366 8.05235-3.60656 1.36561-6.33541 1.4127-7.42013.20406-1.0692-1.22433-1.24518-4.48923.97301-7.44019 2.25011-2.95096 6.9897-7.73842 12.30378-10.1086 5.33004-2.35449 13.56447-3.81428 19.32538-3.92415 5.729-.0942 11.44248 1.56966 14.82473 3.31198 3.36719 1.72663 3.22445 5.5095 5.28261 7.01638 2.05906 1.47548 5.10707.20405 7.02161 1.8522 1.89947 1.67953 3.14466 4.47353 4.29365 8.05235s-.49515 8.46046 2.53691 13.21653c3.06397 4.75607 7.21355 9.88886 14.63367 15.27279 3.94212-5.13235 5.45815-7.78508 8.04338-11.22307s8.69767-12.8869 8.69767-12.8869-2.93676-8.13084-.39896-12.76133c2.56883-4.59911 6.75077-11.50561 9.9894-13.40489 3.23995-1.91499 7.64398 1.31851 11.53822 4.37935 3.89336 3.07653 6.8935 3.23349 6.62221 6.67105-.25533 3.43755-5.18686 9.37087-8.44233 13.32641-4.91513 5.61938-12.82995 4.85025-14.90452 4.85025-1.94735 2.68411-5.87262 8.94705-8.05889 12.38461-2.18717 3.43712-7.24503 10.5795-9.75047 13.60851-2.48992 3.01375-3.08038 4.12864-5.09067 4.34839-1.99477.18836-3.97403-1.19294-6.83011-3.10792-2.85607-1.91542-6.92542-4.89734-10.14942-8.25685-3.2076-3.37476-6.14346-7.22043-8.96851-11.75675l-7.62802 9.90456c4.75599 3.75148 8.79297 7.39309 12.30378 11.14501 3.5108 3.75149 7.32437 6.984994 8.58507 11.144594 1.24518 4.15959.39895 6.64009-1.16451 13.62464-1.57986 7.04777-5.88813 21.95954-8.20252 28.08121-2.28202 6.04275-3.27187 7.26752-5.45815 8.05235-2.20178.75344-6.62265.31394-7.61206-3.51603-.97301-3.87706.89322-12.66716 1.7554-19.401.84579-6.7334 1.93095-13.49907 3.31975-20.64102l-15.81502-11.77244c-9.33555 12.99721-16.75612 23.19956-22.6447 31.17343-5.85666 7.92722-8.90467 12.21195-12.30377 16.10515-3.36718 3.87706-5.21833 6.2782-7.80356 7.01637-2.60075.72205-7.10141.14127-7.61207-2.68411-.47874-2.85678.27129-5.74496 4.6762-14.23638 4.4683-8.58604 13.69214-22.28916 21.67124-36.54211 7.97866-14.284344 16.42011-30.106514 25.77162-48.314564zm66.78553-4.92873c-4.11766 5.27406-4.29276 11.94511-.38344 14.91177 3.90976 2.96666 10.43711 1.0992 14.57029-4.1753l4.19656-5.66647c4.13318-5.27405.0962-6.27863-3.81401-9.24529l-3.81401-2.52715c-3.92528-2.96666-6.62221 1.42839-10.75539 6.70244z" fill="#a02c2c"/><path d="m.43814971 73.087966v3.09222h40.48597029v-3.09222z" fill="#000080"/><path d="m40.03613 76.195886h3.14377l-.0319-15.91635-3.11185 1.80511z" fill="#000080"/><path d="m40.03613 42.636566 3.14377-1.42839v-40.79545026h-3.14377z" fill="#000080"/><path d="m46.78078 83.039606 1.59627-2.55855-7.35718-7.25183-2.23415 2.19753z" fill="#000080"/><path d="m122.34333 146.51664 2.21819-2.18183-27.62365-26.76269-1.13348 4.00263z" fill="#000080"/></g></svg>