<svg height="16" width="16" xmlns="http://www.w3.org/2000/svg"><path d="m0-.002h16v16h-16z" fill="#fff"/><g transform="matrix(-.02121368 0 0 .03086009 15.297342 7.115969)"><path d="m640.23853 222.03787c0 27.10477-21.97275 49.07752-49.07752 49.07752s-49.07752-21.97275-49.07752-49.07752 21.97275-49.07752 49.07752-49.07752 49.07752 21.97275 49.07752 49.07752z" transform="matrix(1.079545 0 0 1.079545 -521.3741 -27.12071)"/><path d="m285.83418 10.247082c2.82136-3.2663359 6.0364-6.0733784 11.97048-5.7082016h256.30729l127.38367 101.1426896c1.40564 2.97091 2.11691 5.24745 2.47353 7.16934l.48411 89.62664c-2.36768 5.13743-5.15318 9.52279-10.12099 9.97998h-29.56544c0-87.62676-129.5449-87.80573-129.5449 0h-332.83376c0-87.28688-130.530777-87.62179-130.530777 0h-36.065656c-3.075207-1.43844-5.8419586-.10079-9.9050852-10.43052l-.3943528-64.45244c2.0973064-5.86412 4.713128-8.09863 7.323065-10.37434l187.348426-31.123032z" fill-rule="evenodd"/><path d="m640.23853 222.03787c0 27.10477-21.97275 49.07752-49.07752 49.07752s-49.07752-21.97275-49.07752-49.07752 21.97275-49.07752 49.07752-49.07752 49.07752 21.97275 49.07752 49.07752z" transform="matrix(1.079545 0 0 1.079545 -58.73586 -27.14299)"/><g fill="#fff" fill-rule="evenodd"><path d="m226.41173 97.07302 63.84346-62.997849c1.43945-1.223265 2.57157-2.907517 5.07365-2.536826h113.52297v77.161795h-177.57783c-6.7601-2.66645-7.67484-6.70827-4.86225-11.62712z"/><path d="m585.23723 89.186408-54.71158-55.100008c-1.43945-1.223265-2.57157-2.907517-5.07365-2.536826h-95.50602v77.161786h162.76938c7.70221-1.53592-2.43326-11.927375-7.47813-19.524952z"/></g></g><path d="m7.1668715 7.3663586c-1.2351908-4.4165861-1.2719905-3.7897632-3.2101473-5.3057898" fill="none" stroke="#000" stroke-linecap="round"/><circle cx="3.60388" cy="1.99512" fill-rule="evenodd" r="1.05"/></svg>