<svg height="16" width="15" xmlns="http://www.w3.org/2000/svg"><g transform="translate(-310.5 -485.36218)"><path d="m315 499.36218a1 1 0 1 1 -2 0 1 1 0 1 1 2 0z" fill="#540" transform="matrix(1.4 0 0 1.4 -127.6 -199.24488)"/><path d="m315 497.36218h7c4 0 4-4 0-4h-1.5c-.5 0-3.5-2-3.5-3v-3c0-2-1-2-3-2s-3 0-3 2v3 5c0 1 1 2 2 2z" fill="#800000"/><g fill="#540"><path d="m315 499.36218a1 1 0 1 1 -2 0 1 1 0 1 1 2 0z" transform="matrix(1.4 0 0 1.4 -123.6 -199.24488)"/><path d="m315 499.36218a1 1 0 1 1 -2 0 1 1 0 1 1 2 0z" transform="matrix(1.4 0 0 1.4 -119.6 -199.24489)"/><path d="m315 499.36218a1 1 0 1 1 -2 0 1 1 0 1 1 2 0z" transform="matrix(1.4 0 0 1.4 -115.6 -199.24489)"/></g></g></svg>