<svg height="330.98572" width="343.85715" xmlns="http://www.w3.org/2000/svg"><g transform="translate(-156.64286 -326.86933)"><path d="m157.14286 489.50504s85.2877 41.41442 122.85714 48.57143 77.72748 7.53343 111.42857 0 108.57143-45.71428 108.57143-45.71428-71.33792-43.05602-108.57143-51.42858-75.54313-6.8362-111.42857 0-122.85714 48.57143-122.85714 48.57143z" fill="#de8787" fill-rule="evenodd" stroke="#000"/><path d="m434.28572 492.36218a61.42857 31.428572 0 1 1 -122.85714 0 61.42857 31.428572 0 1 1 122.85714 0z" transform="translate(-37.142857)"/><g stroke="#4a4f4f"><path d="m320 495.21933 125.71428 154.28571" fill="#a40" fill-rule="evenodd" stroke-width="16.700001"/><path d="m320 489.50504 125.71428-154.28571" fill="#a40" fill-rule="evenodd" stroke-width="16.700001"/><path d="m-68.327026 549.47522h60.019096v21.746651h-60.019096z" fill="#4d4d4d" stroke-width="12.619624" transform="matrix(.6470835 -.7624192 .8014277 .5980917 0 0)"/><path d="m723.31317-89.705688h60.019104v21.746651h-60.019104z" fill="#4d4d4d" stroke-width="12.619624" transform="matrix(.6470835 .7624192 .8014277 -.5980917 0 0)"/></g></g></svg>