<svg height="160" viewBox="0 0 160 160" width="160" xmlns="http://www.w3.org/2000/svg"><g transform="translate(-152.32 45713.79)"><rect fill="#036" height="160" rx="8.286023" stroke-width=".552401" width="160" x="152.32001" y="-45713.789"/><g fill="#eee" transform="matrix(.38353219 0 0 .40913443 103.79335 -45786.257)"><circle cx="246.64312" cy="278.41942" r="31.062191"/><rect height="132.33" rx="8.4027" ry="8.4374" transform="matrix(.68411441 -.72937472 .72937472 .68411441 0 0)" width="59.051998" x="-60.716" y="407.51001"/><rect height="80" rx="8.4353" ry="8.4047" transform="matrix(.72671856 -.68693532 .68693532 .72671856 0 0)" width="26.429001" x="-128.07001" y="363.82001"/><rect height="81.237" rx="8.3912" ry="8.4502" transform="matrix(-.67101 .74145 -.74746 -.6643 0 0)" width="26.811001" x="-71.902" y="-487.41"/><rect height="110.11" rx="8.4087" ry="8.4066" transform="matrix(.69576 .71827 -.69297 .72097 0 0)" width="36.370998" x="545.58002" y="-22.955"/><rect height="28.570999" rx="8.3058" ry="8.3059" transform="matrix(.70710678 -.70710678 .70710678 .70710678 0 0)" width="57.143002" x="-109.03" y="410.64001"/><rect height="30.714001" rx="8.3468" ry="8.3876" transform="matrix(.67947972 -.73369429 .73369429 .67947972 0 0)" width="49.285999" x=".22562" y="406.76001"/><rect height="132.86" rx="8.4145" ry="8.4246" transform="matrix(.70049835 -.71365403 .71365403 .70049835 0 0)" width="35" x="-27.4" y="590.71997"/><rect height="72.857002" rx="8.1672" ry="8.6969" transform="matrix(.11734674 -.993091 .993091 .11734674 0 0)" width="30.714001" x="-450.82999" y="413.13"/></g></g></svg>