<svg enable-background="new 0 0 455.148 454.788" height="160" viewBox="0 0 140 160" width="140" xmlns="http://www.w3.org/2000/svg"><path d="m0 0h140v160h-140z" fill="#fff"/><g clip-rule="evenodd" fill-rule="evenodd" stroke-width=".416637"><path d="m46.604867 41.60361c1.33496-1.13053 4.43371-4.48507 9.50845-10.2855 5.05643-5.83801 11.82274-13.82589 20.58382-24.3157805 5.73355 9.3778905 9.9531 16.1425705 13.06966 20.5905705 3.04484 4.39241 4.73641 6.31988 5.14595 5.78241 3.24021-3.336 5.965533-6.17161 8.315943-8.65508 2.31479-2.48347 4.11221-4.52214 5.53719-6.19014 7.12243 10.30455 13.03405 18.79283 18.21562 25.96524 5.09204 7.11681 9.13501 12.51003 12.26888 16.47616l-19.39131-18.53336c-1.60255 4.74454-4.21955 7.19095-7.92371 7.41334-3.81099.12974-9.59747-5.18933-14.262673-6.1716-4.66519-.98227-9.31257 2.03866-13.46188.40773-4.23785-1.7236-7.51367-8.54388-11.48442-10.30455-3.98857-1.74214-8.03055-1.74214-12.26889 0-4.61177 2.59415-9.22354 5.20736-13.85263 7.82056z" fill="#7f7f7f"/><path d="m47.357767 43.76034c-2.35397 1.13987-4.35185 2.6141-6.11373 4.48349-1.77586 1.85419-3.47811 3.29803-4.36625 6.62646-.93295 3.29803-1.24338 7.59914-1.05136 13.08572h-21.99611c.75492 2.85728 2.07272 5.09143 4.0114 6.82404 1.9099 1.70221 4.27785 2.85728 7.50473 3.40441 3.19728.53194 8.25964.47115 11.53134-.36475 3.25649-.9119 5.81687-2.58371 7.84518-5.01544l10.30235 9.31655c-4.26304 4.40708-7.3271 8.11547-9.41421 11.47471-2.11672 3.26763-3.70056 4.98546-2.97525 8.25225.72531 3.26763 2.96003 6.04892 7.34149 11.27755 4.36666 5.22864 10.50999 11.68749 18.6656 19.72781-10.39074 4.83263-19.19848 8.60181-26.88083 11.65666-7.66755 3.00969-13.64765 5.69936-18.85803 6.2617-5.2696.47072-9.60624-2.81168-12.38947-3.22246-2.7976198-.36434-4.1742198-.31916-4.1890198.89712.0148 1.20067.78451 5.10663 4.1890198 6.09452 3.3893.89712 4.26304 3.19206 15.9716-.56234 11.79737-3.86079 36.96115-15.63862 53.79087-22.08269 16.74172-6.44492 31.824783-11.77868 45.991333-16.24698l-3.50854-1.61102c-2.51597.72994-7.09027 2.08217-13.78087 4.11874-6.74981 2.02095-15.423923 4.71147-26.362353 8.06987-2.45758-3.64717-4.64831-6.38286-6.6318-8.43463-2.02791-2.05219-3.70056-3.28325-5.23999-3.7544-4.26263-4.90947-6.94183-8.49626-8.0372-10.94277-1.06617-2.43172.6805-2.62972 1.40622-3.58679.62169-.97312.44406-.44118 2.44195-2.32534 1.99789-2.03657 7.19388-6.62688 9.42861-9.31655 2.16112-2.68968 3.76017-3.96676 3.65656-6.4597-.13322-2.52249-1.58384-5.27338-4.35186-8.41943h23.906l1.583843 6.80883 1.74666-6.27689 11.16047-1.24626-10.30194-1.61102-2.96085-6.45927-1.227773 5.91213-27.39932-.18238c-5.03276-6.2009-9.53222-11.39872-13.61805-15.77582-4.10021-4.40751-7.66755-7.81192-10.82042-10.39563z" fill="#7f7f7f"/><path d="m30.995967 26.58458c6.1203 0 11.08727 5.09987 11.08727 11.38352s-4.96697 11.38352-11.08727 11.38352c-6.1199 0-11.08646-5.09987-11.08646-11.38352s4.96656-11.38352 11.08646-11.38352" fill="#7f7f7f"/><path d="m45.329447 42.86364c-2.35355 1.13987-4.35185 2.6141-6.11332 4.48349-1.77626 1.839-3.47852 3.32843-4.36624 6.64166-.93295 3.29802-1.2438 7.59914-1.05137 13.08572h-21.9961c.75491 2.87248 2.07231 5.06103 4.0114 6.80884 1.9099 1.70221 4.27784 2.85728 7.50473 3.40442 3.19728.53194 8.25964.47114 11.53134-.36476 3.25649-.9119 5.81686-2.58371 7.84477-5.01544l10.30234 9.31613c-4.26262 4.40793-7.32668 8.11631-9.41421 11.47471-2.11631 3.28325-3.70056 4.93987-2.97484 8.25309.73971 3.25202 2.91604 6.07932 7.32669 11.29233 4.38146 5.24341 10.49478 11.65667 18.68082 19.71176-10.39116 4.83348-19.19848 8.60266-26.88125 11.65752-7.66714 2.99406-13.64724 5.72891-18.85762 6.27647-5.26959.44117-9.60664-2.82646-12.3898698-3.23724-2.79762-.41077-4.17382-.30439-4.18903.89628.0148 1.20151.78452 5.10747 4.18903 6.09536 3.3897098.92667 4.2634498 3.20684 15.9715998-.54756 11.79778-3.84475 36.96156-15.66902 53.79128-22.09832 16.75611-6.44407 31.795173-11.77867 45.975703-16.24697l-3.49333-1.61102c-2.51596.72994-7.09026 2.08301-13.78086 4.11958-6.74982 2.02095-15.423923 4.71063-26.362353 8.06987-2.45758-3.64801-4.64831-6.3837-6.63181-8.43505-2.0279-2.05135-3.70055-3.28241-5.23998-3.7544-4.29224-4.92425-6.89743-8.45025-8.03761-10.92715-1.12456-2.44735.72572-2.61368 1.39141-3.60242.6073-.97226.47367-.44032 2.45758-2.32533 1.99789-2.03657 7.19388-6.62604 9.4286-9.31571 2.16113-2.69052 3.76018-3.96676 3.65656-6.4597-.13322-2.52291-1.56903-5.2738-4.36706-8.41985h23.92039l1.56903 6.80883 1.746663-6.27689 11.17568-1.24626-10.30193-1.61102-2.960863-6.45927-1.22858 5.91213-27.41331-.18238c-5.04714-6.2009-9.50261-11.39871-13.60324-15.77582-4.10022-4.40751-7.66796-7.81192-10.82084-10.39563z" fill="#782121"/><path d="m29.022337 25.67268c6.11989 0 11.08686 5.09987 11.08686 11.38352s-4.96697 11.38352-11.08686 11.38352c-6.1199 0-11.08687-5.09987-11.08687-11.38352s4.96738-11.38352 11.08687-11.38352" fill="#782121"/><path d="m45.411867 39.13867c1.33495-1.1676 4.43371-4.48507 9.50844-10.30455 5.05643-5.83801 11.82274-13.82589 20.58382-24.3157705 5.73356 9.3593505 9.9531 16.1796305 13.06966 20.6091005 3.04484 4.41094 4.73642 6.28281 5.14596 5.76388 3.2412-3.33601 5.96553-6.17161 8.315933-8.65508 2.31479-2.48348 4.11221-4.54068 5.53719-6.17161 7.12243 10.30455 13.03405 18.79283 18.21562 25.96524 5.09303 7.11681 9.13501 12.51002 12.26888 16.47616l-19.39131-18.5519c-1.60255 4.78161-4.21954 7.19095-7.9237 7.43188-3.77539.14827-9.57918-5.22641-14.245363-6.19014-4.6825-.98227-9.31258 2.03867-13.4792.40773-4.20223-1.74213-7.49636-8.50681-11.46711-10.2855-4.00637-1.74214-8.01224-1.74214-12.28619 0-4.61178 2.59416-9.22355 5.20736-13.85263 7.82056z" fill="#17057a"/><path d="m65.603457 24.71972 9.0989-11.95402 15.84692 23.90804c-3.7927-.14827-7.06852-1.0008-9.90018-2.48347-2.88458-1.53827-4.59446-5.02254-7.12243-6.59788-2.56358-1.57534-5.10985-2.55761-7.92321-2.87267z" fill="#3d258e"/><path d="m95.695727 37.08147 11.485413-12.76949 8.70717 12.76949c-2.70701 3.05801-5.23498 4.61481-7.9237 4.94841-2.67091.25947-5.8765-2.48347-7.9059-3.29894-2.083803-.87107-3.473173-1.35294-4.362983-1.64947z" fill="#3d258e"/></g></svg>