<svg height="16" viewBox="0 0 16 16" width="16" xmlns="http://www.w3.org/2000/svg"><path d="m0 0h16v16h-16z" fill="#13cc00" fill-rule="evenodd"/><rect fill="none" height="5.000064" ry="2.500032" stroke="#cc4300" stroke-linecap="round" stroke-width="2" width="12" x="2" y="9"/><g fill-rule="evenodd"><path d="m5 8h1v2h-1z" fill="#999"/><rect height="6" ry="2.000017" width="7" x="8" y="1"/><path d="m8 3h7v4h-7z"/><path d="m13 5h1v2h-1z" fill="#999"/><path d="m13 3h1v1h-1z" fill="#ff0"/><path d="m11 3h1v1h-1z" fill="#ff0"/><path d="m9 3h1v1h-1z" fill="#ff0"/><g clip-rule="evenodd" stroke="#000" stroke-miterlimit="10" stroke-width=".036" transform="matrix(.06509311 0 0 .06509311 .603362 .7718)"><path d="m52.83.018c29.152 0 52.813 22.531 52.813 50.292 0 27.76-23.66 50.292-52.813 50.292s-52.812-22.532-52.812-50.292c0-27.761 23.66-50.292 52.812-50.292"/><g fill="#fff"><path d="m25.254 11.218c-1.548.648-2.664 1.332-3.78 2.196-1.116.756-1.908 1.692-2.664 2.664-.864.9-1.584 1.872-2.16 2.916l7.128-1.836c.468-1.98.972-3.96 1.476-5.94z"/><path d="m32.886 8.086 15.984-3.888 11.016 9.108-2.916 11.628-12.24 5.688-15.48-4.104-2.304-9.468z"/><path d="m63.342 14.026-1.943 11.016 12.131 12.132 12.96-1.944 3.996-14.544-14.184-11.628z"/><path d="m76.05 41.278 12.24-2.196 7.272 12.24-10.044 16.596-12.6-1.188-4.607-10.549z"/><path d="m94.482 75.91-5.832-6.768 10.188-17.209 3.528-1.943c.036 4.176-.288 7.703-.972 11.268-.828 3.527-2.053 6.732-3.276 9.324-1.223 2.447-2.34 4.176-3.636 5.328z"/><path d="m33.894 63.418 14.436-10.656 16.236 4.248 5.184 12.205-8.964 11.771-20.232-4.248z"/><path d="m64.962 97.113c-2.988.434-6.012.756-9.216.828-3.312.072-6.84 0-10.044-.359-3.42-.504-6.588-1.404-9.36-2.305-2.772-.971-4.896-2.051-6.768-3.383l-.252-4.861 9.576-7.271 21.457 3.781 6.155 9.432z"/><path d="m14.31 43.726 13.212-13.428 14.292 3.996 3.636 15.48-14.904 11.521-12.96-.361z"/><path d="m9.45 71.123c-1.152.467-2.232-.758-3.384-3.277-1.26-2.736-2.952-8.244-3.528-12.348-.54-4.141-.504-8.172.252-12.24l7.524 2.412 3.996 16.705z"/></g></g></g></svg>