<svg height="10.389996" width="16" xmlns="http://www.w3.org/2000/svg"><path d="m.48255 3.01814.97622 4.58456 3.8039 1.99798 5.65536-.0588 3.39586-1.52712 1.29623-5.43827-2.31078-1.48845-5.52928-.52963-6.2393.99602z" fill="#fff" fill-rule="evenodd"/><path d="m14.88429 7.00623c-.64534 1.12728-3.48207 1.97593-6.88472 1.97593-3.40139 0-6.238-.84752-6.88472-1.97418-.0513.12566-.0805.26054-.0805.40604 0 .48497.3048872.9609667.6995372 1.2323167.39464.27135.9076.5174356 1.52581.6972156 1.2364.35957 2.89294.5892628 4.72289.5892628 1.82996 0 3.5358088-.2805511 4.7722088-.6401211.6182-.17978 1.183568-.39196 1.578218-.66331s.633266-.730394.633266-1.215364c0-.14626-.0302-.28157-.08199-.40779z" fill="#666"/><path d="m.46687279 2.61817.98391951 5.05973" fill="none" stroke="#666" stroke-linecap="round" stroke-linejoin="round" stroke-width=".853068"/><path d="m15.54133 2.61817-.9273 5.05973" fill="none" stroke="#666" stroke-linecap="round" stroke-linejoin="round" stroke-width=".853068"/><path d="m10.69543 7.77116v2.15731c0 .23993-.30943.43309-.69379.43309h-3.70298c-.38436 0-.69379-.19316-.69379-.43309v-2.15731c.46851-2.34615 5.10996-2.01917 5.09056 0z" fill="#1a1a1a" stroke="#fff" stroke-width=".056871"/><path d="m13.01518.93749-.50166-.0701-.99769 2.168.0185.0308zm-3.06007-.567-.40067-.0364-.15287 2.43731.0533.0309zm-6.75879.567.50166-.0701.99769 2.168-.0185.0308zm3.06007-.567.40067-.0364.15287 2.43731-.0533.0309z" stroke="#000" stroke-linecap="round" stroke-linejoin="round" stroke-width=".310263"/><path d="m8.09677 2.74104c-1.80426.0229-3.62278.19186-5.35785.69324 2.04731.50326 4.17649.6031 6.27981.54306 1.53385-.0608 3.07783-.21246 4.55612-.62742-1.78134-.46951-3.63845-.6155-5.47808-.60888z" fill="#008000" stroke="#008000" stroke-linecap="round" stroke-linejoin="round" stroke-width=".310263"/><path d="m7.99918 0c-2.10164 0-4.00303.23721-5.423.63815-.70998.20047-1.29917.43695-1.75241.73952s-.82377.7189-.82377 1.25967c0 .54078.37053.95711.82377 1.25968s1.04243.54071 1.75241.74118c1.41997.40094 3.32136.63815 5.423.63815 2.10165 0 4.00304-.23721 5.42301-.63815.70998-.20047 1.30086-.43861 1.7541-.74118s.82377-.7189.82377-1.25968c0-.54077-.37053-.9571-.82377-1.25967-.45324-.30257-1.04412-.53905-1.7541-.73952-1.41997-.40094-3.32136-.63815-5.42301-.63815zm0 1.06358c2.01757 0 3.84583.23533 5.1253.5966.63974.18064 1.14127.39692 1.44287.59826.30159.20134.35014.33813.35014.3789 0 .0408-.0485.17923-.35014.38056-.3016.20134-.80313.41763-1.44287.59827-1.27947.36127-3.10773.5966-5.1253.5966s-3.84413-.23533-5.1236-.5966c-.63974-.18064-1.14296-.39693-1.44456-.59827-.3016-.20133-.34845-.33978-.34845-.38056 0-.0408.0469-.17756.34845-.3789.3016-.20134.80482-.41762 1.44456-.59826 1.27947-.36127 3.10603-.5966 5.1236-.5966z" fill="#666"/></svg>