<svg height="16" viewBox="0 0 16 16" width="16" xmlns="http://www.w3.org/2000/svg"><path d="m0 0h16v16h-16z" fill="#13cc00" fill-rule="evenodd"/><rect fill="none" height="5.000064" ry="2.500032" stroke="#cc4300" stroke-linecap="round" stroke-width="2" width="12" x="2" y="9"/><g fill-rule="evenodd"><path d="m5 8h1v2h-1z" fill="#999"/><path d="m5 1h1v6h-1z"/><path d="m6 1h5v3.000017h-5z"/><path d="m6 1h1v1h-1z" fill="#fff"/><path d="m6 3h1v1.000017h-1z" fill="#fff"/><path d="m7 2h1v1h-1z" fill="#fff"/><path d="m8 1h1v1h-1z" fill="#fff"/><path d="m8 3h1v1h-1z" fill="#fff"/><path d="m9 2h1v1h-1z" fill="#fff"/><path d="m10 1h1v1h-1z" fill="#fff"/><path d="m10 3h1v1h-1z" fill="#fff"/></g></svg>