<svg height="62.275997mm" width="61.547817mm" xmlns="http://www.w3.org/2000/svg" xmlns:xlink="http://www.w3.org/1999/xlink"><radialGradient id="a" cx="9.985406" cy="583.80896" gradientTransform="scale(1.056609 .946424)" gradientUnits="userSpaceOnUse" r="84.549843"><stop offset="0" stop-color="#002723"/><stop offset=".98" stop-opacity=".498039"/><stop offset="1" stop-color="#fff" stop-opacity="0"/></radialGradient><g transform="translate(-26.284746 -15.895337)"><g fill-rule="evenodd"><path d="m226.48338 72.187212c46.04849 93.976508-25.84354 140.964758-36.18096 146.603348 15.97601-48.86778 36.18096-146.603348 36.18096-146.603348z" fill="#368c00" stroke="#e8e9e8" stroke-width="2.5"/><g display="block" stroke="#b8b8b8" stroke-width="1.875"><path d="m84.721722 154.79587c-8.64406-85.720258 39.258438-114.173628 39.258438-114.173628-2.52119-23.05082-15.48727-19.8093-15.48727-19.8093-94.004158 54.38554-54.385548 152.351558-54.385548 152.351558l1.44068.36016c27.01268-13.32625 29.1737-18.72879 29.1737-18.72879z" fill="#b32000"/><path d="m53.387002 175.32551c-9.72457 4.6822-15.1271 2.52118-15.1271 2.52118-45.3813198-110.571928 64.236438-155.342608 64.236438-155.342608 9.72457-2.88136 6.35671-1.33097 6.35671-1.33097-95.084648 52.94486-54.745708 156.673578-55.466048 154.152398z" fill="#fff"/><path d="m39.700582 179.64754c24.85166-6.8432 45.02114-24.85167 45.02114-24.85167 37.817758 15.1271 40.338948 18.72879 48.622838 22.33048-31.33472 38.17794-44.660978 36.3771-58.347408 38.53811-20.88981-7.20339-35.29657-36.01692-35.29657-36.01692z" fill="#b32000"/><path d="m75.717492 216.3848c34.936408-4.6822 52.944858-41.05929 57.627058-39.97878 36.01692 15.48727 30.61438 14.0466 30.61438 14.0466-33.8559 54.38554-42.86013 42.86013-42.86013 42.86013-26.652518-2.52119-45.381308-16.92795-45.381308-16.92795z" fill="#fef"/><path d="m165.39961 189.73228c33.8559 14.76693 28.81353 10.4449 31.69489 13.68643-4.32203 35.29657-75.9957 29.53387-75.9957 29.53387 39.25844-30.61438 44.30081-43.2203 44.30081-43.2203z" fill="#368c00"/></g><g stroke="#b8b8b8" stroke-width="1.875"><path d="m124.02119 40.076292c-4.34141-22.7089-11.30202-19.24169-10.30016-20.24356 40.74243-3.6735 48.42338 3.00559 48.42338 3.00559s1.65781 2.8842 1.77463 2.85514c12.69027 22.70889 4.90446 23.86121 4.90446 23.86121-41.41034-11.0205-39.0396-7.13728-44.80231-9.47838z" fill="#368c00"/><path d="m169.0013 49.266302c9.00423-6.66312-7.92372-27.19277-7.92372-27.19277 38.71819 9.54448 40.69911 22.87074 40.69911 22.87074-.36016 18.90889-1.44067 18.36863-1.44067 18.36863-26.65252-13.68643-31.33472-14.0466-31.33472-14.0466z" fill="#fffbff"/><path d="m200.69619 63.492992c1.26059-24.49151 1.26059-21.97032 1.26059-19.44914 23.23091 11.88559 28.81353 40.69912 28.09319 44.30081-27.55294-22.51058-29.35378-24.85167-29.35378-24.85167z" fill="#b40000"/></g></g><g display="block"><path d="m85.507402 155.03068c-2.66612-22.94676-.69232-46.15502.46156-47.53967 107.464768 43.37467 132.434938 61.27747 134.772618 64.61701l.77108-.20636c-15.23115 34.15471-28.46409 29.28402-28.46409 29.28402l-2.07698-.92311c-84.92521-34.84703-100.156358-41.30872-105.464188-45.23189z" fill="#fdffff" fill-rule="evenodd" stroke="#b8b8b8" stroke-width="1.875"/><path d="m85.839562 106.49455c1.93023-15.811428 10.22915-30.158168 10.22915-30.158168 110.772018 13.38496 138.152768 59.617558 137.784898 60.555068 1.38131 7.99842-.57315 13.00609-2.73985 20.00268s-5.00819 11.97346-9.70967 15.50609c-4.75189 3.57051-132.564448-63.13637-135.564528-65.90567z" fill="#fdffff" fill-rule="evenodd" stroke="#b8b8b8" stroke-width="1.875"/><path d="m95.864272 76.752582c15.657248-26.84315 27.745428-35.18447 27.745428-35.18447 87.69451 10.15411 106.36288 47.69168 106.36288 47.69168l-.23077-.23078c9.92332 34.154698 5.02102 51.260068 3.86714 47.336898-37.62869-49.528748-129.51502-58.707698-137.744678-59.613328z" fill="#fdffff" fill-rule="evenodd" stroke="#b8b8b8" stroke-width="1.875"/><path d="m151.31393 525.9871a101.38071 90.646278 0 0 1 2.97412 128.12109 101.38071 90.646278 0 0 1 -143.291235 2.74816 101.38071 90.646278 0 0 1 -3.1730866-128.11727 101.38071 90.646278 0 0 1 143.2868216-2.92606" display="block" fill="url(#a)" opacity=".134199" transform="matrix(1.06008 0 0 1.196668 49.34885 -581.4565)"/><text style="font-size:20;font-family:Arial Black;letter-spacing:0;display:block;opacity:.766234;stroke-width:1pt"><textPath font-family="Arial Black" font-size="20" xlink:href="#b"><tspan font-family="Arial Black" font-size="20">Volley-Ball</tspan></textPath></text><path id="b" d="m105.25369 104.13923c92.09697 31.95201 116.53087 58.26543 116.53087 58.26543" fill="none"/></g></g></svg>