<svg height="16" viewBox="0 0 16 16" width="16" xmlns="http://www.w3.org/2000/svg"><g transform="translate(0 -1036.3622)"><rect height="12.2329728" ry="1.5291216" width="4.5873648" x="11.392749" y="1040.13310272176"/><g stroke-width=".16747522359"><circle cx="13.68643736357" cy="1042.42676695202" fill="#f00" r="1.67475223585" stroke="#b20505"/><circle cx="13.68643736357" cy="1046.2495713343" fill="#ff0" r="1.67475223585" stroke="#ffd600" stroke-linecap="square"/><circle cx="13.68644500918" cy="1050.07238336219" fill="#0f0" r="1.67475223585" stroke="#00b200" stroke-linecap="square"/></g><g fill="#fff" stroke="#000"><circle cx="5.355165" cy="1046.8955" r="4.344695" stroke-width="1.472778"/><circle cx="5.355165" cy="1046.8955" opacity=".99" r=".229042" stroke-width="1.472778"/><g stroke-width=".479611"><path d="m1.751244 1046.8953h7.20784v.000652h-7.20784z" opacity=".99"/><path d="m-1050.4995 5.354839h7.20784v.000652h-7.20784z" opacity=".99" transform="rotate(-90)"/><path d="m752.88458 723.70135h7.207839v.000652h-7.207839z" opacity=".99" transform="matrix(.69496168 .71904678 -.71904678 .69496168 0 0)"/><path d="m745.44135 731.40259h7.207839v.000652h-7.207839z" opacity=".99" transform="matrix(-.69496168 .71904678 .71904678 .69496168 0 0)"/></g></g><path d="m6.0855973 1036.8683h6.8419437l-3.4209722 6.0424z" fill="#fff" fill-rule="evenodd" stroke="#ee1c23" stroke-linejoin="round" stroke-width=".92499"/></g></svg>