<svg height="344.51999" width="344.12" xmlns="http://www.w3.org/2000/svg"><path d="m0-.000001h344.12v344.51999h-344.12z" fill="#fff"/><path d="m245.65209 60.332072c0 14.79633-11.9948 26.79113-26.79112 26.79113-14.79634 0-26.79113-11.9948-26.79113-26.79113 0-14.79634 11.99479-26.79112 26.79113-26.79112 14.79632 0 26.79112 11.99478 26.79112 26.79112z"/><path d="m68.975261 308.74492-5.17213-117.80968-32.75684 26.43535c-7.16156-.56763-14.7311-.57428-18.61329-5.65104l51.17857-49.99727c11.6192 3.25298 22.60625 2.2916 32.94839-2.96919l36.779609 7.47086 17.81512 36.7796c-5.51414 1.04564-8.44572 6.19298-20.68853-3.44809l-9.1949-18.3898-14.94171-.57468 13.21767 52.87068 34.48088 4.02277c9.1748 1.12084 9.74583 9.32715 12.06831 16.09108l-55.74409.57468-9.76959-13.79235-16.091079 4.59745.57469 52.87069c-4.81424 7.48579-10.44424 9.26135-16.09108 10.91894z" fill-rule="evenodd"/><path d="m120.18778 142.59355c7.2242-2.25756 80.36919-47.408788 80.36919-47.408788 17.07423 9.550968 31.45487 2.55559 45.60274-5.86966l45.60275 14.448388 23.93015 46.95728c-9.38939 4.96278-18.57808 3.70403-27.54225-4.51512l-12.19083-24.38167-25.28469-8.57873 6.32117 58.6966 20.31805 49.21484 45.60275 19.86654c11.33556 12.73831 7.09452 19.08434 5.86966 27.54226l-67.27534-27.09074c-3.52449-.65817-4.8229-4.65547-6.77268-7.67571l-21.22108-49.66636-22.57562 110.16901-25.28469 13.54537 21.67259-125.52043-5.86966-59.59962-56.43903 31.15435c-14.57082 2.25688-19.83399-4.38922-24.83318-11.28781z" fill-rule="evenodd"/><path d="m100.85158 130.49687c0 13.03481-10.566799 23.60161-23.601599 23.60161-13.03481 0-23.60161-10.5668-23.60161-23.60161s10.5668-23.6016 23.60161-23.6016c13.0348 0 23.601599 10.56679 23.601599 23.6016z"/></svg>