<svg height="16" viewBox="0 0 16 16" width="16" xmlns="http://www.w3.org/2000/svg" xmlns:xlink="http://www.w3.org/1999/xlink"><radialGradient id="a" cx="17" cy="38" gradientTransform="matrix(.50820309 0 0 .19910193 -.377083 1033.1635)" gradientUnits="userSpaceOnUse" r="15"><stop offset="0"/><stop offset="1" stop-opacity="0"/></radialGradient><linearGradient id="b" gradientTransform="matrix(.70288547 0 0 .71810114 -.404853 289.73298)" gradientUnits="userSpaceOnUse" x1="1.998694" x2="20.493883" y1="1031.3717" y2="1046.6899"><stop offset="0" stop-color="#ebf4ff"/><stop offset="1" stop-color="#91ea9e"/></linearGradient><g transform="translate(0 -1029.3622)"><ellipse cx="8.26237" cy="1040.7295" fill="url(#a)" opacity=".2" rx="7.623046" ry="2.986529" stroke-width=".666666"/><path d="m11.833532 1040.541c1.484201 0 2.679063-1.1956 2.679063-2.6808v-4.2892c0-1.4853-1.194862-2.6808-2.679063-2.6808h-7.608542c-1.4842016 0-2.6790641 1.1955-2.6790641 2.6808v4.2892c0 1.4852 1.0704824 2.6808 2.4260888 2.6808.1446696.9597-.5293114 3.0223-.9150966 3.5477 2.1613124-.4767 4.4506166-2.926 4.8203279-3.5479z" fill="url(#b)" stroke="#005800" stroke-width=".8"/><g fill="none" stroke="#000"><path d="m4.8477397 1038.8041 2.6666666-6 2.6666637 6" stroke-linecap="round" stroke-linejoin="round"/><path d="m6 1036.8622h3"/></g></g></svg>