<svg height="16" viewBox="0 0 16 16" width="16" xmlns="http://www.w3.org/2000/svg"><g transform="translate(0 -1037.3622)"><path d="m66.275 1.768c-41.335 0-64.571 21.371-64.571 65.036v450.123c0 40.844 20.895 62.229 62.192 62.229h452.024c41.307 0 62.229-20.315 62.229-62.229v-450.123c0-42.601-20.922-65.036-63.521-65.036-.004 0-448.495-.143-448.353 0z" fill="#fff" transform="matrix(.02775633 0 0 .02770795 -.047297 1037.315)"/><ellipse cx="8.14123" cy="1040.4108" rx="2.02646" ry="2.02646"/><path d="m10.109845 1042.9299c.927395.034 1.31552.7744 1.31552.7744l2.991174 4.0996c.123155.1847.195928.4049.195928.6456 0 .6382-.516878 1.155-1.155045 1.155-.151145 0-.291093-.034-.425444-.084l-1.804408-.5019v1.8007h-6.2603796v-1.8007l-1.8044074.5019c-.1287531.05-.272434.084-.4254448.084-.6381669 0-1.1550447-.5168-1.1550447-1.155 0-.2407.072773-.4609.1996604-.6456l2.987442-4.0996s.3937228-.7408 1.3155195-.7744zm-2.0115318 6.6317 2.3380788-.7744-.05225-.011c-1.6103421-.4739-.985237-2.6049.625108-2.1309l.220186.077v-2.4053l-3.1311228 1.0226-3.1311228-1.0226v2.4053l.2201862-.077c1.6103452-.4758 2.2410481 1.657.6251052 2.1309l-.052248.011z"/><path d="m14.53223 1052.3214c.160474 0 .287361-.1913.287361-.4331 0-.2419-.126887-.4331-.287361-.4331h-12.640183c-.1548768 0-.2873617.1912-.2873617.4331 0 .2418.1324849.4331.2873617.4331z"/></g></svg>