<svg height="14" viewBox="0 0 14 14" width="14" xmlns="http://www.w3.org/2000/svg"><path d="m7 0-7 2v1.4496303l7-2 7 2v-1.4496303zm-3.6446779 3.5722656c-.155977.00622-.3109228.037107-.4648438.095703v6.2207031s2.6859724-.2259841 3.3243655 2.2041363v-6.4033549c-.4871351-1.0152858-1.7676787-2.1607337-2.8595217-2.1171875zm2.8595217 8.5205424c-1.6205361-1.239364-4.2672926-1.502748-4.2672926-1.502748v-5.8322475l-.8890346-.3125v7.2077565l5.1563272 1.502749h1.5703124l5.2082668-1.42484v-7.2856655l-.915004.3125v6.1427945l-4.2932628 1.192201c-.5238089-.19805-1.1333135-.16281-1.5703124 0zm4.9466172-8.4248392c-1.5655511-.0828577-3.6054431.8478892-4.5540391 1.6484374v6.4521838c.875892-.719038 2.678998-1.534319 4.5540391-1.723668z" fill="#734a08"/></svg>