<svg height="16" viewBox="0 0 16 16" width="16" xmlns="http://www.w3.org/2000/svg" xmlns:xlink="http://www.w3.org/1999/xlink"><linearGradient id="a" gradientUnits="userSpaceOnUse" x1="9.455378" x2="-8.985758" y1="1046.362199" y2="1033.362199"><stop offset="0" stop-color="#005d00"/><stop offset="1" stop-color="#008000" stop-opacity="0"/></linearGradient><g transform="translate(0 -1037.3622)"><g stroke-linecap="round"><path d="m1.4272008 1052.8399 1.50149-3.6352 2.25264-1.2991.0548-4.9269.61987-1.3475 1.58252-3.7467m6.1170992 14.9554-1.13522-2.7484-3.6200992-5.8698.1387-3.0453-1.39466-3.2919" fill="none" stroke="#804e08" stroke-width="1.030972"/><path d="m1.0142425 1049.3621h13.9999995" fill="none" stroke="#804e08" stroke-width="2"/><path d="m1.327917 1040.6694h13.372833v8.379151h-13.372833z" fill="#fff" stroke="#005800" stroke-linejoin="round" stroke-width=".627348"/></g><path d="m1.3938003 1040.802v8.3797h13.3728847v-8.3797zm2.1376982.7915c.3745631 0 .6751058.022.9023031.064s.416755.1296.5682259.2628c.1064328.092.1903695.2223.2517826.3913.061395.1691.092083.3309.092092.4845v1.4408c-.0000091.1537.00994.2748.029375.3619.019431.087.06185.1982.1273601.3334h-1.1727048c-.047073-.084-.077724-.1481-.092092-.1922-.014322-.044-.028736-.1137-.04315-.2079-.1637499.1578-.3271714.2707-.4888687.3384-.2210579.09-.477347.1353-.7700443.1353-.3888946 0-.6840367-.09-.8856453-.2707-.2016177-.1803-.3027321-.4026-.3027321-.6669 0-.2479.073163-.4522.2184762-.612.1453223-.1598.4133886-.2782.8043359-.356.468717-.094.7719326-.1602.9111155-.1981.1391828-.038.2872602-.088.4428272-.1491-.0000091-.1537-.031564-.2612-.09503-.3227-.063493-.061-.1754086-.092-.3350624-.092-.2046828 0-.3581152.033-.460452.098-.079822.051-.1448662.1479-.1939821.2893l-1.194252-.1265c.045065-.209.110018-.3734.1949582-.4933.084931-.1199.2077297-.2238.3673836-.3119.114625-.063.2716242-.1123.4722201-.1471.2005868-.035.4181598-.053.6514967-.053zm8.7632825-.3439c.532174 0 .937388.096 1.216785.2864.279387.1906.476216.4688.588797.8356l-1.176618.1569c-.03685-.1393-.103614-.2441-.200843-.3148-.09722-.071-.228128-.1059-.391877-.1059-.206726 0-.373679.074-.501604.2226s-.192021.3736-.192021.6748c0 .2684.06312.4717.19006.611.126903.1393.289431.2099.485931.2099.163741 0 .300898-.043.412458-.1265.111551-.084.195533-.2133.250797-.3874l1.187402.1353c-.0655.2479-.17291.463-.322328.6444-.149418.1813-.339833.3223-.572139.4227-.232325.1004-.527457.15-.885645.15-.345919 0-.633836-.033-.864098-.097-.230272-.065-.428888-.1684-.594681-.3128-.165794-.1445-.295763-.3144-.389917-.509-.09415-.1947-.14108-.4531-.14108-.7748 0-.3361.05683-.6152.171449-.8386.08393-.1639.198553-.3112.343875-.4413.145322-.1302.295187-.2268.448702-.2903.243572-.1004.555883-.1511.936595-.1511zm-8.1705626 2.1328c-.1719419.062-.3516016.1157-.5378568.1628-.2538078.068-.4144652.1345-.4820086.2001-.069605.068-.1038512.1444-.1038512.2305 0 .098.0343.1788.1028659.2413.068602.062.1687035.094.3017468.094.1391829 0 .2691977-.034.3889403-.102.1197427-.068.2045734-.1498.2547201-.2471.050174-.097.075443-.2239.075443-.3796zm2.3767457.6405h1.2618505v1.5614c.1248604-.1312.2665612-.2297.4251933-.2953.158623-.065.333694-.098.5260979-.098.3970776 0 .7256265.1427.9855738.4286.2599473.2858.3899164.696.3899164 1.2308 0 .3566-.05957.671-.1783004.9425-.118721.2715-.2829909.4739-.4927915.6081s-.4426721.202-.6985234.202c-.2190143 0-.419364-.048-.6015323-.1422-.1371394-.074-.2860287-.212-.447726-.4148v.4825h-1.1697583zm1.8291003 2.1027c-.1698894 0-.3079411.062-.4153958.1883-.1074545.1261-.1616516.3177-.1616516.5738 0 .2807.053276.484.1587142.61.1054112.126.2380167.1893.399714.1893.1494184 0 .27489-.062.3762051-.1863.1013152-.124.1528303-.3327.1528303-.6258 0-.2581-.049626-.4469-.1489075-.5678-.099272-.1209-.2202825-.1815-.3615087-.1815z" fill="url(#a)"/></g></svg>