<svg height="16" width="16" xmlns="http://www.w3.org/2000/svg"><path d="m66.275 1.768c-41.335 0-64.571 21.371-64.571 65.036v450.123c0 40.844 20.895 62.229 62.192 62.229h452.024c41.307 0 62.229-20.315 62.229-62.229v-450.123c0-42.601-20.922-65.036-63.521-65.036-.004 0-448.495-.143-448.353 0z" fill="#d74545" stroke="#6d0000" stroke-width="39.665184" transform="matrix(.02602963 0 0 .02586494 .452679 .48738)"/><path d="m4.1949429 7.560056-.7191638.0104394c-.1003479.1669703-.1726301.3766215-.2499422.6260201-.111417.3593921-.2057083.7900311-.2611753 1.2191775-.2090299 1.617144-.209539 2.365141-.209539 2.365141h.4789451s-.0008628-.704859.2057946-2.3038849c.051852-.4011412.1414153-.8108754.2432126-1.1392426.1017973-.3283586.2437216-.586195.27988-.6215337.084723-.082825.1584376-.1243499.2065452-.1456774.010698-.00518.018722-.00776.025451-.010439z" fill-rule="evenodd"/><g stroke="#000" stroke-linejoin="round"><path d="m7.514894 4.1032709-5.9468369 2.981386 7.4112976.099209 5.3991033-2.8101364z" fill-rule="evenodd" stroke-linecap="round" stroke-width=".239262"/><path d="m4.0277138 9.5987452.6425764-1.8952637 4.4779502.1274731 2.9814976-1.6202755 1.192795 1.3826018s-1.505882.1656935-2.162073.5726324-1.5073488 1.3866569-1.5073488 1.3866569-1.8531175-.6407992-2.7100127-.6551901c-1.6360296-.0274358-2.8138031.6794509-2.9153847.7013651z" fill-rule="evenodd" stroke-linecap="round" stroke-width=".239262"/><path d="m3.5295464 11.221281c0 .313321-.3505229 1.141339-.6643957 1.141339s-.4728194-.828018-.4728194-1.141339c0-.31332.254739-.567611.5686118-.567611.3138642 0 .5686033.254291.5686033.567611z" stroke-width=".37025"/><path d="m2.9425059 11.338487-.3049777 1.306153z" fill-rule="evenodd" stroke-linecap="round" stroke-width=".239262"/><path d="m3.5283213 11.331818-.4261095 1.400694z" fill-rule="evenodd" stroke-linecap="round" stroke-width=".239262"/><path d="m2.3229824 11.203439-.1026341 1.272307z" fill-rule="evenodd" stroke-linecap="round" stroke-width=".239262"/><path d="m2.5529516 11.301656-.1026341 1.272306z" fill-rule="evenodd" stroke-linecap="round" stroke-width=".239262"/><path d="m3.1819741 11.386302-.3049777 1.306152z" fill-rule="evenodd" stroke-linecap="round" stroke-width=".239262"/></g></svg>