<svg height="150" viewBox="0 0 160 150" width="160" xmlns="http://www.w3.org/2000/svg" xmlns:xlink="http://www.w3.org/1999/xlink"><linearGradient id="a" gradientTransform="matrix(.352644 0 0 .33963102 -2.961695 924.45861)" gradientUnits="userSpaceOnUse" x1="121.87" x2="122.01" y1="121.23" y2="349.41"><stop offset="0" stop-color="#ef8900"/><stop offset="1" stop-color="#5d2500"/></linearGradient><linearGradient id="b" gradientTransform="matrix(.352644 0 0 .33963102 -2.961695 924.45861)" gradientUnits="userSpaceOnUse" x1="113.13" x2="160.42" y1="186.8" y2="117.64"><stop offset="0" stop-color="#ff7f2a"/><stop offset="1" stop-color="#813300" stop-opacity="0"/></linearGradient><radialGradient id="c" cx="126.23" cy="45.060001" gradientTransform="matrix(.61892548 .00000002 0 .59968649 -36.576078 918.94878)" gradientUnits="userSpaceOnUse" r="117.84"><stop offset="0" stop-color="#fff"/><stop offset="1" stop-color="#c5c5c5"/></radialGradient><g transform="translate(0 -903.3622)"><g stroke-width=".346076"><path d="m19.916084 947.9461c-6.886785-.01-12.3242031.051-12.8715061.2018-1.459241.4014-2.710775 1.8041-2.710775 1.8041s.629823 5.4208 1.046648 7.228c.417178 1.8055 2.919539 39.3564 2.711127 42.1686-.208413 2.8121.824482 36.1367.407656 37.9436-.390729 1.6947-.779343 3.5627-.826597 3.4608-.01164.1291-.622417 6.9964-.209471 7.9915.417178 1.0019 24.1829151 4.816 35.2319571 4.4152 11.048337-.4008 33.35307-2.8087 34.60143-4.4152 1.251886-1.6064-1.251886-9.8425-.41612-10.8478.83224-1.0053 2.288659-1.6065 4.584372-2.2076 2.292186-.6012 11.887629-4.4118 14.391402-6.2187 2.500246-1.8068 8.128443-11.2451 9.376803-15.0626 1.25189-3.814 4.37631-12.6546 4.58437-16.2683s.20806-17.6642-.6277-20.6767c-.83224-3.0092-4.37279-9.632-6.87656-10.8343-2.500248-1.2057-20.640255-2.4114-20.640255-2.4114s-1.244833-.8117-1.244833-2.0174c0-1.2022-24.392386-13.0448-30.020585-13.647-3.51586-.3767-19.013506-.5913-30.491363-.6052zm61.338898 24.2952c-.20806 0 15.847821.4075 18.348067 1.4094 2.503771 1.0053 2.295711 7.4244 2.503771 11.038.20806 3.6137-.21159 13.0487-.21159 16.0578 0 3.0125-6.044313 16.2717-7.920379 18.4793-1.879593 2.2076-4.372786 4.0111-6.248852 6.0183s-8.340031 1.6098-10.008037 1.2091c-1.668006-.4008-1.255412-4.0213-1.466999-6.2289-.20806-2.2076 1.466999-36.7413 1.678586-38.7485.20806-2.0106.409067-6.8266 3.325433-9.2345z" fill="url(#a)" stroke="#000"/><path d="m8.0869939 968.0264s1.876207-9.2355 4.1693101-10.4402c2.293138-1.2046 14.801174-2.2085 17.30283-1.6062 2.501586.6024 8.755446 5.2201 10.214686 6.8263 1.459277 1.6061 4.16931 11.8456 4.794548 14.6564.625414 2.8108 1.459276 13.6525 1.876207 14.6564s3.127 6.4248 6.045376 6.4248c2.918517 0 9.172623-5.4208 10.423452-7.6295 1.250793-2.2085 1.459276-4.6176 5.211725-9.0348 3.752485-4.4169 2.918517-12.8496 4.377723-14.6565 1.459276-1.8069.416931-3.0116 2.084655-2.0077s2.501586 2.6101 3.752485 1.2047c1.250793-1.4055-5.420138-11.645-5.420138-11.645l-62.537888-5.2197-5.0019021 3.8147s2.084655 2.4093 2.293138 3.614c.208466 1.2046.625414 11.2435.416931 11.0424z" fill="url(#b)"/><path d="m5.3769239 959.5934s.833862-5.8223 1.667724-6.4248c.833862-.6023 21.8889661-2.4093 23.5566201-2.2085 1.667724.2008 6.879379 2.8108 10.840276 2.8108 3.960898 0 5.836964.8031 7.296205 1.6062 1.459276.8031 3.127 3.4133 4.586135 3.8147 1.459276.4016 4.794548 2.4093 4.377723 3.8148-.416931 1.4054-.625379 7.4287-.416931 8.6334.208465 1.2046 1.042345 3.4133 1.042345 3.4133s0 1.6062 1.042345 2.0077 3.127.4015 3.127-1.2046c0-1.6062-1.042345-2.0078-1.459276-4.0155s-1.042345-3.2124.416931-6.0233 1.459276-3.614 2.918517-4.4169c1.459276-.8031 1.667724-2.2086 2.710069-.4016s-.208465 2.6101 1.876207 2.2085c2.084655-.4015 1.459276-2.4092 3.960898-2.0077 2.501586.4016 2.084655.6023 2.710069 2.4093.625414 1.8069 0 3.8147 2.084655 2.2085s3.127-3.4133 4.16931-5.4209c1.042345-2.0077 1.876207-11.8456-.416931-15.2589s-17.302831-11.4442-20.84655-11.6449c-3.544073-.2008-28.768345-2.61007-31.478414-1.80698-2.71007.80309-10.631864 1.40538-12.507931 2.40928-1.876207 1.0039-1.876207 3.2123-3.335448 3.4133-1.459276.2008-3.7524841 0-4.3777221 1.6062-.625414 1.6061.208465.6023-2.293138 2.2085-2.501604 1.6062-3.960898.4015-4.16931 3.2123-.208466 2.8109 1.459276 2.6101-.416931 3.6141-1.876208 1.0038-2.293139 1.0038-1.459277 3.4132.833862 2.4093 3.544073 8.4324 3.544073 8.4324l1.250793-.4015z" fill="url(#c)" stroke="#000"/><path d="m6.4193399 956.783.833862 6.224s3.7524851 55.2138 3.3354481 58.8275c-.416931 3.614-1.6677241 13.2511-.416931 14.8572 1.250793 1.6062 1.250793 3.2123 2.084655 3.4133.833862.2008 7.504617 2.4092 12.50793 2.2085 5.003313-.2008 30.852824 0 35.022487-.6023 4.16931-.6023 9.589448-1.4055 12.091104-2.4093 2.501587-1.0039 2.71007-1.6062 3.544073-.6024.833862 1.0039 2.084655 4.2162 1.250793 4.8187-.833862.6024-10.006274 4.4169-13.550346 3.8148-3.544072-.6024-20.638138-1.6062-26.058276-1.6062s-12.091105 1.0039-16.468827 0c-4.377723-1.0039-8.338621-.8031-9.381036-1.4054-1.042345-.6024-2.9185171-3.4133-2.7100691-4.2162.208465-.8031.833862-4.0155.833862-4.0155s-.416931-25.0967-.416931-26.3013c0-1.2047-1.042346-26.3014-1.042346-26.3014l-1.876207-24.2935.416931-2.4092z" fill="#fff" stroke="#000"/><path d="m75.420487 967.0211s0 11.8457.208465 15.8611c.208466 4.0155-.833862 26.5021-1.459276 29.1122s-.416931 4.0155 0 6.2241c.416931 2.2085 0 2.8108 0 2.8108s1.250793-7.4288 1.459276-9.2356c.208466-1.807 1.250793-27.3053 1.459276-28.9114.208469-1.6062 1.667724-7.027 2.084655-9.0349.416931-2.0077 1.042345-3.0116 0-4.4169-1.042345-1.4054-.416931-.8031-1.667724-1.6062s-2.084655 0-2.084655-.8031z" fill="#803300"/><path d="m9.9630599 961.801c.6254141 2.6101 1.4592761 36.7413 1.6677241 39.1493.208465 2.4092 1.250793 12.6489.833862 15.6604-.416931 3.0116-.625414 3.614-1.042345 4.6176-.416931 1.0039-.625415-3.8148-.625415-3.8148s-2.7100691-35.1348-2.2931381-36.5409c.416931-1.4054-.833862-13.6524-.208465-15.2589.625414-1.6062 1.459276-4.2162 1.667724-3.8147z" fill="#803300"/><path d="m12.881894 1032.0741c1.042345 2.4092 1.459276 4.0154 3.544072 4.2161 2.084655.2008 19.178897 1.2047 23.348207 1.2047s24.599035 0 27.517517-2.0078c2.918517-2.0077 3.960897-1.2046 5.003313-4.8186 1.042345-3.6141 1.667724-8.031.833862-9.4363-.833862-1.4055 2.084655 3.4132 2.084655 6.224 0 2.8109-1.459276 4.6177-3.335448 7.4288-1.876207 2.8108-4.586135 4.2162-8.547033 4.2162-3.960897 0-8.547033.6023-11.465514.2008-2.918517-.4016-5.003314-.8031-8.964211.2007-3.960897 1.0039-18.762071-.2007-22.722969-.8031-3.960897-.6023-7.087792.6024-8.130207-2.0077-1.042345-2.6101-.833862-5.8223 0-7.8302.833862-2.0077 2.084655-5.2201 2.084655-5.2201l-1.250793 8.4323z" fill-opacity=".4382"/><path d="m12.881894 960.7991c.625414 2.6101 3.335448 11.4442 3.127 14.4557-.208465 3.0116-.416931 12.4478-.833862 16.8651-.416931 4.4169-1.667724 10.8417-1.042345 16.6643.625414 5.8223 1.459276 7.8302.416931 10.0388-1.042345 2.2085-2.501586 5.4209-2.501586 5.4209s5.836964-7.4288 6.254141-9.2356c.416931-1.807-1.459276-10.4403-1.042345-14.8572s1.042345-14.4557 1.876207-19.2744 1.250793-9.0348.208466-13.4517c-1.042328-4.4169-6.254141-7.2277-6.462554-6.6256z" fill="#fff" fill-opacity=".71536"/><path d="m80.551457 962.9863c0-1.2046.912854 9.2546.704406 9.2546-.01298-.3138 16.10772.2822 18.609024 1.2861 2.501583 1.0039 2.293103 7.675 2.501583 11.289.20847 3.614-.20938 12.8584-.20938 15.8699 0 3.0116-5.982252 16.2069-7.858318 18.4152-1.876207 2.2085-4.567798 4.261-6.443864 6.2689-1.876207 2.0077-8.664463 1.6742-10.332116 1.2727-1.667724-.4016 1.584041 9.4594 3.87732 8.8572 2.293138-.6023 11.890804-4.4753 14.392107-6.2821 2.501586-1.807 7.931671-11.1202 9.182501-14.935 1.25079-3.8147 4.44119-12.531 4.64961-16.145.20846-3.614.27088-17.6635-.56296-20.675-.83387-3.0117-4.50538-9.5692-7.00704-10.7735-2.501585-1.2046-20.22378-2.2712-20.22378-2.2712s-1.279499-.7288-1.279499-1.4315z" fill="#afafaf"/><path d="m80.322238 963.1086s.729621 1.7568.885983 2.61c.156348.8533.469052 3.6643.36481 4.5677-.104231.9035.208466 1.807-.156348 1.8572-.36481.05-.416931-.7529-.416931-1.3552s-.104231-3.112-.312696-3.9652c-.208469-.8533-.260583-1.4556-.416931-2.0579-.156349-.6023.208465-1.7568.05212-1.6564z" stroke="#000"/></g><g fill-rule="evenodd" transform="matrix(0 -.19917862 .20681017 0 129.93908 1041.2595)"><path d="m363.50588-211.37402c-20.77687.25561-41.59817 5.17326-60.83197 14.93463-.21623.0997-.41765.21597-.63307.31653-.2841.14603-.57989.25469-.86327.40286v.0288c-81.29386 38.60382-104.5705 140.660016-66.78856 215.875806 52.47328 109.813984 186.72378 147.358044 294.31852 112.685914 98.6607-27.23883 180.9134-124.3618142 160.4825-234.0621-.1271-.6821-.2103-1.36002-.3453-2.04308h-.0576c-11.4993-76.23032-89.7178-121.98495-161.7486-104.05318-25.8922 6.44706-48.95515 17.16081-69.55099 30.84763-26.28449-23.31273-60.01645-35.35166-93.98166-34.93381zm192.88395 67.53673c30.8758-.76525 62.1351 21.09489 66.2131 51.566176l.1439 1.03593.2014 1.03592c13.6241 68.93394-45.366 139.92654-113.4629 158.72715l-.6906.20143-.6906.20143c-77.60093 25.00668-178.29218-4.88454-213.37234-78.2988702l-.14387-.28776-.14388-.31653c-21.50334-42.8085698-6.6419-105.6465458 36.34379-125.4623458l.74817-.34531.74817-.40286c22.75529-11.89809 52.58344-9.5999 73.92495 4.71922-33.37094 37.134786-57.88742 81.806516-76.45722 123.3329458-5.15425 10.99582-3.97252 23.9174102 3.09076 33.7959002 7.06329 9.87849 18.90828 15.17566 30.98011 13.85455 12.07184-1.32112 22.49077-9.0548 27.2503-20.22715 17.28827-38.66061 39.11657-76.51747 66.21304-106.29768 24.9352 26.53609 46.97721 55.79906 58.58701 89.6464998 3.761 11.5254102 11.13891 22.0480602 23.02561 24.4328202 11.8867 2.38475 24.1361-1.82045 32.0517-11.00326 7.9155-9.1828102 10.269-21.9183402 6.158-33.3236-14.3671-41.88613-37.6876-79.70859-67.0188-111.880186 10.4991-5.56489 21.5096-10.04359 33.1785-12.9491 4.3147-1.07412 8.7109-1.646 13.1217-1.75532z" fill="#fff"/><path d="m363.50589-211.37402c-20.77687.25561-41.59817 5.17326-60.83197 14.93463-.21623.0997-.41765.21597-.63307.31653-.2841.14604-.57989.25469-.86327.40286v.0288c-81.29387 38.6038-104.57051 140.660006-66.78856 215.875806 52.47328 109.813974 186.72378 147.358034 294.31856 112.685914 98.66066-27.23883 180.91332-124.3618242 160.48246-234.06211-.12703-.6821-.2103-1.36002-.34531-2.04308h-.0575c-11.4994-76.23033-89.71793-121.98496-161.74864-104.05319-25.89224 6.44706-48.9552 17.16081-69.55104 30.84764-26.28449-23.31272-60.01645-35.35165-93.98166-34.9338zm199.3873 19.3661c2.5641-.1804 4.97991 1.45625 5.69761 4.0286l5.6976 20.37325c.0378.11924.0855.25255.1151.37408.72046 2.96781-1.11836 5.95551-4.08616 6.67598-2.9678.72046-5.95552-1.11834-6.67598-4.08616l-5.6976-20.37323c-.82022-2.93984.88735-5.97087 3.82718-6.79109.36748-.10253.75595-.17566 1.12225-.20143zm-160.10837 12.86277c3.05134-.12714 5.62801 2.24338 5.75515 5.29474.12714 3.05134-2.24339 5.628-5.29474 5.75515l-21.09264 1.61145c-3.0434.23043-5.69737-2.04993-5.92781-5.09332-.23043-3.0434 2.04991-5.69738 5.09331-5.92781l21.09264-1.61144c.12433-.0138.2491-.0234.37409-.0288zm-102.47052 10.3305c.36714.007.72135.0598 1.09348.14388l20.66101 4.6329c.12291.0233.22425.0548.3453.0863 2.9544.77359 4.74466 3.8079 3.97106 6.7623-.77358 2.9544-3.80791 4.71588-6.7623 3.94229l-20.63223-4.66169c-2.9771-.6725-4.84499-3.61254-4.17249-6.58964.58846-2.60496 2.92626-4.3686 5.49617-4.31637zm195.32992 6.10046c1.7751.0107 3.51635.88669 4.57535 2.47473 1.6944 2.54084 1.01574 5.95994-1.52512 7.65434l-17.20791 12.3448c-2.48037 1.77853-5.90459 1.21426-7.68313-1.26612-1.7785-2.48039-1.21423-5.93339 1.26614-7.71192l17.17913-12.34479c.099-.0764.18378-.13192.28776-.20144.95282-.6354 2.04272-.95601 3.10778-.9496zm152.10872 12.74766c3.05134-.12713 5.62801 2.2434 5.75515 5.29475.12714 3.05134-2.2434 5.62801-5.29474 5.75515l-21.09264 1.61144c-3.0434.23044-5.69737-2.04991-5.92781-5.09331-.23043-3.0434 2.04991-5.69737 5.09331-5.92781l21.09264-1.61144c.12433-.0138.2491-.0234.37409-.0288zm-282.83703 6.12924c14.60579.0603 29.28863 4.31908 41.29322 12.37358-33.37094 37.134796-61.88741 89.806526-80.45721 131.3329558-5.15426 10.9958202-3.98428 23.9042602 3.079 33.7827502 7.06329 9.87849 18.91967 15.19103 30.99151 13.86992 12.07182-1.32111 22.49112-9.05702 27.25065-20.22936 17.28827-38.66062 43.11657-84.51748 70.21304-114.29769 24.93521 26.53609 52.67562 69.71705 64.28541 103.56449 3.76101 11.52541 13.43599 20.1179 25.32267 22.50265 11.8867 2.38476 24.14064-1.80953 32.05621-10.99234 7.91558-9.18281 10.26904-21.9170802 6.15801-33.3223402-14.36708-41.8861298-45.68757-91.7085798-75.01876-123.8801958 10.49903-5.56489 21.50958-10.04359 33.17846-12.94909 4.31468-1.07413 8.71093-1.64601 13.12175-1.75533 30.87576-.76525 62.13512 21.09489 66.21304 51.566186l.14388 1.03593.20143 1.03593c13.62415 68.93393-45.36597 139.92653-113.46285 158.72714l-.69062.20143-.69062.20143c-77.60092 25.00668-178.29217-4.88453-213.37232-78.2988702l-.14388-.28776-.14388-.31653c-21.50334-42.8085698-6.6419-105.6465558 36.34379-125.4623458l.74817-.34532.74817-.40286c9.95544-5.2054 21.27166-7.70129 32.63173-7.65436zm-98.87354 37.0632c1.7027.0729 3.35463.94623 4.37391 2.47472 1.6944 2.54084 1.01574 5.988726-1.52511 7.683126l-17.17914 12.3448c-2.48037 1.77852-5.93339 1.18547-7.71191-1.2949-1.77851-2.48038-1.21424-5.93339 1.26614-7.71191l17.17913-12.316026c.099-.0764.21254-.16068.31654-.23021.79401-.5295 1.67302-.84023 2.56104-.92082.24421-.0222.47615-.0392.7194-.0288zm254.06126 17.294236c2.35724.023 4.52338 1.56579 5.23719 3.94228.87855 2.92489-.78717 6.02765-3.71208 6.90619l-20.02793 6.7623c-2.89164.97666-6.04463-.56145-7.02129-3.45309-.97665-2.89163.59024-6.01585 3.48187-6.99251l20.02793-6.79108c.11703-.0442.22556-.079.34531-.11511.54842-.16472 1.12502-.26428 1.669-.25898zm-101.83745 3.25166c3.05135-.12714 5.62802 2.24339 5.75515 5.29474.12714 3.05135-2.24339 5.62801-5.29474 5.75516l-21.09264 1.61144c-3.04339.23044-5.69737-2.04992-5.9278-5.09331-.23044-3.0434 2.04991-5.69738 5.09331-5.92781l21.09264-1.61144c.12433-.0138.2491-.0234.37408-.0288zm232.91107 2.18696c1.06415-.0243 2.14499.27318 3.10779.89205l17.8122 11.42398c.10754.0639.21359.13036.31653.20143 2.51155 1.73753 3.14753 5.17158 1.41001 7.68313-1.73753 2.51155-5.20036 3.14754-7.7119 1.41001l-17.78343-11.42398c-2.56746-1.65031-3.31929-5.08688-1.66899-7.65435 1.03144-1.60467 2.74421-2.4917 4.51779-2.53227zm-115.99512 56.86092c.36713.007.72135.0598 1.09348.14388l20.63222 4.66167c.12292.0233.25304.026.37409.0575 2.95439.7736 4.71587 3.80793 3.94228 6.76231-.77358 2.95439-3.77913 4.71588-6.73353 3.94228l-20.63223-4.6329c-2.9771-.6725-4.84498-3.64133-4.17248-6.61842.58845-2.60497 2.92627-4.36859 5.49617-4.31637zm-175.81995 4.8631c1.06415-.0243 2.14499.24441 3.10779.86328l17.8122 11.42398c.10754.0639.21357.1303798.31653.2014298 2.51155 1.73753 3.11877 5.20036 1.38124 7.7119-1.73754 2.51155-5.17158 3.14754-7.68313 1.41002l-17.8122-11.4527598c-2.56747-1.65031-3.29053-5.05811-1.64022-7.62558 1.03144-1.60466 2.74421-2.49169 4.51779-2.53227zm-92.83063 1.26614c3.05135-.12714 5.62802 2.24339 5.75516 5.29474s-2.2434 5.62802-5.29474 5.75515l-21.09264 1.6114498c-3.0434.23043-5.69737-2.0499198-5.92781-5.0933098-.23044-3.0434 2.04991-5.69738 5.09331-5.92781l21.09264-1.61145c.12433-.0138.2491-.0234.37408-.0288zm382.97671 13.6972598c1.7751.0107 3.51635.88669 4.57535 2.47472 1.6944 2.54084.98696 5.95996-1.5539 7.65436l-17.17913 12.3448002c-2.48038 1.77852-5.93339 1.21425-7.71191-1.26613-1.77851-2.48038-1.21425-5.9333902 1.26614-7.7119102l17.20791-12.3448c.099-.0764.18376-.13191.28776-.20144.95282-.63539 2.04272-.956 3.10778-.9496zm-360.81937 37.1207502c2.35488.0694 4.48444 1.66876 5.15087 4.05738l5.6976 20.37324c.0378.11924.0855.22378.1151.34531.72046 2.9678-1.11837 5.95551-4.08616 6.67598-2.9678.72046-5.95552-1.08959-6.67598-4.05738l-5.6976-20.37325c-.82022-2.93983.91612-5.99962 3.85596-6.81985.55121-.15379 1.09678-.21745 1.64021-.20143zm305.71377 12.60378c3.04913-.13494 5.62021 2.24562 5.75515 5.29474l.94961 21.12142c.01.12471.0273.24899.0288.37408.0315 3.05384-2.44234 5.55107-5.49617 5.5825-3.05383.0315-5.55104-2.41356-5.5825-5.46739l-.9496-21.12142c-.13495-3.04912 2.24561-5.64898 5.29474-5.78393zm-250.63694 42.07018c.36713.007.75012.0598 1.12225.14388l20.63223 4.66167c.12291.0233.25303.0548.37408.0863 2.95439.77359 4.71588 3.77914 3.94228 6.73353-.77358 2.95439-3.80791 4.715884-6.7623 3.942284l-20.63223-4.632904c-2.9771-.67251-4.84499-3.64134-4.17249-6.61843.58846-2.60496 2.92626-4.36858 5.49618-4.31636zm192.9703 9.43845c3.05135-.12714 5.62801 2.24339 5.75515 5.29474.12714 3.051354-2.2434 5.628024-5.29474 5.755154l-21.09264 1.61145c-3.04339.23043-5.69738-2.04991-5.9278-5.09331-.23044-3.043404 2.0499-5.697384 5.09331-5.927814l21.09264-1.61145c.12433-.0138.24909-.0234.37408-.0288zm-111.07447 5.35229c1.06415-.0243 2.14498.24441 3.10779.863284l17.8122 11.42398c.10754.0639.21358.13037.31653.20143 2.51155 1.73753 3.11877 5.20035 1.38124 7.7119s-5.17157 3.14754-7.68313 1.41001l-17.8122-11.45275c-2.56747-1.65031-3.29053-5.05811-1.64022-7.62558 1.03144-1.60467 2.74421-2.491704 4.51779-2.532274z" fill="#d45500"/></g></g></svg>