<svg height="14.06" width="16" xmlns="http://www.w3.org/2000/svg"><path d="m8.0256981 9.0650255c.1066-.93342-.59998-1.8638298-2.11974-1.9435898h-2.8804316c-1.51977.0798-2.23306996 1.0101698-2.13988996 1.9435898z" fill="#cb7842"/><path d="m.90258933 12.068739c-.0932.93302.62011997 1.924531 2.13988997 1.991261h2.8804316c1.51976-.0667 2.22634-1.058241 2.11974-1.991261z" fill="#cb7842"/><path d="m8.3299442 9.9039051h-7.6500142c-.18637.00001-.34628.0666-.47974.1998899-.13346.13327-.20019.28657-.20019.4599 0 .2002.0667.36357.20019.49011.13346.12655.29337.18982.47974.18982h7.6500142c.18676 0 .34677-.0633.48004-.18982.13325-.12654.19988-.28991.19989-.49011-.00001-.17333-.0666-.32663-.19989-.4599-.13327-.1332499-.29328-.1998799-.48004-.1998899z" fill="#6e1f00"/><path d="m14.900682 0-1.587616 3.74022h1.239622l1.447612-3.56017z" fill="#f00"/><path d="m8.92025 3.74022 1.30004 10.31978h4.41954l1.32018-10.31978z" fill="#a2afc1"/></svg>