<svg viewBox="0 0 16 16" xmlns="http://www.w3.org/2000/svg"><circle cx="8" cy="8" fill="#fff" fill-rule="evenodd" r="7.385648" stroke="#734a08" stroke-linecap="round" stroke-width="1.228703"/><path d="m5.4939468 3.2033898c-.7417271 0-2.2251817 1.4205006-2.2251817 3.5512511s1.6688862 2.841001 1.6688862 2.841001l-.5403549 3.5512511h2.2271992l-.5742536-3.5512511s1.6688863-.7102505 1.6688863-2.841001-1.4834546-3.5512511-2.2251815-3.5512511zm2.7974171.6682808v4.3034708c0 .71025 1.56921.71025 1.56921 1.4205005l-.5403561 3.5512511h2.4644872l-.540354-3.5512511c0-.7102505 1.467514-.7102505 1.467514-1.4205005v-4.3034708c0-.7102501-.825622-.7102501-.825622 0v3.5932205c0 .4000757-.912922.4000757-.912922 0v-3.5932205c0-.7102501-.909515-.7102501-.909515 0v3.5932205c0 .3745389-.9468207.3745389-.9468207 0v-3.5932205c0-.7102501-.8256214-.7102501-.8256214 0z" fill="#734a08"/></svg>