<svg height="16" viewBox="0 0 16 16" width="16" xmlns="http://www.w3.org/2000/svg" xmlns:xlink="http://www.w3.org/1999/xlink"><linearGradient id="a" gradientUnits="userSpaceOnUse" x1="8" x2="17" y1="1041.3622" y2="1044.3622"><stop offset="0" stop-color="#ffd07c"/><stop offset="1" stop-color="#ffdfba"/></linearGradient><linearGradient id="b" gradientUnits="userSpaceOnUse" x1="7" x2="11" y1="1047.3622" y2="1048.3622"><stop offset="0" stop-color="#d07b11"/><stop offset="1" stop-color="#f0a64a"/></linearGradient><g fill-rule="evenodd" transform="translate(0 -1036.3622)"><path d="m13.125828 1041.0489c1.874172 3.3133-2.062394 4.381-4.8400541 4.381-2.7782431.0001-6.7838009-1.4425-4.9663226-3.8128-.4079447-1.0393 1.3955683-5.4211 5.0294571-4.8231 2.6367856.4339 3.6510916 1.5682 4.7769196 4.2549z" fill="url(#a)" stroke="#6f400c" stroke-linecap="round" stroke-width=".492519"/><path d="m4.1773615 1044.4493 4.2144884 7.066 4.2144921-7.066c-2.8637895.5052-5.8023338 1.7081-8.4289805 0z" fill="url(#b)" stroke="#6f400c" stroke-width=".690624"/><g fill="#9b0000"><ellipse cx="5.232717" cy="1037.6697" rx=".955597" ry=".916369"/><ellipse cx="7.171147" cy="1040.5732" rx=".955597" ry=".916385"/><ellipse cx="7.658826" cy="1043.6079" rx=".955597" ry=".916385"/><ellipse cx="3.082565" cy="1041.2659" rx=".955597" ry=".916369"/><ellipse cx="11.397631" cy="1040.7211" rx=".955597" ry=".916369"/><ellipse cx="12.320267" cy="1043.609" rx=".955597" ry=".916369"/><ellipse cx="9.285708" cy="1037.895" rx=".955597" ry=".916369"/></g></g></svg>