<svg height="160" viewBox="0 0 160 160" width="160" xmlns="http://www.w3.org/2000/svg" xmlns:xlink="http://www.w3.org/1999/xlink"><linearGradient id="a" gradientTransform="matrix(.51252415 0 0 .44530508 210.22187 426.94756)" gradientUnits="userSpaceOnUse" x1="121.87" x2="122.01" y1="121.23" y2="349.41"><stop offset="0" stop-color="#ef8900"/><stop offset="1" stop-color="#5d2500"/></linearGradient><radialGradient id="b" cx="126.23" cy="45.060001" gradientTransform="matrix(.89953114 .00000003 0 .78627518 161.36756 419.72338)" gradientUnits="userSpaceOnUse" r="117.84"><stop offset="0" stop-color="#fff"/><stop offset="1" stop-color="#c5c5c5"/></radialGradient><linearGradient id="c" gradientTransform="matrix(.51252415 0 0 .44530508 210.22187 426.94756)" gradientUnits="userSpaceOnUse" x1="113.13" x2="160.42" y1="186.8" y2="117.64"><stop offset="0" stop-color="#ff7f2a"/><stop offset="1" stop-color="#813300" stop-opacity="0"/></linearGradient><g stroke-width=".477734" transform="translate(-214.53904 -435.9707)"><path d="m243.47188 457.74307c-10.00908-.0107-17.91169.0673-18.70713.26452-2.12082.52635-3.93978 2.36545-3.93978 2.36545s.91537 7.10752 1.52118 9.47699c.60631 2.36724 4.24318 51.60195 3.94028 55.28908s1.19829 47.38046.59248 49.74948c-.56788 2.22207-1.13268 4.67125-1.20136 4.53766-.017.16921-.9046 9.17329-.30443 10.47803.60631 1.31365 35.14685 6.31443 51.20526 5.78896 16.05738-.52546 48.47453-3.68267 50.28887-5.78896 1.81946-2.10629-1.81947-12.90494-.60478-14.22304 1.20955-1.31811 3.32629-2.10629 6.66281-2.89449 3.33141-.78818 17.2772-5.78451 20.91612-8.15353 3.63379-2.36903 11.81367-14.74405 13.62801-19.74929 1.81946-5.00077 6.36043-16.59206 6.66282-21.33011.30238-4.73804.30238-23.16031-.9123-27.11017-1.20956-3.9454-6.3553-12.62885-9.99422-14.20523-3.63379-1.58083-29.99804-3.16166-29.99804-3.16166s-1.80921-1.06428-1.80921-2.64512c0-1.57638-35.4513-17.10373-43.63118-17.89325-5.10986-.49385-27.63377-.77528-44.3154-.79354zm89.14845 31.85446c-.30238 0 23.03284.53437 26.66663 1.84801 3.63892 1.31811 3.33654 9.73438 3.63892 14.47242.30239 4.73805-.30751 17.10862-.30751 21.05402 0 3.94986-8.78466 21.33457-11.51129 24.22905-2.73175 2.89449-6.3553 5.25905-9.08193 7.89081-2.72663 2.63175-12.12119 2.11074-14.54543 1.58528-2.42425-.52546-1.82459-5.27241-2.13211-8.16689-.30239-2.89449 2.13211-48.1731 2.43962-50.80485.30239-2.63621.59453-8.95063 4.8331-12.10785z" fill="url(#a)" stroke="#000"/><path d="m226.27977 484.07129s2.72684-12.10918 6.05958-13.68868c3.33279-1.57945 21.51166-2.89568 25.14751-2.10593 3.63574.78975 12.72494 6.84434 14.84577 8.95018 2.12088 2.10594 6.05957 15.53136 6.96828 19.2167.90895 3.68539 2.12087 17.90037 2.72683 19.2167.60596 1.31622 4.54471 8.42383 8.7862 8.42383 4.2417 0 13.33126-7.10752 15.14919-10.00333 1.81787-2.89569 2.12088-6.05437 7.57459-11.846 5.45377-5.7912 4.2417-16.84768 6.36248-19.2167 2.12087-2.3692.60596-3.94865 3.02978-2.63242 2.42384 1.31623 3.63575 3.42217 5.45377 1.57945 1.81788-1.84271-7.87748-15.26818-7.87748-15.26818l-90.89105-6.84389-7.26964 5.00167s3.02979 3.1589 3.33279 4.73849c.30298 1.57945.90897 14.74183.60596 14.4782z" fill="url(#c)"/><path d="m222.34102 473.01437s1.21192-7.63386 2.42383-8.42384c1.21191-.78974 31.81288-3.15891 34.23661-2.89568 2.42384.26324 9.99833 3.68539 15.755 3.68539s8.48329 1.05297 10.60412 2.10594c2.12088 1.05296 4.54471 4.47531 6.66538 5.00166 2.12087.52648 6.96828 3.1589 6.36247 5.00167-.60595 1.84271-.9089 9.74015-.60595 11.31965.30297 1.57945 1.51491 4.47532 1.51491 4.47532s0 2.10594 1.51493 2.63242c1.51491.52649 4.5447.52649 4.5447-1.57945s-1.51492-2.63242-2.12088-5.26484-1.51491-4.21188.60596-7.89749c2.12087-3.68539 2.12087-4.73849 4.2417-5.79119 2.12088-1.05297 2.42383-2.89569 3.93875-.52649s-.30298 3.42217 2.72683 2.89568c3.02979-.52648 2.12088-3.1589 5.75667-2.63242 3.63574.52649 3.0298.78976 3.93875 3.15891.90897 2.36921 0 5.00167 3.0298 2.89569 3.02978-2.10594 4.54469-4.47532 6.05956-7.10752 1.51493-2.63242 2.72683-15.53135-.60596-20.00667-3.33279-4.47531-25.14751-15.00499-30.29786-15.26817-5.15087-.26324-41.8112-3.42217-45.74995-2.3692s-15.4521 1.84271-18.17873 3.15891c-2.72683 1.31622-2.72683 4.21187-4.84766 4.47531-2.12087.26324-5.45377 0-6.36246 2.10593-.90897 2.10594.30297.78976-3.33279 2.89569-3.63578 2.10594-5.75668.52649-6.05958 4.21188-.30298 3.68539 2.12087 3.42216-.60596 4.73849-2.72683 1.31623-3.33279 1.31623-2.12087 4.47531 1.2119 3.15891 5.15087 11.05604 5.15087 11.05604l1.81786-.52649z" fill="url(#b)" stroke="#000"/><path d="m223.85605 469.32947 1.21191 8.16066s5.45376 72.39325 4.84766 77.13129c-.60596 4.7385-2.42383 17.37403-.60596 19.47988 1.81787 2.10593 1.81787 4.21187 3.02978 4.47531 1.21192.26324 10.90704 3.1589 18.17873 2.89569 7.27168-.26325 44.84073 0 50.90082-.78976 6.05957-.78969 13.93707-1.84271 17.57292-3.1589 3.63574-1.31623 3.93875-2.10594 5.15087-.78974 1.2119 1.31622 3.02978 5.52801 1.81786 6.31798-1.21191.78975-14.54287 5.7912-19.69373 5.00167-5.15087-.78975-29.99497-2.10594-37.87247-2.10594-7.87749 0-17.57292 1.31624-23.93538 0-6.36248-1.31623-12.11915-1.05297-13.63417-1.84271-1.51492-.78976-4.2417-4.47532-3.93875-5.52803.30298-1.05296 1.21191-5.26484 1.21191-5.26484s-.60596-32.90537-.60596-34.48486c0-1.57946-1.51491-34.48488-1.51491-34.48488l-2.72683-31.85223.60595-3.1589z" fill="#fff" stroke="#000"/><path d="m324.14062 482.75319s0 15.53135.30298 20.79619-1.21191 34.74805-2.12088 38.17021c-.90896 3.42218-.60596 5.26485 0 8.16067.60596 2.89568 0 3.68539 0 3.68539s1.81788-9.74016 2.12088-12.10918c.30298-2.36921 1.81787-35.8012 2.12088-37.90704.30298-2.10594 2.42382-9.21336 3.02978-11.846.60596-2.63243 1.51493-3.94866 0-5.7912-1.51492-1.84272-.60596-1.05297-2.42382-2.10593-1.81788-1.05297-3.0298 0-3.0298-1.05297z" fill="#803300"/><path d="m229.0064 475.90885c.90896 3.42217 2.12088 48.17311 2.42383 51.33032.30298 3.1589 1.81787 16.58449 1.21191 20.53302-.60595 3.94865-.90896 4.73849-1.51492 6.05436-.60595 1.31624-.90896-5.00166-.90896-5.00166s-3.93875-46.06681-3.33279-47.91038c.60596-1.84271-1.21192-17.90037-.30297-20.00667.90895-2.10593 2.12087-5.52801 2.42382-5.00166z" fill="#803300"/><path d="m233.24857 568.04692c1.51491 3.15891 2.12087 5.26485 5.15086 5.52803 3.02979.26323 27.87414 1.57945 33.93372 1.57945 6.05956 0 35.75162 0 39.99327-2.63242 4.2417-2.63242 5.75668-1.57946 7.2717-6.31799 1.51491-4.73849 2.42383-10.52969 1.21191-12.37236-1.21191-1.84272 3.02979 4.47532 3.02979 8.16066 0 3.68539-2.12088 6.05437-4.84766 9.74016-2.72683 3.68539-6.66537 5.52802-12.42204 5.52802-5.75668 0-12.42206.7897-16.66371.26324-4.2417-.52649-7.27169-1.05297-13.02835.26324-5.75668 1.31621-27.26835-.26324-33.02502-1.05297-5.75666-.78973-10.30122.78975-11.81624-2.63242-1.51492-3.42217-1.21191-7.63387 0-10.26651 1.21192-2.63242 3.02978-6.84434 3.02978-6.84434l-1.81786 11.05604z" fill-opacity=".4382"/><path d="m233.24857 474.5952c.90895 3.42217 4.84765 15.00501 4.54469 18.95352-.30297 3.94866-.60596 16.32088-1.2119 22.11252-.60596 5.79119-2.42384 14.21503-1.51493 21.84933.90897 7.63387 2.12087 10.26652.60596 13.16233-1.51492 2.89569-3.63574 7.10752-3.63574 7.10752s8.4833-9.74016 9.08962-12.10918c.60595-2.36921-2.12089-13.68868-1.51493-19.47987.60596-5.7912 1.51493-18.95353 2.72683-25.27151 1.21192-6.31799 1.81788-11.84601.30299-17.6372s-9.08962-9.47654-9.39252-8.68702z" fill="#fff" fill-opacity=".71536"/><path d="m331.59784 477.46297c0-1.57946 1.32673 12.13412 1.02377 12.13412-.0189-.41146 23.41057.37 27.0459 1.68623 3.63575 1.31623 3.33274 10.063 3.63575 14.8015.30298 4.73849-.30431 16.85925-.30431 20.80776 0 3.94866-8.69447 21.24952-11.42109 24.1449-2.72684 2.89568-6.63872 5.58679-9.36535 8.21944-2.72684 2.63242-12.59272 2.19517-15.01645 1.66869-2.42383-.52649 2.3022 12.40263 5.63521 11.61311 3.33279-.78971 17.28179-5.86779 20.91713-8.23681 3.63574-2.3692 11.52769-14.58018 13.34561-19.58184 1.81788-5.00168 6.45473-16.42998 6.75763-21.16847.30299-4.7385.39371-23.15943-.81819-27.10795-1.21192-3.94866-6.54801-12.54647-10.18385-14.12552-3.63574-1.57945-29.39275-2.97794-29.39275-2.97794s-1.85959-.95549-1.85959-1.87687z" fill="#afafaf"/><path d="m331.26471 477.62327s1.0604 2.30339 1.28766 3.42218c.22723 1.11878.68171 4.80439.53021 5.9889-.15148 1.18461.30298 2.3692-.22724 2.43502-.5302.0658-.60596-.98715-.60596-1.7769s-.15148-4.08029-.45446-5.19894c-.30298-1.11878-.37872-1.90849-.60595-2.69823-.22723-.78971.30297-2.30339.0757-2.17176z" stroke="#000"/></g></svg>