<svg viewBox="0 0 16 16" xmlns="http://www.w3.org/2000/svg"><path d="m0 0h16v16h-16z" fill="none" visibility="hidden"/><rect fill="#fff" height="16" rx="2" width="16"/><path d="m7 0c-3.8541486 0-7 3.1458514-7 7 0 3.854149 3.1458514 7 7 7 3.854149 0 7-3.145851 7-7 0-3.8541486-3.145851-7-7-7zm0 2c2.7732686 0 5 2.2267316 5 5 0 2.7732686-2.2267314 5-5 5-2.7732684 0-5-2.2267314-5-5 0-2.7732684 2.2267316-5 5-5zm-.25 1.21875a.750075.750075 0 0 0 -.15625.03125.750075.750075 0 0 0 -.59375.75v3 .375l.3125.21875 2 1.5a.750075.750075 0 1 0 .875-1.1875l-1.6875-1.28125v-2.625a.750075.750075 0 0 0 -.75-.78125z" fill="#734a08" transform="translate(1 1)"/></svg>