<svg height="16" viewBox="0 0 16 16" width="16" xmlns="http://www.w3.org/2000/svg"><g transform="translate(113.469 -791.55)"><g fill="#d60000"><ellipse cx="-121.06232" cy="791.21387" rx="1.643415" ry="1.582314" transform="matrix(.99983132 -.01836646 .01981285 .99980371 0 0)"/><path d="m-105.43856 795.26271c-2.19167.0403-3.9631 1.67227-4.1478 3.72898l1.03676.006c.18903-1.62698 1.35998-2.82424 3.10611-2.85635 1.74606-.0321 3.0492 1.09179 3.3027 2.7106l.99583-.0149c-.26618-2.04842-2.10167-3.61424-4.29332-3.57383z"/><path d="m-105.42783 795.21395c-1.00563.0321-1.77626 3.95012-1.75861 5.49813.0177 1.54798.22478.8399.43446.27334.2097-.56658.59419-2.18691 1.36944-2.21163.77506-.0247 1.32964 1.5408 1.55259 2.09473.22294.5539.30244 1.27525.28481-.27259-.0176-1.54784-.87708-5.414-1.88271-5.382z"/></g><ellipse cx="104.02796" cy="854.30823" fill="#f89000" rx="1.514044" ry="1.716646" transform="matrix(-.83436039 -.55121931 -.01404013 .99990143 0 0)"/><path d="m-99.144696 799.86107c-.248631-1.0865-1.458774-1.50727-2.775344-1.0115l.0921.6684c1.04581-.37074 1.997063-.29288 2.195249.57275.198075.86569-1.095359 1.67906-2.091019 2.26917l.1944.83209c1.26544-.71939 2.633334-2.24417 2.384721-3.33089z" fill="#f89000"/><path d="m-98.780346 799.27797c.749752.48572 1.324281 5.41969 1.311124 7.22557-.01314 1.80587-.167584.88393-.323935.12665-.15634-.75729-.443008-2.82705-1.020956-3.20156-.577852-.37436-.991317 1.21277-1.157541 1.76242-.166216.54962-.225486 1.35937-.212346-.44632.0131-1.80569.653899-5.9525 1.403651-5.46684z" fill="#f89000"/><ellipse cx="-144.53421" cy="720.91339" fill="#007cba" rx="1.586123" ry="1.71667" transform="matrix(.85037958 -.52616972 .01499073 .99988763 0 0)"/><path d="m-111.81993 799.86108c.25101-1.08661 1.69781-1.48685 3.02696-.99104l-.0725.58656c-1.05581-.37074-2.2617-.2315-2.46177.63413-.19997.86569 1.10486 1.6586 2.11003 2.24871l-.1953.85255c-1.27745-.71939-2.65833-2.24435-2.40735-3.33089z" fill="#007cba"/><path d="m-112.19038 799.27798c-.73104.48572-1.29124 5.41969-1.27841 7.22557.0135 1.80587.1634.88393.31585.12665.15245-.75729.43195-2.82705.99548-3.20156.56343-.37436.96658 1.21277 1.12866 1.76242.16206.54962.21987 1.35937.20704-.44632-.0135-1.80569-.63757-5.9525-1.36862-5.46684z" fill="#007cba"/><ellipse cx="-121.20014" cy="795.90759" fill="#00bf00" rx="1.798997" ry="1.732112" transform="matrix(.99983132 -.01836646 .01981285 .99980371 0 0)"/><path d="m-105.39635 799.75347c-2.17313.0358-3.92952 1.69177-4.11282 3.5209l.98898-.0133c.18744-1.44689 1.38732-2.1342 3.11859-2.16272 1.7313-.0285 2.98099.63224 3.23239 2.07181l1.0299-.0338c-.26376-1.82183-2.06324-3.41873-4.23648-3.38303z" fill="#00bf00"/><path d="m-105.45217 799.90935c-1.00564.0376-1.77626 4.62822-1.75861 6.44197.0177 1.81372.2657 1.03524.47538.37142.2097-.66385.55327-2.61348 1.32851-2.64245.77506-.029 1.1762 2.12244 1.39915 2.77146.22294.64898.45589 1.17703.43826-.63652-.0176-1.81354-.87709-6.3434-1.88272-6.3059z" fill="#00bf00"/></g></svg>