<svg height="16" viewBox="0 0 16 16" width="16" xmlns="http://www.w3.org/2000/svg"><g transform="translate(0 -1036.3621)"><rect fill="#005cff" height="16.000042" rx="2.000039" width="16.000004" y="1036.3621"/><g fill="#fff"><path d="m2.3751718 1041.0393v4.1972c-.00799.6574.8424554.6574.8344694 0v-3.4636h.4300275v8.9553c-.010264.8453 1.0831517.8453 1.0728906 0v-5.4934h.5311078v5.4934c-.010167.8452 1.0830581.8452 1.0728915 0v-8.9553h.4737998v3.4636c-.00805.6574.8424938.6574.8344701 0v-4.1974c0-.5826-.4029823-1.0521-.9030169-1.0521l-3.4016003.0001c-.5980515.0001-.9450395.4694-.9450395 1.0522z"/><ellipse cx="4.999899" cy="1038.4159" rx="1.053847" ry="1.053833"/><path d="m12.494142 1045.3739c-.276115 0-.497334.2297-.49414.5058v2.4824h-1.503907c-.447994.0002-.6697598.5441-.349609.8575l2 2c.195265.1952.511766.1952.707031 0l2-2c.374791-.3616.03953-.8621-.351562-.8594h-1.501953v-2.4805c.0032-.2807-.225157-.5091-.50586-.5058z" fill-rule="evenodd"/><path d="m12.494142 1043.3503c-.276115 0-.497334-.2297-.49414-.5058v-2.4824h-1.503907c-.447994-.0002-.6697605-.5441-.349609-.8575l2-2c.195265-.1952.511766-.1952.707031 0l2 2c.37479.3616.03953.8621-.351562.8594h-1.501953v2.4805c.0032.2807-.225157.5091-.50586.5058z" fill-rule="evenodd"/></g></g></svg>