<svg height="16" viewBox="0 0 16 16" width="16" xmlns="http://www.w3.org/2000/svg"><g transform="translate(0 -1036.3622)"><path d="m0 1036.63h16v16h-16z" fill="#fff" fill-rule="evenodd"/><path d="m7.4304287 1044.9947c.4961085-.2907.1877991-1.0227.4405821-1.4951.096734-.4889.4182304-.8681.6965273-1.2469.4135101-.3543.7982703-.7663 1.2829231-1.0088.4821048-.1911.4156248-.8882.2088688-1.2788-.4175458-.2987-.609926-.9332-.3189898-1.3856.2792648-.4888.9695608-.7867 1.6068828-.8003.808586 0 .880243 0 1.268853.239.481936.5266.595978 1.0427.384574 1.6971-.317863.3687-.677342.7832-.756868 1.3043.0046.5135.388156.9616.733813 1.2551.412059.3167.73974.7354 1.071795 1.1414.23997.527.252532 1.1247.360545 1.6886.09019 1.2847-.0048 2.5343.05764 3.7006.01303.4873-.05145 1.8448-.05267 2.3324" fill="none" stroke="#000" stroke-width=".850363"/><g fill-rule="evenodd"><path d="m1.2035753 1046.3413c-.028851-.1229.9662055-1.2913 1.3616892-1.916.3541719-.346 1.1123639-.7213 1.613312-.4547.5625656.3731 1.0349257 1.0523 1.3260172 1.6822.2928694.3915.8390821.3255 1.2916002.359.6509395 0 1.3820137.055 1.9285324-.3624.3894218-.415 1.1374238-.8028 1.5248327-.6572.511507.36.398256 1.1972.03018 1.7313-.4156611.4102-.5723416.9719-.7236419 1.5252-.026122.791-.1641829 1.58-.2118186 2.3675.00178.7329-.8474634.9305-1.0312298.1998-.3967878-.4545-.4390395-1.0452-.6165058-1.5964-.5221471-.4344-1.3717228-.1153-1.6419411.5151-.3946987.3778-.5403758 1.0759-1.0510789 1.359-.5039298.5422-1.4370171.2807-1.5057632-.5241-.153195-.5964-.1113369-1.2526-.026569-1.8607.087413-.6986.2860837-1.37.2305394-2.0845-.2972165-.4364-1.0801457-.2149-1.4796139.1765-.3814696.2449-.9120557-.2455-1.0185488-.4601z" stroke="#000" stroke-width=".685041"/><rect fill="#952d0f" height="4.543075" ry=".717126" width="2.210346" x="10.883937" y="1047.0309"/></g></g></svg>