<svg height="337.69653" width="227.25311" xmlns="http://www.w3.org/2000/svg"><g fill="#ff0404" stroke="#000" transform="translate(-148.27343 -206.07371)"><path d="m245.19363 207.42047h33.412712v16.479065h-33.412712z" stroke-width="2.693529"/><path d="m317.18789 298.78839a51.51778 49.497475 0 1 1 -103.03557 0 51.51778 49.497475 0 1 1 103.03557 0z" stroke-width="2.776385" transform="matrix(1.083936 0 0 1.0771579 -26.069401 -47.297547)"/><path d="m150.46725 341.412086h24.71629v39.002003h-24.71629z" stroke-width="3"/><path d="m171.9857 315.689766h37.999222v90.446655h-37.999222z" stroke-width="3.422585"/><g transform="matrix(-1 0 0 -1 522.53373 724.06593)"><path d="m149.201 343.65182h24.71629v39.002003h-24.71629z" stroke-width="3"/><path d="m170.71945 317.9295h37.999222v90.446655h-37.999222z" stroke-width="3.422585"/></g><path d="m206.89935 278.63803h110.00126v249.40231h-110.00126z" stroke-width="3"/><path d="m182.06792 523.51727h159.66415v19.252966h-159.66415z" stroke-width="2"/><path d="m189.87724 268.91104h144.0455v19.348593h-144.0455z" stroke-width="1.904373"/></g></svg>