<svg height="48" width="48" xmlns="http://www.w3.org/2000/svg"><g fill="none"><path d="m0 0h48v48h-48z"/><path d="m20 34 12 7-8-18-8 18" stroke="#fff" stroke-linecap="round" stroke-linejoin="round" stroke-width="12"/><path d="m36.349644 11.405586a14 14 0 0 1 .143788 12.912179" stroke="#fff" stroke-linecap="round" stroke-linejoin="round" stroke-width="11" transform="matrix(-1 0 0 1 51.849644 .139482)"/><path d="m39.064398 6.4214032a19 19 0 0 1 .175642 22.9250148" stroke="#fff" stroke-linecap="round" stroke-linejoin="round" stroke-width="12" transform="matrix(-1 0 0 1 49.122899 -.421403)"/><path d="m39.064398 6.4214032a19 19 0 0 1 .175642 22.9250148" stroke="#fff" stroke-linecap="round" stroke-linejoin="round" stroke-width="12" transform="translate(-1.065898 -.421403)"/><path d="m36.349644 11.405586a14 14 0 0 1 .143788 12.912179" stroke="#fff" stroke-linecap="round" stroke-linejoin="round" stroke-width="11" transform="translate(-3.600083 .139482)"/></g><path d="m29 24a5 5 0 1 1 -10 0 5 5 0 1 1 10 0z" fill="#fff" stroke="#fff" stroke-linecap="round" stroke-linejoin="round" stroke-width="8" transform="translate(0 -6)"/><path d="m29 24a5 5 0 1 1 -10 0 5 5 0 1 1 10 0z" transform="translate(0 -6)"/><path d="m20 34 12 7-8-18-8 18" fill="none" stroke="#000" stroke-linecap="round" stroke-linejoin="round" stroke-width="4"/><path d="m36.349644 11.405586a14 14 0 0 1 .143788 12.912179" fill="none" stroke="#000" stroke-linecap="round" stroke-linejoin="round" stroke-width="3" transform="translate(-3.600083 .139482)"/><path d="m36.429757 11.557862a14 14 0 0 1 .099887 12.687778" fill="none" stroke="#000" stroke-linecap="round" stroke-linejoin="round" stroke-width="3" transform="matrix(-1 0 0 1 51.600083 .139482)"/><path d="m39.064398 6.4214032a19 19 0 0 1 .175642 22.9250148" fill="none" stroke="#000" stroke-linecap="round" stroke-linejoin="round" stroke-width="4" transform="translate(-1.065898 -.421403)"/><path d="m39.064398 6.4214032a19 19 0 0 1 .175642 22.9250148" fill="none" stroke="#000" stroke-linecap="round" stroke-linejoin="round" stroke-width="4" transform="matrix(-1 0 0 1 49.24004 -.346418)"/></svg>