<svg height="13" viewBox="0 0 16 13" width="16" xmlns="http://www.w3.org/2000/svg" xmlns:xlink="http://www.w3.org/1999/xlink"><linearGradient id="a"><stop offset="0" stop-color="#4d4d4d"/><stop offset="1" stop-color="#4d4d4d" stop-opacity="0"/></linearGradient><linearGradient id="b" gradientTransform="matrix(.25 0 0 1.3333396 10.5 -347.4605)" gradientUnits="userSpaceOnUse" x1="6" x2="14" xlink:href="#a" y1="1045.3622" y2="1045.3622"/><linearGradient id="c" gradientTransform="matrix(.25 0 0 1.3333396 -13.5 -347.4605)" gradientUnits="userSpaceOnUse" x1="6" x2="14" xlink:href="#a" y1="1045.3622" y2="1045.3622"/><linearGradient id="d" gradientTransform="matrix(.25 0 0 1.3333396 6.5 -347.4605)" gradientUnits="userSpaceOnUse" x1="6" x2="14" xlink:href="#a" y1="1045.3622" y2="1045.3622"/><linearGradient id="e" gradientTransform="matrix(.25 0 0 1.3333396 -9.5 -347.4605)" gradientUnits="userSpaceOnUse" x1="6" x2="14" xlink:href="#a" y1="1045.3622" y2="1045.3622"/><g transform="translate(0 -1040.3622)"><path d="m0 1040.3622h16v13h-16z" fill="#333"/><path d="m6 1048.3622h8v5h-8z" fill="#f9f9f9"/><path d="m6 1048.9817v-6.6195h8v6.6195c-.970728-.063-1.223517 1.9426-1.735589 1.3808-2.264411-2.4841-3.3980963-.3846-4.5755094.0098-.6357394.2129-1.3086378-.575-1.6889016-1.3906" fill="#f00"/><path d="m12 1042.3622h2v8.000037h-2z" fill="url(#b)" opacity=".489"/><path d="m-12 1042.3622h2v8.000037h-2z" fill="url(#c)" opacity=".489" transform="scale(-1 1)"/><path d="m8 1042.3622h2v8.000037h-2z" fill="url(#d)" opacity=".489"/><path d="m-8 1042.3622h2v8.000037h-2z" fill="url(#e)" opacity=".489" transform="scale(-1 1)"/><path d="m1 1042.3622h3v4h-3z" fill="#fff"/><path d="m1 1046.3622 1-2h1l1 2z" fill="#00f"/><ellipse cx="2.5" cy="1044.1584" fill="#ff7f2a" rx="1.063458" ry="1"/><path d="m1 1047.3622h3v4h-3z" fill="#fff"/><path d="m1 1051.3622 1-2h1l1 2z" fill="#00f"/><ellipse cx="2.5" cy="1049.1584" fill="#ff7f2a" rx="1.063458" ry="1"/></g></svg>