<svg height="16" width="15" xmlns="http://www.w3.org/2000/svg"><g stroke="#000" transform="translate(-255.89842 -523.38464)"><path d="m263.40457 539.34897c.3979-1.57039 8.28022-.52347 7.06207-3.14079-3.72818-8.01036 0-9.42237 0-9.42237-1.17886-.3926-1.40929-1.57041-1.41463-1.57041-3.53038 1.57041-5.64744-1.57038-5.64744-1.57038s-2.08756 3.14079-5.65855 1.57038c-.003 0-.23575 1.17781-1.4146 1.57041 0 0 3.72816 1.41201 0 9.42237-1.21816 2.61732 6.67527 1.5704 7.07315 3.14079z" fill="#917400" stroke-width=".289816"/><path d="m263.80132 527.68793 2.52615 7.295-6.61357-4.50855h8.17481l-6.61356 4.50855z" fill="#fff" stroke-width=".010408"/></g></svg>