<svg height="16" width="15" xmlns="http://www.w3.org/2000/svg"><g stroke="#000" transform="translate(-255.89842 -523.38464)"><path d="m263.40397 539.34905c.39791-1.57039 8.28034-.52347 7.06217-3.14078-3.72823-8.01034 0-9.42235 0-9.42235-1.17889-.39259-1.40932-1.5704-1.41466-1.5704-3.53042 1.5704-5.64751-1.57038-5.64751-1.57038s-2.08759 3.14078-5.65861 1.57038c-.003 0-.23577 1.17781-1.41465 1.5704 0 0 3.72822 1.41201 0 9.42235-1.21818 2.61731 6.6754 1.57039 7.07326 3.14078z" fill="#917400" stroke-width=".289817"/><path d="m263.80073 527.68804 2.52618 7.29497-6.61366-4.50853h8.17494l-6.61366 4.50853z" fill="#00f" stroke-width=".010408"/></g></svg>