<svg height="282.37003" width="371.82468" xmlns="http://www.w3.org/2000/svg"><path d="m7.464805 7.464816h356.89542v267.4404h-356.89542z" fill="#fff"/><path d="m26.092697 44.73442 96.450613 96.91985-96.450613 96.45059zm300.059063-18.17248-118.80359 118.34858c-5.90607 5.90595-13.3618 8.85885-22.36722 8.85872-9.3187.00013-17.08725-3.10919-23.30568-9.32798l-117.879323-117.87932zm18.64172 211.54292-96.45061-96.45059 96.45061-96.91985zm-301.466783 18.17247 96.919843-96.4506 4.19475 4.19474c11.18576 10.87326 24.69897 16.30983 40.53966 16.30972 15.84023.00011 29.19704-5.43646 40.07045-16.30972l4.19473-4.19474 96.90563 96.4506zm-43.326697 26.09271h371.82467v-282.37004h-371.82467z" fill="#f00"/></svg>