<svg height="16" width="16" xmlns="http://www.w3.org/2000/svg"><circle cx="8" cy="8" fill="#f00" r="8"/><path d="m2.892698 4.432354 3.0875517 3.0934688-3.0875517 3.0784892zm9.605405-.5800145-3.8031106 3.7774152c-.1890561.1885011-.4277326.2827517-.7160076.2827517-.2983128 0-.5469942-.099211-.7460553-.2977315l-3.7735224-3.7624354zm.596757 6.7519725-3.087552-3.0784892 3.087552-3.0934688zm-9.6504659.580025 3.1025646-3.0784888.1342856.1338806c.3580694.3470536.7906569.520575 1.2977405.520575.5070727 0 .9346522-.1735214 1.2827276-.520575l.1342746-.1338806 3.102116 3.0784888zm-1.3869653.832818h11.9027372v-9.0126129h-11.9027372z" fill="#fff"/></svg>