<svg viewBox="0 0 16 16" xmlns="http://www.w3.org/2000/svg"><path d="m0 0h16v16h-16z" fill="none" visibility="hidden"/><rect fill="#fff" height="16" rx="2" width="16"/><path d="m0 0v14h14v-14zm1 1h3v12h-.5v-4.21875c-.299072.35376-.5.78125-.5 1.21875v3h-2zm4 0h4v12h-.5v-5h-3v5h-.5zm5 0h3v12h-2v-3c0-.4375-.200928-.86499-.5-1.21875v4.21875h-.5zm-3 2c-.600848 0-1.133385.2680514-1.5.6875v2.625c.366615.4194486.899152.6875 1.5.6875.600847 0 1.133385-.2680514 1.5-.6875v-2.625c-.366615-.4194486-.899153-.6875-1.5-.6875z" fill="#734a08" transform="translate(1 1)"/></svg>