<svg height="50" width="50" xmlns="http://www.w3.org/2000/svg"><g transform="translate(-152.19785 -290.16487)"><path d="m158.17358 291.17084c-2.74014 0-4.95955 2.22424-4.95955 4.95905v38.03963c0 2.73481 2.22447 4.96411 4.95955 4.96411h38.04854c2.74014 0 4.95955-2.2293 4.95955-4.96411v-38.03963c0-2.73481-2.22447-4.95905-4.95955-4.95905z" fill="#fff"/><path d="m158.17358 340.16487c-3.29626 0-5.97573-2.66909-5.97573-5.98524v-38.03963c0-3.30098 2.67442-5.97513 5.97573-5.97513h38.04854c3.29626 0 5.97573 2.66404 5.97573 5.97513v38.03963c0 3.30604-2.67442 5.98524-5.97573 5.98524z" fill="#500"/><path d="m180.848 311.10815v-8.57345h2.96765c1.23356 0 1.4459.80376 1.59757.96047.46006.44485.76845.71783 1.42063.71783h3.28614v-7.2844h-3.28614c-.65218 0-.96057-.26792-1.42063-.72288-.15167-.13649-.36401-.95542-1.59757-.95542h-4.52983v14.85694l-2.0728-1.35982-18.26087 11.7885h4.2821v14.24527h10.36906v-11.31331h7.20425v11.06056h10.37411v-13.99758h4.26694z" fill="#fff"/></g></svg>