<svg enable-background="new 0 0 100 100" height="100" viewBox="0 0 100 100" width="100" xmlns="http://www.w3.org/2000/svg"><path d="m0 0h100v100h-100z" fill="#fff"/><path d="m83.397 45.72h-66.783c0-11.309 9.167-20.469 20.469-20.469h5.729v-25.462h14.388v25.462h5.729c11.302 0 20.468 9.161 20.468 20.469z"/><path d="m85.357 94.836c1.751-.696 2.598-2.683 1.901-4.427l-.026-.072c-.703-1.751-2.683-2.591-4.421-1.861-1.751.696-2.584 2.715-1.881 4.459.527 1.335 1.81 2.148 3.164 2.148.417 0 .853-.078 1.263-.247z"/><path d="m80.364 76.062c1.803-.54 2.825-2.441 2.285-4.245l-.02-.064c-.541-1.804-2.422-2.793-4.238-2.253-1.797.54-2.819 2.468-2.272 4.277.437 1.478 1.797 2.429 3.262 2.429.325 0 .651-.046.983-.144z"/><path d="m75.943 57.081c1.751-.697 2.598-2.683 1.901-4.428l-.026-.064c-.696-1.745-2.676-2.585-4.421-1.869-1.751.703-2.584 2.721-1.881 4.466.533 1.328 1.81 2.142 3.164 2.142.417 0 .853-.078 1.263-.247z"/><path d="m61.532 95.139816c1.875-.188 3.242-1.861 3.053-3.736l-.006-.065c-.183-1.868-1.85-3.235-3.725-3.015-1.881.183-3.248 1.889-3.053 3.764.176 1.758 1.66 3.072 3.385 3.072.112 0 .235-.006.346-.02z"/><path d="m59.755 76.812c1.849-.365 3.047-2.162 2.676-4.011l-.014-.065c-.364-1.849-2.168-3.014-4.004-2.643-1.849.364-3.04 2.193-2.669 4.043.325 1.627 1.745 2.74 3.333 2.74.229 0 .456-.02.678-.064z"/><path d="m57.646 57.263c1.855-.364 3.053-2.161 2.682-4.01l-.013-.065c-.371-1.849-2.2-3.027-4.004-2.643-1.855.364-3.047 2.194-2.669 4.042.325 1.621 1.744 2.741 3.333 2.741.227 0 .456-.019.671-.065z"/><path d="m19.082 92.935.026-.064c.703-1.745-.156-3.698-1.908-4.395-1.731-.703-3.743.176-4.446 1.934-.697 1.744.149 3.73 1.901 4.427.41.169.846.247 1.263.247 1.353-.001 2.636-.814 3.164-2.149z"/><path d="m23.893 73.777.02-.071c.547-1.804-.495-3.666-2.292-4.206-1.836-.573-3.724.508-4.258 2.317-.541 1.804.481 3.705 2.285 4.245.332.098.657.144.983.144 1.465 0 2.826-.951 3.262-2.429z"/><path d="m28.496 55.187.026-.065c.703-1.751-.156-3.698-1.908-4.401-1.719-.703-3.743.182-4.446 1.933-.697 1.745.149 3.73 1.901 4.428.41.169.846.247 1.263.247 1.354-.001 2.629-.814 3.164-2.142z"/><path d="m42.21 92.086816.006-.065c.195-1.875-1.178-3.516-3.06-3.698-1.868-.221-3.542 1.211-3.73 3.08-.188 1.875 1.179 3.548 3.054 3.736.11.014.234.02.345.02 1.725 0 3.21-1.315 3.385-3.073z"/><path d="m44.268 74.136.013-.065c.371-1.849-.833-3.613-2.683-3.978-1.81-.404-3.646.859-4.017 2.708s.827 3.646 2.676 4.011c.221.045.449.064.677.064 1.589 0 3.008-1.113 3.334-2.74z"/><path d="m46.371 54.587.02-.071c.371-1.843-.833-3.607-2.689-3.971-1.816-.384-3.646.866-4.017 2.708-.371 1.849.827 3.646 2.683 4.01.215.046.442.065.67.065 1.587 0 3.007-1.12 3.333-2.741z"/></svg>