<svg height="16" viewBox="0 0 13 16" width="13" xmlns="http://www.w3.org/2000/svg"><g transform="translate(-138.84 -673.30001)"><rect fill="#fff" fill-rule="evenodd" height="16" ry="1.999956" width="13" x="138.84" y="673.30005"/><path d="m146.84468 677.81342c0 1.94046-1.60305 3.51341-3.58038 3.51341-1.97744 0-3.58036-1.57307-3.58036-3.51341 0-1.94046 1.60303-3.51341 3.58036-3.51341 1.97745 0 3.58038 1.57305 3.58038 3.51341z"/><path d="m140.78171 679.95723 1.4726 5.78378h2.04178l1.47246-5.78378h-4.98706z"/><path d="m139.63336 677.32611h7.480082v1.049h-7.480082z" fill="#fff"/><path d="m142.83621 681.31104h.998443v.987851h-.998443z" fill="#fff"/><path d="m143.27547 685.32153c.0677.87066.34144 1.82216 1.06706 2.33124.87086.6136 2.25422.18968 2.59739-.87502.49879-1.17802.34309-2.5905 1.07342-3.67203.50925-.72881 1.73874-.49135 2.03168.33676.24669.483.27412 1.04271.34025 1.57493" fill="none" stroke="#000" stroke-linecap="round" stroke-width="1.062992"/></g></svg>