<svg height="16" width="12.08762" xmlns="http://www.w3.org/2000/svg"><g stroke="#fff"><path d="m3.6815815.41654839s-3.32396579.0435383-3.28081049 3.04769391c.0431811 3.0041556.64753619 5.6600048 1.64041819 7.1403067.992869 1.480381 3.5397939 5.355302 6.4321551 4.963444 0 0 1.4245124-.304807 2.5036537-1.001472l-3.4966003-2.742873s-1.0360373.653009-1.6835605-.217757c-.6475233-.870766-2.6764426-4.9198016-2.6764426-4.9198016s-.5611868-1.306162.6906916-1.8721468z" stroke-width=".804192"/><g stroke-width=".304"><path d="m4.0700955.41654839s.2590222-.0870896.7338726.17415319c.4748504.26122979.4748504.47892132.4748504.47892132l.043168 3.0041686s-.1295046.1741532-.3021775.3482934c-.1726727.1741662-.7338724.4353829-.8202089.2612428-.0863235-.1741662-.1295046-4.26677931-.1295046-4.26677931z"/><path d="m7.7712436 11.502692.9610324-.506285s.2159057-.04352.5611481.174101c.3453716.217757 2.1584109 1.654481 2.1584109 1.654481s.302216.261282.215906.56609c-.08631.304676-.302217.957816-.302217.957816z"/></g></g></svg>