<svg height="15.386" width="16" xmlns="http://www.w3.org/2000/svg"><path d="m0 0h16v15.386h-16z" fill="#fff"/><g stroke="#000"><path d="m7.944175 1.2291h1.047316v12.927799h-1.047316z" stroke-linejoin="round" stroke-width=".4582"/><path d="m13.691318 2.2600554c0 .607337-.49235 1.099681-1.09968 1.099681-.60734 0-1.09968-.492344-1.09968-1.099681s.49234-1.099681 1.09968-1.099681c.60733 0 1.09968.492344 1.09968 1.099681z" stroke-width=".09164"/><path d="m5.1491509 2.3746054c0 .607337-.492344 1.099681-1.099681 1.099681s-1.099681-.492344-1.099681-1.099681.492344-1.099681 1.099681-1.099681 1.099681.492344 1.099681 1.099681z" stroke-linejoin="round" stroke-width=".09164"/><path d="m3.7997869 10.205975h.416567l.06943 3.679679h.671136l.06943-3.702819 1.110845-.0231-1.203416-4.4202426.323997-.185141.97199 3.193683.717421-.39343-1.457985-4.258238-2.939113-.09257-1.50427 4.443378.647993.25457 1.064561-3.147392.300854.04628-1.203416 4.5128126 1.018275.0232.138856 3.772239h.671136l.115713-3.702819z" fill-rule="evenodd" stroke-linejoin="round" stroke-width=".09164"/><path d="m11.043428 3.9806134 2.8234-.02314.9257.717421.162 4.14253-.80999-.0232-.0926-3.286245-.41657-.04629.0116 8.4586246-.77527.0232-.162-5.0335196-.39343-.0232-.0926 5.0913796-.71742-.0463-.0463-8.4007766h-.43971l.0463 3.216827-.78685.0231-.0694-4.049959.83314-.740563z" fill-rule="evenodd" stroke-linejoin="round" stroke-width=".09164"/></g></svg>