<svg height="600" width="1000" xmlns="http://www.w3.org/2000/svg"><circle cx="215" cy="409" fill="none" r="161" stroke="#000" stroke-width="40"/><circle cx="790" cy="406" fill="none" r="161" stroke="#000" stroke-width="40"/><path d="m429.48437 15.467118c-132.56647 1.292072-110.08444-13.6959494-181.40675 215.517432-58.10251 183.14131-51.77375 163.16908-52.07762 176.01545-.21296 9.98022 7.84333 17.89312 17.96694 18.57043 21.0536-2.12877 12.19798 2.27698 85.19054-224.38965 266.71215 281.35562 166.64844 235.73116 310.18316 241.44498 188.64235-1.8089 203.97493 9.81974 206.21452-17.83058-.25842-9.38905-4.65145-14.98802-134.11696-303.11983l12.40388-34.110675 42.63834-.775242-1.55048-35.661158h-158.92473c-14.0405 19.208788 5.68512 19.12265 76.74902 34.885915l-12.40388 34.88591-317.07421.77525c21.36224-74.595562 9.30291-69.944107 105.43299-69.771832zm-115.37022 144.443002 310.26337-.55011-89.66831 240.94921zm347.67101 14.30292-88.01798 231.04719 192.53932.55011z" fill-rule="evenodd"/></svg>