<svg height="390" width="680" xmlns="http://www.w3.org/2000/svg"><path d="m136.75462 282.03583a135.85492 135.85492 0 1 1 -271.70984 0 135.85492 135.85492 0 1 1 271.70984 0z" fill="none" stroke="#000" stroke-linecap="round" stroke-linejoin="round" stroke-width="39.385586" transform="matrix(.74724 0 0 .74724 122.5869 48.79482)"/><g fill-rule="evenodd"><path d="m648.90867 96.718727h-213.12196c-8.03892 3.120006-13.78672 8.225643-9.22469 22.266473l55.03001 35.62636c23.50602-17.62897 47.8773-20.5485 72.20699-24.17503l95.74584-.31809z"/><path d="m582.93177 285.852-221.84222-.26352c-46.33224-1.40923-72.80709-39.79214-101.57831-81.34508-50.33171-72.69178-57.58438-73.47404-67.91041-107.229187l73.87464.077183c4.92242 1.499345 9.84484 2.23425 14.76726 8.330674l44.46824 63.29689c3.70559 15.6799.63128 28.34319-3.25536 41.77529-4.48774 15.5095 13.34697 43.13968 41.16983 42.01262l220.83336-12.91004z"/><path d="m108.60035 251.76407c1.7994-5.39821 85.73516-209.948519 85.73516-209.948519 10.19898-18.28919 24.50441-28.3655 43.18566-29.690147h57.5809l-.31809 33.815985h-55.51798c-6.78582-.640172-11.88817 3.638056-16.14005 15.667593l-83.67223 204.232218c-8.13451 18.99988-39.054 12.31699-30.85337-14.07713z"/></g><path d="m136.75462 282.03583a135.85492 135.85492 0 1 1 -271.70984 0 135.85492 135.85492 0 1 1 271.70984 0z" fill="none" stroke="#000" stroke-linecap="round" stroke-linejoin="round" stroke-width="39.385586" transform="matrix(.74724 0 0 .74724 555.8824 49.18351)"/></svg>