<svg height="681.87598" width="1192.9474" xmlns="http://www.w3.org/2000/svg"><path d="m463.09269 1.3762983c-4.91273.0903-17.9952 1.01241-21.31241 1.73355-13.26888 2.88454-74.88635 16.5630197-114.77091 37.4751697-24.73113 12.96697-29.45421 27.15788-30.03111 36.9653-.57692 9.80744 9.81677 14.9532 16.16276 23.606822 6.34598 8.65361 5.39399 10.57588 3.08635 24.42166-2.30762 13.84578-3.85467 16.86323-10.20066 18.59395-6.86239 1.78109-10.94013 1.54717-15.72771-1.86941.96502-6.78518 1.59829-12.94401.4079-14.53119-2.30919-3.07892-15.03621-14.6381-27.73672-13.86836-12.70052.76973-19.98676 7.13813-19.98676 7.13813s1.32712 35.79599-.21236 78.13106c-.1818 4.99993 22.87479 7.85268 25.6037 4.41629 4.12603-5.19575 8.66803-8.73877 11.78982-15.40132l16.7117 13.10692-29.98014 74.54245c-22.28412-8.01887-47.47245-12.79764-75.81711-12.79764-98.435011 0-159.537156 78.41743-159.537156 78.41743s2.752883 13.65138 10.044368 19.11999c1.072771.80457 2.043292 1.47255 3.05919 2.19243-27.031593 33.18806-43.2876488 75.69588-43.2876488 122.06198 0 106.07204 84.9781478 192.01564 189.7722368 192.01564 75.97096 0 141.47386-45.17614 171.77394-110.43703 2.50437 1.30499 5.39787 2.65348 8.61675 3.82398 31.70149 11.41216 27.90853 8.66224 27.94067 8.20885 23.45982-52.62572 20.52284-136.69719-13.3585-197.82811-18.77835-33.88113-49.4078-70.63185-94.22328-93.86638l23.65778-53.79089 223.62735 218.0698c-9.47727 11.53437-15.245 26.61707-15.245 43.13469 0 29.76697 18.6479 54.88513 44.20541 62.9175l-7.49504 36.14952h-31.61171v29.62323h69.34182v-29.62323h-20.24169l6.67924-33.49822c.29152.005.5743.051.86678.051 54.48119-1.27719 111.63644-2.19311 158.72137-3.05919 0 0 3.48907-3.41852 7.69898-7.49504l36.35346 2.44736c25.81967 75.01265 96.30458 128.84321 179.21798 128.84321 94.52557 0 172.87677-69.97384 187.32487-161.52563.1599.0259.2931.0783.4589.10202 8.3824 1.19746 8.365.97533 18.4062.30591 10.0412-.66941 17.7434-7.03615 17.7434-7.03615-4.0165-4.01648-6.4206-8.83605-8.3618-11.67594-2.4153-3.5333-3.5992-10.21945-4.079-13.76639.001-.0489-.0009-.10394 0-.15288.5757-30.56826-7.4455-94.69929-55.8814-149.49279-40.1121-45.37726-101.4534-69.25371-161.1687-68.52603-26.03508.31727-51.75568 5.35156-75.25625 15.29599l-62.35665-122.97974 2.39638-5.14965c11.51486 1.97526 77.63251 10.60547 95.49795-48.28433 8.58714-28.305772-10.86016-32.580462-10.86016-32.580462s-13.98712 8.46797-34.05906 15.90782c-21.74739 8.06085-40.71122 9.574972-65.26288 7.29109-62.34251-5.79929-94.98809-30.49-94.98809-30.49l-13.00159 24.67753s32.68256 45.633472 87.69699 56.544172c16.35765 3.24415 12.09631 2.39215 16.16276 3.21215l-123.54059 224.03511-104.01272-1.47862-198.67534-202.2096c-10.79383-.71842-19.57725-1.49682-31.78421-2.1448-4.61527-3.46145-5.14965-9.22946-5.14965-20.19071 0-10.96124 11.18938-16.63389 17.84532-25.9522 2.88453-4.03835 7.69365-4.91789 5.20063-16.16276-1.1631-5.24619-10.50405-6.7387-16.72361-11.522972-7.49981-5.76907-12.00789-10.1852-9.22858-20.1907 2.88453-10.38434 15.00982-17.31182 27.12489-23.6578 12.11505-6.34598 12.06654-5.15335 63.98821-17.84532 13.55445-3.31331 22.25652-3.50178 24.83049-.61183 9.86454 11.07547 34.06277 18.4732 46.75474 17.8963 12.69196-.57691 16.16275-8.66861 16.16275-19.62986 0-10.96124-12.11963-23.6284997-23.65779-26.5130397-8.65361-2.1634-19.37186-4.91021-34.11005-4.63979zm345.48539 194.3610317 52.26129 101.71832c-72.71491 43.77824-94.95393 107.8266-101.51437 148.47306l-62.9175-2.03947h-2.03947zm-617.44806 129.608c18.3067 0 35.86611 3.16226 52.21031 8.97365l-48.94717 121.75607c-1.03307-.11281-2.09811-.20394-3.16117-.20394-15.83986 0-28.65448 12.81462-28.65448 28.65448 0 15.83985 12.81462 28.70547 28.65448 28.70547 15.83985 0 28.70547-12.86562 28.70547-28.70547 0-7.15146-2.65602-13.63806-6.98516-18.6611l53.38299-121.19522c49.05694 27.02475 82.3434 79.65008 82.3434 140.16224 0 88.07787-70.53198 159.43518-157.54867 159.43518-87.01671 0-157.54869-71.35731-157.54869-159.43518 0-88.07788 70.53198-159.48618 157.54869-159.48618zm776.52631 3.67104c87.01677 0 157.54877 71.4083 157.54877 159.48617 0 88.07788-70.532 159.43519-157.54877 159.43519-63.90286 0-118.91265-38.48752-143.6293-93.8154l122.41888 8.25984 11.77792-18.61012-142.04875-11.31904c-.73296-2.59206-1.43467-5.2076-2.03946-7.85194l157.80362-11.52297c.81606.0698 1.61318.15288 2.44735.15288 15.83987 0 28.70551-12.86561 28.70551-28.70548 0-15.83986-12.86564-28.65448-28.70551-28.65448-.13847 0-.26975-.001-.40785 0l-59.60341-117.47319c16.64905-6.05902 34.57027-9.38154 53.281-9.38154zm-79.43714 21.72031 51.90438 101.10648-124.81526-4.07893c10.7361-41.25645 37.38719-75.98754 72.91088-97.02755z" stroke="#000" stroke-width="2.715566"/></svg>