<svg height="270" viewBox="0 0 690 270" width="690" xmlns="http://www.w3.org/2000/svg"><path d="m169.792 212.579a52.981 52.981 0 0 1 -105.963.04v-.04a52.981 52.981 0 1 1 105.963-.04z"/><path d="m632.43 212.557a52.981 52.981 0 0 1 -105.963.04v-.04a52.981 52.981 0 0 1 105.963-.04z"/><path d="m683.969 112.851a29.131 29.131 0 0 0 -2.474-7.169l-127.383-101.143h-256.312c-5.934-.365-9.149 2.442-11.971 5.708l-85.67 85.83-187.344 31.123a21.568 21.568 0 0 0 -7.323 10.374l.394 64.452c4.063 10.33 6.83 8.992 9.905 10.431h36.066c0-87.622 130.531-87.287 130.531 0h332.834c0-87.806 129.545-87.627 129.545 0h29.565c4.968-.457 7.753-4.843 10.121-9.98zm-275.117-4.151h-177.578c-6.76-2.666-7.675-6.708-4.862-11.627l63.843-63c1.439-1.223 2.572-2.908 5.074-2.537h113.523zm183.864.011h-162.77v-77.161h95.506c2.5-.371 3.634 1.314 5.074 2.537l54.712 55.1c5.044 7.597 15.18 17.988 7.477 19.524z"/></svg>