<svg height="14" viewBox="0 0 14 14" width="14" xmlns="http://www.w3.org/2000/svg"><path d="m0 0h14v14h-14z" fill="none" visibility="hidden"/><path d="m4 .40625c-1.76724.7793169-3.03125 2.5458523-3.03125 4.59375 0 2.047898 1.26401 3.814433 3.03125 4.59375v-1.15625c-1.19553-.690791-2-1.9493498-2-3.4375s.80447-2.7467086 2-3.4375zm6 0v1.15625c1.19553.6907914 2 1.9493498 2 3.4375s-.80447 2.746709-2 3.4375v1.15625c1.76724-.779317 3.03125-2.545852 3.03125-4.59375 0-2.0478977-1.26401-3.8144331-3.03125-4.59375zm-5 1.78125c-1.157046.4168642-2 1.5158306-2 2.8125s.842954 2.395636 2 2.8125v-1.09375c-.596919-.3447208-1-.9751803-1-1.71875s.403081-1.3740292 1-1.71875zm4 0v1.09375c.596919.3447208 1 .9751803 1 1.71875s-.403081 1.3740292-1 1.71875v1.09375c1.157046-.416864 2-1.5158306 2-2.8125s-.842954-2.3956358-2-2.8125zm-2 1.8125c-.5977925 0-1 .469217-1 1v9h2v-9c0-.496094-.402207-1-1-1z" fill="#666"/></svg>