<svg height="14" viewBox="0 0 14 14" width="14" xmlns="http://www.w3.org/2000/svg"><path d="m7 0-4 3v11h1v-8a3 3 0 0 1 3-3 3 3 0 0 1 3 3v8h1v-11zm-.3574219 4.5c-1.4712325 1.0990112-1.0161948 1.6171551-1.5175781 3.5292969-.0982955.1004467-.625.4224334-.625.7304687v.2402344h5v-.2402344c.0065855-.3080353-.5716269-.6300223-.6699219-.7304687-.4934518-1.8818927-.0685965-2.6863581-1.4726562-3.5292969zm.3574219 5.25a.75.75 0 0 0 -.75.75.75.75 0 0 0 .75.75.75.75 0 0 0 .75-.75.75.75 0 0 0 -.75-.75z" fill="#555" fill-rule="evenodd"/></svg>