<svg height="14" viewBox="0 0 14 14" width="14" xmlns="http://www.w3.org/2000/svg"><path d="m-15 0h14v14h-14z" fill="none" visibility="hidden"/><g fill="#555"><path d="m6 0v3.2714844a2 2 0 0 0 -1 1.7285156 2 2 0 0 0 1 1.7304688v7.2695312h2v-7.2714844a2 2 0 0 0 1-1.7285156 2 2 0 0 0 -1-1.7304688v-3.2695312zm5.005859 0v1.28125c1.1965.7105 1.947266 1.9127594 1.947266 3.4433594s-.750766 2.7523906-1.947266 3.4628906v1.2988281c1.7687-.80156 2.998047-2.6554187 2.998047-4.7617187s-1.229447-3.9231094-2.998047-4.7246094zm-8.005859.00390625c-1.7687.80156-2.99609375 2.63198125-2.99609375 4.73828125s1.22749375 3.9602188 2.99609375 4.7617187v-1.2246093c-1.1965-.7105-1.9648438-2.078675-1.9648438-3.609375 0-1.5306.7682938-2.7250469 1.9648438-3.4355469zm1 1.85546875c-1.158.42876-2 1.5492125-2 2.8828125 0 1.3337.84197 2.4657313 2 2.8945313v-1.1445313c-.5974-.35456-.9277344-1.0204562-.9277344-1.7851563 0-.76479.3303344-1.3408124.9277344-1.6953124zm6.005859.0097656v1.1054688c.5974.35456 1.017578 1.0027781 1.017579 1.7675781 0 .76479-.420159 1.3037031-1.017579 1.6582031v1.125c1.158-.42876 1.964844-1.4495031 1.964844-2.7832031s-.806814-2.4443469-1.964844-2.8730469z"/><path d="m4 14 3-3 3 3z"/></g></svg>