<svg height="14" viewBox="0 0 14 14" width="14" xmlns="http://www.w3.org/2000/svg"><path d="m0 0h14v14h-14z" fill="none" visibility="hidden"/><path d="m7 1c-.5977925 0-1 .4692172-1 1v7l-2.8867188 5h1.1542969l1.7324219-3v3h2v-3l1.7324219 3h1.1542971l-2.886719-5v-7c0-.4960937-.4022075-1-1-1zm-4.2851562.5449219c-.1672661.084188-.2293672.3762768 0 .46875l1.875.75c.3064289.1235421.493322-.3454524.1875-.46875l-1.875-.75c-.07646-.030824-.1317451-.028062-.1875 0zm8.2851562.0507812-1.875.75c-.305822.1232976-.118929.5922921.1875.46875l1.875-.75c.305823-.1232976.118322-.5920476-.1875-.46875zm-8.2539062 1.7304688c-.329742 0-.329742.5 0 .5h2c.330396 0 .3297419-.5 0-.5zm6.4101562.0507812c-.329742 0-.330396.5 0 .5h2c.329741 0 .329741-.5 0-.5zm-4.5664062 1.0742188-1.875.75c-.3058221.1232976-.1189291.5922921.1875.46875l1.875-.75c.305822-.1232976.1183218-.5920476-.1875-.46875zm4.5351562.0507812c-.167266.084187-.229367.3762768 0 .46875l1.875.75c.306429.1235421.493322-.3454524.1875-.46875l-1.875-.75c-.07645-.030824-.131745-.028062-.1875 0z" fill="#555"/></svg>