<svg height="14" viewBox="0 0 14 14" width="14" xmlns="http://www.w3.org/2000/svg"><path d="m4.0507812 0c-2.4717918 2.539636-2.4717918 6.6576312 0 9.1972656 2.4717922 2.5396384 6.4774258 2.5396384 8.9492188 0-.656612-.6762668-.437244-.4487482-.904297-.9296875l.351563-6.375a1 1 0 0 0 .552734-.8925781 1 1 0 0 0 -1-1 1 1 0 0 0 -.896484.55859375l-6.1386722.38085937c-.4514228-.46357277-.274076-.28190072-.9140626-.93945312zm6.7265628 1.5722656-2.6347659 2.6347656c-.3316227-.3398546-1.5041675-1.5487875-2.2617187-2.3261718zm.652344.7617188-.277344 4.9628906c-.802491-.8259803-1.9702613-2.0259445-2.3105471-2.375zm-8.1464849 7.8085936-2.2832031 3.857422h9v-1.771484c-2.2771438.380759-4.9424599-.312484-6.7167969-2.085938z" fill="#555" stroke-width="1.266711"/></svg>