<svg height="16" viewBox="0 0 16 16" width="16" xmlns="http://www.w3.org/2000/svg"><path d="m0 0h16v16h-16z" fill="none" visibility="hidden"/><path d="m2 0v3.5c0 1.4469172.7905512 2.4802716 1.90625 3.125l-.90625 7.375h1.5l.1875-1.46875 2.3125-1.53125 2.3125 1.5625.1875 1.4375h1.5l-.90625-7.34375c1.12446-.6429754 1.90625-1.6934388 1.90625-3.15625v-3.5h-1.5v1.5h-.5c-1.1271186.5-2 .5-3 0s-1.9618644-.5-3 0h-.5v-1.5zm3.34375 7.1875c1.069224.2671613 2.2426846.2935662 3.3125.03125l.1875 1.5625-1.84375 1.21875-1.84375-1.21875zm-.3125 2.5 1.21875.8125-1.4375.96875zm3.9375 0 .21875 1.78125-1.4375-.96875z" fill="#555" transform="translate(1 1)"/></svg>