<svg height="16" viewBox="0 0 16 16" width="16" xmlns="http://www.w3.org/2000/svg"><g transform="translate(0 -1036.3621)"><circle cx="8" cy="1044.3621" fill="#fff" r="7.75"/><path d="m16.000002 1044.3622c0 4.4183-3.581722 8-8.0000007 8-4.4182788 0-8.00000181-3.5817-8.00000181-8s3.58172301-8.0001 8.00000181-8.0001c4.4182787 0 8.0000007 3.5818 8.0000007 8.0001z" fill="#00f"/><g fill="none" stroke="#fff" stroke-width=".5" transform="matrix(1.1965954 0 0 1.1965954 -1.554027 -206.53432)"><ellipse cx="5.342871" cy="1049.2119" rx="1.47913" ry="1.479133"/><ellipse cx="10.625476" cy="1049.1843" rx="1.47913" ry="1.479133"/><g stroke-linecap="round" stroke-linejoin="round"><path d="m10.640625 1049.1434-1.2173079-1.5887h-3.3920677"/><path d="m5.3437495 1049.1434 1.2343749-3.0157h.7500014"/><path d="m6.8721935 1047.567.9305068 1.6117h2.8039017"/><path d="m9.324589 1047.5652v-.8906h.671875"/></g></g><g fill="#fff" transform="matrix(1.1301004 0 0 1.1301004 -.853005 -135.47293)"><path d="m6.7578125 1.7851562c-.3267508-.0024862-.8824037.1456521-.8847656 1.3320313-.0007671.3847991.0554125.7187648.3046875 1.0097656.0644307-.0713093.1959246-.2095377.2636718-.2773437-.2334815-.4727209-.105708-.855249-.0683593-1.2910156l.1464843.0390624v1.1777344c-.825647.778074-.9111776 1.2992116-1.0332031 1.8886719v.0039063l.9414063.0058593.0136718 2.1972657c.0000001.2399202.4140626.24817.4140626 0v-2.1953126h.1914062l.0136719 2.1953126c0 .2399202.4121093.24817.4121093 0v-2.1914063l.9765626.0039063c-.1166337-.6020044-.1479608-1.1332467-1.0332032-1.8984376l-.0039062-1.2226562h.0742187c.2094346.4361057.4739525.8453657.6289063 1.3085938-.0345811.1108628-.1584058.2187663 0 .40625l1.1015625 1.015625-.1152344 2.53125c-.0353157.2867064.333825.3092717.3691406.0253906l.0625-1.1425782h.2675781l.2031248 1.1269532c.044145.2865934.442153.2517637.384766-.0566406l-.208984-1.1835938-.003907-1.2695312.660157.7539062c.187709.2097466.440124-.0572665.253906-.2675781l-.958985-1.1035157-.8554684.0117188s-.3848943-.3102305-.7539062-.6503906c.2268649-.1256672-.1070677-.6890354-.4003906-1.2441406-.2428546-.4594988-.4033485-1.0390626-1.0234376-1.0390626z" fill-rule="evenodd" transform="matrix(.88487729 0 0 .88487729 .754804 1036.93)"/><path d="m7.4395552 1037.8394c.0001087.2804-.2271666.5078-.507558.5078-.2803918 0-.5076642-.2274-.5075584-.5078-.0001087-.2804.2271666-.5078.5075584-.5078.2803914 0 .5076638.2274.507558.5078z"/><path d="m9.7691448 1040.4593c.0000942.2505-.2029354.4536-.4534184.4536-.2504832 0-.4535132-.2031-.4534187-.4536-.0000942-.2504.2029355-.4535.4534187-.4535.250483 0 .4535129.2031.4534184.4535z"/></g></g></svg>