<svg height="16" viewBox="0 0 16 16" width="16" xmlns="http://www.w3.org/2000/svg"><g transform="translate(0 -1036.3621)"><circle cx="8" cy="1044.3621" fill="#fff" r="7.75"/><path d="m16.000002 1044.3622c0 4.4183-3.581722 8-8.0000007 8-4.4182788 0-8.00000181-3.5817-8.00000181-8s3.58172301-8.0001 8.00000181-8.0001c4.4182787 0 8.0000007 3.5818 8.0000007 8.0001z" fill="#00f"/><g fill="none" stroke="#fff" stroke-width=".5" transform="matrix(1.6304228 0 0 1.6304228 -5.017577 -664.98842)"><ellipse cx="5.342871" cy="1049.2119" rx="1.47913" ry="1.479133"/><ellipse cx="10.625476" cy="1049.1843" rx="1.47913" ry="1.479133"/><g stroke-linecap="round" stroke-linejoin="round"><path d="m10.640625 1049.1434-1.2173079-1.5887h-3.3920677"/><path d="m5.3437495 1049.1434 1.2343749-3.0157h.7500014"/><path d="m6.8721935 1047.567.9305068 1.6117h2.8039017"/><path d="m9.324589 1047.5652v-.8906h.671875"/></g></g></g></svg>