<svg height="16" viewBox="0 0 16 16" width="16" xmlns="http://www.w3.org/2000/svg"><g transform="translate(0 -1036.3621)"><path d="m7.9997952 1052.3625c4.4172818 0 8.0002068-3.5825 8.0002068-8.0002 0-4.4173-3.582925-7.9998-8.0002068-7.9998-4.4172709 0-7.99979588 3.5825-7.99979588 7.9998 0 4.4177 3.58252498 8.0002 7.99979588 8.0002" fill="#00f"/><path d="m6.7191961 1042.3192.9066367-.4749.1296414.6192-.460794.2734s-.1146901 0-.5754841-.4177" fill="#00f"/><g fill="#fff" transform="matrix(1.0578344 0 0 1.0903479 -.457394 -94.305852)"><path d="m12.431647 1046.894.287942 1.3529c.02866.1001.02866.2156.02866.302 0 .4027-.359833.7626-.777006.7626h-.345282l.403033-.7484-.345693-1.5535-1.136428-1.1369.215662.8053c.02866.058.07186.2451-.0864.3743l-1.2087191.9927.05774.2738c.028659.2011-.071859.5463-.5609436.6902l-.2160515-1.0072c-.029081-.1293-.0432-.2589.1296309-.4026l1.1077473-.9067-.4026323-1.1078c-.5613441 0-1.2519292.3453-2.2595269.3453h-.4599721l.8198051 2.1441c.1009399.2588.1296309.4026.1296309.5609 0 .3598-.345282.6765-.6328239.6765h-.4175731l.3598224-.6765-.9353065-2.4457h-1.6981723v1.2083l.187382.1728c.215651.2016.287541.5037.07186.8199l-.690575-.4746c-.201522-.1296-.273402-.2442-.273402-.4749v-1.4966c0-.1866.100519-.4459.532263-.4891l.963987-.1151s-.287541-.3166-.388502-.7484c-.08598-.4312-.100519-1.0213-.100519-1.0213l-.460383-1.3238-.590014.676v.073c0 .1297-.0864.4749-.489063.4749-.302072 0-.504005-.317-.446254-.5472l.489464-2.3306-.316612-.4462c.129631-.015.517733.028.690574.3166.07186-.015.316623-.043.474523-.043.359823 0 1.093618.1296 1.626292.691.373963.388.6186949.762.6186949.762l1.1222877-.5896-.1583113-.7338c-.0864-.403.1583113-.7051.4749235-.777.3452925-.086.6619047.2015.719255.4317l.4317132 2.0285c.057319.288.071859.5469-.244732.8062 0 0 .9066367-.2016 1.3815597-.2016.489054 0 1.136418.1151 1.654963.561h.22978c.561355 0 1.021738.4026 1.021738 1.1654v1.8561c-.201521 0-.690574-.2589-.690574-1.0504 0-.4171.07186-.4171.07186-.9494 0-.5182-.244732-.5901-.431713-.5901h-.144172v2.0003l.504004.7479c.0432.072.07186.2015.100519.3166"/><path d="m7.6831831 1038.3046c.3452925 0 .6332348.288.6332348.6623 0 .3594-.2879423.6619-.6332348.6619-.3739625 0-.6619047-.3025-.6619047-.6619 0-.3743.2879422-.6623.6619047-.6623"/></g></g></svg>