<svg height="16" viewBox="0 0 16 16" width="16" xmlns="http://www.w3.org/2000/svg"><g transform="translate(0 -1036.3621)"><circle cx="8" cy="1044.3621" fill="#fff" r="7.75"/><path d="m16.000002 1044.3622c0 4.4183-3.581722 8-8.0000007 8-4.4182788 0-8.00000181-3.5817-8.00000181-8s3.58172301-8.0001 8.00000181-8.0001c4.4182787 0 8.0000007 3.5818 8.0000007 8.0001z" fill="#00f"/><g fill="#fff" transform="matrix(2.0369074 0 0 2.0369074 -8.04908 -1075.6128)"><path d="m5.6679688 3.3730469c-.5889399-.0044812-1.591446.2639987-1.5957032 2.4023437-.0013826.6935669.1034379 1.295809.5527344 1.8203125.0167898-.0185823.0473236-.0493756.0683594-.0722656.0647105-.0727511.140612-.1492922.2128906-.2246094.0710887-.0748974.1418741-.1535498.1914062-.203125-.42083-.8520382-.1903646-1.5426936-.1230468-2.328125l.2636718.0703125v2.1230469c-.1241346.1169821-.2256551.2270426-.3320312.3378906-.0788245.0830477-.1474478.153398-.2128906.2246094-.9817852 1.1037775-1.1272779 1.9262343-1.3164063 2.8398435v.007813l1.6972657.007812.0253906 3.964844c0 .432435.7441406.447305.7441406 0v-3.960938l.34375.001954.0253906 3.958984c0 .432435.7441406.447305.7441406 0v-3.955078l1.7617188.009766c-.210222-1.0850609-.2657559-2.0407326-1.8613281-3.4199224l-.0097657-2.203125h.1347657c.3774875.7860425.8515686 1.5224937 1.1308593 2.3574219-.0623293.1998206-.2855126.394499 0 .7324219l1.9882808 1.8320312-.2089839 4.5605464c-.0636535.516764.6004089.558547.6640629.046876l.115234-2.060547h.482422l.365234 2.029297c.079567.516559.794843.454309.691407-.101563l-.373047-2.130859-.009766-2.2890629 1.189453 1.3574219c.33833.37805.796579-.103353.460938-.482422l-1.728516-1.9882811-1.544922.0214843s-.6923099-.5607191-1.3574218-1.1738281c.4089042-.226504-.1920141-1.2377525-.7207031-2.2382812-.4377242-.8282064-.7280467-1.875-1.8457031-1.875z" fill-rule="evenodd" transform="matrix(.49094042 0 0 .49094042 3.951618 1036.8537)"/><path d="m7.4395552 1037.8394c.0001087.2804-.2271666.5078-.507558.5078-.2803918 0-.5076642-.2274-.5075584-.5078-.0001087-.2804.2271666-.5078.5075584-.5078.2803914 0 .5076638.2274.507558.5078z"/><path d="m9.7691448 1040.4593c.0000942.2505-.2029354.4536-.4534184.4536-.2504832 0-.4535132-.2031-.4534187-.4536-.0000942-.2504.2029355-.4535.4534187-.4535.250483 0 .4535129.2031.4534184.4535z"/></g></g></svg>