<svg height="16" viewBox="0 0 16 16" width="16" xmlns="http://www.w3.org/2000/svg"><path d="m.00004401 1048.734c1.99334359-.1914 10.33520899-1.7708 13.82950599-4.2285-3.270239-1.7867-7.8460909-1.3191-11.158955-2.3481-.732418-.2338-1.92431899-1.0063-.791149-1.7567 2.2628503-1.0859 6.120555-1.0386 7.2723277-1.7347 1.4084223-.8512-2.4742121-1.9985-3.7795367-2.3039.8291485.1288 5.650922.7645 4.815971 2.2113-.8503911 1.4735-4.9613089 1.7863-6.992489 2.388 3.9192208.3495 14.684712.046 12.527055 4.5682-1.505951 3.1563-10.9486225 6.4727-15.71927399 6.8325z" fill="#c87137" transform="translate(0 -1036.3621)"/></svg>