<svg height="16" viewBox="0 0 16 16" width="16" xmlns="http://www.w3.org/2000/svg"><g transform="translate(0 -1036.3621)"><circle cx="8" cy="1044.3621" fill="#fff" r="7.75"/><path d="m16.000002 1044.3622c0 4.4183-3.581722 8-8.0000007 8-4.4182788 0-8.00000181-3.5817-8.00000181-8s3.58172301-8.0001 8.00000181-8.0001c4.4182787 0 8.0000007 3.5818 8.0000007 8.0001z" fill="#00f"/><g fill="none" stroke="#fff" stroke-width=".5" transform="matrix(.8390792 0 0 .8390792 5.370203 164.66361)"><ellipse cx="5.342871" cy="1049.2119" rx="1.47913" ry="1.479133"/><ellipse cx="10.625476" cy="1049.1843" rx="1.47913" ry="1.479133"/><g stroke-linecap="round" stroke-linejoin="round"><path d="m10.640625 1049.1434-1.2173079-1.5887h-3.3920677"/><path d="m5.3437495 1049.1434 1.2343749-3.0157h.7500014"/><path d="m6.8721935 1047.567.9305068 1.6117h2.8039017"/><path d="m9.324589 1047.5652v-.8906h.671875"/></g></g><g fill="#fff"><g transform="matrix(1.2697888 0 0 1.2697888 -6.314012 -277.37088)"><path d="m2.2363281 4.9550781c-.3671395-.0027935-.9914867.1650229-.9941406 1.4980469-.0008619.432363.0636628.8077951.34375 1.1347656.0723948-.0801236.2188006-.2363127.2949219-.3125-.2623415-.5311525-.1181371-.9615414-.0761719-1.4511718l.1640625.0429687v1.3242187c-.9277028.8742495-1.02304753 1.4587721-1.16015625 2.1210938v.0039062l1.05859375.0058594.015625 2.4707034c0 .269576.4628906.278845.4628906 0v-2.4687502l.2167969.0019531.0136719 2.4667971c0 .269576.4648437.278845.4648437 0v-2.464844l1.0976563.0058594c-.1310505-.6764164-.1654916-1.2730387-1.1601563-2.1328125l-.0058594-1.3730469h.0839844c.2353222.4900114.530971.9502168.7050782 1.4707031-.0388556.1245663-.1779859.2463734 0 .4570313l1.2402343 1.140625-.1308593 2.8437496c-.0396811.322146.3743816.348268.4140624.029297l.0703126-1.283203h.3027343l.2265625 1.263672c.0496011.322018.4961218.284025.4316406-.0625l-.2324218-1.328125-.0058594-1.4277344.7402344.8457032c.2109119.2356732.4963451-.0644736.2871094-.3007813l-1.0761719-1.2382813-.9648438.0117188s-.4310787-.3482624-.8457031-.7304688c.254907-.1412004-.119639-.7727642-.4492188-1.3964843-.2728731-.5162961-.4536542-1.1679688-1.1503906-1.1679688z" fill-rule="evenodd" transform="matrix(.78753268 0 0 .78753268 4.97249 1034.6075)"/><path d="m7.4395552 1037.8394c.0001087.2804-.2271666.5078-.507558.5078-.2803918 0-.5076642-.2274-.5075584-.5078-.0001087-.2804.2271666-.5078.5075584-.5078.2803914 0 .5076638.2274.507558.5078z"/><path d="m9.7691448 1040.4593c.0000942.2505-.2029354.4536-.4534184.4536-.2504832 0-.4535132-.2031-.4534187-.4536-.0000942-.2504.2029355-.4535.4534187-.4535.250483 0 .4535129.2031.4534184.4535z"/></g><rect height=".6875" ry=".34375" transform="rotate(-90)" width="14.46875" x="-1051.5964" y="7.43528"/></g></g></svg>