<svg height="16" viewBox="0 0 16 16" width="16" xmlns="http://www.w3.org/2000/svg"><g transform="translate(0 -1036.3621)"><g stroke="#fff"><path d="m10.134575 1039.558 2.104004 2.0626c.45853.4108-.149351.9707-.520359.5993l-1.583645-1.5852s-.0048 4.9292-.0094 6.8612c-.0014.5918-.8840495.631-.8840495-.019 0-.5897.00187-3.9202.00187-3.9202l-.3133288 1.3193-1.0985332 1.0692c-.4826779.4809-1.1167814-.1368-.5744453-.6295l.9008346-.8906.2704369-1.6971-.00746-1.4734-.8057155 1.3436c-.3019068.504-.9434561.047-.6248024-.4678l1.6897644-2.7324c.1234001-.1934.1749921-.2151.6646964-.2219.4897044-.01.5142236.1051.7901324.3819z" fill="none" stroke-width="1.5"/><path d="m-.00000048 1044.8646h3.50088318v2h4v2h3.9999993v2h3.99912v1.4975" fill="none"/><ellipse cx="9.390536" cy="1037.8567" fill="#0031ff" rx="1.111157" ry="1.119564" stroke-linecap="round" stroke-linejoin="round" stroke-opacity=".988235" stroke-width=".75"/></g><path d="m10.134575 1039.558 2.104004 2.0626c.45853.4108-.132466.953-.520359.5993l-1.583645-1.5852s-.0048 4.9292-.0094 6.8612c-.0014.5918-.8840495.631-.8840495-.019 0-.5897.00187-3.9202.00187-3.9202l-.3133288 1.3193-1.0985332 1.0692c-.4826779.4809-1.1167814-.1368-.5744453-.6295l.9008346-.8906.2704369-1.6971-.00746-1.4734-.8057155 1.3436c-.3019068.504-.9434561.047-.6248024-.4678l1.6897644-2.7324c.1234001-.1934.1515267-.2152.6529638-.222.501437-.01.5259562.1052.801865.382z" fill="#0031ff" fill-rule="evenodd"/><path d="m-.00000048 1045.8621h2.50147648v2h4.0000001v2h4.0000009v2h4.498525" fill="none" stroke="#333"/></g></svg>