<svg height="16" viewBox="0 0 16 16" width="16" xmlns="http://www.w3.org/2000/svg"><g transform="translate(0 -1036.3621)"><path d="m147.89999 370.10001h6.5v14.1h-6.5z" fill="#fff" transform="matrix(1.3846064 0 0 1.1346381 -204.78322 616.43092)"/><path d="m9.0000011 1052.3621h-1.0000029v-16h1.0000029z" fill="#808080"/><path d="m5.0000006 1039.3621h-1.000003v-2h1.000003z" fill="#808080"/><path d="m5.0000036 1043.3621h-1.0000031v-2h1.0000031z" fill="#808080"/><path d="m5.0000037 1047.3621h-1.0000032v-2h1.0000032z" fill="#808080"/><path d="m5.0000006 1051.3621h-1.0000032v-2h1.0000032z" fill="#808080"/><g transform="matrix(.9348333 .35508688 -.35508688 .9348333 0 0)"><path d="m379.53418 964.44409h1.955075v1.955075h-1.955075z" fill="#ff0"/><path d="m381.49033 964.43304h1.955075v1.955075h-1.955075z"/><path d="m379.53415 966.39923h1.955075v1.955075h-1.955075z"/><path d="m381.49026 966.38818h1.955075v1.955075h-1.955075z" fill="#ff0"/><path d="m379.53409 968.35437h1.955075v1.955075h-1.955075z" fill="#ff0"/><path d="m381.49023 968.34326h1.955075v1.955075h-1.955075z"/><path d="m379.53406 970.30945h1.955075v1.955075h-1.955075z"/><path d="m381.4902 970.2984h1.955075v1.955075h-1.955075z" fill="#ff0"/><path d="m379.53403 972.26459h1.955075v1.955075h-1.955075z" fill="#ff0"/><path d="m381.49014 972.25354h1.955075v1.955075h-1.955075z"/><path d="m379.53397 974.21973h1.955075v1.955075h-1.955075z"/><path d="m381.49011 974.20862h1.955075v1.955075h-1.955075z" fill="#ff0"/><path d="m379.53394 976.17487h1.955075v1.955075h-1.955075z" fill="#ff0"/><path d="m381.49008 976.16376h1.955075v1.955075h-1.955075z"/><path d="m379.53387 978.12994h1.955075v1.955075h-1.955075z"/><path d="m381.49002 978.1189h1.955075v1.955075h-1.955075z" fill="#ff0"/></g><path d="m1.0000025 1052.3621h-1.00000298v-16h1.00000298z" fill="#808080"/></g></svg>