<svg height="16" viewBox="0 0 16 16" width="16" xmlns="http://www.w3.org/2000/svg"><g transform="translate(0 -1036.3621)"><path d="m147.89999 370.10001h6.5v14.1h-6.5z" fill="#fff" transform="matrix(1.3846064 0 0 1.1346381 -204.78322 616.43253)"/><g fill="#808080"><path d="m9.0000011 1052.3621h-1.0000035v-16h1.0000035z"/><path d="m5.0000014 1039.3637h-1.0000035v-2h1.0000035z"/><path d="m5.0000044 1043.3637h-1.0000036v-2h1.0000036z"/><path d="m.9999997 1052.3621h-1.0000035v-16h1.0000035z"/></g><circle cx="12.500001" cy="1048.8621" fill="#fff" r="2.500002"/><g transform="translate(-.5 -.499998)"><path d="m6.9355488 1043.6628c-.1797699 0-.2077347.1051-.28125.2325l-1.4140625 2.7109c-.3603853-.1453-.7545796-.2266-1.1699219-.2266-1.6356291 0-3.0703125 1.3415-3.0703124 2.9903-.0000001 1.7176 1.4480151 2.9922 3.0703124 2.9922 1.6922901 0 3.0722657-1.2871 3.0722657-2.9922 0-1.0437-.5602465-1.97-1.40625-2.5059l.4121093-.789 2.3985754 3.4113c.041154.058.1426096.159.2713465.159h1.1445309c.1440218 1.5615 1.4483258 2.7129 3.0449218 2.7129 1.62233 0 2.992188-1.2871 2.992188-2.9922 0-1.6356-1.356525-2.9902-2.992188-2.9902-1.605647 0-2.896292 1.2048-3.0429688 2.7109h-.8144526l.9570314-3.2754.582031.01c.519111 0 .51987-.7168.0078-.7168l-1.7675773-.016c-.4595687 0-.4826045.7141.029297.7168l.5664055.01-.839843 2.875-2.2480467-3.166.6757927-1.2951h1.0273438c.3707027 0 .3707027-.5569 0-.5585zm-2.8652344 3.4336c.2975593 0 .5767812.058.8359376.1524l-1.0820313 2.0723c-.2068299.3397.3337774.6218.4941406.2578l1.0878907-2.084c.6200081.4131 1.0175781 1.1055 1.0175781 1.875 0 1.3272-1.0138888 2.2754-2.3535157 2.2754-1.2500412 0-2.3535156-.9608-2.3535156-2.2754 0-1.2233 1.1168062-2.2735 2.3535156-2.2735zm8.9374996 0c1.236699 0 2.273438 1.0369 2.273438 2.2735 0 1.3272-1.023405 2.2754-2.273438 2.2754-1.241846 0-2.192412-.8198-2.326172-1.9961h2.404297c.370762 0 .370762-.557 0-.5586h-2.402344c.142041-1.1083 1.099524-1.9942 2.324219-1.9942z" fill="#fff" stroke="#fff" stroke-linecap="round" stroke-linejoin="round"/><path d="m6.9355488 1043.6628c-.1797699 0-.2077347.1051-.28125.2325l-1.4140625 2.7109c-.3603853-.1453-.7545796-.2266-1.1699219-.2266-1.6356291 0-3.0703125 1.3415-3.0703124 2.9903-.0000001 1.7176 1.4480151 2.9922 3.0703124 2.9922 1.6922901 0 3.0722657-1.2871 3.0722657-2.9922 0-1.0437-.5602465-1.97-1.40625-2.5059l.4121093-.789 2.3985754 3.4113c.041154.058.1426096.159.2713465.159h1.1445309c.1440218 1.5615 1.4483258 2.7129 3.0449218 2.7129 1.62233 0 2.992188-1.2871 2.992188-2.9922 0-1.6356-1.356525-2.9902-2.992188-2.9902-1.605647 0-2.896292 1.2048-3.0429688 2.7109h-.8144526l.9570314-3.2754.582031.01c.519111 0 .51987-.7168.0078-.7168l-1.7675773-.016c-.4595687 0-.4826045.7141.029297.7168l.5664055.01-.839843 2.875-2.2480467-3.166.6757927-1.2951h1.0273438c.3707027 0 .3707027-.5569 0-.5585zm-2.8652344 3.4336c.2975593 0 .5767812.058.8359376.1524l-1.0820313 2.0723c-.2068299.3397.3337774.6218.4941406.2578l1.0878907-2.084c.6200081.4131 1.0175781 1.1055 1.0175781 1.875 0 1.3272-1.0138888 2.2754-2.3535157 2.2754-1.2500412 0-2.3535156-.9608-2.3535156-2.2754 0-1.2233 1.1168062-2.2735 2.3535156-2.2735zm8.9374996 0c1.236699 0 2.273438 1.0369 2.273438 2.2735 0 1.3272-1.023405 2.2754-2.273438 2.2754-1.241846 0-2.192412-.8198-2.326172-1.9961h2.404297c.370762 0 .370762-.557 0-.5586h-2.402344c.142041-1.1083 1.099524-1.9942 2.324219-1.9942z" fill="#00f"/></g></g></svg>