<svg height="16" viewBox="0 0 16 16" width="16" xmlns="http://www.w3.org/2000/svg"><g transform="translate(0 -1036.3621)"><path d="m-.00000048 1052.3621h7.00000128v-16h-7.00000128v16z" fill="#00f"/><path d="m7.9999995 1036.3621v16h7.0000005v-3h1v-9h-1v-4z" fill="#00f"/><g fill="#fff"><path d="m4.0000027 1039.3621h-1.000003v-2h1.000003z"/><path d="m4.0000057 1043.3621h-1.000003v-2h1.000003z"/><path d="m4.0000033 1047.3621h-1.0000032v-2h1.0000032z"/><path d="m4.0000033 1051.3621h-1.0000032v-2h1.0000032z"/><path d="m11.999999 1039.3621h-1.000003v-2h1.000003z"/><path d="m12.000002 1043.3621h-1.000003v-2h1.000003z"/><path d="m11.999999 1047.3621h-1.000003v-2h1.000003z"/><path d="m11.999999 1051.3621h-1.000003v-2h1.000003z"/><path d="m12.000002 1045.3621v-1h2v1z"/><path d="m15.000002 1045.3621v-1h1v1z"/></g></g></svg>