<svg height="16" viewBox="0 0 16 16" width="16" xmlns="http://www.w3.org/2000/svg"><g transform="translate(0 -1036.3621)"><path d="m147.89999 370.10001h6.5v14.1h-6.5z" fill="#ffda00" transform="matrix(1.3846064 0 0 1.1346381 -204.78322 616.43092)"/><g fill="#808080"><path d="m9.0000011 1052.3621h-1.0000032v-16h1.0000032z"/><path d="m5.0000006 1039.3621h-1.000003v-2h1.000003z"/><path d="m5.0000036 1043.3621h-1.0000031v-2h1.0000031z"/><path d="m5.0000037 1047.3621h-1.0000032v-2h1.0000032z"/><path d="m5.0000006 1051.3621h-1.0000032v-2h1.0000032z"/><path d="m1.0000026 1052.3621h-1.00000308v-16h1.00000308z"/></g><path d="m10.720476 1041.2659-1.5781251 1.961c-.1548457.1404-.1806967.3677-.076172.5488.517885.897 1.5410151 2.5351 1.5410151 2.5351l-3.1191411 3.0567c-.2574782-.3929-.552496-.7643-1.1269521-.7559-.462131.01-.7366883.1639-1.2636719.7227 0 0-1.3733516.079-1.3965222 1.3725-.016223.9059-.7386567-.055-1.1659778 1.1548h8.0976571c-1.2813647-.5416-1.0600741-1.6258-2.0683602-1.5898-.4108704.016-.647114-.2616-.8671875-.5918 1.2784057-1.2784 4.1347657-4.0508 4.1347657-4.0508l-1.433593 2.4512 1.529297 3.3691c.371179.8309 1.616701.2662 1.236328-.5605l-1.238282-2.7305 1.482422-2.4589.06641 2.5019.679687 3.1132c.18125.9018 1.536659.6064 1.326172-.289l-.652344-2.9903-.07617-2.541c-.0024-.1721-.07014-.3368-.189453-.4609l-.990239-1.1094.210937-.207c.288052.3533.929142.03.716797-.4531l-.07617-.1739.253907-.25c.18391-.1839-.0622-.4549-.257817-.2636l-.156248.1523-.751953-1.7012-2.097164-.016c-.482794.0008-.621584.1608-.693852.2545zm1.017578.6055 1.207032.014.658203 1.4902-.277344.2734zm-1.5 2.1719 1.611329 1.0527-.613282.5996z" fill="none" stroke="#fff" stroke-linecap="round" stroke-linejoin="round"/><path d="m11.09743 1041.0022c-.165896.01-.304686.17-.376954.2637l-1.5781251 1.961c-.1548457.1404-.1847852.3701-.076172.5488l1.5410151 2.5351-3.1191411 3.0567c-.2574782-.3929-.552496-.7643-1.1269521-.7559-.462131.01-.7366883.1639-1.2636719.7227 0 0-1.3733516.079-1.3965222 1.3725-.016223.9059-.7386567-.055-1.1659778 1.1548h8.0976571c-1.2813647-.5416-1.0600741-1.6258-2.0683602-1.5898-.4108704.016-.647114-.2616-.8671875-.5918 1.2784057-1.2784 4.1347657-4.0508 4.1347657-4.0508l-1.433593 2.4512 1.529297 3.3691c.371179.8309 1.616701.2662 1.236328-.5605l-1.238282-2.7305 1.482422-2.4589.06641 2.5019.679687 3.1132c.18125.9018 1.536659.6064 1.326172-.289l-.652344-2.9903-.07617-2.541c-.0024-.1721-.07014-.3368-.189453-.4609l-.990239-1.1094.210937-.207c.288052.3533.929142.03.716797-.4531l-.07617-.1739.253907-.25c.18391-.1839-.0622-.4549-.257817-.2636l-.156248.1523-.751953-1.7012zm.640624.8692 1.207032.014.658203 1.4902-.277344.2734zm-1.5 2.1719 1.611329 1.0527-.613282.5996z" fill-rule="evenodd"/><circle cx="8.480244" cy="1040.3616" r="1.5" stroke="#fff" stroke-linecap="round" stroke-linejoin="round" stroke-width=".5"/></g></svg>