<svg height="16" viewBox="0 0 16 16" width="16" xmlns="http://www.w3.org/2000/svg"><g transform="translate(0 -1036.3621)"><path d="m147.89999 370.10001h6.5v14.1h-6.5zm-2.89006 32.22848v-18.12846h11.55447v18.12846z" fill="#00f" transform="matrix(0 1.3846064 -.49645373 0 199.73753 835.57882)"/><g fill="#fff"><path d="m5.0000006 1039.3621h-1.000003v-2h1.000003z"/><path d="m5.0000036 1043.3621h-1.0000031v-2h1.0000031z"/><path d="m5.0000037 1047.3621h-1.0000032v-2h1.0000032z"/><path d="m5.0000006 1051.3621h-1.0000032v-2h1.0000032z"/><path d="m13.000002 1045.3621v-1h2v1z"/><path d="m9.0000011 1045.3621v-1h1.9999999v1z"/><path d="m5.0000004 1045.3621v-1h2.0000009v1z"/></g><path d="m147.89999 370.10001h6.5v14.1h-6.5zm-2.89006 32.22848v-18.12846h11.55447v18.12846z" fill="#00f" transform="matrix(0 1.3846064 -.49645373 0 199.73753 835.57882)"/><path d="m5.0000048 1039.3623h-1.0000032v-2h1.0000032z" fill="#fff"/><path d="m5.0000078 1043.3623h-1.0000033v-2h1.0000033z" fill="#fff"/><path d="m5.0000079 1047.3623h-1.0000034v-2h1.0000034z" fill="#fff"/><path d="m5.0000048 1051.3623h-1.0000034v-2h1.0000034z" fill="#fff"/><path d="m13.000008 1045.3623v-1h2v1z" fill="#fff"/><path d="m9.000006 1045.3623v-1h2v1z" fill="#fff"/><path d="m5.0000046 1045.3623v-1h2.0000013v1z" fill="#fff"/></g></svg>