<svg height="16" viewBox="0 0 16 16" width="16" xmlns="http://www.w3.org/2000/svg"><g transform="translate(0 -1036.3621)"><path d="m147.89999 370.10001h6.5v14.1h-6.5z" fill="#fff" transform="matrix(1.3846064 0 0 1.1346381 -204.78328 616.43253)"/><g fill="#808080"><path d="m4.9999404 1039.3637h-1.000003v-2h1.000003z"/><path d="m4.9999434 1043.3637h-1.000003v-2h1.000003z"/><path d="m4.9999434 1047.3637h-1.000003v-2h1.000003z"/><path d="m4.9999404 1051.3637h-1.000004v-2h1.000004z"/><path d="m1.0000025 1052.3605h-1.00000298v-15.9984h1.00000298z"/><path d="m9.0000011 1052.3605h-1.0000029v-15.9984h1.0000029z"/></g><path d="m8.9658564 1040.0181c-.7445917 0-1.3435512.5365-1.3435512 1.2025v4.5869c-.011891.7514 1.2544814.7514 1.2425902 0v-3.7485h.6403454v9.1285c-.01528.9661 1.6128972.9661 1.5976172 0v-5.3819h.790862v5.3819c0 .966 1.612758.9659 1.597619 0v-9.1285h.705526v3.7485c-.01195.7514 1.254538.7514 1.242589 0v-3.8636-.7235c0-.6658-.60007-1.2024-1.344661-1.2024h-5.1289366z" fill="none" stroke="#fff" stroke-linecap="round" stroke-linejoin="round" stroke-width=".9"/><ellipse cx="11.53088" cy="1038.2709" fill="#0031ff" rx="1.658808" ry="1.658786" stroke="#fff" stroke-linecap="round" stroke-linejoin="round" stroke-width=".5"/><path d="m8.9658564 1040.0181c-.7445917 0-1.3435512.5365-1.3435512 1.2025v4.5869c-.011891.7514 1.2544814.7514 1.2425902 0v-3.7485h.6403454v9.1285c-.01528.9661 1.6128972.9661 1.5976172 0v-5.3819h.790862v5.3819c0 .966 1.612758.9659 1.597619 0v-9.1285h.705526v3.7485c-.01195.7514 1.254538.7514 1.242589 0v-4.5871c0-.6658-.60007-1.2024-1.344661-1.2024h-5.1289366z" fill="#0031ff"/></g></svg>