<svg height="16" viewBox="0 0 16 16" width="16" xmlns="http://www.w3.org/2000/svg"><g transform="translate(0 -1036.3621)"><path d="m0 1036.3621h9.000002v16.000042h-9.000002z" fill="#fff"/><g fill="#808080"><path d="m8.000001 1036.3621h1v16.000042h-1z"/><path d="m4.9999557 1039.3655h-1.000003v-2h1.000003z"/><path d="m4.9999587 1043.3655h-1.000004v-2h1.000004z"/><path d="m4.9999587 1047.3655h-1.000004v-2h1.000004z"/></g><path d="m7.3492603 1049.6462c0-.9478-.7682665-1.7164-1.7161141-1.7164-.947775 0-1.7161169.7686-1.7161169 1.7164s.7683419 1.7159 1.7161169 1.7159c.9478476 0 1.7161141-.7681 1.7161141-1.7159" fill="#0031ff"/><path d="m10.140966 1046.7542-.9944619-1.8507-1.1156893 2.2312c-.138165.2764-.4743006.3906-.7507955.2513-.2764418-.1396-.3884647-.474-.2501991-.7507l1.5057313-3.0115c.303321-.6064.923453-.9897 1.6018125-.9897h1.997355c.329737 0 .63265.1787.788747.4713l1.156119 2.1521c.09721.1759.09224.3906-.01312.5631-.105417.1703-.294717.2764-.495912.2681-.201287 0-.383325-.1229-.476788-.2988l-1.052813-1.9595h-.677681l2.162397 4.0463 1.228131.022c.412041.01.746203.3347.746203.7462 0 .4121-.334121.7519-.746203.7462l-1.585043-.022c-.329624 0-.632656-.1786-.788822-.4718l-.843783-1.5923-2.0731756 4.1461c-.1843969.3705-.6325023.5179-1.0010868.3347-.3686626-.1842-.5179724-.6323-.3336765-1.0036z" fill="#0031ff" stroke="#fff"/><path d="m10.140966 1046.7542-.9944619-1.8507-1.1156893 2.2312c-.138165.2764-.4743006.3906-.7507955.2513-.2764418-.1396-.3884647-.474-.2501991-.7507l1.5057313-3.0115c.303321-.6064.923453-.9897 1.6018125-.9897h1.997355c.329737 0 .63265.1787.788747.4713l1.156119 2.1521c.09721.1759.09224.3906-.01312.5631-.105417.1703-.294717.2764-.495912.2681-.201287 0-.383325-.1229-.476788-.2988l-1.052813-1.9595h-.677681l2.162397 4.0463 1.228131.022c.412041.01.746203.3347.746203.7462 0 .4121-.334121.7519-.746203.7462l-1.585043-.022c-.329624 0-.632656-.1786-.788822-.4718l-.843783-1.5923-2.0731756 4.1461c-.1843969.3705-.6325023.5179-1.0010868.3347-.3686626-.1842-.5179724-.6323-.3336765-1.0036z" fill="#0031ff"/><path d="m10.01789 1040.8625c0-.917-.7435855-1.661-1.6606726-1.661-.9172669 0-1.6608557.744-1.6608557 1.661s.7435888 1.6607 1.6608557 1.6607c.9170871 0 1.6606726-.7437 1.6606726-1.6607" fill="#0031ff" stroke="#fff" stroke-width=".5"/><path d="m0 1036.3621h1v16.000042h-1z" fill="#808080"/></g></svg>