<svg height="16" viewBox="0 0 16 16" width="16" xmlns="http://www.w3.org/2000/svg"><g transform="translate(0 -1036.3621)"><path d="m147.89999 370.10001h6.5v14.1h-6.5z" fill="#fff" transform="matrix(1.3846064 0 0 1.1346381 -204.78324 616.43072)"/><path d="m9.000005 1052.3621h-1.000004v-16h1.000004z" fill="#808080"/><path d="m11.736234 1039.8188c-.77002.017-1.567111.7072-1.489779 2.2195l-1.7457337-.017c-.032221-2.2242 1.025931-3.0492 1.5484917-3.2969.49942-.2368 1.133572-.3622 1.751006-.3622.738027 0 1.340991.094 1.80889.2787.4679.1843.848973.4225 1.133571.7101.284599.2877.482371.6113.593316.9664.110946.3551.164006.6967.164006 1.0203 0 .409-.082.7731-.250832 1.0922-.16883.3191-.37625.6158-.622259.8944-.246009.2787-.516136.5394-.815206.7956-.29907.2517-.569197.5124-.815207.7821-.246009.2697-.453428.5663-.622258.8854-.168829.3191-.250833.6742-.250833 1.0743v.1977c0 .072.0048.1394.0193.1978h-1.504996c-.05306-.2382-.07718-.4944-.07718-.7596 0-.3866.07236-.7326.221891-1.0473.149535-.3146.337659-.6068.569197-.8764.231538-.2697.477547-.5214.733204-.7596.255656-.2338.501665-.472.738027-.7102.231538-.2382.424486-.4944.569197-.7596.149535-.2652.221891-.5528.221891-.8675 0-.5079-.173654-.9169-.52096-1.236-.342484-.3101-.686455-.4366-1.356739-.4221zm1.052845 10.3643c0 .3236-.115769.6068-.347307.845s-.549902.3596-.95027.3596-.718732-.1214-.95027-.3596-.347307-.5214-.347307-.845.115769-.6068.347307-.8495c.231538-.2382.549902-.3595.95027-.3595s.713909.1213.95027.3595c.231538.2383.347307.5214.347307.8495z" fill="none" stroke="#fff"/><path d="m266.77352 295.60834c-15.96324.36944-32.48768 15.73538-30.88452 49.38093l-36.19071-.38025c-.66798-49.48507 21.26851-67.83931 32.10171-73.35169 10.35344-5.26826 23.5-8.05733 36.3-8.05733 15.3 0 27.8 2.1 37.5 6.2s17.6 9.4 23.5 15.8 10 13.6 12.3 21.5 3.4 15.5 3.4 22.7c0 9.1-1.7 17.2-5.2 24.3s-7.8 13.7-12.9 19.9-10.7 12-16.9 17.7c-6.2 5.6-11.8 11.4-16.9 17.4s-9.4 12.6-12.9 19.7-5.2 15-5.2 23.9v4.4c0 1.6.1 3.1.4 4.4h-31.2c-1.1-5.3-1.6-11-1.6-16.9 0-8.6 1.5-16.3 4.6-23.3s7-13.5 11.8-19.5 9.9-11.6 15.2-16.9c5.3-5.2 10.4-10.5 15.3-15.8 4.8-5.3 8.8-11 11.8-16.9 3.1-5.9 4.6-12.3 4.6-19.3 0-11.3-3.6-20.4-10.8-27.5-7.1-6.9-14.23086-9.71326-28.12648-9.39166zm21.82648 230.59166c0 7.2-2.4 13.5-7.2 18.8s-11.4 8-19.7 8-14.9-2.7-19.7-8-7.2-11.6-7.2-18.8 2.4-13.5 7.2-18.9c4.8-5.3 11.4-8 19.7-8s14.8 2.7 19.7 8c4.8 5.3 7.2 11.6 7.2 18.9z" transform="matrix(.04823707 0 0 .04494684 -1.132139 1026.5321)"/><g fill="#808080"><path d="m5.0000012 1039.3621h-1.000004v-2h1.000004z"/><path d="m5.0000042 1043.3621h-1.000004v-2h1.000004z"/><path d="m5.0000042 1047.3621h-1.000004v-2h1.000004z"/><path d="m5.0000012 1051.3621h-1.000004v-2h1.000004z"/><path d="m1.0000035 1052.3621h-1.00000398v-16h1.00000398z"/></g></g></svg>