<svg height="15.90625" width="15.9375" xmlns="http://www.w3.org/2000/svg"><g transform="translate(-520.5625 -261.5625)"><path d="m520.93727 277.14901.43342-2.75321c.59954-1.65335.5523-1.69959-.29402-3.35297l.15463-3.30654c-.77624-1.91374.41183-2.13154 1.17607-3.52857.39414-.41334 1.66547-.98756 2.51754-1.5393 1.23749-.94198 1.39145-.57462 2.8292-.57462l2.09934.1 1.76851-.33291c1.56613.0583 1.27751.62457 2.84366 1.26694.9367.52299.93856 1.72359 1.37687 2.37878.30036 1.40567-.60684 1.78242-.68934 2.28294-.12421.44912.34135 1.34055.47351 1.71589l.35345.99621c.31379.46992.24136.95749.13192 1.2814-.3595 1.30679.076 1.25952.076 2.49956-.47777.94042-.19272.37822-.50557 1.49328l.25726 1.37325z" fill="#636363" stroke="#a1a1a1" stroke-width=".617575"/><path d="m521.31863 276.70969-.11161.74777 14.48996.00052-.13672-.63728z" fill="#636363"/><path d="m527.84111 264.44981c-1.76883.20851-2.49432.83814-3.24732 1.36222-1.06232 1.07184-.93912 1.28632-1.27453 2.43794.19654 1.52154.0224 3.33515.71142 5.2642.0279 1.38016-.32493 2.70954-.84349 3.9438l10.07172-.006c-.35262-1.57014.8333-2.95204.74312-4.7397-.11859-1.26013-.97632-2.10065-.77067-4.81984.21686-.87139 1.29168-1.85288.13081-3.1302-1.2011-1.03943-4.22603-.14496-5.52094-.31263z" fill="#757575"/><path d="m526.68506 271.90563c.42328 1.23632 1.16173 2.27527 2.48108 2.2234 1.0884-.65293 1.2408-1.91124 1.48473-3.11035.47943-1.30027.34598-2.67871-.28479-4.12057-.84116-.25535-1.34969.77276-2.49872 1.38847-.84256.45148-1.46729 2.96948-1.18233 3.61905z" fill="#828282"/></g></svg>