<svg height="16" width="6.986182" xmlns="http://www.w3.org/2000/svg"><g fill-rule="evenodd" transform="matrix(2.0253165 0 0 2.0253165 -5.670886 -4.151899)"><path d="m4.8698904 9.4954858s.8732259-1.1124102 1.1232259-1.3624102-.382891-.4406386-.7578125-.4296875c-.3531977.00693-.9707272.1236-1.2421875.4296875-.4691797.5290278-.9861491 1.1108071-.9861491 1.1108071z" stroke="#000" stroke-linejoin="round" stroke-width=".4"/><rect fill="#fff" height="7.5" rx="1" ry=".503906" stroke="#000" stroke-width=".4" width="2" x="3" y="2.25"/><rect fill="#d50000" height="7.5" rx="1" ry=".503906" width="2" x="3" y="2.25"/><rect fill="#d2d2d2" height="3" rx=".929688" ry=".503906" width="2" x="3" y="5.5"/><rect fill="#d50000" height="3" rx=".929688" ry=".503906" width="2" x="3" y="3.5"/><rect fill="#d2d2d2" height="2.25" rx=".929688" ry=".503906" width="2" x="3" y="2.25"/><g fill="#fff"><path d="m3 2.75c0 .3412603.4505635.657152 1 .6596272.5519855.0024868.9959964-.3167929 1-.6596272-.0040038.2307125-.4480146.3663708-1 .3646973-.5494365-.0016658-1-.1350441-1-.3646973z"/><path d="m4 3.25-.25 2 .25 4.75.25-4.75z" fill-opacity=".875" transform="matrix(1 0 0 .962963 0 .12037)" visibility="hidden"/></g></g></svg>