<svg height="16" width="16" xmlns="http://www.w3.org/2000/svg"><path d="m66.275 1.768c-41.335 0-64.571 21.371-64.571 65.036v450.123c0 40.844 20.895 62.229 62.192 62.229h452.024c41.307 0 62.229-20.315 62.229-62.229v-450.123c0-42.601-20.922-65.036-63.521-65.036-.004 0-448.495-.143-448.353 0z" fill="#fff" transform="matrix(.02775633 0 0 .02770795 -.047299 -.047227)"/><g fill="none"><path d="m1.3789109 12.8596c0-1.032368 2.8734485-1.869274 6.418079-1.869274" opacity=".644269" stroke="#808080" stroke-width=".615385"/><path d="m328.149 185.931 191.003-65v321.997l-191.003 65z" stroke="#4d4d4d" stroke-linecap="round" stroke-linejoin="round" stroke-width="30" transform="matrix(.02649345 0 0 .02952936 .84587 -.257609)"/><path d="m1.3789109 10.026476c0-1.0323689 2.8734485-1.869317 6.418079-1.869317" opacity=".644269" stroke="#808080" stroke-width=".615385"/><path d="m1.3789109 7.2225004c0-1.0323796 2.8734485-1.8692853 6.418079-1.8692853" opacity=".644269" stroke="#808080" stroke-width=".615385"/><path d="m7.7969899 14.728727c-3.5446305 0-6.418079-.836906-6.418079-1.869275" stroke="#4d4d4d" stroke-linecap="round" stroke-width=".923078"/><path d="m1.378894 3.396322v9.492328" stroke="#4d4d4d" stroke-linecap="round" stroke-width=".923078"/><path d="m7.764588 5.353202v9.375512" stroke="#4d4d4d" stroke-linecap="round" stroke-width=".923078"/><path d="m7.764588 1.556258v3.796944" opacity=".644269" stroke="#808080" stroke-width=".923078"/><path d="m7.7645673 11.399225c-3.5446187 0-6.418079-.836916-6.418079-1.8692747" stroke="#4d4d4d" stroke-width=".615385"/><path d="m7.8294006 8.3908263c-3.5446187 0-6.4180789-.8369376-6.4180789-1.8692854" stroke="#4d4d4d" stroke-width=".615385"/><path d="m7.7969899 5.2655991c-3.5446305 0-6.418079-.8369163-6.418079-1.8692852 0-1.032369 2.8734485-1.8692747 6.418079-1.8692747" stroke="#4d4d4d" stroke-linecap="round" stroke-width=".923078"/><path d="m9.539667 8.392606 5.06033-1.919492" stroke="#4d4d4d" stroke-linecap="round" stroke-linejoin="round" stroke-width=".839107"/><path d="m9.539667 11.463687 5.06033-1.919426" stroke="#4d4d4d" stroke-linecap="round" stroke-linejoin="round" stroke-width=".839107"/><path d="m9.566068 14.623034 4.927801-11.250576" stroke="#4d4d4d" stroke-linecap="round" stroke-linejoin="round" stroke-width=".559405"/></g></svg>