<svg height="53.149605" width="53.149605" xmlns="http://www.w3.org/2000/svg" xmlns:xlink="http://www.w3.org/1999/xlink"><g><path d="m46.062992 31.889763h3.543307v14.173228h-3.543307z" fill="#c6c6f9" fill-rule="evenodd" stroke="#000" stroke-width=".354331"/><path d="m10.629921 31.889763h3.543307v14.173228h-3.543307z" fill="#c6c6f9" fill-rule="evenodd" stroke="#000" stroke-width=".354331"/><g transform="matrix(.7686478 -.6396722 .6396722 .7686478 -18.500018 15.304206)"><path d="m16.167543 24.521818h46.703278v4.14074h-46.703278z" fill="#fff" fill-rule="evenodd" stroke="#000" stroke-width=".571005" transform="matrix(.9894068 .14516952 -.20227707 .97932833 0 0)"/><path d="m8.317915 23.998608h7.086733v6.176189h-7.086733z" fill="#b3b3b3" fill-rule="evenodd" stroke="#000" stroke-width=".467809" transform="matrix(.98427942 .1766183 -.17194346 .98510682 0 0)"/><path id="a" d="m20.27013 24.521818h4.34235v4.140743h-4.34235z" fill="#f01" fill-rule="evenodd" stroke="#000" stroke-width=".571005" transform="matrix(.9894068 .14516952 -.20227707 .97932833 0 0)"/><use id="b" height="53.149605" transform="translate(8.23759 1.208651)" width="53.149605" xlink:href="#a"/><use id="c" height="53.149605" transform="translate(8.401552 1.232708)" width="53.149605" xlink:href="#b"/><use id="d" height="53.149605" transform="translate(8.401552 1.232708)" width="53.149605" xlink:href="#c"/><use height="53.149605" transform="translate(8.401552 1.232708)" width="53.149605" xlink:href="#d"/></g></g></svg>