<svg height="16" viewBox="0 0 16 16" width="16" xmlns="http://www.w3.org/2000/svg"><g fill-rule="evenodd" transform="translate(0 -1036.3622)"><path d="m0 1036.3622h16v16h-16z" fill="#808080"/><path d="m1 1047.3622h2v2h-2z" fill="#00a700"/><path d="m1 1049.3622h.6v.6h-.6z"/><path d="m2.400001 1049.3622h.6v.6h-.6z"/><path d="m7 1043.3622h2v2h-2z" fill="#d40000"/><path d="m7 1045.3622h.6v.6h-.6z"/><path d="m8.4 1045.3622h.6v.6h-.6z"/><path d="m13 1045.3622h2v2h-2z" fill="#1582ff"/><path d="m13 1047.3622h.6v.6h-.6z"/><path d="m14.4 1047.3622h.6v.6h-.6z"/><path d="m0 1040.3622h16v1.999965h-16z" fill="#1a1a1a"/><g fill="#fff"><path d="m4 1046.3622h1v2h-1z"/><path d="m4 1050.3622h1v2.000017h-1z"/><path d="m11 1046.3622h1v2h-1z"/><path d="m11 1050.3622h1v2.000017h-1z"/></g><path d="m4 1042.3622h1v2h-1z" fill="#1a1a1a"/><path d="m11 1042.3622h1v2h-1z" fill="#1a1a1a"/><path d="m670.80798 791.02826h1.136502v2.273004h-1.136502z" fill="#fff" transform="matrix(.76604444 .64278761 -.64278761 .76604444 0 0)"/><path d="m658.50287 801.31299h1.150871v2.301741h-1.150871z" fill="#fff" transform="matrix(-.76604444 .64278761 .64278761 .76604444 0 0)"/><path d="m7 1048.3622h2v2h-2z" fill="#ff0"/><path d="m7 1050.3622h.6v.6h-.6z"/><path d="m8.4 1050.3622h.6v.6h-.6z"/><path d="m15 1042.3622h1v2h-1z" fill="#1a1a1a"/><path d="m0 1042.3622h1v2h-1z" fill="#1a1a1a"/></g></svg>