<svg height="64" width="64" xmlns="http://www.w3.org/2000/svg"><path d="m-.505076 22.33122h65.154839v42.17387h-65.154839z" fill="#999"/><g fill="#c83737"><path d="m-2.020305 59.15032h16.162441v5.607378h-16.162441z"/><path d="m15.97304 59.15032h16.162441v5.607378h-16.162441z"/><path d="m33.966385 59.15032h16.162441v5.607378h-16.162441z"/><path d="m51.959728 59.15032h16.162441v5.607378h-16.162441z"/><path d="m-10.859139 51.57412h16.162441v5.607378h-16.162441z"/><path d="m7.134205 51.57412h16.162441v5.607378h-16.162441z"/><path d="m25.12755 51.57412h16.162441v5.607378h-16.162441z"/><path d="m43.120892 51.57412h16.162441v5.607378h-16.162441z"/><path d="m61.114235 51.57412h16.162441v5.607378h-16.162441z"/><path d="m-1.767767 43.74532h16.162441v5.607378h-16.162441z"/><path d="m16.225578 43.74532h16.162441v5.607378h-16.162441z"/><path d="m34.218922 43.74532h16.162441v5.607378h-16.162441z"/><path d="m52.212265 43.74532h16.162441v5.607378h-16.162441z"/><path d="m-10.859139 36.16922h16.162441v5.607378h-16.162441z"/><path d="m7.134205 36.16922h16.162441v5.607378h-16.162441z"/><path d="m25.127548 36.16922h16.162441v5.607378h-16.162441z"/><path d="m43.120892 36.16922h16.162441v5.607378h-16.162441z"/><path d="m61.114231 36.16922h16.162441v5.607378h-16.162441z"/><path d="m-2.020305 28.59312h16.162441v5.607378h-16.162441z"/><path d="m15.973041 28.59312h16.162441v5.607378h-16.162441z"/><path d="m33.966385 28.59312h16.162441v5.607378h-16.162441z"/><path d="m51.959728 28.59312h16.162441v5.607378h-16.162441z"/></g><path d="m-4.545686 19.55322h73.236061v7.323606h-73.236061z" fill="#4d4d4d"/></svg>