<svg height="16" viewBox="0 0 16 16" width="16" xmlns="http://www.w3.org/2000/svg"><g transform="translate(0 -1036.3621)"><path d="m11.031468 1039.3622c-.571473 0-1.031173.5365-1.031173 1.2025v.6846c-.0003917.013-.0003917.026 0 .039v.1148 3.9584c-.00913.7514.962812.7514.953685 0v-3.9584h.491463v10.2347c-.01173.9661 1.237895.9661 1.226168 0v-6.2782h.606984v6.2782c-.01162.9659 1.237788.9659 1.226169 0v-10.2347h.541489v3.9584c-.0092.7514.962855.7514.953685 0v-4.0735-.7235c0-.6658-.460553-1.2024-1.032025-1.2024h-3.936445z" fill="#3771c8"/><ellipse cx="13.000002" cy="1037.5665" fill="#3771c8" rx="1.204404" ry="1.204388"/><path d="m.5 1041.8585h8.003908v10.00354h-8.003908z" fill="#fff" stroke="#808080"/><g fill="none" stroke="#000" stroke-linecap="round" stroke-linejoin="round"><path d="m4.5000504 1042.8692v8.1636"/><path d="m6.5402884 1044.0562s-4.086376-1.3424-4.086371 1.4593c.000004 2.8016 4.068423.2334 4.068417 3.035-.000006 2.8017-4.0579 1.109-4.0579 1.109"/></g></g></svg>