<svg height="16" viewBox="0 0 16 16" width="16" xmlns="http://www.w3.org/2000/svg"><g transform="translate(0 -1036.3621)"><path d="m11.031468 1039.3622c-.571473 0-1.031173.5365-1.031173 1.2025v.6846c-.0003917.013-.0003917.026 0 .039v.1148 3.9584c-.00913.7514.962812.7514.953685 0v-3.9584h.491463v10.2347c-.01173.9661 1.237895.9661 1.226168 0v-6.2782h.606984v6.2782c-.01162.9659 1.237788.9659 1.226169 0v-10.2347h.541489v3.9584c-.0092.7514.962855.7514.953685 0v-4.0735-.7235c0-.6658-.460553-1.2024-1.032025-1.2024h-3.936445z" fill="#3771c8"/><ellipse cx="13.000002" cy="1037.5665" fill="#3771c8" rx="1.204404" ry="1.204388"/><path d="m4.9497461 1037.314-4.3310298 4.5741 8.9935159-.044z" fill="#fff" fill-rule="evenodd"/><path d="m.3437477 1041.7293 4.6562509-4.3672 4.6523446 4.3633" fill="#fd5" fill-rule="evenodd" stroke="#808080"/><path d="m.5 1041.866h8.999163v9.996096h-8.999163z" fill="#fd5" stroke="#808080"/><g fill="#808080"><rect height="3.000001" ry=".000148" width="2.000001" x="3.999999" y="1048.3621"/><rect height="2.000001" ry=".000148" width="2.000001" x="1.999998" y="1043.3621"/><rect height="2.000001" ry=".000148" width="2.000001" x="5.999999" y="1043.3621"/></g></g></svg>