<svg height="16" viewBox="0 0 16 16" width="16" xmlns="http://www.w3.org/2000/svg"><g transform="translate(0 -1036.3621)"><path d="m5.5234375 4c-.2407034 0-.4811275.1887532-.4765625.5644531-.00886 1.5873785-.00728 3.0618654 0 4.4453125 0 .6044999.362299 1.1337034.9570312 1.0332034h.4921876v5.957031h1.2265624v-3h.6054688v3h1.2265625v-5.957031h.5410155v3.958984c-.0092.7514.964248.7514.955078 0v-4.0742186-.7226563c0-.6657999-.461731-1.203125-1.033203-1.203125h-3.9355468c-.04495 0-.038507.00173-.082031.00195l-.0000002-3.43945c.0045635-.3756999-.2358591-.5644531-.4765625-.5644531z" fill="#2ca02c" transform="translate(0 1036.3621)"/><ellipse cx="8.050254" cy="1042.569" fill="#2ca02c" rx="1.204404" ry="1.204388"/><path d="m11.031468 1039.3621c-.571473 0-1.031173.5365-1.031173 1.2025v.6846c-.0003919.013-.0003919.026 0 .039v.1148 3.9584c-.00913.7514.962812.7514.953685 0v-3.9584h.491463v10.2347c-.01173.9661 1.237895.9661 1.226168 0v-6.2782h.606984v6.2782c-.01162.9659 1.237788.9659 1.226169 0v-10.2347h.541489v3.9584c-.0092.7514.962855.7514.953685 0v-4.0735-.7235c0-.6658-.460553-1.2024-1.032025-1.2024h-3.936445z" fill="#3771c8"/><ellipse cx="13.000002" cy="1037.5664" fill="#3771c8" rx="1.204404" ry="1.204388"/><path d="m4.0313961 1040.3621c.2407035 0 .4811276.1888.4765626.5645.00886 1.5873.00728 3.0618 0 4.4453 0 .6045-.362299 1.1337-.9570313 1.0332h-.4921877v5.957h-1.2265631v-3h-.605468v3h-1.226563c-.000252-2.666-.000352-5.332.0012-7.998h3.4715088.082031l.0000002-3.4394c-.00456-.3757.2358591-.5645.4765625-.5645z" fill="#fc0"/><ellipse cx="-1.504578" cy="1042.5693" fill="#fc0" rx="1.204405" ry="1.204388" transform="scale(-1 1)"/><g fill="#0ff" transform="translate(.045889)"><path d="m5.4776113 1043.8006c-.2407034 0-.4811276.1888-.4765626.5645-.00886 1.5873-.00728 3.0618 0 4.4453 0 .6045.3622991 1.1337.9570314 1.0332h.4921877v2.5127h3.0585942v-2.5127h.541016v2.5127h.955078v-2.628-.7226c0-.6658-.461731-1.2031-1.033203-1.2031h-3.9355479-.082031l-.0000002-3.4394c.00456-.3757-.2358592-.5645-.4765626-.5645z"/><ellipse cx="8.004429" cy="1046.0077" rx="1.204405" ry="1.204388"/></g><g fill="#f55" transform="translate(0 -.4375)"><path d="m4.0313968 1044.2381c.2407036 0 .4811277.1888.4765627.5645.00886 1.5873.00728 3.0618 0 4.4453 0 .6045-.362299 1.1337-.9570314 1.0332h-.4921878v2.5195h-3.0585947s-.000352-1.8945.0012-4.5605h3.4715094.082031l.0000002-3.4394c-.00456-.3757.2358591-.5645.4765625-.5645z"/><ellipse cx="-1.504578" cy="1046.4451" rx="1.204405" ry="1.204388" transform="scale(-1 1)"/></g></g></svg>