<svg height="16" viewBox="0 0 16 16" width="16" xmlns="http://www.w3.org/2000/svg"><g transform="translate(0 -1036.3621)"><rect fill="#fff" height="13.006807" ry=".000039" stroke="#808080" stroke-linecap="round" stroke-linejoin="round" width="9.006746" x=".5" y="1038.8553"/><path d="m9.0000011 1044.3621s-7.0000012 0-7.0000012 7" fill="none" stroke="#000"/><g fill="#808080"><rect height="1" ry=".000042" width="2.000001" x="1.999999" y="1040.3621"/><rect height="1" ry=".000042" width="1" x="5" y="1040.3621"/><rect height="1" ry=".000042" width="1" x="1.999999" y="1042.3621"/><rect height="1" ry=".000042" width="2.000001" x="4" y="1042.3621"/><rect height="1" ry=".000042" width="1" x="7.000001" y="1042.3621"/><rect height="1" ry=".000042" width="1.000001" x="1.999999" y="1044.3621"/></g><path d="m11.031468 1039.3622c-.571473 0-1.031173.5365-1.031173 1.2025v.6846c-.0003917.013-.0003917.026 0 .039v.1148 3.9584c-.00913.7514.962812.7514.953685 0v-3.9584h.491463v10.2347c-.01173.9661 1.237895.9661 1.226168 0v-6.2782h.606984v6.2782c-.01162.9659 1.237788.9659 1.226169 0v-10.2347h.541489v3.9584c-.0092.7514.962855.7514.953685 0v-4.0735-.7235c0-.6658-.460553-1.2024-1.032025-1.2024h-3.936445z" fill="#3771c8"/><ellipse cx="13.000002" cy="1037.5665" fill="#3771c8" rx="1.204404" ry="1.204388"/><rect fill="#808080" height="1.000001" ry=".000042" width="1.000001" x="7.000001" y="1040.3621"/><rect height="1.000001" ry=".000042" transform="matrix(.70710678 -.70710678 .70710678 .70710678 0 0)" width="4" x="-739.07898" y="746.10168"/></g></svg>