<svg height="16" viewBox="0 0 16 16" width="16" xmlns="http://www.w3.org/2000/svg"><g transform="translate(0 -1036.3621)"><path d="m11.031468 1039.3622c-.571473 0-1.031173.5365-1.031173 1.2025v.6846c-.0003917.013-.0003917.026 0 .039v.1148 3.9584c-.00913.7514.962812.7514.953685 0v-3.9584h.491463v10.2347c-.01173.9661 1.237895.9661 1.226168 0v-6.2782h.606984v6.2782c-.01162.9659 1.237788.9659 1.226169 0v-10.2347h.541489v3.9584c-.0092.7514.962855.7514.953685 0v-4.0735-.7235c0-.6658-.460553-1.2024-1.032025-1.2024h-3.936445z" fill="#3771c8"/><ellipse cx="13.000002" cy="1037.5665" fill="#3771c8" rx="1.204404" ry="1.204388"/><g fill="#808080"><ellipse cx="1.204404" cy="1051.1577" rx="1.204405" ry="1.204388"/><ellipse cx="4.735655" cy="1051.1577" rx="1.204405" ry="1.204389"/><ellipse cx="8.266906" cy="1051.1577" rx="1.204405" ry="1.204389"/><ellipse cx="1.204404" cy="1047.7599" rx="1.204405" ry="1.204388"/><ellipse cx="4.735655" cy="1047.7599" rx="1.204405" ry="1.204389"/><ellipse cx="8.266906" cy="1047.7599" rx="1.204405" ry="1.204389"/><ellipse cx="1.204404" cy="1044.3622" rx="1.204405" ry="1.204388"/><ellipse cx="4.735655" cy="1044.3622" rx="1.204405" ry="1.204389"/><ellipse cx="8.266906" cy="1044.3622" rx="1.204405" ry="1.204389"/><ellipse cx="1.204404" cy="1040.9644" rx="1.204405" ry="1.204388"/><ellipse cx="4.735655" cy="1040.9644" rx="1.204405" ry="1.204389"/><ellipse cx="8.266906" cy="1040.9644" rx="1.204405" ry="1.204389"/><ellipse cx="1.204404" cy="1037.5665" rx="1.204405" ry="1.204388"/><ellipse cx="4.735655" cy="1037.5665" rx="1.204405" ry="1.204389"/><ellipse cx="8.266906" cy="1037.5665" rx="1.204405" ry="1.204389"/></g></g></svg>