<svg height="16" viewBox="0 0 16 16" width="16" xmlns="http://www.w3.org/2000/svg"><g transform="translate(0 -1036.3621)"><g fill="#2a7fff"><path d="m1.031466 1044.3647c-.571473 0-1.031173.5365-1.031173 1.2025v.6846c-.0003919.013-.0003919.026 0 .039v.1148 3.9584c-.00913.7514.962812.7514.953685 0v-3.9584h.491463v5.9565h1.226168v-3h.606984v3h1.226169v-5.9565h.541489v3.9584c-.0092.7514.962855.7514.953685 0v-4.0735-.7235c0-.6658-.460553-1.2024-1.032025-1.2024h-3.936445z"/><ellipse cx="3" cy="1042.569" rx="1.204404" ry="1.204388"/><path d="m6.0817199 1044.3647c-.571473 0-1.031173.5365-1.031173 1.2025v.6846c-.0003919.013-.0003919.026 0 .039v.1148 3.9584c-.00913.7514.962812.7514.953685 0v-3.9584h.491463v5.9565h1.226168v-3h.606984v3h1.226169v-5.9565h.5414891v3.9584c-.0092.7514.962855.7514.953685 0v-4.0735-.7235c0-.6658-.460553-1.2024-1.032025-1.2024h-3.9364451z"/><ellipse cx="8.050254" cy="1042.569" rx="1.204404" ry="1.204388"/></g><path d="m11.031468 1039.3621c-.571473 0-1.031173.5365-1.031173 1.2025v.6846c-.0003919.013-.0003919.026 0 .039v.1148 3.9584c-.00913.7514.962812.7514.953685 0v-3.9584h.491463v10.2347c-.01173.9661 1.237895.9661 1.226168 0v-6.2782h.606984v6.2782c-.01162.9659 1.237788.9659 1.226169 0v-10.2347h.541489v3.9584c-.0092.7514.962855.7514.953685 0v-4.0735-.7235c0-.6658-.460553-1.2024-1.032025-1.2024h-3.936445z" fill="#3771c8"/><ellipse cx="13.000002" cy="1037.5664" fill="#3771c8" rx="1.204404" ry="1.204388"/><path d="m1 1036.3621h5v4h-5z" fill="#2a7fff"/><path d="m0 1036.3621h1v9.000041h-1z" fill="#808080"/></g></svg>