<svg height="16" viewBox="0 0 16 16" width="16" xmlns="http://www.w3.org/2000/svg"><g transform="translate(0 -1036.3621)"><rect fill="#fff" height="16" ry=".000148" width="8" y="1036.3621"/><path d="m11.031468 1039.3621c-.571473 0-1.031173.5365-1.031173 1.2025v.6846c-.0003919.013-.0003919.026 0 .039v.1148 3.9584c-.00913.7514.962812.7514.953685 0v-3.9584h.491463v10.2347c-.01173.9661 1.237895.9661 1.226168 0v-6.2782h.606984v6.2782c-.01162.9659 1.237788.9659 1.226169 0v-10.2347h.541489v3.9584c-.0092.7514.962855.7514.953685 0v-4.0735-.7235c0-.6658-.460553-1.2024-1.032025-1.2024h-3.936445z" fill="#3771c8"/><ellipse cx="13.000002" cy="1037.5664" fill="#3771c8" rx="1.204404" ry="1.204388"/><g fill="#d38d5f"><rect height="16" ry=".000148" width="1" x="8" y="1036.3621"/><rect height="2.00004" ry=".000148" width="3.000001" x="-.000001" y="1038.3621"/><rect height="2.00004" ry=".000148" width="3.000001" x="4" y="1038.3621"/><rect height="2.00004" ry=".000148" width="3.000001" x="-.000004" y="1041.3621"/><rect height="2.000041" ry=".000148" width="3.000002" x="3.999998" y="1041.3621"/><rect height="2.00004" ry=".000148" width="3.000001" x="-.000003" y="1044.3621"/><rect height="2.000041" ry=".000148" width="3.000002" x="3.999998" y="1044.3621"/><rect height="2.000041" ry=".000148" width="3.000002" x="-.000006" y="1047.3621"/><rect height="2.000041" ry=".000148" width="3.000002" x="3.999997" y="1047.3621"/><rect height="2.000041" ry=".000148" width="3.000002" x="-.000003" y="1050.3621"/><rect height="2.000042" ry=".000148" width="3.000003" x="4" y="1050.3621"/><rect height="1" ry=".000148" width="8" y="1036.3621"/></g></g></svg>