<svg height="16" viewBox="0 0 16 16" width="16" xmlns="http://www.w3.org/2000/svg"><g transform="translate(0 -1036.3621)"><path d="m4.949747 1037.314-4.33102905 4.5741 8.99351435-.044z" fill="#fff" fill-rule="evenodd"/><path d="m.3437494 1041.7293 4.6562501-4.3672 4.6523438 4.3633" fill="#fd5" fill-rule="evenodd" stroke="#f00"/><path d="m.500002 1041.866h8.999161v9.996094h-8.999161z" fill="#fd5" stroke="#f00"/><path d="m11.031468 1039.3622c-.571473 0-1.031173.5365-1.031173 1.2025v.6846c-.0003917.013-.0003917.026 0 .039v.1148 3.9584c-.00913.7514.962812.7514.953685 0v-3.9584h.491463v10.2347c-.01173.9661 1.237895.9661 1.226168 0v-6.2782h.606984v6.2782c-.01162.9659 1.237788.9659 1.226169 0v-10.2347h.541489v3.9584c-.0092.7514.962855.7514.953685 0v-4.0735-.7235c0-.6658-.460553-1.2024-1.032025-1.2024h-3.936445z" fill="#3771c8"/><ellipse cx="13.000002" cy="1037.5665" fill="#3771c8" rx="1.204404" ry="1.204388"/><g fill="none" stroke="#000" stroke-linecap="round" stroke-linejoin="round"><path d="m4.9371319 1042.8107v8.1636" stroke-width=".819294"/><path d="m6.9932009 1044.0175s-4.0863752-1.3424-4.0863703 1.4593c.0000049 2.8016 4.0684222.2334 4.0684164 3.035-.0000056 2.8017-4.0578992 1.109-4.0578992 1.109" stroke-width=".871077"/></g></g></svg>