<svg height="16" viewBox="0 0 16 16" width="16" xmlns="http://www.w3.org/2000/svg"><g transform="translate(0 -1036.3621)"><path d="m2.7499994 1041.909h3.3437498l1.265625 5.1094h-5.7656248z" fill="#fff" fill-rule="evenodd"/><path d="m1.8251704 1046.3623-1.29437828 5.4574 8.02493628-.019-1.3255306-5.4387z" fill="#0a0" fill-rule="evenodd"/><path d="m1.3078344 1041.9023h1.6156978l-2.42354659 9.9598h8.07848939l-2.4235466-9.9598h1.6156985" fill="none" stroke="#808080" stroke-linecap="round" stroke-linejoin="round"/><g fill="#0a0"><circle cx="3.515565" cy="1037.9656" r="1.603424"/><circle cx="4.552899" cy="1040.998" r="1.020462"/><circle cx="4.084937" cy="1043.8723" r=".598587"/></g><path d="m11.031467 1039.3622c-.571473 0-1.031173.5365-1.031173 1.2025v.6846c-.0003921.013-.0003921.026 0 .039v.1148 3.9584c-.0091.7514.962812.7514.953685 0v-3.9584h.491463v10.2347c-.01173.9661 1.237895.9661 1.226168 0v-6.2782h.606985v6.2782c-.01162.9659 1.237788.9659 1.226169 0v-10.2347h.541489v3.9584c-.0092.7514.962855.7514.953685 0v-4.0735-.7235c0-.6658-.460553-1.2024-1.032025-1.2024h-3.936446z" fill="#3771c8"/><ellipse cx="13.000001" cy="1037.5665" fill="#3771c8" rx="1.204405" ry="1.204388"/></g></svg>