<svg height="16" viewBox="0 0 16 16" width="16" xmlns="http://www.w3.org/2000/svg"><g transform="translate(0 -1036.3621)"><rect fill="#f60" height="10.593793" ry=".000441" width="1" x="4.507258" y="1041.7683"/><path d="m11.031468 1039.3622c-.571473 0-1.031173.5365-1.031173 1.2025v.6846c-.0003917.013-.0003917.026 0 .039v.1148 3.9584c-.00913.7514.962812.7514.953685 0v-3.9584h.491463v10.2347c-.01173.9661 1.237895.9661 1.226168 0v-6.2782h.606984v6.2782c-.01162.9659 1.237788.9659 1.226169 0v-10.2347h.541489v3.9584c-.0092.7514.962855.7514.953685 0v-4.0735-.7235c0-.6658-.460553-1.2024-1.032025-1.2024h-3.936445z" fill="#3771c8"/><ellipse cx="13.000002" cy="1037.5665" fill="#3771c8" rx="1.204404" ry="1.204388"/><g stroke="#f60" stroke-linecap="round" stroke-linejoin="round"><path d="m6.5067825 1037.9151s1.530331.4918 1.530331 2c0 1.4861-1.530328 2-1.530328 2" fill="none"/><path d="m7.4959485 1036.8653s1.999999 1 1.999999 3-1.999999 3-1.999999 3" fill="none"/><path d="m3.4891646 1038.0714s-1.530331.4918-1.530331 2c0 1.4861 1.530328 2 1.530328 2" fill="none"/><path d="m2.4999986 1037.0216s-1.99999896 1-1.99999896 3 1.99999896 3 1.99999896 3" fill="none"/><circle cx="5.03125" cy="1040.0183" fill="#f60" r=".71875"/></g></g></svg>