<?xml version="1.0" encoding="UTF-8" standalone="no"?>
<svg
   xmlns:dc="http://purl.org/dc/elements/1.1/"
   xmlns:cc="http://creativecommons.org/ns#"
   xmlns:rdf="http://www.w3.org/1999/02/22-rdf-syntax-ns#"
   xmlns:svg="http://www.w3.org/2000/svg"
   xmlns="http://www.w3.org/2000/svg"
   xmlns:xlink="http://www.w3.org/1999/xlink"
   xmlns:sodipodi="http://sodipodi.sourceforge.net/DTD/sodipodi-0.dtd"
   xmlns:inkscape="http://www.inkscape.org/namespaces/inkscape"
   version="1.1"
   width="148mm"
   height="105mm"
   viewBox="0 0 437.00788 310.03937"
   id="svg57"
   sodipodi:docname="QuickOSM_OSM_map_with_title.svg"
   inkscape:version="0.92.5 (2060ec1f9f, 2020-04-08)">
  <metadata
     id="metadata61">
    <rdf:RDF>
      <cc:Work
         rdf:about="">
        <dc:format>image/svg+xml</dc:format>
        <dc:type
           rdf:resource="http://purl.org/dc/dcmitype/StillImage" />
        <dc:title></dc:title>
      </cc:Work>
    </rdf:RDF>
  </metadata>
  <sodipodi:namedview
     pagecolor="#ffffff"
     bordercolor="#666666"
     borderopacity="1"
     objecttolerance="10"
     gridtolerance="10"
     guidetolerance="10"
     inkscape:pageopacity="0"
     inkscape:pageshadow="2"
     inkscape:window-width="1866"
     inkscape:window-height="1136"
     id="namedview59"
     showgrid="true"
     inkscape:snap-grids="true"
     showguides="true"
     inkscape:zoom="1.3037281"
     inkscape:cx="187.45329"
     inkscape:cy="161.59908"
     inkscape:window-x="1974"
     inkscape:window-y="27"
     inkscape:window-maximized="1"
     inkscape:current-layer="svg57"
     units="mm">
    <inkscape:grid
       type="xygrid"
       id="grid5458"
       spacingx="33.333333"
       spacingy="9.375" />
  </sodipodi:namedview>
  <defs
     id="defs45">
    <linearGradient
       id="Gradient_1"
       gradientUnits="userSpaceOnUse"
       x1="50"
       y1="53"
       x2="50"
       y2="0"
       spreadMethod="pad">
      <stop
         offset="0%"
         stop-color="#FFFFFF"
         stop-opacity="0.1"
         id="stop2" />
      <stop
         offset="100%"
         stop-color="#FFFFFF"
         stop-opacity="0.4"
         id="stop4" />
    </linearGradient>
    <linearGradient
       id="Gradient_2"
       gradientUnits="userSpaceOnUse"
       x1="100"
       y1="50"
       x2="0"
       y2="50"
       spreadMethod="pad">
      <stop
         offset="0%"
         stop-color="#FFFFFF"
         stop-opacity="0.1"
         id="stop7" />
      <stop
         offset="100%"
         stop-color="#FFFFFF"
         stop-opacity="0.4"
         id="stop9" />
    </linearGradient>
    <linearGradient
       id="Gradient_3"
       gradientUnits="userSpaceOnUse"
       x1="0"
       y1="50"
       x2="100"
       y2="50"
       spreadMethod="pad">
      <stop
         offset="0%"
         stop-color="#FFFFFF"
         stop-opacity="0.1"
         id="stop12" />
      <stop
         offset="100%"
         stop-color="#FFFFFF"
         stop-opacity="0.4"
         id="stop14" />
    </linearGradient>
    <g
       id="background">
      <path
         d="M 0,0 V 100 H 100 V 0 Z"
         id="path17"
         inkscape:connector-curvature="0"
         style="fill:url(#background-gradient);stroke:none" />
    </g>
    <mask
       id="mask">
      <path
         d="M 0,0 V 100 H 100 V 0 Z"
         id="path20"
         inkscape:connector-curvature="0"
         style="fill:#ffffff;stroke:none" />
    </mask>
    <g
       id="gloss-top">
      <path
         d="M 100,53.1 V 0 H 0 v 53.1 z"
         id="path23"
         inkscape:connector-curvature="0"
         style="fill:url(#Gradient_1);stroke:none" />
    </g>
    <g
       id="gloss-right">
      <path
         d="M 100,100 V 0 H 0 Z"
         id="path26"
         inkscape:connector-curvature="0"
         style="fill:url(#Gradient_2);stroke:none" />
    </g>
    <g
       id="gloss-left">
      <path
         d="M 0,0 V 100 L 100,0 Z"
         id="path29"
         inkscape:connector-curvature="0"
         style="fill:url(#Gradient_3);stroke:none" />
    </g>
    <linearGradient
       id="background-gradient"
       x1="0"
       y1="0"
       y2="1"
       x2="0">
      <stop
         stop-color="#589632"
         offset="0%"
         id="stop32" />
      <stop
         stop-color="#9DDA77"
         offset="100%"
         id="stop34" />
    </linearGradient>
    <g
       transform="matrix(2.0746888,0,0,2.0746888,0,0.10373286)"
       id="picture">
      <path
         d="M 47.4,42.1 34.8,29.4 c 2,-3.1 3.1,-6.7 3.1,-10.4 0,-5.1 -2,-9.8 -5.5,-13.4 C 28.8,2 24,0 18.9,0 8.5,0 0,8.5 0,18.9 c 0,10.4 8.5,18.9 18.9,18.9 3.8,0 7.4,-1.1 10.4,-3.1 L 42,47.4 c 0.7,0.7 1.9,0.7 2.7,0 l 2.7,-2.7 c 0.8,-0.7 0.8,-1.9 0,-2.6 z M 28.8,28.8 C 26.2,31.4 22.7,32.9 19,32.9 11.3,32.9 5.1,26.7 5.1,19 5.1,11.3 11.3,5.1 19,5.1 c 3.7,0 7.2,1.4 9.8,4.1 2.6,2.6 4.1,6.1 4.1,9.8 -0.1,3.6 -1.5,7.1 -4.1,9.8 z"
         id="path37"
         inkscape:connector-curvature="0" />
    </g>
    <linearGradient
       id="picture-gradient"
       x1="0"
       y1="0.103814"
       y2="99.611046"
       x2="0"
       gradientTransform="scale(1.0007822,0.99921844)"
       gradientUnits="userSpaceOnUse">
      <stop
         stop-color="#ffffff"
         offset="0%"
         id="stop40" />
      <stop
         stop-color="#e5eff9"
         offset="100%"
         id="stop42" />
    </linearGradient>
    <linearGradient
       inkscape:collect="always"
       xlink:href="#background-gradient"
       id="linearGradient3800"
       x1="0"
       y1="0"
       x2="0"
       y2="100"
       gradientUnits="userSpaceOnUse" />
  </defs>
  <use
     xlink:href="#background"
     id="use47"
     style="fill:url(#linearGradient3800)"
     x="0"
     y="0"
     width="100%"
     height="100%"
     transform="matrix(1.8978908,0,0,1.8978908,126.22705,11.934086)" />
  <g
     mask="url(#mask)"
     id="g53"
     transform="matrix(1.8978908,0,0,1.8978908,125.8963,11.934086)">
    <g
       transform="matrix(-0.84,0,0,0.84,92,8)"
       id="g51">
      <use
         xlink:href="#picture"
         id="use49"
         style="fill:url(#picture-gradient)"
         x="0"
         y="0"
         width="100%"
         height="100%" />
    </g>
  </g>
  <use
     xlink:href="#gloss-left"
     id="use55"
     style="opacity:1"
     x="0"
     y="0"
     width="100%"
     height="100%"
     transform="matrix(1.8978908,0,0,1.8978908,126.22705,11.934086)" />
  <path
     style="fill:#ffffff;fill-opacity:1;stroke:none;stroke-width:1.48272717px;stroke-linecap:butt;stroke-linejoin:miter;stroke-opacity:1"
     d="m 126.22705,11.934086 63.26303,11.86182 63.26303,-12.06286 63.26302,12.06286 v -11.86182 z"
     id="path5487"
     inkscape:connector-curvature="0" />
  <path
     style="fill:#ffffff;fill-opacity:1;stroke:none;stroke-width:1.48272717px;stroke-linecap:butt;stroke-linejoin:miter;stroke-opacity:1"
     d="m 126.22705,183.93045 63.26303,17.79272 63.26303,-17.79272 63.26302,17.79272 H 126.22705 Z"
     id="path5489"
     inkscape:connector-curvature="0" />
  <flowRoot
     xml:space="preserve"
     id="flowRoot196"
     style="font-style:normal;font-weight:normal;font-size:40px;line-height:1.25;font-family:sans-serif;letter-spacing:0px;word-spacing:0px;fill:#000000;fill-opacity:1;stroke:none"
     transform="matrix(1.690465,0,0,1.690465,-217.68402,134.54508)"><flowRegion
       id="flowRegion198"><rect
         id="rect200"
         width="506.57626"
         height="60"
         x="159.45763"
         y="44" /></flowRegion><flowPara
       id="flowPara202"
       style="font-style:normal;font-variant:normal;font-weight:bold;font-stretch:normal;font-size:40px;font-family:Ubuntu;-inkscape-font-specification:'Ubuntu, Normal';font-variant-ligatures:normal;font-variant-caps:normal;font-variant-numeric:normal;font-feature-settings:normal;text-align:start;writing-mode:lr-tb;text-anchor:start">QuickOSM</flowPara></flowRoot></svg>
