<?xml version="1.0" encoding="UTF-8" standalone="no"?>
<svg
   xmlns:dc="http://purl.org/dc/elements/1.1/"
   xmlns:cc="http://creativecommons.org/ns#"
   xmlns:rdf="http://www.w3.org/1999/02/22-rdf-syntax-ns#"
   xmlns:svg="http://www.w3.org/2000/svg"
   xmlns="http://www.w3.org/2000/svg"
   xmlns:xlink="http://www.w3.org/1999/xlink"
   xmlns:sodipodi="http://sodipodi.sourceforge.net/DTD/sodipodi-0.dtd"
   xmlns:inkscape="http://www.inkscape.org/namespaces/inkscape"
   version="1.1"
   width="128"
   height="128"
   viewBox="0 0 100 100"
   id="svg57"
   sodipodi:docname="QuickOSM_OSM_map.svg"
   inkscape:version="0.92.3 (2405546, 2018-03-11)">
  <metadata
     id="metadata61">
    <rdf:RDF>
      <cc:Work
         rdf:about="">
        <dc:format>image/svg+xml</dc:format>
        <dc:type
           rdf:resource="http://purl.org/dc/dcmitype/StillImage" />
        <dc:title></dc:title>
      </cc:Work>
    </rdf:RDF>
  </metadata>
  <sodipodi:namedview
     pagecolor="#ffffff"
     bordercolor="#666666"
     borderopacity="1"
     objecttolerance="10"
     gridtolerance="10"
     guidetolerance="10"
     inkscape:pageopacity="0"
     inkscape:pageshadow="2"
     inkscape:window-width="1920"
     inkscape:window-height="1016"
     id="namedview59"
     showgrid="true"
     inkscape:snap-grids="true"
     showguides="true"
     inkscape:zoom="0.921875"
     inkscape:cx="143.21458"
     inkscape:cy="136.0828"
     inkscape:window-x="0"
     inkscape:window-y="27"
     inkscape:window-maximized="1"
     inkscape:current-layer="svg57">
    <inkscape:grid
       type="xygrid"
       id="grid5458"
       spacingx="33.333333"
       spacingy="9.375" />
  </sodipodi:namedview>
  <defs
     id="defs45">
    <linearGradient
       id="Gradient_1"
       gradientUnits="userSpaceOnUse"
       x1="50"
       y1="53"
       x2="50"
       y2="0"
       spreadMethod="pad">
      <stop
         offset="0%"
         stop-color="#FFFFFF"
         stop-opacity="0.1"
         id="stop2" />
      <stop
         offset="100%"
         stop-color="#FFFFFF"
         stop-opacity="0.4"
         id="stop4" />
    </linearGradient>
    <linearGradient
       id="Gradient_2"
       gradientUnits="userSpaceOnUse"
       x1="100"
       y1="50"
       x2="0"
       y2="50"
       spreadMethod="pad">
      <stop
         offset="0%"
         stop-color="#FFFFFF"
         stop-opacity="0.1"
         id="stop7" />
      <stop
         offset="100%"
         stop-color="#FFFFFF"
         stop-opacity="0.4"
         id="stop9" />
    </linearGradient>
    <linearGradient
       id="Gradient_3"
       gradientUnits="userSpaceOnUse"
       x1="0"
       y1="50"
       x2="100"
       y2="50"
       spreadMethod="pad">
      <stop
         offset="0%"
         stop-color="#FFFFFF"
         stop-opacity="0.1"
         id="stop12" />
      <stop
         offset="100%"
         stop-color="#FFFFFF"
         stop-opacity="0.4"
         id="stop14" />
    </linearGradient>
    <g
       id="background">
      <path
         fill="url(#background-gradient)"
         stroke="none"
         d=" M 0 0 L 0 100 100 100 100 0 0 0 Z"
         id="path17" />
    </g>
    <mask
       id="mask">
      <path
         fill="#FFFFFF"
         stroke="none"
         d=" M 0 0 L 0 100 100 100 100 0 0 0 Z"
         id="path20" />
    </mask>
    <g
       id="gloss-top">
      <path
         fill="url(#Gradient_1)"
         stroke="none"
         d=" M 100 53.1 L 100 0 0 0 0 53.1 100 53.1 Z"
         id="path23" />
    </g>
    <g
       id="gloss-right">
      <path
         fill="url(#Gradient_2)"
         stroke="none"
         d=" M 100 100 L 100 0 0 0 100 100 Z"
         id="path26" />
    </g>
    <g
       id="gloss-left">
      <path
         fill="url(#Gradient_3)"
         stroke="none"
         d=" M 0 0 L 0 100 100 0 0 0 Z"
         id="path29" />
    </g>
    <linearGradient
       id="background-gradient"
       x1="0"
       y1="0"
       y2="1"
       x2="0">
      <stop
         stop-color="#589632"
         offset="0%"
         id="stop32" />
      <stop
         stop-color="#9DDA77"
         offset="100%"
         id="stop34" />
    </linearGradient>
    <g
       transform="scale(2.0746887638410394) translate(0 0.049999237060546875)"
       id="picture">
      <path
         d="M47.4 42.1L34.8 29.4c2-3.1 3.1-6.7 3.1-10.4 0-5.1-2-9.8-5.5-13.4C28.8 2 24 0 18.9 0 8.5 0 0 8.5 0 18.9c0 10.4 8.5 18.9 18.9 18.9 3.8 0 7.4-1.1 10.4-3.1L42 47.4c.7.7 1.9.7 2.7 0l2.7-2.7c.8-.7.8-1.9 0-2.6zM28.8 28.8c-2.6 2.6-6.1 4.1-9.8 4.1-7.7 0-13.9-6.2-13.9-13.9S11.3 5.1 19 5.1c3.7 0 7.2 1.4 9.8 4.1 2.6 2.6 4.1 6.1 4.1 9.8-.1 3.6-1.5 7.1-4.1 9.8z"
         id="path37" />
    </g>
    <linearGradient
       id="picture-gradient"
       x1="0"
       y1="0"
       y2="1"
       x2="0">
      <stop
         stop-color="#ffffff"
         offset="0%"
         id="stop40" />
      <stop
         stop-color="#e5eff9"
         offset="100%"
         id="stop42" />
    </linearGradient>
  </defs>
  <use
     xlink:href="#background"
     fill="url(#background-gradient)"
     id="use47" />
  <g
     mask="url(#mask)"
     id="g53">
    <g
       transform="             translate(                                 50 50 )                             translate(0 0)  scale(0.84) scale(-1 1)                              translate(                                 -50 -50 )"
       id="g51">
      <use
         xlink:href="#picture"
         fill="url(#picture-gradient)"
         id="use49" />
    </g>
  </g>
  <use
     xlink:href="#gloss-left"
     id="use55"
     opacity="1" />
  <path
     style="fill:#ffffff;stroke:none;stroke-width:0.78125px;stroke-linecap:butt;stroke-linejoin:miter;stroke-opacity:1;fill-opacity:1"
     d="M 0,0 33.333333,6.25 66.666666,-0.10593231 100,6.25 V 0 Z"
     id="path5487"
     inkscape:connector-curvature="0" />
  <path
     style="fill:#ffffff;stroke:none;stroke-width:0.78125px;stroke-linecap:butt;stroke-linejoin:miter;stroke-opacity:1;fill-opacity:1"
     d="M 0,90.625 33.333333,100 66.666666,90.625 100,100 H 0 Z"
     id="path5489"
     inkscape:connector-curvature="0" />
</svg>
