<?xml version="1.0" encoding="UTF-8"?>
<svg xmlns="http://www.w3.org/2000/svg" viewBox="0 0 100 100" height="256" width="256" version="1.1">
  <path d="M0,0 h100 v100 h-100z" fill="#35af6d"/>
  <path d="M42.71,66.19A2.5,2.5 0,0,1 39.32,67.2L5.08,48.69A2.5,2.5 0,0,1 5.48,44.12L33.27,34.85A2.5,2.5 0,0,0 34.85,33.27L44.12,5.48A2.5,2.5 0,0,1 48.69,5.08L67.2,39.32A2.5,2.5 0,0,1 66.19,42.71L61.79,45.09A2.5,2.5 0,0,1 58.4,44.08L50.88,30.15A2.5,2.5 0,0,0 46.3,30.55L42.76,41.18A2.5,2.5 0,0,1 41.18,42.76L30.55,46.3A2.5,2.5 0,0,0 30.15,50.88L44.08,58.4A2.5,2.5 0,0,1 45.09,61.79zM68.33,46.67A2.5,2.5 0,0,1 71.72,47.68L96.01,92.63A2.5,2.5 0,0,1 92.63,96.01L47.68,71.72A2.5,2.5 0,0,1 46.67,68.33L49.05,63.93A2.5,2.5 0,0,1 52.43,62.92L67.89,71.27A2.5,2.5 0,0,0 71.27,67.89L62.92,52.43A2.5,2.5 0,0,1 63.93,49.05z" fill="#fff" transform="scale(.79) translate(10.5,10.5)"/>
</svg>