<svg height="16" viewBox="0 0 16 16" width="16" xmlns="http://www.w3.org/2000/svg"><g transform="translate(0 -1033.3623)"><path d="m-1.324965 1048.2043 19.540255-16.9075" fill="none" stroke="#000" stroke-width="6.391706"/><g fill="#fff"><circle cx="2.5" cy="1044.8623" r=".5"/><circle cx="5.5" cy="1041.8623" r=".5"/><circle cx="11.5" cy="1035.8623" r=".5"/><circle cx="10.5" cy="1039.8623" r=".5"/><circle cx="7.5" cy="1038.8623" r=".5"/><circle cx="6.5" cy="1043.8623" r=".5"/><circle cx="-.5" cy="1045.8623" r=".5"/><circle cx="2.5" cy="1047.8623" r=".5"/><circle cx="15.5" cy="1035.8623" r=".5"/><circle cx="8.5" cy="1041.8623" r=".5"/><circle cx="2.5" cy="1042.8623" r=".5"/><circle cx="4.5" cy="1045.8623" r=".5"/><circle cx=".5" cy="1047.8623" r=".5"/><circle cx="6.5" cy="1040.8623" r=".5"/><circle cx="9.5" cy="1037.8623" r=".5"/><circle cx="12.5" cy="1037.8623" r=".5"/><circle cx="12.5" cy="1033.8623" r=".5"/><circle cx="14.5" cy="1033.8623" r=".5"/><circle cx="13.5" cy="1035.8623" r=".5"/><circle cx="4.5" cy="1040.8623" r=".5"/></g></g></svg>