<svg height="16" width="16" xmlns="http://www.w3.org/2000/svg"><g transform="translate(-350 -516.36218)"><path d="m350 516.36218h16v16h-16z" fill="#fff"/><path d="m357 516.36218h2v16h-2z"/><path d="m350 521.36218h16v2h-16z"/><path d="m355 521.36218c-2-3-2-3-2-3" fill="none" stroke="#000" stroke-linecap="square"/><path d="m351 517.36218h14v1h-14z"/><path d="m361 521.36218c2-3 2-3 2-3" fill="none" stroke="#000" stroke-linecap="square"/><g transform="translate(0 1)"><path d="m364 523.36218a1 1 0 1 1 -2 0 1 1 0 1 1 2 0z"/><path d="m354 523.36218a1 1 0 1 1 -2 0 1 1 0 1 1 2 0z"/></g></g></svg>