<svg height="171.37407" width="205.20241" xmlns="http://www.w3.org/2000/svg"><g transform="matrix(.67159997 0 0 .67159997 -139.83208 -473.8263)"><path d="m483.94 785.96.72 162.14c-20.18 13.47-96.13 17.81-133.93.35l-2.14-162.85c5.37 10.35 97.9 18.53 135.35.36z" fill="#a70432" stroke="#000" stroke-linecap="round" stroke-linejoin="bevel" stroke-width="1.489"/><path d="m486.07143 450.39789c0 6.80494-31.65986 12.32143-70.71428 12.32143s-70.71429-5.51649-70.71429-12.32143 31.65987-12.32143 70.71429-12.32143 70.71428 5.51649 70.71428 12.32143z" fill="#d4043f" stroke="#000" stroke-linecap="round" stroke-linejoin="bevel" stroke-width="1.7915" transform="matrix(.975 0 0 .70851 11.309 468.07)"/><path d="m486.07143 450.39789c0 6.80494-31.65986 12.32143-70.71428 12.32143s-70.71429-5.51649-70.71429-12.32143 31.65987-12.32143 70.71429-12.32143 70.71428 5.51649 70.71428 12.32143z" fill="#d4043f" stroke="#000" stroke-linecap="round" stroke-linejoin="bevel" stroke-width="2.037" transform="matrix(.92822 0 0 .57567 29.347 527.47)"/><path d="m433.87 779.65c-29.76-.92-39.5 7.63-22.4 11.63 4.2.98 10 1.68 17.52 1.91" fill="none" stroke="#000" stroke-width="1.489"/><path d="m-328.67 746.35-.17 132.65c-.51 4.1-5.53 13.07-19.71 22.05l-.78-154.7c3.36-3.16 18.78-5.78 20.66 0z" fill="#a70432" stroke="#000" stroke-linecap="round" stroke-linejoin="bevel" stroke-width="1.4892" transform="matrix(.75047 -.6609 .67842 .73467 0 0)"/><path d="m266.69 725.94c3.71 2.35 3.03 30.54-13.01 46.42s-40.49 14.19-44.21 11.84" fill="#a70432" stroke="#000" stroke-linecap="round" stroke-linejoin="bevel" stroke-width="1.489"/><path d="m369.74 785.97c-.46-39.87 6.78-69.3 53.59-70.69 51.08 3.02 88.09 20.83 79.77 62.94-6.62 20.5-12.23 33.52-18.86 54.02-2.82 9.76-2.88 18.39-.38 28.15 10.96-33.08 12.87-27.47 29.13-92.65-1.02-5.64-1.45-18.46-4.17-23.31-24.16-43.14-108.54-52.07-138.84-14.66-7.18 8.18-13.06 40.29-11.18 56.38 5.38 1.96 8.6.14 10.94-.18z" fill="#a70432" fill-rule="evenodd" stroke="#000" stroke-width="1.489"/><path d="m219.82135 430.57648c0 23.60201-1.1992 42.73523-2.6785 42.73523-1.47929 0-2.6785-19.13322-2.6785-42.73523 0-23.60202 1.19921-42.73524 2.6785-42.73524 1.47106 0 2.66683 18.9287 2.67842 42.39865" fill="#d4043f" stroke="#000" stroke-linecap="round" stroke-linejoin="bevel" stroke-width="1.4828" transform="matrix(.92073 .56745 -.67232 .68088 327.43 338.67)"/><path d="m424.15 780.12c-5.66.05-11.39.77-16.73 2.7-1.57.7-3.63 1.51-4.06 3.38.17 1.8 2.14 2.67 3.58 3.34 6.75 2.59 14.12 2.95 21.26 3.36.57-.1.72.6 1.33.45 11.67-.26 23.35-.92 34.95-2.25 4.81-.69 9.76-1.24 14.29-3.03.75-.25 1.95-1.17 1.08-1.96-2.05-1.49-4.71-1.78-7.12-2.4-11.7-2.27-23.65-2.74-35.53-3.32-4.35-.17-8.7-.3-13.05-.27z" fill="#7e0325"/><path d="m375.56 817.99-67.88-.9 3.39 3.93 64.14.36z" fill="#a70432" fill-rule="evenodd" stroke="#000" stroke-width="1.489"/><path d="m260.37 766.24 91.92 109.09" fill="none" stroke="#000" stroke-width="1.489"/><path d="m280.46 789.21c.39 1.32 1.82 2.25 2.57 3.44 22.7 27.12 45.48 54.18 68.36 81.16 1 .23.39-1.37.47-1.9-.32-3.02-.72-6.27-2.88-8.57-8.6-10.23-17.91-19.86-26.91-29.76-13.7-14.83-27.32-29.73-41.14-44.44-.19-.17-.32-.07-.47.07z" fill="#7e0325" stroke="#000" stroke-linecap="round" stroke-linejoin="bevel" stroke-width="1.489"/><path d="m464.42 721.79c17.79 1.74 29.38 11.21 39.14 22.98 13.47 29.17-9.45 66.53-20.71 101.27" fill="none" stroke="#000" stroke-width="1.489"/><path d="m469.17 722.85c-.52.93 1.37 1.06 1.87 1.47 11.97 4.7 23.5 12.31 29.27 24.12 2.99 5.88 4.22 12.46 4.01 19.04.11 4.81-.52 9.6-2.17 14.12-5.69 17.62-12.74 34.79-18.09 52.52-.94 3.42-1.67 6.99-1.53 10.52 1.12-.19 1-2.26 1.63-3.14 5.53-15.47 12.14-30.56 17.43-46.13 4.01-12.83 7.46-26.5 5.01-39.99-1.01-4.63-2-9.7-5.54-13.12-7.07-7.83-15.52-14.91-25.78-17.98-1.99-.53-4.05-1.39-6.11-1.43z" fill="#7e0325" stroke="#000" stroke-linecap="round" stroke-linejoin="bevel" stroke-width="1.489"/><g transform="translate(0 1.0102)"><path d="m352.08 826.07c44.18 9.93 86.89 9.16 128.21-1.71" fill="none" stroke="#000" stroke-width="1.489"/><path d="m352.08 827.92c44.18 9.93 86.89 9.16 128.21-1.71" fill="none" stroke="#000" stroke-width="1.489"/><path d="m478.64 825.02c-2.8.49-5.47 1.32-8.25 1.86-22.51 5.03-46.45 7.19-70.11 5.95-15.39-.75-30.61-2.89-45.34-5.98-.71-.05-1.91-.59-2.37 0-.06.52-.07 1.24.96 1.22 18.7 4.08 38.27 6.49 57.93 6.68 21.94.09 43.89-2.51 64.51-7.63 1.14-.33 2.44-.49 3.47-.93.03-.41.2-1.27-.8-1.17z" fill="#65021e"/></g><g transform="translate(0 1.0102)"><path d="m352.43 833.43c43.44 9.68 85.61 7.25 127.15-1.22" fill="none" stroke="#000" stroke-width="1.489"/><path d="m352.43 835.28c43.44 9.68 85.61 7.26 127.15-1.22" fill="none" stroke="#000" stroke-width="1.489"/><path d="m478.61 832.62c-4 .62-7.91 1.53-11.91 2.16-16.75 2.84-33.92 4.69-51.2 4.98-10 .09-20.02-.11-29.93-1.05-10.45-.91-20.73-2.53-30.81-4.61-.62-.16-1.87-.28-1.8.41-.44.96 1.2.92 2.09 1.17 17.25 3.68 35.33 5.59 53.41 5.68 23.57.17 47.01-2.64 69.57-7.14.99-.06 1.77-.4 1.41-1.15.01-.3-.42-.49-.83-.45z" fill="#65021e"/></g><path d="m353.86 840.69c41.54 8.2 83.59 7.56 126.07-.49" fill="none" stroke="#000" stroke-width="1.489"/><path d="m353.86 842.54c41.54 8.2 83.59 7.56 126.07-.49" fill="none" stroke="#000" stroke-width="1.489"/><path d="m478.84 840.6c-6.18 1.01-12.33 2.13-18.58 2.92-29.27 3.99-59.71 4.3-89 .21-5.88-.79-11.67-1.84-17.47-2.88-.78.12-.37.92-.45 1.33.05.58 1.09.26 1.61.46 7.41 1.28 14.85 2.58 22.41 3.42 12.02 1.38 24.19 2.25 36.39 2.09 8.23-.02 16.49-.12 24.67-.81 13.76-1 27.38-2.8 40.72-5.3.35-.33.46-.99.1-1.36-.11-.06-.26-.09-.4-.08z" fill="#65021e"/><path d="m350.36 944.51c53.52 14.72 99.61 17.3 134.64-1.79" fill="none" stroke="#000" stroke-width="1.489"/><path d="m350.36 941.22c53.52 14.72 99.61 17.31 134.64-1.79" fill="none" stroke="#000" stroke-width="1.489"/><g fill="#65021e"><path d="m483.81 940.35c-18.89 9.69-40.46 13.29-61.61 12.78-24.04-.42-47.69-5.26-70.86-11.36-.83.78-.64 2.81.79 2.94 20.73 5.54 41.9 9.97 63.37 11.02 13.18.11 26.51.4 39.44-2.54 10.04-2.08 19.99-5.31 28.93-10.31.66-.5.82-2.32-.06-2.53z"/><path d="m235.89286 410.04074c0 1.28209-.67957 2.32143-1.51786 2.32143s-1.51786-1.03934-1.51786-2.32143.67957-2.32143 1.51786-2.32143 1.51786 1.03934 1.51786 2.32143z" transform="matrix(.7154983145 -.3814921842 -.856503166 .9547427026 431.19261245 441.044178172)"/><path d="m235.89286 410.04074c0 1.28209-.67957 2.32143-1.51786 2.32143s-1.51786-1.03934-1.51786-2.32143.67957-2.32143 1.51786-2.32143 1.51786 1.03934 1.51786 2.32143z" transform="matrix(.7154983145 -.3814921842 -.856503166 .9547427026 438.625186125 434.51417211)"/><path d="m235.89286 410.04074c0 1.28209-.67957 2.32143-1.51786 2.32143s-1.51786-1.03934-1.51786-2.32143.67957-2.32143 1.51786-2.32143 1.51786 1.03934 1.51786 2.32143z" transform="matrix(.7154983145 -.3814921842 -.856503166 .9547427026 446.749148075 427.119443402)"/><path d="m235.89286 410.04074c0 1.28209-.67957 2.32143-1.51786 2.32143s-1.51786-1.03934-1.51786-2.32143.67957-2.32143 1.51786-2.32143 1.51786 1.03934 1.51786 2.32143z" transform="matrix(.7154983145 -.3814921842 -.856503166 .9547427026 440.572802 435.83901496)"/><path d="m235.89286 410.04074c0 1.28209-.67957 2.32143-1.51786 2.32143s-1.51786-1.03934-1.51786-2.32143.67957-2.32143 1.51786-2.32143 1.51786 1.03934 1.51786 2.32143z" transform="matrix(.7154983145 -.3814921842 -.856503166 .9547427026 433.21318475 442.07166942)"/><path d="m235.89286 410.04074c0 1.28209-.67957 2.32143-1.51786 2.32143s-1.51786-1.03934-1.51786-2.32143.67957-2.32143 1.51786-2.32143 1.51786 1.03934 1.51786 2.32143z" transform="matrix(.7154983145 -.3814921842 -.856503166 .9547427026 427.430714 446.45420788)"/><path d="m235.89286 410.04074c0 1.28209-.67957 2.32143-1.51786 2.32143s-1.51786-1.03934-1.51786-2.32143.67957-2.32143 1.51786-2.32143 1.51786 1.03934 1.51786 2.32143z" transform="matrix(.7154983145 -.3814921842 -.856503166 .9547427026 421.19538485 451.540256756)"/><path d="m235.89286 410.04074c0 1.28209-.67957 2.32143-1.51786 2.32143s-1.51786-1.03934-1.51786-2.32143.67957-2.32143 1.51786-2.32143 1.51786 1.03934 1.51786 2.32143z" transform="matrix(.7154983145 -.3814921842 -.856503166 .9547427026 415.755207625 455.89685611)"/><path d="m235.89286 410.04074c0 1.28209-.67957 2.32143-1.51786 2.32143s-1.51786-1.03934-1.51786-2.32143.67957-2.32143 1.51786-2.32143 1.51786 1.03934 1.51786 2.32143z" transform="matrix(.7154983145 -.3814921842 -.856503166 .9547427026 426.6726525 449.97305888)"/><path d="m235.89286 410.04074c0 1.28209-.67957 2.32143-1.51786 2.32143s-1.51786-1.03934-1.51786-2.32143.67957-2.32143 1.51786-2.32143 1.51786 1.03934 1.51786 2.32143z" transform="matrix(.7154983145 -.3814921842 -.856503166 .9547427026 421.133172 453.84454088)"/><path d="m235.89286 410.04074c0 1.28209-.67957 2.32143-1.51786 2.32143s-1.51786-1.03934-1.51786-2.32143.67957-2.32143 1.51786-2.32143 1.51786 1.03934 1.51786 2.32143z" transform="matrix(.7154983145 -.3814921842 -.856503166 .9547427026 411.49415525 461.93776426)"/><path d="m235.89286 410.04074c0 1.28209-.67957 2.32143-1.51786 2.32143s-1.51786-1.03934-1.51786-2.32143.67957-2.32143 1.51786-2.32143 1.51786 1.03934 1.51786 2.32143z" transform="matrix(.7154983145 -.3814921842 -.856503166 .9547427026 404.644752 467.5294268)"/><path d="m235.89286 410.04074c0 1.28209-.67957 2.32143-1.51786 2.32143s-1.51786-1.03934-1.51786-2.32143.67957-2.32143 1.51786-2.32143 1.51786 1.03934 1.51786 2.32143z" transform="matrix(.7154983145 -.3814921842 -.856503166 .9547427026 413.407758 461.65152392)"/><path d="m235.89286 410.04074c0 1.28209-.67957 2.32143-1.51786 2.32143s-1.51786-1.03934-1.51786-2.32143.67957-2.32143 1.51786-2.32143 1.51786 1.03934 1.51786 2.32143z" transform="matrix(.7154983145 -.3814921842 -.856503166 .9547427026 402.078804 471.870964)"/><path d="m235.89286 410.04074c0 1.28209-.67957 2.32143-1.51786 2.32143s-1.51786-1.03934-1.51786-2.32143.67957-2.32143 1.51786-2.32143 1.51786 1.03934 1.51786 2.32143z" transform="matrix(.7154983145 -.3814921842 -.856503166 .9547427026 403.06703925 472.54911142)"/><path d="m235.89286 410.04074c0 1.28209-.67957 2.32143-1.51786 2.32143s-1.51786-1.03934-1.51786-2.32143.67957-2.32143 1.51786-2.32143 1.51786 1.03934 1.51786 2.32143z" transform="matrix(.7154983145 -.3814921842 -.856503166 .9547427026 406.20344625 470.82460526)"/><path d="m235.89286 410.04074c0 1.28209-.67957 2.32143-1.51786 2.32143s-1.51786-1.03934-1.51786-2.32143.67957-2.32143 1.51786-2.32143 1.51786 1.03934 1.51786 2.32143z" transform="matrix(.7154983145 -.3814921842 -.856503166 .9547427026 419.607644 457.92349676)"/><path d="m235.89286 410.04074c0 1.28209-.67957 2.32143-1.51786 2.32143s-1.51786-1.03934-1.51786-2.32143.67957-2.32143 1.51786-2.32143 1.51786 1.03934 1.51786 2.32143z" transform="matrix(.7154983145 -.3814921842 -.856503166 .9547427026 396.08561575 478.57326726)"/></g></g></svg>