<svg height="188" width="188" xmlns="http://www.w3.org/2000/svg"><path d="m0 0h188v188h-188z" fill="#ff0"/><g transform="matrix(.4735274 0 0 .6014868 -8.684166 -66.089097)"><path d="m29.741704 379.69056c-.4669-1.04266 61.29292-114.85091 62.05371-115.34182 1.5877-1.0245 36.785516 17.06655 40.306356 20.71675l25.13565 38.34879 3.48423 87.32703c-13.02813 0-17.76523-5.33383-22.77274-13.14319l-4.63746-63.35681s-28.09223-40.97267-28.55032-40.23899c-5.474396 8.76787-55.283016 99.21259-64.630926 113.59427-.29312.45096-10.3885-1.40053-10.3885-27.90603zm148.345566 23.46557c2.09357-3.46441 39.97002-48.44687 44.22449-49.9334 11.50526-4.02 19.75677-15.64212 41.36647-41.91558 12.09378-14.70384 34.19341-13.0782 40.94003-5.32498 9.91433 11.39355 81.99152 104.52911 76.31337 104.53545 0 0-194.99151.22369-200.38246.22369-5.46531 0-4.91055-3.53317-2.4619-7.58518zm-1.54526-98.65145c-1.54019-.01217-2.06295 9.01284-6.83179 9.25028-3.87181.19278-11.37156-9.22398-12.85043-12.73153-.7462-1.76984-1.87038-6.72942-.90748-12.05174.16703-.92324-18.12327-8.7033-13.51123-18.08075 4.48307-9.11522 12.0418-.30306 14.44497 1.55229 2.16915 1.67468.74582-35.23667-.71399-33.67296-.24185.25907-21.25752 38.97104-21.71873 38.97104-1.60463 0-38.407746-19.87243-38.759956-20.92906-.19503-.58509 33.844286-65.43582 32.720256-66.14737-1.60161-1.01388-19.88485-1.25441-22.3863-.29451-1.83776.70522-14.524266 25.31715-14.524266 28.17722 0 1.05736 12.999996 12.70711 12.999996 13.26289 0 1.33648-3.89012 8.93083-4.574716 8.93083-.29373 0-14.6836-12-14.93656-12s-6.86545 12-7.29071 12l-10.60651-9.98343.14693-17.51657 27.18412-44.5s71.287656.08856 75.576596 2.1046c5.84011 2.74518 9.56919 7.1097 11.87654 13.90033 1.85029 5.44547-4.07222 104.62232-3.74668 105.47067.32554.84834 58.37099 50.24964 58.37099 50.93311 0 1.90014-4.38579 5.59833-6.56445 5.53527-1.06455-.0308-52.72845-42.17533-53.3966-42.18061z"/><path d="m224.14325 146.866c5.5194 11.9728.31446 25.87451-11.51397 31.25366-11.82843 5.37913-25.82329.20876-31.23847-11.541-5.41506-11.74977-.21012-25.65149 11.61831-31.03064 11.74934-5.34315 25.63208-.29646 31.13413 11.31798z" style="fill-rule:evenodd;stroke:#000;stroke-width:1.187826;stroke-linecap:round;stroke-linejoin:round;stroke-miterlimit:6.5"/></g></svg>