<svg height="160" viewBox="0 0 160 160" width="160" xmlns="http://www.w3.org/2000/svg"><g fill="#be9c20" transform="translate(-83.340282 -625.40202)"><g stroke="#000"><path d="m212.91146 645.13664s4.50044.1411 6.51861-.52273c7.07012-2.32547 17.63924-12.93844 17.63924-12.93844s-11.12663 11.18073-13.69422 17.43001c-.77563 1.88777-.86617 6.21898-.86617 6.21898z" stroke-width="1.172705"/><path d="m192.26014 654.62034s-2.17453-4.20403-2.54317-6.42159c-1.29154-7.76858 2.73048-22.64349 2.73048-22.64349s-4.2408 15.66316-8.27992 20.95453c-1.22015 1.59842-4.79148 3.66378-4.79148 3.66378z" stroke-width="1.172705"/><path d="m158.47877 739.46578s3.82036 2.87246 5.98083 3.64031c7.56858 2.69006 23.27287 1.60514 23.27287 1.60514s-16.53755 1.14781-22.61083 4.038c-1.83463.87306-4.57753 3.91629-4.57753 3.91629z" stroke-width="1.172705"/><path d="m129.33934 710.31015s-2.87085-3.82247-3.63828-5.98416c-2.68857-7.57278-1.60427-23.28581-1.60427-23.28581s-1.14716 16.54676-4.03573 22.62341c-.8726 1.83565-3.91413 4.58008-3.91413 4.58008z" stroke-width="1.172705"/><path d="m138.93229 759.02281s3.82038 2.87243 5.98084 3.64029c7.56858 2.69005 23.27286 1.60515 23.27286 1.60515s-16.53754 1.14782-22.61084 4.03799c-1.83463.87307-4.57752 3.91631-4.57752 3.91631z" stroke-width="1.172705"/><path d="m109.79425 729.86857s-2.87084-3.82249-3.63827-5.98415c-2.68858-7.5728-1.60426-23.28583-1.60426-23.28583s-1.14719 16.54676-4.03578 22.62342c-.872569 1.83565-3.914116 4.58008-3.914116 4.58008z" stroke-width="1.172705"/><path d="m178.02433 719.90903s3.82036 2.87246 5.98083 3.64031c7.5686 2.69006 23.27287 1.60516 23.27287 1.60516s-16.53755 1.14781-22.61083 4.03798c-1.83463.87308-4.57753 3.91631-4.57753 3.91631z" stroke-width="1.172705"/><path d="m148.88627 690.75482s-2.87084-3.8225-3.63825-5.98417c-2.68856-7.57279-1.60428-23.2858-1.60428-23.2858s-1.14718 16.54674-4.03575 22.6234c-.87258 1.83566-3.91412 4.58007-3.91412 4.58007z" stroke-width="1.172705"/><path d="m197.57043 700.35225s3.82036 2.87246 5.98084 3.64031c7.56858 2.69007 23.27287 1.60517 23.27287 1.60517s-16.53756 1.14781-22.61085 4.038c-1.83463.87306-4.57752 3.91628-4.57752 3.91628z" stroke-width="1.172705"/><path d="m168.43263 671.19827s-2.87085-3.82249-3.63827-5.98417c-2.68858-7.57276-1.60429-23.2858-1.60429-23.2858s-1.14716 16.54676-4.03574 22.62342c-.87259 1.83565-3.91414 4.58005-3.91414 4.58005z" stroke-width="1.172705"/><path d="m214.13797 676.51033s4.20169 2.17573 6.41802 2.54458c7.76429 1.29227 22.63091-2.732 22.63091-2.732s-15.65445 4.24317-20.94288 8.28454c-1.59755 1.2208-3.66176 4.79413-3.66176 4.79413z" stroke-width="1.172705"/></g><path d="m206.98899 661.8575-119.999089 119.89493" stroke="#be9c20" stroke-linecap="round" stroke-width="7.226217"/><ellipse cx="-337.67847" cy="601.14008" rx="19.058048" ry="10.790477" stroke="#000" stroke-width="1.17273" transform="matrix(.6783886 -.73470328 .72837859 .68517489 0 0)"/><ellipse cx="-21.770065" cy="763.86871" rx="19.943933" ry="10.382498" stroke="#000" stroke-width="1.17678" transform="matrix(.99466876 -.10312155 .21916819 .97568709 0 0)"/><ellipse cx="-683.56543" cy="-196.46759" rx="19.954781" ry="10.377286" stroke="#000" stroke-width="1.176804" transform="matrix(.10300826 -.9946805 -.97563497 -.21940009 0 0)"/><ellipse cx="-45.290211" cy="781.42719" rx="19.943933" ry="10.382498" stroke="#000" stroke-width="1.17678" transform="matrix(.99466876 -.10312155 .21916819 .97568709 0 0)"/><ellipse cx="-707.09918" cy="-178.9191" rx="19.954781" ry="10.377286" stroke="#000" stroke-width="1.176804" transform="matrix(.10300826 -.9946805 -.97563497 -.21940009 0 0)"/><ellipse cx="1.74908" cy="746.31036" rx="19.943933" ry="10.382498" stroke="#000" stroke-width="1.17678" transform="matrix(.99466876 -.10312155 .21916819 .97568709 0 0)"/><ellipse cx="-660.03436" cy="-214.01826" rx="19.954781" ry="10.377286" stroke="#000" stroke-width="1.176804" transform="matrix(.10300826 -.9946805 -.97563497 -.21940009 0 0)"/><ellipse cx="25.268785" cy="728.75214" rx="19.943933" ry="10.382498" stroke="#000" stroke-width="1.17678" transform="matrix(.99466876 -.10312155 .21916819 .97568709 0 0)"/><ellipse cx="-636.50208" cy="-231.56821" rx="19.954781" ry="10.377286" stroke="#000" stroke-width="1.176804" transform="matrix(.10300826 -.9946805 -.97563497 -.21940009 0 0)"/><ellipse cx="-77.089272" cy="719.68994" rx="19.52467" ry="10.579907" stroke="#000" stroke-width="1.175358" transform="matrix(.95527756 -.29571066 .38500414 .92291484 0 0)"/><ellipse cx="-546.38837" cy="-371.90137" rx="19.533619" ry="10.575773" stroke="#000" stroke-width="1.175398" transform="matrix(.29541098 -.95537027 -.92276273 -.38536858 0 0)"/></g></svg>