<svg height="16" viewBox="0 0 16 16" width="16" xmlns="http://www.w3.org/2000/svg"><g transform="translate(0 -1036.3622)"><path d="m0 1036.3622h16v16h-16z" fill="#6ace6a" fill-rule="evenodd"/><path d="m3.9996529 1036.3731-3.9739294 3.5806h.79478065v5.3708h2.38436295v-2.7294h1.6440693l.0000051 2.7294h2.3298605v-5.3708h.7947858z" fill="#7c3c11" fill-rule="evenodd" stroke="#000" stroke-width=".021291"/><g transform="matrix(.99999983 0 0 1.001178 2.000001 3.778057)"><path d="m8.1107127 1037.3621-1.0610248 3.8423-5.048498.5092-.00119 2.8581s1.9439315-.017 6.0511112-.017c.1430592 1.601 1.4544383 2.7956 2.9684849 2.7956 1.597498 0 2.980406-1.3547 2.980406-3.0788 0-1.3793-.870279-2.5123-2.038598-2.9187v-3.9779h-3.8506843z"/><path d="m8.718716 1038.1256h2.420089v3.0666l-3.23076.024.810671-3.0787z" fill="#fff"/><path d="m11.007668 1043.0395c.762984 0 1.216005.5788 1.216005 1.2315s-.453021 1.2315-1.216005 1.2315c-.762985 0-1.2160071-.5788-1.2160071-1.2315s.4530221-1.2315 1.2160071-1.2315z" fill="#fff"/><circle cx="4.497292" cy="1045.5714" r="1.778922"/><circle cx="4.497292" cy="1045.5714" fill="#fff" r=".917136"/></g></g></svg>