<svg height="16" viewBox="0 0 16 16" width="16" xmlns="http://www.w3.org/2000/svg"><g transform="translate(0 -1036.3622)"><path d="m0 1036.3622h16v16h-16z" fill="#fff"/><g transform="matrix(.01388464 0 0 .01388464 .628858 1037.1303)"><path d="m55.335442 781.58875c-2.393163-176.41026-11.965813-24.61539 94.358978-286.15385 76.92307-177.77778-1.02564-129.91453 396.92307-136.41026 354.18803 7.17949 282.73504-44.10256 364.10256 144.61539 101.88035 241.7094 94.01715 115.21367 93.33335 272.82051-3.7607 172.99145 60.171 128.54701-475.89745 134.35898-531.965809-7.17948-469.059829 37.94871-472.820508-129.23077zm107.692298-170.25641 72.82052-168.20513c13.58658-29.87865 9.25188-25.46798 41.02564-25.64103l509.12314-.0549c27.56146.1013 23.51799-1.68829 34.87179 24.61539l72.41532 167.23435-730.25641 2.05129zm-52.07976 318.78443 136.18233-.3039c-.41785 170.97813 13.75119 161.44353-60.51282 162.54513-88.433044-.3419-74.45394 8.585-75.66951-162.24123zm701.31053 1.21557h136.41026c-.91168 171.24406 11.54796 159.54416-65.64103 159.99996-79.81007-1.0636-69.66762 11.548-70.76923-159.99996z" fill-rule="evenodd"/><g fill="#fff"><circle cx="178.66878" cy="737.17847" r="66.5"/><circle cx="878.66876" cy="737.17847" r="66.5"/></g></g><path d="m.96327773 1040.8213 6.99500047-2.9471 6.9949998 2.9471" fill="none" stroke="#000" stroke-width="1.712306"/></g></svg>