<svg height="16" viewBox="0 0 15 16" width="15" xmlns="http://www.w3.org/2000/svg"><g transform="translate(0 -1036.3622)"><rect fill="#c1f0b5" fill-rule="evenodd" height="14.964996" ry="1.468807" stroke="#000" stroke-linecap="round" stroke-width="1.035004" width="13.964996" x=".517502" y="1036.8798"/><path d="m1.8305419 1040.8177 5.7351736-2.4163 5.7351725 2.4163" fill="none" stroke="#000" stroke-width="1.403913"/><g fill="#faaf00" fill-rule="evenodd"><circle cx="7.50035" cy="1045.8622" r="2.5"/><g><rect height="2" ry=".5" width="1" x="7.00035" y="1040.3622"/><rect height="2" ry=".5" width="1" x="7.00035" y="1049.3622"/><rect height="1.00007" ry=".500035" width="2" x="11.00035" y="1045.3622"/><rect height="1.00007" ry=".500035" width="2" x="2.00035" y="1045.3622"/><g transform="matrix(.70710678 -.70710678 .70710678 .70710678 0 0)"><rect height="2" ry=".5" width="1" x="-734.73267" y="739.33978"/><rect height="2" ry=".5" width="1" x="-734.73267" y="748.33978"/><rect height="1.00007" ry=".500035" width="2" x="-730.73267" y="744.33978"/><rect height="1.00007" ry=".500035" width="2" x="-739.73267" y="744.33978"/></g></g></g></g></svg>