<svg height="16" viewBox="0 0 16 16" width="16" xmlns="http://www.w3.org/2000/svg"><g transform="translate(0 -1036.3621)"><path d="m.58657473 1051.8611h15.00000227s-2.207106-3.5-3.207106-4.5-3.3605066-3.3512-5.3794702-2.9885c-3.2347189.5811-3.2962021 4.5644-6.41342607 7.4885z" fill="#d2691e" fill-rule="evenodd"/><path d="m7.3710938 7.4707031c-.1522693.0037893-.3054944.0193-.4589844.046875-1.8125041.3256-2.772696 1.6516819-3.5976563 3.1132809-.8249601 1.4616-1.5931297 3.118307-3.07031248 4.503907l-.24414062.228515v.636719h.5859375 15.4140625v-.783203c-.008973-.014205-.552124-.873567-1.228516-1.873047-.681953-1.0076-1.462878-2.123019-2.039062-2.699219-.500549-.5006-1.359843-1.3607998-2.376953-2.0624998-.8899718-.6139873-1.9184909-1.1378529-2.9843752-1.1113281zm.34375 1.0234375c.6552661.0859453 1.3838527.4372096 2.0722656.9121094.9178836.6332 1.7388296 1.447766 2.2382816 1.947266.423815.4238 1.246369 1.558381 1.917968 2.550781.395376.5842.495609.749103.71875 1.095703h-13.0410152c1.1285794-1.323 1.9122215-2.723406 2.5644531-3.878906.7937664-1.4064002 1.4801301-2.3636409 2.9023437-2.6191409.1977605-.035525.408531-.0364609.6269532-.0078125z" fill="#d2691e" fill-rule="evenodd" transform="translate(0 1036.3621)"/><g fill-opacity=".893023"><path d="m-533.07709 904.95404h1.40625v1.40625h-1.40625z" transform="matrix(.85618767 -.51666495 .516665 .85618764 0 0)"/><path d="m44.132889 1037.7678h1.40625v1.40625h-1.40625z" transform="matrix(.9990994 .04243094 -.04243095 .9990994 0 0)"/><path d="m111.6073 1042.0021h1.40625v1.40625h-1.40625z" transform="matrix(.99503719 .09950371 -.09950372 .99503719 0 0)"/><path d="m-911.00604 523.46515h1.40625v1.40625h-1.40625z" transform="matrix(.49613898 -.86824312 .86824314 .49613894 0 0)"/><path d="m755.56451 721.45312h1.40625v1.40625h-1.40625z" transform="matrix(.69678574 .71727933 -.71727937 .6967857 0 0)"/></g><path d="m699.23071 764.93848h1.40625v1.40625h-1.40625z" fill="#d2691e" transform="matrix(.73994012 .67267274 -.67267278 .73994008 0 0)"/><path d="m-1028.5599-196.33882h1.406251v1.406251h-1.406251z" fill="#d2691e" transform="matrix(-.18884702 -.98200652 .98200652 -.188847 0 0)"/><path d="m-485.01459 922.5155h1.406251v1.40625h-1.406251z" fill="#d2691e" transform="matrix(.88311578 -.46915511 .46915515 .88311576 0 0)"/><path d="m-560.87421 877.91223h1.406251v1.40625h-1.406251z" fill="#d2691e" transform="matrix(.84227149 -.53905356 .5390536 .84227146 0 0)"/><path d="m709.27008 759.42615h1.40625v1.40625h-1.40625z" fill-opacity=".893023" transform="matrix(.73409949 .67904193 -.67904197 .73409945 0 0)"/><path d="m296.84924 999.92236h1.40625v1.40625h-1.40625z" fill-opacity=".893023" transform="matrix(.95938413 .28210298 -.28210301 .95938412 0 0)"/></g></svg>