<svg height="160" viewBox="0 0 160 160" width="160" xmlns="http://www.w3.org/2000/svg" xmlns:xlink="http://www.w3.org/1999/xlink"><linearGradient id="a" gradientTransform="matrix(.22492077 0 0 .65687594 -4.937887 -25569.329)" gradientUnits="userSpaceOnUse" x1="487.89999" x2="485.07999" y1="872.76001" y2="799.21997"><stop offset="0" stop-color="#fff" stop-opacity=".22857"/><stop offset="1" stop-color="#fff" stop-opacity="0"/></linearGradient><linearGradient id="b" gradientTransform="matrix(.63022447 0 0 .65687594 8.514456 -25337.531)" gradientUnits="userSpaceOnUse" x1="35.255001" x2="253.08803" y1="400.91" y2="400.91"><stop offset="0" stop-color="#e5e7e5"/><stop offset="1" stop-color="#e5e7e5" stop-opacity="0"/></linearGradient><g transform="translate(-23.026004 25140.54)"><g stroke-width=".643412"><path d="m25.254107-25006.957 19.265845-4.178 15.089718 4.178 8.645244-.03 1.887327 13.459-.811396-21.375 13.071235 4.237 15.874435-4.086c3.547905 1.412 9.798975 5.052 13.835945 5.025l22.16108.92c3.86579 21.48 1.53386 3.855 13.0001-2.739 6.42224-3.686 26.44924 4.375 31.81111 4.592v26.274h-153.831533l.000883-26.274z" fill="#484b2a"/><path d="m174.56599-25034.271c-.66173-.151-1.31086-.269-1.94739-.374-.37183-.08-.75627-.158-1.1218-.224 21.07583-38.323-12.42427-14.946 5.29389-25.801l.22058-1.255-.45377 1.399c-2.09234 1.36-4.16578 2.924-6.22661 4.657l.45376-2.377.39704-1.215-.25839.453.49157-2.569-1.3991 4.151-2.08604 3.653c-3.90109-.427-8.18031-1.892-12.03098-1.951l.52938-2.956.35293-1.13-.23318.434.45376-2.549-1.32347 4.106-1.19743 2.154c-2.35074.203-4.47459 1.064-6.20771 3.206 4.14688-7.213 8.64668-13.69 13.39227-18.662.72476-.723 1.43691-1.412 2.16797-2.069.86341.1 1.74572.23 2.64064.407-.78148-.263-1.55035-.499-2.30662-.696 1.76463-1.57 3.56077-2.943 5.37582-4.087-.15126.04-.30251.1-.45377.145.31512-.204.61762-.414.92643-.598-.8571.309-1.6953.69-2.5398 1.11-1.9537.71-3.86958 1.682-5.74765 2.897-.063-.01-.11974-.03-.17646-.05-6.13208-1.563-11.45118-1.044-16.07072 1.006-16.8207-3.081-27.67316 10.759-34.62454 28.35l.25209-3.448.41595-2.155c4.09646-7.277 8.54584-13.906 13.25362-19.049 2.84231-2.976 5.75395-5.492 8.74752-7.371-.14495.04-.28991.09-.43486.125.30251-.197.61762-.374.92643-.558-.8571.308-1.71421.67-2.55871 1.09-4.39266 1.59-8.57735 4.546-12.54777 8.461-9.71806 1.865-19.656694 9.781-28.813856 19.95l1.499934-7.68c.371833-.407.749967-.814 1.140707-1.209 1.065079-.269 2.149065-.499 3.270865-.656-.945337.02-1.871767.1-2.77929.183 3.472536-3.382 7.52487-6.062 12.28937-7.718-2.17427.467-4.2099 1.117-6.125775 1.912-1.392796-.762-2.754081-1.399-4.096459-1.912-2.16167-1.018-4.260318-1.727-6.302245-2.154 6.258129-5.426 14.041399-7.955 23.734249-5.583-1.65119-.638-3.23935-1.111-4.78971-1.459-10.480624-3.179-18.812192-.04-25.40434 6.608-3.170029.256-6.169897 1.215-9.018512 2.713-2.265027.519-4.383841 1.222-6.362746 2.096-4.88613 1.695-8.989522 4.329-12.446933 7.613.156295-1.097.22625-1.636.374353-2.666l.511742-2.812.354817-1.13-.236335.427.452502-2.542-.373723 1.189c1.021593-7.166 3.03264-21.309 3.03264-21.309l.492205-17.979.177723-1.215-.157556.453.07878-2.588-.610687 4.25-5.376445 16.323s-2.626146 19.437-4.904407 36.332l-2.10684 3.797s-.376875 1.215-.393891 1.274c-1.862313 3.587-3.350273 7.422-4.54959 11.351-15.80225 13.098-18.118955 45.942-18.118955 45.942l1.772191.224c-.0013.01-.01954.124-.01954.124l2.63938.329s1.057516-24.476 11.855783-39.479c-.465105 2.141-.853954 4.283-1.181671 6.385-4.560304 14.937-9.17859 30.164-9.315348 30.873l2.737695 1.255.01954-.04 2.63875 1.005c.0019 0 .01765-.08.02017-.09l1.51632.513c-.0044.03-.0397.19-.0397.19l3.289141 1.083s.13991-.788.354816-1.904l.472669.06c-.01323.119-.09768.769-.09895.802l1.811895.57v.07l.414057.06.315113.105v-.05l1.850969.289c.122894-.538 2.756602-18.72 5.632946-38.795 1.706648-4.492 3.613707-9.025 5.770335-13.361 1.506237-.276 3.094403-.427 4.765758-.414-.145582.454-.41973 1.275-.59052 1.807-8.193549 14.195-11.729738 31.537-13.136399 40.95-.995755 3.146-1.762108 5.57-1.811896 5.814l1.024115.492c-.02773.302-.05924.591-.05924.591l1.930378.579s.0271-.23.03907-.329l.256501.105c-.0063.07-.02017.283-.02017.283l1.930377.578s.01828-.09.01954-.105l.255871.105c.377505-.854 7.756803-23.517 13.155936-40.09-1.828911 7.929-3.099444 15.601-3.95844 22.025-5.092213 9.157-8.11414 15.536-8.11414 15.536l2.44212.946c-.01134.03-.157556.328-.157556.328l3.2299 1.255s.567833-1.11.945337-1.872c-.01639.275-.03907.702-.03907.702l2.284564.388c-.0013.02-.02017.184-.02017.184l3.407623.598s.185286-5.926 1.141967-14.682c1.227047-2.22 2.532872-4.526 3.998144-7.061-.204193 3.054-.30818 5.898-.334649 8.48-1.93794 6.076-3.372331 10.602-3.446698 10.964l2.166082 1.024.0397.02.531909.25.01954-.05 1.102893.453c.0025.03.01954.184.01954.184l.649762.09.847021.329c.0057-.01.06995-.204.07878-.23l.433595.05s-.03277-.473-.05924-1.15c.0668-.197.127935-.335.216797-.598.0668 1.006.117852 1.728.117852 1.728l1.988358.204s-.08823-3.351.08193-8.54c1.436912-4.368 3.327585-10.189 5.256072-16.093-.47897 3.449-.794083 6.739-1.002057 9.748-2.974659 7.376-3.901089 12.296-3.901089 12.296l2.186879.841c-.03151.158-.119743.493-.119743.493l1.518841.578c.03151 1.051.05672 1.786.05672 1.786l1.99151.302v-.184l.296205.07v.118l1.865465.27c0 .02-.07563.289-.07563.289l3.409514.591s.371833-1.281.806687-2.765l2.086043.611c-.0126.03-.138649.329-.138649.329l3.327585.964s.19537-.453.220579-.512l2.993566.512s-.0063-.506.01891-1.372l1.594468.531.119742.02.472669.164v-.04l2.754081.696c.01891-.06.17016-.801.239485-1.109l1.928482.328c0 .03-.0189.19-.0189.19l3.40321.591s.65543-19.929 5.53337-40.851c.31511-.571.63022-1.149.94534-1.721 2.32553 4.067 4.56912 8.553 6.71819 11.331-7.83999 15.851-12.60449 29.252-12.60449 29.252l1.87177.532c-.0315.1-.17647.493-.17647.493l3.32759.964s2.08604-5.898 5.72874-14.509c-.46006 5.655-.64283 9.905-.70585 12.027-.063.23-.31511 1.091-.31511 1.091l.27729.04c-.006.1 0 .407 0 .407l2.2247.288-.0189.07.0756.02v.118l3.03138.394.2962.06v-.02l.10084.02v-.348c.0189-.07.22058-.715.2962-.984l1.45582.249c-.0252.09-.11974.492-.11974.492l3.40951.591s.0756-.368.0945-.453l1.18482.453s.37183-.742.47267-.945l1.15961.354v-.05l2.01042.473.43485.164v-.08l.31511.08c.0189-.08.18277-.933.2773-1.391l.92013.427.0252-.04 2.63434 1.004c.0126-.03.13235-.394.15755-.473l.2584.05v.1l2.65954.328s.0189-.69.0945-1.7l1.36128.387c-.0126.03-.13865.349-.13865.349l3.32759.964s.47897-1.168.80669-1.989l2.09234.985.0189-.04 2.64064 1.043c.0189-.04.18907-.624.25209-.801l2.04823.801s.11974-.263.13865-.309l1.73311.309s.20798-.722.2584-.88l2.30032.88c.22057-.512 3.51035-11.108 7.10893-22.701 4.46829-7.975 9.99536-17.013 16.22828-25.454-13.178 21.874-21.78056 46.166-21.78056 46.166l1.87177.532c-.0315.1-.17647.493-.17647.493l3.32759.964c16.28916-34.748 17.10912-48.218 10.77053-1.602l2.26881.761.13865.04.45376.144v-.04l2.73518.696c.0126-.05.13865-.624.17646-.801l.13865.02c0 .03-.0189.191-.0189.191-3.01419-29.709-6.12759-43.45-4.03974-50.251zm-14.3187-39.13c.17647 0 .35293.02.5357.02-6.62997 4.605-12.72424 12.074-18.16307 20.817l.43485-8.231.23949-1.255-.20168.493.13865-2.628-.80668 4.316-5.37582 13.4c-2.20578 2.798-4.34224 5.781-6.37787 8.869-.31511-.05-.62392-.106-.92643-.145-.62392-.112-1.23524-.19-1.83395-.263 4.35485-14.924 11.37555-28.364 22.66917-33.336.99576.144 1.99151.322 3.03138.571-.8319-.322-1.63858-.591-2.43897-.841 2.76039-1.13 5.78546-1.754 9.07523-1.787zm-18.01811 2.116c-2.18058 1.412-4.18469 3.186-6.02495 5.254-6.78752 4.697-13.32294 11.89-19.30377 20.101 5.59009-12.94 13.66326-23.299 25.32872-25.355zm-25.2468 5.688c-1.09659 1.182-2.17427 2.424-3.23305 3.738l.2773-1.419-.63022 1.866c-.21428.275-.43486.545-.64913.821-.2584.08-.51679.144-.76888.23l.0189-.145.25839-1.274-.20167.492.0819-1.208c.32141-.243.64283-.473.96424-.703 1.29196-.881 2.59022-1.676 3.88218-2.398zm-27.830703.841c3.201541-.02 6.585846.598 10.140312 1.971-.220579.09-.447459.19-.668038.289-2.230995.781-4.304433 1.747-6.220315 2.89l.09453-.473.378135-1.084-.239485.407.491575-2.522-1.37389 4.066-.02521.04c-1.468423.926-2.854916 1.943-4.153179 3.06-3.226749.591-6.207711 1.636-8.961792 3.015 2.300319-4.381 4.947262-8.309 7.997549-11.515.838198-.1 1.676397-.138 2.539804-.144zm-16.014003.348c-8.117922 4.428-14.926237 13.354-20.460238 23.687.3649-2.555.398302-2.739.748707-5.19 4.589925-8.342 10.943217-15.173 19.711531-18.497zm38.758796 2.076-.44746 2.135c-.59871.204-1.17852.42-1.75832.657-.71846.223-1.41801.453-2.10495.716 1.43691-1.261 2.87382-2.431 4.31073-3.508zm-33.773721.328c-2.999868 4.231-5.552278 9.216-7.739787 14.596-.09831.09-.19789.178-.295575.263l2.130159-10.917c1.878069-1.557 3.844369-2.891 5.905203-3.942zm33.893471 2.359c-.0315.05-.063.1-.0945.144v-.09c.0315-.01.063-.04.0945-.06zm-.86341.473-.74997 1.746c-6.15099 8.685-11.570915 19.215-16.108531 29.58-3.630093 4.282-6.667775 8.559-9.182371 12.644 3.699418-17.006 11.142369-36.022 26.040872-43.97zm66.66514 1.93c-.68694.986-1.34868 2.004-2.01041 3.035-.0693.08-.15126.151-.21428.23l.271-1.504c.64913-.598 1.30456-1.196 1.95369-1.761zm-107.730563 1.084-6.892765 11.988-2.44212 7.555c-1.455188-.256-2.849875-.374-4.195404-.407 3.805295-7.397 8.291863-14.137 13.530289-19.136zm88.842743 2.772c2.48938-.05 5.14263.559 7.73915.782-1.48733 1.406-2.97466 2.871-4.43048 4.415-2.33813-.09-4.84012-.867-7.36732-1.708l.49158-2.812c1.1281-.466 2.32552-.65 3.56707-.677zm-74.4043.23c-7.77697 8.408-11.898638 20.278-14.025016 31.754-1.184822 1.846-2.347586 3.672-3.446067 5.459 1.733117-9.697 4.311366-20.325 8.156365-29.784 2.798197-2.948 5.905203-5.464 9.314718-7.429zm88.11168.821-4.11537 7.429c-.14495.204-.2899.414-.43485.618l.76887-4.006c1.24785-1.393 2.5146-2.753 3.78135-4.041zm-45.1997.592c-1.87807 4.263-3.47254 8.854-4.82752 13.591-1.82135.144-3.52926.506-5.13633 1.025 3.16373-5.118 6.49761-10.07 9.96385-14.616zm27.13746 3.37c2.26881.571 4.55023 1.189 6.77492 1.149-3.37801 3.652-6.65517 7.64-9.78739 11.758.29621-.953 1.69531-5.478 1.69531-5.478zm-7.85889 7.534c-.10714.361-1.37389 4.446-1.78984 5.806-.57351.184-1.1281.697-1.6764 1.603-.271.46-.53569.913-.80669 1.373 1.34868-2.976 2.77299-5.905 4.27293-8.782zm-18.09375 3.469c.60502-.01 1.21633.01 1.84656.04-1.61338 2.456-3.17003 4.972-4.66366 7.514.5672-2.522 1.20373-5.038 1.90958-7.514.2962-.01.59871-.03.90752-.04zm31.01335.348c-.17647.544-.74367 2.311-1.00206 3.119-.66174.256-1.29826.545-1.92849.861.96425-1.34 1.94109-2.667 2.93055-3.98zm-37.49836.616c-.52309 1.932-1.02726 3.876-1.47472 5.827-1.36759-1.438-2.71627-2.66-4.01453-3.449 1.67639-1.005 3.51035-1.813 5.48925-2.378zm49.08188 2.109c1.02727.01 2.09235.08 3.18894.21-1.99781 2.621-3.90109 5.328-5.74765 8.047.97685-3.166 1.99151-6.464 2.5209-8.172.0126-.03.0252-.05.0378-.08zm-56.03325 1.235c1.59446 1.616 3.22674 3.541 4.82751 5.479-.69324 3.27-1.27935 6.522-1.78983 9.689-1.91589-3.784-3.92-7.608-6.01234-10.346.87601-1.544 1.77093-3.081 2.67845-4.618.10084-.07.20167-.138.29621-.204zm42.22503 2.956c-.68064 2.122-1.10919 3.423-1.9852 6.155-.52939-1.124-1.03987-2.188-1.57556-3.179 1.10289-1.09 2.29401-2.095 3.56076-2.976zm-4.97877 4.473c.61762 1.294 1.22894 2.601 1.82765 3.863-7.33581 13.571-12.75574 26.151-15.28294 32.305.48527-3.902 1.38019-9.288 2.97466-15.003.43485-1.399.79408-2.601 1.24154-4.046 2.07344-6.156 5.02289-12.35 9.23909-17.119zm-24.18801 1.787c-.23319.565-.46007 1.123-.68695 1.682-.0504-.06-.0945-.125-.13865-.184.271-.5.5546-.999.8256-1.498zm-1.87177 3.469c.11344.105.22688.19.33402.289-1.61968 4.053-3.0944 8-4.41157 11.679.18906-1.675.39704-3.39.63022-5.15 1.10289-2.24 2.2373-4.506 3.44733-6.818zm-42.338475 19.298c-.743665 2.208-1.361285 4.146-1.953696 6.011.05042-.532.100836-1.038.157556-1.596.523086-1.38 1.109195-2.858 1.79614-4.415zm-4.669964 13.545c.0063.572.0063 1.032.01891 1.479-.08193.289-.163858.551-.214276.742 0-.447.0063-.867.01891-1.498.05042-.23.113441-.447.176463-.723z" fill="#4f6e32"/><path d="m85.048916-25140.494-.668038 4.579-5.86739 17.833s-3.579675 26.361-7.150527 52.879c-.05987 0-.117852-.01-.177093-.02-38.125429-6.956-40.137737 56.821-40.137737 56.821l1.949916.164c-.00063.01 0 .125 0 .125l2.875714.243s.0208-.71.05861-1.741l.453131.125c-.02332.177-.07878.551-.07878.551l3.623791 1.065s.08697-.881.334649-2.484l1.615265.618c-.04474.1-.236334.512-.236334.512l3.545013 1.354s9.870576-22.42 24.401661-44.175c-1.773451 13.203-3.417707 25.598-4.451275 33.422-.780848 4.827-1.078945 8-1.162134 8.946-.0082.08-.07752.637-.07878.657l1.969451.637v.07l.414058.06.373723.125v-.07l1.536487.25.255871.08v-.04l.236334.04c.04853-.211.508592-3.272 1.12243-7.49 1.436282-7.034 4.105913-18.155 8.624622-29.559.03781.04.06932.08.100836.125-1.304565 6.734-2.262506 11.732-3.428421 17.796-2.646943 8.269-4.777102 14.956-5.099777 16.112-.02458.05-.138019.27-.138019.27l.0397.02c-.0057.02-.05672.191-.05924.204l2.364603 1.13.138649.06.491575.23.01891-.05 2.854917 1.15s.01891-.05.01891-.06l.157556.06s.05672-.1.06302-.1l.289903.1c.0126-.02.100836-.335.119743-.388l1.575561.388c.0126-.03.11344-.506.138649-.611l1.594468.611s1.279356-8.145 6.812727-19.891c3.302376-5.84 7.241279-12.507 11.640246-19.397 1.172217-1.583 2.40746-3.193 3.72463-4.802-10.858771 16.967-11.69697 43.557-11.69697 43.557l1.947394.165v.124l2.873823.244s.132348-34.467 16.404743-49.778c1.60707 2.213 3.20784 4.972 4.75189 7.764-10.9659 20.501-17.829047 39.839-17.829047 39.839l2.029317.598c-.0315.09-.17646.512-.17646.512l3.62379 1.065s.15756-.421.19537-.533l1.36129.533s6.88835-14.176 17.33117-31.406c.69955.795 1.3928 1.413 2.06714 1.767-.0315-.06-.063-.124-.0945-.183.57981.617 1.15331 1.115 1.73312 1.411-.8382-1.497-1.6953-3.159-2.56501-4.88 3.92629-6.398 8.33156-13.151 13.02043-19.706-3.9326 11.751-5.28758 24.474-5.6342 34.466-4.02084 9.321-5.23717 15.699-5.23717 15.699l2.38225.926c-.0378.178-.11974.552-.11974.552l3.54816 1.354s.0567-.316.0756-.427l1.90958.223s-.16386-2.654-.15756-7.023c.0252-.08.0567-.164.0819-.243.11974 4.5.37183 7.246.37183 7.246l2.18688.224s-.24579-6.287.35293-15.497c3.17003-7.599 8.30005-17.301 16.44886-27.483-1.97891 6.135-2.75408 8.566-4.88424 15.206-6.7308 14.393-10.69491 25.599-10.69491 25.599l2.02932.598c-.0378.09-.19537.512-.19537.512l3.62379 1.065s.0882-.237.0945-.263l.88861.263s.25209-.611.29621-.717l1.78984.717c.21427-.487 3.24565-9.683 6.71819-20.278 2.15537-4.651 4.64475-9.82 7.42404-15.253-7.19086 18.727-11.2495 34.013-11.2495 34.013l2.8171.493c-.006.03-.11344.394-.11344.394l3.69942.631c26.9013-31.968-21.95885-2.718 5.19935-70.142 7.24125-.277-5.30915-1.474-7.50598-2.194 1.05248-1.451 2.16798-2.838 3.3528-4.145.0315-.03.063-.05.0945-.08s.0504-.07.0819-.1c1.85286-1.826 3.74353-3.508 5.609-5.07 10.35143-7.775 6.85999-13.432-14.98674 7.593-4.38006-1.091-8.56475-1.123-11.91124 2.871-3.43472 4.098-6.71189 8.637-9.78739 13.386-6.53542-.177-11.84822 1.918-16.19046 5.38-.11344-.05-.22688-.105-.33402-.144-.38444-.348-.76257-.637-1.14701-.887 9.05002-12.592 19.20294-24.423 29.28653-31.589 3.25826-2.221 6.52282-3.988 9.73067-5.216-.16386.01-.32772.03-.49158.05.35923-.145.72476-.309 1.08399-.434-.99576.145-1.99151.375-2.99357.657-11.72848 1.8-23.79097 11.844-34.70016 24.528-3.54816.368-7.41774-1.373-11.306225-3.035 5.659415-5.189 12.301985-8.881 20.085255-9.997-2.72257.05-5.30649.381-7.75807.946-4.55022.657-8.66558 2.108-12.390207 4.145l1.575561-8.191.415946-1.209-.25839.447.53569-2.766-1.51884 4.473-.07563.144.25209-1.457.397041-1.235-.258392.473.491575-2.792-1.455818 4.52-5.747648 10.365c-.472668-.131-.939034-.243-1.399098-.328l.964243-13.138.25209-1.255-.195369.473.195369-2.792-.964243 4.579-5.155236 12.192c-1.493632.401-2.949451 1.221-4.317038 2.607-1.392796 1.419-2.754081 2.903-4.115366 4.434 3.163727-22.156 6.459801-45.43 6.459801-45.43l.573504-19.64.176463-1.294-.157556.492zm59.619234 60.945c-4.30444 4.447-8.45131 9.433-12.40912 14.615-.32142-.06-.63023-.1-.94534-.144 2.40746-3.75 4.93466-7.377 7.56269-10.78 1.78354-2.312 3.73723-3.355 5.79177-3.691zm7.3043.782c8.01152 2.38 13.11979-2.471 7.95973 6.523 0 0-2.35073 7.31-3.25196 10.102-.79408.178-1.60077.657-2.40115 1.478-6.63626 6.733-11.76629 13.65-15.73671 20.114 2.10495-12.921 6.03755-27.261 13.43009-38.217zm-54.905153 3.757c3.945203 1.215 7.984943 3.173 11.949053 2.358-8.36938 9.847-16.03921 21.178-22.32885 31.445.100836-.328.11344-.322.214276-.657 4.625848-14.176 9.257997-28.41 9.257997-28.41zm12.522553 1.682c-.12604.144-.24579.302-.37183.453-.68064.03-1.34868-.01-2.02932-.105.81299 0 1.61967-.125 2.40115-.348zm-26.072379 2.811c-.06302.316-.548296 2.798-.674341 3.429-2.880125 4.033-5.338001 8.454-7.424044 13.013l-.03781-.06c.390739-2.726.686944-4.86 1.083986-7.619 2.281412-3.029 4.625847-5.978 7.052212-8.763zm-13.53092 5.708c.439267-.01.887986-.01 1.339227 0-.07121.526-.08697.657-.157556 1.189-.73043.953-1.453298 1.905-2.166712 2.871-.332128-.177-.654173-.315-.98441-.427-.591781-.44-1.168436-.795-1.753285-1.051-.428552-.25-.855214-.473-1.279986-.591-.598713-.467-1.183561-.808-1.772191-1.051 2.094866-.572 4.346028-.9 6.774913-.94zm61.133659.02c.32141.01.64913.05.98315.08-2.04823 2.687-4.04604 5.419-5.96823 8.171 1.60078-2.778 3.25827-5.55 4.98508-8.25zm-6.56064.407c-2.44527 3.843-4.75819 7.797-6.93247 11.745-1.72051-2.68-3.51665-4.802-5.3569-5.786 3.3906-2.943 7.43665-5.085 12.28937-5.959zm-66.923528 2.792c-10.635668 12.941-16.600112 25.979-19.871608 35.701 2.369644-12.828 7.736636-28.929 19.871608-35.701zm8.862217.145c.555227.565 1.09659 1.189 1.654339 1.872-14.649568 20.179-25.363384 42.776-27.651099 47.741 1.423677-7.928 6.257499-26.787 21.959542-47.13 1.308346-1.695 2.664589-2.45 4.037218-2.483z" fill="#1a6718" stroke="url(#b)"/></g><g transform="matrix(.63022447 0 0 .65687593 -43.821906 -25438.249)"><path d="m106.07 694.77s9.8-179.05 93.44-147.99c-81.83-19.19-87.38 149-87.38 149z" fill="#4e9a06"/><path d="m110.11 695.78s9.8-179.05 93.44-147.99c-81.83-19.19-87.38 149-87.38 149z" fill="#73d216"/></g><g transform="matrix(.63022447 0 0 .65687593 -76.078685 -25432.679)"><path d="m260.92 687.14s7.6-103.23 72.43-85.32c-63.42-11.07-67.73 85.9-67.73 85.9z" fill="#4e9a06"/><path d="m264.05 687.72s7.6-103.23 72.43-85.32c-63.42-11.07-67.73 85.9-67.73 85.9z" fill="#73d216"/></g><g transform="matrix(.63022447 0 0 .65687593 -60.228539 -25435.464)"><path d="m323.85 690.17s-5.14128-117.08994 52.42872-131.36994c-50.91 30.66-46.35872 132.37994-46.35872 132.37994z" fill="#4e9a06"/><path d="m328.25 691.54s-5.4055-114.35928 47.4745-132.43928c-49.65 28.19-41.4145 133.44928-41.4145 133.44928z" fill="#73d216"/></g><g transform="matrix(.63022447 0 0 .65687593 -164.91387 -25433.494)"><path d="m411.25 688.54s17.57-70.18 48.13-114c10.74-15.39 29.09-.3 42.83-5-12.51 7.1-29.74-7.24-39.53 8.05-29.01 45.37-45.37 111.96-45.37 111.96z" fill="#73d216"/><path d="m408.07 687.12s17.56-70.18 48.13-113.99c10.73-15.39 31.91.4 45.66-4.3-12.52 7.11-32.93-8.3-42.71 7-29.02 45.36-45.02 112.3-45.02 112.3z" fill="#4e9a06"/></g><g transform="matrix(.12480965 -.02878562 .02414201 .17377653 -30.871423 -25147.976)"><path d="m308.15 1010.1c1.43-8.5 181.85-620.59 181.85-620.59l62.86-111.43-224.71 739.22z" fill="#4e9a06"/><path d="m343.06 1020.3c3.38-8 190.26-621.64 190.26-621.64l20.44-134.12-231.42 751.06z" fill="#73d216"/></g><g transform="matrix(.15640911 -.01067555 .011068 .17616099 -12.351016 -25111.433)"><path d="m383.34 756.09c1.43-8.57 106.66-366.58 106.66-366.58l62.86-111.43-149.52 485.15z" fill="#4e9a06"/><path d="m422.61 768.62c3.37-8.01 110.71-369.96 110.71-369.96l20.44-134.12-154.54 497.23z" fill="#73d216"/></g><g transform="matrix(.62375206 .09389385 -.09008429 .65012984 104.16047 -25444.456)"><path d="m106.07 694.77s9.8-179.05 93.44-147.99c-81.83-19.19-87.38 149-87.38 149z" fill="#4e9a06"/><path d="m110.11 695.78s9.8-179.05 93.44-147.99c-81.83-19.19-87.38 149-87.38 149z" fill="#73d216"/></g><g transform="matrix(.62375206 .09389385 -.09008429 .65012984 -14.401137 -25452.983)"><path d="m196.47 697.29s-7.07-120.71 66.67-132.83c-63.13 18.18-63.13 133.34-63.13 133.34z" fill="#73d216"/><path d="m192.43 696.79s-7.57-118.69 66.17-130.82c-65.16 15.16-62.63 131.32-62.63 131.32z" fill="#4e9a06"/></g><g transform="matrix(.62970138 -.02681105 .02572324 .65633075 -13.419247 -25434.754)"><path d="m106.07 694.77s9.8-179.05 93.44-147.99c-81.83-19.19-87.38 149-87.38 149z" fill="#4e9a06"/><path d="m110.11 695.78s9.8-179.05 93.44-147.99c-81.83-19.19-87.38 149-87.38 149z" fill="#73d216"/></g><g transform="matrix(.62970138 -.02681105 .02572324 .65633075 -47.588127 -25433.172)"><path d="m196.47 697.29s-7.07-120.71 66.67-132.83c-63.13 18.18-63.13 133.34-63.13 133.34z" fill="#73d216"/><path d="m192.43 696.79s-7.57-118.69 66.17-130.82c-65.16 15.16-62.63 131.32-62.63 131.32z" fill="#4e9a06"/></g><g transform="matrix(.46608888 .07108712 -.05073797 .65302009 -22.15119 -25460.498)"><path d="m411.25 688.54s17.57-70.18 48.13-114c10.74-15.39 29.09-.3 42.83-5-12.51 7.1-29.74-7.24-39.53 8.05-29.01 45.37-45.37 111.96-45.37 111.96z" fill="#73d216"/><path d="m408.07 687.12s17.56-70.18 48.13-113.99c10.73-15.39 31.91.4 45.66-4.3-12.52 7.11-32.93-8.3-42.71 7-29.02 45.36-45.02 112.3-45.02 112.3z" fill="#4e9a06"/></g><g transform="matrix(.62652505 .07108712 -.06820289 .65302009 -175.97431 -25469.845)"><path d="m488.19 692.48s.07-41.68 30.63-85.5c10.74-15.39 31.15 25.38 42.89 28.68-12.51-14.4-29.8-40.92-39.59-25.63-29.01 45.37-27.87 83.46-27.87 83.46z" fill="#4e9a06"/><path d="m492.25 694.04s.07-41.68 30.63-85.5c10.74-15.39 30.09 25.2 41.83 28.5-12.51-14.4-28.74-40.74-38.53-25.45-29.01 45.37-27.87 83.46-27.87 83.46z" fill="#73d216"/></g><g transform="matrix(.61893715 .12375543 -.11873429 .6451113 -67.150295 -25468.689)"><path d="m323.85 690.17s39.76-143.96 97.33-158.24c-50.91 30.66-91.26 159.25-91.26 159.25z" fill="#4e9a06"/><path d="m328.25 691.54s40.91-142.29 93.79-160.37c-49.65 28.19-87.73 161.38-87.73 161.38z" fill="#73d216"/></g><g transform="matrix(.2477275 .12375543 -.047523 .6451113 80.845905 -25477.024)"><path d="m411.25 688.54s17.57-70.18 48.13-114c10.74-15.39 29.09-.3 42.83-5-12.51 7.1-29.74-7.24-39.53 8.05-29.01 45.37-45.37 111.96-45.37 111.96z" fill="#73d216"/><path d="m408.07 687.12s17.56-70.18 48.13-113.99c10.73-15.39 31.91.4 45.66-4.3-12.52 7.11-32.93-8.3-42.71 7-29.02 45.36-45.02 112.3-45.02 112.3z" fill="#4e9a06"/></g><g transform="matrix(.61893715 .12375543 -.11873429 .6451113 -111.77586 -25490.596)"><path d="m488.19 692.48s.07-41.68 30.63-85.5c10.74-15.39 31.15 25.38 42.89 28.68-12.51-14.4-29.8-40.92-39.59-25.63-29.01 45.37-27.87 83.46-27.87 83.46z" fill="#4e9a06"/><path d="m492.25 694.04s.07-41.68 30.63-85.5c10.74-15.39 30.09 25.2 41.83 28.5-12.51-14.4-28.74-40.74-38.53-25.45-29.01 45.37-27.87 83.46-27.87 83.46z" fill="#73d216"/></g><g transform="matrix(.15647213 .00962192 -.00997519 .17623324 76.562944 -25120.072)"><path d="m383.34 756.09c1.43-8.57 106.66-366.58 106.66-366.58l62.86-111.43-149.52 485.15z" fill="#4e9a06"/><path d="m422.61 768.62c3.37-8.01 110.71-369.96 110.71-369.96l20.44-134.12-154.54 497.23z" fill="#73d216"/></g><path d="m23.235239-25067.83h155.63393v86.392319h-155.63393z" fill="url(#a)" stroke-width=".643412"/></g></svg>