<svg height="197.26103" width="349.48529" xmlns="http://www.w3.org/2000/svg"><path d="m0 0h349.48529v197.26103h-349.48529z" fill="#fff"/><g transform="translate(-49.544584 -524.92884)"><path d="m290.61109 594.7957h-70.62176l-21.67599-11.65375v-32.8636l138.91278-12.81913v42.88583l-46.61503 9.08992z"/><path d="m65.22745 640.14176 318.38061.56974-.0533-59.20108-91.31212 20.04446h-132.85282l-94.16235 25.17211c-5.54704 2.24346-7.3857 13.41477 0 13.41477z"/><g fill-rule="evenodd"><path d="m155.81493 666.86299c-.00003 11.30705-9.15117 20.48115-20.45818 20.50952-11.30701.0284-20.50407-9.09969-20.56084-20.4066-.0568-11.3069 9.04816-20.52686 20.35489-20.61203 11.30672-.0852 20.54952 8.99658 20.66309 20.30305"/><path d="m201.97733 666.86299c-.00003 11.30705-9.15117 20.48115-20.45818 20.50952-11.30701.0284-20.50407-9.09969-20.56084-20.4066-.0568-11.3069 9.04816-20.52686 20.35489-20.61203 11.30672-.0852 20.54952 8.99658 20.66309 20.30305"/><path d="m247.33033 666.86299c-.00003 11.30705-9.15117 20.48115-20.45818 20.50952-11.30701.0284-20.50407-9.09969-20.56084-20.4066-.0568-11.3069 9.04816-20.52686 20.35489-20.61203 11.30672-.0852 20.54952 8.99658 20.66309 20.30305"/><path d="m293.76333 666.86299c-.00003 11.30705-9.15117 20.48115-20.45818 20.50952-11.30701.0284-20.50407-9.09969-20.56084-20.4066-.0568-11.3069 9.04816-20.52686 20.35489-20.61203 11.30672-.0852 20.54952 8.99658 20.66309 20.30305"/></g><path d="m83.75265 646.62921-9.5625.4375c-5.32566 13.2481-.88992 25.37037 13.75 34.34375 16.49748 10.11194 36.32098 19.84936 42.0625 20l195.0625.0625c5.74152-.15064 25.56503-9.88804 42.0625-20 14.63992-8.97338 19.07566-21.1269 13.75-34.375l-9.5625-.40625c2.87764 12.39545 5.36125 20.76159-12.5625 29.25-14.66994 6.94744-30.17637 15.21816-32.59375 15.71875l-197.25-.0312c-2.41737-.50061-17.89256-8.80256-32.5625-15.75-17.92375-8.4884-15.47139-16.85455-12.59375-29.25zm-23.30406-90.04305v13.58752l133.19884 4.52917v-18.32256z"/><path d="m339.83623 667.93559c-.00003 11.30705-9.15117 20.48115-20.45818 20.50952-11.30701.0284-20.50407-9.09969-20.56084-20.4066-.0568-11.3069 9.04816-20.52686 20.35489-20.61203 11.30672-.0852 20.54952 8.99658 20.66309 20.30305" fill-rule="evenodd"/><path d="m368.27196 658.40424c-.00002 6.44528-5.21638 11.67474-11.66165 11.69091-6.44527.0162-11.68781-5.18704-11.72017-11.63225-.0324-6.4452 5.15767-11.7008 11.60277-11.74935 6.44511-.0486 11.71372 5.12827 11.77846 11.57323" fill-rule="evenodd"/><path d="m110.01126 658.40424c-.00002 6.44528-5.21638 11.67474-11.66165 11.69091-6.44527.0162-11.68781-5.18704-11.72017-11.63225-.03236-6.4452 5.15767-11.7008 11.60277-11.74935 6.44511-.0486 11.71372 5.12827 11.77846 11.57323" fill-rule="evenodd"/></g></svg>