<svg height="160" viewBox="0 0 160 160" width="160" xmlns="http://www.w3.org/2000/svg"><g fill-rule="evenodd"><ellipse cx="39.264568" cy="46.516171" rx="39.264568" ry="28.60556" stroke-width=".362257"/><ellipse cx="79.548965" cy="27.450766" rx="34.044094" ry="27.450796" stroke-width=".336237"/><ellipse cx="123.30342" cy="42.177094" rx="36.69659" ry="28.894396" stroke-width=".337685"/><path d="m57.245749 87.260101c6.359736.189796 12.719461.379591 19.079185.569387 1.225326 9.639617 1.7148 12.916092 5.873588 16.761942 7.338662-3.46628 11.740525-6.932529 13.208912-12.136923 0 0 28.622096-3.466268 18.346646 0-6.60278 13.295673-18.485252 16.612103-20.686175 27.590283-2.6904 12.91608 1.00433 24.87321 2.719118 37.19993-13.701712-.18979-29.624326.19979-43.326052 0 7.585063-21.76655 11.365372-25.15291 14.545233-41.1357-.489462-12.32672-6.337519-18.260324-9.760455-28.848919z" fill="#b85e00" stroke="#000" stroke-width="5.392295"/><ellipse cx="66.416595" cy="71.653168" rx="35.593739" ry="24.271816" stroke-width=".34009"/><ellipse cx="106.77794" cy="73.096916" rx="34.125416" ry="25.139027" stroke-width=".328337"/><ellipse cx="104.21472" cy="69.920654" fill="#80df00" rx="30.824148" ry="22.538128" stroke-width=".295468"/><ellipse cx="66.051468" cy="69.0466" fill="#80df00" rx="30.090237" ry="21.671265" stroke-width=".295468"/><ellipse cx="39.263699" cy="46.516171" fill="#80df00" rx="31.925011" ry="23.404976" stroke-width=".295468"/><ellipse cx="121.09474" cy="42.481453" fill="#80df00" rx="32.291962" ry="25.138674" stroke-width=".295468"/><ellipse cx="79.261734" cy="29.752974" fill="#80df00" rx="30.090237" ry="23.982876" stroke-width=".295468"/><g fill="#f00" stroke="#000"><ellipse cx="36.050873" cy="69.218285" rx="11.680125" ry="9.197271" stroke-width="2.984238"/><ellipse cx="75.820023" cy="76.881905" rx="10.289701" ry="8.102363" stroke-width="2.628981"/><ellipse cx="130.32726" cy="77.100418" rx="9.733481" ry="7.445462" stroke-width="2.451095"/><ellipse cx="56.907318" cy="40.967457" rx="10.289701" ry="8.102363" stroke-width="2.628981"/><ellipse cx="97.232819" cy="52.564342" rx="11.123904" ry="9.197271" stroke-width="2.912315"/><ellipse cx="125.59914" cy="37.026386" rx="8.899149" ry="7.226458" stroke-width="2.308964"/></g></g></svg>