<svg height="56.345924" width="61.581997" xmlns="http://www.w3.org/2000/svg" xmlns:xlink="http://www.w3.org/1999/xlink"><radialGradient id="a" cx="14.207293" cy="222.04396" gradientTransform="scale(1.39523 .716728)" gradientUnits="userSpaceOnUse" r="8.251929"><stop offset="0"/><stop offset="1" stop-opacity="0"/></radialGradient><g transform="matrix(2.469674 0 0 2.469674 -9.441945 -497.87571)"><g fill-rule="evenodd"><path d="m17.714937 206.59397c.300553.03628 1.39122-.29231 1.894646.37893.399293.53239 1.028012.75434 1.799914.94732.614061.15351.761895-.18846 1.136787-.09473.835686.20892.969647.85259 2.08411.85259.629098 0 .582653.29845 1.042055.75786.539764.53976 1.173628.36489 1.610449.94732.539282.71904.668572.26241.852591-.47366.077076-.30831-.914917-1.03043-1.136788-1.32626-.554891-.73985-1.400847-1.39644-1.867029-2.32881-.423437-.84687-1.090947-1.49365-1.83347-2.05054-.311979-.23399-1.671411.1164-1.983438.1164-.760307 0-1.503561.11538-2.178842.2842-1.083998.271-1.519822.95143-2.178843 1.61045-.491627.49162-.104023.82936-.094732.85259.189751.47438.831314-.36728.85259-.47366z" fill="#00b300"/><path d="m14.778237 206.21504c-.219144.38959-.809091.75786-1.515717.75786-.452885 0-.800463.61099-1.136787.94732-.437185.43718-.669359.85882-1.136788 1.32625-.444411.44441-1.3889344.3629-1.9893779.66313-.5024792.25124-.7917173 1.05562-1.1367874 1.51571-.6464193.8619-1.1391387.03472-1.6104489.66313-.4946719.65956-.4967511 1.05937-1.2315197 1.61045-.5295271.39714-.538416 1.16676-1.0420551.66312-.1749067-.1749.3831054-1.52407.4736614-1.70518.2382358-.47647.349799-1.02026.4736614-1.51571.0967109-.38685.2783278-.82912.3789292-1.23152.1403922-.56157.4430761-.91972.5683937-1.42099.1590146-.63606.2304602-1.1113.3789291-1.70518.1819846-.72794.6798373-1.20363.8525906-1.89464.1209602-.48385.902464-1.00842 1.326252-1.32626.5396451-.40473.9759485-.67744 1.5157166-.94732.484222-.24211 1.318899-.2842 1.894646-.2842 1.711921 0 1.587708-.40167 2.557771.5684.426974.42697 1.07386 1.11051 1.186081 1.67162.088377.44189-.721504 1.21577-.807151 1.64401z" fill="#00b300"/><path d="m28.401713 158.69876a7.9437737 4.0807056 0 1 1 -15.887548 0 7.9437737 4.0807056 0 1 1 15.887548 0z" fill="url(#a)" transform="translate(-2.837734 61.63138)"/></g><path d="m12.124592 201.60237c-.77906.03124-1.57362.1696-2.03125.40625-2.1169098 1.09469-4.4420598 4.26119-3.9999998 5.4375.06957.18511-.18677.91722-.5625 1.65625-.37575.739-.68751 1.55663-.6875 1.8125 0 .25588-.2524 1.04893-.5625 1.75-.58894 1.33138-.60922 2.35134-.0625 2.53125.17655.05809.84369-.56015 1.46875-1.40625.63255-.85627 1.27802-1.51068 1.46875-1.4375.44639.17129.69043.00336 1.625-1.25.66296-.88912.88494-1.01697 1.5312498-.875.67589.14844.82533.01 1.59375-1.1875 1.23173-1.91947 1.76158-2.30397 2.71875-2.09375.77963.17122.82121.21822 1.03125 2.40625.30661 3.19403.23194 3.91623-.40625 4.8125-.44869.63012-.55285 1.17339-.53125 2.65625.04316 2.96401.16191 3.2006 1.75 3.375 2.58577.28393 3.11702.12648 2.65625-.875-.15541-.33779-.394-1.19727-.5625-1.90625-.27929-1.17518-.24761-1.4228.375-2.59375.67653-1.27241.67954-1.28162.15625-1.84375-.4751-.51038-1.12499-3.60324-1.125-5.375 0-.75005 1.21098-.674 2.5625.15625.80609.49517 1.16884.59798 1.4375.375.27083-.22477.51559-.13792.90625.3125.39569.45622.74575.56334 1.53125.5.9032-.07285 1.04224-.0053 1.1875.59375.11951.49288.38693.71731.9375.78125.5715.06636.86331.33019 1.15625 1.03125.71538 1.71215 1.39351 1.06012.90625-.875-.24157-.95937-.78852-1.76802-2.0625-3.15625-.94234-1.02687-1.78639-2.0821-1.875-2.34375-.31011-.91565-1.49524-1.53285-2.9375-1.5-1.04854.02389-1.72642.25247-2.9375 1-1.80463 1.11386-2.1875 1.19836-2.1875.4375 0-.59013-1.64079-2.58592-2.53125-3.0625-.37946-.20308-1.15844-.28125-1.9375-.25zm-.65625.8125c1.54099-.24361 2.38438.06269 3.5 1.28125.63212.69043.6148.72467.0625.4375-.73086-.38004-2.88987-.42301-4.1875-.0625-.57766.16048-1.5425698.87503-2.4374998 1.78125-.81852.82879-1.55444 1.5-1.65625 1.5-.10183-.00001-.08971-.49413.0625-1.09375.25285-.99616.8651-1.67354 2.9375-3.34375.20905-.16848.9698098-.38159 1.7187498-.5zm10.125 1.9375c.97313-.00001 2.65626.71479 2.65625 1.125 0 .09687.30453.62313.6875 1.1875.38297.56432.66998 1.08091.625 1.125-.04498.0441-.50392.15154-1.03125.25-.82961.15491-1.06679.06113-1.59375-.59375-.58769-.73038-.60089-.72182-.96875-.21875-.36704.50195-.41779.4929-1.40625-.375-1.03569-.90936-1.47433-.9916-3-.4375-.43522.15805-.41901.09706.125-.34375 1.25643-1.01804 2.84212-1.71875 3.90625-1.71875zm-8.84375.28125c1.53319-.00001 1.66174.05477 1.65625.625-.00407.4228-.26836.71814-.875 1-.48496.22533-1.26809.99091-1.71875 1.6875-.70846 1.09504-.92706 1.24313-1.5625 1.125-.6290098-.11697-.8336298.0466-1.5937498 1.125-.91553 1.29885-1.34374 1.55694-1.34375.84375 0-.22534-.10609-.38158-.21875-.375-.11267.00655-.72739.83631-1.375 1.84375-1.33523 2.07702-1.39534 1.60763-.25-1.6875.52444-1.50877.97492-2.17179 2.40625-3.625 2.1946598-2.22816 2.8074398-2.5625 4.8749998-2.5625zm3.46875 2.65625c.07577.18776.07579.49972 0 .6875-.07577.18776-.12499.0318-.125-.34375 0-.37557.04925-.53153.125-.34375zm9.75.71875c.09906.02706.30709.16084.65625.4375.47234.37426.86668.79358.875.90625.00831.11265-.2807.1875-.65625.1875-.40737-.00001-.68751-.1439-.6875-.375 0-.21305-.08239-.63239-.1875-.90625-.07769-.20247-.09906-.27707 0-.25zm-8.65625 6.65625c.07577.18777.07577.49972 0 .6875-.07577.18777-.12501.0318-.125-.34375 0-.37556.04923-.53153.125-.34375z" fill="#5c2700"/></g></svg>