<svg height="360" width="400" xmlns="http://www.w3.org/2000/svg"><g transform="matrix(1.386118 0 0 1.542038 -1024.1042358472 -37.1033051918)"><path d="m1009.2409 214.27547h-230.73056c-10.88177 0-23.86383-17.09207-23.86383-28.22593-.23894-18.82744.66609-37.08291 1.27077-55.48854 2.92892-20.97694 10.98875-40.169227 18.98277-59.384399 1.96013-4.016129 4.31607-7.940393 9.10512-7.940393h83.60842c7.5939 3.421568 15.80504 6.030967 19.26307 14.894465 23.99518 59.058037 71.40444 87.285567 125.76884 97.246147l.0425 35.75598c0 1.41179-1.9558 3.14267-3.4471 3.14267z" fill-rule="evenodd"/><path d="m793.875 37.03125c-3.15327 0-3.05677 6.124999 0 6.125h13.59375c11.49238 4.643428 18.27652 11.247123 21.4375 20.125h5.21875v-.03125h5.15625c3.16087-8.87758 9.94583-15.450348 21.4375-20.09375h13.28125c3.27802 0 2.78185-6.125 0-6.125zm27.65625 6.125h25.0625c-5.40309 4.550456-11.25001 9.178524-11.25 16.28125h-1.21875-1.28125c-.00003-7.12497-5.89533-11.716901-11.3125-16.28125z" fill-rule="evenodd"/><g fill="#fff"><path d="m770.43133 114.13629h105.08867c2.55188 0 3.5033-5.27291 2.29594-8.56855-3.79388-10.141247-8.42321-29.963959-13.68055-29.963959h-80.78691c-4.37772 0-10.21696 20.141993-15.32544 30.212989-1.01476 4.00281-.00959 8.31952 2.40829 8.31952z" fill-rule="evenodd"/><path d="m787.9841 164.9391c0 5.30096-4.29728 9.59823-9.59823 9.59823-5.30096 0-9.59824-4.29727-9.59824-9.59823s4.29728-9.59823 9.59824-9.59823c5.30095 0 9.59823 4.29727 9.59823 9.59823z" transform="translate(1.548102 -.619241)"/><path d="m787.9841 164.9391c0 5.30096-4.29728 9.59823-9.59823 9.59823-5.30096 0-9.59824-4.29727-9.59824-9.59823s4.29728-9.59823 9.59824-9.59823c5.30095 0 9.59823 4.29727 9.59823 9.59823z" transform="translate(80.81094 -.619236)"/><path d="m913.61464 136.35817v34.92009l-15.98223-7.33431c-1.52003-14.73681-1.66076-29.74949-1.75148-44.77216 5.91073 5.73015 12.25344 13.59236 17.73371 17.18638z" fill-rule="evenodd"/><path d="m937.80693 155.40549.23316 26.87602-15.28274-6.40167c-.35423-14.73681.08795-16.3427-.00277-31.36537 6.61021 5.61357 9.33892 6.7141 15.05235 10.89102z" fill-rule="evenodd"/><path d="m945.69493 160.17743v23.9886c4.3782 2.35401 9.44507 3.60614 14.92074 4.20419v-22.09259z" fill-rule="evenodd"/><path d="m966.7983 169.24529v20.9385c3.82755 1.49043 7.82489 1.96215 11.87065 2.14331v-20.03172z" fill-rule="evenodd"/><path d="m984.76914 174.35626v18.79519c3.14347.87957 6.36448 1.37145 9.72734 1.15409v-18.05327z" fill-rule="evenodd"/><path d="m999.68988 177.24149v17.80597l7.83132 1.31896v-18.05328z" fill-rule="evenodd"/></g><path d="m754.65511 229.21337h19.9344v-9.98268h30.03612v9.86245h44.00544v-9.89221h164.10583v10.0422c-46.24366 1.68928-93.35267 3.00769-117.82197 14.02884h-140.28958z" fill-rule="evenodd"/></g></svg>