<svg height="16" width="16" xmlns="http://www.w3.org/2000/svg"><g transform="translate(-765 -576.36218)"><path d="m765 576.36218h16v16h-16z" fill="#fc0"/><g fill="#a05a2c"><path d="m768 578.86218c0 .27614-.22386.5-.5.5s-.5-.22386-.5-.5.22386-.5.5-.5.5.22386.5.5z"/><path d="m768 578.86218c0 .27614-.22386.5-.5.5s-.5-.22386-.5-.5.22386-.5.5-.5.5.22386.5.5z" transform="translate(5 3)"/><path d="m768 578.86218c0 .27614-.22386.5-.5.5s-.5-.22386-.5-.5.22386-.5.5-.5.5.22386.5.5z" transform="translate(1 5)"/><path d="m768 578.86218c0 .27614-.22386.5-.5.5s-.5-.22386-.5-.5.22386-.5.5-.5.5.22386.5.5z" transform="translate(1 2)"/><path d="m768 578.86218c0 .27614-.22386.5-.5.5s-.5-.22386-.5-.5.22386-.5.5-.5.5.22386.5.5z" transform="translate(4 1)"/><path d="m768 578.86218c0 .27614-.22386.5-.5.5s-.5-.22386-.5-.5.22386-.5.5-.5.5.22386.5.5z" transform="translate(4 5)"/><path d="m768 578.86218c0 .27614-.22386.5-.5.5s-.5-.22386-.5-.5.22386-.5.5-.5.5.22386.5.5z" transform="translate(-1 4)"/><path d="m768 578.86218c0 .27614-.22386.5-.5.5s-.5-.22386-.5-.5.22386-.5.5-.5.5.22386.5.5z" transform="translate(0 9)"/><path d="m768 578.86218c0 .27614-.22386.5-.5.5s-.5-.22386-.5-.5.22386-.5.5-.5.5.22386.5.5z" transform="translate(4 8)"/><path d="m768 578.86218c0 .27614-.22386.5-.5.5s-.5-.22386-.5-.5.22386-.5.5-.5.5.22386.5.5z" transform="translate(2 7)"/><path d="m768 578.86218c0 .27614-.22386.5-.5.5s-.5-.22386-.5-.5.22386-.5.5-.5.5.22386.5.5z" transform="translate(-1 12)"/><path d="m768 578.86218c0 .27614-.22386.5-.5.5s-.5-.22386-.5-.5.22386-.5.5-.5.5.22386.5.5z" transform="translate(2 11)"/><path d="m768 578.86218c0 .27614-.22386.5-.5.5s-.5-.22386-.5-.5.22386-.5.5-.5.5.22386.5.5z" transform="translate(5 12)"/><path d="m768 578.86218c0 .27614-.22386.5-.5.5s-.5-.22386-.5-.5.22386-.5.5-.5.5.22386.5.5z" transform="translate(6 10)"/><path d="m768 578.86218c0 .27614-.22386.5-.5.5s-.5-.22386-.5-.5.22386-.5.5-.5.5.22386.5.5z" transform="translate(7 7)"/><path d="m768 578.86218c0 .27614-.22386.5-.5.5s-.5-.22386-.5-.5.22386-.5.5-.5.5.22386.5.5z" transform="translate(8 4)"/><path d="m768 578.86218c0 .27614-.22386.5-.5.5s-.5-.22386-.5-.5.22386-.5.5-.5.5.22386.5.5z" transform="translate(6)"/><path d="m768 578.86218c0 .27614-.22386.5-.5.5s-.5-.22386-.5-.5.22386-.5.5-.5.5.22386.5.5z" transform="translate(3 -1)"/><path d="m768 578.86218c0 .27614-.22386.5-.5.5s-.5-.22386-.5-.5.22386-.5.5-.5.5.22386.5.5z" transform="translate(-2 -2)"/><path d="m768 578.86218c0 .27614-.22386.5-.5.5s-.5-.22386-.5-.5.22386-.5.5-.5.5.22386.5.5z" transform="translate(-1 7)"/><path d="m768 578.86218c0 .27614-.22386.5-.5.5s-.5-.22386-.5-.5.22386-.5.5-.5.5.22386.5.5z" transform="translate(9 1)"/><path d="m768 578.86218c0 .27614-.22386.5-.5.5s-.5-.22386-.5-.5.22386-.5.5-.5.5.22386.5.5z" transform="translate(10 -2)"/><path d="m768 578.86218c0 .27614-.22386.5-.5.5s-.5-.22386-.5-.5.22386-.5.5-.5.5.22386.5.5z" transform="translate(12)"/><path d="m768 578.86218c0 .27614-.22386.5-.5.5s-.5-.22386-.5-.5.22386-.5.5-.5.5.22386.5.5z" transform="translate(12 2)"/><path d="m768 578.86218c0 .27614-.22386.5-.5.5s-.5-.22386-.5-.5.22386-.5.5-.5.5.22386.5.5z" transform="translate(11 4)"/><path d="m768 578.86218c0 .27614-.22386.5-.5.5s-.5-.22386-.5-.5.22386-.5.5-.5.5.22386.5.5z" transform="translate(9 6)"/><path d="m768 578.86218c0 .27614-.22386.5-.5.5s-.5-.22386-.5-.5.22386-.5.5-.5.5.22386.5.5z" transform="translate(11 8)"/><path d="m768 578.86218c0 .27614-.22386.5-.5.5s-.5-.22386-.5-.5.22386-.5.5-.5.5.22386.5.5z" transform="translate(9 9)"/><path d="m768 578.86218c0 .27614-.22386.5-.5.5s-.5-.22386-.5-.5.22386-.5.5-.5.5.22386.5.5z" transform="translate(8 12)"/><path d="m768 578.86218c0 .27614-.22386.5-.5.5s-.5-.22386-.5-.5.22386-.5.5-.5.5.22386.5.5z" transform="translate(8 12)"/><path d="m768 578.86218c0 .27614-.22386.5-.5.5s-.5-.22386-.5-.5.22386-.5.5-.5.5.22386.5.5z" transform="translate(11 11)"/><path d="m768 578.86218c0 .27614-.22386.5-.5.5s-.5-.22386-.5-.5.22386-.5.5-.5.5.22386.5.5z" transform="translate(12 12)"/><path d="m768 578.86218c0 .27614-.22386.5-.5.5s-.5-.22386-.5-.5.22386-.5.5-.5.5.22386.5.5z" transform="translate(13 6)"/><path d="m768 578.86218c0 .27614-.22386.5-.5.5s-.5-.22386-.5-.5.22386-.5.5-.5.5.22386.5.5z" transform="translate(6 6)"/><path d="m768 578.86218c0 .27614-.22386.5-.5.5s-.5-.22386-.5-.5.22386-.5.5-.5.5.22386.5.5z" transform="translate(7 -2)"/><path d="m768 578.86218c0 .27614-.22386.5-.5.5s-.5-.22386-.5-.5.22386-.5.5-.5.5.22386.5.5z" transform="translate(3 13)"/><path d="m768 578.86218c0 .27614-.22386.5-.5.5s-.5-.22386-.5-.5.22386-.5.5-.5.5.22386.5.5z" transform="translate(-2 10)"/></g></g></svg>