<svg height="16" viewBox="0 0 16 16" width="16" xmlns="http://www.w3.org/2000/svg"><g fill-rule="evenodd" transform="translate(0 -1036.3622)"><path d="m0 1036.3622h16v16h-16z" fill="#ccc"/><g fill="#585858"><path d="m10.258019 1045.507-4.9315088 3.2084 1.1592131-3.6528z"/><path d="m13.38913 1051.5151-1.6273-4.4851 2.682687 1.2663z"/><path d="m7.8799812 1048.3717.7234787 3.3481 2.7905591-.8681-.723478-3.3481z"/><path d="m.68507307 1046.6156 1.29312333 3.0912 2.5765242-1.5513-1.2931235-3.0913z"/><path d="m12.151955 1044.811 1.764384 2.7354 2.279824-2.1169-1.764384-2.7355z"/><path d="m12.167974 1039.7264-.433942-3.4195-2.8499825.5208.4339416 3.4194z"/><path d="m4.8794189 1037.542-3.38935 2.7184.5617244-3.3923z"/><path d="m3.1519701 1044.0256-1.0150809-1.9343-1.62893939 1.199 1.01508099 1.9345z"/><path d="m5.2099268 1038.5399 1.5103828-2.0853 1.5463443 1.415.8630758 1.8618-1.5823057.7448-2.5892277-.6703z"/><path d="m8.44135 1042.7781 1.5103828-2.0854 1.5463452 1.4151.863076 1.8618-1.582307.7448-2.5892275-.6703z"/><path d="m13.511734 1038.1263 2.442605.6306-.658346 2.0252-1.321377 1.5469-1.27758-1.2203-.409721-2.7307z"/><path d="m2.0027142 1050.0028 1.3342328.2769-.3596109.8893-.7217805.6791-.6978566-.5357-.2238036-1.199z"/><path d="m6.7094966 1042.5684.5318053 1.615-1.2558384.3635-1.2444886-.1866.1731104-1.1688 1.2410475-1.226z"/><path d="m7.1784704 1049.3513.8442001 2.4558-1.9935469.5527-1.9755301-.2839.2747995-1.777 1.9700675-1.8643z"/><path d="m4.8181901 1041.8885-1.3415512 1.0446-.7652115-1.0601-.2434248-1.2346 1.1588218-.2306 1.5723445.7556z"/></g></g></svg>