<svg viewBox="0 0 64 64" xmlns="http://www.w3.org/2000/svg" xmlns:xlink="http://www.w3.org/1999/xlink"><radialGradient id="a" cx="14.207" cy="222.03999" gradientTransform="scale(1.3952 .71673)" gradientUnits="userSpaceOnUse" r="8.2519"><stop offset="0"/><stop offset="1" stop-opacity="0"/></radialGradient><filter id="b" color-interpolation-filters="sRGB" height="1.4243" width="1.218" x="-.10899" y="-.21216"><feGaussianBlur stdDeviation=".72146876"/></filter><g transform="matrix(2.4697 0 0 2.4697 -11.476 -565.66)"><path d="m28.401713 158.69876c0 2.25371-3.556549 4.08071-7.943774 4.08071s-7.943774-1.827-7.943774-4.08071 3.556549-4.0807 7.943774-4.0807 7.943774 1.82699 7.943774 4.0807z" fill="url(#a)" fill-rule="evenodd" filter="url(#b)" opacity=".5" transform="translate(-3.1219 89.956)"/><path d="m26.565 233.08c.197.46.718 1.92.718 2.69 0 .82-.692 1.48-.947 1.99-.064.13.063.92 0 1.04-.358.72-1.034 1.07-1.327 1.8-.361.91-.851 1.99-1.515 2.66-.67.66-1.088 1.63-1.421 2.46-.251.63-.406 1.53-.569 2.18-.201.8-.759.7-1.421.57-.713-.15-1.323-.19-2.084-.19-.656 0-1.029.84-1.616.69-.559-.14-1.578-.85-2.078-.98-.42-.1-1.1-.54-1.516-.85-.387-.29-.667-1.02-.853-1.33-.406-.67-.9-1.73-1.231-2.55-.232-.58-.284-1.33-.284-1.99 0-.42-.385-1.15-.5688-1.52-.411-.82-.0948-1.95-.0948-2.84 0-.99.3526-1.51.5686-2.37.2-.8.403-1.37.758-2.08.35-.7.579-1.69.947-.95.121.24.379.88.474 1.14.286.76.947 1.43.947 2.27 0 .71.249 1.44.568 2.08.446.9.138 1.89.569 2.75.257.52.379 1.41.379 1.98.795-.75 1.192-1.25 1.326-1.79.161-.65.122-1.34.284-1.99.213-.85.298-1.64.663-2.37.458-.91.336-1.92.581-2.9.21-.84 1.063-1.29 1.687-1.6 1.235-.62 1.237 1.76 1.237 2.7 0 .84.19 1.91.19 2.75 0 .9-.445 1.28-.284 2.08.141.71.229 1.48.947.76.571-.57.859-1.34 1.231-2.08.469-.94 1.436-2.44 2.219-3.03.462-.35.946-.84 1.516-1.18z" fill="#00b300" fill-rule="evenodd"/><path d="m19.678 230.36c-.268.14-.591.42-1 .78-.814.72-1.168 1.33-1.75 3.19-1.195 3.82-1.396 4.92-1.188 5.84l.188.88.718-1.5c.396-.83.718-1.72.719-1.97.002-.25.235-1.24.531-2.19.316-1.01.438-1.76.282-1.81-.717-.25.48-2.25 1.343-2.25 1.066 0 1.333 6.02.344 7.66-.227.37-.605.97-.844 1.34-.238.37-.93 2.11-1.531 3.84-.835 2.41-1.217 3.2-1.687 3.41-.614.27-.862.97-.344.97.15 0 .281.2.281.44 0 .23.11.33.25.25.14-.09.313-.03.406.12.106.17.421.12.844-.16.51-.33 1.053-.4 2.125-.28.783.1 1.449.29 1.5.44.132.4.865.35.906-.06.019-.19.024-.86 0-1.5-.055-1.52.767-3.37 2.188-4.91.616-.67 1.603-2.25 2.187-3.5.895-1.91 1.063-2.52 1.063-4.03 0-.98.128-1.87.281-1.97.153-.09.208-.27.125-.4-.263-.43-1.879.03-2.687.78-.947.87-2.492 3.13-3.063 4.5-.231.55-.478 1-.562 1s-.065-1 .031-2.22c.106-1.35.047-3.01-.156-4.19-.253-1.47-.489-2.25-.844-2.5-.178-.12-.389-.14-.656 0zm-7.813.16c-.275-.01-1.497 3.06-1.9686 4.9-.6874 2.69-.4585 5.58.6246 7.66.274.53.654 1.46.844 2.06.196.62.813 1.51 1.438 2.1 1.318 1.22 1.562 1.26 1.562.25 0-.43.231-1.47.531-2.35.654-1.9.701-2.93.157-5.47-1.045-4.85-2.546-9.15-3.188-9.15zm-.125 1.18c.202-.21.376-.08.563.38.521 1.28 1.615 5.44 2.093 8l.532 2.87-.625 2.13-.657 2.12-.625-.5c-.349-.28-.944-1.31-1.312-2.28-.368-.96-.866-2.24-1.094-2.84-.6531-1.72-.7335-3.87-.219-5.72.252-.9.568-2.02.688-2.47.242-.91.454-1.47.656-1.69zm14.656 1.82c.075-.01.049.96-.031 2.12-.174 2.53-.949 4.4-2.812 6.69-1.381 1.69-2.375 3.66-2.375 4.78 0 .66-.003.69-.344.22-.351-.48-.406-.49-.813.09-.283.41-.781.67-1.531.75-.616.07-1.125.03-1.125-.09 0-.13.395-.28.875-.31 1.016-.08 1.166-.18.906-.6-.118-.19-.526-.21-1.062-.09-.84.18-.841.14-.375-.38.263-.29.469-.58.469-.68s.544-.97 1.187-1.91 1.322-2.13 1.531-2.66c.21-.52.59-1.28.844-1.65.255-.38.553-.95.656-1.28.375-1.21 3.39-4.97 4-5zm-6.187 6.12c.101.03.156.21.156.56 0 .39-.495 1.57-1.125 2.63-1.485 2.49-1.756 2.61-.937.44.897-2.39 1.601-3.71 1.906-3.63z" fill="#5c2700"/></g></svg>