<svg height="480" width="480" xmlns="http://www.w3.org/2000/svg"><path d="m30.856274 5.7720243h420.004816c10.81582.7906802 23.07189 11.8437647 23.66646 24.8647647v418.806511c.04967 10.31854-11.79351 24.19224-25.16434 24.86477h-419.405663c-9.523815-.58318-24.4313132-15.37852-24.8647639-25.16434l.5991509-418.207366c-1.0815617-6.302442 14.286068-25.2982414 25.16434-25.1643397z" fill="#fff" fill-rule="evenodd" stroke="#000" stroke-width="2"/><path d="m35.1875 16.78125c-11.760613-.514916-18.473169 7.51921-18.03125 20.375v406.40625c.046553 8.6672 3.728171 19.07043 15.6875 19.28125l414.4375-.03125c11.95933-.2108 15.6722-10.61405 15.71875-19.28125v-406.4375c.44191-12.855791-6.27063-20.88992-18.03125-20.375z" fill="#039" fill-rule="evenodd"/><path d="m100.82515 91.817251v105.265979h73.46222c18.36538.00017 32.06487-5.52442 41.09853-16.5738 9.03325-11.04899 13.54998-23.06871 13.55019-36.05919-.00021-19.70913-7.09259-34.19252-21.27716-43.45022-9.10831-6.121569-20.8294-9.182499-35.16332-9.182769zm-49.497413 279.514769v-326.32454h118.480233c12.69147.000326 24.89784 1.344146 36.61912 4.031463 11.72091 2.687962 23.92727 8.95912 36.61912 18.813495 9.85446 7.615283 18.216 18.104543 25.08466 31.467813 6.86816 13.363809 10.30237 28.855059 10.30263 46.473809-.00026 23.2931-8.69776 45.46612-26.09252 66.51914-17.39524 21.05333-42.81583 31.57992-76.26185 31.57979h-75.25398v127.43903z" fill="#fff"/><g transform="matrix(.7929425 0 0 .7755778 -372.35858 292.1436)"><path d="m278.91286 461.96271a78.380615 78.380615 0 1 1 -156.76123 0 78.380615 78.380615 0 1 1 156.76123 0z" fill="none" stroke="#fff" stroke-width="26" transform="matrix(-.7941975 0 0 .7941975 844.6956 -247.27632)"/><path d="m278.91286 461.96271a78.380615 78.380615 0 1 1 -156.76123 0 78.380615 78.380615 0 1 1 156.76123 0z" fill="none" stroke="#feffff" stroke-width="25.99983" transform="matrix(-.7941975 0 0 .7941975 1111.4801 -248.48899)"/><path d="m902.90325 12.49531-160.07066.808456-56.59062 105.096884h108.33064l113.18126-76.801562" fill="none" stroke="#fff" stroke-linejoin="round" stroke-width="16.578873"/><g fill-rule="evenodd"><path d="m896.75233-50.489179c8.69476 0 15.26685-.193997 22.00318 10.097112 1.93902 3.430606 2.82555 7.619347 2.10958 11.788871-.8589 4.741161-3.66584 9.399295-6.97487 12.156796-4.38172 3.65146-8.54009 3.369768-7.86805 6.6522174.86229 4.211756 3.49387 10.06454804 6.33775 19.5683052 2.88674 9.6469374 6.31457 21.4538704 9.67929 33.0832904 3.36472 11.629395 6.66766 23.087549 9.28217 32.016084 1.30728 4.464256 2.44897 8.297569 3.32572 11.168398.8542 2.797045 1.60838 4.969726 1.53874 4.814826 2.72395 4.792567 3.09473 7.9154 7.66364 11.994539 5.12274 4.48336 9.2936 7.79542 10.74114 8.80717 3.67667 2.67084 5.3859 8.30735 3.44437 11.09239-2.4468 3.79556-7.5001 4.37779-11.19339 3.24227-3.50689-1.11323-9.05823-3.02544-15.49539-8.35704l-.04964-.07444-.07446-.04964c-8.95698-7.6828-12.27067-17.0073-12.60787-17.546795l-.47156-.719747-.32265-.79419c-.77613-1.910537-1.24102-3.59515-2.15922-6.601779-.9182-3.006628-2.0822-6.890946-3.40016-11.391775-2.63592-9.001611-5.9221-20.477191-9.28218-32.090528-3.3601-11.613337-6.77952-23.360164-9.62965-32.884743-2.85012-9.5245782-4.65075-17.3470474-5.31636-19.011098-1.62007-4.050159-2.44772-8.42264-1.34022-12.806439 1.10748-4.383799 4.41698-7.921884 7.38779-8.744348 6.78111-1.897143 4.98184-6.774717 1.51254-6.781792l-29.07237-.059187-.07166-18.568328c.00019-.0004 18.8708-.0004 30.30379-.0004z" fill="#fff" stroke-linecap="round" stroke-width="25"/><path d="m792.49843 115.11004-54.87859-134.338158" fill="#fff" stroke="#fff" stroke-width="19.854939"/><path d="m817.07944 72.236162-44.58881 94.322538" fill="#fffffd" stroke="#fff" stroke-linecap="round" stroke-width="7.247052"/><path d="m278.91286 461.96271a78.380615 78.380615 0 1 1 -156.76123 0 78.380615 78.380615 0 1 1 156.76123 0z" fill="#fffeff" stroke="#fff" stroke-width="31.305" transform="matrix(-.3120051 0 0 .3223192 856.53347 -30.297359)"/><path d="m828.98308 75.129086-29.28997.268487" fill="#fff" stroke="#fff" stroke-width="10.126018"/><path d="m787.42188 162.59237-29.28997.26849" fill="#fff" stroke="#fff" stroke-width="10.126018"/><path d="m710.75194-31.233245h68.88409c2.57244 0 5.89267 4.550466 2.57244 7.574403-3.59097 3.417612-35.87118 10.432639-35.87118 10.432639s-8.8606 2.42952-13.57675 1.857882c-4.71611-.571661-21.0082-2.00078-22.0086-19.864924z" fill="#fff" stroke="#fff" stroke-width=".794198pt"/></g></g></svg>