<svg height="480" width="480" xmlns="http://www.w3.org/2000/svg"><path d="m30.856274 5.7720243h420.004816c10.81582.7906802 23.07189 11.8437647 23.66646 24.8647647v418.806511c.04967 10.31854-11.79351 24.19224-25.16434 24.86477h-419.405663c-9.523815-.58318-24.4313132-15.37852-24.8647639-25.16434l.5991509-418.207366c-1.0815617-6.302442 14.286068-25.2982414 25.16434-25.1643397z" fill="#fff" fill-rule="evenodd" stroke="#000" stroke-width="2"/><path d="m35.1875 16.78125c-11.760613-.514916-18.473169 7.51921-18.03125 20.375v406.40625c.046553 8.6672 3.728171 19.07043 15.6875 19.28125l414.4375-.03125c11.95933-.2108 15.6722-10.61405 15.71875-19.28125v-406.4375c.44191-12.855791-6.27063-20.88992-18.03125-20.375z" fill="#039" fill-rule="evenodd"/><g fill="#fff"><path d="m89.366261 85.451204v105.265976h73.462219c18.36538.00017 32.06487-5.52442 41.09853-16.5738 9.03325-11.04899 13.54998-23.06871 13.55019-36.05919-.00021-19.70913-7.09259-34.19252-21.27716-43.450216-9.10831-6.12157-20.8294-9.1825-35.16332-9.18277zm-49.49741 279.514766v-326.324537h118.480229c12.69147.000326 24.89784 1.344146 36.61912 4.031463 11.72091 2.687962 23.92727 8.95912 36.61912 18.813495 9.85446 7.615283 18.216 18.104543 25.08466 31.467813 6.86816 13.363806 10.30237 28.855056 10.30263 46.473806-.00026 23.2931-8.69776 45.46612-26.09252 66.51914-17.39524 21.05333-42.81583 31.57992-76.26185 31.57979h-75.253979v127.43903z"/><path d="m475.14239 512.18475c-19.16217-4.35867-119.51228-.72299-148.52966-.7271-.89456-63.05613-1.12098-126.12099-1.65504-189.18149-18.05584-18.97146-8.59857-53.27659 16.51469-60.64515 24.86229-10.24205 55.53583 12.78543 51.48882 39.82823 1.08888 21.36283-23.75156 26.56334-32.13271 38.34235-.60207 24.94901-1.15404 49.98459.36831 74.89913 33.80155 2.7175 68.06203.7159 102.06781 1.18109v32.89435c-33.30989 0-66.61977 0-99.92966 0-8.21413 18.98394-.0644 34.6428-1.86981 32.89657 37.59578.18265 99.19229.07359 136.78842.10343 21.56484 44.32039 42.31313 89.25781 64.08263 133.32615 22.8677-2.76447 39.46941-15.68749 48.16163-16.24363 9.52404-.82267 9.76849 29.55128 8.71412 28.64678-20.42252 7.35288-52.65448 23.24314-73.19171 30.27071-5.17831-8.39078-51.59699-105.93291-70.87784-145.59142zm-116.39315 189.10038c-44.84999-4.99022-76.2178-18.39568-100.14802-39.8912-34.22017-29.82876-53.99078-75.90562-48.7215-121.46415 2.55377-51.65349 37.0371-98.40019 82.69518-121.08149 7.24602 6.71122 2.37161 24.03072 3.66802 35.44345 1.9318 9.90155-11.19062 12.62013-15.99545 19.46496-33.91122 32.4921-41.34022 87.91758-19.90461 129.32457 22.6766 47.04914 80.05135 76.56325 131.23092 62.16589 38.37252-9.64362 68.77197-38.60524 88.96967-71.5742 8.44436 6.77281 26.44366 35.45165 8.22079 48.10376-30.80154 38.68697-80.15099 62.95082-130.015 59.50841z" transform="matrix(.6211784 0 0 .6211784 65.912181 20.126619)"/></g></svg>