<svg height="480" width="480" xmlns="http://www.w3.org/2000/svg"><path d="m30.856274 5.7720243h420.004816c10.81582.7906802 23.07189 11.8437647 23.66646 24.8647647v418.806511c.04967 10.31854-11.79351 24.19224-25.16434 24.86477h-419.405663c-9.523815-.58318-24.4313132-15.37852-24.8647639-25.16434l.5991509-418.207366c-1.0815617-6.302442 14.286068-25.2982414 25.16434-25.1643397z" fill="#fff" fill-rule="evenodd" stroke="#000" stroke-width="2"/><path d="m35.1875 16.78125c-11.760613-.514916-18.473169 7.51921-18.03125 20.375v406.40625c.046553 8.6672 3.728171 19.07043 15.6875 19.28125l414.4375-.03125c11.95933-.2108 15.6722-10.61405 15.71875-19.28125v-406.4375c.44191-12.855791-6.27063-20.88992-18.03125-20.375z" fill="#039" fill-rule="evenodd"/><path d="m83.000213 80.358365v105.265975h73.462217c18.36538.00017 32.06487-5.52442 41.09853-16.5738 9.03325-11.04899 13.54998-23.06871 13.55019-36.05919-.00021-19.70913-7.09259-34.192519-21.27716-43.450215-9.10831-6.12157-20.8294-9.1825-35.16332-9.18277zm-49.49741 279.514765v-326.324536h118.480227c12.69147.000326 24.89784 1.344146 36.61912 4.031463 11.72091 2.687962 23.92727 8.95912 36.61912 18.813495 9.85446 7.615283 18.216 18.104543 25.08466 31.467813 6.86816 13.363805 10.30237 28.855055 10.30263 46.473805-.00026 23.2931-8.69776 45.46612-26.09252 66.51914-17.39524 21.05333-42.81583 31.57992-76.26185 31.57979h-75.253977v127.43903z" fill="#fff"/><g transform="matrix(.5572732 0 0 .5572732 95.986428 176.24762)"><g fill="#fff" fill-rule="evenodd"><path d="m243.22202 429.16927c62.79839-3.16426 155.20224 7.89495 186.20451-31.3992 14.20607-74.76934 54.80076-112.40662 124.50145-113.18313 42.79577-82.64828-34.88862-95.59972-87.99076-116.8342-3.3733 38.41563-1.30629 78.34741-62.06817 100.7695-2.43911-11.88771-7.42309-21.59411-23.36684-21.90641l-89.81629.36511-63.52859-49.65454c-10.2664 16.32783-30.63852 37.24918-30.66898 48.92432l-96.38822.36511c-7.01925 5.97861-12.97283 21.84281 1.09532 37.60601 57.74129-1.75276 162.68681 4.55533 142.02657 144.94743z"/><path d="m399.89717 113.13794-.25817-34.043529-38.12235-5.174139v-27.017909l38.89686 6.464987c-2.8605-24.34011-18.51028-41.939346-52.98479-47.0361453-21.6463 1.5255947-44.34631 2.6992313-57.25914 43.1895493-3.78428 16.060343-1.42553 32.309362 8.54869 46.305931 32.28759-17.699463 56.45288-5.617153 78.49798 14.239165z"/><path d="m466.30233 186.7383-113.54824-85.80012c-15.26233-8.1407-32.0941-9.689721-52.21028 2.55575-17.19617 15.62165-46.2444 58.89814-69.37031 88.35586l64.62391 48.37667 62.06818-86.34778 98.21375 75.21202c7.55995-13.19498 9.32895-28.68129 10.22299-42.3524z"/></g><path d="m461.19779 393.53989c-.00696 45.0021 36.4725 81.4872 81.47458 81.4872 45.0021 0 81.48155-36.4851 81.47459-81.4872.00696-45.0021-36.47249-81.4872-81.47459-81.4872-45.00208 0-81.48154 36.4851-81.47458 81.4872z" fill="none" stroke="#fff" stroke-linecap="round" stroke-linejoin="round" stroke-width="34.106003"/><path d="m57.203317 393.65048c-.006958 45.0021 36.472499 81.4872 81.474583 81.4872 45.0021 0 81.48155-36.4851 81.47459-81.4872.00696-45.0021-36.47249-81.4872-81.47459-81.4872-45.002084 0-81.481541 36.4851-81.474583 81.4872z" fill="none" stroke="#fff" stroke-linecap="round" stroke-linejoin="round" stroke-width="34.106003"/></g></svg>