<svg height="480" width="480" xmlns="http://www.w3.org/2000/svg"><path d="m30.856274 5.7720243h420.004816c10.81582.7906802 23.07189 11.8437647 23.66646 24.8647647v418.806511c.04967 10.31854-11.79351 24.19224-25.16434 24.86477h-419.405663c-9.523815-.58318-24.4313132-15.37852-24.8647639-25.16434l.5991509-418.207366c-1.0815617-6.302442 14.286068-25.2982414 25.16434-25.1643397z" fill="#fff" fill-rule="evenodd" stroke="#000" stroke-width="2"/><path d="m34.91962 16.78125c-11.760613-.514916-18.473169 7.51921-18.03125 20.375v406.40625c.046553 8.6672 3.728171 19.07043 15.6875 19.28125l414.4375-.03125c11.95933-.2108 15.6722-10.61405 15.71875-19.28125v-406.4375c.44191-12.855791-6.27063-20.88992-18.03125-20.375z" fill="#039" fill-rule="evenodd"/><path d="m199.58664 207.89278v82.84042h57.81204c14.45287.00013 25.23386-4.34752 32.34302-13.04297 7.10883-8.69514 10.66333-18.15422 10.66349-28.37724-.00016-15.51036-5.5816-26.90825-16.74433-34.19371-7.1679-4.81745-16.39196-7.22629-27.67223-7.2265zm-38.95262 219.96774v-256.80529h93.23954c9.98772.00025 19.59368 1.05779 28.81789 3.17261 9.22392 2.11532 18.82987 7.05049 28.81788 14.80552 7.7551 5.99295 14.33532 14.24761 19.7407 24.764 5.40499 10.51682 8.10758 22.70786 8.10779 36.57316-.00021 18.33081-6.84482 35.78015-20.53385 52.3481-13.6894 16.56819-33.69446 24.85222-60.01524 24.85212h-59.22209v100.28978z" fill="#fff"/><path d="m104.40318 146.4191 142.59947-81.485413 129.86738 76.392573" fill="none" stroke="#fff" stroke-width="30"/></svg>