<svg height="14.98562" width="15.981307" xmlns="http://www.w3.org/2000/svg"><g fill-rule="evenodd"><path d="m13.497407.00036699v.001013h-11.0739908v.001013h-1.77640764c-.42152153-.01732061-.66211116.25256341-.64627261.68437784v13.65077317c.00167095.29156.13362484.640996.56226836.648076h1.83913139.081764l11.0135073-.002v.001h1.919775c.428644-.0071.56172-.356516.563389-.647641v-13.65181579c.01584-.43181443-.22475-.70167819-.646272-.68437807z" fill="#154889"/><g fill="#fff"><path d="m.0456923 3.0207901h15.8632777c0-.97095-.521106-1.83136-1.327292-2.02616998h-13.2086937c-.83767625.18214998-1.327292 1.05757998-1.327292 2.02616998z"/><path d="m6.027495 6.9400901h1.0058994l.0000008-.97756 1.0100146.005.00162.97215h1.0045944v1.05293h-1.0045944l-.00284.96903-1.0101067-.005.0013-.96417h-1.0058994v-1.05293z"/><path d="m.04117773 12.00261h15.86327827c0 .96017-.521106 1.81105-1.327292 2.0037h-13.2086943c-.83767623-.18012-1.32729197-1.04585-1.32729197-2.0037z"/><path d="m1.0505725 3.9237801v7.0839299h.9054965v-2.7497199h1.6194746c2.4261575-.60821 1.9527779-4.05181.050557-4.33603l-2.5755315.002zm.9054965 1.04907h1.5275459c.9797811.41444 1.1206673 1.6721.078136 2.22155h-1.6056852v-2.22155z"/><path d="m10.019035 3.9275801v7.0914699l1.081935.002v-3.0493099h1.359262l1.4961 3.0456899h1.266213l-1.589151-3.1146699c1.733734-.67529 1.952403-3.35625-.403217-3.96773l-3.211142-.008zm1.081935.9874h1.904792c1.311898.39391 1.101513 1.65265.05839 2.10003h-1.963176v-2.10003z"/></g></g></svg>