<svg height="480" width="480" xmlns="http://www.w3.org/2000/svg"><path d="m30.856274 5.7720243h420.004816c10.81582.7906802 23.07189 11.8437647 23.66646 24.8647647v418.806511c.04967 10.31854-11.79351 24.19224-25.16434 24.86477h-419.405663c-9.523815-.58318-24.4313132-15.37852-24.8647639-25.16434l.5991509-418.207366c-1.0815617-6.302442 14.286068-25.2982414 25.16434-25.1643397z" fill="#fff" fill-rule="evenodd" stroke="#000" stroke-width="2"/><path d="m35.1875 16.78125c-11.760613-.514916-18.473169 7.51921-18.03125 20.375v406.40625c.046553 8.6672 3.728171 19.07043 15.6875 19.28125l414.4375-.03125c11.95933-.2108 15.6722-10.61405 15.71875-19.28125v-406.4375c.44191-12.855791-6.27063-20.88992-18.03125-20.375z" fill="#039" fill-rule="evenodd"/><path d="m175.94451 123.64749v105.26598h73.46222c18.36538.00017 32.06487-5.52442 41.09853-16.5738 9.03325-11.04899 13.54998-23.06871 13.55019-36.05919-.00021-19.70913-7.09259-34.19252-21.27716-43.45022-9.10831-6.12157-20.8294-9.1825-35.16332-9.18277zm-49.49741 279.51477v-326.324541h118.48023c12.69147.000326 24.89784 1.344146 36.61912 4.031463 11.72091 2.687962 23.92727 8.95912 36.61912 18.813495 9.85446 7.615283 18.216 18.104543 25.08466 31.467813 6.86816 13.36381 10.30237 28.85506 10.30263 46.47381-.00026 23.2931-8.69776 45.46612-26.09252 66.51914-17.39524 21.05333-42.81583 31.57992-76.26185 31.57979h-75.25398v127.43903z" fill="#fff"/></svg>