<svg height="358.99542" width="462.02859" xmlns="http://www.w3.org/2000/svg"><g transform="translate(-105.04618 -255.61005)"><path d="m213.75586 434.71265h270.20928" fill="none" stroke="#000" stroke-width="3"/><path d="m348.8605 299.60801v270.20928" fill="none" stroke="#000" stroke-width="3"/><path d="m444.39391 339.17924-191.06682 191.06682" fill="none" stroke="#000"/><path d="m444.39391 530.24606-191.06682-191.06682" fill="none" stroke="#000"/><path d="m440.50829 471.81712-185.153-74.20894" fill="none" stroke="#999" stroke-width=".859191"/><path d="m387.15644 526.41095-78.4493-183.3966" fill="none" stroke="#999" stroke-width=".859191"/><path d="m310.82732 527.28916 74.20894-185.15302" fill="none" stroke="#999" stroke-width=".859191"/><path d="m256.23349 473.93731 183.3966-78.44932" fill="none" stroke="#999" stroke-width=".859191"/><g font-family="Arial" letter-spacing="0" word-spacing="0"><text font-size="28" x="321.89999" y="285.73505"><tspan x="321.89999" y="285.73505">0, N</tspan></text><text font-size="28" x="446.97031" y="330.67932"><tspan x="446.97031" y="330.67932">45, NE</tspan></text><text font-size="28" x="493.19977" y="442.94144"><tspan x="493.19977" y="442.94144">90, E</tspan></text><text font-size="28" x="446.79114" y="555.69635"><tspan x="446.79114" y="555.69635">135, SE</tspan></text><text font-size="28" x="306.49017" y="600.64063"><tspan x="306.49017" y="600.64063">180, S</tspan></text><text font-size="28" x="145.76224" y="556.48486"><tspan x="145.76224" y="556.48486">225, SW</tspan></text><text font-size="28" x="114.22587" y="443.13858"><tspan x="114.22587" y="443.13858">270, W</tspan></text><text font-size="28" x="142.53693" y="328.31384"><tspan x="142.53693" y="328.31384">315, NW</tspan></text><text fill="#666" font-size="20" x="359.17023" y="331.46783"><tspan x="359.17023" y="331.46783">22, NNE</tspan></text></g><text x="461.66339" y="381.14304"><tspan x="461.66339" y="381.14304"/></text><text fill="#666" font-family="Arial" font-size="20" letter-spacing="0" word-spacing="0" x="448.94135" y="395.53311"><tspan x="448.94135" y="395.53311">67, ENE</tspan></text><text fill="#666" font-family="Arial" font-size="20" letter-spacing="0" word-spacing="0" x="447.68707" y="484.23892"><tspan x="447.68707" y="484.23892">112, ESE</tspan></text><text fill="#666" font-family="Arial" font-size="20" letter-spacing="0" word-spacing="0" x="357.73676" y="550.4726"><tspan x="357.73676" y="550.4726">157, SSE</tspan></text><text fill="#666" font-family="Arial" font-size="20" letter-spacing="0" word-spacing="0" x="256.3187" y="549.38843"><tspan x="256.3187" y="549.38843">202, SSW</tspan></text><text fill="#666" font-family="Arial" font-size="20" letter-spacing="0" word-spacing="0" x="152.39204" y="490.54694"><tspan x="152.39204" y="490.54694">247, WSW</tspan></text><text fill="#666" font-family="Arial" font-size="20" letter-spacing="0" word-spacing="0" x="150.95857" y="392.0835"><tspan x="150.95857" y="392.0835">292, WNW</tspan></text><text fill="#666" font-family="Arial" font-size="20" letter-spacing="0" word-spacing="0" x="252.0183" y="330.77792"><tspan x="252.0183" y="330.77792">337, NNW</tspan></text></g></svg>