<svg fill-rule="evenodd" height="16" viewBox="0 0 16 16" width="16" xmlns="http://www.w3.org/2000/svg"><g fill-rule="evenodd" stroke="#000" stroke-linejoin="round" stroke-width=".463"><path d="m8.657522 7.217c1.015554-.3966929.2867333-1.4104312.2584829-2.0351832-1.1931701.0927115.6093759-.8517063.1334931-1.5596307-.1316349-.7085541.0677806-2.236733 1.023041-1.3087757.39382.3444207 1.450795-.1091505.885057.7386345-.123841.8068043.814136 1.4933219.56811 2.3173656.81684.443124 3.065334-.050231 4.118909-.084561-.107118.9385613.335874 1.261937-.26285 2.3643616-.804026.677605-1.605499 2.2689139.361666 3.6195294-.548234.698132.695868 1.393737-.349386 2.013723-.717339.584365-.479307 1.92631-1.806951 1.612272-.772428-.163455-2.127056.794848-1.907208-.646076.600008-.94219-.963521-1.6247-.07677-2.526784-.154294-1.2186575-2.2629158-.4256555-1.9956062-1.6978755-.631447.178605-2.0540676-.6872464-1.2766294-1.6497219.1501239-.3737538.1369058-.7981712.3266416-1.1572781z" fill="#0ff"/><path d="m8.0657641 8.842c.05224.4705782.2764225.9745093.7196469 1.193702.2685625-.0092.8070986-.2502153.8563302.166495-.185841.354446.064417.680465.4518678.64297.276952.03469.542616.121731.806153.211116.293685.128375.609365.339585.705051.656961-.0115.407285-.449178.732213-.304462 1.154307.150331.224085.508673.317646.537482.651731.09068.295559-.03843.5876-.196533.830543-.131838.433946.381046.744915.309884 1.17616-.256054.249718-.571082-.486301-.775973-.0143-.280175.124777-.608415-.709114-.720127-.18373.04532.488008-.4808697.205199-.7116809.08192-.3888488-.024328-.6969514-.218858-1.0345973-.398859-.3286219-.0142-.4274468.425225-.7633457.430972-.2904462.081717-.6222871-.165857-.5601046-.478369.0449628-.536268-.2871829-.995521-.5244365-1.447288-.3829245-.170415-.4204402-.636773-.396853-1.00144.0218425-.317281-.0762881-.656668.1037053-.946613.0908055-.248667.3769472-.42174.3988377-.679336-.0500114-.437153-.1645186-.9395785.1337406-1.3181756.2097922-.28218-.0293033-.6689762.1314475-.9613526.2528428.0172024.5944292.1120676.833967.2325862z" fill="#ff0"/><path d="m.6452814 9.668c.00792332-.5386757-.12431919-1.1626172.12840664-1.6397947.30978796-.3427471.61229856-.6430685 1.06713496-.2617252.6365534.3275086 1.1948086-1.1166092 1.6094585-.1640193.2748359.4646858 1.4751388.9050614 1.5714421.1297947.0050489-.6136694.2549956.1683869.4328785-.3842332.2817611-.6984475 1.0669459-.6602109 1.4839149-.1241925.5492713-.2309176.6565029-.8019554.827456-1.2341446.5297174.1826982.1535482 1.0532813.718566 1.3685108.2189245.4902335-.2178911 1.0885403-.3305861 1.5058108-.4164256.0994258-1.1913093-.6825386-.9713382.1861679.065491.6589714-.51352 1.1804073-.2131324 1.8885043-.094579.446407-.6032275.651459-.5003556 1.22605-.052507.629468-.021095 1.234103.5164196 1.61383.1814909.482437.8579492 1.475593.1234135 1.748011-.3866261.790245-1.0737608-.015161-1.6738166.344085-.3862588-.291864.2018703-1.15222-.5686817-1.114176-.7203866-.364401-.6336327.777177-1.3569569.45859-.5351425-.293151-1.1546603-.235035-1.6749346-.435767.0381859-.36605.3489059-.801886.1275021-1.226775.1324626-.428596-.2810098-.541961-.0036757-.949799-.1848857-.283596-.7522023-.309575-.577111-.855549-.1368668-.348435-.54575761-1.003608-.85836383-1.177212-.53471089.477965-.57746386-.8217173-.29290747-.8277698.13022902.0426004.4351855.2097738.4152673-.0741972z" fill="#008000"/><path d="m.457421 5.796c.36737496-.6717547 1.0270517-1.110143.6378868-1.7959241.0146463-.7211127.0547579-1.9477572 1.10739-1.4635078.22361-.3813829.3177555-.8396374.7759811-.6031951.321631-.465585.446049-1.00947804 1.1197343-1.20715634.4637958-.82461487 1.4995902-.19986313 1.7348148.47350164.4836358.4839055.6650459-.43005254 1.3032101-.24441729.9107077-.04689852 1.3770056 1.05281189 1.9530486 1.39845169-.1397526.8240649.1682271 1.7332835-.3890242 2.4390183-.748109.3628863.1184416.3954138.4242219.4540253-.4144554.4785023-.0350447.7712959.1904061 1.2072838-.0648911.9477732-1.5400958.8322071-1.2240202-.1550382-.5535343-1.1231334-.4699836 1.347024-1.4279207.6986859-.5683981-.8110912-1.3111435.4631842-1.6302991.5820955.0101377.9868128-1.2166602.3761287-1.5918586-.0268729-.4160204-.861516-1.3379635.6548416-2.0432174.0097967-.3244719-.052542-.73860182.748936-1.20524566.1915994-.03331924-.6083866-.12027891-1.484794.1657897-2.0005413z" fill="#f00"/></g></svg>