<svg height="15" viewBox="0 0 13 15" width="13" xmlns="http://www.w3.org/2000/svg"><path d="m0 0h7v8h-7z" fill="#333"/><path d="m1 1h5v6h-5z" fill="#8dd35f"/><path d="m3 2h1v4h-1z"/><path d="m2 3h3v1h-3z"/><path d="m6 0h7v8h-7z" fill="#333"/><path d="m7 1h5v6h-5z" fill="#8dd35f"/><path d="m9 2h1v4h-1z"/><path d="m8 3h3v1h-3z"/><path d="m0 7h7v8h-7z" fill="#333"/><path d="m1 8h5v6h-5z" fill="#8dd35f"/><path d="m3 9h1v4h-1z"/><path d="m2 10h3v1h-3z"/><path d="m6 7h7v8h-7z" fill="#333"/><path d="m7 8h5v6h-5z" fill="#8dd35f"/><path d="m9 9h1v4h-1z"/><path d="m8 10h3v1h-3z"/></svg>