<svg height="144.407" width="156.262" xmlns="http://www.w3.org/2000/svg"><path d="m12.473 121.082c-.913967 1.76129-1.9912 3.408-1.9913 5.341l.009028.80788c0 4.172 3.265872 6.69412 7.020572 6.69412h121.3197c3.755 0 6.98886-3.12652 6.98886-7.29852l-.03986-.81148c0-1.933-.95029-3.61152-1.991-5.341l-60.0834-107.7802c-2.6546-2.94957-6.9583-2.94957-9.6133.0004z" fill="#fff" stroke="#000" stroke-width="2"/><path d="m78.703 16.2915-63.4233 111.8365h61.187 2.8521 60.5072l-60.3105-111.8365z" fill="#fc0" stroke="#000" stroke-linecap="round" stroke-linejoin="round" stroke-width="4.8516"/><path d="m84.366054 45.1579c.92385.9815 1.103746 1.21235 1.565646 3.0022s1.474117 5.308987.359892 9.302446c-.462 6.9284-.161742 13.505426-.435017 20.516837-.272912 7.002107 1.460825 15.446617-6.622475 17.063217-2.0785.231-4.157-1.1547-4.9653-3.1178-1.3857-14.0878-2.7713-27.4828-4.1571-41.2242 1.1547-3.5797 4.0415-7.0439 7.5058-7.5058s5.824704.9816 6.748554 1.9631z"/><path d="m83.1603 103.357c3.2333 1.963 3.8106 5.543 3.8106 9.122-1.3857 3.465-2.8868 7.506-7.3903 7.506-2.7714-.115-5.4273-.693-7.2749-2.771-1.1547-4.157-3.8106-8.43 0-11.894 2.8869-4.042 6.9284-3.002 10.8546-1.963z"/></svg>