<svg height="16" viewBox="0 0 16 16" width="16" xmlns="http://www.w3.org/2000/svg"><path d="m0 0h16v16h-16z" fill="none" visibility="hidden"/><path d="m0 12.870882h16c-1.142857 2.285714-5.714286 3.129118-8 3.129118-2.2857143 0-6.5125912-.843404-8-3.129118zm10.285714-12.80124097c-1.1428569 0-1.9144613 1.18296717-2.2991069 2.07278377-.3857903-.9332671-1.1294642-2.12501451-2.2723214-2.12501451-1.714704 0-2.6225989 2.19866311-2.6225989 3.34152021 0 1.1428572 1.4797418.7710245 1.4797418.034821 1.1428571-2.2857143 2.2857143-1.8445756 2.5625 1.7687632v.3995536c-.4377113-.2162401-.9279912-.3526792-1.4196429-.3526792-1.6766366 0-3.4340068 1.1799743-3.4340068 3.4285715v1.1428565c0 1.1428569 1.7142857 1.1428569 1.7142857 0v-1.1428565c0-1.1039537 1.0717394-1.7142857 1.7197211-1.7142857.6279685 0 1.3737584.6127755 1.4196429 1.6205357v.046876 3.6984114c.8660714-.660776.8660714-.679076 1.6968551 0l.026359-3.6515431v-.1428572c.046912-1.0064027.7921467-1.6183035 1.4196433-1.6183035.647982 0 1.719722.610332 1.719722 1.7142857v1.1428572c0 1.1428569 1.714285 1.1428569 1.714285 0v-1.1428572c0-2.2485972-1.75737-3.4285714-3.434007-3.4285714-.4919102.0000057-.9817576.1384797-1.4196433.3549163 0-.1026789-.019092-.2071475 0-.3080357.2857144-3.1362378 1.5408663-4.066532 2.6837233-1.7808177 0 .6031401 1.404879 1.0558061 1.404879-.087051s-.945327-3.27187931-2.660031-3.27187937z" fill="#1388ff" fill-rule="evenodd"/></svg>