<svg height="13" viewBox="0 0 16 13" width="16" xmlns="http://www.w3.org/2000/svg"><g transform="translate(0 -1039.3621)"><path d="m10.30469 1040.5228a.50005003.50005003 0 0 0 -.3496108.8594l3.0429698 3.043h-2.998048c-.5540224 0-.9999999.446-.9999999 1v5c0 .554.4459775 1 .9999999 1h4.000001c.554022 0 1-.446 1-1v-5c0-.2821-.118019-.5334-.304688-.7149a.50005003.50005003 0 0 0 -.0332-.035l-4-4a.50005003.50005003 0 0 0 -.357421-.1524z" fill="none" stroke="#fff" stroke-width="1.5"/><path d="m1.2412669 1051.3621s1.7520542-3.3347 3.5041086-3.3347 3.5041087 3.3347 3.5041087 3.3347z" fill="none" stroke="#fff" stroke-width="1.5"/><rect fill="#008000" height="7" rx="1" width="6" x="9" y="1044.3621"/><path d="m14.309365 1044.9644-4-4" fill="none" stroke="#008000" stroke-linecap="round" stroke-linejoin="round"/><path d="m1.2412669 1051.3621s1.7520541-3.3346 3.5041084-3.3346 3.5041086 3.3346 3.5041086 3.3346z" fill="#999" fill-rule="evenodd"/></g></svg>