<svg height="12" viewBox="0 0 16 12" width="16" xmlns="http://www.w3.org/2000/svg"><g transform="matrix(1.25 0 0 -1.25 0 12)"><path d="m0-9.6h12.8v9.6h-12.8z" fill="#0000a0" transform="scale(1 -1)"/><path d="m2.6842219 8.407381c-.0004331-.7284019-.7427266-1.4621673-1.4532733-1.4819651v-4.2688679c.7172832.0004562 1.4663133-.8094212 1.4532733-1.5377963l7.4493391-.0000682c.02726.7351116.778174 1.5087896 1.451606 1.5378645v4.2688679c-.642861-.00701-1.451304.7670481-1.451606 1.4819857l-7.4493391.0000504z" fill="none" stroke="#fff" stroke-width=".6784"/><path d="m5.861626-5.4307982v-.013176c0-.00439.0022-.010981.00659-.019764v-.026351-.026352c0-.017567-.0022-.037331-.00659-.059291 0-.021959-.0022-.043919-.00659-.065879-.013176-.052703-.039527-.098818-.079054-.1383455-.035135-.043919-.092249-.067553-.1712849-.065879h-.5204426v-.4971595h.4677396c.2108122 0 .4062527-.063683.5863214-.1910486.1844607-.1317576.3293941-.2443564.4348002-.4024656.026351-.035135.048311-.068075.065879-.098818.021959-.035135.039527-.070271.052703-.1054061h.4677396v3.7957744c0 .1054061.024155.1932446.072466.2635153.048311.065879.1097978.098818.1844608.098818h.5731457v.6215714h-2.9052558v-.6215714h.5204426c.1010142 0 .1690889-.02196.2042243-.065879.035135-.048311.052703-.1646974.052703-.3491577z" fill="#fff" transform="scale(1 -1)"/></g></svg>