<svg height="9" viewBox="0 0 12 9" width="12" xmlns="http://www.w3.org/2000/svg"><g transform="matrix(1.25 0 0 -1.25 0 9)"><path d="m0-7.2h9.599999v7.2h-9.599999z" fill="#0000a0" transform="scale(1 -1)"/><path d="m2.0131663 6.3055349c-.0003249-.5463014-.557045-1.0966254-1.089955-1.1114738v-3.2016508c.5379624.0003422 1.099735-.6070659 1.089955-1.15334716l5.5870041-.0000511c.020445.55133366.5836304 1.13159206 1.0887046 1.15339826v3.2016508c-.4821459-.0052575-1.0884781.5752861-1.0887046 1.1114892l-5.5870041.0000378z" fill="none" stroke="#fff" stroke-width=".5088"/><path d="m5.861626-5.4307982v-.013176c0-.00439.0022-.010981.00659-.019764v-.026351-.026352c0-.017567-.0022-.037331-.00659-.059291 0-.021959-.0022-.043919-.00659-.065879-.013176-.052703-.039527-.098818-.079054-.1383455-.035135-.043919-.092249-.067553-.1712849-.065879h-.5204426v-.4971595h.4677396c.2108122 0 .4062527-.063683.5863214-.1910486.1844607-.1317576.3293941-.2443564.4348002-.4024656.026351-.035135.048311-.068075.065879-.098818.021959-.035135.039527-.070271.052703-.1054061h.4677396v3.7957744c0 .1054061.024155.1932446.072466.2635153.048311.065879.1097978.098818.1844608.098818h.5731457v.6215714h-2.9052558v-.6215714h.5204426c.1010142 0 .1690889-.02196.2042243-.065879.035135-.048311.052703-.1646974.052703-.3491577z" fill="#fff" transform="scale(.74999997 -.74999997)"/></g></svg>