<svg height="16" viewBox="0 0 14 16" width="14" xmlns="http://www.w3.org/2000/svg"><g transform="translate(0 -1037.3622)"><path d="m7 1039.3622c-3.3122314 0-6 .791-6 1.7668v4.0385 7.3187c.0942.952 2.85642.8745 6.1093972.8745 3.2529778 0 5.7964028.078 5.8906028-.8745v-7.3187-4.0385c0-.9758-2.687768-1.7668-6-1.7668z" fill="#4d4d4d"/><rect fill="#4d4d4d" height="3.000017" ry=".46875" width="2" x="6" y="1037.3622"/><path d="m5.5498182 1053.4685 3.2532018-.095 2.427718-3.1959-4.1653012-4.1874-3.8669903 5.3917 2.3513717 2.0864" fill="#ff0"/><path d="m6 1043.3622c-.8308972 3.8734-3.4834066 4.7675-3.7724138 6.7698-.2903148 2.0112 3.3113159 3.3302 3.822232 3.4146 0 0-1.3789267-1.19-1.2419363-2.139.094893-.6573.2235743-1.0045.9973872-1.7238.5561536-.517.7798896-1.4926 1.2416059-2.5404 1.643123.9492 3.267511 1.6017 2.783465 3.0233s-3.0033155 4.1495-.729009 3.24c4.90312-2.4385 3.365342-7.0531-3.101331-10.0445z" fill="#f00" fill-rule="evenodd" stroke="#000" stroke-linecap="square" stroke-width=".416789"/></g></svg>