<svg height="16" viewBox="0 0 16 16" width="16" xmlns="http://www.w3.org/2000/svg" xmlns:xlink="http://www.w3.org/1999/xlink"><linearGradient id="a" gradientTransform="matrix(.4 0 0 .40004104 -1.6 -1.600985)" gradientUnits="userSpaceOnUse" x2="0" y1="5.265" y2="42.603001"><stop offset="0" stop-color="#fff" stop-opacity=".5"/><stop offset="1" stop-color="#fff" stop-opacity="0"/></linearGradient><radialGradient id="b" cx="14.11" cy="9.421" gradientTransform="matrix(-.09714344 .39278942 -.78960068 -.1953216 13.521788 -2.780101)" gradientUnits="userSpaceOnUse" r="18.716999"><stop offset="0" stop-color="#888a85"/><stop offset="1" stop-color="#555753"/></radialGradient><radialGradient id="c" cx="26.805" cy="30.17" gradientTransform="matrix(.4768218 -.66869805 .9693748 .69136409 -33.419096 8.179519)" gradientUnits="userSpaceOnUse" r="14.476"><stop offset="0" stop-color="#d3d7cf"/><stop offset="1" stop-color="#eeeeec"/></radialGradient><linearGradient id="d" gradientTransform="matrix(.4 0 0 .40004104 -1.6 -1.600985)" gradientUnits="userSpaceOnUse" x1="9" x2="24" y1="-17.412249" y2="30.144016"><stop offset="0" stop-color="#fff"/><stop offset="1" stop-color="#fff" stop-opacity="0"/></linearGradient><linearGradient id="e" gradientTransform="matrix(.4 0 0 .40004104 -1.6 -1.600985)" gradientUnits="userSpaceOnUse" x2="0" y1="8.164" y2="39.695"><stop offset="0" stop-color="#2e3436"/><stop offset="1" stop-color="#babdb6"/></linearGradient><path d="m16 8a8 8 0 0 1 -16 0 8 8 0 1 1 16 0z" fill="#2e3436"/><path d="m7.5.549236c-5.6538656.100691-9.0992295 7.431865-5.525 11.876218l-.0125.0125c3.2448528 4.794594 11.375379 3.608403 13.0625-1.937698h.0125c.003-.0078-.003-.01716 0-.025 1.865861-4.884784-2.293918-10.382567-7.5125-9.926018-.00859.000752-.0164-.000785-.025 0z" fill="url(#b)"/><path d="m8.4625.711752c-.3053856-.01496-.6232224-.0031-.9375.025-.00419.000374-.00831-.000382-.0125 0-5.506051.08771-8.8905179 7.270311-5.3875 11.588689 3.1565128 4.664063 11.107974 3.514908 12.7375-1.887694.0012-.0038-.0012-.0087 0-.0125 1.714588-4.464543-1.762114-9.486373-6.4-9.713497z" fill="none" stroke="url(#a)" stroke-width=".400021"/><path d="m7.525 1.686852c-4.6747224.08325-7.62722468 6.339561-4.6625 10.026029a1.143021 1.1431382 0 0 1 .1.150015c2.7315172 3.908088 9.580342 2.884508 10.975-1.700174a1.143021 1.1431382 0 0 1 .0375-.10001c1.56176-4.088656-1.977437-8.758394-6.35-8.37586-.203102.01777-.213126.01715-.025 0a1.143021 1.1431382 0 0 1 -.075 0z" fill="url(#e)"/><path d="m7.5375 2.236909c-.00876.00072-.018132.012-.025.0125-.00588.00044-.029384-.00064-.0375 0-.00842.00027-.016596-.000315-.025 0-4.139902.155256-6.80769476 5.836786-4.1625 9.125936.043739.05556.088576.114447.125.175018 2.4601504 3.519833 8.743725 2.579616 10-1.550159.01454-.04507.03173-.09383.05-.137514 1.41407-3.702004-1.824979-7.972444-5.7875-7.625782-.02572.0022-.042687-.0017-.0625 0-.027704.00092-.047286.00044-.075 0z" fill="url(#c)"/><path d="m8.05 2.224407c-.122296.002-.2511712.0017-.375.0125-.02572.0022-.042687-.0017-.0625 0-.027704.00092-.047286.00044-.075 0-.00876.00072-.018132.012-.025.0125-.00588.00044-.029384-.00064-.0375 0-.00842.000269-.016596-.000315-.025 0-1.3598736.051-2.5564348.699772-3.4625 1.662671l1.7875 1.775182c.5771836-.565185 1.36653-.912594 2.2375-.912594.8768956 0 1.671812.353104 2.25.925095l1.7875-1.78768c-1.039786-1.047091-2.4529576-1.71264-4-1.687674z" fill="#ca5b00" opacity=".9"/><path d="m3.9625 3.937083c-1.8336372 1.971284-2.4436165 5.239088-.675 7.438263.043739.05556.088576.114447.125.175018.1367508.195655.291142.381746.45.550057l1.875-1.875193c-.5719764-.578257-.925-1.373199-.925-2.250231 0-.876822.3532644-1.672008.925-2.25023z" fill="#729300" opacity=".9"/><path d="m12.075 3.937083-1.7875 1.787684c.571929.57825.925 1.37324.925 2.25023 0 .873953-.356564 1.659988-.925 2.23773l1.85 1.85019c.575951-.558345 1.02574-1.243314 1.275-2.062712.01454-.04507.03173-.09383.05-.137514.806462-2.111299.10401-4.40644-1.3875-5.925608z" fill="#c70000" opacity=".9"/><path d="m8.815398 7.968164a.799998.80008197 0 1 1 -1.5999956 0 .799998.80008197 0 1 1 1.5999956 0z" fill="#555753"/><rect fill="#383936" height="6.4391" rx=".692374" ry=".707534" transform="matrix(.8158332 .57828729 -.57820831 .81588918 0 0)" width="1.385236" x="10.474097" y="-3.887535"/><path d="m8.05 2.211906c-.1223196.002-.2511712.01417-.375.025-.02572.0022-.042687-.0017-.0625 0-.027704.00092-.047286.00044-.075 0-.00876.00072-.018132.012-.025.0125-.00588.00044-.029384-.00064-.0375 0-.00842.00027-.016596-.000315-.025 0-3.0704656.115153-5.3286142 3.273853-5.2125 6.238144 3.5529172-1.152689 7.4692168-2.243133 10.9375-3.02531-.960926-1.882758-2.903526-3.286608-5.125-3.250334z" fill="url(#d)" opacity=".6"/></svg>