<svg height="16" width="16" xmlns="http://www.w3.org/2000/svg"><path d="m13 13h-7v-2l5-3-5-2v-3h7z" fill="#bee6be"/><path d="m3 3h3v10h-3z" fill="#bee6be"/><path d="m5.5 10.5 5-2-5-3z" fill="none" stroke="#000"/><g stroke-linecap="round"><path d="m2.5 2.5h11v11h-11z" fill="none" stroke="#000"/><path d="m12.5 12.5h2v2h-2z" fill="#fff" stroke="#df421e" stroke-dashoffset="1"/><path d="m1.5 12.5h2v2h-2z" fill="#fff" stroke="#df421e" stroke-dashoffset="1"/><path d="m12.5 1.5h2v2h-2z" fill="#fff" stroke="#df421e" stroke-dashoffset="1"/><path d="m1.5 1.5h2v2h-2z" fill="#fff" stroke="#df421e" stroke-dashoffset="1"/><path d="m4.5 4.5h2v2h-2z" fill="#fff" stroke="#df421e" stroke-dashoffset="1"/><path d="m4.5 9.5h2v2h-2z" fill="#fff" stroke="#df421e" stroke-dashoffset="1"/><path d="m9.5 7.5h2v2h-2z" fill="#fff" stroke="#df421e" stroke-dashoffset="1"/></g></svg>