<svg height="23" viewBox="0 0 37 23" width="37" xmlns="http://www.w3.org/2000/svg"><g transform="translate(0 -1029.3622)"><path d="m27 1029.3622h3v9.000017h-3z" fill="#fff" fill-rule="evenodd"/><path d="m24.5 1030.6622 4 6.4" fill="none" stroke="#fff" stroke-width="3.5"/><path d="m23 1029.3622h3v9.000017h-3z" fill="#fff" fill-rule="evenodd"/><path d="m24 1030.3622h1v7.000017h-1z" fill-rule="evenodd"/><path d="m28 1030.3622h1v7.000017h-1z" fill-rule="evenodd"/><path d="m24.5 1030.6622 4 6.4" fill="none" stroke="#000"/><g fill-rule="evenodd"><path d="m33 1029.3622h4v3h-4z" fill="#fff"/><path d="m33 1031.3622h3v4.000017h-3z" fill="#fff"/><path d="m31 1029.3622h3v9.000017h-3z" fill="#fff"/><path d="m32 1030.3622h1v7.000017h-1z" fill="#f00"/><path d="m33 1030.3622h3v1h-3z" fill="#f00"/><path d="m33 1033.3622h2v1.000105h-2z" fill="#f00"/></g></g></svg>