<svg height="16" width="13" xmlns="http://www.w3.org/2000/svg"><g transform="translate(-340 -462.36218)"><rect fill="#fc0" height="16" ry="2" width="13" x="340" y="462.36218"/><path d="m342 468.36218h9v1h-9z"/><path d="m346 469.36218h1v5h-1z"/><g fill="#ffe680"><path d="m341 464.36218h3v3h-3z"/><path d="m347 464.36218h5v3h-5z"/><path d="m341 470.36218h4v2h-4z"/><path d="m348 470.36218h4v2h-4z"/><path d="m343 475.36218h7v2h-7z"/></g><text font-family="Sans" font-size="1.421085" letter-spacing="0" transform="scale(1.051936 .95062818)" word-spacing="0" x="327.96674" y="488.47931"><tspan x="327.96674" y="488.47931">GAS</tspan></text><text font-family="Sans" font-size="4.332187" letter-spacing="0" transform="scale(1.0336891 .96740886)" word-spacing="0" x="329.89066" y="483.10718"><tspan x="329.89066" y="483.10718">A</tspan></text><text font-family="Sans" font-size="2.382579" letter-spacing="0" transform="scale(1.0249278 .97567849)" word-spacing="0" x="332.9227" y="483.92914"><tspan x="332.9227" y="483.92914">1,2</tspan></text><text font-family="Sans" font-size="2.382579" letter-spacing="0" transform="scale(1.0249278 .97567849)" word-spacing="0" x="336.36353" y="489.0759"><tspan x="336.36353" y="489.0759">3,4</tspan></text></g></svg>