<svg height="16" viewBox="0 0 16 16" width="16" xmlns="http://www.w3.org/2000/svg"><g transform="translate(0 -1037.3622)"><path d="m3 1049.3622h-3v3h8c-1.66665-.5236-3.3332798-.4657-5-3z" fill="#006885"/><path d="m13 1041.3622h3v-3h-8c1.66665.5236 3.33328.4657 5 3z" fill="#006885"/><g stroke="#006885" stroke-linecap="round"><circle cx="8" cy="1045.3622" fill="#c1cfd7" r="6.571429" stroke-linejoin="round" stroke-width=".857142"/><circle cx="8" cy="1045.3622" fill="none" r="1.57143" stroke-linejoin="round" stroke-width=".857141"/><path d="m8.8674175 1048.3843c-.3784809.8095-.9035585 1.3955-1.3977476 1.9006" fill="none"/><path d="m7.4770221 1042.3784c.3785-.8095.9036-1.3955 1.3978-1.9006" fill="none"/><path d="m5.9610293 1047.7379c-.8834931.1341-1.6623311.022-2.3567217-.1088" fill="none"/><path d="m10.228755 1042.9585c.883503-.1341 1.662354-.022 2.35675.1088" fill="none"/><path d="m5.0060584 1044.4704c-.531066-.7187-.7957745-1.4597-1.0041018-2.1349" fill="none"/><path d="m10.940711 1046.1155c.531057.7187.795755 1.4597 1.004077 2.1349" fill="none"/></g><path d="m16 1039.3622h-4.394531c.666248.4135.809516.5721 1.296875 1h3.097656z" fill="#c1cfd7"/><path d="m0 1051.3622h4.3946c-.6663-.4135-.8096-.5721-1.2969-1h-3.0977z" fill="#c1cfd7"/></g></svg>