<svg enable-background="new 0 0 16 16" height="13" viewBox="0 0 16 13" width="16" xmlns="http://www.w3.org/2000/svg"><path d="m.45 8.872259c1.6140233 1.408284 4.8950869-.8866663 6.4705465.0004391.3838252-.6940654 1.029243-1.56139 0-2.2653676-1.4392696-.6147503-2.8785401-.0004886-4.3178094 0-.7074582-1.1326923-.2086311-2.2653766 0-3.3980642.4562285-.8209334.724337-1.6888664 2.1589047-2.26537404 2.5810987-.4254466 5.1652443-.871682 7.5561662 0 1.474375 1.07176704 1.942152 2.22478294 2.158907 3.39806164-.475694 1.369464-1.195326 2.1245872-2.158907 2.2653766-.766809.8892275-.374262 1.5756988 0 2.2653676 1.300072-.512887 1.81114-.3943491 3.232192-.0000625v3.3592464l-15.1-.0056z" fill="#636363" stroke="#000" stroke-width=".9"/><path d="m.45 9.629259v2.597l15.1.006v-3.006" fill="none" stroke="#636363"/></svg>