<svg height="16" viewBox="0 0 7 16" width="7" xmlns="http://www.w3.org/2000/svg"><g transform="translate(0 -1036.3622)"><path d="m3.9288921 1042.2535c.009.026.065.035.10691.049.0285.01.0417.029.0216.043-.0672.062-.1637.1189-.18628.1888-.0119.034.0119.068.0591.094-.027.024-.0648.048-.0614.076.006.026.0373.048.0629.071-.0229.012-.046.024-.0698.035.0478.3598.0775.72.10057 1.0802.0182.3015.0408.6032.0581.9044.0231.016.0832.021.0749.046.006.028-.0756.038-.0728.065.0391.2546.0388.5099.0538.765.0106.2476.0246.4952.0545.7424.0188.1398.0387.2799.0888.4181.021.051.0402.1028.0962.1481-.0667.08-.15441.1605-.15875.2484-.004.082.10491.1544.11357.2359.005.039-.0434.075-.048.1136-.0149.077.006.1551.0464.2301.0395.078.11001.1514.16184.2275.0307.05.15456.069.19479.1157.035.049.0161.1048-.0421.1485-.0553.044-.1408.079-.19789.1224.0346.032.007.067.017.1.0291.054.15937.075.21646.1212.062.052.15162.098.17437.1576-.0741.05-.19077.081-.28623.121-.0559.02-.0449.056-.0562.085-.005.062-.0164.1317.0711.1832.0105.03-.0864.037-.0689.067.12347.6.21382 1.2013.33559 1.8014.006.054.1032.09.15332.1354.0404.029.0417.071-.008.098-.0393.021-.0864.039-.12161.061.054.059.2016.08.27107.1334.0543.041.0559.09.0535.1364-.005.067-.0214.1349.011.2008.002.012.0242.02.0436.026.0883.029.20129.037.28794.068.0897.03.0945.104-.002.1321-.0722.025-.15906.039-.23177.064-.0799.027-.16416.052-.2279.087-.0662.037-.0676.092-.15287.1219-.0685.021-.15472.017-.23254.021-.13507 0-.26875.019-.40444.012-.22435-.01-.44126-.041-.66453-.054-.0618-.01-.12331 0-.18411.01-.19665.014-.38897.04-.58779.048-.13522.01-.26798-.011-.40258-.013-.0845 0-.18768.0002-.24863-.033-.0628-.036-.0706-.087-.14451-.1204-.11001-.049-.23874-.089-.37504-.1216-.0455-.013-.0959-.026-.1203801-.048-.0292-.035-.0144-.081.0554-.1035.0996-.034.23162-.041.32336-.081.0424-.072.0227-.1469.0172-.2203-.003-.048.004-.1.0681-.1392.0707-.046.20176-.067.2525-.1202-.0317-.04-.14776-.058-.15457-.105-.0119-.076.175-.1187.18242-.1926.12192-.6001.21197-1.2014.33575-1.8014.0194-.03-.0752-.036-.0695-.064.0908-.06.0804-.1376.0674-.2072-.009-.021-.005-.046-.0423-.06-.0972-.042-.21769-.073-.29552-.1241.0209-.061.11341-.1076.17577-.1601.0551-.042.16694-.062.2084-.1091.0249-.036-.017-.076.0233-.1104-.0654-.049-.16601-.087-.21877-.1405-.0407-.038-.05-.084-.0253-.1248.0353-.051.16865-.07.20005-.1223.05-.074.11806-.1452.15767-.2206.0423-.079.0665-.161.0481-.2422-.008-.037-.0523-.07-.0467-.1073.008-.077.10599-.145.1131-.222.006-.093-.0881-.1775-.15812-.2619.0689-.058.0864-.1245.11-.1885.0583-.1891.0763-.3802.0953-.5708.0229-.2643.0334-.5287.0455-.7931.009-.174.0136-.3482.0427-.5217.002-.027-.0797-.037-.0729-.064-.0106-.025.0531-.029.0747-.046.0141-.2753.0376-.5507.0523-.8261.0252-.3874.0551-.775.1063-1.162-.0187-.0004-.0373-.0008-.0559-.001-.006 0-.0175-.012-.0232-.016.009-.029.0489-.055.0385-.085-.01-.024-.0395-.044-.0633-.065.0345-.017.08-.037.0663-.063-.0153-.09-.14389-.1616-.22357-.2404-.005-.04.0798-.064.15379-.074" fill="#333" stroke="#000" stroke-width=".000986"/><g fill="#fdee21" stroke="#fdee21" stroke-width=".0938" transform="matrix(.01942266 0 0 .01715941 -6.618458 1034.3756)"><path d="m411.84 271.94c37.19-14.82 74.37-29.66 111.54-44.54.08 53.27-.1 106.55-.1 159.83-23.4 8.55-46.78 17.19-70.31 25.35-12.49-42.89-25.24-85.71-37.82-128.57-1.14-4.01-2.53-7.96-3.31-12.07z"/><path d="m536.31 228.72c30.81 16.87 61.58 33.81 92.41 50.64-9.7 44.98-19.75 89.89-29.55 134.84-21.01-8.85-41.92-17.93-62.89-26.88 0-52.87-.05-105.74.03-158.6z"/></g><path d="m2.8466721 1036.4521c.23269-.1008.5048-.1121.7571-.074.13557.025.28027.07.36495.1729.0738.09.0577.2227-.0299.3012-.0658.063-.15557.1376-.1245.2332.0315.1398.19384.1952.30571.2764.0798.054.10605.1471.095.2325.18762.1639.48362.1769.65843.3552.18665.1936.23152.4638.42691.6524.16062.1486.39389.2071.6155.245.0113.024.02.05.0375.072.0923.1057.2814303.093.3637803.2073-.067.083-.18102.12-.2872603.1476-.10138.025-.20704.036-.31212.031-.17966.3439-.23424.7231-.32319 1.09-.10391.4209-.21326.8411-.29911 1.2653-.0381.036-.0779.071-.11401.1079-.014.047.022.093.0225.1404-.0229.044-.0897.031-.13091.017-.007-.055.027-.1119-.002-.1646-.10779-.0008-.22472.02-.29911.095-.14955.1481-.15111.3654-.2859.5215-.10532.4458-1.28448-.192-1.67714-.5237-.0868-.085-.2189-.1196-.34534-.1153-.009.044.0161.086.0109.1304-.027.03-.0796.019-.11246 0-.0301-.037.003-.084.002-.1251-.0285-.042-.0697-.076-.0954-.1199-.10799-.1682-.13246-.3636-.19073-.5469-.10546-.3341-.23326-.6627-.32339-1.0006-.0975-.3414-.1864502-.6912-.3828204-1.0014-.18645017.1139-.42632013.041-.60249013-.053.006-.031.007-.066.0352-.089.0829-.07.21734-.046.3026-.1124.0425-.032.0383-.086.0354-.1301.0711-.033.0956.042.12780003.081.0915-.0003.1538302-.066.2301602-.1003.047-.026.1027501-.03.1567402-.031.2035501-.2609.3344601-.5589.5321801-.823.17422-.053.33796-.1311.5149-.1788.0124-.088.041-.1764.0969-.2514.0759-.105.19014-.1814.30416-.2516.0144-.064.009-.1367-.0449-.1863-.0748-.071-.19539-.1196-.21035-.2267-.0264-.121.0806-.2249.19636-.2733m-1.4644602 2.5874c.0151.071.0421.1383.0643.2071.2443401.7355.4919801 1.4703.7345701 2.2062.45701-.14.91112-.2882 1.36561-.435 0-.9142.003-1.8285.002-2.7425-.72194.2553-1.44408.5099-2.1664001.7642m2.4175301-.7416c-.002.9071-.00058 1.8143-.00058 2.7215.40729.1536.81342.3094 1.22149.4612.19034-.7713.38554-1.5419.57394-2.3137-.5988-.2888-1.19644-.5795-1.79485-.869m-.0973 3.7915c-.00058.066-.00038.1322-.00019.1984.0827.01.1515.05.21948.089.0592.031.1445.061.20258.012.17383-.1187.18684-.3281.25793-.4974-.22919.059-.46304.1086-.67979.1987m-.88218-.1739c.02.096.048.1931.10391.2785.0625.1018.16878.1771.28804.2226.0892-.034.20801-.073.2253-.1688-.005-.069-.0748-.115-.13363-.1517-.14839-.084-.31562-.1373-.48362-.1806z" fill="#333" stroke="#000" stroke-width=".001712"/></g></svg>