<svg enable-background="new 0 0 16 11" height="11" viewBox="0 0 16 11" width="16" xmlns="http://www.w3.org/2000/svg"><path d="m19 6-2.058 3.3h-4.114l-2.057-3.3h1.373z" fill="#666" transform="matrix(.88888889 0 0 1 -.888889 -6)"/><path d="m1 13.7 9.872-7.7h8.128l-9.771 7.7z" fill="#734a08" transform="matrix(.88888889 0 0 1 -.888889 -6)"/><path d="m10.558 7.386h5.202l-6.254 4.927h-5.266z" fill="#0092da" transform="matrix(.83947215 0 0 1 -.110081 -6)"/><g fill="#734a08" transform="matrix(.88888889 0 0 1 -.888889 -6)"><path d="m9.229 13.7-2.058 3.3h-4.114l-2.057-3.3h1.372z"/><path d="m7.171 17 9.771-7.7 2.058-3.3-9.771 7.7"/></g></svg>