<svg height="16" viewBox="0 0 16 16.000001" width="16" xmlns="http://www.w3.org/2000/svg"><g transform="translate(-223.82 -315.23)"><path d="m229.4415 315.23113c.0665.006.17779.0559.22149.0312.0539-.0305-.0335.13365.0239.10107.0287-.0163.0453.21306.0156.35749-.0297.14444-.0235.27974.0438.28169.0672.002-.1555.23415.0854.0966.0336-.0191.72707-.0317.74387-.0408-.0126.004-.0178-.00082.01-.0297.044-.046.0317-.0396.0275-.0379.004-.004.0201-.0186.0773-.0669.15513-.13097.57626-.4984.52771-.42662-.0487.0718.24861-.14722.41324-.22669.0117-.006.0169-.008.0245-.0126-.004.0117.0149.0246.10108.0267.11922.004.0551.15185-.005.25271.008-.0117.0162-.022.0266-.0364.28134-.3796-.0884.39056-.10331.51952-.0148.12897-.0288.33726-.0386.50094-.01.16368.15853 1.1507.17837 1.25975.0199.10912-.009.16865.10479.24304.1141.0745.23773.1981.34189.29729.10416.0992.55032.44653.72391.59534.17361.1488.39208.34768.49128.49647.0992.14881.16843.27216.2081.39615.0396.12399.18381.51099.20365.61019.0199.0992.20824.34719.31737.50094.10911.15375.43165.38219.58046.46156.14879.0794.52057.33728.69417.47121.17361.13392.45606.30222.49575.32702.0396.0248.43194.26802.54107.30771.10911.0396.28306.17075.29729.19322.0142.0226-.00029.21512-.0423.32033-.0421.10523-.16473.27707-.21034.33668-.0456.0596-.10559.0663-.14417.0944-.0385.0281-.0595.13155-.19845.38947-.13889.25792-.39676.35717-.5158.4266-.11905.0695-.36661.0594-.41622.0594-.0496 0-.0299.01-.0796.0891-.0497.0794-.34699.22842-.43628.21852-.0892-.01-.72443-.17859-.93272-.22818-.20834-.0496-1.29994-.40079-1.63661-.42885-.33669-.028-.61689.13991-.84134.28019-.22447.14029-.5615.53363-.72988.64587-.16835.11225-.12781-.10538-.42067.0276-.29287.1329-.81329.64568-1.06576 1.06656-.15015.25027-.26341.98723-.54702 1.67896-2.78854-1.00203-4.77752-3.66619-4.77752-6.80427 0-.36695.0279-.72705.0802-1.0792.9631-.42738 1.79858-1.08328 1.80833-1.08734.0124-.006.0305-.0138.0542-.026.0239-.0122 2.02733-2.02349 2.06097-2.04165.0336-.0181.87076-.90062.91268-.92388.042-.0232.61877-.432.66742-.4593.009-.006.0218-.007.0371-.006zm2.21403.0267c.006-.0184.0605-.0323 0 0z" fill="#734a08" stroke-width=".072654"/><g fill="none" stroke="#f00" stroke-width="2"><path d="m236.82 331.23v-6"/><path d="m239.82 328.23h-6"/></g></g></svg>