<svg height="16" viewBox="0 0 16 16" width="16" xmlns="http://www.w3.org/2000/svg"><g transform="translate(0 -1036.3621)"><rect fill="#fff" height="16.000046" rx="2.000002" width="16.000008" y="1036.3621"/><g fill="#3771c8" transform="matrix(.85716634 0 0 .85716634 2.859681 150.89059)"><path d="m7.8178461 1041.8617c-.8260795 0-1.4905882.7755-1.4905882 1.7382v6.9336c-.013155 1.0862 1.3917706 1.0862 1.3785772 0v-5.722h.710423v6.5506h4.4223349v-6.5506h.78274v5.722c-.0133 1.0862 1.391832 1.0862 1.378576 0v-6.9342c0-.9625-.665741-1.7381-1.491821-1.7381h-5.6902419z"/><ellipse cx="10.663416" cy="1039.2753" rx="1.91276" ry="1.912785"/></g><path d="m6.0000019 1042.3621h3.000001v-2h-3.000001v-3h-2.0000009v3h-3.000001v2h3.000001v3h2.0000009z" fill="#c00" fill-rule="evenodd"/></g></svg>