<svg height="16" viewBox="0 0 16 16" width="16" xmlns="http://www.w3.org/2000/svg"><g transform="translate(0 -1036.3621)"><rect fill="#fff" height="16.000004" ry="2.00004" width="16.000004" y="1036.3621"/><g fill="#3771c8" transform="matrix(.85716634 0 0 .85716634 3.142505 151.1699)"><path d="m7.8178461 1041.8617c-.8260795 0-1.4905882.7755-1.4905882 1.7382v.9897c-.0005667.019-.0005667.038 0 .056v.1659 5.722c-.013155 1.0862 1.3917706 1.0862 1.3785772 0v-5.722h.710423v6.5506h4.4223349v-6.5506h.78274v5.722c-.0133 1.0862 1.391832 1.0862 1.378576 0v-5.8884-1.0458c0-.9625-.665741-1.7381-1.491821-1.7381h-5.6902419z"/><ellipse cx="10.663416" cy="1039.2753" rx="1.91276" ry="1.912785"/></g><path d="m2.9550687 1049.6092c.2522249 0 1.0224663-7.1573 2.0449317-7.1573 1.0224651 0 1.8452307 7.1573 2.0449303 7.1573.1997009 0 2.0449306-7.1573 2.0449306-8.1797-.0000011-3.0674-.798849-4.1218-2.0449306-4.09-1.2461294.032-1.1183212 1.0863-2.0449303 1.0226-.9266092-.063-.9266102-1.0226-2.0449317-1.0226-1.1183212 0-2.04493037 1.0226-2.04493037 4.09 0 1.0224 1.83724217 8.1797 2.04493037 8.1797z" fill="#fff" fill-rule="evenodd" stroke="#000" stroke-width=".811"/></g></svg>