<svg height="16" viewBox="0 0 16 16" width="16" xmlns="http://www.w3.org/2000/svg"><g transform="translate(0 -1036.3621)"><rect fill="#fff" height="16.000004" ry="2.00004" width="16.000004" y="1036.3621"/><path d="m6.0000019 1042.3621h3.000001v-2h-3.000001v-3h-2.0000009v3h-3.000001v2h3.000001v3h2.0000009z" fill="#c00" fill-rule="evenodd"/><path d="m11.657938 1042.3514a4.8627992 4.6111865 0 0 1 2.283411 4.375 4.8627992 4.6111865 0 0 1 -3.139915 3.8683 4.8627992 4.6111865 0 0 1 -5.044436-.9735" fill="none" stroke="#3771c8" stroke-linecap="round" stroke-linejoin="round" stroke-width="2"/><g fill="#3771c8"><path d="m3.137786 1048.5775h6.303675v1.361424h-6.303675z"/><g transform="matrix(.97665867 -.2147972 .2147972 .97665867 -223.11134 25.685385)"><rect height="2.330092" rx=".397748" ry=".53033" transform="matrix(.70710678 -.70710678 .70710678 .70710678 0 0)" width="8.181212" x="-733.99048" y="743.95947"/><rect height="1.18506" rx=".396739" ry=".477059" transform="matrix(.70518305 -.70902529 .66540886 .7464791 0 0)" width="10.754155" x="-692.80725" y="743.93555"/><path d="m12.208529 1042.3671a1.8165996 1.8165996 0 0 1 .854536 1.7072 1.8165996 1.8165996 0 0 1 -1.143945 1.5285 1.8165996 1.8165996 0 0 1 -1.878923-.3385"/></g></g></g></svg>