<svg height="308.12" width="308.12" xmlns="http://www.w3.org/2000/svg"><path d="m2.043359 1.058686h308.1167v235.54376h-308.1167z" fill="#fff"/><g stroke="#000" stroke-linecap="round" transform="translate(-87.091039 -129.47691)"><path d="m240.1875 155.15625c-72.85179 0-121.78125 63.87446-121.78125 101.15625 0 0 .0937.34375.0937.34375v90.90625l240.84375-1.8125v-89.09375l.40625-.21875c0-36.90234-47.93698-99.84709-119.5625-101.125v-.15625z"/><g fill="none" stroke-width="3"><path d="m381.915 346.95341-288.069634.59395 1.781874-105.72452 23.16436-45.73477 39.20123-39.79519 52.86226-22.5704h53.45623l54.05018 22.5704 43.06195 40.68613 20.78853 46.03175z"/><path d="m97.438084 244.21377 20.438476 11.80016"/><path d="m119.27765 196.38505 17.21967 13.56026"/><path d="m158.75688 156.29288 11.75977 19.6331"/><path d="m212.09583 133.92681 1.67997 22.36607"/><path d="m96.178108 301.50351h20.159602"/><path d="m380.09252 244.84375-20.43848 11.80016"/><path d="m358.25295 197.01503-17.21967 13.56026"/><path d="m318.77372 156.92286-11.75977 19.6331"/><path d="m265.43477 134.55679-1.67997 22.36607"/><path d="m381.35249 302.13349h-20.1596"/></g></g><path d="m33.115632 134.39536c.49958 0 .49958 0 0 0z" fill="none"/><g transform="matrix(1.8831168 0 0 1.9689361 22.772979 -300.97041)"><path d="m8.9465267 230.15741 17.8078503 57.51338h60.92159l19.682363-57.51339z" fill="#a40"/><g fill="#520"><path d="m102.24602 292.46356c0 7.94094-6.437402 14.37835-14.378344 14.37835s-14.378348-6.43741-14.378348-14.37835 6.437406-14.37835 14.378348-14.37835 14.378344 6.43741 14.378344 14.37835z" opacity=".99" transform="translate(-14.697867 -5.112301)"/><path d="m102.24602 292.46356c0 7.94094-6.437402 14.37835-14.378344 14.37835s-14.378348-6.43741-14.378348-14.37835 6.437406-14.37835 14.378348-14.37835 14.378344 6.43741 14.378344 14.37835z" opacity=".99" transform="translate(-47.288787 -5.112301)"/></g></g></svg>