<svg height="982.49854" width="917.01813" xmlns="http://www.w3.org/2000/svg" xmlns:xlink="http://www.w3.org/1999/xlink"><clipPath id="a"><path d="m0 0h21000v29700h-21000z"/></clipPath><g clip-path="url(#a)" fill-rule="evenodd" stroke-linejoin="round" stroke-width="28.222" transform="matrix(.04819248 0 0 .03543307 -47.51176 -34.932578)"><path d="m1000 28700v-8589h710v8589z" fill="#b3b3b3"/><path d="m1000 28700v-8589h710v8589z" fill="#4d4d4d" stroke="#666"/><path d="m10056 1859v8589h4972l3907-8589z" fill="#1a1a1a"/><path d="m10056 1859v8589h4972l3907-8589z" fill="none" stroke="#666"/><path d="m1710 20111 8346-18252v8589l-8346 18252z" fill="#333"/><path d="m1710 20111 8346-18252v8589l-8346 18252z" fill="none" stroke="#999"/><path d="m10054 4906c-218 294-404 674-381 1067 26 457-243 741-382 1100-138 354 15 697-59 1065-77 380-43 809-351 1101-299 283-442 743-677 1102-209 320-161 730-176 1099-15 367 49 747-87 1102-130 339-135 730-117 1099 18 359-23 794-382 960-337 156-654 430-852 816-172 335-257 726-352 1101-90 359-50 746-147 1102-102 376-153 775-295 1136-153 388 36 781 61 1170 22 357-32 711-61 1065-33 398 48 879 382 1067 286 162 609 164 911 284 335 133 598 490 646 887 58 479 474 542 764 532 293-9 588-70 881-105 319-38 648 26 939 176 348 180 696-118 881-425 212-353 591-303 880-498 304-205 487-582 647-958 163-382 605-395 880-640 284-252 368-706 471-1099 103-391 213-788 206-1209-6-380 70-758 87-1136 19-423 254-767 440-1099 228-406 483-789 736-1173 212-323 330-730 527-1065 217-369 446-736 618-1136 170-395 542-676 557-1138 15-434 230-781 469-1065 249-294 336-734 499-1099 151-338 331-683 354-1065 21-359 44-709 28-1065-16-368 9-737 0-1102s-26-726 59-1102c82-362 51-951-293-1065-318-105-629-193-881-425-268-247-625-404-970-320-346 85-589 410-909 569-288 144-545 511-881 425-314-80-633-78-941-178-305-99-738-64-880 320-146 393-482 549-792 498-336-54-670-182-940-427-263-238-600-245-911-283l-117-142z" fill="#cc0"/><path d="m10054 4906c-218 294-404 674-381 1067 26 457-243 741-382 1100-138 354 15 697-59 1065-77 380-43 809-351 1101-299 283-442 743-677 1102-209 320-161 730-176 1099-15 367 49 747-87 1102-130 339-135 730-117 1099 18 359-23 794-382 960-337 156-654 430-852 816-172 335-257 726-352 1101-90 359-50 746-147 1102-102 376-153 775-295 1136-153 388 36 781 61 1170 22 357-32 711-61 1065-33 398 48 879 382 1067 286 162 609 164 911 284 335 133 598 490 646 887 58 479 474 542 764 532 293-9 588-70 881-105 319-38 648 26 939 176 348 180 696-118 881-425 212-353 591-303 880-498 304-205 487-582 647-958 163-382 605-395 880-640 284-252 368-706 471-1099 103-391 213-788 206-1209-6-380 70-758 87-1136 19-423 254-767 440-1099 228-406 483-789 736-1173 212-323 330-730 527-1065 217-369 446-736 618-1136 170-395 542-676 557-1138 15-434 230-781 469-1065 249-294 336-734 499-1099 151-338 331-683 354-1065 21-359 44-709 28-1065-16-368 9-737 0-1102s-26-726 59-1102c82-362 51-951-293-1065-318-105-629-193-881-425-268-247-625-404-970-320-346 85-589 410-909 569-288 144-545 511-881 425-314-80-633-78-941-178-305-99-738-64-880 320-146 393-482 549-792 498-336-54-670-182-940-427-263-238-600-245-911-283l-117-142z" fill="none" stroke="#cc0"/><path d="m10589 28700v-8589h710v8589z" fill="#4d4d4d"/><path d="m10589 28700v-8589h710v8589z" fill="none" stroke="#666"/><path d="m11299 28700v-8589l8701-19111-178 9019z" fill="#4d4d4d"/><path d="m11299 28700v-8589l8701-19111-178 9019z" fill="none" stroke="#999"/><path d="m1000 20111 8701-19111h10299l-8701 19111h-710l8346-18252h-8879l-8346 18252z" fill="#e6e6e6"/><path d="m1000 20111 8701-19111h10299l-8701 19111h-710l8346-18252h-8879l-8346 18252z" fill="#4d4d4d" stroke="#999"/></g></svg>