<svg height="16" viewBox="0 0 16 16" width="16" xmlns="http://www.w3.org/2000/svg"><g fill-rule="evenodd" transform="translate(0 -1036.3622)"><path d="m0 1052.3622c1.8596782-12.543 4.0209341-10.1773 8-14 6.346321.9354 6.954976 8.2678 8 14z" fill="#999"/><path d="m2.5 1052.3622c.5577641-3.4792-1.2259077-6.3044 5.4776786-11.5 5.4727264 1.9539 5.1434704 6.471 5.4776784 11.5z" fill="#666"/><path d="m4.2857143 1052.3622c.026772-5.2211 1.4939385-6.924 3.5133928-8.9107 3.7403139.5778 2.6949029 5.752 3.5133929 8.9107z" fill="#333"/><path d="m6.0491072 1052.3622c.5705131-4.61 1.0022491-4.8607 1.6495535-5.0714 1.3148637.7535 1.3447478 3.0808 1.6495536 5.0714z"/></g></svg>