<svg height="16" viewBox="0 0 13 16" width="13" xmlns="http://www.w3.org/2000/svg"><path d="m1 4h4v6h-4z"/><path d="m0 10h6v6h-6z"/><rect fill="#4d4d4d" height="1.000242" ry=".45265" width="5" x="3" y="2"/><rect fill="#666" height="1" ry=".5" width="5" x="5" y="1"/><rect fill="#999" height="1" ry=".5" width="6" x="7"/><path d="m3 8h1.000001v5.000472h-1.000001z" fill="#8a1713"/><path d="m4 11h1v2.000035h-1z" fill="#8a1713"/><path d="m2 8h.999997v5.000017h-.999997z" fill="#d4231d"/><path d="m1 11h1v2.000035h-1z" fill="#d4231d"/><path d="m1 13h2v2h-2z" fill="#aa1c17"/><path d="m3 13h2v2h-2z" fill="#78110e"/><path d="m2 5h1v3h-1z" fill="#e1312b"/><path d="m3 5h1v3h-1z" fill="#a11915"/></svg>