<svg height="14.127" width="16" xmlns="http://www.w3.org/2000/svg"><path d="m0 0h15.999872v14.127h-15.999872z" fill="#fff"/><path d="m2.9204844 1.6979566v1.403644l1.414964.01132v.475428l3.260077.01132h.690503l-.01132-.656543-.611265-.01132.565986-.271673 4.4146876-.04528v.316952h.396189v2.184705c-.05459.0057-.114211.0072-.158476.01132-.110638.05826-.226394.237714-.226394.237714v.38487l.305632.588625h.09056v.305633s-.0076.100867.07924.147156c.161292.08596.144725.294809.01132.316952-.05936.0099-.145587-.08886-.147156-.226394-.000532-.04753-.06665.03038-.06792.04528-.0091.107336.06304.305568.215075.328272.04949.0074.244286-.08237.237714-.339591-.0034-.136166-.226395-.271673-.226394-.271673v-.305633h.09056l.294313-.588625v-.38487s-.104436-.179457-.215075-.237714c-.04908-.02001-.106949-.02352-.169795-.02264v-2.173385h.36223v-.328271l.8037-.01132v-.554666l-6.0900046-.113197-.656543-.215075-4.652402-.01132zm1.471563 2.026228-.101878 2.275262.101878 2.275262-.181116 2.2752614-.203754 2.150745h-3.22611798v.475428h14.54582858v-.475428h-7.3578116l-.192435-2.150745-.181116-2.2752614.101878-2.275262-.101878-2.275262zm.645223.260353h1.901712l.101877 1.754556h-2.105466zm-.101877 2.275262h2.105466l-.101877 1.754556h-1.901712zm.101877 2.275262h1.901712l.181115 1.7545554h-2.263942zm-.181115 2.2752624h2.263942l.192435 1.890391h-2.637492z"/></svg>