<svg height="16" viewBox="0 0 16 16" width="16" xmlns="http://www.w3.org/2000/svg"><g transform="translate(0 -1037.3622)"><path d="m3.7398815 1039.2327c-.5308678.182-.5897077.2337-.7030878.6174-.1063408.3598-.1062905.41.0004313.4321.061121.013.692392.6512 1.9263449 1.9485 1.0094879 1.0615 1.9646416 2.0619 2.1225647 2.2233.2152052.2199.2793272.3072.255973.3483-.066043.1163-2.8196266 3.0091-2.8898593 3.0361-.027274.01-.099159-.034-.1597456-.098-.1395263-.1482-.8234498-1.0605-1.2369663-1.65-.1739426-.248-.3360434-.4491-.3602242-.4469-.024181 0-.3877132.2782-.807851.6133l-.7638864.6091.102447.09c.056346.05.2630176.3255.4592697.6132.5712923.8375 1.199139 1.6544 1.512067 1.9675.4233026.4237 2.7997022 2.1807 2.9494194 2.1807.038517 0 .253207-.2484.5592352-.6469.3394481-.442.5291569-.6587.5991695-.6846.056347-.021.096927-.053.090178-.072-.00675-.019-.3774941-.3092-.8238769-.6453-.4463835-.3361-.9284262-.7194-1.071207-.8518-.3747484-.3476-.3920943-.3059.501335-1.2034.8969171-.901 3.1326574-3.0683 5.3493283-5.1856.912606-.8718 1.774138-1.6947 1.914513-1.8289.163976-.1567.284934-.244.338308-.244.07932 0 .08195-.01.05805-.1886-.03992-.3009-.164453-.5721-.306649-.6677-.133733-.09-.391184-.1723-.653028-.2088l-.163796-.023-2.141752 2.2944c-1.1779624 1.262-2.1528998 2.2901-2.1665255 2.2846-.013626-.01-.9055708-1.0084-1.9821002-2.2286-1.0765291-1.2199-2.0163186-2.2779-2.0884198-2.3509l-.1310941-.1327zm4.871872 5.9665-.4306187.4074 1.2993376 1.3631c1.0967286 1.1506 1.2993376 1.3794 1.2993376 1.4678 0 .09-.12288.2191-.8955561.9386-.4925551.4586-.8865787.8485-.8756076.8663.010972.018.05301.032.093421.032.045802 0 .3157794.2309.7168805.6132.3538742.3373.6607702.6133.6819902.6133s.405183-.3571.853251-.7937c.849808-.8277.909307-.8689 1.042821-.7214.03591.04.09118.072.122822.072.03165-.0003.17097-.097.309614-.2147.16088-.1368.290716-.2183.358867-.2251l.106787-.011-.120268-.1366c-.06615-.075-.125809-.1841-.13258-.2422-.01086-.093.02225-.1357.280754-.3594.161186-.1396.310955-.2538.332819-.254.03602-.0004 1.645256-3.1037 1.624-3.1318-.005-.01-.623176.3155-1.373785.716l-1.364745.7281-.415363.4111c-.228449.2262-.425606.4112-.438128.4112-.01253 0-.610493-.6656-1.328827-1.479-.7183328-.8134-1.308432-1.4789-1.3113318-1.4789-.0029.0001-.1990512.1834-.4358918.4074z" stroke="#fafafa" stroke-width="1.442854"/><path d="m3.7398815 1039.2327c-.5308678.182-.5897077.2337-.7030878.6174-.1063408.3598-.1062905.41.0004313.4321.061121.013.692392.6512 1.9263449 1.9485 1.0094879 1.0615 1.9646416 2.0619 2.1225647 2.2233.2152052.2199.2793272.3072.255973.3483-.066043.1163-2.8196266 3.0091-2.8898585 3.0361-.027275.01-.09916-.034-.1597464-.098-.1395263-.1482-.8234498-1.0605-1.2369663-1.65-.1739426-.248-.3360434-.4491-.3602242-.4469-.024181 0-.3877132.2782-.807851.6133l-.7638864.6091.102447.09c.056346.05.2630176.3255.4592697.6132.5712923.8375 1.199139 1.6544 1.512067 1.9675.4233026.4237 2.7997022 2.1807 2.9494194 2.1807.038517 0 .253207-.2484.5592352-.6469.3394481-.442.5291569-.6587.5991695-.6846.056347-.021.096927-.053.090178-.072-.00675-.019-.3774941-.3092-.8238769-.6453s-.9284262-.7194-1.071207-.8518c-.3747481-.3476-.3920943-.3059.501335-1.2034.8969171-.901 3.1326574-3.0683 5.3493283-5.1856.912606-.8718 1.774138-1.6947 1.914514-1.8289.163976-.1567.284934-.244.338308-.244.07932 0 .08195-.01.05805-.1886-.03992-.3009-.164453-.5721-.306649-.6677-.133734-.09-.391185-.1723-.653029-.2088l-.163795-.023-2.141753 2.2944c-1.1779624 1.262-2.1528994 2.2901-2.1665255 2.2846-.013626-.01-.9055708-1.0084-1.9821002-2.2286-1.0765291-1.2199-2.0163178-2.2779-2.0884198-2.3509l-.1310942-.1327zm4.871872 5.9665-.4306187.4074 1.2993376 1.3631c1.0967286 1.1506 1.2993376 1.3794 1.2993376 1.4678 0 .09-.12288.2191-.8955561.9386-.4925551.4586-.8865787.8485-.8756076.8663.010972.018.05301.032.093421.032.045802 0 .3157794.2309.7168805.6132.3538742.3373.6607702.6133.6819902.6133s.405183-.3571.853251-.7937c.849808-.8277.909307-.8689 1.042821-.7214.03591.04.09118.072.122822.072.03165-.0003.17097-.097.309614-.2147.16088-.1368.290716-.2183.358867-.2251l.106787-.011-.120268-.1366c-.06615-.075-.125809-.1841-.13258-.2422-.01086-.093.02225-.1357.280754-.3594.161186-.1396.310955-.2538.332819-.254.03602-.0004 1.645256-3.1037 1.624-3.1318-.005-.01-.623176.3155-1.373785.716l-1.364745.7281-.415363.4111c-.228449.2262-.425606.4112-.438128.4112-.01253 0-.610493-.6656-1.328827-1.479-.7183328-.8134-1.308432-1.4789-1.3113318-1.4789-.0029.0001-.1990512.1834-.4358918.4074z" stroke-width=".036071"/></g></svg>