<svg height="430" width="430" xmlns="http://www.w3.org/2000/svg"><path d="m102.25974 377.26295c-14.031744-4.81075-15.586986-6.17631-18.583819-16.3172-2.810762-9.51128-2.809437-10.8384.01144-11.42131 1.615526-.33382 18.301109-17.21221 50.916589-51.50493 26.68249-28.05462 51.92883-54.4988 56.10301-58.76485 5.68824-5.81343 7.38309-8.11953 6.7658-9.20581-1.74565-3.07182-74.52754-79.53498-76.38391-80.24733-.7209-.27663-2.62095.8883-4.22235 2.58877-3.68792 3.9161-21.765187 28.02959-32.695131 43.61244-4.5976 6.55482-8.8822 11.8698-9.52134 11.81107-.63913-.0588-10.247928-7.35244-21.352884-16.20826l-20.190816-16.10151 2.707849-2.38356c1.489321-1.31096 6.951995-8.6047 12.139281-16.20828 15.100229-22.13409 31.695288-43.72849 39.966503-52.00662 11.188609-11.197952 74.000918-57.637572 77.958198-57.637572 1.01806 0 6.69269 6.563464 14.78154 17.096772 8.97219 11.68359 13.98652 17.412996 15.83707 18.095508 1.48935.549308 2.56195 1.405552 2.38356 1.902774-.17838.497222-9.97781 8.17306-21.77647 17.057408-11.79868 8.88435-24.53989 19.01696-28.31383 22.51693-9.90524 9.18616-10.36372 8.08567 13.25114 31.80676 23.70705 23.81367 82.80148 81.09955 141.39187 137.06463 24.12172 23.04089 46.89347 44.79423 50.60385 48.34075 4.33417 4.14273 7.53129 6.44822 8.94205 6.44822 2.09654 0 2.16595.22546 1.53452 4.98542-1.05513 7.95396-4.34674 15.12166-8.10527 17.64986-3.53476 2.37765-10.33966 4.55387-17.2606 5.51994l-4.32941.60433-56.61015-60.64762c-31.13559-33.35619-56.90485-60.5284-57.265-60.38267-.36015.14572-23.93578 26.65108-52.39029 58.90076-28.4545 32.2497-53.29474 60.21406-55.2005 62.14302l-3.46504 3.50721zm128.77189-157.7058-11.38199-10.76758 34.3437-36.02871c28.98844-30.41069 34.34373-36.46012 34.34373-38.79537 0-2.38704-3.24793-5.79129-23.67108-24.81039-13.01909-12.124052-23.43379-22.427642-23.14381-22.896862.29-.46922 1.40116-.853128 2.46928-.853128 1.21064 0 8.3466-6.104044 18.94838-16.208272 9.35351-8.91455 17.46528-16.208272 18.02617-16.208272.56087 0 10.70967 9.438934 22.55286 20.97541 22.4619 21.880148 24.03452 22.968086 27.56354 19.068557.94912-1.048771 2.41-1.901211 3.24642-1.894319.83639.0066 4.51903 2.561594 8.18362 5.67711 4.25232 3.615156 7.68409 5.766526 9.48543 5.946386l2.82255.28182-3.17888 3.60987c-1.74839 1.98544-3.32534 4.86761-3.5043 6.40481-.28704 2.46525.58825 3.58575 7.42081 9.49974 4.26044 3.68767 8.21908 6.709 8.797 6.71407.95211.009 43.48691 82.03462 42.92509 82.77892-.13144.17415-16.47163-8.34302-36.31152-18.92704l-36.07251-19.24368-10.97874-10.86757c-6.0383-5.97718-11.24953-10.8676-11.58048-10.8676-.33097 0-16.13639 17.59074-35.12316 39.09054-18.98678 21.4998-34.5841 39.09023-34.66075 39.08984-.0766-.00038-5.26126-4.84611-11.52136-10.76828z" stroke="#fafafa" stroke-width="38.137115"/><path d="m102.25974 377.26295c-14.031744-4.81075-15.586986-6.17631-18.583819-16.3172-2.810762-9.51128-2.809437-10.8384.0114-11.42131 1.615526-.33382 18.301109-17.21221 50.916589-51.50493 26.68249-28.05462 51.92883-54.4988 56.10301-58.76485 5.68824-5.81343 7.38309-8.11953 6.7658-9.20581-1.74565-3.07182-74.52754-79.53498-76.38389-80.24733-.72092-.27663-2.62097.8883-4.22237 2.58877-3.68792 3.9161-21.765187 28.02959-32.695131 43.61244-4.5976 6.55482-8.8822 11.8698-9.52134 11.81107-.63913-.0588-10.247928-7.35244-21.352884-16.20826l-20.190816-16.10151 2.707849-2.38356c1.489321-1.31096 6.951995-8.6047 12.139281-16.20828 15.10023-22.13409 31.695289-43.72849 39.966504-52.00662 11.188608-11.197952 74.000917-57.637572 77.958197-57.637572 1.01806 0 6.69269 6.563464 14.78154 17.096772 8.97219 11.68359 13.98652 17.412996 15.83707 18.095508 1.48935.549308 2.56195 1.405552 2.38356 1.902774-.17838.497222-9.97781 8.17306-21.77647 17.057408-11.79866 8.88435-24.53989 19.01696-28.31383 22.51693-9.90523 9.18616-10.36372 8.08567 13.25114 31.80676 23.70705 23.81367 82.80148 81.09955 141.39187 137.06463 24.12172 23.04089 46.89347 44.79423 50.60387 48.34075 4.33415 4.14273 7.53127 6.44822 8.94203 6.44822 2.09654 0 2.16595.22546 1.53452 4.98542-1.05513 7.95396-4.34674 15.12166-8.10527 17.64986-3.53476 2.37765-10.33966 4.55387-17.26058 5.51994l-4.32942.60433-56.61016-60.64762c-31.13559-33.35619-56.90484-60.5284-57.265-60.38267-.36015.14572-23.93578 26.65108-52.39029 58.90076-28.4545 32.2497-53.29472 60.21406-55.2005 62.14302l-3.46504 3.50721zm128.77189-157.7058-11.38199-10.76758 34.3437-36.02871c28.98844-30.41069 34.34373-36.46012 34.34373-38.79537 0-2.38704-3.24793-5.79129-23.67108-24.81039-13.01909-12.124052-23.43379-22.427642-23.14381-22.896862.29-.46922 1.40116-.853128 2.46928-.853128 1.21064 0 8.3466-6.104044 18.94838-16.208272 9.35351-8.91455 17.46528-16.208272 18.02617-16.208272.56087 0 10.70967 9.438934 22.55286 20.97541 22.4619 21.880148 24.03452 22.968086 27.56354 19.068557.94912-1.048771 2.41-1.901211 3.24642-1.894319.83639.0069 4.51903 2.561594 8.18362 5.67711 4.25232 3.615156 7.68409 5.766526 9.48543 5.946386l2.82255.28182-3.17888 3.60987c-1.74839 1.98544-3.32534 4.86761-3.5043 6.40481-.28704 2.46525.58825 3.58575 7.42081 9.49974 4.26044 3.68767 8.21908 6.709 8.797 6.71407.95211.009 43.48691 82.03462 42.92509 82.77892-.13144.17415-16.47163-8.34302-36.31152-18.92704l-36.07251-19.24368-10.97874-10.86757c-6.0383-5.97718-11.24953-10.8676-11.58048-10.8676-.33097 0-16.13639 17.59074-35.12316 39.09054-18.98678 21.4998-34.5841 39.09023-34.66075 39.08984-.0766-.00038-5.26126-4.84611-11.52136-10.76828z" stroke-width=".953428"/></svg>