<svg height="16" viewBox="0 0 16 16" width="16" xmlns="http://www.w3.org/2000/svg"><g transform="translate(0 -1036.3621)"><path d="m0 1036.3621h16v16h-16z" fill="#fff"/><path d="m3 1040.3621c-1.037884 0-1.9776167.6718-3 2v10h16v-8s-1.573787-.7207-2.617609-.7207c-1.368957 0-2.77797 1.2382-3.9374998 2.7285-1.631842-2.5745-4.3718088-6.0078-6.4448931-6.0078z" fill="#a40" fill-rule="evenodd"/><path d="m9 1036.866v3.4962h-1.503907c-.447994.0002-.669761.5441-.349609.8575l2 2.0039c.195265.1952.511766.1952.7070307 0l2-2.0039c.374791-.3616.03953-.8621-.351562-.8594h-1.501954v-3.4943c0-.6757-1-.6679-1 0z" fill-rule="evenodd"/><path d="m9.5 1045.7019c.0000016 2-6.5312501 2.7344-6.5312501 3.7344s11.0312525 1.9258 13.0312525 1.9258" fill="none" stroke="#ccc"/></g></svg>