<svg enable-background="new 0 0 307 229" height="110" viewBox="0 0 160 110" width="160" xmlns="http://www.w3.org/2000/svg"><g fill="#0ff" stroke="#0893a1" stroke-width="3" transform="matrix(.53863021 0 0 .51566592 -1.863259 -4.533518)"><path d="m142.04 214.03s2.866-59.186-5.322-75.972c-8.19-16.79-22.52-38.49-22.93-45.86-.409-7.37-1.638-28.25 0-36.848s6.961-29.479 11.874-16.787-3.686 23.747-3.275 25.794c.409 2.047-3.686 18.015 7.778 31.935s8.598-9.417 8.598-9.417-5.987-28.66 3.762-30.707c9.75-2.047 7.703 17.605 6.475 22.928-1.229 5.323 2.535 26.203 1.063 27.841s1.349 21.291.348 23.338 1.865 32.345 5.96 20.062c4.094-12.282 6.002-17.605 11.598-21.699 5.598-4.095 13.785-2.867 6.826 11.668-6.961 14.535-14.74 13.716-17.605 35.825-2.867 22.109-.41 44.218-.41 44.218s-12.7 2.09-14.75-6.33z"/><path d="m112.75 218.42s2.457-7.755-11.464-27.816c-13.92-20.062-27.021-13.511-29.888-28.251-2.866-14.739 2.457-16.377 6.142-10.645 3.685 5.731 6.312 9.417 14.21 11.873 7.898 2.457 11.993 10.646 7.489-8.188-4.504-18.833-6.551-20.718-12.282-27.35-5.732-6.633-34.393-25.057-57.729-27.104-23.341-2.04-25.797-9.409-23.751-13.504 2.047-4.094 29.888 0 29.888 0l9.417.819s23.746 13.102 4.503-15.558c-19.242-28.66-24.974-37.258-18.014-37.667 6.961-.409 11.055-1.638 20.063 12.692 9.007 14.33 19.652 42.171 19.652 42.171s3.275 10.235 6.142 8.598c2.865-1.638.818-27.841 1.228-29.479s-2.047-28.692 1.229-31.337 18.424-29.667 13.511 9.638-3.275 51.587-3.275 51.587 11.055 16.787 15.149.819 24.155-26.203 24.155-26.203 6.961-2.457 9.827-9.007c2.865-6.551 16.377 1.228 8.598 10.235s-34.802 25.384-36.029 38.077c-1.229 12.692-5.323 31.936.409 33.163 5.731 1.229 1.638-4.913 11.873-9.826 10.236-4.913 18.834-23.63 22.109-13.861 3.275 9.768-7.37 16.318-7.37 16.318s-11.873 2.456-15.968 14.33c-4.094 11.873-4.503 13.92-3.685 21.29.819 7.369 4.504 15.148 10.235 9.007 5.732-6.141 13.512-6.141 7.37 4.095s-9.826 22.928-9.826 27.432c.01 4.51-13.76 8.42-13.91 3.67z"/><path d="m207.26 215.85s-3.361-7.407 8.074-28.982 25.223-16.629 26.316-31.604c1.092-14.976-4.389-15.969-7.365-9.839-2.977 6.129-5.146 10.101-12.697 13.479-7.551 3.379-10.641 11.996-8.41-7.239 2.232-19.235 4.041-21.35 8.943-28.616 4.902-7.268 31.168-28.97 54.096-33.778s24.49-12.418 21.971-16.24-29.676 3.555-29.676 3.555l-9.252 1.933s-22.02 15.833-6.322-14.912 20.365-39.964 13.406-39.542-11.17-.312-18.41 14.988c-7.238 15.3-14.496 44.209-14.496 44.209s-2.035 10.553-5.076 9.268c-3.039-1.285-4.125-27.546-4.727-29.124-.6-1.577-1.379-28.732-4.945-30.969s-21.822-27.265-12.27 11.176 9.389 50.832 9.389 50.832-8.98 17.982-14.943 2.615c-5.965-15.367-27.103-23.144-27.103-23.144s-7.203-1.611-10.828-7.775-16.114 3.167-7.318 11.186c8.795 8.018 37.573 21.065 40.302 33.521s9.084 31.075 3.539 32.977c-5.547 1.901-2.211-4.683-12.958-8.344-10.748-3.661-21.512-21.223-23.602-11.134-2.09 10.088 9.258 15.326 9.258 15.326s12.082 1.026 17.56 12.328c5.477 11.303 6.127 13.287 6.189 20.701.064 7.415-2.67 15.577-9.091 10.161-6.422-5.416-14.146-4.491-6.83 4.941 7.314 9.433 12.483 21.597 13.019 26.068s14.67 6.7 14.26 1.96z"/><path d="m128.92 218.84s3.275-24.975-6.96-28.25-37.667-4.913-36.029-13.102 12.282 0 15.148 0 13.921.818 18.015.818c4.095 0 10.646-10.235 3.275-24.155-7.369-13.921-15.558-18.016-18.833-27.432-3.275-9.417 4.094-3.275-5.732-24.565-9.843-21.298-17.213-47.911-6.568-41.36s9.417 22.928 9.417 22.928l3.685-1.228s5.342-11.055 3.285-15.149-4.514-19.652-4.514-19.652 2.866-13.92 6.961-6.551c4.094 7.37 2.865 17.605 3.685 21.29.818 3.685 2.456 18.015.818 20.881s-6.122 6.96-6.95 9.417-.01 11.873 3.266 20.881c3.275 9.007 13.102-9.417 14.33-9.826 1.229-.41 8.188-13.921 10.645-20.881s-2.456-24.975-2.456-27.432 1.229-25.384 7.369-11.055c6.142 14.33 3.275 26.203 3.275 27.432 0 1.228-1.638 21.7-1.638 21.7s-3.275 11.874-9.416 19.243c-6.142 7.37-14.33 4.095-6.142 27.022s20.988 29.888 17.863 41.761c-3.124 11.874 3.427 11.874-1.486 18.834s-4.095 16.377-5.322 18.424c-1.23 2.06-9.01.01-9.01.01z"/><path d="m171.18 216.93s-2.504-28.407 7.949-32.632c10.452-4.225 27.509-22.591 26.116-31.879-1.391-9.287-5.695-5.385-8.592-5.251-2.898.134-10.093 22.758-14.231 22.949s-10.43-11.207-2.531-27.47c7.898-16.265 16.31-21.33 19.925-32.251 3.615-10.922-4.033-3.555 6.586-28.361 10.621-24.806 18.93-55.584 7.957-47.595s-10.26 26.66-10.26 26.66l-3.684-1.232s-5.045-12.392-2.832-17.169c2.211-4.778 5.197-22.685 5.197-22.685s-2.449-15.785-6.824-7.166c-4.377 8.619-3.467 20.267-4.414 24.519-.945 4.252-3.063 20.716-1.5 23.917s5.963 7.673 6.721 10.443c.76 2.771-.373 13.578-3.975 24.031-3.603 10.454-12.94-10.156-14.169-10.567-1.229-.41-7.828-15.536-10.086-23.38-2.258-7.845 3.289-28.675 3.369-31.485.078-2.809-.422-28.971-7.094-12.296-6.67 16.674-4.156 30.118-4.195 31.522-.041 1.405.953 24.738.953 24.738s2.928 13.425 8.898 21.565 14.354 4.012 5.336 30.614c-9.018 26.604-22.181 35.162-19.406 48.593 2.773 13.432-3.846 13.739.895 21.468 4.742 7.729 3.609 18.537 4.785 20.82 1.15 2.29 9.08-.42 9.08-.42z"/></g></svg>