<svg height="16" viewBox="0 0 16 16" width="16" xmlns="http://www.w3.org/2000/svg"><g transform="translate(0 -1036.3621)"><path d="m16 1048.8152s-14 .2721-14-1.4531c0-2.0207 12.1696238.3841 12.0781268-2.5625-.05623-1.811-5.8615235-1.0431-6.6140873-2.4265-.4067771-.7478-1.4158735-.309-1.1307543.4893.6093778 1.5884 4.1135776 1.3598 6.1447586 1.9615-3.9192227.3495-12.4780438-.4618-12.4780438 2.5382 0 5 16 5 16 5z" fill="#208ece"/><g fill="none" stroke="#208ece" stroke-dasharray="1.288 1.288" stroke-dashoffset="1.288"><path d="m6.846187 1042.3319c.2209709-4.0659 4.341426-7.8043 6.153815-2.9698" stroke-width="1.28"/><path d="m6.7568882 1042.3319c-.2209709-4.0659-4.341426-7.8043-6.15381503-2.9698" stroke-width="1.288"/></g></g></svg>