<svg height="86.665833" width="87.893135" xmlns="http://www.w3.org/2000/svg" xmlns:xlink="http://www.w3.org/1999/xlink"><radialGradient id="a" cx="14.207293" cy="222.04396" gradientTransform="scale(1.39523 .716728)" gradientUnits="userSpaceOnUse" r="8.251929"><stop offset="0"/><stop offset="1" stop-opacity="0"/></radialGradient><g transform="matrix(2.469674 0 0 2.469674 -122.857269 -320.542298)"><path d="m70.859749 130.14501c-.140926.02368-1.135693.18947-1.799913.18947-.727282 0-1.430758.31032-2.08411.47366-.533866.13346-1.33487.95881-1.610449 1.32625-.398716.53162-.842053.93679-1.326252 1.42098-.445993.446-.982108.88738-1.326252 1.23152-.28029.28029-.274404 1.19235-.378929 1.61045-.150408.60163-.74928 1.31768-1.136788 1.70518-.616995.617-.922425 1.02718-1.231519 1.79992-.273882.6847-.378929 1.20757-.378929 1.98938 0 .73848-.036627 1.33258.094732 1.98937.149363.74682.262937 1.32949.757858 1.98938.397749.53033 1.03885.94412 1.515717 1.42099.414665.41466.83805.51375 1.326252.75785.526769.26339.603508.54389.85259 1.04206.28671.57342.270028 1.20318.568394 1.79991.24242.48484.947993 1.01854 1.420984 1.13679.61736.15434 1.224724.49565 1.894646.66313.950993.23774 2.135277.09473 3.126165.09473 1.293384 0 2.537359-.44488 3.789292-.75786.540104-.13503.981856-.44356 1.420984-.66313.590582-.29529.708554-.65925.947323-1.13678.268596-.53719.313177-.71378.708565-1.10917.429334-.42934 1.192526-.93834 1.849207-1.06968.728522-.1457.836538-.57907 1.438807-.8802.663311-.33166 1.565744-1.23111 2.161019-1.67757.559847-.41988.828741-1.11293 1.326252-1.61045.496156-.49615.37893-1.21066.37893-1.89464 0-.59636-.663149-1.25747-.807152-1.83348-.139163-.55665-.073674-1.10929-.424368-1.57688-.52948-.70598-1.185026-1.27976-1.799914-1.89465-.598728-.59873-1.345288-.68216-1.989378-1.32625-.562112-.56211-.926519-1.30545-1.515716-1.89465-1.156939-1.15694-2.495268-1.73537-3.889964-2.60706-.597155-.37322-1.476203.06608-2.07817-.23491-.590359-.29518-1.196068-.11135-1.799914-.47366z" fill="#00b300" fill-rule="evenodd"/><path d="m28.401713 158.69876a7.9437737 4.0807056 0 1 1 -15.887548 0 7.9437737 4.0807056 0 1 1 15.887548 0z" fill="url(#a)" fill-rule="evenodd" transform="translate(50.02288 2.044779)"/><path d="m70.871227 129.79134c-1.32004 0-5.6875 1.16013-5.6875 1.90625 0 .29418-1.11894 1.42897-2.28125 2.3125-.82994.63089-1.0391.93724-.9375 1.46875.08804.46046-.07721.92412-.5625 1.46875-1.03036 1.15643-2.27259 3.46204-2.53125 4.71875-.1959.95183-.09059 1.37977.78125 3.21875.95187 2.00773 1.06537 2.13406 2.34375 2.59375 1.398.50271 2.26758 1.39643 2 2.09375-.08671.22595.22394.94266.71875 1.59375.69615.91602 1.25379 1.282 2.53125 1.71875 1.5855.54207 1.60465.57914 1.5625 1.5-.11996 2.6201-.42867 3.54731-1.5 4.5625-1.06591 1.01005-1.38576 1.96875-.65625 1.96875.21786 0 .50486-.12471.625-.3125.12013-.18777.61923-.63641 1.09375-.96875.9224-.64608 1.29637-.50333 1.5.59375.05545.29872.31337.60225.59375.65625.42866.08255.47943-.03849.375-.75-.09646-.65725-.00977-.84376.34375-.84375.25031 0 .59029.27449.75.625.23933.52526.49008.65588 1.46875.65625.65306.00025 1.54935.19866 2 .4375 1.59894.8474 1.24126-.05094-.90625-2.21875-1.19723-1.20855-2.27068-2.45257-2.375-2.78125-.10432-.32869-.09502-1.1163 0-1.75.15577-1.03871.30749-1.20156 1.46875-1.78125.70847-.35366 1.5465-.629 1.875-.59375.66284.07115 1.71875-.83151 1.71875-1.46875 0-.22533.13102-.40625.28125-.40625.15022 0 .28125-.13103.28125-.28125 0-.5771-.83839-.23765-1 .40625-.15865.63212-1.36457 1.21367-2.5 1.21875-.18778.00084-.34375.1173-.34375.25 0 .33678-1.0365.57615-1.21875.28125-.25969-.42018.95141-1.75848 2.8125-3.125 2.7656-2.03063 3.49275-2.97093 4.3125-5.53125.5772-1.80273.63881-2.33839.375-2.65625-.182-.2193-.43332-.32983-.5625-.25-.36355.22469-.99649 1.77463-1.1875 2.90625-.10564.6258-.37677 1.16074-.71875 1.34375-.30685.16422-.51313.36186-.4375.4375.32169.32168-3.573 4.1875-4.21875 4.1875-.10071 0-.19755-1.32832-.21875-2.9375-.04151-3.15134-.22672-3.59721-1.28125-2.90625-.52665.34507-.59255.50386-.34375.96875.18661.34868.21438 1.13602.09375 2.09375-.10607.84223-.17343 2.17638-.15625 2.96875.02735 1.26154-.0508 1.4824-.59375 1.6875-.52586.19866-.67367.10059-1.0625-.625-.48686-.9085-1.73965-2.04936-3.125-2.875-.69127-.41199-1.88265-2.22607-1.8125-2.75.0545-.40709-.60444-1.17268-1.21875-1.40625-.96682-.36758-1.0226-.20863-.34375 1 .32227.57378.63489 1.28928.6875 1.5625.16616.86279 1.17891 2.05548 2.8125 3.3125 1.53772 1.18325 2.5 2.29755 2.5 2.90625 0 .20103-.44163.24861-1.3125.125-1.01242-.1437-1.46354-.39562-2.15625-1.15625-.48821-.5361-.90626-1.18742-.90625-1.4375 0-.90805-.85899-2.19414-1.59375-2.375-1.25002-.30768-1.86271-.86911-2.65625-2.4375-.98961-1.95595-.94868-3.31134.1875-5.53125.47212-.92243.96081-1.65625 1.09375-1.65625.13296 0 .25001-.15154.25-.3125.00001-.16095.18092-.46216.40625-.6875.22535-.22533.40617-.67274.40625-1 .00009-.37662.52433-1.053 1.40625-1.8125.76635-.65996 1.48381-1.5325 1.625-1.9375.31539-.90473 3.46762-1.43239 4.75-1.46875 1.00777-.02856 1.36829-.71875.375-.71875zm1.9375.40625c-2.11232-.19241-1.77761.26534.40625.5625.75828.10319 1.729.4474 2.15625.75.42727.3026 1.41299.8572 2.1875 1.25 1.12953.57286 1.40625.85854 1.40625 1.40625 0 .88661.47082 1.35155 1.6875 1.6875 1.18379.32686 2.10735 1.2809 2.8125 2.875.28688.64854.65384 1.15625.8125 1.15625.35536 0 .37507-.44376.03125-.65625-.13867-.0857-.31359-.51556-.40625-.9375-.09268-.42195-.61935-1.19725-1.15625-1.75-.90278-.92946-1.25108-1.12378-1.8125-1.03125-.39597.06526-1.22179-.91949-1.40625-1.6875-.10076-.41954-.36659-.84051-.625-.9375-.25841-.09698-1.35471-.72884-2.40625-1.375-1.56477-.96155-2.2345-1.18015-3.6875-1.3125zm11.59375 10.0625c-.09498.09498-.04259.55049.125 1.03125.16759.48075.31251 1.14965.3125 1.5 0 .83441-1.55334 2.90225-2.59375 3.4375-.45066.23184-.85704.62228-.90625.875-.07226.37099.09613.32098.9375-.25 1.16705-.79197 1.62417-1.24442 2.53125-2.53125.52739-.74817.60236-1.08133.46875-2.28125-.15454-1.38788-.52671-2.12955-.875-1.78125zm-4.0625 7.125c-.35308-.09134-.77562-.10743-1 .03125-.24495.15139-.19434.28798.1875.4375.74698.29252 1.15438.27515 1.34375-.03125.10483-.16961-.17817-.34616-.53125-.4375zm-1.15625.78125c-.61398-.12075-1.57018.52358-1.25.84375.249.24901.62499.2153.625-.0625 0-.1327.287-.32579.625-.4375l.59375-.21875z" fill="#5c2700"/></g><g transform="matrix(2.469674 0 0 2.469674 -109.760155 -393.391168)"><path d="m52.802315 169.0909c.325853 1.61535 1.102334 3.06476 1.319348 4.70216.313071.8461.965773 1.74898 1.211535 2.62317.502349.82624 1.224671 1.44581 1.637037 2.32867.600623.74671.969454 1.5555 1.014462 2.55891.146728.82411.446522 1.63184.444386 2.47536-.190595 1.00268-1.423654 1.60044-2.34269 1.18794-2.04723-.50956-4.176549-.7007-6.280019-.52153-1.542797.02375-3.523231-.59375-4.875884-1.38665.056397-.37899-.486805-.46048.121808-.68053.237946-.41369.270883-1.26208.291959-1.75434.136129-.64793.829566-1.06276 1.277206-1.54705.438418-.62957.623695-1.39569.683992-2.14987.288715-1.25978.114803-2.58144.808941-3.69913.792568-1.52875 1.491284-3.11648 1.717759-4.82764.133322-.75914.494687-2.22806 1.092266-2.59301 0 0 1.828577 2.07645 1.877894 3.28354z" fill="#00b300" fill-rule="evenodd"/><path d="m28.401713 158.69876a7.9437737 4.0807056 0 1 1 -15.887548 0 7.9437737 4.0807056 0 1 1 15.887548 0z" fill="url(#a)" fill-rule="evenodd" transform="translate(31.92901 31.60125)"/><path d="m50.822033 165.59365c-.61742-.00001-1.28381 1.84113-1.5 4.15625-.12217 1.30835-.34966 2.051-.71875 2.4375-1.0472 1.09661-1.31652 1.74527-1.46875 3.59375-.14425 1.75143-.37707 2.50667-.96875 3.21875-1.11041 1.33634-.761929 1.58009-.761929 1.78258 0 .47439-.111311.26204.480679-.59508.33591-.48637.81485-1.15912 1.0625-1.5.25855-.35588.54196-1.48892.65625-2.65625.16754-1.71109.31399-2.18743 1-2.96875.65709-.7484.85335-1.28731 1-2.71875.1704-1.66316.87451-4.3125 1.15625-4.3125.06946-.00001.48385.38128.90625.84375.59584.65236.79607 1.1912.90625 2.40625.0781.86136.44126 2.1958.8125 2.9375.37126.74169.75698 1.88786.84375 2.5625.12531.9743.37636 1.42622 1.21875 2.1875 1.18038 1.06672 2.06033 2.74338 2.65625 5.03125.37938 1.45653.37019 1.54611-.1875 2.1875-.484.55665-.66117.62322-1.125.375-.307-.16432-2.42482-.34257-4.6875-.40625-2.71347-.07636-4.29595-.23641-4.65625-.46875-.30044-.19375-.99847-.42653-1.5625-.53125l-1.03125-.1875.6875-1.03125c.70429-1.03646.336074-1.40991-.020646-1.40625-.40241.00412-.951154 2.21681-.791854 2.71875.10045.3165.52746.56954 1.15625.6875.55302.10373 1.36888.36436 1.8125.59375.5376.278 1.17476.38581 1.9375.28125 1.08937-.14932 1.16392-.13929 1.09375.5-.1618 1.47401-.45918 3.03742-.71875 3.875-.15041.48527-.1884 1.00309-.09375 1.15625.2435.39398.56039.36704.96875-.125.66849-.80549 1.24399-.95815 2.0625-.53125 1.59153.83007 2.20631.2589 1.34375-1.25-.21469-.37556-.40093-1.33635-.40625-2.125-.01091-1.61681-.02756-1.60675 2.21875-1.125l1.4375.3125.84375-1.03125c.7999-.95278.84439-1.05878.5-1.71875-.20454-.39202-.37407-1.00147-.375-1.34375-.00285-1.05426-1.60745-3.9615-2.75-4.96875-.96424-.85005-1.12649-1.17567-1.34375-2.71875-.13438-.95443-.40819-1.90891-.625-2.15625-.2168-.24735-.60421-1.43068-.84375-2.625-.44606-2.22418-1.14254-3.34375-2.125-3.34375zm.25 22.96875c.08409.08408-.00083.31473-.1875.5-.26974.26773-.27321.23302-.125-.15625.10256-.26937.22841-.42785.3125-.34375z" fill="#5c2700"/></g></svg>