<svg height="16" width="8.83038" xmlns="http://www.w3.org/2000/svg" xmlns:xlink="http://www.w3.org/1999/xlink"><radialGradient id="a" cx="14.207293" cy="222.04396" gradientTransform="scale(1.39523 .716728)" gradientUnits="userSpaceOnUse" r="8.251929"><stop offset="0"/><stop offset="1" stop-opacity="0"/></radialGradient><g transform="matrix(.55580515 0 0 .55580515 -24.701746 -92.037803)"><path d="m52.802315 169.0909c.325853 1.61535 1.102334 3.06476 1.319348 4.70216.313071.8461.965773 1.74898 1.211535 2.62317.502349.82624 1.224671 1.44581 1.637037 2.32867.600623.74671.969454 1.5555 1.014462 2.55891.146728.82411.446522 1.63184.444386 2.47536-.190595 1.00268-1.423654 1.60044-2.34269 1.18794-2.04723-.50956-4.176549-.7007-6.280019-.52153-1.542797.0238-3.523231-.59375-4.875884-1.38665.0564-.37899-.486805-.46048.121808-.68053.237946-.41369.270883-1.26208.291959-1.75434.136129-.64793.829566-1.06276 1.277206-1.54705.438418-.62957.623695-1.39569.683992-2.14987.288715-1.25978.114803-2.58144.808941-3.69913.792568-1.52875 1.491284-3.11648 1.717759-4.82764.133322-.75914.494687-2.22806 1.092266-2.59301 0 0 1.828577 2.07645 1.877894 3.28354z" fill="#00b300" fill-rule="evenodd"/><ellipse cx="20.457939" cy="158.69876" fill="url(#a)" fill-rule="evenodd" rx="7.943774" ry="4.080706" transform="translate(31.92901 31.60125)"/><path d="m50.822033 165.59365c-.61742-.00001-1.28381 1.84113-1.5 4.15625-.12217 1.30835-.34966 2.051-.71875 2.4375-1.0472 1.09661-1.31652 1.74527-1.46875 3.59375-.14425 1.75143-.37707 2.50667-.96875 3.21875-1.11041 1.33634-.761929 1.58009-.761929 1.78258 0 .47439-.111311.26204.480679-.59508.33591-.48637.81485-1.15912 1.0625-1.5.25855-.35588.54196-1.48892.65625-2.65625.16754-1.71109.31399-2.18743 1-2.96875.65709-.7484.85335-1.28731 1-2.71875.1704-1.66316.87451-4.3125 1.15625-4.3125.06946-.00001.48385.38128.90625.84375.59584.65236.79607 1.1912.90625 2.40625.0781.86136.44126 2.1958.8125 2.9375.37126.74169.75698 1.88786.84375 2.5625.12531.9743.37636 1.42622 1.21875 2.1875 1.18038 1.06672 2.06033 2.74338 2.65625 5.03125.37938 1.45653.37019 1.54611-.1875 2.1875-.484.55665-.66117.62322-1.125.375-.307-.16432-2.42482-.34257-4.6875-.40625-2.71347-.0764-4.29595-.23641-4.65625-.46875-.30044-.19375-.99847-.42653-1.5625-.53125l-1.03125-.1875.6875-1.03125c.70429-1.03646.336074-1.40991-.02065-1.40625-.40241.004-.951154 2.21681-.791854 2.71875.10045.3165.52746.56954 1.15625.6875.55302.10373 1.36888.36436 1.8125.59375.5376.278 1.17476.38581 1.9375.28125 1.08937-.14932 1.16392-.13929 1.09375.5-.1618 1.47401-.45918 3.03742-.71875 3.875-.15041.48527-.1884 1.00309-.09375 1.15625.2435.39398.56039.36704.96875-.125.66849-.80549 1.24399-.95815 2.0625-.53125 1.59153.83007 2.20631.2589 1.34375-1.25-.21469-.37556-.40093-1.33635-.40625-2.125-.01091-1.61681-.02756-1.60675 2.21875-1.125l1.4375.3125.84375-1.03125c.7999-.95278.84439-1.05878.5-1.71875-.20454-.39202-.37407-1.00147-.375-1.34375-.0028-1.05426-1.60745-3.9615-2.75-4.96875-.96424-.85005-1.12649-1.17567-1.34375-2.71875-.13438-.95443-.40819-1.90891-.625-2.15625-.2168-.24735-.60421-1.43068-.84375-2.625-.44606-2.22418-1.14254-3.34375-2.125-3.34375zm.25 22.96875c.08409.0841-.00083.31473-.1875.5-.26974.26773-.27321.23302-.125-.15625.10256-.26937.22841-.42785.3125-.34375z" fill="#5c2700"/></g></svg>