<svg height="160" viewBox="0 0 160 160" width="160" xmlns="http://www.w3.org/2000/svg" xmlns:xlink="http://www.w3.org/1999/xlink"><linearGradient id="a"><stop offset="0" stop-color="#002f00"/><stop offset="1" stop-color="#009300"/></linearGradient><linearGradient id="b" gradientTransform="scale(.61308 1.6311)" gradientUnits="userSpaceOnUse" x1="466.13" x2="207.92999" xlink:href="#a" y1="349.29999" y2="183.60001"/><linearGradient id="c" gradientTransform="scale(.61308 1.6311)" gradientUnits="userSpaceOnUse" x1="383.14001" x2="383.14001" xlink:href="#a" y1="32.316002" y2="457.35999"/><linearGradient id="d" gradientTransform="scale(.61633 1.6225)" gradientUnits="userSpaceOnUse" x1="345.53" x2="384.09" y1="476.92999" y2="478.01001"><stop offset="0" stop-color="#6c2f07"/><stop offset="1" stop-color="#7e4932"/></linearGradient><linearGradient id="e" gradientTransform="scale(.61308 1.6311)" gradientUnits="userSpaceOnUse" x1="466.13" x2="207.92999" xlink:href="#b" y1="349.29999" y2="183.60001"/><g fill-rule="evenodd"><g transform="matrix(.16480578 0 0 .16457727 -13.55546 -3.839964)"><path d="m193.88 772.09-9.78 223.43h84.88l-14.88-223.43z" fill="url(#d)"/><path d="m223.51 23.337c-8.1.571-72.67 106.71-87.16 176.56-21.53 125.42-31.83 285.19-50.937 410.97-5.671 29.1-3.298 64.86 3.812 82.34 7.231 23.7 27.775 48.49 52.345 62.81 29.99 19.43 52.51 18.91 81.75 19.29.15.09.35.11.53 0 30.62-.04 53.49-1.24 81.75-19.29 24.57-14.32 45.11-39.11 52.34-62.81 7.11-17.48 9.49-53.24 3.82-82.34-19.11-125.78-29.41-285.55-50.94-410.97-14.49-69.85-79.06-175.99-87.16-176.56-.02-.005-.11-.006-.15-.003z" fill="url(#c)" fill-opacity=".75"/><path d="m223.51 23.337c-8.1.571-72.67 106.71-87.16 176.56-21.53 125.42-31.83 285.19-50.937 410.97-5.671 29.1-3.298 64.86 3.812 82.34 7.231 23.7 27.775 48.49 52.345 62.81 29.99 19.43 52.51 18.91 81.75 19.29.15.09.35.11.53 0 30.62-.04 53.49-1.24 81.75-19.29 24.57-14.32 45.11-39.11 52.34-62.81 7.11-17.48 9.49-53.24 3.82-82.34-19.12-125.78-29.41-285.55-50.94-410.97-14.49-69.85-79.06-175.99-87.16-176.56-.02-.005-.11-.006-.15-.003z" fill="url(#b)"/></g><g transform="matrix(.16480578 0 0 .16457727 44.15738 -3.839964)"><path d="m193.88 772.09-9.78 223.43h84.88l-14.88-223.43z" fill="url(#d)"/><path d="m223.51 23.337c-8.1.571-72.67 106.71-87.16 176.56-21.53 125.42-31.83 285.19-50.937 410.97-5.671 29.1-3.298 64.86 3.812 82.34 7.231 23.7 27.775 48.49 52.345 62.81 29.99 19.43 52.51 18.91 81.75 19.29.15.09.35.11.53 0 30.62-.04 53.49-1.24 81.75-19.29 24.57-14.32 45.11-39.11 52.34-62.81 7.11-17.48 9.49-53.24 3.82-82.34-19.11-125.78-29.41-285.55-50.94-410.97-14.49-69.85-79.06-175.99-87.16-176.56-.02-.005-.11-.006-.15-.003z" fill="url(#c)" fill-opacity=".75"/><path d="m223.51 23.337c-8.1.571-72.67 106.71-87.16 176.56-21.53 125.42-31.83 285.19-50.937 410.97-5.671 29.1-3.298 64.86 3.812 82.34 7.231 23.7 27.775 48.49 52.345 62.81 29.99 19.43 52.51 18.91 81.75 19.29.15.09.35.11.53 0 30.62-.04 53.49-1.24 81.75-19.29 24.57-14.32 45.11-39.11 52.34-62.81 7.11-17.48 9.49-53.24 3.82-82.34-19.12-125.78-29.41-285.55-50.94-410.97-14.49-69.85-79.06-175.99-87.16-176.56-.02-.005-.11-.006-.15-.003z" fill="url(#e)"/></g><g transform="matrix(.16480578 0 0 .16457727 99.85926 -3.839964)"><path d="m193.88 772.09-9.78 223.43h84.88l-14.88-223.43z" fill="url(#d)"/><path d="m223.51 23.337c-8.1.571-72.67 106.71-87.16 176.56-21.53 125.42-31.83 285.19-50.937 410.97-5.671 29.1-3.298 64.86 3.812 82.34 7.231 23.7 27.775 48.49 52.345 62.81 29.99 19.43 52.51 18.91 81.75 19.29.15.09.35.11.53 0 30.62-.04 53.49-1.24 81.75-19.29 24.57-14.32 45.11-39.11 52.34-62.81 7.11-17.48 9.49-53.24 3.82-82.34-19.11-125.78-29.41-285.55-50.94-410.97-14.49-69.85-79.06-175.99-87.16-176.56-.02-.005-.11-.006-.15-.003z" fill="url(#c)" fill-opacity=".75"/><path d="m223.51 23.337c-8.1.571-72.67 106.71-87.16 176.56-21.53 125.42-31.83 285.19-50.937 410.97-5.671 29.1-3.298 64.86 3.812 82.34 7.231 23.7 27.775 48.49 52.345 62.81 29.99 19.43 52.51 18.91 81.75 19.29.15.09.35.11.53 0 30.62-.04 53.49-1.24 81.75-19.29 24.57-14.32 45.11-39.11 52.34-62.81 7.11-17.48 9.49-53.24 3.82-82.34-19.12-125.78-29.41-285.55-50.94-410.97-14.49-69.85-79.06-175.99-87.16-176.56-.02-.005-.11-.006-.15-.003z" fill="url(#e)"/></g></g></svg>