<svg height="451.42859" width="451.42859" xmlns="http://www.w3.org/2000/svg"><g transform="translate(-160 -318.07648)"><path d="m160.71428 320.21933h451.42859v451.42859h-451.42859z" fill="#37c837"/><g stroke="#000"><path d="m622.85713 452.36218a88.571426 88.571426 0 1 1 -177.14285 0 88.571426 88.571426 0 1 1 177.14285 0z" fill="#b3b3b3" stroke-width="2" transform="matrix(.5175438 0 0 .5175438 52.055178 293.60206)"/><path d="m220 678.07648h271.42859v48.57143h-271.42859z" fill="#00f" stroke-width="2"/><path d="m289.2898 678.07241-.72246 47.86532" fill="none" stroke-width="10"/><g transform="translate(.714286 15)"><path d="m220 580.93359h271.42856v48.57143h-271.42856z" fill="#00f" stroke-width="2"/><path d="m375.71837 581.64384-.72246 47.86532" fill="none" stroke-width="10"/></g></g><g transform="matrix(0 1 -1 0 814.50505 12.362187)"><path d="m365.71429 478.07648a62.857143 62.857143 0 1 1 -125.71429 0 62.857143 62.857143 0 1 1 125.71429 0z" fill="#00f" stroke="#000" stroke-width="2" transform="translate(97.857143 -64.285714)"/><path d="m397.19799 418.6473-34.39601 44.57269" fill="#999" fill-rule="evenodd" stroke="#636363" stroke-width="11.837914"/><path d="m217.14286 198.92859a4.6428571 4.6428571 0 1 1 -9.28572 0 4.6428571 4.6428571 0 1 1 9.28572 0z" fill="#b3b3b3" stroke="#000" stroke-width="10" transform="translate(188.57143 214.50505)"/></g><g transform="translate(-144.28571 -.714286)"><path d="m365.71429 478.07648a62.857143 62.857143 0 1 1 -125.71429 0 62.857143 62.857143 0 1 1 125.71429 0z" fill="#00f" stroke="#000" stroke-width="2" transform="translate(97.857143 -64.285714)"/><path d="m397.19799 418.6473-34.39601 44.57269" fill="#999" fill-rule="evenodd" stroke="#636363" stroke-width="11.837914"/><path d="m217.14286 198.92859a4.6428571 4.6428571 0 1 1 -9.28572 0 4.6428571 4.6428571 0 1 1 9.28572 0z" fill="#b3b3b3" stroke="#000" stroke-width="10" transform="translate(188.57143 214.50505)"/></g><path d="m502.85715 363.790782h67.14286v137.14285h-67.14286z" fill="#c8c4b7" stroke="#000" stroke-width="2"/></g></svg>