<svg height="16" viewBox="0 0 16 16" width="16" xmlns="http://www.w3.org/2000/svg"><g fill-rule="evenodd" transform="translate(0 -1036.3622)"><g fill="#1332ff"><path d="m15.999588 1049.543-.2388.1359-.255856.1456c-.545829.3106-1.159883.3106-1.70571 0l-.511715-.2912c-.545827-.3107-1.159882-.3107-1.705709 0l-.511725.2912c-.545828.3106-1.159883.3106-1.705711 0l-.511713-.2912c-.270238-.1539-.560098-.233-.852855-.233s-.582617.079-.852855.233l-.511713.2912c-.545828.3106-1.159883.3106-1.70571 0l-.511726-.2912c-.545828-.3107-1.159882-.3107-1.705709 0l-.511715.2912c-.545827.3106-1.159882.3106-1.705709 0l-.255857-.1456-.2388-.1359v1.3047l.2388.1359.255857.1456c.545827.3107 1.159882.3107 1.705709 0l.511715-.2912c.545827-.3106 1.159881-.3106 1.705709 0l.511726.2912c.545827.3107 1.159882.3107 1.70571 0l.511713-.2912c.270238-.1538.560098-.233.852855-.233s.582617.079.852855.233l.511713.2912c.545828.3107 1.159883.3107 1.705711 0l.511725-.2912c.545827-.3106 1.159882-.3106 1.705709 0l.511715.2912c.545827.3107 1.159881.3107 1.70571 0l.255856-.1456.2388-.1359z"/><path d="m15.999588 1046.5793-.2388.1359-.255856.1456c-.545829.3107-1.159883.3107-1.70571 0l-.511715-.2912c-.545827-.3107-1.159882-.3107-1.705709 0l-.511725.2912c-.545828.3107-1.159883.3107-1.705711 0l-.511713-.2912c-.270238-.1538-.560098-.233-.852855-.233s-.582617.079-.852855.233l-.511713.2912c-.545828.3107-1.159883.3107-1.70571 0l-.511726-.2912c-.545828-.3107-1.159882-.3107-1.705709 0l-.511715.2912c-.545827.3107-1.159882.3107-1.705709 0l-.255857-.1456-.2388-.1359v1.3048l.2388.1359.255857.1456c.545827.3106 1.159882.3106 1.705709 0l.511715-.2912c.545827-.3107 1.159881-.3107 1.705709 0l.511726.2912c.545827.3106 1.159882.3106 1.70571 0l.511713-.2912c.270238-.1539.560098-.233.852855-.233s.582617.079.852855.233l.511713.2912c.545828.3106 1.159883.3106 1.705711 0l.511725-.2912c.545827-.3107 1.159882-.3107 1.705709 0l.511715.2912c.545827.3106 1.159881.3106 1.70571 0l.255856-.1456.2388-.1359z"/><ellipse cx="7.53525" cy="1042.7517" rx="2.578918" ry="2.610485"/><path d="m10.122768 1042.7193c-.287988-.8267-.279451-1.541-.9594819-2.2486-1.4311176-1.4891-1.404555-2.6617-.48025-3.8339-2.9866044 1.0162-3.3157976 3.5058-3.6718754 6.0379z"/></g><path d="m6.0254276 1043.7107c-1.0111135-1.2746.034911-2.4996.034911-2.4996l.5147663-.6756.7894297-.5911s-.8494625 1.9542-.052184 3.2579c-.7007705.8624-.9590023.5966-1.2869228.5084" fill="#8a99ff"/></g></svg>