<svg height="110" viewBox="0 0 160 110" width="160" xmlns="http://www.w3.org/2000/svg"><g fill-rule="evenodd" transform="translate(0 -943.3622)"><path d="m49.370163 943.3652c-6.990207.0788-13.995362 1.59516-20.466415 4.60506-.07275.0307-.140514.0666-.212991.0976-.09558.045-.195099.0786-.29044.12423v.009c-27.3506486 11.90343-35.1818796 43.3723-22.4704606 66.56491 17.6542026 33.861 62.8216766 45.4376 99.0210436 34.7466 33.19357-8.3992 60.86682-38.3469 53.99301-72.17269-.0428-.21032-.0708-.41938-.11618-.62999h-.0194c-3.86885-23.5055-30.18482-37.61387-54.41898-32.08463-8.711223 1.98793-16.470562 5.2915-23.399863 9.51181-8.8432-7.18844-20.192039-10.90063-31.619354-10.77178zm64.894217 20.82483c10.3879-.23596 20.90484 6.50458 22.27685 15.90035l.0484.31944.0678.31942c4.58372 21.25566-15.26302 43.14616-38.173655 48.94326l-.232346.062-.232347.062c-26.108193 7.7108-59.984934-1.5061-71.787364-24.1434l-.0484-.089-.04841-.098c-7.234652-13.20019-2.234643-32.57619 12.227537-38.68637l.251716-.10646.251716-.12422c7.655829-3.66877 17.691265-2.96012 24.87144 1.45516-11.227378 11.45045-19.475746 25.22493-25.723402 38.02949-1.734105 3.3906-1.336521 7.3749 1.039861 10.4209 2.376386 3.046 6.361535 4.6794 10.423003 4.2721 4.061471-.4074 7.566834-2.7921 9.168138-6.237 5.816496-11.921 13.160448-23.59409 22.276832-32.77676 8.389242 8.18236 15.805095 17.20556 19.711121 27.64236 1.26535 3.5539 3.74759 6.7985 7.74677 7.5338 3.99918.7354 8.12039-.5613 10.78353-3.3928 2.6631-2.8315 3.45492-6.7585 2.07181-10.2753-4.83369-12.91553-12.67968-24.57802-22.547922-34.49808 3.532332-1.71593 7.236732-3.09693 11.162632-3.99284 1.45165-.33119 2.93071-.50754 4.41469-.54125z" fill="#fff"/><path d="m49.370166 943.3652c-6.990207.0788-13.995361 1.59516-20.466416 4.60506-.07275.0307-.140515.0666-.212991.0976-.09558.045-.195099.0786-.29044.12423v.009c-27.3506506 11.90342-35.1818846 43.3723-22.4704596 66.56491 17.6542026 33.861 62.8216766 45.4376 99.0210506 34.7466 33.19357-8.3992 60.8668-38.3469 53.993-72.17269-.0427-.21033-.0708-.41938-.11618-.62999h-.0193c-3.86888-23.50551-30.18486-37.61388-54.41899-32.08464-8.711236 1.98794-16.470579 5.2915-23.399879 9.51181-8.8432-7.18842-20.19204-10.90062-31.619355-10.77177zm67.082214 5.9715c.86267-.0556 1.67545.44903 1.91691 1.24221l1.91691 6.28206c.0127.0368.0288.0779.0387.11535.24239.91511-.37627 1.83637-1.37476 2.05853-.99849.22215-2.00368-.34484-2.24607-1.25997l-1.91691-6.28204c-.27596-.9065.29854-1.84111 1.28762-2.09403.12363-.0316.25433-.0542.37757-.0621zm-53.867142 3.96622c1.026598-.0392 1.893498.69174 1.936273 1.63262.04277.94087-.75477 1.73538-1.781372 1.7746l-7.096444.49687c-1.023927.0711-1.916834-.63208-1.994363-1.57051-.07753-.93843.689675-1.75677 1.713602-1.82782l7.096445-.4969c.04183-.005.08381-.007.125859-.009zm-34.475363 3.18538c.123522.002.242693.0184.367893.0444l6.951227 1.42854c.04135.007.07545.0169.116174.0266.993983.23854 1.596301 1.17417 1.33603 2.08514-.260265.911-1.28114 1.45414-2.27512 1.21561l-6.941545-1.43742c-1.00162-.20737-1.630056-1.11392-1.403799-2.03192.197982-.80324.984515-1.34704 1.84914-1.33093zm65.717143 1.88107c.597218.004 1.183047.27342 1.539339.76308.570067.78347.341737 1.83774-.513114 2.36021l-5.78946 3.8065c-.8345.5484-1.98655.37441-2.584926-.39041-.598361-.76483-.408517-1.82955.425983-2.37796l5.779776-3.8065c.03331-.0236.06183-.0407.09682-.0621.320568-.19592.687256-.29479 1.045587-.29282zm51.175722 3.93073c1.0266-.0392 1.8935.69175 1.93627 1.63262.0428.94088-.75477 1.7354-1.78137 1.7746l-7.09644.49688c-1.02393.071-1.91684-.63208-1.99437-1.57052-.0775-.93843.68968-1.75677 1.71361-1.82782l7.09644-.49689c.0418-.005.0838-.007.12586-.009zm-95.158184 1.88993c4.913997.0186 9.853918 1.33179 13.892763 3.81538-11.227378 11.45045-20.821509 27.69171-27.069165 40.49629-1.734108 3.3905-1.340478 7.3709 1.035904 10.4169 2.376386 3.046 6.365367 4.6841 10.426838 4.2768 4.061465-.4074 7.566952-2.7928 9.168257-6.2378 5.816496-11.9209 14.506214-26.06079 23.622598-35.24346 8.389246 8.18236 17.722278 21.49716 21.628299 31.93396 1.26536 3.5538 4.52043 6.2033 8.5196 6.9387 3.99918.7353 8.12192-.558 10.78505-3.3896 2.66313-2.8315 3.45493-6.758 2.07181-10.2748-4.83369-12.91555-15.37121-28.27822-25.239443-38.19828 3.532313-1.71593 7.236723-3.09693 11.162623-3.99283 1.45164-.3312 2.93072-.50755 4.4147-.54126 10.38789-.23596 20.90485 6.50458 22.27683 15.90035l.0484.31944.0678.31942c4.58373 21.25566-15.26301 43.14616-38.173641 48.94326l-.232354.062-.232353.062c-26.10819 7.7108-59.984931-1.5061-71.787359-24.1434l-.04841-.089-.04841-.098c-7.234641-13.20019-2.234632-32.57619 12.227549-38.68636l.251715-.10647.251716-.12422c3.349426-1.60509 7.156675-2.37469 10.978677-2.36022zm-33.265187 11.42838c.572859.0225 1.128637.29177 1.471565.76309.570067.78345.341738 1.84661-.51311 2.36906l-5.77978 3.80651c-.8345.54839-1.9962404.36554-2.5946087-.39929-.5983651-.76482-.4085211-1.82954.4259823-2.37794l5.7797764-3.79763c.03331-.0236.07151-.0496.106498-.071.267138-.16327.562873-.25908.86164-.28393.08216-.006.160197-.0121.242037-.009zm85.476821 5.33266c.79307.007 1.52185.48281 1.762 1.2156.29559.90189-.26483 1.8586-1.24889 2.12952l-6.738237 2.08514c-.972868.30114-2.033665-.17315-2.362255-1.06476-.328586-.89165.198582-1.85499 1.171447-2.15613l6.738235-2.09402c.0394-.0136.0759-.0244.11617-.0355.18452-.0508.37851-.0815.56153-.0798zm-34.262376 1.00262c1.026602-.0392 1.893501.69176 1.936273 1.63265.04277.94086-.75477 1.73538-1.781372 1.7746l-7.096445.49688c-1.023923.071-1.916833-.63209-1.994359-1.57051-.07753-.93844.689675-1.75679 1.713602-1.82783l7.096445-.49691c.04183-.005.08381-.007.125856-.009zm78.361006.67436c.35803-.007.72167.0842 1.04559.27508l5.99277 3.52254c.0362.0197.0719.0402.10649.0622.84499.53576 1.05896 1.59465.47439 2.36907-.58458.77445-1.74962.97053-2.59461.43478l-5.98308-3.52258c-.8638-.50887-1.11675-1.56851-.56152-2.36019.34702-.49481.92327-.76831 1.51997-.78083zm-39.0256 17.53295c.12352 0 .24269.019.36789.044l6.94154 1.4374c.0414.01.0851.01.12586.018.99398.2386 1.58662 1.1742 1.32635 2.0852-.26026.911-1.27146 1.4541-2.26544 1.2156l-6.94154-1.4286c-1.00162-.2073-1.63006-1.1228-1.4038-2.0408.19798-.8032.98452-1.347 1.84914-1.3309zm-59.153171 1.4995c.358024-.01.721664.075 1.04559.2662l5.992768 3.5226c.03618.019.07185.04.106494.062.84499.5357 1.049284 1.6035.464707 2.3779-.584581.7745-1.739936.9706-2.584926.4348l-5.992768-3.5315c-.863804-.5088-1.107071-1.5596-.551838-2.3513.347019-.4948.923267-.7683 1.519973-.7808zm-31.2321.3905c1.026602-.039 1.893501.6917 1.936276 1.6326.04277.9409-.754773 1.7354-1.781371 1.7746l-7.0964452.4969c-1.0239268.071-1.9168332-.6321-1.9943628-1.5705-.07753-.9385.6896753-1.7568 1.7136022-1.8279l7.0964448-.4969c.04183 0 .08381-.01.125856-.01zm128.849351 4.2235c.59722 0 1.18305.2734 1.53934.763.57007.7835.33206 1.8378-.52279 2.3603l-5.77978 3.8064c-.8345.5485-1.99624.3745-2.59461-.3903-.59836-.7648-.40852-1.8296.42598-2.378l5.78946-3.8065c.0333-.024.0618-.04.0968-.062.32057-.196.68725-.2948 1.04558-.2929zm-121.394697 11.4462c.79228.021 1.508752.5145 1.732967 1.251l1.91691 6.2821c.01272.037.02877.069.03873.1064.242393.9152-.376267 1.8364-1.374755 2.0586-.998491.2221-2.003684-.336-2.246077-1.2512l-1.916916-6.282c-.275956-.9065.308221-1.85 1.297306-2.1029.18545-.048.369003-.067.551835-.062zm102.854877 3.8863c1.02585-.041 1.89087.6924 1.93627 1.6326l.31949 6.5128c.003.038.009.077.01.1154.0106.9416-.82171 1.7117-1.84914 1.7213-1.02744.01-1.8676-.7443-1.87819-1.6859l-.31948-6.5127c-.0454-.9402.75551-1.7419 1.78137-1.7835zm-84.324731 12.9723c.123517 0 .252371.018.377571.044l6.941544 1.4376c.04135.01.08513.017.125856.026.99398.2386 1.586619 1.1653 1.326348 2.0762-.260265.9111-1.28114 1.4542-2.27512 1.2157l-6.941544-1.4286c-1.001621-.2074-1.630057-1.1228-1.4038-2.0407.197983-.8033.984516-1.3471 1.849145-1.3309zm64.923271 2.9104c1.0266-.04 1.89349.6917 1.93627 1.6325.0428.941-.75477 1.7355-1.78137 1.7746l-7.09645.4969c-1.023922.071-1.916835-.6321-1.994358-1.5705-.07753-.9385.689672-1.7568 1.713598-1.8278l7.09645-.4968c.0418 0 .0838-.01.12586-.01zm-37.370095 1.6502c.358025-.01.721661.075 1.045591.2663l5.992768 3.5225c.03618.02.07186.04.106494.062.84499.5358 1.049284 1.6036.464706 2.378-.584577.7744-1.739932.9705-2.584925.4347l-5.992768-3.5314c-.863804-.5089-1.107072-1.5596-.551839-2.3513.34702-.4948.923267-.7683 1.519973-.7809z" fill="#d45500"/></g></svg>