<svg height="16" viewBox="0 0 16 16" width="16" xmlns="http://www.w3.org/2000/svg" xmlns:xlink="http://www.w3.org/1999/xlink"><linearGradient id="a" gradientTransform="matrix(.01481741 .00414641 -.00320023 .01919839 -3.602204 -4.930901)" gradientUnits="userSpaceOnUse" x1="1081.6" x2="1007.2" y1="334.89001" y2="266.73999"><stop offset="0" stop-color="#98726d"/><stop offset="1" stop-color="#d5a28c"/></linearGradient><linearGradient id="b" gradientTransform="matrix(.01481741 .00414641 -.00320023 .01919839 2.149856 -3.027759)" gradientUnits="userSpaceOnUse" x1="386.70999" x2="291.82999" y1="604.5" y2="478.92001"><stop offset="0" stop-color="#cc4930"/><stop offset="1" stop-color="#f5730b"/></linearGradient><path d="m13.709371.09887655c-.365765-.08636556-1.014487.36317672-1.163987 1.17378605l.05656.3875643c.07138.1699462.11874.332848.375229.5546031l-.684899.6692472c-.09925.1469063-.181079.4472552-.255969.8087261.0059-.3667357-.02717-.4998844-.09606-.4180904-3.6103684 2.9825613-7.4451851 6.9031891-9.9339385 8.7942471-.077882.0149-.2097346.147814-.2677559.200681-.2847619.259439-.1781564.89456.2380091 1.418542.4161659.523982.9841931.738234 1.2689543.478798.01703-.01551.032896-.03213.047144-.05023l.0008263.000859c2.4085646-2.869764 3.6071937-4.3293345 6.5374478-6.1597396 1.8282839-2.3499607 3.4629089-4.2591997 4.3392459-5.0180643.505181.4787436 1.160671.3655854 1.337392.2181177.585971-.5799626.610797-1.663915-.36899-2.31358743-.475937-.16573532-.427272 1.24676153-1.012364.90968243-.352045-.5712436.076866-1.42870864-.279136-1.58453261-.03842-.0347-.08526-.0581686-.137517-.07050759z" fill="#feebd7" stroke="#5d2e31" stroke-width=".172"/><g stroke-linecap="round" stroke-linejoin="round"><path d="m1.8468245 12.184594c.2128261.149314.3824338.382988.5022346.610017l-.0827481-.590447c1.259207.531037 1.3431462 1.642417 1.0365582 1.933244" fill="none" stroke="#000" stroke-width=".075923"/><path d="m2.2436467 12.158799.6419554-.681082c1.1225943.107333 1.4102653 1.397929 1.2956961 1.555857" fill="none" stroke="#000" stroke-width=".055216"/><path d="m1.8089241 12.692015c.026489.03532.053817.06937.082034.102379.00385.0037.00788.0071.011542.0111.014793.01614.00539.009.019801.02311.010926.01066.020886.01628.031119.02862.022064.02794.048569.04833.072596.07286.015592.02164.029746.04604.04828.06359.018547.01716.036581.03251.058171.04289.025192.0072.046826.02521.070623.03737.025108.0097.050702.024.077196.02313.012392.000202.023328.000147.035192-.0044l-.1975065.12386c-.012398 0-.024831.000216-.037167-.0017-.027247-.0073-.054181-.01706-.079883-.03099-.023302-.01346-.046234-.02751-.07065-.03742-.021981-.01345-.041431-.03148-.060789-.05043-.01669-.01975-.031166-.04234-.047506-.06256-.025247-.02329-.048945-.04858-.072899-.07403-.021956-.01996-.043122-.04058-.062582-.06467-.027686-.03446-.055095-.06927-.082972-.103455l.2054008-.0992z" fill="#918070" opacity=".61338" stroke="#563c15" stroke-width=".037961"/><path d="m2.8682087 13.922605c.041158.001.081525-.0073.1226938-.0063.028776-.0034.057065-.01159.08487-.02171.053984-.01227-.028085.0058.027303-.0045.00471-.000881.018519-.0056.013987-.0037-.064291.02678-.1288735.05237-.1933343.07846-.0043.0017.00856-.0037.012858-.0054.073036-.02993.1460962-.05976.2191441-.08964.027429-.01346.05735-.01492.085038-.02618.079175-.02285.024033-.0074-.1818628.07607-.00375.0015.00738-.0035.011073-.0053.010491-.0049.020137-.01129.030266-.01736.025249-.01214.050287-.02511.075483-.0375.024699-.01035.048076-.02464.071706-.03831.021385-.007.039074-.02074.056795-.03692.018166-.01324.036968-.02505.054547-.03958.017584-.01356.035446-.02687.052123-.04228.015106-.0194.032337-.03561.046666-.05599.016463-.01895.027665-.04383.039939-.0672.014064-.02329.02531-.049.03824-.07328.011659-.02578.024525-.05075.035673-.07693.00684-.01813.015788-.0345.0262-.04941l.2148847-.05823c-.00968.01382-.020319.02542-.02775.04178-.00984.02864-.024534.05257-.034836.0808-.00411.0078-.00926.01469-.01312.02273-.00806.01677-.01269.03646-.025417.04912-.011149.02616-.025066.05041-.038573.07443-.0164.01728-.02859.04071-.046696.05581-.013983.02241-.033596.03275-.051004.04976-.019022.01119-.035783.02807-.054482.04012-.012364.0056-.016435.01225-.026219.02276-.010151.01089-.00821.0058-.01996.01196-.00355.0019-.00684.0045-.010261.0067-.025648.0074-.046559.02942-.072357.03679-.024907.01338-.050553.02359-.074721.0389-.012548.0035-.019261.0098-.030457.0169-.075374.04798-.1600299.07353-.2420377.0998-.028724.0067-.056886.01642-.08497.02667.064463-.02695.1289021-.05399.1933909-.08084.00432-.0018-.00856.0039-.012887.0057-.073239.02997-.1463208.0606-.2198101.08954-.01308.0052-.027994.0032-.040885.0099-.028492.0074-.05665.01697-.086074.01511-.041104.0013-.082053.0073-.1231747.0086l.1979936-.121849z" fill="#918070" opacity=".61338" stroke="#563c15" stroke-width=".037961"/></g><path d="m9.333039 8.4703512a.61023879.32280037 0 0 1 -.6071967.3227964.61023879.32280037 0 0 1 -.6132505-.3195781.61023879.32280037 0 0 1 .6010826-.3259826.61023879.32280037 0 0 1 .6192433.316328" fill="#b78d77" transform="matrix(.74736022 .66441907 -.46800001 .88372846 0 0)"/><path d="m9.1971479 8.4709959a.47217995.24977079 0 0 1 -.4698261.2497677.47217995.24977079 0 0 1 -.4745103-.2472775.47217995.24977079 0 0 1 .4650952-.2522331.47217995.24977079 0 0 1 .4791473.2447628" fill="#fef1e3" stroke="#000" stroke-linecap="round" stroke-linejoin="round" stroke-width=".056023" transform="matrix(.74736022 .66441907 -.46799999 .88372847 0 0)"/><path d="m13.623927 3.1588342-3.9765222 3.9910927 4.1145882-4.316961c.0055.073268.166515.05555-.138786.3255257z" fill="#6d4d1a" stroke="#563c15" stroke-width=".036674"/><path d="m15.949514 2.0465907c-.450806.5423338-1.910465-.0234833-2.215389.3385801-.624209.2694613-5.0264141 6.6619555-6.1905401 5.7988822l.095336 1.2395074 2.211763-1.4937497c1.6048551-2.0357225 3.0841771-3.7846685 4.3642071-5.0775911 1.276244.9985944 1.797279-.2074016 1.734629-.8056673z" fill="url(#a)" opacity=".84387"/><path d="m11.529219 4.0768955-3.4144795 3.6412006 3.6599225-3.7366846c-.06539-.1059274-.14353-.1044874-.245289.095489z" fill="#6d4d1a" stroke="#563c15" stroke-width=".032098"/><path d="m13.691853 2.0256562-1.868124 2.2582355 2.002537-2.3216945c-.036-.061154-.07886-.058145-.134425.063512z" fill="#6d4d1a" stroke="#563c15" stroke-width=".018328"/><path d="m3.227568 13.119542c.046557-.006.093257-.0108.1396687-.0186.031949-.0054.065903-.0052.096624-.01861.023178-.0057.044259-.01592.06814-.01614.067089-.02626.1906902-.07469-.1866889.07627-.00333.0013.00642-.0035.00961-.0053.0098-.0056.019736-.01007.029467-.01583.4954555-.205444.096853-.04003.020521-.0089-.0037.0015.00733-.0033.010886-.0053.013409-.0076.025709-.01754.037979-.02772.020582-.02037.043537-.03715.061293-.0618.011732-.02576.025165-.04946.040017-.07227.00208-.0038.00416-.0077.00624-.01153 0 0 .2138362-.06366.2138362-.06366-.00189.0048-.00379.0095-.00568.01426-.012746.02506-.031901.0435-.040169.07249-.014889.03109-.037092.05051-.060563.07004-.1117234.121004-.5090606.203888-.067606.04887-.013361.0059-.00691.0021-.019332.01144-.00327.0017-.00694.0017-.010264.0032-.078034.03539-.1542316.09042-.2374811.09833-.022433.0052-.044214.01431-.066666.01965-.032058.0057-.064011.01177-.096327.0147-.046837.0058-.093745.01184-.1402015.02146l.1966937-.125032z" style="opacity:.61338;fill:#918070;stroke:#563c15;stroke-width:.037961;stroke-linecap:round;stroke-linejoin:round"/><path d="m3.833582 11.912289c-.023428.04759-.047952.09447-.073832.139904-.017907.03213-.038907.06075-.060166.0891-.01687.02433-.036911.04422-.055827.0657-.016635.02187-.03628.03921-.052689.06132-.018204.02065-.031198.04739-.047132.07073-.020384.02939-.043341.05626-.067961.07958-.020902.01459-.038499.03539-.057819.05297-.015734.01859-.031235.03744-.047252.05568-.017544.01507-.030955.03634-.047267.05339-.016343.01779-.033742.03427-.052076.04848-.020958.0078-.034655.02785-.049134.0476-.00569.0094-.031028.02573-.014693.0342.022792.01111.046704.01764.070424.02442.026328.0077.052878.01835.079128.0058-.065752.0267-.131375.05395-.1972541.08011-.003.0012.00595-.0029.00854-.0052.013709-.01218.022676-.03251.031493-.05011.013296-.02758.032266-.04904.048352-.07366.014086-.02417.032784-.04316.050634-.06251.016286-.01876.033747-.03605.052346-.05079.019682-.01732.040577-.03128.062425-.04341.018817-.01444.04025-.02085.059793-.03324.021868-.01285.04458-.02303.065847-.03754.019796-.01151.036792-.02937.057043-.03953.017415-.01406.036964-.02453.053269-.04083.018173-.01512.033238-.03481.049279-.05323.018931-.01858.035993-.03959.053286-.06055.010586-.01317.021717-.02512.031611-.03922 0 0 .2152149-.05621.2152149-.05621-.011406.01204-.018259.02953-.031867.03835-.016323.02332-.034205.04393-.052817.06395-.017923.01643-.031076.03834-.048813.05488-.022493.01842.00559-.0058-.016586.01766-.011165.01181-.027544.01088-.036042.02806-.020924.01489.00217-.000073-.019787.0098-.01369.0061-.024749.02095-.037427.02962-.022118.01212-.042524.02889-.065583.03839-.020224.01005-.038798.02466-.060191.03096-.02002.01687-.044557.02178-.062599.04276-.018983.01292-.035894.02809-.053151.04433-.016095.02125-.034425.03855-.051832.05756-.013983.02726-.033264.04745-.048372.0732-.00867.01388-.013967.02938-.022105.04373-.05446.09596-.081098.06632-.2318922.117366-.028112.000213-.055109-.0077-.082327-.01641-.026256-.0082-.054163-.0152-.07568-.03764-.017407-.02821-.016682-.05575.00489-.08019.018107-.01644.027891-.04384.047858-.0569.020965-.006.035244-.02542.053385-.03895.015374-.01921.032975-.03494.0468-.05638.018385-.01308.034003-.03371.047554-.05415.018003-.02083.038829-.03767.057874-.05689.026786-.0162.047306-.04502.068979-.07056.01587-.02432.03162-.04838.046384-.0739.018348-.019.032924-.04383.053159-.06035.016941-.02427.037625-.04247.056248-.0643.019724-.02982.04326-.05485.061329-.0866.025721-.04406.050724-.08884.073646-.135471l.2133827-.06494z" style="opacity:.61338;fill:#918070;stroke:#563c15;stroke-width:.037961;stroke-linecap:round;stroke-linejoin:round"/><path d="m.76097975 8.2032421c1.02800355-1.5221904 2.11926225-2.8619084 3.52397075-3.2978997 1.9927783-.5317251 3.9190564.3402886 5.3755099-.2758715.2716618.1542678.3633816.2581794.3665076.3372986.211447.018396.402988.068954.559458.1761163 0 0 .177022.2060306.22849.2595579.05147.053528.244879.3423853.261267.4252167.01639.082838.09406.613186.05276.6798709-.04132.066683-.05723.4339076-.05723.4339076-.05407.2845325-.168535.7012772-.107079.7329421l-.181635.18391s-.236378.1041756-.441628.3850148c-.152772.2090467-.6354159 2.0909952-1.2356427 3.1557932-.183.308391-1.4065697 1.45391-1.6865247 1.875426-.085973.412663-.4846131.9835-.8118095 1.337764-.1669787.08585-.3081022.198594-.4065466.355709-.1020591.112073-.2241131.240864-.4190084.430467l-.3250789.319834c-.3869191.273131-.7988785.249901-1.2123767.208458-1.672982-.017246-4.61802451-3.133286-4.14527654-6.2065782.15819135-.4140749.02146188-.3923164.66052202-1.5170387z" fill="url(#b)" stroke="#861c00" stroke-linecap="round" stroke-linejoin="round" stroke-width=".096629"/><path d="m5.6798798 12.024857-.068383 3.580289.8937484-.923605c.5004505-.5108.9794096-.991103.9583645-1.492387.4592995-.600259 1.0105356-1.171315 1.5926-1.76487.5945905-1.014332.9014372-2.1767013 1.2894212-3.2972758.219699-.1732583.554869-.3142036.602615-.5356.09941-.6934925.190755-1.353577.162687-1.51941-.3241209.3300467-.4799709.9982621-1.0461969.8418223-.1854562.1084126-.5703022 1.0168295-.8636303 1.5580199-.321429.6101256-.6433296.6225262-1.020339 1.5924126l-.463645 1.513437c-.2055281.171518-.4020955.368268-.6868551.316393-.9215805-.332617-.9738812.0284-1.3504083.130708z" fill="#4f1a00" opacity=".57249"/><path d="m.69470716 8.4193044c1.42215234-1.3512705 2.82497144.09905 3.55520774 1.4056673.726143 1.2660473 1.6976445 1.9161143 1.7411293 2.3260423.2217052.420375-.0257462 1.54694-.2091571 3.247323-.4848587.533932-.6355233.661664-1.8786016.49152-1.9274662-.791388-3.3192931-2.323189-3.83617981-5.064147-.00073961-.806959.01044119-1.4529839.62760787-2.406444z" fill="#fbf1b8"/><path d="m1.0428643 9.0413177c1.1967754-1.1224535 2.3819291.090451 2.9998058 1.1816873.6143045 1.057402 1.4344073 1.601989 1.4717221 1.943798.1876065.351034-.019132 1.289459-.1709491 2.706439-.4078995.443742-.534712.549798-1.5830006.404484-1.6264035-.665104-2.80230018-1.946009-3.24270568-4.232161-.04967075-.539355-.11942996-1.0670522.52516678-2.0042963z" fill="#bb2a00"/><path d="m5.5533262 12.2798c-.706166.784944-1.6223244 1.427112-3.039476 1.030545-.4186065-.11714-1.2232352-.617047-1.57792904-.825653.58780324 1.422648 1.57390234 2.301189 2.82745294 2.813871 1.0482915.145298 1.1750538.038983 1.5829534-.404758.1400936-1.307552.3263468-2.206821.2069775-2.613971z" fill="#8b2a00"/><path d="m12.772916 6.2929349a2.3029799 1.2391648 0 0 1 -2.291499 1.2391494 2.3029799 1.2391648 0 0 1 -2.3143461-1.226795 2.3029799 1.2391648 0 0 1 2.2684251-1.2513807 2.3029799 1.2391648 0 0 1 2.336962 1.2143187" fill="#4f1a00" opacity=".64684" transform="matrix(.6566302 .75421269 -.45895038 .8884619 0 0)"/><path d="m3.0880572 11.475178-.6548289.667694.07612.539685-.520927-.497879-.1909834.239988.073003.558382.2998728.46538.408643.446905.5279044.274878.3824343-.02991.8369719-1.262262c.1092667-.382056-.4666692-1.471381-1.2382025-1.402833z" fill="#fff"/><g fill="none" stroke="#5d2e31" stroke-width="4.4" transform="matrix(.01481741 .00414641 -.00320023 .01919839 2.479847 -3.307706)"><path d="m196.88 726.94-35.796 42.68 10.326 24.782-35.796-17.898c-45.239 30.281 66.517 108.79 117.71 77.099l39.926-66.773c9.6031-45.858-78.644-74.406-96.373-59.889z"/><path d="m136.3 776.51 48.875-45.433 6.1954 2.0651"/><path d="m255.76 848.53c10.88-33.77-47.1-77.07-93.99-78.22"/></g></svg>