<svg height="10" viewBox="0 0 16 10" width="16" xmlns="http://www.w3.org/2000/svg" xmlns:xlink="http://www.w3.org/1999/xlink"><linearGradient id="a"><stop offset="0" stop-color="#8e4a33"/><stop offset="1" stop-color="#422a1c"/></linearGradient><linearGradient id="b" gradientTransform="matrix(20.494693 0 0 21.993368 .38536 6.684091)" gradientUnits="userSpaceOnUse" spreadMethod="pad" x1="0" x2="1" xlink:href="#a" y1="0" y2="0"/><linearGradient id="c" gradientTransform="matrix(4.1497491 0 0 4.4531993 .654853 1.781771)" gradientUnits="userSpaceOnUse" spreadMethod="pad" x1="0" x2="1" xlink:href="#a" y1="0" y2="0"/><linearGradient id="d" gradientTransform="matrix(4.1497491 0 0 4.4531993 .654853 4.967735)" gradientUnits="userSpaceOnUse" spreadMethod="pad" x1="0" x2="1" xlink:href="#a" y1="0" y2="0"/><linearGradient id="e" gradientTransform="matrix(4.1497491 0 0 4.4531993 .654853 8.188985)" gradientUnits="userSpaceOnUse" spreadMethod="pad" x1="0" x2="1" xlink:href="#a" y1="0" y2="0"/><linearGradient id="f" gradientTransform="matrix(4.1497491 0 0 4.4531993 5.874292 1.781771)" gradientUnits="userSpaceOnUse" spreadMethod="pad" x1="0" x2="1" xlink:href="#a" y1="0" y2="0"/><linearGradient id="g" gradientTransform="matrix(4.1497491 0 0 4.4531993 5.874292 4.967735)" gradientUnits="userSpaceOnUse" spreadMethod="pad" x1="0" x2="1" xlink:href="#a" y1="0" y2="0"/><linearGradient id="h" gradientTransform="matrix(4.1497491 0 0 4.4531993 5.874292 8.188985)" gradientUnits="userSpaceOnUse" spreadMethod="pad" x1="0" x2="1" xlink:href="#a" y1="0" y2="0"/><linearGradient id="i" gradientTransform="matrix(4.1497491 0 0 4.4531993 11.14162 1.781771)" gradientUnits="userSpaceOnUse" spreadMethod="pad" x1="0" x2="1" xlink:href="#a" y1="0" y2="0"/><linearGradient id="j" gradientTransform="matrix(4.1497491 0 0 4.4531993 11.14162 4.967735)" gradientUnits="userSpaceOnUse" spreadMethod="pad" x1="0" x2="1" xlink:href="#a" y1="0" y2="0"/><linearGradient id="k" gradientTransform="matrix(4.1497491 0 0 4.4531993 11.14162 8.188985)" gradientUnits="userSpaceOnUse" spreadMethod="pad" x1="0" x2="1" xlink:href="#a" y1="0" y2="0"/><path d="m15.715215 3.4322226c.096616-.3504322.344811-.7084112.263373-1.1293948-.014138-.6039167.029179-1.2135042-.023331-1.81363352-.1821-.40559695-.609553-.51816508-1.010194-.46848395-1.169443-.00690344-2.338886-.01380689-3.508329-.02071033-.474947.12053403-.881167.51668992-1.289381.0484399-.6908417-.09923734-1.3985672-.02588151-2.0968177-.0484399-.7040578.01277589-1.4114408-.02686848-2.1132095.02230601-.386529.21712827-.7038864.41396952-1.069293.02613389-.6908338-.09923859-1.3985519-.02588067-2.0967946-.0484399-.7789018.00782757-1.5595092-.01572628-2.33733531.01189142-.54087745.13675457-.42331062.7525322-.43390289 1.17450928.02670677.5937142-.06677556 1.2021939.07737543 1.7824447.44931358.3782554-.03467343.7372538-.07199815 1.1622726.00792219.6337225-.04791837 1.2754734.03976859 1.9034092.33980119.3778613.21011473.7659849.00000377 1.1776615-.09029513.6312582.0089718 1.2842987-.02388018 1.9239975-.13299456.5366108.33657579.9500408.84499135.840189 1.26777499-.00377 2.53594159.0076 3.80346849-.00577.4475406-.1223443.774992-.5059113 1.1779442-.043004.6907699.099997 1.3985247.029179 2.0967498.05329.7019209.00179 1.4038418.00358 2.1057627.00536.319172-.1663004.633315-.5625459.934163-.1046021.385544.1889119.837058.06617 1.254262.1040894 1.108985-.00301 2.21957.02573 3.327547.00274.542145-.1361599.422863-.7528696.431555-1.1749263-.02304-.6086915.04326-1.2264806-.05494-1.827812-.520075-.3661917-.0044-.6748661.04371-1.1313262-.02263-.6341112.03812-1.2757171-.05375-1.903772-.000383-.2246061-.271692-.2992765-.217515-.5184204z" fill="#9c785a"/><path d="m.60878919 9.5268756c-.22832464-.0304591-.2366393-.2809282-.21541889-.5609324.0122374-.633967-.0239484-1.3163572.01712-1.9214933.068257-.2905347.58226578-.1353176.9019401-.174435 1.1846033.00623 2.3940525-.012387 3.5633178.00918.2966712.056578.1633067.5431926.191593.8681558-.012711.5276587.024587 1.1053256-.01708 1.6040284-.059746.2917721-.564981.137995-.8785258.175911-1.1876487-.0001382-2.3752975-.0002763-3.56294621-.0004145zm5.21943821 0c-.3307982-.0420254-.1915368-.5541105-.2196184-.8988526.0154102-.5195642-.0301021-1.1000509.02135-1.5835731.0688746-.2898755.5814707-.1360295.9017558-.1744945 1.1846034.00623 2.3940527-.012387 3.5633182.00918.297245.056284.164511.5425461.19243.8681558-.0128.5276088.02476 1.1055756-.0172 1.6040251-.060244.2915156-.5654287.1380404-.8792768.1759042-1.1875863-.0001149-2.3751725-.0002299-3.5627588-.0003449zm5.2673286 0c-.321189-.039251-.198302-.5225779-.22026-.8610599.01204-.5341528-.02373-1.1161077.0172-1.6213658.0756-.2847974.580995-.1398067.906707-.174496 1.184654.00623 2.394154-.012387 3.56347.00918.304787.060553.155542.5751388.19013.9058908-.0092.51714.01784 1.0704378-.0126 1.5662956-.05748.2698922-.502447.1522613-.806125.175911-1.212841-.0001186-2.425681-.0002371-3.638522-.0003557zm-10.46282895-3.2167808c-.23722945-.0186211-.26613811-.2455631-.2398113-.5277405.008988-.6483843-.0177032-1.332448.01284-1.9592772.0502409-.199682.31879642-.1810494.57993772-.169831 1.29647793.00619 2.61765963-.01233 3.89881453.00918.294414.067298.1483345.5750887.182616.9025188-.0093.5171214.018116 1.0709491-.01281 1.5664399-.0664036.2827201-.5486811.1495197-.8681738.1790954-1.1844711-.0001285-2.3689421-.0002569-3.55341315-.0003854zm5.21943825 0c-.2775987-.0167727-.2569829-.33176-.243926-.6391883.0123417-.6024781-.0240798-1.2537195.01708-1.8273795.0439337-.3008136.5310728-.1584218.8438868-.190355 1.2068041.00934 2.4508718-.018579 3.6346699.01377.300388.060061.145261.5756367.18342.8979268-.0094.5170877.01824 1.0711381-.0129 1.5664433-.06682.2825712-.5491259.1496153-.8689608.1791226-1.1844233-.0001133-2.3688466-.0002266-3.5532699-.0003399zm5.2673277 0c-.277654-.016969-.258349-.3308982-.24466-.6392103.0089-.6044881-.01763-1.2444256.0129-1.8272965.03836-.2200081.313209-.2035196.584739-.190354 1.296477.00619 2.617658-.01233 3.898812.00918.293648.067592.146137.576342.1812.9025188-.01244.5204606.02411 1.0899137-.0168 1.5819005-.07836.2637985-.550943.1333264-.862761.1636168-1.184477-.0001184-2.368953-.0002369-3.55343-.0003553zm-10.48676595-3.1859482c-.23721703-.0186406-.26633867-.2453765-.2398113-.5277615.008988-.648373-.0177036-1.3324265.01284-1.95924441.0502229-.19972825.31873833-.18116388.57993832-.169915 1.29647633.00619 2.61766733-.0123353 3.89881393.009184.2943882.0673443.1483493.57511581.182616.90258161-.00929.5171303.018116 1.070966-.01281 1.5664658-.0656868.2834608-.5491054.1491394-.8682258.1791067-1.1844537-.0001391-2.3689074-.0002781-3.55336115-.0004172zm5.21943825 0c-.2776425-.0167833-.2572249-.3316266-.2439833-.6392939.0123434-.6024415-.0240821-1.2536519.01708-1.82727466.043557-.3012146.5312789-.15826428.8438868-.1904279 1.2068022.009347 2.4508841-.0185866 3.6346702.013776.301266.0593105.145203.57594996.18374.89798956-.0094.5170959.01824 1.0711535-.0129 1.566467-.066414.2829468-.5491973.1494817-.8688708.1791181-1.184541-.0001181-2.3690819-.0002361-3.5536229-.0003542zm5.2625487 0c-.272485-.0206016-.253722-.3324516-.24005-.6392103.0089-.6044883-.01763-1.244426.0129-1.82729715.03834-.22003615.31314-.20361928.584719-.1904196 1.296479.00619 2.617672-.0123353 3.898821.009184.293622.0676385.146152.57636915.1812.90258155-.01244.5204673.02411 1.089926-.0168 1.5819197-.07755.2646193-.551381.1329118-.862761.1636478-1.18601-.0001353-2.372019-.0002707-3.558029-.000406z" fill="url(#b)"/><path d="m.89130731 2.8312414c-.26250936-.0240773-.24364142-.3295319-.2302532-.6295067.01566182-.4172764-.03049283-.8963692.0214-1.2774145.07439513-.28336853.58375549-.13177183.90336609-.1699249 1.0009939.009406 2.0394683-.018668 3.0174245.013776.3183326.0561136.1560178.5928745.195944.9273945-.0236045.3216722.0470063.7375598-.03416 1.0016702-.0366217.07345-.1035284.1156408-.1959167.133117" fill="url(#c)"/><path d="m.89610059 6.0171898c-.26759278-.0206411-.24873445-.3277334-.23510759-.6295941.0156644-.4172434-.0304964-.896312.0214-1.2773234.0744335-.283297.5838293-.1316316.9033664-.169825 1.0009973.0094 2.0394589-.01866 3.0174286.01377.3184366.055966.155873.5929315.195883.9273238-.023554.3216828.046897.7373703-.03407 1.0016395-.037027.074485-.105647.1167749-.200606.133117" fill="url(#d)"/><path d="m.86736945 9.2339859c-.22491806-.0394489-.22255335-.3061805-.20600545-.5870953.01532195-.4337893-.03003051-.928253.0214-1.3259338.0835545-.2671028.578243-.1230716.8928098-.159162 1.0057742.00942 2.0490666-.018681 3.0318079.01377.3127769.060298.1514813.5946685.191593.9276318-.024082.3179813.047523.7316504-.03399.9922014-.026185.076963-.093882.1121388-.1715087.137709" fill="url(#e)"/><path d="m6.1107454 2.8312414c-.2624949-.0241054-.24349-.3297107-.2301664-.6296346.0156303-.4172486-.0304286-.8961864.02135-1.2772866.0741894-.28350354.5837178-.13166801.9031638-.169915 1.0010421.009406 2.0395647-.018668 3.0175691.013776.3187411.0557351.1558669.5930861.1960451.9273846-.02364.3216772.0471.7377378-.03428 1.0016702-.035706.073799-.1041277.1154269-.1956279.133117" fill="url(#f)"/><path d="m6.1155388 6.0171898c-.2675916-.0206262-.248568-.3278674-.2350288-.6296244.01563-.4172521-.0304283-.8961925.02135-1.2772963.074278-.2834126.5838599-.1315213.9032638-.169808 1.0010443.0094 2.0395527-.01866 3.0175694.01377.3187648.055691.1558526.5930586.1960438.9273228-.023642.3216611.04711.7377139-.03428 1.0016291-.0370221.0744599-.1056474.1167659-.200565.133117" fill="url(#g)"/><path d="m6.0868077 9.2339859c-.2241707-.0400834-.2226345-.3058737-.2057727-.5869896.015288-.4338064-.029963-.928151.02135-1.3259327.083721-.266918.5778359-.1234413.8925938-.159322 1.0057736.00942 2.0490655-.018681 3.0318062.01377.313201.059936.1514653.5948072.191773.9276358-.02421.3179369.04782.7321138-.03428.9921596-.026101.077002-.093813.1121837-.171438.137709" fill="url(#h)"/><path d="m11.378074 2.8312414c-.388077-.1055337-.180436-.6141894-.2308-.9127135.0284-.3533809-.06226-.7296473.0559-1.0660891.288141-.18675854.670052-.0613762 1.001134-.0979694h2.833065c.380302.0724879.208101.5422974.24709.8172897-.01502.3657105.0312.7388014-.0252 1.0995237-.03086.095878-.109345.1410637-.20327.159131" fill="url(#i)"/><path d="m11.382867 6.0171898c-.26581-.02086-.250496-.3228436-.23565-.6243593.01559-.4190754-.03043-.8997628.0215-1.2824987.07484-.2830488.583937-.1318324.903807-.169847 1.001039.0094 2.039543-.01866 3.017555.01377.317503.056377.153425.5943366.19432.927322-.02328.3218029.04633.7365021-.0336 1.0016605-.03635.074863-.104919.1167975-.1996.133117" fill="url(#j)"/><path d="m11.354136 9.2339859c-.224997-.039519-.22362-.3054124-.20654-.5870093.01542-.4337465-.0302-.9285276.0215-1.3259944.08395-.2668307.578453-.1231061.893257-.1590822 1.00577.00942 2.049058-.018681 3.031795.01377.311971.060618.149223.5959533.19013.9276348-.02384.3180679.04702.7308328-.0336.9921152-.02568.077226-.09281.1123309-.1704.137709" fill="url(#k)"/><path d="m.65458212 2.4005105c-.02725775-.5659152-.02166105-1.1329277-.0042816-1.69905703 1.00632988-.04459523 2.01694798-.05138242 3.02104938.03797995-.9731825.1213101-1.9556266.14763208-2.93552588.1435678.20378936-.08133758-.04755994.84012138-.0271049 1.11673818-.015989.1337545-.0334196.2673523-.0539245.400496" fill="#c39f77"/><path d="m.65458212 5.5864744c-.05188653-.5647602-.07150987-1.1320573-.07874816-1.6989805 1.00766954-.0443457 2.01959904-.0516603 3.02502944.0379515-.9731886.1210064-1.9555887.1475469-2.93546884.1434189.20860433-.095433-.007351.8388229.0269631 1.1148937-.01.1342959-.0215568.2684915-.036235.4023635" fill="#c39f77"/><path d="m5.8740061 5.5066691c-.0518751-.5647452-.0715196-1.1320263-.0787401-1.6989344 1.0076747-.0443415 2.0196094-.05169 3.0250443.0379436-.9732027.1210517-1.9555981.147588-2.9354836.1433661.208624-.095439-.00738.8388359.026951 1.1149-.00999.1342967-.021562.2684911-.036235.4023637" fill="#c39f77"/><path d="m11.141334 8.8066992c-.05189-.5647594-.07149-1.1320567-.07876-1.6989791 1.007662-.044346 2.019584-.051665 3.025007.037953-.973214.1208714-1.955604.1474355-2.935485.1431987.208586-.095427-.0073.8388968.02695 1.1149623-.01001.1342744-.02156.2684497-.03623.4023022" fill="#c39f77"/><path d="m.65458212 8.8066992c-.05188033-.5647602-.07150939-1.1320564-.07874816-1.6989791 1.00766904-.0443658 2.01958784-.0515796 3.02502994.0378015-.9732002.1207895-1.9556044.1473696-2.93546934.1431991.20861725-.09542-.007364.8388846.0269631 1.1149614-.009999.134291-.0215618.2684809-.036235.4023483" fill="#c39f77"/><g fill="#a98662"><path d="m7.3466554 7.7447064c-.446079.7418471-.4447703-.7258473 0 0z"/><path d="m6.7947293 4.9698322c-.4461467.7418481-.4448184-.7258361 0 0z"/><path d="m3.5999091 8.5669315c-.4367217.7261097-.4353174-.7106355 0 0z"/><path d="m6.9260309 1.4070708c-.1210718.8380263-1.1111963-.1901043-.3112493-.3340095.1758542-.00315.31616.1643827.3112493.3340095z"/><path d="m12.149834 4.5313089c-.159297.6939843-.818113-.324191-.139722-.2262302.08652.038692.140966.1326673.139722.2262302z"/><path d="m3.3399879 4.9698322c-.2255585.3536876-.2016142-.339879 0 0z"/><path d="m12.096595 1.5954925c-.435602.7238277-.433909-.70847416 0 0z"/></g></svg>