<svg height="16" width="16" xmlns="http://www.w3.org/2000/svg"><g transform="translate(0 -1036.36)"><path d="m113.53775 95.709503a15.48242 15.951584 0 1 1 -30.964842 0 15.48242 15.951584 0 1 1 30.964842 0z" fill="#f9f9f9" transform="matrix(.0215669 -.0196285 .0196285 .0215669 -2.8971 1048.31)"/><path d="m11.43658 1041.0297c1.28208 1.4028.687401 4.0358-1.327404 5.8773-2.0148066 1.8415-4.690541 2.1977-5.9726187.795-1.28208-1.4028-.6874027-4.0358 1.327402-5.8773 2.0062635-1.8337 4.6670897-2.1963 5.9570687-.8118l.01555.017z" fill="#ac39ac" fill-opacity=".443925" fill-rule="evenodd"/><path d="m4.2048193 1043.4327c2.0381607.7471 3.6846991 2.0635 4.4358552 4.6815l2.6532355-2.7439c-.580375-2.3514-2.0556572-3.8335-4.4222966-4.45z" fill="#ac39ac" fill-rule="evenodd"/><path d="m11.464877 1041.0245c1.282079 1.4027.687401 4.0357-1.327403 5.8773-2.0148085 1.8415-4.6905416 2.1976-5.9726194.7949-1.2820801-1.4027-.6874028-4.0357 1.327402-5.8772 2.0062635-1.8338 4.6670894-2.1964 5.9570684-.8118l.01555.017z" fill="none"/><g fill="#ac39ac" fill-rule="evenodd"><path d="m11.307244 1041.0235c1.276776.5607 3.209861.2774 3.854468-.4512-.329317-.069-.640118-.4024-.831499-.7873-.200859-.404-.01844-.9301-.359731-1.2424-.389681-.3566-.931856-.1608-1.344943-.375-.363497-.1886-.480802-.5868-.857377-1.0287-.902309 1.2192-.823187 2.6807-.460918 3.8846z"/><path d="m4.3829514 1047.9272c-1.2733164-.5685-3.2081009-.297-3.85715833.4276.32888722.071.63763903.4063.82665763.7924.1983813.4052.012749.9301.3521145 1.2445.3874887.359.9308529.1665 1.3426201.3833.3623346.1908.4771977.5897.8510578 1.0339.9097604-1.2136.8395945-2.6756.4847083-3.8817z"/></g></g></svg>