<svg height="16" viewBox="0 0 7 16" width="7" xmlns="http://www.w3.org/2000/svg" xmlns:xlink="http://www.w3.org/1999/xlink"><clipPath id="a"><path d="m7-.48208h18v32h-18z"/></clipPath><mask><g clip-path="url(#a)"><path d="m7-.48208h18v32h-18z" fill-opacity=".1914"/></g></mask><clipPath><path d="m7-.48208h18v32h-18z"/></clipPath><clipPath><path d="m7 0h18v32h-18z"/></clipPath><path d="m5.3631235.00774818-3.823016-.007747c-.142761-.000289-.259955.0524-.353088.140876-.109654.08523-.170769.272815-.173665.424574-.0032.168207.05486.352497.174409.47687802.08542.08887.205432.154175.346398.149328h.08325c.0044.131856.0026.268998-.01264.417696-.03895.485996-.169381.846752-.392486 1.087561-.71158374.820981-1.09851424 1.666133-1.16035824 2.533649-.061996.815672-.070072 4.018498-.01561 9.6112438.014813.227243.087732.649355.3553182.76425 1.34001704.57537 4.89228804.471792 6.20617204.0028.251276-.08969.35427-.503931.367966-.67902.02699-2.500997.03582-4.649253.03345-6.4098438-.000131-.125155.001-.290943.000739-.409243-.0049-1.974562-.0269-3.343804-.0617-3.768427-.04282-.430252-.131129-.543198-.862245-1.42917-.194328-.206683-.359485-.597264-.483946-.918506-.100326-.258948-.206501-.604122-.208136-.803696.02622-.0037.05523-.000945.08251-.0014.140965.0048.255953-.04362.346397-.149328.09955-.09892.160514-.31033002.157591-.47687802-.0026-.149924-.05176-.334317-.156845-.424573-.161553-.138758-.284599-.130678-.450465-.131014zm-2.762412 1.18390802 1.726627.000705c.02062.714898.238555 1.059519.454183 1.558085.316569.731957 1.209465 1.250105 1.219083 2.072986.01031.882134.02821 1.030358.03419 2.167372-1.215613-.05278-.683203-.190747-1.786775-.185979-.706613.108989-1.085961-.06004-1.848883.06175-1.259184.244038-1.378523.58324-1.378523.58324s-.06352-1.722234.111906-2.55995c.06718-.320799.203937-.627675.355406-.921549.221286-.42933.44274-.783932.801324-1.215758.251074-.25545.34978-.784096.31146-1.560902z" fill="#ac39ac" fill-rule="evenodd"/></svg>