<svg height="16" viewBox="0 0 16 16" width="16" xmlns="http://www.w3.org/2000/svg"><path d="m11.198257.00009127c-.750548.006-1.4824205.27536-2.202229.71519-.3732879.25928-.6429574.61653003-.5087663 1.02555003.2130866.64981 1.0766814 1.31138 1.3699743 1.01646l.025902-.0231c.039283.0258.0863.0471.142021.0628 1.090453.31146 2.674088.26504 3.51506-1.39471-1.22924.97662-2.067449 1.11641-2.578397.55555-.03714-.0324-.07394-.0622-.110435-.0893l.20744-.2791195c.7389-.47939 1.540197-.5036305 2.950143-.2931905-.971854-.92582003-1.904877-1.30308003-2.810713-1.29609003zm-4.0235974 1.35428003c-.9535287.67117-1.2418704 2.04009-.7960528 3.08998.1477841.34478.3643715.65371.5287945.99054.1086758.1901.2419665.39903.4141629.54895-.085931.086-.1696596.17316-.2513131.26142-.011978-.004-.023995-.007-.035973-.0106-.3642787-.0892-.7412904-.29123-1.0178776-.56073-.5747682-.55656-.7235935-1.314605-1.0086155-2.035495-.088298-.1204-.1714867-.483585-.3276754-.378185-.222031.36107-.054037.80666.1098254 1.15605.1809154.32825.3090329.68322.5060204 1.00241.336549.54124.8863226.95184 1.4973095 1.13991-.2064696.24437-.3973274.496-.5722817.75321-.4670433-.37777-.7706954-.9879125-1.3115339-1.2796025-.165063-.10241-.3645151-.10025-.5387582-.18485-.5719671-.20127-.9895345-.6996475-.9894886-1.3081775-.1956762.29432-.2211923.68969-.055008 1.00303.2437642.46958.7106788.78539 1.1965204.96496.1542869.0416.3049163.0959.4219829.21067.3631863.30019.650165.69236 1.0429019.95557-.075121.12288-.1466347.24686-.2147299.37168-.2675772-.21045-.5183814-.36379-.6570448-.33911l-.7957094.14161c-.2126066.0378.029025.62296.3337105 1.08515-.188824-.12419-.3580625-.19935-.4673777-.17265l-.8129899.19857c-.241609.059.036225.75923.3552252 1.2111097-.1179847-.0546-.2270887-.0776-.314446-.0525l-.7068266.20331c-.189515.0545.000007.55101.2396016.91521-.2217322-.17177-.4353559-.29646-.5521023-.25779l-.6267941.20754c-.1402617.0464-.037451.39282.135155.72118-.013983-.00037-.028115-.00037-.04242.00013l-1.11568618-.69845c-.24237581-.15173-.61859347-.20806-.63724645-.0462l-.04337319.37623c-.01865159.16181-.02836998.38375.23777057.50153l.26607564.11774-.12287163.0248c-.2685382.0541-.53754993.29147-.41507804.44415l.28476773.35496c.12018765.14983.29326974.34245.54027663.25397l-.13919857.10931c-.27365876.2149-.10272481.57129.20851174.91995l.56438565.63222c.3112379.34866.6375095.35949.8857745.11748l.1467516-.14303-.035706.0835c-.1077798.25205.084615.43469.2338795.56125l.3470619.29429c.1492633.12656.3934117-.13631.4545222-.40356l.073051-.31949.1644903.65612c.064748.25831.2732637.26244.427247.25451l.35801-.0184c.1539827-.008.1651469-.36651.064735-.60442l-.4876339-1.1554c-.019264-.0457-.041955-.0865-.066833-.12241.2803283.14801.5505811.21965.5823909.0743l.1589209-.72648c.025504-.11657-.026391-.27082-.1205069-.4338.3645478.2488.8812795.44724.937998.2555l.201836-.68239c.027143-.0918-.028436-.23392-.1242834-.39253.4363111.33863 1.1187241.65639 1.1889673.41612l.242844-.83068c.03029-.10361.00231-.23666-.063972-.38237.437427.30602.9620215.54741 1.0077302.34526l.1839077-.81327c.042689-.1888-.1226924-.49346-.3612525-.79747.1660413-.0857.3301967-.1774797.4924013-.2756897.1549919.2142097.2546659.4687597.2769097.7359497.037895.19011-.046734.38243.010643.56812.1738301.71313.8180895 1.19927.9828582 1.91572.040404.10453-.018072.34757.1435095.20243.1978704-.1076.3107068-.414588.2474758-.616588-.1399945-.49516-.480594-.881905-.6950399-1.343385-.081474-.14234-.095924-.30193-.097275-.46186-.044083-.44513-.2524534-.8629967-.5438013-1.2077467.1612498-.10792.320536-.22238.4777534-.34358.109186.2732.20165.55327.3377925.8145297.5304823 1.00969 1.7409283 1.636465 2.9494003 1.290565-.420379-.0863-.850764-.231865-1.251307-.381745-.356856-.11542-.701638-.274288-.957971-.563148-.373669-.41846-.5993699-.8905017-.75294-1.4229117.1360967-.11514.2706075-.23546.403481-.3613.466799.63782 1.220061 1.11961 2.010296 1.1533.374561.0147.793253-.056012 1.16779-.059812.384545-.029.831392-.1564575 1.036324-.5275075.01489-.18795-.359682-.0179-.507851-.0357-.767323.10611-1.563827.33139-2.330671.10419-.370476-.10851-.650112-.38383-.90687-.65742-.07446-.0725-.149487-.14462-.224114-.21721.167243-.17017.320636-.34.461656-.51.571242.22619 1.373209.1275 2.30267.0969-.211206-.0808-1.003317-.57194-.660744-.94465-.50057.32546-.813735.418976-1.277266.401496.856894-1.16335 1.054928-2.230056 1.18781-3.616126-1.415114.0984-2.442058.2523275-3.649577 1.1174275-.026914-.48908.01597-.7896675.3690834-1.3035175-.3812935.33292-.8508735-.47257-.9260571-.68602-.056819.95779-.1823154 1.7782.056458 2.35929-.1394989.1118-.2791125.23171-.41916.36046-.4255523-.64742-.8613967-1.30134-.9860939-2.09159-.061405-.38143-.042642-.72125.093758-1.07089.1373693-.40531.265065-.81677.4642117-1.19721zm1.0845202.65196-.1535031.99913.6381995.5231c.2064987-.14253.4014042-.19429.6335847-.54376-.4783886-.0347-.8784843-.60413-1.1182811-.97847zm6.5186062.0176c.172998 1.41622-.108205 2.36598-.6065 3.09261l-.04848.0516c-.02612-.0373-.05479-.0749-.08621-.1129-.546703-.526-.385045-1.36097.622826-2.56508-1.679934.79762-1.768036 2.38087-1.485713 3.4801.01421.0562.03427.10376.05898.14374l-.0238.0253c-.302304.28566.335713 1.16716.97912 1.3975.404985.14505.768938-.11534 1.037752-.48198 1.011375-1.56376 1.196047-3.20819-.44796-5.03086zm-1.808781 4.58938c-.355164.22308-.412.41674-.559808.61959l.505678.65234 1.001931-.12726c-.367566-.24979-.925736-.66512-.947801-1.14467z" fill="#ac39ac"/></svg>