<svg height="16" width="13" xmlns="http://www.w3.org/2000/svg"><g stroke-width="1.017792"><path d="m13 1.24301s-1.011454 5.34442-4.9404715 3.33284c-.0006837.003.0940598-4.36172995 4.9404715-3.33284z" fill="#009100"/><path d="m6.3869625 7.04786c.6789607-.64838 1.6332846-1.43258 2.6626699-1.43258 2.0770436 0 3.7671476 1.62448 3.7671476 3.63305 0 .074 0 .13743-.0041.21496h-.0073c-.06568.78581-.324879 1.76191-.938143 2.9741 0 0-1.054941 1.94867-1.9018212 2.84372l-.076657.0705c-.4088234.3982-.9855821.64839-1.609785.64839-.7665669 0-1.4455276-.35943-1.8580131-.9162h-.0109805c-.4124855.55677-1.0914462.9162-1.8580234.9162-.631506 0-1.2009513-.24667-1.6134367-.64839l-.076657-.0705c-.8395769-.89505-1.90182099-2.84372-1.90182099-2.84372-.61325348-1.21219-.87242559-2.19534-.9308297-2.9741h-.01823186c-.01098055-.074-.01098055-.13743-.01098055-.21496 0-2.00857 1.6901038-3.63305 3.7744405-3.63305 1.0257389 0 1.8986411.75799 2.5848945 1.40638" fill="#f00"/><path d="m.58491232.04697604s.77487488 5.01014976 4.44036818 3.29890476c.0003794.0022.00434-3.80803669-4.44036818-3.29890476z" fill="#009100"/></g><path d="m5.9179686 6.09502s.2752493-3.9979-.5786648-5.11601995c-.853914-1.11812 2.6279569 0 2.6279569 0-.6075456 1.92607995-.4742562 6.04990995-2.0492921 5.11601995z" fill="#722a00"/></svg>