<svg height="16" viewBox="0 0 16 16" width="16" xmlns="http://www.w3.org/2000/svg"><path d="m8.0000169 1036.3624c-.5023539 0-.9097028.3582-.9097119.7999v1.2687l-.2665165-.2344c-.1654948-.1439-.3921168-.2343-.6431954-.2343-.2511861.0001-.4784412.09-.6431955.2343-.1660588.1456-.2665195.3447-.2665159.5656.0000018.221.1019059.421.2665159.5656l1.5529074 1.3655v1.4094c-.3144165.098-.6058827.2446-.8599616.4343l-1.3894425-.7031-.5685699-1.8655c-.060478-.199-.2052729-.3738-.4228742-.4843-.2176012-.1104-.4646753-.1344-.6893906-.082-.2250718.053-.4288143.1806-.5543564.3718-.1256494.1914-.1490981.4115-.088839.6094l.095946.3187-1.2473004-.6343c-.43503156-.2208-.99247154-.088-1.2437467.2937-.25118238.3827-.10109265.8727.33403475 1.0937l1.24730035.6344-.3624632.085c-.2250755.053-.42881568.1806-.55435592.3718-.12564941.1912-.14909814.4084-.0888388.6062.0604777.199.20527085.3769.42287392.4875.2176031.1104.4644192.1312.689391.078l2.1214775-.5 1.3858873.703c-.030803.1456-.046261.2928-.046195.4406.0001583.1472.015629.2931.046195.4374l-1.3858873.7032-2.1214774-.5c-.2261689-.053-.4717915-.029-.6893909.082-.21759945.1104-.36267102.2867-.42287394.4843-.0590221.1981-.0331481.4182.0923922.6094.12554025.1912.32578474.3185.55080224.3718l.3624656.085-1.2473004.6344c-.43504279.2208-.58529754.711-.33403511 1.0937.25117145.3825.80870422.5146 1.24374671.2937l1.2473004-.6344-.095946.3187c-.059022.1983-.033148.4151.092392.6062.1255402.1912.325875.3221.5508012.3751.226169.053.471793.029.6893925-.082.2175994-.1104.3626057-.2866.4228741-.4843l.5685699-1.8655 1.3894425-.7032c.2540789.1898.5455451.337.8599616.4344v1.4094l-1.5529074 1.3655c-.1660588.1456-.2665177.3446-.2665159.5655.0000037.221.101815.421.2665159.5656.1654948.144.392115.2344.6431955.2344.2511823 0 .4783392-.09.6431954-.2344l.2665165-.2344v1.2687c-.0000091.4418.4072653.8.9097119.8s.9096136-.3584.9097119-.8v-1.2687l.2665165.2344c.1654948.144.3921149.2344.6431954.2344.2511848 0 .4784418-.09.6431958-.2344.166059-.1456.266518-.3446.266516-.5656-.000001-.2209-.101906-.4207-.266516-.5655l-1.5529077-1.3655v-1.4094c.3156718-.098.6083716-.2443.8635149-.4344l1.3858898.7032.56857 1.8655c.06048.1992.205273.3739.422874.4843.217602.1104.464588.1344.689391.082.224166-.054.428816-.1839.554356-.3751.12565-.1911.149011-.4083.08884-.6062l-.09594-.3187 1.247298.6344c.435023.2208.992554.088 1.243737-.2937.251182-.3827.100996-.8729-.334036-1.0937l-1.247298-.6344.362462-.085c.224164-.054.428816-.1806.554356-.3718.12565-.1914.149102-.4085.08884-.6062-.06048-.1992-.205273-.3769-.422874-.4875-.217602-.1104-.46451-.1344-.689391-.082l-2.121477.5-1.38589-.7032c.03057-.144.04603-.2907.04619-.4374-.000158-.1472-.01565-.2931-.04619-.4374l1.38589-.7032 2.121477.5c.226169.053.471791.029.689391-.082.217599-.1104.362762-.2865.422874-.4843.05902-.1981.0367-.4182-.08884-.6094-.125631-.1913-.329339-.3187-.554356-.3718l-.362459-.088 1.247299-.6344c.435042-.2208.585207-.7079.334035-1.0905-.251262-.3827-.808704-.5145-1.243747-.2937l-1.247299.6344.09594-.3187c.05902-.1981.0367-.4151-.08884-.6062-.125631-.1914-.32943-.3219-.554356-.3751-.226171-.053-.471792-.029-.689391.082-.217599.1104-.362515.2867-.422874.4843l-.56857 1.8655-1.3894434.7032c-.2540771-.1898-.5455379-.337-.8599507-.4344v-1.4094l1.5529081-1.3655c.166058-.1456.26652-.3446.266516-.5655-.000002-.221-.101924-.421-.266516-.5656-.165495-.144-.392114-.2344-.6431962-.2344-.2511805.0002-.4783374.09-.6431954.2344l-.2665165.2344v-1.2687c.0000091-.4418-.4072707-.7998-.9097119-.8zm0 6.7996c.7536308 0 1.3645678.5372 1.3645678 1.1999s-.610937 1.1999-1.3645678 1.1999c-.7536309 0-1.3645679-.5372-1.3645679-1.1999s.610937-1.1999 1.3645679-1.1999z" fill="#ac39ac" transform="translate(0 -1036.3622)"/></svg>