<svg height="16" viewBox="0 0 14 16" width="14" xmlns="http://www.w3.org/2000/svg"><g stroke-width=".031589" transform="matrix(.95018435 0 0 .95018435 -11.349043 -49.261965)"><path d="m19.735999 68.66742c-.670614-.454539-.379723-1.423167-.576939-2.115412-.182846-1.026391-.04192-2.105488-.381183-3.100548-.620966-.713942-1.110364.865046-1.572698.731693-.141752.04781-.982032.741366-.905822.134824.119276-.458801-.925628.949252-.910062.168097-.148244.250103-.487874.344359-.448393-.02913-.589593.473822-.953237-.578418-.343239-.82221.151096-.146337-.310649-.505839.214148-.649913.416924-.189832.706592-.504394.157725-.395499-.405808-.13927-1.625283.785585-1.489135-.09596.35744-.460186-.916548.217964-.608114-.441402-.569222-.228936.064-.761818.1089-.957275.376142.0091.752738-.102316.128542-.114119-.433432.02699-1.036096-.02056-.926484-.481621-.556688-.202916.03347-.8258.254472-.806804-.758108-.176177-.276879-.75923-.281014-1.250493.339577-.163967.602845-.624573.966276-.298044.0052-.765801.7118-.117849.913526-.04702.01617-.871404.713507.01746 1.026383-.196641.14877.330735.400617 1.322092.569241.47443.161888-.61047.82356.02161.92044.07987.572611-.313901.251645 1.592225.749805.596797.414366-.03427.504023.644855.716387.892251-.01363.571997.129422 1.453896.594567 1.670684.01475-.847215-.201827-1.708516-.826897-2.314464-.443786-.605666-.944123-1.344445-1.805902-1.244575-.49847-.08377-.318033-.523534-.886226-.493584-.557207-.404062-.413965-1.174103-.697502-1.745686.657672-.264114-.645157-.914121.287889-1.001938-.352006-.641803.324868-1.021638.827866-.715466.181214-.810982.849258.599792.934915-.205358-.307832-.323235-.06456-.624058.179845-.640248-.51239-.426933.224851-1.122028.652222-.606892.303773-.28769.606828.49811.32137-.178911-.21773-.767991.679655-.05744.811934-.541952.364236-.02774.729061-.143504.966655.191089.654116-.554193.12843.881866.637522.262533.596524-.400384.466055.491322.397501.606584.304543-.509739.51755.22761.835976-.242515.533586-.03591.851887.750045.228885 1.002836.530638-.125912.643238.394046.167358.588555.08713.322253.10959.695011.308195.153719.377015-.660609.39689.457682.898545.05949.509124.192109.155091.759082.65462.89605-.08203.274376-.984456.458779-.226177.476438.606817.09916.129553 1.016956-.392007.772881-.468249-.02796-.502258.190375-.0091.127914.895548.114242.300005 1.094634-.300232.941765.474914.671896-1.019247.178907-1.331405.548078-.698385.431876-1.18534 1.147028-1.619825 1.828787-.243484.595024-.276149 1.399432-.0517 1.962082.568476-.524377.600847-.951723.715853-1.692607.06113-.461098.232541-1.227505.766943-.91008-.12706-.455246.20453-.762885.513895-.652413.125335-.376098.964606-.639871 1.126445-.104198.452529.01867-.302892 1.230664.171141.477382.08155-.527783.386266-.937629.803054-.853709.595134-.513552.784639.915711 1.126926.2256.274779-.07726.914974.114205.737457.543397.486986-.313106 1.221726.540265.793573.900155.402197.09157.413124.48535.000307.536574.420507.173754.364771.652657-.05455.701548.22301.346091-.798557.210936-.188938.568495.375894.423312-.418674.93455-.80664.590615.348381.827487-.894808-.0917-1.271657-.09793-.30424-.160824-1.190897-.05417-.376866.07745.616321-.03692.66503.349867.717964.711253.71271.394397.130285.874186-.311618.82643-.165583.331914-.717687-.49038-.5957.178292-.539934.06981-1.227669-1.087867-1.152502-.153853-.730185-.145964-1.271928-.454173-1.991761-.723185-.929132-.0037-.878807 1.189128-.779894 1.855109.01955 1.127464.32085 2.229059.371483 3.354991.03565.05941-.08114.270886-.156615.20693zm.561231-12.619777c.266355-.328699.596539-1.39454.02144-.627056-.190097.08623-.403806 1.120374-.02144.627056zm-2.476504-.183664c.05455-.30069-.502883-1.464549-.415694-.577784-.04133.107832.360509 1.124669.415694.577784zm2.424522-2.516c.378882-.815769-.456608.679521-.0484.09221z" fill="#8eb941"/><path d="m19.571333 68.473456c-.332965-.7944-.255064-1.770851-.422687-2.635352-.155845-.839301.05977-1.763795-.360407-2.536947-.796356-.512619-1.142435 1.012364-1.73848.866017-.320231.43879-.913567.440241-.662238-.183297-.261603.255941-1.059046 1.15942-.875057.314141-.154683.147595-.559739.630913-.530401.100203-.776848.463649-.73926-.655704-.250128-.907399-.681927-.383015 1.561864-.997156.279476-.996688-.454008-.09969-1.533286.776991-1.491859.03019.559239-.667917-.91876.227362-.539315-.480703-.711587-.212694.06567-.602073-.01497-.886431.437879.05322 1.011061-.170562.224106-.216967-.365649-.03127-1.123199.09015-.884967-.448024-.719739-.208451.03476-.769604.303295-.791147-.433353-.07333-.78488-.431897-.407285-.770256-.234235-.638144.759741-1.067404 1.03458-.588361-.254077-.780334.505363-.490394.736484-.137296.179328-.217884.211963-.693021.658647-.350361.115968.467148.536318-.232325.557548.467986-.008.355625.529125 1.495895.275013.527373.290029-.128645.178415-1.000923.702746-.547128.256397-.114285.23478.535901.531566.153268.302199.327079.196219 1.545888.647392.617524.514326.393078.669488 1.002161.687622 1.696375.10353.482597.532852 1.112357.865446 1.292816.109116-.635071-.4455-.961603-.175814-1.590015.275606-.334799.204084-.636123-.182061-.7898-.148257-.553204.729501.470894.200849-.255606-.04876-.454889-.257791-.807079-.670722-.459917-.10357.615396-.435313-.252718-.596412-.201473-.306162-.809884-1.364995-.583437-1.836176-.963669.346302-.294154-.613448-.108102-.663921-.491054-.469484-.296396.04045-.721914-.357395-1.051236-.571662-.481354.586463-.630203-.135289-.967303-.455463-.476064.684311-.273834.183886-.812695-.02369-.859761.959279.08207 1.097878-.610731.357297.183837.527335.674951.785039.09122-.2307-.31739-.316461-.704335.208994-.595033-.524833-.314507-.02856-1.313355.468363-.642583.420945-.499331.902165 1.25879.660543.230417-.298875-.332195-.408394-1.174257.267818-.737276.2213-.2163.502756-.275101.89354-.35621.06741.293799.403133.318345.659105.226282.02213.327106-.174182.859423.295328.36487 1.070951-.38561-.2272 1.139215.07849 1.312536.263857-.342947.45611-1.215837.912746-.778128.393303-.46201.607087-.03168.722633.225511.283457.162006-.796856.757433.04024.602688.509307.191279-.520236.492169-.08546.897881.08242.743544.578164-1.045658.715091-.05914.470881-.1392.84196.136243.709115.604244.859025.269985-.486991.442273-.34643.932388-1.006746.15635.433925.180197.627131-.131369.323911.378088-.67151.609267-.998405.695355-.110995.290189.686818-.0046.345044.39704.31754-.125797.895606.07726.319462.252374.0789.438825-1.018829.05182-.356642.597719-.779902.116828-1.7224.108963-2.196284.893934-.550616.64622-1.209634 1.355886-1.092621 2.277367-.08681.441571.0685 1.588486.466591.632692.428618-.315346.624068-.571103.420851-.993102.101918-.542977.176934-1.648972.806186-1.231969-.05975-.467431.149772-.837664.516517-.629953.02517-.470046.491465-.305418.809691-.464854.310174.326498.478262.538893.208609 1.023904.440932.154622.409327-1.541461 1.016955-.949474.304179-.593214 1.225101.271888.591895.693237.369668-.136689.539135-.914747 1.047548-.522018.450609.01674-.08231.81822.534854.384727.422593.10344.57318.580195.408502.937368.872419.437527-.489047.36226-.447652.448501.664458.05008.970227.551469.41295.786591-.08081.659997-1.139485-.342314-1.230038.04908.451341-.04109.489588.281525.166395.504172.703301.234127-.270338.401233.118709.82767-.654683-.09977-1.540485-.712417-2.088236-.356048.37281.220616 1.385971.146273.978814.763353.383152.419883-.232206 1.03885-.640884.659572-.276375-.08221.06951.60186-.390334.203475-.339205-.114981-1.159213-.934444-.797656-.07887-.434937.132838-.817058-.366591-1.231292-.314427-.592604-.615313-1.619684-.349003-1.666866.547323.03782 1.35444.156317 2.708397.388824 4.044078.01376.175256.08785.620943-.224721.33685zm.05829-.657359c-.112252-.471937-.06061-1.162072-.27017-1.503997-.000888.56329.119577 1.373676.307665 1.771559l-.0061-.103179-.03136-.164383zm-.225689-1.673006c.0204-.479977-.174028-.633448-.105525-.08197-.05234.06832.06798.163442.105525.08197zm-.350825-2.451862c-.04064-.204274-.0818.134578 0 0zm-.109593-.614151c-.06071-.111875-.08503.05621 0 0zm4.324397-.117996c.11349-.277255-.269854.252392 0 0zm-4.421895-.127816c.216451-.473885-.994788-.949482-.997431-.347719-.113026.166685.793577.08574.936726.416596l.0607-.069zm-1.042318-.576091c-.376658-.577706-.141315.600684 0 0zm2.84031-.476495c-.139947-.01606-.08828.423907 0 0zm1.240713-.282411c.379583-.224716.535716-.222899.355091-.544366.04397-.727916-.318948.57416-.498569.582183.04321.02859.11767.0073.143478-.03782zm.609093-.356959c-.07307-.109267-.115455.121282 0 0zm-1.282774-.159385c.06336-.361426-.258292.379653 0 0zm1.572478.001c.240257-.241301-.394556.18071 0 0zm-.392066-.213733c-.01852-.13772-.139672.17914 0 0zm.902764-.0216c-.138592-.136431-.193148.178193 0 0zm.676853-.369538c.88798-.49939-1.039255.303421-.12448.05914l.12448-.05913zm-5.027551-.151715c-.101397-.175438-.03204.19482 0 0zm7.362113-.019c-.226053-.03587.02226.05601 0 0zm-1.656276-.136536c-.08102-.113042-.08102.113042 0 0zm-5.753386-1.096275c.03565-.258783-.320512-.613442.01156-.454306-.04234-.328364-.08676-.622408-.01636-.906719.188688-.713615.04275-1.355877-.308579-1.913381-.159052-.31462-.717228-.08767-.304788-.406552.02334-.408113-.423313-.445493-.296077.112816-.09081.720597-.608625-1.337097-.634201-.211879-.02767.629534.469934 1.207484.864368.678228.398108.15398.513742.613654.331726.941364-.10039.42869.283962 1.193219.07123 1.719024-.09939.177838.268524 1.168978.281122.441405zm-.198779-2.592587c.165447-.19165.06322.165446 0 0zm-.07859-.280921c-.188785-.225402.225339-.002 0 0zm-.39309 2.50504c-.145529-.161409-.01276.218789 0 0zm-.137869-.219343c-.0058-.192473-.218263.159724 0 0zm-.729079-.0768c-.06254-.168664-.08419.111378 0 0zm-.01642-.158325c-.04436-.570075-.642265.21441 0 0zm.126018-.156145c-.0182-.165443-.08964.104596 0 0zm.180995-.149046c-.01189-.795585-.391703-.06269 0 0zm.818879-.244032c-.05166-.28557-.18811.06254 0 0zm-1.202187-.467665c-.06947-.08795-.0766.126467 0 0zm1.07539-.0682c-.06072-.111875-.08503.05621 0 0zm-1.157016-.0491c.0013-.105975-.09728.104962 0 0zm3.844392-.363748c-.274013.0075-.365865.567985-.03601.06218l.03601-.06215zm.1154-.0331c.199352-.25383-.237764.07841 0 0zm-2.929571-.169746c-.115443-.121278-.07306.109278 0 0zm4.841372-.0505c-.117481-.03496-.05721.05567 0 0zm-1.425133-.344949c-.330564.114096-.371295.530245-.03486.06111l.03486-.06104zm-1.33934.115576c.421301-.160151.37622-.838909.411077-1.168133-.407347.204216-.899512.966478-.529215 1.276622l.118134-.108489zm.760268-.261782c-.290208-.577984-.032.567817 0 0zm.36367.0861c.488081-.185393-.433761-.07311.000014-.000025zm.393148-.111097c.277206-.403826-.465659.395165 0 0zm-2.864147-.452535c-.222742.07508.06015.608947.01984.0708l-.01977-.07082zm2.566864.29329c-.08422-.111323-.06255.168759 0 0zm.383425-.332299c.07279-.172935-.233211.174996 0 0zm.186673-.177365c-.119163-.08647-.03628.235788 0 0zm-1.013885-.0551c-.02886-.108649-.08696.117668 0 0zm1.597956-.0913c.08343-.261654-.280386.21014 0 0zm-4.22355 4.274854c-.07715-.299346.211604.247942 0 0z" fill="#5b9e0b"/><path d="m19.562755 68.456257c-.243664-.337242.388646.290238 0 0zm-4.042733-3.836028c.02663-.362789.523596.01147.110878-.01799-.01498-.206286-.08212.255513-.110878.01799zm-.475485-.186164c.116434-.557488-.559771.01925-.09211-.457788.620545-.554274.174586.334256.148688.582676.265017-.461056.501783-1.297163.963109-1.368342.399446.137366-.499779 1.39781-.269861.655778-.14301.0448-.809761 1.248905-.749823.587676zm-.380389-.0116c-.302701.03277-.233928-.158088-.221883-.343594-.219956-.304687.640346-.496055.131898-.767787.329329-.532111 1.140158-.523651 1.225866-1.091982.774272-.01564.561103.848791-.04029.903337-.372233.143317-.522943.633793-.859808.688381-.175315.283215-.789217.676821-.151295.499141.112478.09297-.04072.330456-.08448.112504zm1.236263-.0377c.06356-.385448.367156-.499.29581-.741233.125957-.387839.830132.321296.141775.294276-.141705.128813-.251051.411696-.437585.446957zm-.285291-.0486c.08145-.159416.0486.120695 0 0zm1.046069-.0176c.07307-.109267.115455.121282 0 0zm.459637-.535123c-.0018-.111933.145248.118049 0 0zm2.320178-.0846c.01661-.469008.546734-1.547461 1.037987-1.065615.197035.319577.04366.367292.248025.658336-.446015-.169593-.949222-.167975-1.167521.320645l-.07628.07801-.04218.0087zm-2.916369-.445216c.07189-.668279.242293.202921 0 0zm2.757775-.167415c.0131-.272319.02528-.992481.176987-.404557.393867.005-.240211 1.024578-.176987.404557zm-5.672269-.240682c-.394165-.160792.450081-.872013-.290079-.55734-.599178.293838-.137376-.369961-.654904-.487277.0013-.267491.39166-.500951.385626-.654155.256844.03969 1.111688-.08141.389359-.201315-.388698-.107801-1.379014.195173-1.135654-.453989-.684877-.192737-.03827-.797551.349712-.761274-.411786-.117236-.862509-.424173-.453707-.800177-.23423-.638143.759747-1.067403 1.034582-.588357-.254078-.780349.505356-.490394.736484-.1373.199196-.199143.166445-.673349.633001-.380058.152907.392531.185429.209798.418916.129787.228471.2715.331364 1.490908.568137 1.303116-.25075-.365858-.114834-.501401.07567-.599893-.114639-.763956.785115-.419773.825593-.02124.492279-.668742.30288 1.30583.686246.927206.102374-1.022378.469628.01855.635889.192484.307281-.10626.0336.886538.05075.343343-.476261.100148-.475924-1.193774-.571407-.297911-.07415.57384.07309 1.057672.267159 1.393142.327044.113646.627983.650127.852647.946776-.730246.111373-.93666-.858044-1.277483-1.106465.158709.361588.583744.996987-.135447.576316-.401873-.07614-1.363542-.898355-.847229-.0097-.424698-.0816-.395571.173705-.126761.336762-.111522.03859-.441634.346294-.380653.0495-.09619.595253-.979846.452026-1.508766.708556-.166094.07567-.340532.164333-.527678.149511zm1.976788-1.100345c-.03257-.891304-.44632.368994 0 0zm.154987-.763346c-.08696-.117667-.02886.108651 0 0zm1.339841-.118046c-.227699-.440473-.452816-.461848-.110967 0-.01837.07904.165513.07507.110967 0zm-1.413284-.0453c-.05862-.06418.03172.184063 0 0zm-.05335-.245923c-.08696-.117667-.02886.108651 0 0zm1.521556-.249782c-.05491-.442374-.69209-.432495-.1912-.03704.01312.08947.210622.210572.1912.03704zm-.596299-.31809c-.04463-.242152-.637309-1.33197-.348984-.536258.102719.0143.497603 1.123.348984.536258zm.120812-1.004187c-.06695-.720742-.05684.665395 0 0zm2.899027 3.580625c-.634767-.793419.711435.233021 0 0zm.928521-.140565c.04727-.455215.730286.105227.05065.06035l-.05065-.06025zm-.625687-.120196c-.01409-.601568.655732-.07454.05164.109406zm1.034536-.157675c.372953-.413208.419962.176216 0 0zm-1.633498-.116667c-.231473-.820653-.21613-1.700356-.182056-2.547067.252138-.589134.531875-1.184635 1.044769-1.541031.153133-.564248.351402-.33355.170801.07274-.254798.4445.576726-.506616.409934-.02667-.439147.05873.208587.633735-.127004.736073-.39953.354569-.777821.449849-.868275 1.094132-.47835.514377-.305387 1.371356-.364159 2.046351-.03881-.03389.04262.412494-.08401.165475zm.725504-3.006174c-.125718-.170809-.09879.362164 0 0zm.0634-.285561c.241431-.467554-.307516.181148-.04193.131002l.04193-.130984zm.23107.0555c-.14089-.213778-.01178.273713 0 0zm-.326172-.346139c-.105206-.302491-.105603.29734 0 0zm.112471-.160315c.121447-.470446-.213798.38053 0 0zm-2.489901 2.225989c.126067-.20213.134678.07167 0 0zm2.857921-.33438c.02196-.185846.02196.18552 0 0zm-3.030039-.0528c.03481-.336205.189507.173507 0 0zm3.184535-.545272c.132554-.356123.449242.147599 0 0zm-.679366-.144806c-.0013-.273203.143113.112795 0 0zm1.2253-.260192c.313824-.931779.141393.541568-.000008 0zm1.386703.077c.167085-.544675.247749.07232-.000005.000012zm-3.486896-.0183c.08102-.113042.08102.113042 0 0zm.000412-.32265c.0087-.91759-.06812-1.858728.10657-2.760202.419347-.212399.474083-.93994.967748-1.287636.296062-.253862.191633-.459799.524576-.391171.170965-.05408 1.164986-.641602 1.147529-.384039-.56792.565132-1.455676.886112-1.742198 1.689999.166929.603694-.878036.592744-.719647.834796.716005-.128767-.02033.960688.04362 1.440305.08409.143161-.272453 1.340828-.328201.857948zm.53847-2.702634c-.0783-.187683-.112294.261048 0 0zm2.078329 2.713774c-.03102-.474925.244143-.19492 0 0zm.714125-.0293c-.09967-.562966.175054.08482.000022.000054zm-1.565684-.510283c.255545-.208012-.226175-.287551.205639-.333446.492945.197348.351258.136138-.205639.333446zm.24537-.422777c-.124988-.175903.24882.119573 0 0zm-1.526466-.166264c-.06894-.302263.470234-1.375132.284972-.558406.07437.08914-.258542 1.061489-.284972.558406zm-1.619748-.226923c-.0513-.341719-.08745-.604499-.351752-.446882-.314141-.219246-.421407-.897106-.692303-.703423-.41068-.263187-.720709-1.171888-1.167774-1.095352-.382743.04483-.346183-.72119-.515534-.126352-.09073-.153507-.04818-.484752-.378637-.407385-.505484-.624759.359619-.94695.748562-.593457.09246-.758227.58657.05255.749871.113715.266714-.444892.172285-.730802.63475-.204305.275425.27825.909264.745765.416338.832876-.08138.457103.305809 1.413027.450754 1.415974.273768.318359-.381046.409422-.200963.454139.139123.171945.484925.437298.360898.818602l-.05429-.05831zm-.354666-1.058436c-.0855-.131778-.09964.164292 0 0zm-.19812-.280631c.138839-.536974-.483682.317144-.000006-.000003zm-.205315-.624961c-.295214-.277215.0096.616779 0 0zm-1.683947-.571221c-.09094-.160227-.08837.159482 0 0zm1.691145-.466925c-.06965-.191189-.09524.216512 0 0zm-2.193058 2.687924c-.589486-.242394.312185-.678817-.26362-.779859.388461-.203795.360901.374943.106442.522322-.04022.210386.608428.393942.157178.257537zm-.350251-1.064176c-.580337-.457153.664384-.819504.174596-.126914.04026.08316-.122059.277601-.174596.126914zm4.43596-.739737c-.02653-.34299-.0014-.77578.258694-.681882.03996-.698153.303865.138237.337855.260726-.02799-.693277.353698.0072-.04561.07281-.227458-.151495-.288036 1.278871-.548262.672515-.0035-.108016-.0028-.216192-.0027-.324172zm-3.917865.202404c-.50552.0088-1.110347-.97103-.318642-.673572-.520273.486866.634459.226568.447281.62116.04802.0794-.09297.103634-.128639.05241zm4.783875-.862723c-.0559-.30923.01697-.430935-.105881-.513953.0867-.472351.355977.06326.430377.145381-.150504.04676-.208913.415664-.324496.368572zm-.222736-.213203c.09727-.104964-.0013.105974 0 0zm-.618132-.372898c.29965-.518009.863483-1.205403 1.291987-1.376056-.311558.442151-.371093 1.141172-.791477 1.163418-.132728.137606-.299396.107-.50051.212638zm-.02416-.679188c.131314-.462134.03263.320755 0 0zm-2.680827.0553c-.09643-.272964.122437.05204 0 0zm1.690617-.388237c-.210066-.48346.272501.429848 0 0zm-1.347386.0313c-.191644-.38805.346284.281294 0 0zm.808502-.422907c.08145-.159416.0486.120695 0 0zm-.846696-.156055c.315905-.520592.03041.181951 0 0zm.719899.0388c.124388-.0963.124388.0963 0 0zm2.100104-.188304c.01805-.557454.394558.113265 0 0zm-1.133608-.31593c.04854-.495269.195542.04135 0 0zm.364865-.101767c.0814-.380828.197837.155761 0 0z" fill="#417819"/></g></svg>