<svg height="16" width="16" xmlns="http://www.w3.org/2000/svg"><g stroke="#0c0800" stroke-linecap="round" stroke-linejoin="round" transform="translate(-249.77932 -560.05786)"><path d="m264.54725 564.77062c.60865 0 .94075-.11108.93866.91051l-.0179 8.72654c-.002.87839-.44133 1.33204-1.11545 1.33204h-13.41784c-.67411 0-.77938.21184-.78589-.66652l-.0761-10.25207s10.86094-.0505 14.47453-.0505z" fill="#5a3216" stroke-width=".586826"/><path d="m262.19456 571.43578c.57153 0 1.03161.17862 1.03161.4005v2.25795c0 .22188-.4601.39953-1.03161.4005l-12.01574.0201s-.0476-2.25849-.0476-3.06633c0 0 8.99978-.0128 12.06335-.0128z" fill="#ffe680" stroke-width=".5737"/><path d="m262.20558 566.34711c.57483 0 1.03756.18557 1.03756.41609v2.34581c0 .23052-.46274.4151-1.03756.41611l-12.08515.0209s-.0478-2.34639-.0478-3.18566c0 0 9.05176-.0133 12.13302-.0133z" fill="#ffe680" stroke-width=".586445"/><path d="m250.12167 564.63757 10.24272-4.1736s.28532-.50151 2.69822 1.31047c1.77832 1.33544 2.163 2.94496 2.163 2.94496z" fill="#5a3216" stroke-width=".684685"/></g></svg>