<svg height="7" viewBox="0 0 16 7" width="16" xmlns="http://www.w3.org/2000/svg"><g fill="#ac39ac" stroke-width=".982609" transform="translate(0 -1046.3622)"><path d="m7.381163 1046.3648c-.005.0002-.008.001-.011799 0-.053598.02-.3386271.3245-.6333159.6767l-.5367296.6396-.3881852.028c-1.7754525.2077-3.2228674.9101-4.5553267 2.0397-.27623951.2818-1.31715011 1.2178-1.25296235 1.4448.02209916.023.26953975-.01.54218937.028.51096058.064 1.29396078.16 1.28941098.263-.002.053-.4417232.1047-1.24476268.2033-.688454.085-.68218424.2243.0200992.4637.84059808.2865 1.94549608.4652 3.73155808.3397 1.3270895.014 2.5097845-.4421 3.7607169-.7304.087797 0 .3460068-.075.5722582-.1593 1.3631877-.3762 2.4842447-.7454 3.5994227-.6344 1.030441.051 1.716645.727 2.529624 1.2143.0336.0008.240921.1302.459272.2878.594158.4286.745162.3677.512121-.2042-.191423-.4698-.506011-1.54-.499361-1.6999.179043-.5302.362536-1.1775.603237-1.6877.137545-.234.162844-.4708.0519-.4734-.0183-.0004-.0957.027-.174964.063-.0792.036-.285749.127-.454712.2007-.168964.073-.374666.189-.457443.2586-.493201.3123-1.027451.4637-1.627488.4392-.670644-.1298-1.539661-.2315-2.209776-.6732-1.0299902-.5347-1.1186568-.5765-1.5463806-.7223-.2325411-.079-.4321535-.1542-.4428731-.1654-.0107-.012.047398-.078.1284851-.1506.081097-.071.1408747-.168.132135-.212-.009-.044-.2543803-.1648-.5449293-.2719-.3384771-.1248-.6604549-.3119-.8966659-.5191-.1900827-.1668-.3867052-.2908-.4547127-.2886zm-4.940874 3.3321c.2515355 0 .4552937.1986.4552937.4437 0 .2452-.2037582.4438-.4552937.4438-.2515524 0-.4552936-.1986-.4552936-.4438 0-.2451.2037412-.4437.4552936-.4437z"/><path d="m3.7606908 1051.3601c-.9140652-1.2415-.7333521.02-.3314374-.8641l2.1513482-1.5983c4.8492954-1.2573-1.7668628 1.3765 1.4813436.7486-.026799.028.1177355.1967.3203578.3763.2026323.1797.3528666.4185.3310474.5285-2.2426547 1.1968.2733796 2.9335-1.7894919 2.8042-1.0098816-.063-2.6406695-1.8721-2.1631677-1.9952z"/></g></svg>