<svg height="15.98718" width="16" xmlns="http://www.w3.org/2000/svg"><g transform="translate(-370 -617.375)"><path d="m377 622.36218 2-2h5l2 2v11h-9z"/><path d="m378 632.36218v-9l2-2h3l2 2v9z" fill="#ccc"/><path d="m379.4917 621.85388 1 1h2l1-1" fill="none" stroke="#4f4f4f"/><path d="m381.5 621.86218v-3l-1-1h-6l-2 2v4" fill="none" stroke="#000" stroke-linecap="square"/><rect fill="#008000" height="5.000009" ry="1" width="5" x="370" y="624.36218"/><g fill="#75750b"><path d="m381 629.86218a.5.5 0 1 1 -1 0 .5.5 0 1 1 1 0z"/><path d="m381 629.86218a.5.5 0 1 1 -1 0 .5.5 0 1 1 1 0z" transform="translate(1 -1)"/><path d="m381 629.86218a.5.5 0 1 1 -1 0 .5.5 0 1 1 1 0z" transform="translate(1)"/><path d="m381 629.86218a.5.5 0 1 1 -1 0 .5.5 0 1 1 1 0z" transform="translate(-1)"/><path d="m381 629.86218a.5.5 0 1 1 -1 0 .5.5 0 1 1 1 0z" transform="translate(2 -1)"/><path d="m381 629.86218a.5.5 0 1 1 -1 0 .5.5 0 1 1 1 0z" transform="translate(3 -1)"/><path d="m381 629.86218a.5.5 0 1 1 -1 0 .5.5 0 1 1 1 0z" transform="translate(3)"/><path d="m381 629.86218a.5.5 0 1 1 -1 0 .5.5 0 1 1 1 0z" transform="translate(2)"/><path d="m381 629.86218a.5.5 0 1 1 -1 0 .5.5 0 1 1 1 0z" transform="translate(2 1)"/><path d="m381 629.86218a.5.5 0 1 1 -1 0 .5.5 0 1 1 1 0z" transform="translate(1 1)"/><path d="m381 629.86218a.5.5 0 1 1 -1 0 .5.5 0 1 1 1 0z" transform="translate(0 1)"/><path d="m381 629.86218a.5.5 0 1 1 -1 0 .5.5 0 1 1 1 0z" transform="translate(-1 1)"/><path d="m381 629.86218a.5.5 0 1 1 -1 0 .5.5 0 1 1 1 0z" transform="translate(-2 1)"/><path d="m381 629.86218a.5.5 0 1 1 -1 0 .5.5 0 1 1 1 0z" transform="translate(3 1)"/><path d="m381 629.86218a.5.5 0 1 1 -1 0 .5.5 0 1 1 1 0z" transform="translate(-2)"/><path d="m381 629.86218a.5.5 0 1 1 -1 0 .5.5 0 1 1 1 0z" transform="translate(4)"/><path d="m381 629.86218a.5.5 0 1 1 -1 0 .5.5 0 1 1 1 0z" transform="translate(4 1)"/><path d="m381 629.86218a.5.5 0 1 1 -1 0 .5.5 0 1 1 1 0z" transform="translate(-2 2)"/><path d="m381 629.86218a.5.5 0 1 1 -1 0 .5.5 0 1 1 1 0z" transform="translate(-1 2)"/><path d="m381 629.86218a.5.5 0 1 1 -1 0 .5.5 0 1 1 1 0z" transform="translate(0 2)"/><path d="m381 629.86218a.5.5 0 1 1 -1 0 .5.5 0 1 1 1 0z" transform="translate(1 2)"/><path d="m381 629.86218a.5.5 0 1 1 -1 0 .5.5 0 1 1 1 0z" transform="translate(2 2)"/><path d="m381 629.86218a.5.5 0 1 1 -1 0 .5.5 0 1 1 1 0z" transform="translate(3 2)"/><path d="m381 629.86218a.5.5 0 1 1 -1 0 .5.5 0 1 1 1 0z" transform="translate(4 2)"/><path d="m381 629.86218a.5.5 0 1 1 -1 0 .5.5 0 1 1 1 0z" transform="translate(0 -1)"/><path d="m381 629.86218a.5.5 0 1 1 -1 0 .5.5 0 1 1 1 0z" transform="translate(-1 -1)"/><path d="m381 629.86218a.5.5 0 1 1 -1 0 .5.5 0 1 1 1 0z" transform="translate(1 -2)"/><path d="m381 629.86218a.5.5 0 1 1 -1 0 .5.5 0 1 1 1 0z" transform="translate(3 -2)"/><path d="m381 629.86218a.5.5 0 1 1 -1 0 .5.5 0 1 1 1 0z" transform="translate(2 -2)"/><path d="m381 629.86218a.5.5 0 1 1 -1 0 .5.5 0 1 1 1 0z" transform="translate(4 -1)"/></g></g></svg>