<svg height="16" viewBox="0 0 16 16" width="16" xmlns="http://www.w3.org/2000/svg"><g transform="translate(0 -1036.3621)"><path d="m0 1036.3621h16v16h-16z" fill="#fc0"/><g transform="translate(-4.480469)"><path d="m7.5078125 1.9999999-3.0273437 14.0000001h1.0195312l2.5019531-11.5359219 2.5195309 11.5359219h1.017578l-3.0488276-14.0000001z" fill-rule="evenodd" transform="translate(0 1036.3621)"/><g fill="none" stroke="#000"><path d="m9.1385373 1043.8621h-2.1385365"/><path d="m10.031748 1048.8621h-4.0317473"/><path d="m8.000001 1038.5007v-2.1386"/></g></g><g transform="translate(4.46094)"><path d="m7.5078125 1.9999999-3.0273437 14.0000001h1.0195312l2.5019531-11.5359219 2.5195309 11.5359219h1.017578l-3.0488276-14.0000001z" fill-rule="evenodd" transform="translate(0 1036.3621)"/><g fill="none" stroke="#000"><path d="m9.1385373 1043.8621h-2.1385365"/><path d="m10.031748 1048.8621h-4.0317473"/><path d="m8.000001 1038.5007v-2.1386"/></g></g><g fill="none" stroke="#000"><path d="m4.0000005 1038.8621h7.9999995"/><path d="m6.5000008 1039.3621v2"/><path d="m9.5000011 1039.3621v2"/></g></g></svg>