<svg height="16" viewBox="0 0 16 16" width="16" xmlns="http://www.w3.org/2000/svg"><g transform="translate(0 -1036.3621)"><path d="m0 1036.3621h16v16h-16z" fill="#fc0"/><path d="m2.5 1039.8621h12v10.000039h-12z" fill="#fff" stroke="#000" stroke-dashoffset=".5"/><g fill="none"><path d="m10.5 1046.8621h2v-10.5" stroke="#808080"/><path d="m4.5 1045.8621h2.000001v2.00004h-2.000001z" stroke="#000"/><path d="m8.500001 1045.8621h2.000001v2.00004h-2.000001z" stroke="#000"/><path d="m8.5000014 1036.3621v9" stroke="#808080"/><path d="m4.5000004 1036.3621v9" stroke="#808080"/><path d="m6.5000006 1036.3621v9" stroke="#808080"/><path d="m10.5 1036.3621v9" stroke="#808080"/><path d="m8.5000014 1043.3621v1" stroke="#000"/><path d="m4.5000004 1043.3621v1" stroke="#000"/><path d="m6.5000006 1043.3621v1" stroke="#000"/><path d="m10.5 1043.3621v1" stroke="#000"/><path d="m8.500002 1041.3621v1" stroke="#000"/><path d="m4.500001 1041.3621v1" stroke="#000"/><path d="m6.5000012 1041.3621v1" stroke="#000"/><path d="m10.5 1041.3621v1" stroke="#000"/><path d="m12.500001 1043.3621v1" stroke="#000"/><path d="m12.500002 1041.3621v1" stroke="#000"/></g></g></svg>