<svg height="16" viewBox="0 0 12 16" width="12" xmlns="http://www.w3.org/2000/svg"><g fill-rule="evenodd" transform="translate(0 -1036.3621)"><path d="m4.4726562 1036.3621-.1894531 1h-3.2832031v4h-1v4h2.7597656l-1.3339844 7h3.0546876l.3808593-2h2.265625l.3808594 2h3.0527345l-1.328125-7h2.767578v-4h-1v-4h-3.2832031l-.1894531-1z" fill="#fc0"/><path d="m1 1042.3621v2h1v-1h8v1h1v-2z"/><path d="m2.0000005 1038.3621v2h1v-1h6.0000005v1h1v-2z"/><path d="m4.0000007 1048.3621v1h4.0000003v-1z"/><path d="m4.0000008 1046.3621v1h4.0000002v-1z"/><path d="m5.0000008 1040.3621v1h2.0000003v-1z"/><path d="m5.4921875 1036.3621-3.046875 16h1.0175781l2.5351563-13.3203 2.5273441 13.3203h1.017578l-3.0332034-16z"/><path d="m4.0000009 1044.3621v1h4.0000001v-1z"/></g></svg>