<svg height="15" viewBox="0 0 16 15" width="16" xmlns="http://www.w3.org/2000/svg"><g transform="translate(0 -1037.3622)"><path d="m0 1037.3623h16v15h-16z" fill="#fff" fill-rule="evenodd"/><path d="m230.667 88 5 42 20 6.333 18-11-6.333-43s36.667 11 39.667 37.333c0 0 3.999 23-10.334 34l-10.999 10s-14 10.667-10.667 34v204l-.333 7.667s1 9-9 9.333h-19s-10 1.667-11.667-12.333v-220.334s1.333-12.333-8.333-18.333l-12.333-10s-21.333-16.334-7.333-45.667c-.001 0 4.999-13.999 23.665-23.999z" transform="matrix(0 .05028433 .04204333 0 -2.568601 1028.5531)"/><path d="m14.744728 1049.6684.01563-1.3279-1.092296.017.329492-.9938-2.391848-.029.411169-.984h-3.2572074l.2658846-.9889-3.0423737-.022-.4691449 1.3093h-1.5408468l-.5702689.6974h-2.3403059c1.1993656 2.242 1.937388 2.999 2.960654 4.0986 4.2184181 0 5.976734 0 9.775956-.017.714666-.511.819894-1.2805.945506-1.7638z" fill-rule="evenodd"/></g></svg>