<svg height="14" width="16" xmlns="http://www.w3.org/2000/svg"><path d="m0 0h16v14h-16z" fill="#fff"/><g fill-rule="evenodd"><path d="m15.999588 11.18072-.2388.135912-.255856.145616c-.545829.310657-1.159883.310657-1.70571 0l-.511715-.291232c-.545827-.310656-1.159882-.310656-1.705709 0l-.511725.291232c-.545828.310657-1.159883.310657-1.705711 0l-.511713-.291232c-.270238-.153805-.560098-.232992-.852855-.232992s-.582617.07918-.852855.232992l-.511713.291232c-.545828.310657-1.159883.310657-1.70571 0l-.511726-.291232c-.545828-.310656-1.159882-.310656-1.705709 0l-.511715.291232c-.545827.310657-1.159882.310657-1.705709 0l-.255857-.145616-.2388-.135912v1.304759l.2388.135913.255857.145616c.545827.310656 1.159882.310656 1.705709 0l.511715-.291233c.545827-.310656 1.159881-.310656 1.705709 0l.511726.291233c.545827.310656 1.159882.310656 1.70571 0l.511713-.291233c.270238-.153805.560098-.232992.852855-.232992s.582617.07918.852855.232992l.511713.291233c.545828.310656 1.159883.310656 1.705711 0l.511725-.291233c.545827-.310656 1.159882-.310656 1.705709 0l.511715.291233c.545827.310656 1.159881.310656 1.70571 0l.255856-.145616.2388-.135913z" fill="#00f"/><path d="m15.999588 8.217062-.2388.135913-.255856.145616c-.545829.310656-1.159883.310656-1.70571 0l-.511715-.291233c-.545827-.310656-1.159882-.310656-1.705709 0l-.511725.291233c-.545828.310656-1.159883.310656-1.705711 0l-.511713-.291233c-.270238-.153805-.560098-.232992-.852855-.232992s-.582617.07918-.852855.232992l-.511713.291233c-.545828.310656-1.159883.310656-1.70571 0l-.511726-.291233c-.545828-.310656-1.159882-.310656-1.705709 0l-.511715.291233c-.545827.310656-1.159882.310656-1.705709 0l-.255857-.145616-.2388-.135913v1.304759l.2388.135913.255857.145616c.545827.310656 1.159882.310656 1.705709 0l.511715-.291233c.545827-.310656 1.159881-.310656 1.705709 0l.511726.291233c.545827.310656 1.159882.310656 1.70571 0l.511713-.291233c.270238-.153805.560098-.232992.852855-.232992s.582617.07918.852855.232992l.511713.291233c.545828.310656 1.159883.310656 1.705711 0l.511725-.291233c.545827-.310656 1.159882-.310656 1.705709 0l.511715.291233c.545827.310656 1.159881.310656 1.70571 0l.255856-.145616.2388-.135913z" fill="#00f"/><path d="m14.744728 5.3193174.01563-1.3278205-1.092296.016849.329492-.9938315-2.391848-.02903.411169-.9840292-3.2572074-.0014552.2658846-.9889509-3.0423737-.0220971-.4691449 1.3093042-1.5408468.00349-.5702689.6973755-2.3403059.0018173c1.1993656 2.2420238 1.937388 2.999061 2.960654 4.0986496.545827.227428 1.159882.227428 1.70571 0 .7530013-.1950567 1.1153851-.2986114 1.8880055-.321279.292757 0 .9654295.05797 1.2356675.170571l.511713.213208c.545828.227428 1.159883.227428 1.705711 0l.511725-.213208c.545827-.227428 1.159882-.227428 1.705709 0l.511715.213208c.714666-.5110313.819894-1.3594745.945506-1.8427712z"/></g></svg>