<svg height="16" viewBox="0 0 16 16" width="16" xmlns="http://www.w3.org/2000/svg"><g transform="translate(0 -1036.3621)"><path d="m0 1036.3621h16.000011v16.000046h-16.000011z" fill="#208ece"/><path d="m-.0000002 1036.362v16h7.249026c.499658-2.4463.786705-6.0014-.800782-9-1.46353-2.8145-1.838243-5.1361-1.896485-7z" fill="#ffbe34"/><path d="m250.2 553.70001h5.9v1h-5.9z" transform="matrix(.33898304 0 0 2.0000018 -79.813555 -61.038921)"/><path d="m7.000002 1046.3621h1.999999v2.00004h-1.999999z" fill="#fff"/><path d="m250.2 553.70001h5.9v1h-5.9z" transform="matrix(.33898304 0 0 2.0000018 -75.813555 -61.038895)"/><path d="m11.000005 1046.3622h2v2.00004h-2z" fill="#fff"/><path d="m250.2 553.70001h5.9v1h-5.9z" transform="matrix(.33898304 0 0 2.0000018 -71.813554 -61.038895)"/><path d="m250.2 553.70001h5.9v1h-5.9z" transform="matrix(.33898304 0 0 2.0000018 -81.813558 -68.038921)"/><path d="m5.000001 1039.3622h2v2.00004h-2z" fill="#fff"/><path d="m250.2 553.70001h5.9v1h-5.9z" transform="matrix(.33898304 0 0 2.0000018 -77.813558 -68.038921)"/><path d="m9.000005 1039.3623h2v2.000041h-2z" fill="#fff"/><path d="m250.2 553.70001h5.9v1h-5.9z" transform="matrix(.33898304 0 0 2.0000018 -73.813557 -68.038921)"/></g></svg>