<svg height="16" viewBox="0 0 14 16" width="14" xmlns="http://www.w3.org/2000/svg"><g transform="translate(-72.089995 -959.94004)"><rect fill="#fff" height="15.992505" ry=".015583" stroke="#ff0" stroke-dashoffset=".6" stroke-linecap="square" stroke-width=".007495" width="13.992505" x="72.093742" y="959.94379"/><g fill-rule="evenodd"><path d="m79.081953 960.99629c-.982567 0-1.779784.75097-1.779784 1.67654 0 .7634.543103 1.40654 1.284409 1.60897v.68624h-.219674c-.165058 0-.302351.10777-.336239.25339h-2.297605c-.114008-.39349-.396067-.67359-.726277-.67359-.430878 0-.782295.47514-.782295 1.06004 0 .58485.351427 1.06002.782295 1.06002.334902 0 .620017-.28811.730798-.69049h2.293158c.0346.14469.171882.25339.336229.25339h.08066c-.243331 2.63089.0021 6.33148-.851801 6.43392-.959472.0737-2.873099-1.83803-2.743702-1.9806.128272-.0604.521197-.0412.61419-.0359l.582818-.44343-2.898349-1.39788.163625 3.47985.0605-.0465c.288639-.37634.661282-.97767.71507-1.06213.252436.69422.83121 1.43626 1.315823 2.06507.815153 1.00679 3.049705 2.16534 5.216183 1.38308 2.059539-.5594 2.529728-2.3727 3.485687-3.43125.04808.0756.350769.56559.62092.93752l.217423.15838.08523-3.48404-2.867008 1.45694.52678.38431c.08438-.005.488455-.0254.61868.0359.209103.3334-1.44538 1.53268-1.76415 1.72303-1.268054.58017-1.377296.13835-1.504125-.39064-.111694-.46597-.31047-4.72845-.358644-5.78565h.114316c.164357 0 .301629-.1087.336239-.25339h2.293158c.110739.40235.395865.69049.730799.69049.430878 0 .782294-.47514.782294-1.06003 0-.58486-.351437-1.06003-.782294-1.06003-.330211 0-.612269.28009-.726277.67359h-2.297605c-.03386-.14562-.171182-.25339-.33624-.25339h-.219673v-.68624c.741337-.20249 1.284408-.84564 1.284408-1.60897 0-.92557-.797216-1.67654-1.779783-1.67654zm0 .74326c.546859 0 .990739.41818.990739.93328 0 .51515-.443911.93327-.990739.93327-.546871 0-.99075-.41816-.99075-.93327 0-.51514.443911-.93328.99075-.93328z" fill="#4261a0" stroke="#000" stroke-width=".113075"/><path d="m79.09091 961.1865c-.212892.005-.453112.0386-.717298.11402-.02558.0241.02537.19125.486406.0465.461158-.1448 1.331532.19335 1.15221.0486-.123305-.0996-.452911-.22071-.921318-.20905zm.302638 3.1251-.05381.006c-.0096.001-.01613.0407-.01571.0866l.01794.52786c.000425.046.0085.0815.01794.0803l.05158-.006c.0096-.001.01613-.0407.0156-.0866l-.0156-.52793c-.000435-.0459-.0085-.0814-.01794-.0802zm-4.095399.46244c-.144097 0-.311447.0853-.33175.076-.125311.21561.178038.26182.28018.26182.102524 0 .205293-.33785.05158-.33785zm7.914768 0c-.1535 0-.05307.33785.04946.33785.102524 0 .410298-.0468.282621-.26398 0 .0242-.1779-.0739-.332122-.0739zm-3.43382.3463-1.414453.0105c-.05179.0004-.09106.008-.08968.0169v.004l-.02017.004c-.0096.001-.01613.0399-.01571.0887l.0021.21109c.000425.0488.0085.0879.01794.0866l.06729-.0105c.0096-.001.01603-.0421.01571-.0908l-.0021-.20906c-.000075-.007-.0021-.0106-.0021-.0169.01305.001.02484.002.04033.002l1.414389-.0105c.01337-.00014.02218-.003.03364-.004-.001.0112-.0021.0208-.0021.0338l.0064.73909c-.01645-.002-.03587-.004-.05827-.004l-.224163.002c-.05179.00041-.09106.008-.08968.0169l.0085.0633c.0011.009.04457.0152.09637.0148l.22186-.002c.0225-.0002.04256-.004.05837-.006.0011.002.0032.004.0042.004l.06272-.008c.0096-.001.01613-.0386.01571-.0845l-.0064-.74752c-.000435-.0459-.0085-.0814-.01794-.0802l-.02462.004-.0021-.0127c-.0011-.009-.04458-.0151-.09637-.0147zm2.472628.21744-1.918796.0148c-.04882.00041-.0866.008-.08533.0169l.0064.0507c.0011.009.04065.0152.08936.0148l1.918796-.0169c.04882-.00041.08682-.008.08533-.0169l-.0064-.0486c-.0011-.009-.04086-.0152-.08968-.0148zm-4.510283.0232-1.916492.0169c-.04872.0004-.08873.008-.08745.0169l.0085.0486c.0011.009.04097.0152.08968.0148l1.918796-.0148c.04872-.00041.08639-.008.08523-.0169l-.0064-.0507c-.0011-.009-.0432-.0152-.09202-.0148zm1.672261.84253c-.0053-.00027-.0096.001-.01571.002l-.01114.002c-.04606.007-.08268.0491-.08066.095l.244318 5.69925c.0021.046.04139.077.08745.0696l.01114-.002c.04606-.007.08045-.0493.07843-.0953l-.244317-5.69897c-.0021-.0401-.0312-.0702-.06952-.0718zm-5.895401 3.08085c-.02324.005-.04405.0169-.05827.0358-.02855.0372-.01804.0858.02462.10744l1.622908.83651c.04277.0216.101463.009.129981-.0277.02855-.0372.01581-.0858-.02696-.10743l-1.622908-.83651c-.02133-.0108-.04617-.0128-.06952-.008zm11.030742 0c-.01221.001-.02293.003-.03375.008l-1.62327.83651c-.04235.0216-.05307.0703-.02441.10744.02866.0372.08533.0493.127688.0277l1.623259-.83651c.04235-.0216.05307-.0703.02441-.10744-.02155-.0277-.0588-.0399-.09393-.0358z" fill="#fff"/></g></g></svg>