<svg height="16" viewBox="0 0 16 16" width="16" xmlns="http://www.w3.org/2000/svg"><g transform="translate(0 -1036.3622)"><path d="m0 1036.3622h15.906998v16.0005h-15.906998z" fill="#fff"/><g fill-rule="evenodd"><g transform="translate(-.3125)"><path d="m6.9557006 1051.5768h6.4516284l.0041-1.0007h.604803v-12.8396c-.000003-.2738-.158698-.5106-.457189-.5106h-6.6229038c-.3418229 0-.682621.2463-.682621.6415l-.00739 12.7046h.7023445l.00722 1.0048z"/><path d="m6.2848779 1041.5921h-.6456358c-.00419 2.6271.01496 7.8119.025902 7.9006.023357.1894.00923.3856-.039389.5643-1.0121392 2.5498-4.2872074 1.3787-3.8221901-1.1024 1.0213402-2.461 2.4534663-4.1263 3.1662348-7.029l.063451 2.1578c-.6414682 1.2482-1.7731455 3.4405-2.6507881 5.2729-.073941 1.6919 1.9386827 2.2493 2.5690163.4333.2808972-3.1787-.010561-6.6437-.015842-9.9655.4096081-1.2177.8615678-1.3343 1.3202409-1.2763"/><path d="m7.5916069 1039.0369-.022334 3.2832c0 .2642.2121045.4466.4578517.4466l4.2546664.011c.258123 0 .379682-.1646.379682-.3908v-3.339c0-.3228-.184706-.4188-.418767-.4188h-4.2267482c-.2422488 0-.4243506.1447-.4243506.4076z" fill="#fff"/></g><path d="m15.999588 1048.543-.2388.1359-.255856.1456c-.545829.3106-1.159883.3106-1.70571 0l-.511715-.2912c-.545827-.3107-1.159882-.3107-1.705709 0l-.511725.2912c-.545828.3106-1.159883.3106-1.705711 0l-.511713-.2912c-.270238-.1539-.560098-.233-.852855-.233s-.582617.079-.852855.233l-.511713.2912c-.545828.3106-1.159883.3106-1.70571 0l-.511726-.2912c-.545828-.3107-1.159882-.3107-1.705709 0l-.511715.2912c-.545827.3106-1.159882.3106-1.705709 0l-.255857-.1456-.2388-.1359v1.3047l.2388.1359.255857.1456c.545827.3107 1.159882.3107 1.705709 0l.511715-.2912c.545827-.3106 1.159881-.3106 1.705709 0l.511726.2912c.545827.3107 1.159882.3107 1.70571 0l.511713-.2912c.270238-.1538.560098-.233.852855-.233s.582617.079.852855.233l.511713.2912c.545828.3107 1.159883.3107 1.705711 0l.511725-.2912c.545827-.3106 1.159882-.3106 1.705709 0l.511715.2912c.545827.3107 1.159881.3107 1.70571 0l.255856-.1456.2388-.1359z" fill="#1332ff"/><path d="m15.999588 1045.5793-.2388.1359-.255856.1456c-.545829.3107-1.159883.3107-1.70571 0l-.511715-.2912c-.545827-.3107-1.159882-.3107-1.705709 0l-.511725.2912c-.545828.3107-1.159883.3107-1.705711 0l-.511713-.2912c-.270238-.1538-.560098-.233-.852855-.233s-.582617.079-.852855.233l-.511713.2912c-.545828.3107-1.159883.3107-1.70571 0l-.511726-.2912c-.545828-.3107-1.159882-.3107-1.705709 0l-.511715.2912c-.545827.3107-1.159882.3107-1.705709 0l-.255857-.1456-.2388-.1359v1.3048l.2388.1359.255857.1456c.545827.3106 1.159882.3106 1.705709 0l.511715-.2912c.545827-.3107 1.159881-.3107 1.705709 0l.511726.2912c.545827.3106 1.159882.3106 1.70571 0l.511713-.2912c.270238-.1539.560098-.233.852855-.233s.582617.079.852855.233l.511713.2912c.545828.3106 1.159883.3106 1.705711 0l.511725-.2912c.545827-.3107 1.159882-.3107 1.705709 0l.511715.2912c.545827.3106 1.159881.3106 1.70571 0l.255856-.1456.2388-.1359z" fill="#1332ff"/></g></g></svg>