<svg height="16" viewBox="0 0 16 16" width="16" xmlns="http://www.w3.org/2000/svg"><g transform="translate(0 -1036.3621)"><path d="m0 1036.3622h16.000008v16.000044h-16.000008z" fill="#2090cf"/><g fill="#ffbe34" fill-rule="evenodd"><path d="m.99609325 1036.3721s.98077825.3395 1.02554325 1.6313c.044765 1.2919.9228601 3.1002 1.9199562 3.2805 1.3121978.2885 2.3430696-.6038 2.9414029-.4447 1.084137.2884 1.8723132 2.0093 2.8109623 2.023 1.5066211.022 1.5976531-1.3712 2.3489551-2.4316 1.020786-1.3419 2.671879-3.8495 3.972712-4.0637-5.006504-.01-10.0130247.001-15.01953175.01z"/><path d="m.99282615 1052.3621c-.66750384 0 15.01719585.01 15.01719585.01s-1.396317 0-1.464844-2.952c-.06853-2.9492.386364-5.2771-.511295-5.4574-1.749698-.6672-3.795847 2.7734-5.3164032 2.4461-1.3948011-.3001-1.6417488-2.0999-3.1013646-2.0809-.9133381.012-1.993181.041-2.611899 1.0568-1.020786 1.3419-.9545927 3.056-1.020428 4.9779-.085825.8225-.5216258 1.9245-.99096205 2.0034z"/></g></g></svg>