<svg height="16" viewBox="0 0 16 16" width="16" xmlns="http://www.w3.org/2000/svg"><g fill="#208ece" transform="translate(0 -1036.3621)"><path d="m15.999938 1048.734c-2.349253-.4988-4.691597-1.0417-7.0201254-1.6729-1.2920892-.3486-2.5841799-.7282-3.8555412-1.1828-.2418342-.088-2.9538393-.9225-2.9538393-1.3728 0-.8473 6.6539155-1.536 7.2895962-1.6331 1.2851817-.1942 2.6118197-.3133 3.8693587-.715.732418-.2338 1.924319-1.0063.791149-1.7567-.82915-.5472-2.556542-1.1924-3.513519-1.3249-1.2417612-.2852-2.3534165-.428-3.5556837-.6754-.6294583-.1633.3341731-1.0564.5483691-1.1447.9915272-.4104 2.0054261-.8428 3.0280426-1.0811-.8291485.1288-5.2063628.5871-4.8159707 2.2113.2452902 1.0152 2.4148957 1.333 3.0885794 1.5006 1.3542773.34 2.5599973.6687 3.9039093 1.0749-3.081671.3309-5.880047.2692-8.8926203.7547-1.3577306.2207-4.9265226 1.1255-3.63443503 3.8135.62186151 1.2976 2.11778353 1.9201 3.17149443 2.4364 1.4890133.7283 3.0194822 1.3109 4.5534056 1.8581 2.6429143.9446 5.3169183 1.7612 7.9943743 2.538.0035-1.2093.0035-2.4188.0035-3.6281z"/><path d="m9.9632641 1042.3617c.2136469.2945.5712899.5503.9357959.8252.387954.1368.683663.1759 1.161866.1594.522607-.046 1.630371-.1844 2.133481-.24.648309-.1085 2.128608.2547 2.128608.2547l-.01366.2994s-2.251812.5475-5.065953.6854c-1.3588467.067-1.8354988-.083-2.2581712-.1786-.5959822-.1356-1.0229671-.2954-1.4099005-.4603-.6686552-.2837-1.1898595-.5881-1.6660073-.8978 1.3510078-.1503 2.7024715-.3005 4.0534773-.4507z" stroke-width=".389071"/><path d="m3.7775657 1042.4565c-.2536906-.3962-.5685561-.6697-.9319851-1.0882-.2003284-.2321-.5297281-.4203-.7740692-.6256 0 0-.5589811-.2893-1.0162687-.48-.5833358-.2934-1.386699-.7276-1.386699-.7276l-.0277282-.3387s.43250562-.042 2.54852418.6343c1.0216972.3259 1.432901.6362 1.7862596.8693.4983786.3293.8745885.6363 1.221607.937.5993238.5184 1.0918821 1.0167 1.5515396 1.5077-.9902139-.2295-1.9808546-.4587-2.9710114-.6885z" stroke-width=".342983"/><path d="m7.3708268 1048.6896c-.2558917.4732-.9613099.8341-1.5707806 1.1906-.4703899.2552-1.8573009.5735-1.8573009.5735-.071854.044-1.056967.2513-1.5432124.2185-2.07197628-.016-2.8135734-.2614-2.8135734-.2614s.7890405 1.1544 4.5551151 1.0661c1.3263315-.04 1.9126691-.1428 2.6558004-.2556.9510125-.2231 2.9373723-.6914 3.34375-.9843.701384-.5045-.2500602-1.2566.265625-1.7812-1.3055277-.087-1.7298151.3218-3.0354232.2338z" stroke-width=".474807"/><path d="m10.820645 1043.7072c.178789.3942 1.047114 1.0021 1.520385 1.4002.638785.4153 1.109464.3313 1.65226.5313.719574.1123 1.477197.4221 1.968844.7652.767053.4585 1.037866.9582 1.037866.9582s-1.270796-.547-3.093478-.7957c-1.663229-.2768-2.199482-.5741-2.685407-.7937-.68477-.311-1.158335-.6061-1.5820773-.8964-.7326303-.5006-1.2810811-.9863-1.7735605-1.4666 2.0323548.4713 1.2403635.4348 2.9551678.2975z" stroke-width=".470562"/><path d="m11.953125 1037.8777c.610813-.6273 1.503737-1.929 1.503737-1.929s-.254295 2.1176-.995027 2.8629c-.505643.6102-.508945.6757-.990099 1.1457.20797-.9949-1.07401.1134-.864719-.8815z" stroke-width=".342983"/></g></svg>