<svg height="16" viewBox="0 0 16 16" width="16" xmlns="http://www.w3.org/2000/svg"><path d="m15.999998 1044.8546c-3.327311-.4178-5.847849-.6853-8.7379577-1.3254-1.0764995-.2384-1.7615565-.4248-1.7509906-.5811.00212-.1271 2.6473992.2017 4.0266021.1042 1.3868742-.098 4.6457662-.1576 5.2345402-2.0835.861618-2.8131-6.6416497-1.8373-7.7114935-3.0681-.014361-.5627 3.2813355-1.3715 3.6690635-1.5386-.8687994.097-4.7101856.2462-4.6814639 1.8023.028723 1.3802 3.8198443 2.0484 4.6886449 2.277-2.7069217.053-5.3133197-.5627-8.0130603.158-1.6729767.4395-3.41057577 2.0922-2.44843329 4.3252.58877241 1.3626 1.95300309 2.0922 3.04438719 2.6726 1.4001314.7473 2.8505233 1.3363 4.3009152 1.8988 2.7643622 1.0727 5.5646252 1.9782 8.3648852 2.8661.01436-2.5143.01436-5.0111.01436-7.5079z" fill="#208ece" transform="translate(0 -1036.3621)"/></svg>