<svg height="16" viewBox="0 0 16 16" width="16" xmlns="http://www.w3.org/2000/svg"><g transform="translate(0 -1036.3621)"><path d="m15.63024 1044.8222c-2.800615.1618-5.7012928-.3125-8.4745147-.8239-.1780338-.031-1.5925808-.3564-1.5378017-.7444.061628-.4682 2.3226138-.1753 2.582818-.2156 1.3078651-.21 5.6970884-.019 6.2585804-1.7841.821696-2.5834-6.3339034-1.6873-7.3541747-2.8174-.013725-.5167 3.1292897-1.2593 3.4990517-1.4127-.8285424.088-4.4919335.2259-4.4645439 1.6549.027383 1.2673 3.6428506 1.881 4.4713929 2.0907-2.5814945.049-5.0671243-.5166-7.6417684.1462-1.5954589.4036-3.25254595 1.9212-2.3349855 3.9718.5614928 1.2511 1.8625105 1.9211 2.903324 2.4539 1.3352546.6862 2.7184443 1.2272 4.1016307 1.7438 2.6362742.9848 5.3067832 1.8162 7.9772942 2.6317.01372-2.3089.01372-4.6014.01372-6.8941z" fill="#208ece"/><path d="m264.1 615.6c-60.05809-15.88652-120.60826-30.945-178.453082-53.89968-19.935374-8.64021-43.443397-17.47893-52.54223-39.02805-7.223309-15.43301.868163-33.71435 14.569091-42.44742 20.673947-14.17361 46.998496-14.45239 71.135591-14.81704 5.185-.4956 21.7258 2.18703 9.09341-2.33835-9.55373-3.54351-17.9853-15.55705-10.40283-24.89605 10.64848-11.34648 27.47346-12.43666 41.98859-14.72984 22.38835-2.15632 44.81234-3.97467 67.21146-6.04357-19.43803 6.6516-38.36778 14.97682-58.56455 19.15283-6.04804 2.02197-21.18476 4.60829-21.46262 7.13167 28.91215 5.85806 59.51926 3.02129 87.44959 13.57466 10.335 3.33074 17.46146 15.51718 11.55892 25.61873-8.26985 13.91095-25.85102 16.71869-40.48509 19.31149-26.84664 3.90288-54.33913 1.24654-81.09102 1.33702 46.10092 7.63224 91.64267 12.242 139.89477 14.1736.0665 32.59986-.13316 65.46686.1 97.9zm-148.5-139.4c-19.691615.46547-40.657922.86299-58.286304 10.7103-10.679379 5.63034-19.724252 18.30617-14.593261 30.58255 7.149494 18.08323 26.975857 25.40085 43.410839 32.69908 49.742706 20.38908 101.910086 34.01334 153.742166 47.92311 6.22404 1.248 15.98804 7.0567 13.32656-3.21057v-65.90447c-47.407-3.51207-91.36207-8.58015-135.95814-17.09016-12.66636-2.41705-13.11929-16.69483.2022-17.88736 29.97182-2.68307 69.42106 2.80072 102.99366-6.3293 10.6563-.31882 24.92869-15.80834 9.15042-20.9967-28.97052-10.15804-60.60221-6.34971-90.09939-14.07919-6.84559.4996-11.30278-9.22459-12.20127-9.09385-4.44794 10.91928 15.6755 12.8753 23.01059 16.09911 11.94323 3.33501 24.14851 5.5805 36.30191 7.97745-1.33697 3.37669 1.19413 10.99027-3.46577 10.7272-22.53187.0979-45.00224-2.14627-67.53421-2.1272z" fill="#000080" transform="matrix(.06847461 0 0 .08072631 -2.084144 1002.6669)"/></g></svg>