<svg height="16" viewBox="0 0 16 16" width="16" xmlns="http://www.w3.org/2000/svg"><path d="m15.999938 1048.734c-2.349253-.4988-4.691597-1.0417-7.0201254-1.6729-1.2920892-.3486-2.5841799-.7282-3.8555412-1.1828-.2418342-.088-2.9538393-.9225-2.9538393-1.3728 0-.8473 6.6539155-1.536 7.2895962-1.6331 1.2851817-.1942 2.6118197-.3133 3.8693587-.715.732418-.2338 1.924319-1.0063.791149-1.7567-.82915-.5472-2.556542-.9268-3.513519-1.0593-1.2886362-.1758-2.5565415-.428-3.7588087-.6754-1.3162729-.2735.5216731-1.3064.7358691-1.3947.9915272-.4104 2.0210511-.6709 3.0436676-.9092-.8291485.1288-5.2063628.5871-4.8159707 2.2113.2452902 1.0152 2.4148957 1.333 3.0885794 1.5006 1.3542773.34 2.5599973.4812 3.9039093.8874-3.081671.3309-5.880047.2692-8.8926203.7547-1.3577306.2207-4.9265226 1.1255-3.63443503 3.8135.62186151 1.2976 2.11778353 1.9201 3.17149443 2.4364 1.4890133.7283 3.0194822 1.3109 4.5534056 1.8581 2.6429143.9446 5.3169183 1.7612 7.9943743 2.538.0035-1.2093.0035-2.4188.0035-3.6281z" fill="#208ece" transform="translate(0 -1036.3621)"/></svg>