<svg viewBox="0 0 16 16" xmlns="http://www.w3.org/2000/svg"><path d="m5.8039383 9.6927765-1.8884929-3.3652691h-3.79805848l1.54389028.9140552-.95447188 1.6823168c-.08140288.1525598-.12210172.3118737-.12209829.4779464-.00000343.1660797.040695.3253953.12209829.4779444l1.50236478 2.6794118c.0677633-.193967.1355227-.360256.2032914-.498862l1.8686579-3.2815984zm-2.8225129 2.7003285c-.1086743.180023-.163009.373778-.1630043.581266-.0000047.31863.1117699.588665.3353051.8101.2235314.221436.4908661.332152.8020048.332152h3.7373194v-3.094599h-3.9399889c-.027282.05537-.1289213.235383-.3049365.540063zm5.0568471-7.6648751h3.7776055l1.908946-3.3646344-1.543271.9140538-.955092-1.68295137c-.176033-.3181934-.446676-.4772963-.811924-.477311h-3.0059698c.1218843.1382007.223528.2765969.3049363.4151914l1.8475868 3.28159627-.3043159.1869943zm-1.8482059-4.44476567c-.4334462.0000134-.758422.1937693-.974926.5812673l-1.8884932 3.32343167c.7172946.4293564 1.5905745.9417424 2.6198421 1.5371586.6090356-1.0661763 1.2655962-2.2293443 1.9696849-3.4895087l-.7511819-1.37108157c-.216522-.387498-.5414966-.5812539-.9749259-.5812673zm4.8541764 10.69672377v-.373991-1.4325691l-1.8891123 3.3646361 1.8891123 3.344349v-1.807191h1.888493c.365658 0 .643117-.159314.832373-.477947l1.502986-2.679408c-.202891.05537-.372095.08304-.507606.08304l-3.716246-.02093zm2.802679-5.6909754c-.06778.041425-.941266.5538077-2.620461 1.5371574.83959 1.4815957 1.503175 2.6517361 1.990757 3.51043h1.522819c.447057.000002.778848-.193963.995379-.5819044.202859-.3739848.196043-.7547351-.02046-1.1422517l-1.868029-3.3234313z" fill="#08f" stroke="#000" stroke-width=".3"/></svg>