<svg height="16" viewBox="0 0 15 16" width="15" xmlns="http://www.w3.org/2000/svg"><g transform="translate(0 -1036.3622)"><g fill-rule="evenodd"><path d="m0 1036.3622h15v16h-15z" fill="#fff"/><path d="m1 1049.3622v-8h11.957726s-.999999 9.9864-3.9154515 9.9921l-5.0422745.0079z"/><path d="m5.5341818 1049.3621a2.4841819 2.4289775 0 0 1 -2.4839326 2.4289 2.4841819 2.4289775 0 0 1 -2.48443108-2.4285 2.4841819 2.4289775 0 0 1 2.48343398-2.4294 2.4841819 2.4289775 0 0 1 2.4849295 2.428" fill="#808080"/><path d="m4.0212269 1049.3621a.97122699.94964403 0 0 1 -.9711295.9496.97122699.94964403 0 0 1 -.9713244-.9494.97122699.94964403 0 0 1 .9709346-.9499.97122699.94964403 0 0 1 .9715193.9493"/></g><path d="m1.7954951 1041.4341 10.8132299-3.4214" fill="none" stroke="#000" stroke-linecap="round" stroke-width="1.6"/></g></svg>