<svg height="1052.3622" width="744.09448" xmlns="http://www.w3.org/2000/svg"><rect fill="#fff" height="1052.3622" ry="65.41317" width="744.09399"/><path d="m372.74513 979.43631c-1.08984-13.51272-2.78734-30.87447-3.77226-38.58164l-1.79075-14.01302-17.98929-.87709-17.98927-.8771-3.32407-11.88843c-1.91618-6.85311-5.40547-12.28922-8.23827-12.83475-3.81186-.73412-70.79354 15.37954-104.35058 25.1034-4.62894 1.34134-5.20636-.92586-5.16504-20.28119l.0465-21.79134 52.06889-83.26457 52.06891-83.26461-.11813-25.4332-.11817-25.43324-82.52195 84.23983c-45.38707 46.33189-83.89528 84.18999-85.57378 84.12911-5.11321-.18544-20.2848-63.82228-18.05259-75.721 1.13136-6.03062 19.91048-37.88778 44.62596-75.70393 27.63068-42.27669 56.90695-92.46172 83.05432-142.37063l40.3817-77.07886 2.0994-33.50274 2.09941-33.50275h17.08022 17.08018l1.89382-13.81674c1.04158-7.59925 1.89379-26.39992 1.89379-41.77933 0-34.03753 7.94986-144.60423 12.16887-169.24459 3.60381-21.04732 24.37655-96.785716 26.54541-96.785716 2.17165 0 22.9461 75.759356 26.54024 96.785716 4.31633 25.25115 12.16118 131.56186 12.19633 165.28021.0162 15.56016.87454 35.32678 1.90742 43.92582l1.87793 15.63463h17.12787 17.12782l2.08364 33.50275 2.08363 33.50274 40.52289 77.42858c25.68126 49.07014 54.98685 99.48263 80.0147 137.64401 45.16747 68.86944 48.67138 75.04987 48.67138 85.8494 0 12.18812-15.91828 69.82903-19.31572 69.94323-1.6607.0558-40.15054-37.8023-85.53305-84.12912l-82.51361-84.23062-.08 25.31319-.08 25.31319 52.0689 83.26458 52.06889 83.26459v21.91137c0 19.45791-.58355 21.74228-5.21154 20.40123-23.54077-6.82145-99.06099-25.69342-102.81765-25.69342-4.6438 0-5.71213 2.11929-9.38263 18.61265-1.75439 7.88326-2.53002 8.18955-20.73927 8.18955h-18.91677l-1.80831 14.14561c-.9946 7.78008-2.70002 25.20152-3.78987 38.71424-1.08984 13.5128-2.93626 24.56869-4.1032 24.56869-1.16695 0-3.01337-11.05589-4.1032-24.56869z"/></svg>