<svg height="16" viewBox="0 0 16 16" width="16" xmlns="http://www.w3.org/2000/svg"><g transform="translate(0 -1037.3622)"><path d="m.000001 1037.3622h15.999998v15.999997h-15.999998z" fill="#fff"/><rect fill="#fff" height="16" ry="2.000017" width="16" y="1037.3622"/><g fill="none" stroke="#000" stroke-linecap="round"><path d="m6 1044.3622c1-1 3-1 4 0" stroke-width="1.053"/><path d="m4 1041.9178c3-1.3519 5-1.3519 8-.042" stroke-width="1.194615"/><path d="m2 1039.6532c3.9557886-1.3576 7.9540285-1.3094 12 0" stroke-width="1.168502"/></g><path d="m459.05707 51.95872c31.09866-31.096533-11.91467-71.751467-42.6176-41.044267l-113.38774 113.383147-259.750397-68.66208-43.301333 43.301333 214.08853 112.751677-86.58666 86.58454-67.314137-8.2656-34.2464 34.24533 76.367997 40.1536 40.15254 76.368 34.24533-34.24747-7.872-66.92053 86.58667-86.5856 110.33066 212.68267 43.30134-43.30134-65.73547-254.4896z" transform="matrix(.01362649 -.01015404 .0136759 .01011735 1.649089 1050.3959)"/></g></svg>