<svg height="64" width="64" xmlns="http://www.w3.org/2000/svg"><g transform="translate(0 -988.36218)"><path d="m0 988.36218h64v64h-64z" fill="#fff"/><g fill="#666"><g transform="matrix(.81915204 -.57357644 .57357644 .81915204 -573.35193 215.96837)"><path d="m37.969063 1016.9554h4.192903v22.828026h-4.192903z" opacity=".99"/><g transform="rotate(-90)"><path d="m-1025.8071 28.651501h4.192903v22.828026h-4.192903z" opacity=".99"/><path d="m-1040.0164 33.543221h4.192903v13.044586h-4.192903z" opacity=".99"/></g></g><g transform="matrix(.93969262 .34202014 -.34202014 .93969262 331.3511 52.747916)"><path d="m37.969063 1016.9554h4.192903v22.828026h-4.192903z" opacity=".99"/><g transform="rotate(-90)"><path d="m-1025.8071 28.651501h4.192903v22.828026h-4.192903z" opacity=".99"/><path d="m-1040.0164 33.543221h4.192903v13.044586h-4.192903z" opacity=".99"/></g></g><g transform="translate(7.919928 -24.458599)"><path d="m37.969063 1016.9554h4.192903v22.828026h-4.192903z" opacity=".99"/><g transform="rotate(-90)"><path d="m-1025.8071 28.651501h4.192903v22.828026h-4.192903z" opacity=".99"/><path d="m-1040.0164 33.543221h4.192903v13.044586h-4.192903z" opacity=".99"/></g></g><g transform="matrix(.76604444 .64278761 -.64278761 .76604444 646.24586 190.17483)"><path d="m37.969063 1016.9554h4.192903v22.828026h-4.192903z" opacity=".99"/><g transform="rotate(-90)"><path d="m-1025.8071 28.651501h4.192903v22.828026h-4.192903z" opacity=".99"/><path d="m-1040.0164 33.543221h4.192903v13.044586h-4.192903z" opacity=".99"/></g></g></g></g></svg>