<svg height="16" viewBox="0 0 16 16" width="16" xmlns="http://www.w3.org/2000/svg"><g transform="translate(-703.42859 -372.93363)"><path d="m704.14158 381.6392a7.3210855 7.3210855 0 0 1 6.5785-7.9923 7.3210855 7.3210855 0 0 1 7.99495 6.57529 7.3210855 7.3210855 0 0 1 -6.57208 7.99758 7.3210855 7.3210855 0 0 1 -8.00022-6.56886" fill="#fff" stroke="#0000c6" stroke-width="1.357089"/><path d="m709.88966 382.88859h-2.05452l-.28269.96355h-1.8435l2.19388-5.83707h1.96693l2.19388 5.83707h-1.8873zm-.37825-1.26218-.64502-2.09832-.64105 2.09832z"/><path d="m713.94695 379.70328-1.53293-.27473q.19112-.73262.73262-1.12282.54548-.3902 1.54089-.3902 1.14273 0 1.65238.42603.50965.42604.50965 1.07106 0 .37826-.20705.68484-.20704.30659-.62511.53752.33843.0836.51761.1951.29066.17918.44992.47382.16325.29066.16325.69678 0 .50965-.26677.97949-.26677.46585-.76846.72067-.50168.25084-1.31792.25084-.79632 0-1.25819-.18713-.45789-.18714-.75651-.54549-.29464-.36233-.45391-.90781l1.62053-.21501q.0956.48974.29464.68086.20306.18714.51363.18714.32649 0 .5415-.2389.21899-.2389.21899-.63706 0-.40613-.21103-.6291-.20704-.22297-.56539-.22297-.19112 0-.52557.0956l.0836-1.15865q.13538.0199.21103.0199.31853 0 .52955-.20306.21501-.20306.21501-.48178 0-.26677-.15926-.42603-.15927-.15927-.43798-.15927-.28668 0-.46585.17519-.17918.17121-.24288.60521z"/></g></svg>