<svg height="11" width="16.000122" xmlns="http://www.w3.org/2000/svg"><path d="m0 0h16.000122v11h-16.000122z" fill="#fff"/><path d="m52.188 134.743c28.821 0 52.187-23.366 52.187-52.187 0-28.823-23.366-52.189-52.187-52.189s-52.188 23.366-52.188 52.189c0 28.821 23.367 52.187 52.188 52.187z" transform="matrix(.03014857 0 0 .02989701 .736537 .993595)"/><path d="m52.188 115.765c18.341 0 33.211-14.869 33.211-33.209 0-18.343-14.87-33.211-33.211-33.211-18.342 0-33.211 14.868-33.211 33.211 0 18.34 14.869 33.209 33.211 33.209z" fill="#fff" transform="matrix(.03014857 0 0 .02989701 .736537 .993595)"/><path d="m6.8241434 8.9966685c-1.2882572 0-1.2882572 1.0703405 0 1.0703405h7.4465326c1.249325 0 1.249325-1.0703405 0-1.0703405z"/><path d="m9.4287614 2.9441057v-1.4614855h-.6213017v1.4614855z"/><path d="m10.382331 1.5237585v-.3152341h-2.5140294v.3152341z"/><path d="m10.599038.99359484h4.012986c.534595 0 .534595.75941396 0 .75941396h-4.012986c-.520153 0-.520153-.75941396 0-.75941396z"/><path d="m3.640447.99359484h3.967793c.5345945 0 .5345945.75941396 0 .75941396h-3.967793c-.5651048 0-.5731243-.75941396 0-.75941396z"/><path d="m7.9939006 7.9904905c-.51542 0-.77313-.4186133-.8590233-.7727934l-.4008855-1.1270072-4.5830047-2.0285324c-.5568742-.2411704-.4212057-1.1591901.2119143-1.1591901h9.9547866c1.109739 0 1.727784.7416519 2.014196 1.5311079l.798937 2.1668047c.286411.7390652-.198197 1.3857472-.911994 1.3896105z"/><g fill="#fff" transform="matrix(.03246113 0 0 .03167459 -.363565 1.250246)"><path d="m324.249 141.706v-57.029h-35.615v57.029z"/><path d="m380.536 84.677v57.029h-35.142v-57.029z"/><path d="m402.182 86.942c11.013 2.656 22.013 12.5 29.263 28.75l11.25 26.25h-40.513z"/></g><path d="m9 7.99997h1v1h-1z"/><path d="m12 7.99997h1v1h-1z"/></svg>