<svg height="436.59698" width="440.47501" xmlns="http://www.w3.org/2000/svg"><path d="m0-.000003h440.47501v436.59698h-440.47501z" fill="#fff"/><path d="m430.366 48.7113c29.155-29.153-11.17-67.267-39.954-38.479l-106.301 106.2967-243.516-64.3707-40.595 40.595 200.708 105.7047-81.175 81.173-63.107-7.749-32.106 32.105 71.595 37.644 37.643 71.595 32.105-32.107-7.38-62.738 81.175-81.174 103.435 199.39 40.595-40.595-61.627-238.584z" fill="#999" transform="matrix(.4814943 .07640888 -.07640888 .4814943 15.697612 -17.925842)"/><g transform="matrix(.676989 0 0 .7039546 189.65269 77.070257)"><path d="m170.455 84.5914c22.772 0 41.233-18.461 41.233-41.235 0-22.772-18.461-41.235-41.233-41.235-22.774 0-41.237 18.463-41.237 41.235 0 22.774 18.463 41.235 41.237 41.235z"/><path d="m322.785 426.065h17.897c12.781 0 19.306-10.035 19.306-19.224 0 0 0-101 0-101.5 0-9.189-7.191-19.342-19.306-19.342h-17.897z"/><path d="m121.249 95.2924-86.8599-88.85899c-19.17-19.17001-47.126 8.78399-27.95596 27.95399l111.02586 113.0276v326.671c0 32.261 47.073 31.313 47.073 0v-188.092l7.891.019v188.09c0 31.313 47.425 32.244 47.425-.017v-314.272h8.334v107.015.181 18.989h-26.141v140.066h111.159v-140.066h-26.296v-19.17c0-7.189-4.313-11.023-11.981-11.023 0 0-4.495 0-12.163 0h-.03v-108.802c0-25.163-21.548-51.7136-50.048-51.7136h-91.429l-.004.002z"/><path d="m275.161 285.999v-18.929h-35.9v18.929z" fill="#fff"/></g></svg>