<svg height="11" viewBox="0 0 16 11" width="16" xmlns="http://www.w3.org/2000/svg"><path d="m0 0h16v11h-16z" fill="#fff"/><path d="m8.831558 2.3194733s-.6587222 1.0489095-1.2947749 1.0489095h-2.3322554c-.6360526 0-1.2112801.3870886-1.6537556.8181343l-2.0778529 2.0239259c-.2509507.244417-.4597342.727662-.4664511.947353-.0145533.473677 0 .947353 0 .947353s.9329021 0 .9329021-.947353v-.473676l.9329022-.947354h.466451l.1473986.273975s-.8895222 1.728351-.8895222 3.343114c.0000933.646.636146.646.636146.646h.6360526s.3180264 0 0-.322953l-.3180263-.322952c0-.645906.7210401-1.564553 1.1873046-2.196154 0 0 .015673 1.09694 0 1.894706-.00746.388036.2538426.947353.6360526.947353h.6360527s.3180264 0 0-.322953l-.3180263-.322952c-.2912521-.53876.4452742-2.66983.4452742-2.66983 1.1862783 0 1.3993532.473676 2.7987064.473676l.3392032 2.196154c.1039253.67262.5936987.645905.5936987.645905h1.3993528c.318027 0 .896613-.2951.318027-.732872l-.318027-.214481v-1.894706c1.13273-.163134 1.865805-.947353 1.865805-1.8947066h.932902c.299835 0 .932902 0 .932902-.4736767v-.9473532l-1.590132-1.5932587c-.700703-.7019888-1.208574-1.2488011-2.141477-1.2488011-1.3555997 0-1.9930515.5388545-2.436833 1.3194736z" stroke-width=".9401"/></svg>