<svg height="16" viewBox="0 0 16 16" width="16" xmlns="http://www.w3.org/2000/svg"><g transform="translate(0 -1036.3621)"><path d="m0 1036.3621h16v16h-16z" fill="#fff"/><g fill="#808080"><path d="m2.9999998 1036.3621h-3.00000102v16h3.00000102v-1h-2.00000092v-2h2.00000092v-2h-2.00000092v-2h2.00000092v-2h-2.00000092v-2h2.00000092v-2h-2.00000092v-2h2.00000092z" fill-rule="evenodd"/><path d="m13.000016 1036.3621h3v16h-3v-1h2v-2h-2v-2h2v-2h-2v-2h2v-2h-2v-2h2v-2h-2z" fill-rule="evenodd"/><path d="m4 1036.3621h8.000002v1h-8.000002z"/><path d="m4 1039.3621h8.000002v2.000001h-8.000002z"/><path d="m4 1043.3621h8.000002v2.000001h-8.000002z"/><path d="m4 1047.3621h8.000002v2.000001h-8.000002z"/><path d="m4 1051.3621h8.000002v1h-8.000002z"/></g></g></svg>