<svg height="16" viewBox="0 0 15 16" width="15" xmlns="http://www.w3.org/2000/svg"><g transform="translate(0 -1036.3621)"><path d="m4.3769482 1036.3625c-.78527 0-1.544061.1469-2.154297.6055-.610236.4585-.972656 1.2418-.972656 2.1406v8.4414h-1.24999997v3.8125h14.99999977v-3.8125h-1.25v-8.4414c0-.864-.37599-1.6288-.974609-2.0937-.59862-.4649-1.359988-.6524-2.152344-.6524z" fill="#fff"/><path d="m3.9999977 1037.3625c-1.137708 0-2 .8609-2 2v7c0 .606.511719 1 1 1v2h2.000001l.000001-2h5.0000013v2h2.000001v-2c.475194 0 1-.4419 1-1v-7c0-1.1391-.862292-2-2.000001-2z"/><g transform="scale(1 -1)"><rect fill="#fff" height="4.000022" rx="1" width="9.000002" x="2.999998" y="-1042.3621"/><ellipse cx="4" cy="-1045.3621" fill="#fff" rx="1" ry="1.000004"/><ellipse cx="11.000001" cy="-1045.3621" fill="#fff" rx="1" ry="1.000004"/><rect height="2" rx=".000079" width="15.000003" y="-1052.3621"/></g><rect height="2" rx=".000079" width="2" x="-.000004" y="1048.3624"/><rect height="2" rx=".000079" width="2" x="12.999999" y="1048.3624"/></g></svg>