<svg height="489.5358" width="739.41339" xmlns="http://www.w3.org/2000/svg"><g fill-rule="evenodd" transform="matrix(0 1 -1 0 744.36271 -5.23212)"><path d="m94.296621 210.11445 94.615669 164.77919-94.15567 163.986 89.626 53.63626 64.82856-111.17112 66.57569 111.26142 90.31697-52.53732-95.97746-165.29774 96.18785-166.13881-90.40646-52.16115-65.75735 113.34204-64.94244-111.82073z" fill="#fff" stroke="#000" stroke-width="2"/><g fill="#c1121c"><path d="m94.311338 211.92538 92.773602-52.71085-88.964832-154.2652246-92.3454695 53.5852996z"/><path d="m401.99432 744.3627 92.7736-52.71085-88.96483-154.26522-92.34547 53.5853z"/><path d="m98.00572 744.36271-92.7736-52.71085 88.96483-154.26522 92.34547 53.5853z"/><path d="m405.4739 212.22565-92.7736-52.71085 88.96483-154.265222 92.34547 53.585302z"/></g></g></svg>