<svg height="16" viewBox="0 0 15 16" width="15" xmlns="http://www.w3.org/2000/svg"><g transform="translate(0 -1036.3621)"><path d="m4.3766856 1037.1121c-1.3720829 0-2.3766858.5446-2.3766858 1.9962v12.2538h11.0000012v-12.2538c0-1.3422-1.035853-1.9962-2.376686-1.9962z" fill="#fff" stroke="#fff" stroke-linecap="round" stroke-linejoin="round" stroke-width="1.5"/><path d="m4 1037.3621c-1.1377079 0-2.0000002.8609-2.0000002 2v10h3.0000003v-1h-1.0000001v-1h7.000001v1h-1v1h3v-10c0-1.1391-.862292-2-2-2z"/><g transform="scale(1 -1)"><rect fill="#fff" height="4.000022" rx="1" width="9.000001" x="3" y="-1042.3621"/><ellipse cx="4" cy="-1045.3621" fill="#fff" rx="1" ry="1.000004"/><ellipse cx="11.000001" cy="-1045.3621" fill="#fff" rx="1" ry="1.000004"/><rect fill="#c87137" height=".999958" rx=".000079" width="15.000002" y="-1052.3621"/><rect height="3.000086" rx=".00002" width="3" x="6.000001" y="-1051.3621"/></g></g></svg>