<svg height="16" viewBox="0 0 16 16" width="16" xmlns="http://www.w3.org/2000/svg"><g transform="translate(0 -1036.3621)"><path d="m.20439762 1039.6141v9.498h15.52997938l-.000002-7.5078h-4.492188v2.0078h-5.5000009v-3.998z" fill="#fff"/><ellipse cx="-12.478067" cy="1049.8617" fill="none" rx="1.499627" ry="1.499626" stroke="#fff" stroke-linecap="round" stroke-linejoin="round" transform="matrix(-1 0 0 1 .033146 0)"/><ellipse cx="-12.478067" cy="1049.8617" rx="1.499627" ry="1.499626" transform="matrix(-1 0 0 1 .033146 0)"/><ellipse cx="-12.478067" cy="1049.8617" fill="none" rx="1.499627" ry="1.499626" stroke="#fff" stroke-linecap="round" stroke-linejoin="round" transform="matrix(-1 0 0 1 -3.966428 0)"/><ellipse cx="-12.478067" cy="1049.8617" rx="1.499627" ry="1.499626" transform="matrix(-1 0 0 1 -3.966428 0)"/><path d="m3.0955463 1036.3621c.5125623.999.97181 1.8717 1.4610941 2.6379.3986952.6188.8550782 1.2542 1.3476563 1.7754.492578.5212 1.0129603.9506 1.6445312 1.0762 1.1305518.2247 2.1390799.091 2.9648441-.022.812643-.1109 1.362494-.4119 1.814453-.01.310345.276.138014.7906.138673 1.2382l2.281247.1645s.04233-.5266-.01758-1.1699-.194441-1.4328-.707031-2.0215c-.805313-.9248-1.987932-1.3027-2.814454-1.7637-.41326-.2304-.728995-.4697-.90625-.7343-.177255-.2647-.260028-.6496-.164062-1.1708z" fill="#fff" fill-rule="evenodd"/><ellipse cx="-3.987601" cy="1049.3617" fill="none" rx="2.004281" ry="1.99961" stroke="#fff" stroke-linecap="round" stroke-linejoin="round" transform="scale(-1 1)"/><path d="m-16.000027 1051.3621h16.000027v.999918h-16.000027z" fill="#c87137" transform="scale(-1 1)"/><path d="m.9999997 1048.3621h14.0000023l.000024-4.0001v-1.9978h-3v2l-7.0000013-.0001v-4h-4.000025z"/><path d="m14.249067 1043.1847s.158276-1.9488-.602595-2.8226c-1.269906-1.4584-4.0495184-1.5188-4.0455229-3.5343l-5.6893134-.01s1.949201 4.1866 3.7348356 4.5415c2.0741968.4123 3.7537347-.4865 4.9062557 0 .666404.3649.374995 1.8282.374995 1.8282z" fill-rule="evenodd"/><g transform="scale(-1 1)"><ellipse cx="-3.987601" cy="1049.3617" rx="2.004281" ry="1.99961"/><path d="m-4.000024 1041.3619h2.000024v3.000162h-2.000024z" fill="#fff"/></g></g></svg>