<svg height="16" viewBox="0 0 15 16" width="15" xmlns="http://www.w3.org/2000/svg"><g transform="translate(0 -1036.3621)"><path d="m1 1037.3621h13v14h-13z" fill="#fff"/><path d="m-.00000048 1036.3621v16h1.00000012v-8c0-3.96 2.86770086-7 6.50195386-7 3.6342575 0 6.6081755 3.04 6.4980475 7v8h1.000002v-16z"/><path d="m1 1051.3621h13.000002v1.000039h-13.000002z" fill="#c87137"/><path d="m4.478082 1040.3621c-1.0398063 0-1.7546725.7148-1.7546725 1.7547v6.4906c0 1.105.649877 1.7547 1.7546725 1.7547h6.043851c1.104774 0 1.754657-.6497 1.754657-1.7547v-6.4906c0-1.0399-.779858-1.7547-1.754657-1.7547z"/><g fill="#fff"><path d="m4.478082 1044.8715h6.043851c.454919 0 .844848-.3899.844848-.9101v-1.6895c0-.5198-.389929-.9098-.844848-.9098h-6.043851c-.5199047 0-.9098309.39-.9098309.9098v1.6895c0 .5202.3899262.9101.9098309.9101z"/><path d="m5.3229205 1047.8722c0-.455-.3899292-.845-.8448385-.845-.5199047 0-.9098309.39-.9098309.845 0 .4547.3899262.8446.9098309.8446.4549093 0 .8448385-.3899.8448385-.8446z"/><path d="m11.366781 1047.8722c0-.455-.389929-.845-.844848-.845-.454906 0-.8448352.39-.8448352.845 0 .4547.3899292.8446.8448352.8446.454919 0 .844848-.3899.844848-.8446z"/></g></g></svg>