<svg height="14" viewBox="0 0 16 14" width="16" xmlns="http://www.w3.org/2000/svg"><g transform="translate(0 -1038.3621)"><path d="m0 1039.3621h16.000002v.75h-16.000002z" fill="#fff"/><path d="m7.385014 1038.3621-4.135014 2.55v1.5078l1.6835938 1.1914h-4.6835938v6.5h15.5v-6.5h-4.658203l1.685547-1.1894v-1.5117l-4.1435845-2.5481z" fill="#fff"/><circle cx="3" cy="1050.362141" fill="none" r="1" stroke="#fff" stroke-linecap="round" stroke-linejoin="round" stroke-width="1.5"/><circle cx="3" cy="1050.362141" r="1"/><circle cx="13.000002" cy="1050.362141" fill="none" r="1" stroke="#fff" stroke-linecap="round" stroke-linejoin="round" stroke-width="1.5"/><circle cx="13.000002" cy="1050.362141" r="1"/><circle cx="6.000001" cy="1050.3621" fill="none" r="1" stroke="#fff" stroke-linecap="round" stroke-linejoin="round" stroke-width="1.5"/><circle cx="6.000001" cy="1050.3621" r="1"/><circle cx="10.000001" cy="1050.3621" fill="none" r="1" stroke="#fff" stroke-linecap="round" stroke-linejoin="round" stroke-width="1.5"/><circle cx="10.000001" cy="1050.3621" r="1"/><path d="m7.9999765 1038.8578-3.9990404 2.4716v.7032l3.2943677 2.3295h-6.29530391l.00000021 5h14.0000019v-5h-6.2720885l3.3003035-2.3295v-.7032l-4.0282162-2.4716zm0 .9769 3.1212235 1.8482-3.1066352 2.1858-3.0984311-2.1858zm-5.9999763 5.5274h2.0000003v3h-2.0000003zm3.0000001 0h2.5000003v1.624h-2.5000003zm3.507813 0h2.5179447v1.62h-2.5179447zm3.4921877 0h2.000001v3h-2.000001z"/><path d="m0 1038.3621h16.000002v1h-16.000002z" fill="#666"/></g></svg>