<svg clip-rule="evenodd" fill-rule="evenodd" height="16" image-rendering="optimizeQuality" shape-rendering="geometricPrecision" text-rendering="geometricPrecision" viewBox="0 0 16 16" width="16" xmlns="http://www.w3.org/2000/svg"><path d="m5.021723 1.738402h6.373725v13.037165h-6.373725z" fill="#fff"/><path d="m6.29577 0c3.47651 0 6.29577 2.81926 6.29577 6.29577s-2.81926 6.29577-6.29577 6.29577-6.29577-2.81926-6.29577-6.29577 2.81926-6.29577 6.29577-6.29577zm.946169 4.51008v5.59696h.746244v.666294h-.133238-3.25159v-.666294h.746278v-4.93067h-.746278v-.666294h.133272 2.50531zm-1.94563-1.75903c0-.239884.086649-.455316.259879-.646332s.397573-.286507.672959-.286507h.133272c.230974 0 .444196.084405.639633.253214.195471.168775.293172.395328.293172.679625 0 .239849-.084371.455282-.25318.646298s-.395328.286507-.679625.286507h-.133272c-.230974 0-.444196-.084405-.639633-.25318-.195471-.168809-.293206-.395362-.293206-.679625z" fill="#00f" transform="scale(1.2706945)"/><g fill="#fff"><path d="m11 6h1v5h-1z" fill-rule="nonzero"/><path clip-rule="evenodd" d="m13 6h1v5h-1z" fill-rule="nonzero" image-rendering="optimizeQuality" shape-rendering="geometricPrecision" text-rendering="geometricPrecision"/><path d="m2 11 4-2.5-4-2.5"/></g></svg>