<svg clip-rule="evenodd" fill-rule="evenodd" height="16" image-rendering="optimizeQuality" shape-rendering="geometricPrecision" text-rendering="geometricPrecision" viewBox="0 0 16 16" width="16" xmlns="http://www.w3.org/2000/svg"><path d="m2.9499601 0h10.1000399c1.182641 0 2.95 1.175998 2.95 2.95v10.100038c0 1.773923-1.767359 2.949869-2.95 2.949879l-10.1000399.000083c-1.1826401-.000083-2.94986608-1.17604-2.94988013-2.950038l-.00007997-10.099962c.00007997-1.774002 1.76732-2.95 2.95004-2.95z" fill="#957f66"/><ellipse cx="8" cy="7.999998" fill="#fff" rx="4.752475" ry="4.752476" stroke="#fff" stroke-width=".158416"/><path d="m7.9991286 5.884992c-.2615456 0-.4761188-.0771423-.6421383-.2330354-.1676055-.1559289-.2514862-.3454243-.2514862-.5717213 0-.2330354.083881-.4224987.2514862-.5700627.1660182-.1475641.3805941-.2213104.6421383-.2213104.2666126 0 .4811882.073746.6471287.2213104.1643563.147564.2481591.3370594.2481591.5700627 0 .2363598-.083802.4291476-.2481591.5800397-.1659401.1492084-.3805146.2247063-.6471287.2247063zm.7661786 5.826056h-1.5508121v-5.0297034h1.5508121z" fill="#957f66" fill-rule="nonzero" stroke="#957f66" stroke-width=".060356"/></svg>