<svg clip-rule="evenodd" fill-rule="evenodd" height="16" image-rendering="optimizeQuality" shape-rendering="geometricPrecision" text-rendering="geometricPrecision" viewBox="0 0 16 16" width="16" xmlns="http://www.w3.org/2000/svg"><g transform="scale(.8)"><path d="m3.74995 0 12.50005.00005c1.4783.00000591 3.75 1.53245 3.75 3.74995v12.50005c0 2.2174-2.2717 3.749894-3.75 3.7499l-12.50005.00005c-1.4783-.0001-3.74983226-1.53255-3.74985-3.75005l-.0001-12.49995c.0001-2.2175 2.27165-3.75 3.75005-3.75z" fill="#84c225"/><circle cx="10" cy="10" fill="#fff" r="6"/><path d="m9.9989 7.3298c-.3302 0-.6011-.0974-.8107-.2942-.2116-.1969-.3175-.4361-.3175-.7218 0-.2942.1059-.5334.3175-.7197.2096-.1863.4805-.2794.8107-.2794.3366 0 .6075.0931.817.2794.2075.1863.3133.4255.3133.7197 0 .2984-.1058.5418-.3133.7323-.2095.1884-.4804.2837-.817.2837zm.9673 7.3554h-1.9579v-6.35h1.9579z" fill="#84c225" fill-rule="nonzero"/></g></svg>