<svg height="16" viewBox="0 0 16 16" width="16" xmlns="http://www.w3.org/2000/svg"><rect fill="#f0c900" height="10.5" ry="1.657282" stroke="#000" stroke-width=".5" width="15.5" x=".25" y=".25"/><g transform="matrix(.86368746 0 0 .86368746 1.090214 -899.26395)"><path d="m6.8139168 1047.7859q0 .9-.28 1.57-.2800001.66-.7900002 1.1-.5100001.43-1.2200002.65-.7100002.21-1.5600003.21-.4200001 0-.9300002-.04-.5000001-.03-.9100002-.13v-6.72q.4100001-.1.9100002-.13.5100001-.04.9300002-.04.8500001 0 1.5600003.22.7100001.21 1.2200002.65.5100001.43.7900002 1.1.28.66.28 1.56zm-3.7700007 2.68q1.3800003 0 2.0600004-.7.6800001-.71.6800001-1.98 0-1.27-.6800001-1.97-.6800001-.71-2.0600004-.71-.4100001 0-.6400001.01-.2200001.01-.3100001.02v5.3q.09.01.3100001.02.23.01.6400001.01z"/><path d="m9.1228236 1051.2559h-.93v-5.2h.93zm-.47-6.14q-.25 0-.43-.16-.17-.17-.17-.45 0-.28.17-.44.18-.17.43-.17.25 0 .42.17.18.16.18.44 0 .28-.18.45-.17.16-.42.16z"/><path d="m14.871887 1051.1059q-.32.08-.85.17-.52.09-1.21.09-.6 0-1.01-.17-.41-.18-.66-.5-.25-.32-.36-.75-.11-.44-.11-.97v-2.92h.93v2.72q0 .95.3 1.36.3.41 1.01.41.15 0 .31-.01.16-.01.3-.02.14-.02.25-.03.12-.02.17-.04v-4.39h.93z"/></g><path d="m7 11h2v5h-2z"/></svg>