<svg height="480" width="480" xmlns="http://www.w3.org/2000/svg"><g fill-rule="evenodd"><path d="m30.856274 5.7720243h420.004816c10.81582.7906802 23.07189 11.8437647 23.66646 24.8647647v418.806511c.04967 10.31854-11.79351 24.19224-25.16434 24.86477h-419.405663c-9.523815-.58318-24.4313132-15.37852-24.8647639-25.16434l.5991509-418.207366c-1.0815617-6.302442 14.286068-25.2982414 25.16434-25.1643397z" fill="#fff" stroke="#000" stroke-width="2"/><path d="m35.1875 16.78125c-11.760613-.514916-18.473169 7.51921-18.03125 20.375v406.40625c.046553 8.6672 3.728171 19.07043 15.6875 19.28125l414.4375-.03125c11.95933-.2108 15.6722-10.61405 15.71875-19.28125v-406.4375c.44191-12.855791-6.27063-20.88992-18.03125-20.375z" fill="#039"/><path d="m209.01102 465.74274v-261.54634l-79.30819-.04476-.04475-74.49356h220.68764l.04475 74.53832-79.25964-.04476.04476 261.5873z" fill="#fff"/><path d="m136.5311 136.49742h207.01057l-.08003 60.15625h-206.95101z" fill="#c00"/></g></svg>