<svg height="725" width="725" xmlns="http://www.w3.org/2000/svg"><circle cx="362.5" cy="362.5" fill="#fff" r="350" stroke="#000" stroke-width="2.5"/><circle cx="362.5" cy="362.5" fill="none" r="290" stroke="#c00" stroke-width="93.75"/><g transform="matrix(.594656 0 0 .594656 244.082 120.638)"><circle cx="188" cy="105" r="56"/><path d="m22 427c151.66667-236.66667 137.33333-243.33333 194-245 33 1 34 10 90 54 69 50.66667 64 51.33333 63 107-.33333 67 4.33333 62-49 87v-113l-47-42v159l-112-1-1-126c-92 142-86 134-138 120zm141 23h109c0 25 8 23 66 132 61 112.33333 62 104.66667 27 169l-151-271c-143 276.66667-125 268.33333-204 263l79-148c67.66667-122.33333 71.33333-122.66667 74-145z"/></g></svg>