<svg height="725" width="725" xmlns="http://www.w3.org/2000/svg"><circle cx="362.5" cy="362.5" fill="#fff" r="350" stroke="#000" stroke-width="2.5"/><path d="m-176.30905 369.66949c0 170.77689-138.44202 309.2189-309.2189 309.2189-170.77689.00001-309.21891-138.44201-309.21891-309.2189s138.44202-309.218905 309.21891-309.218905c170.77688 0 309.2189 138.442015 309.2189 309.218905z" fill="#039" transform="matrix(1.06121 0 0 1.06121 877.745 -29.7955)"/><g fill="#fff" transform="matrix(2.71584 0 0 2.71584 681.428 -1419.77)"><g fill-rule="evenodd"><path d="m-162.2598 695.78989h10.45958v41.0912c0 4.06928-10.08603 3.49728-10.08603 0z"/><path d="m-147.81755 695.78989h10.45958v50.05655c0 6.06117-10.08603 5.86107-10.08603 0z"/><path d="m-185.87304 691.92858c2.98013-14.39432 5.06167-27.091 25.22578-46.09318v-28.79172l-3.56595-.92451c-3.30544 11.52442-3.13716 22.12862.03179 33.15501-1.65453 1.66153-3.21285 3.41928-4.78639 5.16181-3.37719-1.67808-3.72391-6.92509-5.41495-11.63825l-2.0649-13.02075 1.93282-10.8843c3.57932-8.02055 5.81544-16.38168 19.67875-21.65983l8.32054-.13208c16.01878 2.7754 19.07775 14.16203 25.00879 25.38414 7.16359 13.55421 15.61344 25.60257 7.48096 30.3503 9.01208 5.86805 13.72951 16.03075 27.07479 17.5656 6.36954.65607 9.68572-1.23231 14.52793-1.84901l23.11262 27.99929c1.09794 7.18615-1.55816 8.11558-4.09423 9.24505l-15.58451-18.62217 5.41495 27.471h-7.66018l4.88667 29.05587c0 2.78767-9.37712 3.52302-9.37712.52829l-4.7546-26.81064-6.55554-.07348-2.95365 30.71421c0 3.1559-8.45262 2.58331-8.45262 0l3.69802-65.24363-26.94271-24.82956c-3.10628-5.49447-.84453-7.19974 0-9.90541-3.78431-11.31506-10.20552-21.31167-15.32037-31.96146h-1.84901l.13207 29.8483c21.61956 18.68778 22.37733 31.6547 25.22578 46.35732z"/></g><path d="m-135.36376 575.69151c.00292 7.73868-6.26969 14.01366-14.00836 14.01366-7.73868 0-14.01129-6.27498-14.00837-14.01366-.00292-7.73867 6.26969-14.01366 14.00837-14.01366 7.73867 0 14.01128 6.27499 14.00836 14.01366z"/><path d="m-72.793169 650.58949c.002608 6.91321-5.600921 12.51887-12.514131 12.51887-6.913218 0-12.516747-5.60566-12.514139-12.51887-.002608-6.91321 5.600921-12.51886 12.514139-12.51886 6.91321 0 12.516739 5.60565 12.514131 12.51886z"/></g></svg>