<svg height="725" width="725" xmlns="http://www.w3.org/2000/svg"><circle cx="362.5" cy="362.5" fill="#fff" r="350" stroke="#000" stroke-width="2.5"/><circle cx="362.5" cy="362.5" fill="none" r="290" stroke="#c00" stroke-width="93.75"/><g transform="matrix(.436865 0 0 .436865 143.872 253.031)"><path d="m295.78419 86.816926v248.265594l391.93206.32058c-22.99976 18.79086-37.35891 44.69108-37.17122 78.68503l-389.0657-.23146c-3.72695-131.88316-190.836714-131.43444-194.902476-.76233-28.102859-.20968-32.001041-6.59235-32.271984-32.47965l-.000002-99c-.352853-44.24216-5.878058-15.03738 26.872146-98.93472 33.698045-89.433525 24.408093-81.16706 54.887786-83.475175zm-77.84554 146.382734 1.55116-105.4792-100.05012 6.20466c-18.23966 1.22192-18.39146 1.33642-24.81864 22.49189l-25.594218 68.25124c-8.59824 20.93425-7.229702 27.1029 16.28723 24.04306zm748.69629 102.39108.19058 55.77718-64.6075 22.86991-56.72662-.03627c.2309-32.34253-13.21004-59.54445-37.04159-78.65263z" fill-rule="evenodd"/><path d="m335.82718 12.158683h631.32404v301.70154h-631.32404z"/><circle cx="164" cy="412" r="77"/><circle cx="748" cy="412" r="77"/></g></svg>