<svg height="725" width="725" xmlns="http://www.w3.org/2000/svg"><circle cx="362.5" cy="362.5" fill="#fff" r="350" stroke="#000" stroke-width="2.5"/><circle cx="362.5" cy="362.5" fill="none" r="290" stroke="#c00" stroke-width="93.75"/><g transform="matrix(.9761 0 0 .9761 169.010129176 171.486632963)"><path d="m52.413594 38.866939.5 23.75-46.4687498 52.531251 11.6249998 12.125 53.03125-11.125 23.21875 39.90625c-10.19625 24.39508-1.45315 35.55975 4.0625 52.03125l-57.59375 36.34375v80.3125l20.71875-11.125-.5-54.53125 47.968746-26.28125 44.9375 102.03125-3.9375 20.37503 20.625.3437 3.03125-20.21873-35.875-104.03125c34.15614 9.64976 68.62547 11.43405 103.5625 0l33.8125 60.09375-34.40625 63.71873 23.8125.5313 35.875-66.25003-7.59375-50.53125 52.53125 41.4375-11.625 70.18748 23.25-6.06248 11.09375-71.71875-29.78125-51c4.24708-25.99813-1.2403-45.73275-12.3125-59.125l10.59375-9.1875c17.82138-6.1883 28.6233.32116 34.84375 15.125l6 36.71875 30.28125-15.5625-8.09375-29.21875c-10.02521-26.21643-40.11224-44.06318-73.8125-20.125 0 0-10.70234 10.90232-11.96875 11.375-17.86218-11.73842-42.45296-13.4123-65.59375-4.84375l-4.0625.03125c7.2997-3.73313 7.70713-13.16086 5.21875-20.15625l-35.84375-62.125001c-13.74307-16.06692-46.65874-1.31884-40.40625 22.25l4.6875 8.6875-31.625 14.875001c-15.98669-28.227891-32.74758-55.978381-77.624996-55.906251zm134.812496 74.718751 11.75 19.71875-27.96875 13.90625h-.40625c-4.97704-5.38296-9.29518-11.43524-13.3125-17.8125z" fill-rule="evenodd"/><path d="m241.42858 621.29077c0 12.91952-10.47334 23.39286-23.39286 23.39286s-23.39286-10.47334-23.39286-23.39286 10.47334-23.39286 23.39286-23.39286 23.39286 10.47334 23.39286 23.39286z" transform="translate(-40.4436 -589.044)"/></g></svg>