<svg height="725" width="725" xmlns="http://www.w3.org/2000/svg"><circle cx="362.5" cy="362.5" fill="#fff" r="350" stroke="#000" stroke-width="2.5"/><circle cx="362.5" cy="362.5" fill="none" r="290" stroke="#c00" stroke-width="93.75"/><path d="m269.3845 421.14832v4.40432c-.00011 1.70663-.0616 3.59765-.18444 5.67308-.12308 2.07551-.54973 4.94651-1.27994 8.61301-3.42072 11.72251-9.89305 21.24656-19.417 28.57217-9.52414 7.32562-20.3896 10.98843-32.59642 10.98843-9.77004 0-18.92892-2.93062-27.47668-8.79186-8.54783-5.86124-14.16314-11.90506-16.84595-18.13148-2.68285-6.22638-4.45277-11.23247-5.30977-15.01828-.85704-3.78573-1.28554-9.22219-1.28553-16.30939v-14.2749h34.79858v11.34615c-.00005 2.93626.06143 5.80726.18444 8.61301.12292 2.80584 1.40471 6.34569 3.8454 10.61954 2.44057 4.27394 6.83557 6.41089 13.185 6.41086 6.3493.00003 10.86726-2.13692 13.5539-6.41086 2.68648-4.27385 4.02975-9.70845 4.02984-16.3038v-37.72733c-.00009-6.10335-1.46446-10.37538-4.39314-12.81612-2.92884-2.44052-5.79798-3.9049-8.60742-4.39314-2.80959-.48801-5.80169-.73208-8.97632-.73219h-6.2264v-30.77433h6.2264c14.65118.00015 21.97679-6.83734 21.97688-20.51249v-29.29877c-.00009-3.42042-.18267-5.92439-.54775-7.51193-.36524-1.58714-1.82962-4.02964-4.39314-7.32749-2.56367-3.29744-6.53202-4.94626-11.90507-4.94647-6.1035.00021-10.62146 1.83161-13.55389 5.49422-2.93254 3.66301-4.39878 8.4269-4.39873 14.29167v17.94145h-34.79858v-17.94145c-.00001-15.38882 4.94459-28.27199 14.83383-38.64956 9.88918-10.37711 22.52829-15.56577 37.91737-15.56602 8.54773.00025 16.78998 2.19868 24.72678 6.5953 7.93661 4.3971 13.79599 9.52615 17.57814 15.38716 3.78194 5.86147 6.28405 11.2942 7.50635 16.29821 1.22206 5.00443 1.83315 10.31606 1.83326 15.93491v28.57217c-.00011 15.87358-6.96057 27.96122-20.88138 36.26296 7.81737 5.37324 13.25197 10.80597 16.3038 16.29821 3.05161 5.49246 4.57747 12.87769 4.57758 22.15573z"/><g fill-rule="evenodd"><g transform="matrix(0 -1 1 0 -.607365 724.393)"><path d="m186.83434 361.43995-50.10643-86.08199c-23.14159 56.46676-20.45068 127.99194 0 174.28408z"/><path d="m536.95093 361.43995 50.10643-86.08199c23.14159 56.46676 20.45068 127.99194 0 174.28408z"/></g><path d="m432.43464 477.15265.10706-123.63315 25.48967-.10706-.10707 11.12436c14.7379-20.35575 32.555-12.94607 44.50717-2.29689 12.32247-9.4409 39.5009-23.41785 54.02564 17.03204v98.0559h-26.49213v-91.22362c-.32195-2.31659-3.40056-7.25077-6.24822-7.34574 0 0-10.4492.47435-10.4492.47435-3.26636-.08975-5.90422 3.53101-5.98926 6.97846l-.10706 91.09708-26.53105-.10705.21412-91.22362c.06029-2.70382-4.32466-7.39605-6.91827-7.32363 0 0-10.20079.4131-10.20079.4131-1.79525.12131-6.22785 5.04753-5.918 6.80347v91.15549z"/><path d="m282.55272 450.95142h25.12929v25.80561l-25.00071 18.6541z" fill-opacity=".75"/></g><path d="m403.66371 442.05384c-.00008 5.22277-1.30576 10.70717-3.91705 16.45322-2.61145 5.74609-6.87783 10.66466-12.79917 14.75571-5.92147 4.09106-12.36222 6.13658-19.32228 6.13659-7.48615-.00001-14.3639-1.91536-20.63328-5.74608-6.26944-3.83071-10.53582-8.1396-12.79917-12.92668-2.26338-4.78705-3.6554-8.74794-4.17607-11.88267-.52069-3.13467-.78103-6.35704-.78102-9.66712v-30.55542c-.00001-4.69668 1.08784-8.91657 3.26355-12.6597 2.17568-3.74297 5.26656-7.09418 9.27262-10.05365-8.35746-6.26931-12.53618-14.88709-12.53617-25.85336v-23.50234c-.00001-3.30989.65217-6.66243 1.95654-10.05763 1.30434-3.39489 4.43772-8.31345 9.40013-14.7557 4.96238-6.44192 13.79799-9.66296 26.50687-9.66313 4.87734.00017 9.49174 1.00168 13.84319 3.00453 4.35133 2.0032 9.22606 5.83391 14.62421 11.49216 5.39799 5.65857 8.09702 13.27484 8.0971 22.84883v22.45831c-.00008 10.10024-4.1788 18.10968-12.53617 24.02833 8.35737 5.74351 12.53609 13.92562 12.53617 24.54635zm-37.08252-115.16862c-3.65543.00016-6.70247 1.2195-9.14112 3.65805-2.43873 2.43884-3.65808 5.39821-3.65805 8.87813v22.45831c-.00003 4.00617 1.08782 7.44504 3.26355 10.31664 2.17566 2.87182 5.26653 4.30767 9.27262 4.30757 4.35135.0001 7.52856-1.34941 9.53164-4.04855 2.00297-2.69893 3.00448-6.22415 3.00454-10.57566v-22.45831c-.00006-3.3099-1.17558-6.22677-3.52655-8.75062-2.35108-2.52355-5.26662-3.7854-8.74663-3.78556zm0 68.41897c-3.83076.00009-6.92163 1.26327-9.27262 3.78955-2.35107 2.52643-3.52658 5.70231-3.52655 9.52765v30.55542c-.00003 4.52677 1.04398 8.18348 3.13205 10.97015 2.088 2.78673 5.48304 4.18007 10.18514 4.18005 4.52668.00002 7.61755-1.47966 9.27263-4.43906 1.65496-2.95935 2.48247-6.52972 2.48253-10.71114v-30.55542c-.00006-3.82534-1.08791-7.00122-3.26355-9.52765-2.17575-2.52628-5.17896-3.78946-9.00963-3.78955z"/></svg>