<svg height="725" width="725" xmlns="http://www.w3.org/2000/svg"><circle cx="362.5" cy="362.5" fill="#fff" r="350" stroke="#000" stroke-width="2.5"/><circle cx="362.5" cy="362.5" fill="none" r="290" stroke="#c00" stroke-width="93.75"/><path d="m213.03125 432.5-42.1875 42.1875 42.21875 42.375 25.09375-.3125-31.5-32.15625h60.4375l-.03125-19.65625h-60.4375l31.5-32.125z" fill-rule="evenodd"/><path d="m511.47267 432.54183 42.1875 42.1875-42.21875 42.375-25.09375-.3125 31.5-32.15625h-60.4375l.03125-19.65625h60.4375l-31.5-32.125z" fill-rule="evenodd"/><path d="m292.74349 507.09531v-61.48983l-10.29806 7.5121v-10.99454l10.29806-7.51211h10.39755v72.48438z" transform="scale(.993187 1.00686)"/><path d="m348.33509 489.64451v-30.79466c-.00003-3.48238-.93697-6.20199-2.81082-8.15884-1.87391-1.95673-4.33648-2.93513-7.38773-2.93519-3.08446.00006-5.55533.97846-7.41261 2.93519-1.85731 1.95685-2.78596 4.67646-2.78594 8.15884v30.79466c-.00002 3.51561.92863 6.24352 2.78594 8.18371 1.85728 1.94023 4.32815 2.91033 7.41261 2.91032 3.05125.00001 5.51382-.97009 7.38773-2.91032 1.87385-1.94019 2.81079-4.6681 2.81082-8.18371zm-30.79465.59699v-31.98864c-.00001-6.66631 2.08945-11.81533 6.26838-15.44707 4.1789-3.63161 8.95481-5.44745 14.32772-5.44752 5.3397.00007 10.10731 1.81591 14.30285 5.44752 4.19546 3.63174 6.29321 8.78076 6.29325 15.44707v31.98864c-.00004 6.66638-2.09779 11.80711-6.29325 15.4222-4.19554 3.6151-8.96315 5.42264-14.30285 5.42264-5.37291 0-10.14882-1.80754-14.32772-5.42264-4.17893-3.61509-6.26839-8.75582-6.26838-15.4222z"/><path d="m371.9405 510.98935v-51.6395h10.39755v5.52215h.199c3.28341-4.07938 7.76082-6.11908 13.43224-6.11914 3.61506.00006 6.48392.64679 8.60658 1.94022 2.12259 1.29352 4.11255 2.88549 5.96989 4.7759 4.07937-4.47736 9.51859-6.71606 16.31768-6.71612 4.01302.00006 7.88515 1.52569 11.6164 4.57692 3.7311 3.05131 5.59669 7.49556 5.59677 13.33274v34.32683h-10.39755v-30.7449c-.00007-3.4824-.97847-6.20201-2.93519-8.15884-1.95686-1.95676-4.37798-2.93516-7.26336-2.9352-2.985.00004-5.44758.97844-7.38774 2.9352-1.94026 1.95683-2.91036 4.67644-2.91031 8.15884v30.7449h-10.3478v-30.7449c-.00004-3.4824-.97844-6.20201-2.9352-8.15884-1.95683-1.95676-4.37794-2.93516-7.26336-2.9352-2.98496.00004-5.44754.97844-7.38773 2.9352-1.94023 1.95683-2.91034 4.67644-2.91032 8.15884v30.7449z"/><g transform="matrix(.400053 0 0 .400053 143.845 217.208)"><path d="m295.78419 86.816926v248.265594l391.93206.32058c-22.99976 18.79086-37.35891 44.69108-37.17122 78.68503l-389.0657-.23146c-3.72695-131.88316-190.836714-131.43444-194.902476-.76233-28.102859-.20968-32.001041-6.59235-32.271984-32.47965l-.000002-99c-.352853-44.24216-5.878058-15.03738 26.872146-98.93472 33.698045-89.433525 24.408093-81.16706 54.887786-83.475175zm-77.84554 146.382734 1.55116-105.4792-100.05012 6.20466c-18.23966 1.22192-18.39146 1.33642-24.81864 22.49189l-25.594218 68.25124c-8.59824 20.93425-7.229702 27.1029 16.28723 24.04306zm748.69629 102.39108.19058 55.77718-64.6075 22.86991-56.72662-.03627c.2309-32.34253-13.21004-59.54445-37.04159-78.65263z" fill-rule="evenodd"/><path d="m335.82718 12.158683h631.32404v301.70154h-631.32404z"/><circle cx="164" cy="412" r="77"/><circle cx="748" cy="412" r="77"/></g></svg>