<svg height="16" viewBox="0 0 16 16" width="16" xmlns="http://www.w3.org/2000/svg"><g transform="translate(0 -1036.3621)"><circle cx="8" cy="1044.3621" fill="#fff" r="8"/><path d="m11.634905 1042.8175v3.2262c0 .7333-.661947 1.1733-1.3952 1.1733-.733254 0-1.3911168-.44-1.3911168-1.1733s-.0000179-2.4671 0-3.2262c.0000174-.7332.6578628-1.3199 1.3911168-1.3199.733253 0 1.3952.5867 1.3952 1.3199z" fill="none" stroke="#000" stroke-width=".923878"/><path d="m5.8378906 4.7363281-1.796875 3.59375c-.066003.1667-.2148437.5342907-.2148437.8378907-.029575.5693998.091255 1.0140622.4472656 1.4765622.7272679.8256 1.9339375.918029 2.7519531.173829.6723419-.5367.7320534-1.9491789.3554688-2.6425788-.4125904-.6742998-1.1581944-.9235905-1.8964844-.6503906l1.4003906-2.7890625zm-.03125 3.4980469c.4804671.045075.928706.4502033.8359375 1.2207031-.0698059 1.3275999-2.0300805 1.2303899-1.8632812-.2871093.0336172-.6642999.5468766-.9786688 1.0273437-.9335938z" fill-rule="evenodd" transform="translate(0 1036.3621)"/><path d="m657.32083 1187.3629c-.46092 0-.92605.034-1.39423.09-16.366 3.2398-9.73707 20.3533-11.05691 32.2739.007 7.7011 6.59052 13.4062 14.19453 12.5508 16.36601-3.37 9.74065-20.1946 11.05675-32.2737.0455-7.1342-5.88632-12.7075-12.80014-12.6408zm.24197 6.313c3.4452.026 6.21492 2.7762 6.20804 6.3285v20.0962l-.0747.8222-.22416.7469-.29889.747-.37344.6709c-.94381 1.6214-2.72557 2.6584-4.55716 2.914-1.83782.1898-3.76286-.3932-5.08022-1.7182-1.59852-1.5277-1.7879-2.4868-2.01696-4.5568v-19.7229l.0747-.4475.0746-.7469.14945-.7468.29888-.7478.37343-.7469c1.28871-1.6619 2.44311-2.4977 4.55733-2.8387.30039-.038.5972-.055.88916-.053z" fill-rule="evenodd"/><g fill="none"><path d="m667.00012 1199.3621v22c0 5.0001-4.51387 8-9.51398 8-5.00012 0-9.48614-3-9.48614-8s-.00012-16.8236 0-22c.00012-5 4.48602-9 9.48614-9 5.00011 0 9.51398 4 9.51398 9z" stroke="#f00" stroke-width="6.3"/><ellipse cx="8" cy="1044.3621" rx="6.581324" ry="6.581294" stroke="#c1121c" stroke-linecap="round" stroke-width="2"/></g></g></svg>