<svg height="600" width="600" xmlns="http://www.w3.org/2000/svg"><g transform="translate(1.374794 11.86118)"><path d="m590.68796 288.07677c-.89687-147.41844-109.2846-271.351714-255.70884-289.4974443-166.95465-21.3507897-316.841186 103.6044943-327.8746257 271.1431443-10.12963 168.35903 123.0016457 309.57595 291.5831557 310.35461 161.97674-1.0359 290.88097-129.96795 292.00031-292.00031" fill="#fffefe" fill-rule="evenodd" stroke="#000"/><path d="m590.68796 288.07677-.83429-18.3543m0 0-4.58858-36.29147m0 0-9.17715-35.45717m0 0-13.34859-34.20575m0 0-17.52001-32.12004m0 0-21.69145-29.61718m0 0-25.0286-26.697164m0 0-28.36574-23.36003m0 0-30.86861-19.60573m0 0-32.95432-15.85145m0 0-35.04003-11.2628703m0 0-36.29147-6.67429m0 0-36.29147-2.50286m0 0-36.70861 2.50286m0 0-35.87432 6.67429m0 0-35.04004 11.2628703m0 0-32.95432 15.85145m0 0-30.8686 19.60573m0 0-28.365736 23.36003m0 0-25.0286 26.697164m0 0-21.69145 29.61718m0 0-17.52003 32.12004m0 0-13.76572 34.20575m0 0-9.17716 35.45717m0 0-4.5885697 36.29147m0 0v36.70861m0 0 4.5885697 36.29146m0 0 9.17716 35.45718m0 0 13.76572 34.20576m0 0 17.52003 32.12003m0 0 21.69145 29.61717m0 0 25.0286 26.69717m0 0 28.365736 23.36003m0 0 30.8686 19.60573m0 0 32.95432 15.43431m0 0 35.04004 11.68001m0 0 35.87432 6.67429m0 0 36.70861 2.50286m0 0 36.29147-2.50286m0 0 36.29147-6.67429m0 0 35.04003-11.68001m0 0 32.95432-15.43431m0 0 30.86861-19.60573m0 0 28.36574-23.36003m0 0 25.0286-26.69717m0 0 21.69145-29.61717m0 0 17.52001-32.12003m0 0 13.34859-34.20576m0 0 9.17715-35.45718m0 0 4.58858-36.29146m0 0 .83429-18.35431"/><g fill-rule="evenodd"><path d="m580.67652 288.07677c.45885-141.71748-105.98916-262.320554-246.53169-279.9031443-161.17026-20.7737397-307.253836 100.2256243-317.028896 262.3831343-10.4077297 161.63607 119.302976 300.24583 281.571716 299.50888 155.41369.5979 282.31563-126.74898 281.98887-281.98887"/><path d="m445.52209 64.487966c-247.67188-153.93978-524.363026 122.751364-370.423236 370.423244z" fill="#fffefe"/><path d="m456.78496 71.996546 4.17144 3.33715 3.75428 2.92-375.846106 375.846104-2.92-3.75428-3.33715-4.17144z" fill="#fffefe"/><path d="m475.5564 87.013706 3.7543 3.75428 3.75429 3.33715-378.34897 378.348984-3.33715-3.7543-3.754276-3.75429z" fill="#fffefe"/><path d="m499.33357 111.20802-6.67429-7.50858-378.34897 378.34897 7.50858 6.67429z" fill="#fffefe"/><path d="m514.76788 129.97947-3.33715-4.17144-2.92001-4.17142-376.26325 376.26324 4.17144 2.92 4.17143 3.33715z" fill="#fffefe"/><path d="m522.27646 141.24234c153.91197 247.40073-123.01556 524.33521-370.42325 370.42324z" fill="#fffefe"/><path d="m203.99612 144.99662h46.30291l-61.32007 122.64013c16.80393-6.48657 36.11766-7.05667 52.56006.83429l-31.7029 31.28574c-33.16289-7.97438-56.06405 18.90355-51.72576 51.72578l-33.78861 33.78861c-6.33362-14.51659-7.96048-30.61832-7.09143-46.30291v-3.75429l.83429-7.50858 1.25143-7.09144 2.08571-7.50858 2.92-7.09143 1.66858-3.33715zm-66.32578 260.71457-1.66858-2.08572-3.33715-3.75429-1.25142-2.50287 30.03432-29.61717.83429 1.25143 1.25143 3.33715 2.0857 2.92.83429 1.25143zm18.3543 15.43429-2.50285-1.25143-4.17144-2.91999-2.08572-1.66858 29.20003-29.20004 8.34287 4.17144 1.66858.41715zm23.36003 10.01144-2.50287-.83429-5.42285-1.66856-2.92001-.83429 35.45718-35.45718 2.08572-.41714 4.58857-.83429 8.34288-3.33715 3.75428-2.50285 3.75429-2.92001 5.84-6.6743 2.50286-4.17142 2.08572-3.7543 1.25143-4.58857 1.25144-4.17143.41714-2.50287 40.04575-40.04575.41715 3.33715.41714 5.84v4.17144zm32.53717 1.25143-7.50857 1.25143h-7.92572l84.26294-84.26294v5.84l-.41714 6.25716-.41715 3.33714zm30.8686-11.68001 25.44575-25.02859c-6.41705 10.14353-15.21182 18.75059-25.44575 25.02859zm-2.91999-83.42866v-2.08571l-.83429-4.17144-.83429-3.75428-.83428-2.08572 32.53717-32.53718 1.66858 2.08572 2.50286 5.00571 1.25142 2.08572zm-9.5943-24.19431-.83428-1.66857-2.50287-2.50285-2.50286-2.08572-1.25143-.83429 30.45146-30.45146 2.08572 1.25142 3.75429 3.33715 2.08572 1.66858zm98.86296-132.65157c7.47382-11.68001 14.57221-17.45049 25.44574-25.44573zm-12.5143 46.30291v-5.84l.41715-6.25716.41714-3.33714 67.99435-67.99435 2.50286-.41715 5.00573-.41714h7.92572zm0 33.78861v-14.18288l100.94867-101.36582 2.92001.83429 5.42287 1.66857 2.91999.83429-35.45717 35.45718h-2.08572l-4.58858 1.25143-8.34286 3.33714-3.75429 2.50287-3.75429 2.92-5.84001 6.67429-2.50286 3.75429-2.08571 4.17144-1.25143 4.58857-1.25143 4.17144-.41715 2.08572zm0 33.78861v-14.60002l40.88004-40.88004v14.60002zm0 33.37146v-14.18287l40.88004-40.88004v14.6zm0 19.60573 40.88004-40.88004c-2.47504 36.74337-7.27915 82.67085 40.88004 86.34866 12.03459-.02781 23.8328-5.52715 31.28575-15.01716l2.92001-4.17143 2.50286-4.17143 2.08572-5.00573 1.25143-5.00571.41714-5.00572.41714-2.50286v-127.22871l33.7886-33.7886 1.66858 3.75429 2.50286 8.34286 1.66857 8.34287.83429 8.76001.41714 4.17143v127.64585l-.41714 5.00572-1.25143 10.42858c-5.31163 27.53146-23.93012 50.18234-50.0572 60.48578-55.7512 21.79574-115.04812-20.84326-111.7944-80.50866zm119.30299-138.90871-.83429-1.66857-1.25143-2.92001-2.08572-2.92001-.83429-1.66857 28.78289-28.78288 1.66857 1.66857 2.92001 4.17144 1.66857 2.08571zm-15.43431-18.35431-1.25143-.83429-6.67429-3.33714-1.66858-.41714 30.45146-30.45146 2.08572 1.25142 4.58858 2.92001 2.08572 1.66857z" fill="#999"/></g></g></svg>