<svg height="725" width="725" xmlns="http://www.w3.org/2000/svg"><circle cx="362.5" cy="362.5" fill="#fff" r="350" stroke="#000" stroke-width="2.5"/><circle cx="362.5" cy="362.5" fill="none" r="290" stroke="#c00" stroke-width="93.75"/><g fill-rule="evenodd"><path d="m294.04544 221.14362h-110.79044l-.16412 145.10753h34.61203c0-19.72074 36.78066-20.40272 36.78066 0v72.51286c.00006 6.26722-11.36574 13.64021-13.99482 13.76996 0 0-10.17516-.05239-10.17516-.05239-2.62492 0-12.69769-5.6851-12.66492-13.14415 0 0 .05255-17.14715.05255-17.14715h-39.55764l.16091 21.61022c0 16.04467 23.96226 48.77409 47.10472 48.77409 0 0 19.87118-.34968 19.87118-.34968 23.22061 0 49.21687-30.96661 49.00473-48.42441l.1609-86.08098c0-38.15589-55.05553-51.74483-76.53266-30.2677l-.33794-68.27836 76.77529.16413z"/><path d="m495.56079 294.87587-.12633 45.15223-14.85061.12634v25.87717h14.91443l.12634 95.35795c0 12.58556 18.42006 29.63737 27.23696 29.63737h22.96876l-.25267-29.16327-11.59443.12634c-3.48571 0-7.34031-2.54083-7.34031-5.76969v-90.09495l18.96732-.12633v-25.87718h-19.14739l.12633-45.18348z"/><path d="m455.49795 280.06412h-86.98613l-.12886 113.92989h27.17533c0-15.48356 28.87801-16.01901 28.87801 0v56.93283c.00004 4.92065-8.92371 10.70949-10.98791 10.81136 0 0-7.98894-.04113-7.98894-.04113-2.06093 0-9.96948-4.46361-9.94375-10.32001 0 0 .04126-13.46294.04126-13.46294h-31.05833l.12634 16.96708c0 12.59733 18.81375 38.29454 36.98385 38.29454 0 0 15.60168-.27455 15.60168-.27455 18.23146 0 38.64219-24.31316 38.47563-38.01999l.12633-67.58572c0-29.95776-43.22636-40.627-60.08894-23.76442l-.26533-53.60815 60.27944.12887z"/><path d="m311.3137 459.93357 31.21949-.1455v31.95945l-31.18624 23.00516z"/></g></svg>