<svg height="725" width="725" xmlns="http://www.w3.org/2000/svg"><circle cx="362.5" cy="362.5" fill="#fff" r="350" stroke="#000" stroke-width="2.5"/><circle cx="362.5" cy="362.5" fill="none" r="290" stroke="#c00" stroke-width="93.75"/><g fill-rule="evenodd"><path d="m373.6705 530.12962-144.36525-.23516v-45.16637l94.80077-183.15693.47032-41.82013c0-28.37739-46.02439-28.08103-46.02439 0v31.40641l-49.44055-.23516.23516-36.98031c13.40405-85.18011 131.62537-82.71949 144.79426.70548l-.70548 46.95231s-84.98129 180.54158-84.98129 180.54158h84.89868z"/><path d="m186.83434 361.43995-50.10643-86.08199c-23.14159 56.46676-20.45068 127.99194 0 174.28408z"/><path d="m536.95093 361.43995 50.10643-86.08199c23.14159 56.46676 20.45068 127.99194 0 174.28408z"/><path d="m405.37733 529.94375.08913-102.92429 21.22008-.08912-.08913 9.261c12.26926-16.94611 27.10195-10.77757 37.0521-1.91216 10.25843-7.85952 32.8844-19.4953 44.97621 14.17913v81.63129h-22.05463v-75.94343c-.26802-1.92856-2.83096-6.03625-5.20163-6.11531 0 0-8.69893.39489-8.69893.39489-2.71924-.07471-4.91525 2.93956-4.98604 5.80955l-.08913 75.83809-22.08703-.08912.17825-75.94343c.05019-2.25092-3.60027-6.15719-5.75944-6.0969 0 0-8.49213.3439-8.49213.3439-1.49454.10099-5.18467 4.20206-4.92672 5.66387v75.88672z"/></g></svg>