<svg height="725" width="725" xmlns="http://www.w3.org/2000/svg"><circle cx="362.5" cy="362.5" fill="#fff" r="350" stroke="#000" stroke-width="2.5"/><circle cx="362.500925" cy="362.500925" fill="#039" r="337.1917"/><g fill="#fff"><path d="m210.53494 379.03602v-45.07255h17.63708c16.98373.00021 30.41567-4.7765 40.29583-14.33013 9.87988-9.55319 14.81989-21.67867 14.82005-36.37648-.00016-14.53399-5.1443-26.78196-15.43244-36.74393-10.28844-9.96138-22.5364-14.94222-36.74393-14.94253-10.77831.00031-20.98495 3.59305-30.61993 10.77822-9.63515 7.18577-15.84078 17.96398-18.61692 32.33465h-51.19654c1.95967-25.14888 12.49292-47.15438 31.59978-66.01658 19.10678-18.86153 41.39807-28.29246 66.87394-28.29282 31.84459.00036 57.36118 10.49278 76.54984 31.4773 19.18829 20.98517 28.78252 44.46043 28.78274 70.42585-.00022 13.71797-2.69477 27.06825-8.08367 40.05088-5.3893 12.98305-15.43263 24.21035-30.13001 33.68192 15.02399 9.63525 25.8022 21.47495 32.33465 35.51913 6.53204 14.04448 9.79816 28.25212 9.79838 42.62295-.00022 33.31457-10.45181 59.85182-31.35482 79.61184-20.90337 19.76007-46.54244 29.64009-76.91728 29.64009-24.16942 0-45.92996-7.79787-65.2817-23.39363-19.35182-15.59572-31.39565-38.3361-36.13152-68.22122h51.19653c4.73582 12.24806 11.10476 22.08725 19.10684 29.51762 8.00192 7.43049 19.3517 11.14571 34.04937 11.14566 14.20752.00005 26.7821-5.02162 37.72376-15.06501 10.94136-10.04326 16.41212-23.88346 16.41229-41.52063-.00017-17.80027-5.4301-31.72212-16.28981-41.76559-10.86001-10.04319-23.80202-15.06485-38.82608-15.06501z"/><path d="m538.95143 437.66956v-151.62993c-.00017-17.14689-4.61357-30.538-13.84021-40.17335-9.22696-9.63477-21.35244-14.4523-36.37648-14.45261-15.1876.00031-27.35391 4.81784-36.49897 14.45261-9.14523 9.63535-13.7178 23.02646-13.71773 40.17335v151.62993c-.00007 17.31055 4.5725 30.74248 13.71773 40.29583 9.14506 9.55347 21.31137 14.33018 36.49897 14.33013 15.02404.00005 27.14952-4.77666 36.37648-14.33013 9.22664-9.55335 13.84004-22.98528 13.84021-40.29583zm-151.62992 2.93951v-157.50895c-.00002-32.82428 10.28827-58.17756 30.86489-76.05992 20.57653-17.88169 44.09262-26.82271 70.54834-26.82307 26.29217.00036 49.76743 8.94138 70.42585 26.82307 20.65804 17.88236 30.98715 43.23564 30.98737 76.05992v157.50895c-.00022 32.82464-10.32933 58.13709-30.98737 75.93744-20.65842 17.8004-44.13368 26.70058-70.42585 26.70059-26.45572-.00001-49.97181-8.90019-70.54834-26.70059-20.57662-17.80035-30.86491-43.1128-30.86489-75.93744z"/></g></svg>