<svg height="725" width="725" xmlns="http://www.w3.org/2000/svg"><circle cx="362.5" cy="362.5" fill="#fff" r="350" stroke="#000" stroke-width="2.5"/><circle cx="362.5" cy="362.5" fill="none" r="290" stroke="#c00" stroke-width="93.75"/><g transform="matrix(.387772 0 0 .387772 168.342 207.443)"><path d="m26.666667 456.41026c-2.393163-176.41026-11.965813-24.61539 94.358973-286.15385 76.92308-177.7777776-1.02564-129.91453 396.92308-136.410256 354.18803 7.179488 282.73504-44.102563 364.10256 144.615386 101.88034 241.7094 94.0171 115.21367 93.33334 272.82051-3.76069 172.99145 60.17098 128.54701-475.89744 134.35898-531.965814-7.17948-469.059834 37.94871-472.820513-129.23077zm107.692303-170.25641 72.82052-168.20513c13.58658-29.878655 9.25188-25.467978 41.02564-25.641028l509.12314-.05487c27.56146.101297 23.51799-1.688297 34.87179 24.615388l72.41532 167.23435zm-52.079768 318.78443 136.182338-.3039c-.41785 170.97816 13.75119 161.4435-60.51282 162.54511-88.433049-.34188-74.453943 8.585-75.669518-162.24121zm701.310538 1.21557h136.41026c-.91168 171.24406 11.54796 159.54416-65.64103 160-79.81007-1.06363-69.66762 11.54796-70.76923-160z" fill-rule="evenodd"/><g fill="#fff"><circle cx="150" cy="412" r="66.5"/><circle cx="850" cy="412" r="66.5"/></g></g></svg>