<svg height="725" width="725" xmlns="http://www.w3.org/2000/svg"><circle cx="362.5" cy="362.5" fill="#fff" r="350" stroke="#000" stroke-width="2.5"/><circle cx="362.5" cy="362.5" fill="none" r="295" stroke="#c00" stroke-width="83.75"/><g transform="matrix(.6935644 0 0 .6935644 127.67273 265.36674)"><path d="m31.761217 26.619391-.455001-20.9053609c.447965-1.4046653.688089-3.0171716 2.603015-2.9548762l594.804019-.38164c26.98306 5.3702467 32.3312 75.5754081 46.28675 114.7653461v85c-6.79808 15.9756-14.13944 17.28258-21.42857 20l-88.57143-.71429c0-77.22798-117.14286-76.79773-117.14286 0h-237.85714c0-76.94563-114.285714-76.96669-114.285714 0h-82.142857c-3.8933594-1.14185-6.5468544-4.76343-8.9285719-8.92857l.9541001-76.21325 34.7795258-100.381645c1.211339-6.667946-5.740583-6.193038-8.615266-9.285714z" fill-rule="evenodd"/><path d="m566.16677 231.14012c.01027 23.85361-19.32403 43.19622-43.17763 43.19622-23.85361 0-43.18791-19.34261-43.17764-43.19622-.01027-23.85361 19.32403-43.19622 43.17764-43.19622 23.8536 0 43.1879 19.34261 43.17763 43.19622z" transform="matrix(1.08125 0 0 1.08125 -58.9543 -28.2252)"/><path d="m566.16677 231.14012c.01027 23.85361-19.32403 43.19622-43.17763 43.19622-23.85361 0-43.18791-19.34261-43.17764-43.19622-.01027-23.85361 19.32403-43.19622 43.17764-43.19622 23.8536 0 43.1879 19.34261 43.17763 43.19622z" transform="matrix(1.08125 0 0 1.08125 -412.201 -27.9554)"/><g fill="#fff" fill-rule="evenodd"><path d="m531.61675 40.718007 20.52525 69.973163c1.20831 2.85368 2.39422 5.72479 5.7385 6.91716l71.15977-.17462c2.83855-2.4727 5.76469-4.78515 6.21075-9.88958l-20.16015-69.95729c-1.64733-5.519056-3.91787-7.091147-6.28615-8.044229l-72.52098.091276c-3.53544 2.110888-4.77695 6.056918-4.66699 11.08412z"/><path d="m429.39705 40.58628 20.52525 69.97316c1.20831 2.85368 2.39422 5.72479 5.7385 6.91716l71.15977-.17462c2.83855-2.4727 5.76469-4.78515 6.21075-9.88958l-20.16015-69.957287c-1.64733-5.519056-3.91787-7.091147-6.28615-8.044229l-72.52098.091276c-3.53544 2.110888-4.77695 6.056918-4.66699 11.08412z"/><path d="m327.98862 40.586273 20.52525 69.973167c1.20831 2.85368 2.39422 5.72479 5.7385 6.91716l71.15977-.17462c2.83855-2.4727 5.76469-4.78515 6.21075-9.88958l-20.16015-69.957294c-1.64733-5.519056-3.91787-7.091147-6.28615-8.044229l-72.52098.091276c-3.53544 2.110888-4.77695 6.056918-4.66699 11.08412z"/><path d="m227.1726 40.586276 20.52525 69.973164c1.20831 2.85368 2.39422 5.72479 5.7385 6.91716l71.15977-.17462c2.83855-2.4727 5.76469-4.78515 6.21075-9.88958l-20.16015-69.957291c-1.64733-5.519056-3.91787-7.091147-6.28615-8.044229l-72.52098.091276c-3.53544 2.110888-4.77695 6.056918-4.66699 11.08412z"/><path d="m142.51433 35.694816-.01201 75.267214c1.20831 2.85368 3.30699 5.54224 6.65127 6.73461l73.89807-.2659c2.83855-2.4727 5.76469-4.78515 6.21075-9.88958l-20.16015-69.957291c-1.64733-5.519056-3.91787-7.091147-6.28615-8.044229l-54.8133-.091277c-3.53544 2.110888-4.32056 2.132019-5.48848 6.246453z"/><path d="m124.8189 37.998446-.12986 72.813024c-1.20831 2.85368-2.39422 5.72479-5.7385 6.91716l-83.680988-.43279c-2.83855-2.4727-5.76469-4.78515-6.21075-9.88958l25.065371-69.699115c1.64733-5.519056 3.917867-7.091147 6.286147-8.044229l59.74159.22036c3.53544 2.110888 4.77695 3.087968 4.66699 8.11517z"/></g></g></svg>