<svg height="16" viewBox="0 0 16 16" width="16" xmlns="http://www.w3.org/2000/svg"><g transform="translate(0 -1036.3621)"><ellipse cx="-8.000001" cy="1044.3621" fill="#fff" rx="7.971532" ry="7.971532" stroke="#000" stroke-width=".05694" transform="scale(-1 1)"/><path d="m.52622891 1044.362a7.473766 7.4737665 0 0 0 14.94753109 0 7.473766 7.4737665 0 1 0 -14.94753109 0z" fill="#00f"/><g fill="#fff" fill-rule="evenodd"><path d="m12.799223 1045.9956-1.878989-1.9111.0086-1.1154 1.383089 1.3524c.04588-2.1633-1.816878-3.9802-3.5664449-4.2139l.1550028-.936c3.0719141.608 4.3090051 3.0094 4.3681121 5.1419l1.396234-1.3574.0064 1.1599-1.871985 1.8796z"/><path d="m4.1803759 1047.7035 2.5971756-.6612.9593787.569-1.8648633.514c1.8459758 1.1289 4.3536891.4343 5.4365021-.9596l.730683.6052c-2.0720632 2.348-4.7698084 2.2077-6.6420311 1.185l.469823 1.8898-1.005388-.5785z"/><path d="m7.0192855 1039.4097-.7321898 2.5782-.9738458.5439.491799-1.8708c-1.903114 1.0296-2.561547 3.5471-1.899717 5.1833l-.890273.3281c-.990166-2.9708.485704-5.2334 2.310139-6.3391l-1.870232-.5425 1.005139-.5791z"/></g></g></svg>