<svg height="16" viewBox="0 0 16 16" width="16" xmlns="http://www.w3.org/2000/svg"><g transform="translate(0 -1036.3621)"><ellipse cx="8.000001" cy="1044.3621" fill="#fff" rx="7.971532" ry="7.971532" stroke="#000" stroke-width=".05694"/><path d="m15.473773 1044.362a7.473766 7.4737665 0 0 1 -14.94753137 0 7.473766 7.4737665 0 1 1 14.94753137 0z" fill="#00f"/><g fill="#fff" fill-rule="evenodd"><path d="m3.2007794 1045.9956 1.8789881-1.9111-.00863-1.1154-1.3830885 1.3524c-.045876-2.1633 1.8168783-3.9802 3.5664448-4.2139l-.1550028-.936c-3.0719145.608-4.3090049 3.0094-4.3681119 5.1419l-1.3962344-1.3574-.00637 1.1599 1.8719852 1.8796z"/><path d="m11.819626 1047.7035-2.5971756-.6612-.9593787.569 1.8648633.514c-1.8459758 1.1289-4.3536894.4343-5.4365024-.9596l-.7306829.6052c2.0720634 2.348 4.7698086 2.2077 6.6420313 1.185l-.469823 1.8898 1.005388-.5785z"/><path d="m8.9807164 1039.4097.7321898 2.5782.9738458.5439-.491799-1.8708c1.903114 1.0296 2.561547 3.5471 1.899717 5.1833l.890273.3281c.990166-2.9708-.485704-5.2334-2.310139-6.3391l1.870232-.5425-1.005139-.5791z"/></g></g></svg>