<svg height="16" viewBox="0 0 16 16" width="16" xmlns="http://www.w3.org/2000/svg"><g transform="translate(0 -1036.3621)"><path d="m.33858979 1048.0149c-.18351447-.1836-.33859027-.5567-.33859027-.8148v-5.676c0-.258.1550758-.6312.33859027-.8148l4.00839351-4.0088c.1832714-.1834.5585646-.3384.819617-.3384h5.6619687c.260809 0 .636346.155.819617.3384l4.008393 4.0088c.183514.1836.33859.5568.33859.8146v5.6762c0 .2581-.155076.631-.33859.8148l-4.008393 4.009c-.183514.1832-.558808.3382-.81986.3382l-5.6617257-.0002c-.2610524 0-.6363456-.1548-.819617-.338l-4.00839351-4.009z" fill="#fff"/><path d="m.97021708 1047.2613v-5.8244l4.11760982-4.1183h5.8234081l4.117849 4.1183v5.8242l-4.117849 4.1184h-5.8234081l-4.11760982-4.1182" fill="#c00"/><g fill="#fff"><path d="m8.0274364 1042.7657c0-.9769.7505385-1.4651 1.4585192-1.4651.7079814 0 1.4587824.4882 1.4587824 1.4651v3.1656c0 .9766-.750801 1.4647-1.4587824 1.4647-.7079807 0-1.4585192-.4881-1.4585192-1.4647zm.8700677 3.1656c0 .4126.2729469.606.5884515.606.3157674 0 .5887144-.1934.5887144-.606v-3.1656c0-.4126-.272947-.6063-.5887144-.6063-.3155046 0-.5884515.1937-.5884515.6063z"/><path d="m11.911315 1041.3383h1.305101c.477854 0 .827509.1092 1.125939.4212.298691.3114.392475.6902.392475 1.4058 0 .5222-.04256.9922-.247464 1.3204-.238796.3874-.622602.6232-1.262281.6232h-.443704v2.224h-.870066zm.870066 2.9622h.417958c.707982 0 .716652-.5289.716652-1.1266 0-.5644 0-1.0273-.682499-1.0273h-.452111z"/><path d="m6.0177719 1042.1604h-.9181421v-.8084h2.7063516v.8084h-.918142v5.1863h-.8700675z"/><path d="m3.4437736 1044.6913c-.7079806 0-1.4241051-.486-1.4241051-1.4629v-.488c0-.9765.750801-1.4647 1.4587817-1.4647s1.4585191.4882 1.4585191 1.4647h-.8700677c0-.4122-.2729468-.606-.5884514-.606-.3157672 0-.5887141.1938-.5887141.606v.488c0 .4125.2382703.6033.5540375.6033l.052015.011c.7079808 0 1.4325117.4822 1.4325117 1.4588v.6627c0 .9767-.7505383 1.4651-1.4585189 1.4651-.7079808 0-1.458782-.4884-1.458782-1.4651h.8700677c0 .4126.272947.606.5887143.606.3155046 0 .5884514-.1934.5884514-.606v-.6627c0-.4123-.2729468-.6061-.5884514-.6061l-.026007.0006"/></g></g></svg>