<svg height="16" viewBox="0 0 16 16" width="16" xmlns="http://www.w3.org/2000/svg"><g fill-rule="evenodd"><path d="m0 0h16v16h-16z" fill="#808080"/><path d="m4 9h1v2h-1z" fill="#fff"/><path d="m4 13h1v2.000017h-1z" fill="#fff"/><path d="m11 9h1v2h-1z" fill="#fff"/><path d="m11 13h1v2.000017h-1z" fill="#fff"/><path d="m0 7h1v6.000032h-1z" fill="#1a1a1a"/><path d="m4 1h1v2h-1z" fill="#fff"/><path d="m4 5h1v2.000017h-1z" fill="#fff"/><path d="m11 1h1v2h-1z" fill="#fff"/><path d="m11 5h1v2.000017h-1z" fill="#fff"/><g fill="#1a1a1a"><path d="m0 6h16v1h-16z"/><path d="m15 7h1v6.000032h-1z"/><path d="m2 7h2v2h-2z"/><path d="m7 7h2v2h-2z"/><path d="m12 7h2v2h-2z"/></g></g></svg>