<svg height="16" viewBox="0 0 16 16" width="16" xmlns="http://www.w3.org/2000/svg"><g transform="translate(0 -1036.3621)"><rect fill="#fff" height="16" ry="2.000039" width="16" y="1036.3621"/><path d="m.9999997 1041.8565 7.0000013-4 7.000001 4" fill="none" stroke="#006400" stroke-linecap="round" stroke-linejoin="round"/><g fill="#3771c8" fill-rule="evenodd"><path d="m7.9999984 1044.669c.897468 0 .8974694-.6038 1.7949372-.6038 1.7949364 0 2.6924044.9182 2.6924044 2.7547 0 3.6728-2.320796 5.5092-3.2182646 5.5092-.8974676 0-.3716088-.4632-1.2690767-.4632s-.4627556.4632-1.3602235.4632c-.897468 0-3.1271158-1.8364-3.1271136-5.5092.0000012-1.8365.8974658-2.7547 2.692402-2.7547.8974681 0 .8974669.6038 1.7949348.6038z"/><path d="m7.5872564 1044.0956s-.071797-2.8153 2.6206066-3.7335c-.0718 2.6939-2.6206066 3.7335-2.6206066 3.7335"/></g></g></svg>