<svg height="16" viewBox="0 0 16 16" width="16" xmlns="http://www.w3.org/2000/svg"><g transform="translate(0 -1036.3621)"><rect fill="#fff" height="16" ry="2.000039" width="16" y="1036.3621"/><path d="m10.531465 1045.7896c-.5714731 0-1.0311731.5365-1.0311731 1.2025v.6846c-.0003916.013-.0003916.026 0 .039v.1148 3.9584c-.0091.7514.9628121.7514.9536851 0v-3.9584h.491463v4.5316h3.059323v-4.5316h.54149v3.9584c-.0092.7514.962855.7514.953685 0v-4.0735-.7235c0-.6658-.460553-1.2024-1.032025-1.2024h-3.936448z" fill="#3771c8"/><path d="m1.5627162 1045.7896c-.57147308 0-1.03117258.5365-1.03117258 1.2025v.6846c-.000392.013-.000392.026 0 .039v.1148 3.9584c-.0091.7514.96281148.7514.95368448 0v-3.9584h.4914631v4.5316h3.059323v-4.5316h.54149v3.9584c-.0092.7514.962855.7514.953685 0v-4.0735-.7235c0-.6658-.460553-1.2024-1.032025-1.2024h-3.936448z" fill="#3771c8"/><path d="m.9999996 1041.8539 7.0000014-4 7.000001 4" fill="none" stroke="#006400" stroke-linecap="round" stroke-linejoin="round"/><g fill="#3771c8"><ellipse cx="3.531251" cy="1044.0005" rx="1.323227" ry="1.323244"/><ellipse cx="12.5" cy="1044.0005" rx="1.323227" ry="1.323244"/></g></g></svg>