<svg height="16" viewBox="0 0 16 16" width="16" xmlns="http://www.w3.org/2000/svg"><g transform="translate(0 -1036.3621)"><rect fill="#fff" height="16.000004" ry="2.00004" width="16.000004" y="1036.3621"/><path d="m.99999993 1041.8539 7.00000297-4 7.0000021 4" fill="none" stroke="#006400" stroke-linecap="round" stroke-linejoin="round"/><g fill="#3771c8"><path d="m2.3191549 1045.7896c-.571473 0-1.031173.5365-1.031173 1.2025v.6846c-.000392.013-.000392.026 0 .039v.1148 3.9584c-.0091.7514.962812.7514.953685 0v-3.9584h.491463v4.5316h3.059324v-4.5316h.541491v3.9584c-.0092.7514.962855.7514.953685 0v-4.0735-.7235c0-.6658-.460553-1.2024-1.032026-1.2024h-3.936449z"/><ellipse cx="4.28769" cy="1044.0004" rx="1.323227" ry="1.323244"/><path d="m11.692867 1045.876c-.571473 0-.626766.1653-.945235.4837l-2.5653285 3.0191c-.4785.5705.3208816 1.1982.8152486.5988l1.8547409-2.0629v4.5316h2.573188v-6.5703z"/><ellipse cx="12.102254" cy="1044.269" rx="1.323227" ry="1.323244"/><path d="m10.325657 1040.7157v2.4962h3.387938v-1l-1.981068-.017z" fill-rule="evenodd"/></g></g></svg>