<svg height="16" viewBox="0 0 16 16" width="16" xmlns="http://www.w3.org/2000/svg"><g transform="translate(0 -1036.3621)"><rect fill="#fff" height="16" ry="2.000039" width="16" y="1036.3621"/><path d="m6.0314662 1040.5085c-.571473 0-1.031173.5365-1.031173 1.2025v.6846c-.000392.013-.000392.026 0 .039v.1148 3.9584c-.0091.7514.962812.7514.953685 0v-3.9584h.491463v4.5316h3.059322v-4.5316h.5414898v3.9584c-.0092.7514.962855.7514.953685 0v-4.0735-.7235c0-.6658-.460553-1.2024-1.0320248-1.2024h-3.936447z" fill="#3771c8"/><path clip-rule="evenodd" d="m11.97686 1049.6284c-4.022971.9453-7.3800062-1.5272-7.9768598-4.5436 3.5301755-.4888 5.1686099 3.3454 7.9768598 4.5436z" fill="#fff" fill-rule="evenodd"/><ellipse cx="8.000001" cy="1038.6854" fill="#3771c8" rx="1.323226" ry="1.323243"/><g clip-rule="evenodd" fill="#008000" fill-rule="evenodd"><path d="m7.4293712 1049.3137c-2.8678269.5504-4.1366914-2.7034-6.1092282-3.8915 2.8903702-.5473 4.0231699 2.7961 6.1092282 3.8915z"/><path d="m10.085452 1049.3137c-2.8130786.7556-4.0135081-2.3039-5.5778506-3.632 2.4684889-.3908 3.6141705 2.6742 5.5778506 3.632z"/><path d="m16.000003 1047.6442v4.7179c-4.267926-.5583-7.0105355.5619-9.985443-.5853-2.5852309-.9971-3.7992879-2.4057-5.5754397-4.1298-.67010537-.6505-.47054745-1.0383-.0812025-1.2438 1.0797932-.5699 3.1328208 2.9899 5.7430103 3.6889 2.9950355.8029 4.3147829-.6661 8.2888399-.089-.309083-2.6632-4.025586-.026-4.025586-2.0598 0-1.5727 4.851385-.7379 5.635821-.2991z"/></g></g></svg>