<svg height="16" viewBox="0 0 16 16" width="16" xmlns="http://www.w3.org/2000/svg"><g transform="translate(0 -1036.3621)"><rect fill="#fff" height="16" ry="2.000039" width="16" y="1036.3621"/><path d="m.9999996 1041.8539 7.0000014-4 7.000001 4" fill="none" stroke="#006400" stroke-linecap="round" stroke-linejoin="round"/><g fill="#3771c8"><path d="m6.0314654 1045.7896c-.5714732 0-1.0311733.5365-1.0311733 1.2025v.6846c-.0003916.013-.0003916.026 0 .039v.1148 3.9584c-.0091.7514.9628123.7514.9536853 0v-3.9584h.4914631v4.5316h3.0593235v-4.5316h.54149v3.9584c-.0092.7514.962855.7514.953685 0v-4.0735-.7235c0-.6658-.460553-1.2024-1.032025-1.2024h-3.9364486z"/><ellipse cx="8.000001" cy="1044.0004" rx="1.323227" ry="1.323244"/></g></g></svg>