<svg height="102" width="102" xmlns="http://www.w3.org/2000/svg"><g stroke-linecap="round" transform="translate(-1.4375 -1.4375)"><path d="m22.429134 2.4448819h60.023622c11.055118 0 19.984254 8.9291341 19.984254 19.9842521v60.023622c0 11.055118-8.929136 19.984254-19.984254 19.984254h-60.023622c-11.055118 0-19.9842521-8.929136-19.9842521-19.984254v-60.023622c0-11.055118 8.9291341-19.9842521 19.9842521-19.9842521z" fill="#a8fa8b" fill-rule="evenodd" stroke="#000" stroke-width="1.984252"/><path d="m98.43307 63.248031c-1.842519 8.610236-19.594488-.566929-30.401574 1.984252-9.070866 2.161418-1.665355 25.830709-13.287402 22.606299-13.783464-3.791338-14.952756-21.57874-22.181102-29.834645-6.129921-7.051181-19.38189-8.255906-22.5708661-16.015748-3.5787401-8.716536 2.4094491-17.610236 12.2244091-17.397638 16.334646.318898 19.346457 15.69685 32.456693 16.61811 37.133858 2.586614 47.125982 6.200788 43.759842 22.03937z" fill="#fae675" stroke="#037200" stroke-width="1.594488"/></g></svg>