<svg height="16.000002" width="16" xmlns="http://www.w3.org/2000/svg"><g transform="translate(-1.45276 -87.42913)"><path d="m4.7439303 87.584796h9.4176517c1.734537 0 3.13551 1.400973 3.13551 3.135511v9.417653c0 1.73454-1.400973 3.13551-3.13551 3.13551h-9.4176517c-1.7345378 0-3.1355107-1.40097-3.1355107-3.13551v-9.417653c0-1.734538 1.4009729-3.135511 3.1355107-3.135511z" fill="#2c9e06" fill-rule="evenodd" stroke="#000" stroke-linecap="round" stroke-width=".311327"/><path d="m6.1875 101.40625c-2.0310146-3.586912-2.9025066-7.40966 0-12" fill="none" stroke="#000" stroke-width="2.5"/><g fill="#fff"><path d="m12 89c0 .552285-.447715 1-1 1s-1-.447715-1-1 .447715-1 1-1 1 .447715 1 1z" transform="translate(1.4375 1.4375)"/><path d="m12 89c0 .552285-.447715 1-1 1s-1-.447715-1-1 .447715-1 1-1 1 .447715 1 1z" transform="translate(-1.5625 3.4375)"/><path d="m12 89c0 .552285-.447715 1-1 1s-1-.447715-1-1 .447715-1 1-1 1 .447715 1 1z" transform="translate(2.4375 5.4375)"/><path d="m12 89c0 .552285-.447715 1-1 1s-1-.447715-1-1 .447715-1 1-1 1 .447715 1 1z" transform="translate(-1.5625 7.4375)"/><path d="m12 89c0 .552285-.447715 1-1 1s-1-.447715-1-1 .447715-1 1-1 1 .447715 1 1z" transform="translate(3.4375 11.4375)"/><path d="m12 89c0 .552285-.447715 1-1 1s-1-.447715-1-1 .447715-1 1-1 1 .447715 1 1z" transform="translate(4.4375 8.4375)"/><path d="m12 89c0 .552285-.447715 1-1 1s-1-.447715-1-1 .447715-1 1-1 1 .447715 1 1z" transform="translate(4.4375 2.4375)"/></g></g></svg>