<svg height="104.88" width="104.88" xmlns="http://www.w3.org/2000/svg" xmlns:xlink="http://www.w3.org/1999/xlink"><filter id="a" color-interpolation-filters="sRGB" height="2.675385" width="1.458526" x="-.229263" y="-.837692"><feGaussianBlur stdDeviation="2.2917836"/></filter><filter id="b" color-interpolation-filters="sRGB"><feGaussianBlur stdDeviation=".6"/></filter><g transform="translate(-441.84125 -345.6225)"><g fill-rule="evenodd"><rect height="38.890873" opacity=".863866" rx="20" stroke="#000" stroke-linecap="round" stroke-width=".549" width="61.366768" x="449.42041" y="403.92032"/><rect fill="#2c9e06" filter="url(#b)" height="100" rx="20" stroke="#000" stroke-linecap="round" stroke-width="2" width="100" x="444.28571" y="348.07648"/><path d="m186.42856 207.71933c0 5.72009-13.75125 10.35714-30.71428 10.35714s-30.71429-4.63705-30.71429-10.35714 13.75126-10.35714 30.71429-10.35714 30.71428 4.63705 30.71428 10.35714z" fill="#fff" stroke="#000" stroke-width=".540682" transform="matrix(.88250467 0 0 .84551904 349.48243 252.12946)"/><path d="m78.034281 110.39494c0 1.81315-5.370596 3.283-11.995562 3.283s-11.995561-1.46985-11.995561-3.283 5.370595-3.28299 11.995561-3.28299 11.995562 1.46984 11.995562 3.28299z" filter="url(#a)" opacity=".527881" stroke="#000" stroke-linecap="round" stroke-width=".549" transform="matrix(1.9338771 0 0 1.5693135 358.46983 254.64499)"/><path d="m84.285715 189.50504c0 7.49529-6.076135 13.57142-13.571428 13.57142s-13.571428-6.07613-13.571428-13.57142c0-7.4953 6.076135-13.57143 13.571428-13.57143s13.571428 6.07613 13.571428 13.57143z" fill="#fff" stroke="#555" stroke-width="2" transform="matrix(.75728873 0 0 .75728873 471.07502 266.88949)"/></g><g fill="#fff" stroke="#fff" stroke-width="3" transform="matrix(1.0720344 0 0 1.0720344 413.11861 307.28044)"><path d="m58.230403 46.766947c-.931851 0-1.65788 1.006862-1.65788 2.257538v61.553155c0 1.25068.726029 2.25754 1.65788 2.25754.93185 0 1.693153-1.00686 1.693153-2.25754v-41.411684l31.111694-12.098992-31.217516-8.783233c-.227923-.883475-.849617-1.516784-1.587331-1.516784z"/><path d="m57.802599 46.423856c-.931851 0-1.657879 1.006862-1.657879 2.257538v61.553186c0 1.25067.726028 2.25753 1.657879 2.25753s1.693154-1.00686 1.693154-2.25753v-41.411715l31.111694-12.098992-31.217517-8.783234c-.227923-.883475-.849616-1.516783-1.587331-1.516783z"/></g></g></svg>