<svg height="102" width="102" xmlns="http://www.w3.org/2000/svg"><g transform="translate(-1.4375 -1.4375)"><path d="m22.429134 2.4448819h60.023622c11.055118 0 19.984254 8.9291341 19.984254 19.9842521v60.023622c0 11.055118-8.929136 19.984254-19.984254 19.984254h-60.023622c-11.055118 0-19.9842521-8.929136-19.9842521-19.984254v-60.023622c0-11.055118 8.9291341-19.9842521 19.9842521-19.9842521z" fill="#a8fa8b" fill-rule="evenodd" stroke="#000" stroke-linecap="round" stroke-width="1.984252"/><path d="m88.937008 67.429134c-3.330709 8.149606-14.208662 27.035433-25.299213 27.637795-9.318898.496063-41.77559-22.996063-48.259842-33.165354-15.59055142-24.519685 9.779527-47.055118 21.011811-45.92126 26.53937 2.728346 58.677165 36.496063 52.547244 51.448819z" fill="#2c9e06" stroke="#037200" stroke-linecap="round" stroke-width="1.417323"/><g stroke="#000" stroke-width=".673228"><path d="m59.988189 10.771654c-.673229 0-1.240158.744094-1.240158 1.665354v45.389763c0 .92126.566929 1.665355 1.240158 1.665355.673228 0 1.240157-.744095 1.240157-1.665355v-30.543307l22.925197-8.8937-22.996063-6.484252c-.177165-.637796-.637795-1.133858-1.169291-1.133858z"/><path d="m59.669291 10.523622c-.673228 0-1.204724.744094-1.204724 1.665354v45.389764c0 .92126.531496 1.665354 1.204724 1.665354s1.240158-.744094 1.240158-1.665354v-30.543307l22.925196-8.929134-22.996063-6.448819c-.177165-.673228-.637795-1.133858-1.169291-1.133858z"/></g></g></svg>