<svg height="102" width="102" xmlns="http://www.w3.org/2000/svg"><g transform="translate(-1.4375 -1.4375)"><path d="m22.429134 2.4448819h60.023622c11.055118 0 19.984254 8.9291341 19.984254 19.9842521v60.023622c0 11.055118-8.929136 19.984254-19.984254 19.984254h-60.023622c-11.055118 0-19.9842521-8.929136-19.9842521-19.984254v-60.023622c0-11.055118 8.9291341-19.9842521 19.9842521-19.9842521z" fill="#a8fa8b" fill-rule="evenodd" stroke="#000" stroke-linecap="round" stroke-width="1.984252"/><path d="m19.73622 58.96063c0 3.259842-2.65748 5.917322-5.917322 5.917322-3.259843 0-5.9173232-2.65748-5.9173232-5.917322 0-3.259843 2.6574802-5.88189 5.9173232-5.88189 3.259842 0 5.917322 2.622047 5.917322 5.88189z" fill="#fff" fill-rule="evenodd" stroke="#555" stroke-width=".850394"/><path d="m11.480315 67.818897h4.854331v16.547244l-2.515748 3.862205-2.338583-3.862205z" fill="#c5ad09" fill-rule="evenodd"/><g stroke="#000"><path d="m9.7440944 64.594488c1.8779526 2.161417 1.3110236 1.523622 1.6653546 3.330709v16.511811l2.338582 3.897637 2.515748-3.897637v-16.511811c.354331-1.700788-.106299-1.133859 1.629922-3.330709z" fill="none" stroke-width=".354331"/><path d="m79.334645 9.6377952c-.46063 0-.850393.4960628-.850393 1.1338588v31.641732c0 .637795.389763 1.133858.850393 1.133858.496063 0 .885827-.496063.885827-1.133858v-21.295276l15.980315-6.200787-16.051181-4.5c-.106299-.4606301-.425197-.7795278-.814961-.7795278z" stroke-width=".46063"/><path d="m79.122047 9.4606299c-.46063 0-.850394.496063-.850394 1.1338581v31.641732c0 .637796.389764 1.133859.850394 1.133859.496063 0 .885827-.496063.885827-1.133859v-21.295275l15.980315-6.200788-16.051181-4.5c-.1063-.4606295-.425197-.7795271-.814961-.7795271z" stroke-width=".46063"/><path d="m16.476378 87.944882s27.956693-1.240158 32.88189-9.56693c3.649606-6.200787-18.212599-31.03937-13.464567-36.389763 7.122047-8.007874 45.850393 5.633858 45.850393 5.633858" fill="none" stroke-dasharray="9.992126 9.992126" stroke-width="4.996063"/></g><path d="m91.240157 74.232283c-.708661 3.295276-7.511811-.212598-11.65748.779528-3.472441.81496-.637795 9.885826-5.102362 8.681102-5.279528-1.488189-5.740158-8.291338-8.503937-11.444882-2.338583-2.728346-7.405512-3.153543-8.64567-6.165354-1.381889-3.330709.92126-6.732284 4.677166-6.661417 6.271653.141732 7.405512 6.023622 12.437008 6.377952 14.244094.992126 18.070866 2.374016 16.795275 8.433071z" fill="#fae675" stroke="#037200" stroke-linecap="round" stroke-width=".602362"/></g></svg>