<svg height="102" width="102" xmlns="http://www.w3.org/2000/svg"><g stroke-linecap="round" transform="translate(-1.4375 -1.4375)"><path d="m22.429134 2.4448819h60.023622c11.055118 0 19.984254 8.9291341 19.984254 19.9842521v60.023622c0 11.055118-8.929136 19.984254-19.984254 19.984254h-60.023622c-11.055118 0-19.9842521-8.929136-19.9842521-19.984254v-60.023622c0-11.055118 8.9291341-19.9842521 19.9842521-19.9842521z" fill="#f74c42" fill-rule="evenodd" stroke="#000" stroke-width="1.984252"/><path d="m82.488189 8.1850393c14.917322 1.3464567 7.405511 44.6456687 6.129921 57.9330707-.956693 10.629921-4.464567 20.763779-10.84252 26.255905-7.122047 6.129922-18.602362 8.858265-21.507874-.496063-4.818897-15.625984 10.169292-33.059055 10.169292-46.204724 0-11.65748-.03543-38.9409446 16.051181-37.4881887z" fill="#4c49f8" stroke="#037200" stroke-width="1.594488"/></g></svg>