<svg height="104.88" width="104.88" xmlns="http://www.w3.org/2000/svg" xmlns:xlink="http://www.w3.org/1999/xlink"><filter id="a" color-interpolation-filters="sRGB"><feGaussianBlur stdDeviation=".6"/></filter><g stroke="#000" stroke-linecap="round" transform="translate(-277.27432 -131.38222)"><rect fill="#2c9e06" fill-rule="evenodd" filter="url(#a)" height="100" rx="20" stroke-width="2" width="100" x="279.71432" y="133.82222"/><path d="m290.92394 97.768028c0 6.136812-12.55023 11.111682-28.03173 11.111682s-28.03173-4.97487-28.03173-11.111682c0-6.13681 12.55023-11.111678 28.03173-11.111678s28.03173 4.974868 28.03173 11.111678z" fill="#503700" transform="matrix(1.4514077 0 0 1.4514077 -50.247753 42.529045)"/><path d="m364.793 193.48732c-2.88887 2.80067-13.81594 7.22002-33.72239 7.22002s-29.72875-4.76668-34.07952-7.7288c10.17698-9.78482 20.35376-13.26892 35.07698-12.98505 16.51439.3184 25.99414 1.7677 32.72493 13.49383z" fill="#fff" stroke-width="1.152521"/></g></svg>