<svg height="102" width="102" xmlns="http://www.w3.org/2000/svg"><g fill-rule="evenodd" transform="translate(-1.4375 -1.4375)"><path d="m22.429134 2.4448819h60.023622c11.055118 0 19.984254 8.9291341 19.984254 19.9842521v60.023622c0 11.055118-8.929136 19.984254-19.984254 19.984254h-60.023622c-11.055118 0-19.9842521-8.929136-19.9842521-19.984254v-60.023622c0-11.055118 8.9291341-19.9842521 19.9842521-19.9842521z" fill="#a8fa8b" stroke="#000" stroke-linecap="round" stroke-width="1.984252"/><path d="m50.066929 91.594488h-3.401575v-54.248031l1.771654-12.68504 1.629921 12.68504z" fill="#1f6d04"/><path d="m47.303149 91.417322-3.401574.212599-3.543307-54.141732.956692-12.755906 2.444882 12.543307z" fill="#1f6d04"/><path d="m57.188976 91.346456-3.401575-.177165 2.480315-54.177165 2.374016-12.57874 1.062992 12.755905z" fill="#1f6d04"/><path d="m54.602362 90.708661h-3.401575v-54.248031l1.771654-12.68504 1.629921 12.68504z" fill="#1f6d04"/><path d="m42.271653 91.098425-3.401574.212598-3.543307-54.106299.956692-12.791338 2.444882 12.543307z" fill="#1f6d04"/><path d="m61.405512 90.921259-3.401575-.177165 2.515748-54.177165 2.338582-12.57874 1.062993 12.720472z" fill="#1f6d04"/><path d="m64.169291 90.885826-3.401575-.35433 5.350394-53.964567 3.011811-12.437008.354331 12.791339z" fill="#1f6d04"/><path d="m64.842519 73.842519c0 7.759843-6.271653 14.031496-14.031496 14.031496-7.759842 0-14.031496-6.271653-14.031496-14.031496 0-7.759842 6.271654-14.031496 14.031496-14.031496 7.759843 0 14.031496 6.271654 14.031496 14.031496z" fill="#fff" stroke="#555" stroke-width="2.055118"/><g fill="#1f6d04"><path d="m75.082677 91.098425h-3.437008l.03543-54.248031 1.736221-12.68504 1.665354 12.68504z"/><path d="m72.318897 90.921259-3.401574.212599-3.543308-54.141732.92126-12.755906 2.480315 12.543307z"/><path d="m82.204724 90.850393-3.437008-.177165 2.515748-54.177165 2.338583-12.57874 1.062992 12.720472z"/><path d="m79.582677 90.212598h-3.401575v-54.248031l1.771654-12.68504 1.629921 12.68504z"/><path d="m67.287401 90.602362-3.401574.212598-3.543308-54.141732.92126-12.755905 2.480315 12.543307z"/><path d="m86.421259 90.389763-3.401574-.141732 2.480315-54.177165 2.374015-12.57874 1.027559 12.720472z"/><path d="m89.149606 90.389763-3.401575-.35433 5.350394-53.964567 3.011811-12.437008.389764 12.755906z"/><path d="m24.094488 90.602362h-3.437008v-54.248031l1.771654-12.68504 1.665354 12.68504z"/><path d="m21.295276 90.425196-3.401575.212599-3.543307-54.141732.956693-12.755906 2.444881 12.543307z"/><path d="m31.181102 90.35433-3.401575-.177165 2.515748-54.177165 2.338583-12.57874 1.062992 12.720472z"/><path d="m28.594488 89.716535h-3.401575v-54.248031l1.771654-12.68504 1.629921 12.68504z"/><path d="m16.263779 90.106299-3.401574.212598-3.5433074-54.141732.9566934-12.755905 2.444881 12.543307z"/><path d="m35.433071 89.8937-3.437008-.141732 2.515748-54.177165 2.338583-12.57874 1.062992 12.720472z"/><path d="m38.161417 89.8937-3.401575-.35433 5.350394-53.964567 3.011811-12.437008.389764 12.755906z"/></g></g></svg>