<svg height="104.88" width="104.88" xmlns="http://www.w3.org/2000/svg" xmlns:xlink="http://www.w3.org/1999/xlink"><linearGradient id="a" gradientUnits="userSpaceOnUse" x1="188.91191650036" x2="189.04663296026" y1="882.28441027845" y2="893.4696205427"><stop offset="0" stop-color="#594f03"/><stop offset="1" stop-color="#c5ad09"/></linearGradient><filter id="b" color-interpolation-filters="sRGB"><feGaussianBlur stdDeviation=".6"/></filter><g transform="translate(-512.8725 -65.435)"><rect height="100" rx="20" style="fill:#a8fa8b;fill-rule:evenodd;stroke:#000;stroke-width:2;stroke-linecap:round;filter:url(#b)" width="100" x="515.30804" y="67.888557"/><path d="m84.285715 189.50504c0 7.49529-6.076135 13.57142-13.571428 13.57142s-13.571428-6.07613-13.571428-13.57142c0-7.4953 6.076135-13.57143 13.571428-13.57143s13.571428 6.07613 13.571428 13.57143z" fill="#fff" fill-rule="evenodd" stroke="#555" stroke-width="2" transform="matrix(1.0345505 0 0 1.0345505 492.44413 -104.28)"/><g transform="matrix(.84666716952 0 0 .84666716952 417.01360662161 -541.2637650801)"><g fill-rule="evenodd" transform="translate(39.648487 -23.233509)"><path d="m129.29953 795.78345h13.63706v46.46702l-7.07107 10.85914-6.56599-10.85914z" fill="#c5ad09"/><path d="m124.625 786.4375c5.37116 6.14247 3.70118 4.28544 4.6875 9.40625h13.625c1.01613-4.79547-.26824-3.18928 4.65625-9.40625z" fill="url(#a)"/></g><path d="m164.01319 763.44177c5.35831 6.12778 3.71616 4.29966 4.6875 9.375.002.0122-.002.019 0 .0312v46.40625l6.5625 10.875 7.0625-10.875v-46.40625-.0312c1.00219-4.75171-.25595-3.17355 4.65625-9.375z" fill="none" stroke="#000"/></g></g></svg>