<svg height="102" width="102" xmlns="http://www.w3.org/2000/svg"><g stroke-linecap="round" transform="translate(-1.4375 -1.4375)"><path d="m22.429134 2.4448819h60.023622c11.055118 0 19.984254 8.9291341 19.984254 19.9842521v60.023622c0 11.055118-8.929136 19.984254-19.984254 19.984254h-60.023622c-11.055118 0-19.9842521-8.929136-19.9842521-19.984254v-60.023622c0-11.055118 8.9291341-19.9842521 19.9842521-19.9842521z" fill="#f6ed31" fill-rule="evenodd" stroke="#000" stroke-width="1.984252"/><path d="m93.437007 75.755905c-5.952755 13.712599-44.716535-7.015748-56.940944-12.401575-9.744095-4.251968-18.318898-10.73622-21.507874-18.531496-3.57874-8.681102-2.586614-20.444881 7.228346-20.232283 16.334646.318898 28.169292 19.984252 40.641732 24.129921 11.090552 3.649607 37.027559 12.188977 30.57874 27.035433z" fill="#4c49f8" stroke="#037200" stroke-width="1.594488"/></g></svg>