<svg height="94" width="94" xmlns="http://www.w3.org/2000/svg"><path d="m0 0h94v94h-94z" fill="#fff"/><g transform="translate(-164.42857 -802.50507)"><path d="m211.42857 805.48945-5.875 5.875c-6.27886.96027-12.06822 3.42601-16.96875 7.03125h-8.28125v8.34375c-3.58176 4.88793-6.04358 10.62131-7 16.875l-5.875 5.875 5.875 5.875c.95642 6.25369 3.41824 12.01833 7 16.90625v8.34375h8.3125c4.89565 3.59612 10.66841 6.07247 16.9375 7.03125l5.875 5.875 5.875-5.875c6.26909-.95878 12.04186-3.43513 16.9375-7.03125h8.3125v-8.28125c3.60291-4.89928 6.07136-10.69239 7.03125-16.96875v-.03125l5.84375-5.84375-5.84375-5.84375v-.03125c-.95989-6.27636-3.42834-12.03822-7.03125-16.9375v-8.28125h-8.28125c-4.90053-3.60524-10.68989-6.07098-16.96875-7.03125z"/><path d="m211.42857 814.73945-3.6875 3.6875c-5.85047.69051-11.21864 3.00538-15.625 6.46875h-5.28125v5.25c-3.46913 4.40373-5.77234 9.77457-6.46875 15.625l-3.71875 3.71875 3.71875 3.71875c.69193 5.86249 2.9935 11.21351 6.46875 15.625v5.25h5.25c4.41317 3.47863 9.79008 5.8079 15.65625 6.5l3.6875 3.6875 3.6875-3.6875c5.86992-.6907 11.24067-3.01946 15.65625-6.5h5.25v-5.25c3.47837-4.41284 5.77645-9.75935 6.46875-15.625l3.71875-3.71875-3.71875-3.71875c-.69678-5.85359-2.9965-11.21993-6.46875-15.625v-5.25h-5.28125c-4.4088-3.46529-9.77074-5.77965-15.625-6.46875z" fill="#fff"/><path d="m52.823528 44.588234a7.7647057 7.7647057 0 1 1 -15.529411 0 7.7647057 7.7647057 0 1 1 15.529411 0z" transform="matrix(3.5606061 0 0 3.5606061 50.995521 690.73749)"/><path d="m181.96166 849.49865h58.94117" fill="none" stroke="#fff" stroke-width="4"/><path d="m52.823528 44.588234a7.7647057 7.7647057 0 1 1 -15.529411 0 7.7647057 7.7647057 0 1 1 15.529411 0z" fill="#fff" transform="matrix(1.5454546 0 0 1.5454546 141.79588 780.58955)"/><g fill="none" stroke="#fff" stroke-width="4"><path d="m190.59339 828.6598 41.6777 41.67769"/><path d="m211.43224 878.96923v-58.94118"/><path d="m190.59339 870.33749 41.6777-41.6777"/></g><path d="m52.823528 44.588234a7.7647057 7.7647057 0 1 1 -15.529411 0 7.7647057 7.7647057 0 1 1 15.529411 0z" transform="translate(166.37342 804.9104)"/></g></svg>