<svg height="160" viewBox="0 0 116 160" width="116" xmlns="http://www.w3.org/2000/svg"><path d="m0 0h116v160h-116z" fill="#fff" stroke-width="1.004338"/><path d="m96.254502 147.0479c-14.458451-5.01433-22.955774-7.46486-29.706086-8.5669-2.642189-.43135-4.089362-.5164-8.688731-.51065-4.888026.006-5.907561.0764-8.923569.61514-7.076218 1.264-13.736762 3.15771-28.352526 8.06118-5.196752 1.74347-9.687893 3.13602-9.980303 3.09456-.454026-.0644-.542053-.2368-.602869-1.18085-.043347-.67309 3.288776-21.13317 8.519266-52.31016 4.724766-28.16258 8.617854-51.29568 8.6513-51.40689.06808-.22637 4.27022-2.02973 15.173954-6.51194 4.05969-1.66882 7.520504-3.14967 7.6907-3.29077.424374-.35181.43831-5.19981.01592-5.53576-.161447-.12841-1.056325-.28534-1.988615-.34873-2.778118-.18892-3.353788-.8374-3.353788-3.77796 0-2.63769.585931-3.1886 3.632353-3.41522l1.886162-.14032.03274-3.77972c.04645-5.36585.681025-7.2649 2.621757-7.84558.545977-.16336 2.494738-.23073 5.252684-.18158 4.302546.0767 4.396448.0891 5.013003.66458 1.418711 1.3241 1.612433 2.07765 1.748882 6.80266l.125317 4.33964 1.846219.14973c1.292624.10483 2.031972.28827 2.465727.61175.602558.44939.619497.5312.619497 2.99171 0 2.42594-.02403 2.54754-.587072 2.96478-.352365.26113-1.197329.49518-2.113481.58542-2.43262.23962-2.374096.15794-2.297172 3.20613l.06627 2.62666 6.340434 2.51673c3.487233 1.38419 8.511768 3.4162 11.16563 4.51556s4.946029 1.99884 5.093711 1.99884c.147671 0 .32996.0993.405073.22073.124566.20132 8.116235 46.7766 13.626931 79.41737 1.24155 7.35392 2.72735 16.09706 3.30177 19.42919.57443 3.33213 1.04441 6.26138 1.04441 6.50944 0 .34024-.15862.44637-.64578.43208-.35518-.0104-4.45004-1.3383-9.099694-2.95085zm2.491715-17.96599c.06687-.75457-.168264-2.00151-1.802731-9.55892-.962643-4.45105-1.92031-8.48095-2.128148-8.95531-.474539-1.08306-1.374062-1.9258-2.433571-2.27992-1.94799-.65107-7.289402-.74871-37.222636-.68043l-30.527994.0696-1.172432.58643c-2.204932 1.10289-2.411688 1.58019-4.174074 9.63589-2.234824 10.21511-2.337366 11.42544-.940629 11.10221.358162-.0829 5.142333-1.39798 10.631496-2.92244 14.084062-3.91144 17.239042-4.63273 22.509926-5.14626 3.165832-.30845 9.448342-.30202 12.127612.0124 4.872379.57178 11.83212 2.15907 19.490945 4.44524.904099.26987 2.54205.73778 3.639881 1.03979 3.357972.92378 9.504824 2.7459 9.608487 2.84826.252526.24936 2.369752.0755 2.393868-.1966zm-69.066219-29.87949c0-.0809-.32922-.81514-.73159-1.63158-.651412-1.32178-.721509-1.66242-.6397-3.10874.07508-1.32668.230613-1.84724.848999-2.84093.416415-.66913.757118-1.31516.757118-1.43561 0-.12511-1.401493-.21899-3.269416-.21899h-3.269425l-.244978.76238c-.417016 1.29777-1.44518 7.85269-1.293604 8.24725.123084.32042.689283.37336 3.993006.37336 2.117276 0 3.84959-.0662 3.84959-.14714zm17.116688-.57034c.347901-.57146.471066-1.42715.605132-4.20444.0926-1.91783.09871-3.70613.01361-3.97402-.148843-.46847-.31083-.48705-4.248456-.48705-2.2677 0-4.093717.0941-4.093717.21101 0 .11605.379445.77424.843212 1.46264.828827 1.23029.841771 1.28571.75853 3.24898-.07178 1.69233-.18258 2.14886-.725794 2.98961-.352615.54576-.641111 1.09994-.641111 1.23152 0 .15197 1.286056.23923 3.525906.23923h3.525916zm29.253641.49703c.07498-.12125-.209349-.71083-.631921-1.31016-.727585-1.03191-.76833-1.19962-.76833-3.16202 0-1.96884.03894-2.12748.779783-3.17711.459642-.65123.693378-1.19111.569322-1.31503-.115756-.11563-1.946088-.18114-4.067408-.14558l-3.856957.0647-.07678 1.64203c-.143327 3.06636.187925 6.3796.703259 7.03402.45746.58094.514172.58965 3.838467.58965 1.85578 0 3.435517-.0992 3.510539-.22045zm17.616976-.32686c.327698-.4996.298987-.87917-.32934-4.35318-.378594-2.09323-.814831-3.95811-.96942-4.14419-.40234-.48425-6.564009-.49849-6.564009-.0152 0 .17773.175262.46802.389466.64509.733592.60641 1.244041 2.13411 1.244041 3.72327s-.510449 3.11686-1.244041 3.72327c-.214204.17707-.389466.46736-.389466.64508 0 .26099.721649.32314 3.751883.32314 3.671355 0 3.759582-.0118 4.110886-.54731zm-61.40417-16.4059c0-.16413-.299668-.66553-.665918-1.11424-.881064-1.07939-1.212727-2.11603-1.212727-3.79053 0-1.62228.409849-2.71673 1.527681-4.0794 1.015511-1.23796.944072-1.27328-2.574876-1.27328-2.001749 0-2.720315.0815-2.928622.33225-.292831.35245-1.660126 7.71369-1.660126 8.93777 0 .39758.126809.84954.281798 1.00435.412972.41252 7.23279.39656 7.23279-.0169zm15.670697.005c.37541-.47989.844533-9.53536.514563-9.93251-.214475-.25818-1.07863-.33015-3.963675-.33015-2.029169 0-3.755807.0663-3.836976.1474-.08119.0811.205094.58249.636116 1.11424 1.413095 1.74333 1.610971 2.3481 1.503434 4.59493-.0911 1.90309-.148182 2.09031-.962252 3.15529-.475981.62271-.808094 1.22484-.738018 1.33809.209449.33854 6.577203.25734 6.846808-.0873zm26.364001.053c0-.13212-.369855-.77732-.821909-1.43377-.779973-1.13264-.821909-1.29452-.821909-3.17275 0-2.17575.183731-2.69634 1.512154-4.28462.459963-.54994.7772-1.09543.704951-1.2122-.07228-.11676-1.750114-.21229-3.728608-.21229-2.727623 0-3.660663.0763-3.85951.31565-.190729.22956-.199849 1.56435-.03344 4.89458.125818 2.51843.295033 4.75146.376021 4.9623.126499.32928.607334.38333 3.409769.38333 2.069653 0 3.262508-.0878 3.262508-.24023zm16.354585-.36488c.376912-.57462.364508-.79631-.246009-4.39828-.745415-4.39784-.96888-5.22533-1.462219-5.41444-.475841-.1824-5.838615-.17872-6.021665.004-.07829.0782.270355.66369.774747 1.3011 1.063703 1.34421 1.39964 2.36361 1.401462 4.2527.001 1.43324-.380596 2.61693-1.166595 3.61507-.929106 1.17988-.77658 1.24482 2.923727 1.24482 3.395123 0 3.400158-.0007 3.796552-.60511zm-55.968636-18.31132c.08289-.0828-.252746-.63694-.745746-1.23152-1.105579-1.33337-1.440074-2.27544-1.440074-4.05578 0-1.51454.363537-2.5917 1.279549-3.79135.3295-.43154.599095-.90659.599095-1.05568 0-.32415-4.162682-.37887-4.664461-.0613-.379144.23995-1.965219 8.98487-1.740193 9.59475.08109.21973.260765.47705.399347.57184.309508.2117 6.102944.23838 6.312483.0291zm14.306315-.17155c.437969-.4375.998081-9.46365.615823-9.92375-.344276-.41437-6.540572-.45135-6.540572-.039 0 .14909.248522.59771.552274.99695 1.053802 1.38504 1.32637 2.17084 1.32637 3.82388 0 2.09896-.271467 2.9595-1.288238 4.08372-.462656.51154-.778532 1.03137-.701948 1.15517.229581.37106 5.655004.28393 6.036291-.0969zm23.898755.0818c0-.13213-.366341-.77221-.81408-1.4224-.961362-1.39604-1.168578-2.30016-1.002076-4.37213.105275-1.3101.261656-1.72911 1.075646-2.88208.523853-.74202.88715-1.41435.807343-1.49407-.07979-.0797-1.488317-.14496-3.130023-.14496-2.337886 0-3.046922.0746-3.271017.34437-.349382.42052-.0892 9.45085.285733 9.91828.297895.37137 6.048474.42175 6.048474.053zm14.247351.0584c.151205-.0961.343135-.44622.426516-.77808.175101-.6969-1.203296-8.85884-1.570798-9.30116-.327198-.39382-4.414337-.41574-4.414337-.0237 0 .14909.248522.59771.552274.99695 1.124379 1.4778 1.32637 2.13382 1.32637 4.30775 0 2.05871-.01001 2.09352-.93256 3.32902-.51291.6867-.876538 1.33913-.808053 1.44981.152226.24604 5.036397.2635 5.420588.0194zm-27.641969-29.36959c.839798-.44896.948587-1.49136.948587-9.08913v-7.37215l-.68643-.68567c-.606684-.60602-.850701-.68568-2.100377-.68568-1.155864 0-1.534228.10329-2.072837.56586l-.658881.56585-.06887 7.46833c-.03794 4.10758-.009 7.70851.06467 8.00208.271737 1.08571.939167 1.46013 2.602806 1.46013.848008 0 1.735118-.10333 1.971356-.22962z" stroke-width=".234703"/></svg>