<svg enable-background="new -0.999 -0.762 242 201" height="201" viewBox="0 0 242 201" width="242" xmlns="http://www.w3.org/2000/svg"><path d="m0 0h242v201h-242z" fill="#fff"/><g clip-rule="evenodd" fill-rule="evenodd"><path d="m111.985 16.997001c.19-1.135 1.003-.555 1 0 5.629 4.227 10.699 6.611 14.999 11.999 3.592 4.501 5.255 11.669 9.998 16.998 10.464 11.755 30.485 16.537 45.995 14.998 20.54-2.039 36.137-19.938 34.995-44.994 5.067 2.213 8.491 6.415 11.999 9.999 3.928 4.013 9.671 8.587 9.998 15.998.91 20.618-16.083 38.689-33.995 40.995-23.949 3.083-46.774-11.223-58.993-21.997-16.121-14.215-25.628-29.648-35.996-43.996z"/><path d="m3.999 150.981c2.805.054 4.575 3.17 6.999 4.999 9.039 6.821 22.579 14.199 36.996 17.998 17.655 4.652 36.553 7.108 47.994-1 10.92-7.739 18.344-36.726 1-44.994-14.144-6.742-23.721 8.688-40.995 5.999-8.365-1.302-13.623-10.226-18.998-15.998-1.7-1.825-4.782-2.416-4-4.999 14.481 1.53 25.146-6.185 33.996-11.999 9.448-6.207999 19.458-12.738999 17.998-29.995999-15.978-6.603-35.603-3.927-52.993 1-3.617 1.025-7.16 3.218-8.999 3-9.62-1.141-15.019-15.872-21.99799999-20.998 17.23499999-6.471 33.88799999-10.165 53.99299999-7.999 13.714 1.478 27.108 11.738 36.996 21.997 6.702 6.954 17.028 18.196 13.998 33.995999-.283 1.474-3.429 6.583-5 8.999-3.142 4.834-8.12 6.287-2 11.999 3.506 3.271 10.444 8.038 12.999 10.998 18.227-10.652 33.155-27.4 64.991-24.997 18.981 1.434 29.198 9.2 39.995 19.998 9.822 9.822 24.543 21.432 23.997 34.995-.577 14.363-16.154 9.334-26.996 15.998-7.012 4.31-8.245 8.497-9.999 18.998-5.968-3.053-8.447-5.448-11.998-8.999-3.462-3.462-8.165-7.629-8.999-11.998-1.525-7.986 3.029-16.362 6.999-18.998 8.864-5.887 26.307-1.535 28.996-12.998.455-1.941.129-7.665 0-7.999-2.615-6.788-23.557-7.864-31.996-6.999-25.375 2.599-44.457 19.428-58.992 31.995 2.696 24.921-8.729 38.687-34.996 36.996-38.058-2.45-71.174-27.752-88.988-48.994z"/><path d="m99.531815 123.92858h23.317778v23.317778h-23.317778z" stroke-width=".99999" transform="matrix(.70710678 -.70710678 .70710678 .70710678 0 0)"/></g></svg>