<svg height="550" width="320" xmlns="http://www.w3.org/2000/svg"><path d="m0 0h320v550h-320z" fill="#fff"/><g fill="none" stroke="#000" stroke-linecap="round" stroke-linejoin="round" stroke-width="10.806623"><path d="m175.91865 258.66331-1.04483-215.31692s-24.15963-34.7285064-49.36971 0v218.78971"/><path d="m123.9285 78.074929s-26.260491-30.098041-46.218481 1.736412v59.617309"/><path d="m77.710019 278.34274s.413764-145.484 0-145.85977c-4.874527-4.42691-33.666013-25.40969-47.268888 7.52449l-.525206 248.30894c-.586059 33.27108 18.582285 136.15643 132.352875 137.75652 120.39365 1.6932 127.41964-126.93547 127.626-128.49556.48805-3.68986-10.93012-137.78176 4.20164-202.00425-.265-.97749-70.85061-41.29408-67.74667 82.19676l-.00538-184.645937s-16.80667-38.780167-49.36972-5.788073"/></g><g transform="matrix(3.010008 0 0 3.010008 14.2474 37.21492)"><g fill-rule="evenodd"><path d="m46.446693 87.934017 2.043713 31.203123 2.080208-31.203123-2.080208.291959z"/><path d="m54.592909 88.463561-6.101884 30.668859 10.085291-29.601504-2.084891-.256386z"/><path d="m62.324497 91.083461-13.831651 28.044549 17.403081-25.982583-1.947495-.787261z"/><path d="m69.114565 95.615167-20.618822 23.509063 23.534873-20.593-1.677375-1.264486z"/><path d="m74.500367 101.74986-26.000841 17.37147 28.062796-13.80004-1.292946-1.65554z"/><path d="m78.114878 109.06947-29.610949 10.05004 30.678293-6.06664-.820405-1.93376z"/><path d="m79.711777 117.07517-31.20313 2.04371 31.203118 2.08022-.291959-2.08021z"/><path d="m79.182233 125.22139-30.668856-6.10188 29.601501 10.08528.256375-2.08489z"/><path d="m76.562334 132.95299-28.044566-13.83167 25.982599 17.40308.78725-1.94749z"/><path d="m72.030616 139.74304-23.509064-20.61881 20.593013 23.53486 1.264474-1.67737z"/><path d="m65.895927 145.12884-17.371467-26.00084 13.800037 28.06281 1.655536-1.29295z"/><path d="m58.576316 148.74335-10.050034-29.61094 6.066627 30.6783 1.933762-.82042z"/><path d="m50.570614 150.34025-2.043713-31.20311-2.080208 31.20311 2.080208-.29196z"/><path d="m42.424397 149.81071 6.101885-30.66886-10.085292 29.6015 2.084891.25639z"/><path d="m34.692809 147.19081 13.831651-28.04455-17.403081 25.98258 1.947495.78727z"/><path d="m27.902742 142.6591 20.618821-23.50906-23.534873 20.593 1.677375 1.26449z"/><path d="m22.516939 136.52442 26.000841-17.37148-28.062796 13.80005 1.292947 1.65552z"/><path d="m18.902428 129.2048 29.610949-10.05004-30.678293 6.06664.820405 1.93376z"/><path d="m38.44099 89.530916 10.050035 29.610954-6.066628-30.678309-1.933761.820416z"/><path d="m31.121379 93.145427 17.371467 26.000843-13.800037-28.062809-1.655536 1.292946z"/><path d="m24.98669 98.53123 23.509064 20.61881-20.593012-23.534862-1.264475 1.677375z"/><path d="m20.454973 105.32129 28.044565 13.83166-25.982599-17.40308-.78725 1.94749z"/><path d="m17.835084 113.05287 30.668845 6.10189-29.601501-10.08529-.256375 2.0849z"/><path d="m17.305529 121.1991 31.20313-2.04371-31.203118-2.08022.291959 2.08021z"/></g><path d="m406.42857 701.02289a26.160715 26.160715 0 0 1 -26.16072 26.16071 26.160715 26.160715 0 0 1 -26.16071-26.16071 26.160715 26.160715 0 0 1 26.16071-26.16072 26.160715 26.160715 0 0 1 26.16072 26.16072z" fill="none" stroke="#000" stroke-linecap="round" stroke-linejoin="round" stroke-width="3.411582" transform="matrix(1.198103 0 0 1.198103 -407.0898 -720.7645)"/><path d="m571.24127 615.47119a56.568542 56.568542 0 0 1 -56.56854 56.56854 56.568542 56.568542 0 0 1 -56.56854-56.56854 56.568542 56.568542 0 0 1 56.56854-56.56854 56.568542 56.568542 0 0 1 56.56854 56.56854z" fill-rule="evenodd" transform="matrix(.295853 0 0 .295853 -103.4896 -62.65335)"/><path d="m35.412406 114.42451c.647436-1.36601 1.515536-2.93168 2.874325-4.6127l.143713 19.25858c-.862295-.67067-2.155731-2.43154-2.730599-4.04148" fill-rule="evenodd" stroke="#fff" stroke-linecap="round" stroke-linejoin="round" stroke-width="2.560884"/><path d="m36.148434 119.89146 5.317461.14373" fill-rule="evenodd" stroke="#fff" stroke-linecap="round" stroke-linejoin="round" stroke-width="2.560884"/><path d="m41.592185 107.10079.287428 24.66573" fill-rule="evenodd" stroke="#fff" stroke-linecap="round" stroke-linejoin="round" stroke-width="2.560884"/><path d="m45.286704 133.38584s-.323373-21.81496-.287439-27.70729c9.664882 1.006 6.754635 6.7397 6.754635 6.7397s-1.545748-.01133-2.586862 1.43716c-.826384 1.14972-.899572 2.75484-.287439 3.73663.553519.88781 1.185657 1.68865 2.874313 2.15573.538944 2.19166.808387 5.89232.143725 7.90436-.664709 2.01201-3.607912-6.92605-3.592894-5.60492.01795 1.58086.143691 11.5568.143691 11.5568 1.149734.1437 2.586908 0 3.736619-.28743" fill-rule="evenodd" stroke="#fff" stroke-linecap="round" stroke-linejoin="round" stroke-width="2.560884"/><path d="m53.319863 105.80734c2.329272 2.12433 2.494019 5.42525 1.595801 7.90437-.898229 2.47908-3.197687 1.36529-3.161752 2.29943.035922.93417 2.263523-.21557 3.161752 3.16177.898218 3.3773.28744 12.99394.28744 12.99394s1.401204-.62572 2.443159-1.45207" fill-rule="evenodd" stroke="#fff" stroke-linecap="round" stroke-linejoin="round" stroke-width="2.560884"/><path d="m58.548113 109.25626s.645545 4.38588-1.231378 7.11418c1.951839 3.56068 1.355496 11.34146 1.355496 11.34146" fill-rule="evenodd" stroke="#fff" stroke-linecap="round" stroke-linejoin="round" stroke-width="2.560884"/><path d="m61.87418 113.89955-.001273 11.54114" fill-rule="evenodd" stroke="#fff" stroke-linecap="round" stroke-linejoin="round" stroke-width="2.544505"/><path d="m523.259 600.31891a1.5152287 1.5152287 0 0 1 -1.51523 1.51523 1.5152287 1.5152287 0 0 1 -1.51522-1.51523 1.5152287 1.5152287 0 0 1 1.51522-1.51523 1.5152287 1.5152287 0 0 1 1.51523 1.51523z" fill-rule="evenodd" stroke="#fff" stroke-linecap="round" stroke-linejoin="round" stroke-width="9" transform="matrix(.260652 0 0 .260652 -87.49072 -46.35457)"/></g></svg>