<svg height="514.40881" width="535.08594" xmlns="http://www.w3.org/2000/svg"><path d="m0 .000003h535.08594v514.40881h-535.08594z" fill="#fff"/><g fill-rule="evenodd" stroke-width="1pt"><path d="m-390.36511-97.126106h266.46799v708.66101h-266.46799z" fill="#fff"/><path d="m449.89309 202.64994-54.86697-11.5427-28.85361 48.07439-5.97811-55.74828-54.63828-12.58691 51.1736-22.91206-4.91406-55.852705 37.60409 41.587755 51.60069-21.93259-27.93158 48.61529z"/><path d="m470.58989 344.69092c-48.714 107.324-176.541 154.212-284.178 104.346-107.636002-49.865-154.523002-177.693-104.657002-285.329 25.434002-54.9 67.057002-92.628006 125.812002-113.219006-6.758 5.715-13.445 11.643-20.773 19.205-75.899 78.328006-73.927 203.498006 4.4 279.397006 78.328 75.899 203.498 73.928 279.396-4.4z"/></g></svg>