<svg height="16" width="16" xmlns="http://www.w3.org/2000/svg"><g transform="translate(-8.000001 -7.999998)"><path d="m8.381552 8.381549h15.236898v15.236897h-15.236898z" fill="#fff" stroke="#fff" stroke-dashoffset=".6" stroke-linecap="square" stroke-width=".763102"/><path d="m30.11763 13.291089h2.673796v14.220004h-2.673796z" transform="matrix(.4999665 -.005786305 .005786305 .4999665 -3.502538 2.107142)"/><path d="m26.513855 16.258488h9.861672v2.300845h-9.861672z" transform="matrix(.49995045 -.007040735 .004755325 .4999774 -3.502538 2.107142)"/><g fill-rule="evenodd"><path d="m22.641972 11.284533-.850121-.178845-.447063.744874-.09263-.863775-.846577-.195024.792894-.355004-.07614-.8653937.582645.6443687.799512-.3398276-.432778.7532556.570253.655371z" stroke-width="1pt"/><path d="m22.962652 13.485344c-.754785 1.662901-2.735362 2.389393-4.403112 1.616759-1.667734-.772619-2.394211-2.753212-1.621577-4.420946.394079-.8506319 1.038995-1.4351973 1.949357-1.7542384-.10471.088549-.20832.180399-.321861.2975662-1.175995 1.2136302-1.145441 3.1530402.06817 4.3290342 1.21363 1.175995 3.15304 1.145456 4.329019-.06818z" stroke-width="1pt"/><g clip-rule="evenodd" transform="matrix(.03281411 0 0 .03281411 8.419952 16.488154)"><path d="m110.986 16.235c.19-1.135 1.003-.555 1 0 5.629 4.227 10.699 6.611 14.999 11.999 3.592 4.501 5.255 11.669 9.998 16.998 10.464 11.755 30.485 16.537 45.995 14.998 20.54-2.039 36.137-19.938 34.995-44.994 5.067 2.213 8.491 6.415 11.999 9.999 3.928 4.013 9.671 8.587 9.998 15.998.91 20.618-16.083 38.689-33.995 40.995-23.949 3.083-46.774-11.223-58.993-21.997-16.121-14.215-25.628-29.648-35.996-43.996z"/><path d="m3 150.219c2.805.054 4.575 3.17 6.999 4.999 9.039 6.821 22.579 14.199 36.996 17.998 17.655 4.652 36.553 7.108 47.994-1 10.92-7.739 18.344-36.726 1-44.994-14.144-6.742-23.721 8.688-40.995 5.999-8.365-1.302-13.623-10.226-18.998-15.998-1.7-1.825-4.782-2.416-4-4.999 14.481 1.53 25.146-6.185 33.996-11.999 9.448-6.208 19.458-12.739 17.998-29.996-15.978-6.603-35.603-3.927-52.993 1-3.617 1.025-7.16 3.218-8.999 3-9.62-1.141-15.019-15.872-21.998-20.998 17.235-6.471 33.888-10.165 53.993-7.999 13.714 1.478 27.108 11.738 36.996 21.997 6.702 6.954 17.028 18.196 13.998 33.996-.283 1.474-3.429 6.583-5 8.999-3.142 4.834-8.12 6.287-2 11.999 3.506 3.271 10.444 8.038 12.999 10.998 18.227-10.652 33.155-27.4 64.991-24.997 18.981 1.434 29.198 9.2 39.995 19.998 9.822 9.822 24.543 21.432 23.997 34.995-.577 14.363-16.154 9.334-26.996 15.998-7.012 4.31-8.245 8.497-9.999 18.998-5.968-3.053-8.447-5.448-11.998-8.999-3.462-3.462-8.165-7.629-8.999-11.998-1.525-7.986 3.029-16.362 6.999-18.998 8.864-5.887 26.307-1.535 28.996-12.998.455-1.941.129-7.665 0-7.999-2.615-6.788-23.557-7.864-31.996-6.999-25.375 2.599-44.457 19.428-58.992 31.995 2.696 24.921-8.729 38.687-34.996 36.996-38.058-2.45-71.174-27.752-88.988-48.994z"/><path d="m161.842 4.829h23.318001v23.318001h-23.318001z" transform="matrix(.7071 -.7071 .7071 .7071 39.1583 127.513)"/></g></g><g transform="matrix(.08259935 0 0 .08259935 2.538217 -50.398616)"><path d="m211.42857 805.48945-5.875 5.875c-6.27886.96027-12.06822 3.42601-16.96875 7.03125h-8.28125v8.34375c-3.58176 4.88793-6.04358 10.62131-7 16.875l-5.875 5.875 5.875 5.875c.95642 6.25369 3.41824 12.01833 7 16.90625v8.34375h8.3125c4.89565 3.59612 10.66841 6.07247 16.9375 7.03125l5.875 5.875 5.875-5.875c6.26909-.95878 12.04186-3.43513 16.9375-7.03125h8.3125v-8.28125c3.60291-4.89928 6.07136-10.69239 7.03125-16.96875v-.0312l5.84375-5.84375-5.84375-5.84375v-.0312c-.95989-6.27636-3.42834-12.03822-7.03125-16.9375v-8.28125h-8.28125c-4.90053-3.60524-10.68989-6.07098-16.96875-7.03125l-5.875-5.875z"/><path d="m211.42857 814.73945-3.6875 3.6875c-5.85047.69051-11.21864 3.00538-15.625 6.46875h-5.28125v5.25c-3.46913 4.40373-5.77234 9.77457-6.46875 15.625l-3.71875 3.71875 3.71875 3.71875c.69193 5.86249 2.9935 11.21351 6.46875 15.625v5.25h5.25c4.41317 3.47863 9.79008 5.8079 15.65625 6.5l3.6875 3.6875 3.6875-3.6875c5.86992-.6907 11.24067-3.01946 15.65625-6.5h5.25v-5.25c3.47837-4.41284 5.77645-9.75935 6.46875-15.625l3.71875-3.71875-3.71875-3.71875c-.69678-5.85359-2.9965-11.21993-6.46875-15.625v-5.25h-5.28125c-4.4088-3.46529-9.77074-5.77965-15.625-6.46875z" fill="#fff"/><path d="m52.823528 44.588234c.000973 4.289017-3.475689 7.766468-7.764705 7.766468-4.289017 0-7.765679-3.477451-7.764706-7.766468-.000973-4.289017 3.475689-7.766468 7.764706-7.766468 4.289016 0 7.765678 3.477451 7.764705 7.766468z" transform="matrix(3.5606061 0 0 3.5606061 50.995521 690.73749)"/><path d="m181.96166 849.49865h58.94117" fill="none" stroke="#fff" stroke-width="4"/><path d="m52.823528 44.588234c.000973 4.289017-3.475689 7.766468-7.764705 7.766468-4.289017 0-7.765679-3.477451-7.764706-7.766468-.000973-4.289017 3.475689-7.766468 7.764706-7.766468 4.289016 0 7.765678 3.477451 7.764705 7.766468z" fill="#fff" transform="matrix(1.5454546 0 0 1.5454546 141.79588 780.58955)"/><g fill="none" stroke="#fff" stroke-width="4"><path d="m190.59339 828.6598 41.6777 41.67769"/><path d="m211.43224 878.96923v-58.94118"/><path d="m190.59339 870.33749 41.6777-41.6777"/></g><path d="m52.823528 44.588234c.000973 4.289017-3.475689 7.766468-7.764705 7.766468-4.289017 0-7.765679-3.477451-7.764706-7.766468-.000973-4.289017 3.475689-7.766468 7.764706-7.766468 4.289016 0 7.765678 3.477451 7.764705 7.766468z" transform="translate(166.37342 804.9104)"/></g></g></svg>