<svg height="800" width="600" xmlns="http://www.w3.org/2000/svg"><path d="m0 0h600v800h-600z" fill="#fff"/><path d="m286.73019 778.52583c-10.97718-3.08974-21.71696-12.13574-26.7215-22.50717-5.32434-11.03447-5.25826-26.32933.16219-37.56287 2.39731-4.96822 10.86402-14.42666 15.62891-17.45952l2.42479-1.54333-.29357-37.69042-.29369-37.69042-22.0587 15.11878-22.05871 15.11875 2.3321 4.39734c1.86812 3.52243 2.33464 6.20536 2.34488 13.48449.0114 8.074-.33727 9.72114-3.12694 14.77342-3.51033 6.35762-8.04665 10.77103-14.73891 14.33949-3.64556 1.94401-6.21774 2.39922-13.55688 2.39922-7.33917 0-9.91134-.45521-13.55692-2.39922-10.78543-5.75116-17.24552-15.12048-18.1299-26.29447-.65794-8.31289.82977-13.79572 5.79627-21.3618 3.55036-5.40867 8.10086-8.9619 45.71089-35.69291 22.97237-16.32745 41.56911-30.01415 41.32594-30.41488-.24307-.40075-5.49334-4.32565-11.66728-8.72199l-11.22517-7.99335-31.92147 23.42179c-17.55685 12.88198-32.15803 23.42178-32.44709 23.42178s-1.34856-12.27022-5.39694-18.70884c-3.94379-6.27229-18.17694-22.18942-54.303-58.26469-40.032511-39.97623-51.246931-52.35207-64.073331-70.7091-22.150312-31.70135-35.604699-66.65398-40.815585-106.03321-1.42743-10.7872-1.42743-44.11555 0-54.90275 5.900486-44.59062 22.283358-83.26282 49.776405-117.49854 15.11324-18.81977 25.79523-26.93067 49.147841-37.31832 16.50043-7.33968 48.31734-17.77668 49.76481-16.32449.19974.20038-4.05164 3.23163-9.44749 6.73611-13.4675 8.74679-37.38729 32.62608-46.49044 46.4117-12.533161 18.97996-20.810871 38.55981-25.854291 61.15491-2.18092 9.77079-2.46829 13.85874-2.46829 35.11247 0 28.4192 1.07503 34.62829 11.17708 64.55599 12.215971 36.19032 25.229701 56.68485 60.257991 94.89672 32.3807 35.32366 46.72506 47.71414 95.99546 82.91967l30.24048 21.60799v-20.18446-20.18446l-3.99604-2.45042c-2.19783-1.34772-8.31178-5.85452-13.58656-10.01508s-14.38576-10.63057-20.24663-14.3778-10.79199-6.91295-10.95811-7.03493c-.16614-.12199 1.14532-7.60564 2.91434-16.63034 1.76902-9.02469 2.86394-16.69967 2.43322-17.05551-.43073-.35584-3.99797-1.98096-7.92741-3.61137-17.35736-7.20211-35.8426-19.72101-51.31507-34.75252-25.14534-24.42872-41.00641-52.82539-49.31127-88.28387-2.84787-12.15928-3.00471-14.1403-3.00471-37.95223s.15684-25.79295 3.00471-37.95222c8.30486-35.45849 24.16593-63.85516 49.31127-88.28387 15.57648-15.13255 34.61317-27.9814 51.78425-34.95187 5.02756-2.04088 7.18564-3.47991 7.19481-4.79755.00724-1.03521-.95575-6.24598-2.13986-11.5795l-2.15307-9.697314 2.76047-3.29126c1.51817-1.8102 12.19753-12.53522 23.73172-23.833388 11.53407-11.298165 25.75158-25.906588 31.59422-32.463161l10.62309-11.92104 35.28573 35.38871 35.28582 35.388699-2.60627 11.200104c-1.43336 6.16005-2.43184 11.31594-2.21871 11.45751.21312.14158 6.86115 3.48159 14.77332 7.4222 7.91217 3.94064 18.93295 10.41422 24.49055 14.38572 12.99748 9.28799 31.62247 27.99503 40.73601 40.91539 43.57096 61.77108 43.57096 143.4546 0 205.22569-9.1176 12.92611-27.74439 31.63283-40.73601 40.91086-9.59402 6.85161-35.96271 21.11413-39.03594 21.11413-1.93057 0-1.81058 1.36657 1.62421 18.49586l2.95856 14.7541-8.60524 5.67038c-4.73292 3.11869-14.45822 10.19027-21.61179 15.71459-7.15355 5.52432-14.22656 10.90858-15.71778 11.96501l-2.71123 1.9208v19.19348c0 10.55641.20183 19.19346.44851 19.19346.67944 0 59.36515-41.98361 62.4226-44.65698 1.46524-1.28115 6.74001-5.55436 11.72174-9.49605 14.86071-11.75817 30.26946-26.54301 47.73857-45.80565 9.06528-9.99587 17.0432-18.65539 17.72881-19.24338.68562-.588 5.11515-6.12046 9.84338-12.29438 18.90023-24.6788 27.54948-40.91811 37.03514-69.53462 9.22042-27.81618 10.62278-35.9961 10.62278-61.96184 0-18.72647-.35028-23.54979-2.40681-33.14139-10.04349-46.84298-35.64345-84.64655-74.68438-110.28695-6.12302-4.02133-10.40059-7.31151-9.5058-7.31151 3.10754 0 28.15443 7.33464 38.0609 11.14563 31.87075 12.26057 46.93457 22.65581 64.35317 44.40879 52.28075 65.29005 65.24083 152.6901 34.16853 230.42366-6.35467 15.89736-13.69407 29.45643-24.59421 45.43576-14.67647 21.51543-19.59565 27.01466-67.89826 75.90446-25.27046 25.57766-40.23773 40.09898-47.99507 50.51388-7.75732 10.41489-9.55608 23.98536-9.55608 23.98536l-29.83715-21.80888c-16.41043-11.99487-30.8369-22.67134-32.05873-23.7255-2.17662-1.87781-2.46401-1.74378-14.19214 6.61614-6.58378 4.69304-11.5782 8.90282-11.09856 9.35511.47952.45228 18.61443 13.42594 40.29964 28.83039 21.6852 15.40443 40.76052 29.26668 42.38963 30.80498 1.6291 1.5383 4.38638 5.65661 6.12726 9.15177 4.22526 8.48302 4.47504 19.76852.61816 27.92943-3.07226 6.50073-9.13229 12.50288-15.56827 15.41964-7.03911 3.19003-19.02001 3.03618-26.10749-.33526-6.47968-3.08214-12.46245-9.16195-15.36976-15.61891-2.98009-6.61879-2.9916-19.02142-.02364-25.58493 1.73619-3.83951 1.88335-4.98426.77586-6.03705-1.86941-1.77698-42.14465-29.3154-42.87416-29.3154-.32128 0-.58417 17.03753-.58417 37.86117v37.86113l5.08382 3.74412c17.82247 13.12549 21.83035 40.57255 8.61942 59.02834-9.75259 13.62431-30.918 20.6907-47.76778 15.94806zm92.6732-379.82215c5.2604-3.47533 13.99097-10.93342 20.82516-17.78979 17.18545-17.24134 27.6504-34.08177 35.13238-56.53576 5.12996-15.3955 6.91359-27.16102 6.91359-45.60696 0-30.86948-7.33919-55.39588-24.31269-81.24984-7.74368-11.79512-26.76637-30.88714-38.55844-38.69905-9.36949-6.20698-20.917-12.32047-21.69991-11.48835-1.68281 1.78863-7.46717 52.92378-9.29671 82.18503-1.6485 26.36644-.66431 103.6093 1.61503 126.76029 1.77403 18.01803 5.62548 48.60269 6.62545 52.61377l.59014 2.36715 6.55415-3.28621c3.60476-1.80742 10.63012-5.97906 15.61185-9.27028zm-136.4803 3.27861c9.19229-61.27963 11.02067-137.85363 4.81817-201.78827-1.53928-15.86722-5.32028-45.86237-6.36811-50.51841l-.54228-2.40996-6.63866 3.3609c-30.9217 15.65453-57.2051 45.84548-69.28746 79.58845-5.75127 16.06187-7.6804 28.25794-7.6804 48.55617 0 15.69913.39973 20.5007 2.48484 29.84733 8.27223 37.08092 28.98598 68.22108 59.31946 89.17843 6.05428 4.18286 20.53947 12.38199 21.98198 12.44257.36828.01547 1.22898-3.70028 1.91246-8.25721z"/></svg>