<svg height="466" width="466" xmlns="http://www.w3.org/2000/svg"><path d="m0 0h466v466h-466z" fill="#fff"/><g transform="translate(-14.31153 -9.654345)"><path d="m574.28571 350.93362a230 230 0 1 1 -460 0 230 230 0 1 1 460 0z" fill="#fff" transform="translate(-95.71429 -108.5714)"/><path d="m231.48189 473.26283c-99.6472-5.19625-189.383828-82.81888-209.827948-180.26384-18.8011997-81.35594 10.64566-171.37819 74.42969-225.41656 45.254588-39.36035 106.072568-60.10639 165.980338-55.59096 94.8752 3.85198 181.73938 74.1668 207.29403 165.36136 10.47554 33.51351 10.44611 69.4921 6.21562 104.00938-14.41577 87.89433-83.55212 163.80666-170.23445 185.04964-23.9676 5.89055-49.21508 8.9573-73.85728 6.85098zm-35.5-14.18451c-42.27213-20.74992-68.40532-68.82039-62.41082-115.59036 4.78975-55.13299 54.94589-100.69318 110.07642-101.67945 46.15604 1.42327 91.67599-27.27714 108.44526-70.59081 20.0797-47.35773 2.72364-106.79744-39.93728-135.71979-34.9695-25.77871-81.75846-20.31119-121.55812-11.35156-91.998008 22.54898-163.129508 108.71343-168.269148 203.22521-6.71083 85.29237 40.25038 171.39241 115.391168 212.21409 18.81689 10.16275 45.53787 22.03982 63.14159 22.28306l-1.94719-1.19152-2.93187-1.59887zm45-302.63345c-23.29499-4.47761-30.34404-38.68479-10.25714-51.65036 20.58636-16.03461 52.91366 5.77751 44.79881 31.18745-3.72656 14.62596-19.91099 23.85218-34.54167 20.46291zm11.67969 226.7854c28.56252-3.57193 29.32543-49.3473.80557-53.67027-22.57052-5.91333-42.1849 22.29522-28.87667 41.52172 5.65082 8.55923 17.68708 15.34785 28.0711 12.14855z"/></g></svg>