<svg height="16" viewBox="0 0 16 16" width="16" xmlns="http://www.w3.org/2000/svg"><g fill-rule="evenodd"><ellipse cx="35.751892" cy="850.2442" rx="7.00037" ry="6.99963" transform="matrix(.99994714 .01028229 0 1 -27.750002 -842.61183)"/><ellipse cx="35.751892" cy="850.24426" fill="#fff" rx="5.837073" ry="5.836456" transform="matrix(.99994714 .01028228 0 1 -27.750002 -842.61183)"/><path d="m35.6823 846.92336-3.388514 2.64627 1.419951 4.00168 4.163037-.12909 1.355403-3.80805z" stroke="#000" stroke-width=".035511" transform="translate(-27.750002 -842.61183)"/></g><g fill="#fff" transform="matrix(.02058823 0 0 .02058826 .42868 -2.6773)"><path d="m346.90826 391.10175h41.682667v125.048h-41.682667z"/><g stroke-width="33"><path d="m-31.444723 625.82776h41.846134v125.53841h-41.846134z" transform="matrix(.80595869 -.59197178 .59197178 .80595869 0 0)"/><path d="m574.9314 203.44701h41.846043v125.53812h-41.846043z" transform="matrix(.82273915 .56841911 -.56841911 .82273915 0 0)"/><path d="m-394.6936 402.24527h41.846119v125.53836h-41.846119z" transform="matrix(.32137291 -.94695272 .94695272 .32137291 0 0)"/><path d="m-629.85974 179.10356h41.846088v125.53826h-41.846088z" transform="matrix(-.313006 -.94975115 .94975115 -.313006 0 0)"/></g><ellipse cx="741.95703" cy="181.10561" rx="56.063465" ry="53.033009" transform="matrix(1.856281 0 0 1.962354 -1009.531 -10.95022)"/><ellipse cx="741.95703" cy="181.10561" rx="56.063465" ry="53.033009" transform="matrix(1.856281 0 0 1.962354 -907.7207 306.383)"/><ellipse cx="741.95703" cy="181.10561" rx="56.063465" ry="53.033009" transform="matrix(1.856281 0 0 1.962354 -1113.464 301.8346)"/><ellipse cx="741.95703" cy="181.10561" rx="56.063465" ry="53.033009" transform="matrix(1.856281 0 0 1.962354 -1176.044 107.6139)"/><ellipse cx="741.95703" cy="181.10561" rx="56.063465" ry="53.033009" transform="matrix(1.856281 0 0 1.962354 -844.0797 111.101)"/></g><g transform="matrix(.02036664 0 0 .02036667 .510051 -2.56582)"><path d="m463.81406 344.44299c.79683 47.69239-37.51472 89.32098-81.44089 94.9566-45.79883 8.13416-95.81043-22.61821-107.66146-70.95782-11.72983-42.2015 10.31383-89.55775 47.26037-108.463 42.88161-24.27255 101.94335-9.39812 127.92807 34.6636 9.01388 14.74712 13.96107 32.2304 13.91391 49.80062z"/><ellipse cx="741.95703" cy="181.10561" rx="56.063465" ry="53.033009" transform="matrix(1.71349 0 0 1.811403 -801.7761 333.7208)"/><ellipse cx="741.95703" cy="181.10561" rx="56.063465" ry="53.033009" transform="matrix(1.71349 0 0 1.811403 -1007.519 329.1725)"/><ellipse cx="741.95703" cy="181.10561" rx="56.063465" ry="53.033009" transform="matrix(1.71349 0 0 1.811403 -1070.099 134.9517)"/><ellipse cx="741.95703" cy="181.10561" rx="56.063465" ry="53.033009" transform="matrix(1.71349 0 0 1.811403 -738.1351 138.4389)"/><path d="m353.85538 411.94308h27.788446v83.365334h-27.788446z"/><g stroke-width="33"><path d="m-23.598534 649.36609h26.153824v78.461472h-26.153824z" transform="matrix(.80595869 -.59197178 .59197178 .80595869 0 0)"/><path d="m582.77789 226.98538h26.153784v78.461357h-26.153784z" transform="matrix(.82273915 .56841911 -.56841911 .82273915 0 0)"/><path d="m-386.84729 425.78333h26.153811v78.461433h-26.153811z" transform="matrix(.32137291 -.94695272 .94695272 .32137291 0 0)"/><path d="m-622.01373 202.64211h26.153814v78.461433h-26.153814z" transform="matrix(-.313006 -.94975115 .94975115 -.313006 0 0)"/></g></g><ellipse cx="7.999884" cy="7.99657" fill="#fff" rx=".878899" ry=".878899"/><ellipse cx="7.999884" cy="7.99657" rx=".7191" ry=".719098"/></svg>