<svg height="16" width="16" xmlns="http://www.w3.org/2000/svg"><path d="m7.9998586.99999965-6.99999999 7.00000035 1.99999999-.000348v7.000348h10.0000004v-7h2z" fill="none" stroke="#0092da" stroke-linejoin="round" stroke-width="2"/><g fill="#0092da"><path d="m8.7046586 6.189c.4562 0 .825-.3711.825-.8281 0-.4562-.3688-.825-.825-.825s-.8273.3688-.8273.825c0 .457.3711.8281.8273.8281z"/><path d="m7.3085586 6.3257c.032-.1273-.0484-.2539-.1734-.2859l-.6883-.1656c-.1289-.0297-.2562.0461-.2852.1727l-.5788 2.3953c-.032.1273.0461.2539.1734.2859l.6906.1656c.125.032.2539-.0461.2836-.1734z"/><path d="m5.8734586 14.3507c-.0078.0391-.0102.0781-.0102.1172 0 .3219.2594.5805.5812.5805.2641 0 .4859-.1758.557-.4148l.9984-4.1336.9516 4.1094c.0609.2539.2906.4391.5609.4391.3227 0 .5812004-.2586.5812004-.5805 0-.0445-.0047-.0859-.0125-.1273l-1.3053004-5.4587.1094-.4812.0859.3781c.0781.2469.3023.2711.3023.2711l1.3453004.3422c.0266.0047.0539.007.0805.007.2195 0 .3977-.1758.3977-.3953 0-.1883-.1289-.3469-.3047-.3883l-1.1648004-.293-.3195-1.2992c-.1516-.725-.8445-.7078-.8445-.7078-.6734-.0172-.8422.6914-.8422.6914z"/></g></svg>