<svg height="16" viewBox="0 0 16 16.000001" width="16" xmlns="http://www.w3.org/2000/svg"><path d="m230.73879 315.23145c.0818.008.21881.072.2726.0402.0663-.0393-.0412.17206.0294.13012.0353-.021.0558.2743.0192.46024-.0366.18595-.0289.36014.0539.36265.0827.003-.19138.30145.10511.12437.0413-.0246.89486-.0408.91554-.0525-.0155.005-.0219-.001.0123-.0382.0542-.0592.039-.051.0339-.0488.005-.005.0247-.0239.0951-.0861.19093-.16861.70924-.64165.64949-.54924-.0599.0924.30598-.18953.5086-.29184.0144-.008.0208-.0103.0302-.0162-.005.0151.0183.0317.1244.0344.14674.005.0678.1955-.006.32535.01-.0151.0199-.0283.0327-.0469.34626-.4887-.1088.50282-.12715.66884-.0182.16604-.0354.4342-.0475.64492-.0123.21073.19511 1.48143.21953 1.62183.0245.14048-.0111.21712.12897.31289.14044.0959.2926.25504.42079.38274.1282.12771.67732.57487.89097.76645.21368.19157.48256.44761.60466.63916.12209.19158.20729.35039.25612.51001.0487.15963.22623.65786.25065.78557.0245.12771.25629.44698.39061.64492.13429.19794.53126.49204.71441.59422.18313.10222.6407.43422.85436.60665.21368.17241.56131.38908.61016.42101.0487.0319.53162.34505.66593.39615.13429.051.34839.21983.3659.24875.0175.0291-.00036.27695-.0521.4124-.0518.13548-.20275.35671-.25888.43345-.0561.0767-.12996.0854-.17744.12153-.0474.0362-.0732.16936-.24425.50141-.17094.33205-.48832.45983-.63483.54922-.14652.0895-.45121.0765-.51227.0765-.061 0-.0368.0129-.098.11471-.0612.10222-.42707.29407-.53696.28132-.10979-.0129-.89161-.22992-1.14797-.29376-.25642-.0639-1.59993-.51598-2.01429-.55211-.41439-.036-.75925.18012-1.0355.36072-.27627.18062-.69108.68701-.89832.83151-.2072.14451-.1573-.13567-.51775.0355-.36045.1711-1.00097.83126-1.3117 1.37311-.1848.3222-.3242 1.27098-.67326 2.16152-3.43206-1.29003-5.88004-4.71992-5.88004-8.75994 0-.47241.0343-.93601.0987-1.38938 1.18535-.55021 2.21364-1.39463 2.22564-1.39986.0153-.008.0375-.0178.0667-.0335.0294-.0157 2.49518-2.60508 2.53658-2.62846.0414-.0233 1.07171-1.15947 1.1233-1.18942.0517-.0299.76157-.55616.82145-.59131.0111-.008.0268-.009.0457-.008zm2.72496.0344c.007-.0237.0745-.0416 0 0z" fill="#0092da" stroke-width=".091455" transform="translate(-223.82 -315.23)"/></svg>