<svg height="16" width="16" xmlns="http://www.w3.org/2000/svg"><g transform="translate(-8 -8.000001)"><rect fill="#fff" height="16" rx="2" width="16" x="8" y="8.000001"/><g fill="#cd9369" stroke="#c67036" stroke-linecap="round" stroke-linejoin="round" transform="matrix(1.3960228 0 0 1.4671449 9.001129 4.48827)"><path d="m2.478544 11.578874v-8.0822h5.0753842v8.0822" stroke-width="1.03558"/><path d="m2.833615 4.055426h4.292532v7.420784h-4.292532z" opacity=".2" stroke-width="1.108252"/></g><rect fill="#ae6230" fill-rule="evenodd" height="1" rx=".000496" ry="0" width="2" x="17" y="15.000001"/><path d="m9.59893 15.000001c-.374333 0-.59893.224301-.59893.747663v7.252337h1.272728v-1.794396s10.331534.07478 11.454537 0v1.794396h1.272735v-2.392519-3.887853c0-.29908-.149722-.747664-.673802-.747664-.449201 0-.598933.448598-.598933.747664v3.289715h-11.454537v-4.26168c0-.523366-.299479-.747663-.673798-.747663zm2.919783.971964c-.823528 0-1.497319.672899-1.497319 1.495323 0 .822439.673791 1.495331 1.497319 1.495331.823534 0 1.497325-.672892 1.497325-1.495331 0-.822424-.673791-1.495323-1.497325-1.495323zm1.946526 1.046732v1.943922h6.513356c0-.971961-1.048135-1.943922-2.021373-1.943922z" fill="#0083c3"/></g></svg>