<svg height="16" width="16" xmlns="http://www.w3.org/2000/svg"><g transform="translate(-8 -8.000001)"><rect fill="#fff" height="16" rx="2" width="16" x="8" y="8.000001"/><path d="m9.59893 15.000001c-.374333 0-.59893.224301-.59893.747663v7.252337h1.272728v-1.794396s10.331534.07478 11.454537 0v1.794396h1.272735v-2.392519-3.887853c0-.29908-.149722-.747664-.673802-.747664-.449201 0-.598933.448598-.598933.747664v3.289715h-11.454537v-4.26168c0-.523366-.299479-.747663-.673798-.747663zm2.919783.971964c-.823528 0-1.497319.672899-1.497319 1.495323 0 .822439.673791 1.495331 1.497319 1.495331.823534 0 1.497325-.672892 1.497325-1.495331 0-.822424-.673791-1.495323-1.497325-1.495323zm1.946526 1.046732v1.943922h6.513356c0-.971961-1.048135-1.943922-2.021373-1.943922z" fill="#0085c8"/><g fill-rule="evenodd"><path d="m15 15.000001h7l-.02232-3.973214 1.02232-.026786v-1l-4.446429-2-4.553571 2v1l.999093-.02524z" fill="#a36b47"/><rect fill="#c1987d" height="3" rx="2" ry="0" width="2" x="19" y="12.000001"/><rect fill="#c79e83" height="2" rx="2" ry="0" width="2" x="16" y="11.000001"/></g></g></svg>