<svg height="16" width="16" xmlns="http://www.w3.org/2000/svg"><g transform="translate(-8 -8.000001)"><rect fill="#fff" height="16" rx="2" width="16" x="8" y="8.000001"/><path d="m16.249466 8.6436365-5.563218 5.7098325h1.112637v8.564744h3.337938v-4.352519h2.30158l.000007 4.352519h3.261638v-8.564744h1.112644z" fill="#c3c3c3" fill-rule="evenodd" stroke="#000" stroke-width=".031812"/><path d="m9.59893 15.000001c-.374333 0-.59893.224301-.59893.747663v7.252337h1.272728v-1.794396s10.331534.07478 11.454537 0v1.794396h1.272735v-2.392519-3.887853c0-.29908-.149722-.747664-.673802-.747664-.449201 0-.598933.448598-.598933.747664v3.289715h-11.454537v-4.26168c0-.523366-.299479-.747663-.673798-.747663zm2.919783.971964c-.823528 0-1.497319.672899-1.497319 1.495323 0 .822439.673791 1.495331 1.497319 1.495331.823534 0 1.497325-.672892 1.497325-1.495331 0-.822424-.673791-1.495323-1.497325-1.495323zm1.946526 1.046732v1.943922h6.513356c0-.971961-1.048135-1.943922-2.021373-1.943922z" fill="#007ebc"/></g></svg>