<svg viewBox="0 0 16 16" xmlns="http://www.w3.org/2000/svg"><path d="m0 0h16v16h-16z" fill="none" visibility="hidden"/><rect fill="#fff" height="16" rx="2" width="16"/><path d="m.625 0c-.375 0-.625.25-.625.75v13.25h1.25v-2h11.5v2h1.25c.02275 0 0-13.25 0-13.25 0-.5-.25-.75-.625-.75s-.625.25-.625.75v4.25h-11.5v-4.25c0-.5-.25-.75-.625-.75zm2.875 1c-.828427 0-1.5.671573-1.5 1.5s.671573 1.5 1.5 1.5 1.5-.671573 1.5-1.5-.671573-1.5-1.5-1.5zm2 1v2h6.5c0-1-1.036175-2-2-2zm-4.25 4h11.5v5h-11.5c.02355 0 0-5 0-5zm2.25 1c-.828427 0-1.5.671573-1.5 1.5s.671573 1.5 1.5 1.5 1.5-.671573 1.5-1.5-.671573-1.5-1.5-1.5zm2 1v2l6.5.01288c0-1.01288-1.036175-2.01288-2-2.01288z" fill="#0092da" transform="translate(1 1)"/></svg>