<svg viewBox="0 0 16 16" xmlns="http://www.w3.org/2000/svg"><path d="m0 0h16v16h-16z" fill="none" visibility="hidden"/><rect fill="#fff" height="16" rx="2" width="16"/><path d="m.625 3c-.375 0-.625.25-.625.75v7.25h1.25v-1.75s10.380697.01892 11.5 0v1.75h1.25v-2.375-3.875c0-.3297418-.13801-.75-.625-.75s-.625.4202582-.625.75v3.25h-11.5v-4.25c0-.5-.25-.75-.625-.75zm2.875 1c-.828427 0-1.5.671573-1.5 1.5s.671573 1.5 1.5 1.5 1.5-.671573 1.5-1.5-.671573-1.5-1.5-1.5zm2 1v2h6.5c0-1-1.036175-2-2-2z" fill="#0092da" transform="translate(1 1)"/></svg>