<svg viewBox="0 0 16 16" xmlns="http://www.w3.org/2000/svg"><path d="m0 0h16v16h-16z" fill="none" visibility="hidden"/><rect fill="#fff" height="16" rx="2" width="16"/><path d="m.625 0c-.375 0-.625.25-.625.75v5.75h1.25v-1.5s10.380697.01892 11.5 0v1.5h1.25c-.000097 0 0-4.75 0-4.75 0-.3297418-.138013-.75-.625-.75-.48699 0-.661414.422275-.625.75v2h-11.5v-3c0-.5-.25-.75-.625-.75zm2.875 0c-.828427 0-1.5.671573-1.5 1.5s.671573 1.5 1.5 1.5 1.5-.671573 1.5-1.5-.671573-1.5-1.5-1.5zm2 1v2h6.5c0-1-1.036175-2-2-2zm-1.5 5-1 3c-.472666 0-1 .384295-1 1v3h1s0 1 1 1 1-1 1-1h4s0 1 1 1 1-1 1-1h1v-3c0-.520606-.455425-1-1-1l-1-3zm1 1h4l.625 2h-5.25zm-1 3.25c.414214 0 .75.335786.75.75s-.335786.75-.75.75-.75-.335786-.75-.75.335786-.75.75-.75zm6 0c.414214 0 .75.335786.75.75s-.335786.75-.75.75-.75-.335786-.75-.75.335786-.75.75-.75z" fill="#0092da" transform="translate(1 1)"/></svg>