<svg height="15.50009" width="16" xmlns="http://www.w3.org/2000/svg"><g transform="translate(-595 -751.86218)"><path d="m608 760.36218h2.000153v7.000087h-2.000153z" fill="#502d16"/><path d="m608 767.36218v-7l-11-2v9z" fill="#956531"/><path d="m595 759.36218 16 3v-3l-16-3z" fill="#502d16"/><g stroke="#0078ff" stroke-linecap="round"><path d="m597 756.36218c4-4 4-4 4-4" fill="#00f"/><path d="m600 756.36218 1-1" fill="#00f"/><path d="m602 754.36218 2-2" fill="#00f"/><path d="m603 757.36218 3-3" fill="#00f"/><path d="m596 754.36218 2-2" fill="#00f"/><path d="m606 758.36218 1-1" fill="#00f"/><path d="m608 756.36218 2-2" fill="#00f"/><path d="m609 758.36218 1-1" fill="#00f"/><path d="m607 753.36218 1-1" fill="#0078ff"/></g></g></svg>