<svg height="16" width="16" xmlns="http://www.w3.org/2000/svg"><g transform="translate(1.920035 2.193443)"><g fill="none" stroke="#3881c2" stroke-linecap="round" stroke-width=".592375"><path d="m.64273406-1.3955207-1.92640596 2.02396222"/><path d="m1.3169762.9320359-2.3733693 2.4935607"/><path d="m4.2682672.36123925-2.3733693 2.49356075"/><path d="m.35377318 3.9679792-1.86255388 1.9568768"/><path d="m6.6762746-.14475131-2.3733693 2.49356071"/><path d="m10.047485-1.6627229-2.3733693 2.49356062"/><path d="m11.010688 1.3732204-2.3733694 2.4935607"/><path d="m13.70298 1.141624-1.756133 1.777982"/><path d="m13.70298-1.8943193-1.756134 1.77798199"/><path d="m13.766833 3.5821294-1.819987 1.8674294"/><path d="m10.840079 4.1495069-.819638.7940614"/><path d="m8.3739807 2.1642162-1.1814665 1.1965744"/><path d="m3.7091234-1.6259773-1.3943062 1.50963999"/></g><g stroke="#000" stroke-width=".789833"><path d="m-1.2836719 7.2063187 7.2240223-4.0479244 7.2240216 4.0479244-.483694.5174936-2.415135-1.0234841-4.327775-.54723-4.3376597.539324-2.40249596 1.0200081-.48128424-.5061116z" fill-rule="evenodd"/><path d="m1.605937 6.194338h.963203v7.083868h-.963203z"/><path d="m9.311561 6.194338h.963203v7.083868h-.963203z"/></g><g fill="#dec600"><path d="m-1.2836719 7.2063187 7.2240223-4.0479244 7.2240216 4.0479244-.483694.5174936-2.415135-1.0234841-4.327775-.54723-4.3376597.539324-2.40249596 1.0200081z" fill-rule="evenodd"/><path d="m1.605937 6.194338h.963203v7.083868h-.963203z"/><path d="m9.311561 6.194338h.963203v7.083868h-.963203z"/></g><g fill-rule="evenodd"><path d="m5.9657991 13.263533c4.8984169 0 0-5.5377294 0-5.5377294s-5.01293642 5.6967494 0 5.5377294z" fill="#fffd00" stroke="#000" stroke-width=".421247"/><path d="m5.9570443 12.768634c3.2132489 0 0-2.526372 0-2.526372s-3.2883711 2.598918 0 2.526372z" fill="#f00"/><path d="m7.8959703 13.806557c-.5268813-1.797494-3.3657864-1.794645-3.8899559 0z"/></g></g></svg>