<svg height="16" width="10" xmlns="http://www.w3.org/2000/svg"><path d="m1.0000001 15v-13.9999999h7.9999998" fill="none" stroke="#734a08" stroke-linecap="square" stroke-linejoin="round" stroke-width="2"/><g fill="#734a08" transform="matrix(.51952076 0 0 .51952076 -2.276258 -.643512)"><path d="m15.995596 11.102306c.552265.00002 1.029299-.200867 1.431102-.60266.401743-.401752.602629-.8787864.602661-1.4311028-.000032-.5767852-.200918-1.0597554-.602661-1.4489128-.401803-.38911-.878837-.583677-1.431102-.583701-.552324.000024-1.029166.194591-1.430529.583701-.401418.3891574-.602112.8721276-.602086 1.4489128-.000026.5523164.200668 1.0293508.602086 1.4311028.401363.401793.878205.60268 1.430529.60266z"/><path d="m18.669362 11.515954h-5.384301c-.727738.000018-1.348973.257399-1.863709.772139-.514784.514779-.772164 1.148654-.772141 1.901627v6.249512c-.000023.602862.276124.904288.828443.904278.526991.00001.7905-.301416.790525-.904278v-6.098991h.978964v16.566552c-.000027.75299.376469 1.129485 1.129485 1.129486.752962-.000001 1.129457-.376496 1.129485-1.129486v-9.601201h.978965v9.601201c-.00003.75299.376465 1.129485 1.129485 1.129486.778237-.000001 1.167371-.376496 1.167403-1.129486v-16.566552h.941046v6.098991c-.000032.627375.263476.941056.790525.941047.527749.000009.79164-.313672.791674-.941047v-6.212744c-.000034-.727694-.244775-1.361377-.734223-1.901051-.489515-.539636-1.123389-.809465-1.901626-.809483z"/></g></svg>