<svg height="14" viewBox="0 0 16 14" width="16" xmlns="http://www.w3.org/2000/svg"><g fill-rule="evenodd" transform="translate(0 -1039.3622)"><path d="m4.6304099 1048.2513h-4.6304099l.052925.2986.1234649.1073c1.0940142.9496 2.6886292 1.3205 4.1830857.9727l.2709344-1.3786" fill="#312e31"/><path d="m3.2577618 1047.5208h7.7615392l-.07056.4298c-.223718 1.3624-1.1864536 2.4288-2.4166975 2.6766-.9333541.1879-1.1910254 1.4139-.4490268 2.111h1.0311337v.624h-5.3624673l.00222-.624h.9502945l.1940899-.4896c.2078019-.5243.1777662-1.1268-.08068-1.6225-.2584873-.4959-.7145336-.8257-1.2284233-.8886l-.331418-2.2167" fill="#616068"/><path d="m3.7516831 1053.3622h5.3624673v-.624h-5.3624673z" fill="#807d87"/><path d="m3.1662587 1047.7529h8.0702303v-.3907h-8.0702303z" fill="#807d87"/><g fill="#3f3b3f"><path d="m7.9690764 1043.2109 1.471346-2.6877.8511226.4659-1.4714276 2.6878z"/><path d="m9.4404224 1040.5232.08435-.154c.312928-.5717.9070726-.933 1.5586376-.9478.104023 0 .19662.066.22588.1653.02922.1-.01228.2069-.101167.261-.288972.1757-.526483.4242-.688864.7209l-.227717.4205-.6425046.029-.208618-.4952"/><path d="m9.4676014 1042.4116.373162-.6817 1.0898996.5967-.373203.6817z"/></g><path d="m10.115778 1043.0007.570477-1.0421 4.915301 2.6908-.570558 1.0421z" fill="#882e1b"/><path d="m14.24215 1045.4007.689313-1.2592.937885.5134c.419685.2298-.269588 1.489-.689314 1.2592z" fill="#bc4c1f"/><path d="m8.2118929 1042.3139.8698955-1.5892 1.2332216.6751-.8700576 1.5892z" fill="#5c5b63"/><path d="m7.3571379 1043.6689.4777976-.8727 1.4068259.7702-.477757.8727z" fill="#78747e"/></g></svg>