<svg height="16" viewBox="0 0 11 16" width="11" xmlns="http://www.w3.org/2000/svg"><path d="m221.34215 85.254c-9.026 0-16.281 8.660882-16.281 17.62058v83.72805h-49.47115c3.2312 58.438-.32874 198.65037 99.67106 229.15037v69.5c30.674 0 39.46988 3.5935 89.46988 0v-69.25c100-30.75 97.33206-162.09888 100.57706-229.40037h-49.83324v-83.72805c0-8.960198-7.2553-17.62058-16.281-17.62058-9.026 0-16.281 8.660882-16.281 17.62058v83.72805h-125.25861v-83.72805c0-8.960198-7.2865-17.62058-16.312-17.62058z" fill="#ffc100" transform="matrix(.03796796 0 0 .03984102 -5.907434 -3.396607)"/></svg>