<svg height="16" viewBox="0 0 16 16" width="16" xmlns="http://www.w3.org/2000/svg"><g stroke-linejoin="round" transform="matrix(.01631263 0 0 .01593162 -.511275 4.9407)"><path d="m796.8125 295.5c-.87575.0895-1.79246.40048-2.75.9375-6.26356 3.51284-1.11629 104.87666-27.09375 196.4375-8.97624-24.80427-42.99061-57.69588-89.78125-83.90625-63.24383-35.42684-125.80809-45.23801-139.65625-21.90625-13.84814 23.33175 26.22494 71.01067 89.46875 106.4375 53.2999 29.85661 106.01238 41.44166 129.59375 30.40625-6.78395 17.66096-14.85325 34.54151-24.90625 49.53125-65.83589 98.16593-173.25295 73.18272-176.15625 78.6875-30.59699 58.01098 126.47663 40.91594 192.3125-57.25 15.71762-23.43609 28.2892-53.68766 37.9375-85.90625.23459.41062.35958.88868.625 1.28125 15.19653 22.4768 75.41993 6.56112 134.4375-35.53125 59.01758-42.09238 94.57155-94.49195 79.37505-116.96875-15.19651-22.47681-75.41997-6.56113-134.43755 35.53125-29.57094 21.09053-53.26506 44.76238-67.625 65.96875 17.14781-84.21617 15.73377-165.49593-1.34375-163.75z" fill="#35e23e" stroke="#12892d" stroke-linecap="round" stroke-width="17.004999"/><g stroke="#f58006"><path d="m521.87211 275.23304c-43.01606-29.58772 2.17555-28.10945-47.10459-10.86759-26.51418 9.27664 3.60143 50.21506 11.5895 23.28462 14.8469-50.05381 27.40597-6.61722-4.22043-48.15739-17.01594-22.34985-46.64446 18.94247-18.56363 18.21761 52.19194-1.34723 14.76226 24.01979 44.49622-18.89531 15.99775-23.08961-32.42929-38.50798-23.06246-12.02552 17.40949 49.22117-18.28239 21.46227 31.7206 36.47944 26.9031 8.07969 26.60206-42.7417 4.31025-25.64979-41.43228 31.7676-26.0614-10.75537-24.8918 41.44086.62927 28.08312 48.87026 12.09215 25.72634-3.82693z" fill="#fa9806" stroke-width="4.02477" transform="matrix(4.224992 0 0 4.224992 -1287.368 -859.238)"/><circle cx="803.25099559232" cy="220.90408054272" fill="#fadc06" r="37.25355853558" stroke-width="17.00462105184"/></g></g><g fill-rule="evenodd" transform="matrix(-.06050089635 0 0 .06053604102 3.19168157262 -55.21526066627)"><path d="m-51.828379 1071.3403 67.977332 24.832-21.4346664 58.6666-46.4053316 21.572-21.569333-46.4026z" fill="#5f6062"/><path d="m34.546282 912.10555 18.208 6.6533-69.621328 190.57475-18.205333-6.652z" fill="#945d29"/><path d="m-31.395046 1078.8029 27.1093326 9.9027-8.0559996 22.0533c-2.724 7.4534-11.050666 11.324-18.506666 8.6014-7.456-2.724-11.325333-11.0494-8.604-18.5067z" fill="#1d1c1c"/></g></svg>