<svg height="16" width="11" xmlns="http://www.w3.org/2000/svg" xmlns:xlink="http://www.w3.org/1999/xlink"><linearGradient id="a" gradientUnits="userSpaceOnUse" x1="123.23861" x2="636.39612" y1="519.00165" y2="523.04224"><stop offset="0" stop-color="#2b1100"/><stop offset=".22647026" stop-color="#520"/><stop offset=".43320349" stop-color="#a40"/><stop offset=".63955581" stop-color="#d45500"/><stop offset=".82512945" stop-color="#ff7f2a"/><stop offset="1" stop-color="#f95"/></linearGradient><radialGradient id="b" cx="357.27026" cy="253.28195" gradientTransform="matrix(1.5853452 -.05837025 .01233656 .4883433 -212.19091 101.44674)" gradientUnits="userSpaceOnUse" r="164.13457"><stop offset="0" stop-color="#0c0a09"/><stop offset="1" stop-color="#f95"/></radialGradient><linearGradient id="c" gradientUnits="userSpaceOnUse" x1="193.87831" x2="863.72003" y1="599.30231" y2="572.76416"><stop offset="0"/><stop offset="1" stop-opacity="0"/></linearGradient><g stroke="#000" transform="matrix(.01948035 0 0 .01911645 -2.30249 -2.67038)"><path d="m595.04177 168.91751c-47.90783 20.23011-136.57236 19.70214-194.51047 22.92619-63.14946 2.05735-180.95693-3.92308-198.92304-25.1481 32.99448 18.17822 46.3775 64.88217 61.01679 95.74185 3.41113 54.8983 5.91028 109.34061-4.0313 157.56255-112.20134 41.40137-133.67824 100.96021-139.40625 163.65625 5.38748 167.20627 158.26273 363.51016 220.21875 392l59.78125-.0625h2.6875l59.78125.0625c61.95602-28.48984 214.83127-224.79373 220.21875-392-5.72801-62.69604-27.20491-122.25488-139.40625-163.65625-14.30595-49.93048-5.28884-104.52557-4.0625-157.5625 19.95985-42.82078 30.94353-79.10788 56.63552-93.51999z" fill="url(#a)" stroke-width="2"/><path d="m238.875 209.90625c9.61094 18.02889 16.70738 37.68538 23.75 52.53125l1.65505 17.25c95.20763 20.97427 182.30755 17.01975 272.14104.375l1.98516-17.625c7.04347-14.84766 14.12925-34.5016 23.75-52.53125-102.66091 22.94777-209.85163 25.5114-323.28125 0zm-111.1875 327.28125c-4.62803 15.13607-7.05902 30.69646-8.5 46.46875.53158 16.49818 2.51314 33.28065 5.6875 50.15625 183.8125 29.09303 367.625 34.69533 551.4375-.75 3.09256-16.62437 5.03875-33.15097 5.5625-49.40625-1.44098-15.77229-3.87197-31.33268-8.5-46.46875-184.70747 30.92803-366.36533 28.31031-545.6875 0zm88.59375 307.09375c44.60909 67.29729 93.94452 117.95665 123.125 131.375l59.78125-.0625h2.6875l59.78125.0625c29.18048-13.41835 78.51591-64.07771 123.125-131.375-106.23212 26.08762-224.66445 33.00348-368.5 0z" fill="url(#c)"/><ellipse cx="356.58386" cy="174.53963" fill="url(#b)" rx="162.63457" ry="25.253813" stroke-width="3" transform="matrix(1.207256 0 0 1 -32.115934 -8.08122)"/></g></svg>