<svg height="8" viewBox="0 0 16 8" width="16" xmlns="http://www.w3.org/2000/svg"><g stroke="#000" stroke-width=".079124" transform="translate(0 -1044.36)"><path d="m11.864662 1044.3998c-.78695 0-1.57011.2196-2.2355096.6744-.39599.2707-.72489.608-1.00846.992-.18968.2568-.35365.6215-.688027.7212-.289168.086-.508155-.2291-.797323-.1846-.210687.032-.162806.2926-.340289.3692-.100846.043-.708451.2473-.7849.2265-.151338-.041-.205398-.2318-.385002-.2191-.236831.017-.312463.3086-.524097.3594-.190623.046-.32771-.223-.464487-.3102-.313891-.2001-.614576.081-.755099.3446-.221886-.1147-.351439-.427-.611034-.448-.244961-.02-.401906.2552-.608545.2314-.331954-.038-.546273-.3472-.946343-.2264-.471058.1421-.89402296.7554-1.27422596 1.0559-.14795.117-.375092.2552-.399906.4603-.02719.2249.273496.5436.419774.6942.269806.2776.94144596.1452 1.30156896.1452 1.195948 0 2.38602.093 3.579274.094.484591.0001 1.499915-.2333 1.507669.4209l.849457.034.658225.2929c.10381.5702.67196 1.0804 1.12518 1.4055 1.3621296.977 3.3750496 1.093 4.7615896.071 1.25929-.9278 1.88583-2.4403 1.67663-3.9777-.0585-.4296-.34797-.8181-.40487-1.2332-.40466-.3845-.66614-.8642-1.13261-1.1987-.7294-.5231-1.62676-.7978-2.51866-.7951zm1.977487 1.9028c.71647 0 1.171798.8571 1.171798 2.1061 0 1.2489-.455318 2.0021-1.171798 2.0021-.71647 0-1.1406-.8051-1.1406-2.0541s.42412-2.0541 1.1406-2.0541z" fill="#f00"/><path d="m1.3224884 1048.5355c8.505994.073 8.519864-.6897-.114796-.682" fill="none"/></g></svg>