<svg height="16" viewBox="0 0 12 16" width="12" xmlns="http://www.w3.org/2000/svg" xmlns:xlink="http://www.w3.org/1999/xlink"><filter id="a" color-interpolation-filters="sRGB" height="2.94" width="1.2739" x="-.13694" y="-.97"><feGaussianBlur stdDeviation="4.1776055"/></filter><filter id="b" color-interpolation-filters="sRGB"><feGaussianBlur stdDeviation="3.2650212"/></filter><filter id="c" color-interpolation-filters="sRGB" height="1.1552" width="3.2246" x="-1.1123" y="-.077583"><feGaussianBlur stdDeviation="4.1044441"/></filter><filter id="d" color-interpolation-filters="sRGB" height="1.0217" width="1.4681" x="-.23407" y="-.010848"><feGaussianBlur stdDeviation="1.037628"/></filter><filter id="e" color-interpolation-filters="sRGB" height="1.0213" width="1.2582" x="-.12909" y="-.010647"><feGaussianBlur stdDeviation="1.037628"/></filter><filter id="f" color-interpolation-filters="sRGB" height="1.0654" width="1.6075" x="-.30377" y="-.032683"><feGaussianBlur stdDeviation="2.1645993"/></filter><filter id="g" color-interpolation-filters="sRGB" height="1.047" width="1.7653" x="-.38265" y="-.02349"><feGaussianBlur stdDeviation="2.670959"/></filter><filter id="h" color-interpolation-filters="sRGB" height="1.037" width="1.494" x="-.24702" y="-.018502"><feGaussianBlur stdDeviation="2.829191"/></filter><filter id="i" color-interpolation-filters="sRGB" height="1.2564" width="2.2071" x="-.60354" y="-.1282"><feGaussianBlur stdDeviation="2.8678247"/></filter><filter id="j" color-interpolation-filters="sRGB" height="1.3581" width="1.1176" x="-.0588" y="-.17903"><feGaussianBlur stdDeviation="19.043014"/></filter><filter id="k" color-interpolation-filters="sRGB"><feGaussianBlur stdDeviation="12.322873"/></filter><filter id="l" color-interpolation-filters="sRGB" height="1.2382" width="1.7708" x="-.38538" y="-.1191"><feGaussianBlur stdDeviation="23.090638"/></filter><linearGradient id="m" gradientTransform="matrix(.01502804 0 0 .01604687 25.853839 827.96121)" gradientUnits="userSpaceOnUse" x1="-61.349998" x2="82.447998" y1="463.91" y2="463.91"><stop offset="0" stop-color="#ffbd55"/><stop offset=".3" stop-color="#cd7b44"/><stop offset=".54966" stop-color="#d19829"/><stop offset=".79931"/><stop offset="1" stop-color="#ffc155"/></linearGradient><linearGradient id="n" gradientTransform="matrix(.01502804 0 0 .01604687 25.853839 827.96121)" gradientUnits="userSpaceOnUse" x1="-49.422001" x2="69.258003" y1="451.98999" y2="451.98999"><stop offset="0" stop-color="#2c2f33"/><stop offset=".024" stop-color="#959799"/><stop offset=".048" stop-color="#fff"/><stop offset=".11406" stop-color="#2d2d2d"/><stop offset=".21069" stop-color="#adadae"/><stop offset=".28078" stop-color="#898989"/><stop offset=".40167" stop-color="#fff"/><stop offset=".64231" stop-color="#fff"/><stop offset=".86118"/><stop offset=".94329" stop-color="#fff"/><stop offset="1"/></linearGradient><linearGradient id="o" gradientTransform="matrix(.01502804 0 0 .01604687 25.853839 827.96121)" gradientUnits="userSpaceOnUse" x1="63.104" x2="63.104" y1="-276.88" y2="-25.188999"><stop offset="0" stop-color="#fff"/><stop offset=".15" stop-color="#f8f8d5"/><stop offset=".57519" stop-color="#a29e89"/><stop offset=".80602" stop-color="#bfb69a"/><stop offset=".91598" stop-color="#eeeebe"/><stop offset="1" stop-color="#fff"/></linearGradient><g transform="translate(-19.691 -823.66114)"><rect fill="#b3b3b3" filter="url(#j)" height="255.28999" rx="49.098" ry="93.403" transform="matrix(.01368437 0 0 .01341039 20.00755 824.59424)" width="777.27002" x="34.588001" y="-7.7351"/><path d="m426.17 456.7h119.33c19.45 154.41 14.645 302.88.2703 457.3-41.636 12.659-79.246 8.247-118.79.8111-13.975-154.41-18.601-303.69-.81106-458.11z" fill="#666" filter="url(#l)" transform="matrix(.0108859 0 0 .01688333 21.054394 823.56031)"/><path d="m99.764 134.92c-28.563 0-49.656 26.332-49.656 56.062v106.12c0 29.731 21.093 56.031 49.656 56.031h301.5c23.058 0 36.233 4.7943 43.5 11.5 7.2667 6.7058 10.969 16.889 10.969 34l.062 61.625 27-.031-.062-61.594v-.031c-.01-21.347-5.3933-40.651-19.656-53.812-14.27-13.168-35.049-18.656-61.812-18.656h-301.5c-11.522 0-22.656-11.623-22.656-29.031v-106.12c0-17.408 11.135-29.062 22.656-29.062h423.16v-27h-423.16z" fill="#ccc" filter="url(#k)" transform="matrix(.01379309 0 0 .01604687 19.640321 823.9417)"/><rect fill="url(#n)" height="9.09506" ry=".323327" stroke-width=".082013" width="1.78638" x="25.116051" y="830.66724"/><path d="m45.652 180.66c0 2.8543-14.698-5.7295-34.916-5.7295-32.567 0-34.745 25.455-41.006 25.19-2.4241-.10284-.86439-38.25 40.837-35.137 20.207 1.5088 35.085 4.6491 35.085 15.677z" fill="#fff" filter="url(#a)" transform="matrix(.01971225 0 0 .01037389 25.833999 829.08754)"/><path d="m20.442796 825.44681c-.429245 0-.746235.42253-.746235.89956v1.70302c0 .47705.31699.89915.746235.89915h4.530951c.346522 0 .544517.077.653717.18454.109201.1076.164837.27102.164837.5456l.000939.98892.405753-.00053-.000938-.98839v-.00051c-.000073-.34256-.08105-.65232-.295393-.8635-.214447-.2113-.526716-.29937-.928904-.29937h-4.530951c-.173147 0-.340484-.18651-.340484-.46585v-1.703c0-.27936.167337-.46637.340484-.46637h10.795423v-.43324h-10.795423z" stroke-width=".082013"/><path d="m781.7 97.401c-237.4.23749-474.84-.16911-712.25.21875-23.369 2.2736-39.727 26.327-38.076 48.969-.39642 37.585-.51427 75.224.23226 112.78 2.4929 21.387 20.996 41.917 43.531 40.356 95.285.20258 190.59-.58711 285.88.27198 18.99.3521 39.64-1.8231 56.375 9.0591 12.329 6.8164 17.719 20.963 18.872 34.336 1.1809 23.642.44642 54.32 1.0966 75.992l10.719.0489-.79265-74.183c-.0783-7.3321-1.9233-14.522-4.1448-21.601-7.2588-18.772-25.832-31.125-45.5-33-28.933-4.5637-58.425-.41465-87.594-1.997-81.083-.33177-162.25.89916-243.28-.72172-18.098-4.6063-26.872-25.305-24.611-42.719.79876-37.31-1.7771-74.818 1.4862-112 3.8996-15.669 20.151-27.828 36.5-24.75 234.22-.0625 468.69.125 702.75-.0937-.58755-3.3702 1.9433-8.2067-.15625-10.937-.33018-.1077-.69388-.0744-1.0312-.0312z" fill="#fff" filter="url(#b)" transform="matrix(.01502804 0 0 .01604687 19.400714 823.9417)"/><rect fill="url(#o)" height="4.096591" rx=".737838" ry="1.498838" stroke-width=".082013" width="11.681152" x="19.920483" y="823.50189"/><path d="m25.10613 831.67233h1.793285c.292291 2.47782.220084 4.86027.0041 7.33815-.625701.20318-1.190894.13238-1.785188.0134-.210021-2.47789-.279546-4.87338-.01219-7.35114z" fill="url(#m)" stroke-width=".082013"/><path d="m439.17 487.01h7.1576c-8.4859 8.9501-6.5044 32.321-9.7148 53.689-1.3723-17.915-3.9847-36.366 2.5572-53.689z" fill="#fc0" filter="url(#i)" transform="matrix(.01502804 0 0 .01604687 19.400714 823.9417)"/><g fill="#c87137"><path d="m393.6 482.68h12.108c-3.345 26.498-8.8476 95.689-16.433 158.95-1.9116-52.984.50524-105.97 4.3257-158.95z" filter="url(#f)" opacity=".81667" transform="matrix(.01502804 0 0 .01604687 19.400714 823.9417)"/><path d="m434.22 946.74h12.108c-14.354-38.99-11.003-140.8-16.433-233.89-2.3214 78.047-6.7404 158.42 4.3257 233.89z" filter="url(#e)" transform="matrix(.01502804 0 0 .01604687 19.400714 823.9417)"/><path d="m480.24 487.27h-12.108c15.983 38.861 24.555 220.56 15.352 366.98 19.755-137.83 13.012-286.47-3.2443-366.98z" filter="url(#h)" opacity=".55833" transform="matrix(.01502804 0 0 .01604687 19.400714 823.9417)"/></g><path d="m439.65 946.74h6.6776c-7.9169-38.269-6.0683-138.2-9.0634-229.56-1.2803 76.603-3.7175 155.49 2.3857 229.56z" fill="#fc0" filter="url(#d)" opacity=".52083" transform="matrix(.01502804 0 0 .01604687 19.400714 823.9417)"/><path d="m472.39 487.27h-5.3392c7.0482 29.242 17.317 162.72 13.258 272.9 8.7116-103.71-.75019-212.32-7.9192-272.9z" fill="#fc0" filter="url(#g)" transform="matrix(.01502804 0 0 .01604687 19.400714 823.9417)"/><path d="m42.898 176.9c0 2.8543-20.207-4.4749-40.425-4.4749-20.277 0-38.737 9.4161-44.608 5.1158-2.4241-1.7756 2.5119-14.411 44.227-12.136 19.995 1.0906 40.806.46705 40.806 11.495z" filter="url(#a)" transform="matrix(-.01917492 0 0 -.01037389 26.041464 833.4859)"/><path d="m-37.824 392.25h7.1576c-8.4859 21.029-6.5044 75.939-9.7148 126.14-1.3723-42.093-3.9847-85.442 2.5572-126.14z" fill="#fc0" filter="url(#c)" transform="matrix(.02404486 .00149451 .0012809 -.02805469 25.72987 848.10822)"/></g></svg>