<svg height="15" viewBox="0 0 16 15" width="16" xmlns="http://www.w3.org/2000/svg"><g stroke-linejoin="round"><path d="m9.6174516 1.2526462s-.2994864.039654-.2642048.4905771v2.1712904c0 .2775664-.013362.5185358.2642048.5185358h1.3182504v1.4011756h-9.1911752c-.2773527 0-.5002861.2231205-.5002861.5004194v6.9308795c0 .277565.2229334.500419.5004194.500419h12.5107579c.2773 0 .500153-.222854.500153-.500419v-6.9308795c0-.2772989-.222853-.5004194-.500153-.5004194h-.901021v-1.4011756h.901021c.2773 0 .500153-.2311271.500153-.5086935v-2.1712904c0-.2774861-.222853-.5004194-.500153-.5004194h-4.6378332zm-6.0129652 2.8287076c-.7739824 0-1.4011216.6271921-1.4011216 1.4011746h2.8023501c0-.7739825-.6271921-1.4011746-1.4011746-1.4011746z" fill="none" stroke="#fff" stroke-linecap="round" stroke-width="2.168485"/><g fill-rule="evenodd" stroke="#000"><path d="m13.218429 4.0866887v2.1851462h-2.37234v-2.1851462" fill="#476cb3" stroke-linecap="round" stroke-width=".817012"/><path d="m9.9631926 1.4310804c-.2719027 0-.4907309.2188282-.4907309.4906781v1.898173c0 .2719008.2188282.49073.4907309.49073h4.1381314c.271902 0 .49073-.2188292.49073-.49073v-1.898173c0-.2718499-.218828-.4906781-.49073-.4906781z" fill="#ffe940" stroke-linecap="round" stroke-width=".817012"/><path d="m2.1390279 5.638779c0-.7581869.615334-1.3736256 1.3735728-1.3736256.7581868 0 1.3733644.6154387 1.3733644 1.3736256" stroke-linecap="round" stroke-width=".817012"/><path d="m1.8726845 5.9591172c-.2718231 0-.4906512.2188281-.4906512.4907299v6.7915239c0 .271902.2188281.49073.4906512.49073h12.2543915c.271902 0 .49073-.218828.49073-.49073v-6.7915239c0-.2719018-.218828-.4907299-.49073-.4907299z" fill="#476cb3" stroke-linecap="round" stroke-width=".817012"/><path d="m10.499428 9.9011698c0 1.3797572-1.1197653 2.4995212-2.499522 2.4995212-1.3797566 0-2.4995217-1.119764-2.4995217-2.4995212 0-1.3795248 1.1197651-2.4992905 2.4995217-2.4992905 1.3797567 0 2.499522 1.1197657 2.499522 2.4992905z" fill="#5e8fcb" stroke-width=".702259"/><path d="m9.1417197 9.9290127c0 .6304183-.5113961 1.1420353-1.1418137 1.1420353s-1.1418137-.511617-1.1418137-1.1420353c0-.6301957.5113961-1.1418136 1.1418137-1.1418136s1.1418137.5116179 1.1418137 1.1418136z" stroke-width=".27757"/></g></g></svg>