<svg height="16" viewBox="0 0 13 16" width="13" xmlns="http://www.w3.org/2000/svg" xmlns:xlink="http://www.w3.org/1999/xlink"><linearGradient id="a"><stop offset="0" stop-color="#009a11"/><stop offset="1" stop-color="#00cb17"/></linearGradient><linearGradient id="b" gradientTransform="matrix(.02853817 0 0 .02749137 -720.96285 617.04918)" gradientUnits="userSpaceOnUse" x1="-742.14001" x2="-286.42999" xlink:href="#a" y1="139.50999" y2="139.50999"/><linearGradient id="c" gradientTransform="matrix(.02256855 0 0 .06968035 -723.96015 618.96697)" gradientUnits="userSpaceOnUse" x1="-742.14001" x2="-286.42999" xlink:href="#a" y1="139.50999" y2="139.50999"/><g transform="translate(742.13968 -618.50493)"><path d="m-740.59631 623.01385h10.059224v11.347969h-10.059224z" fill="url(#c)" stroke="#005e04" stroke-linejoin="round" stroke-width=".283976"/><path d="m-741.99945 618.64575h12.719748v4.477245h-12.719748z" fill="url(#b)" stroke="#005e04" stroke-linejoin="round" stroke-width=".280099"/><g fill="#00d818"><path d="m-734.31494 618.78326h1.957604v4.192434h-1.957604z"/><path d="m-731.84448 618.78326h.775325v4.192434h-.775325z"/><path d="m-734.91766 623.27881h2.012549v10.906265h-2.012549z"/><path d="m-732.37756 623.27881h.797086v10.906265h-.797086z"/></g><path d="m-741.8468 618.78381h1.46769v4.196833h-1.46769z" fill="#00820e"/><path d="m-740.43939 623.26947h1.508884v10.949693h-1.508884z" fill="#00820e"/><path d="m-742.06482 618.68164h.461234v4.304324h-.461234z" fill="#005e04"/><path d="m-740.72015 623.21698h.70263v11.07833h-.70263z" fill="#005e04"/><path d="m-740.02032 618.78381h.228077v4.196833h-.228077z" fill="#00820e"/><path d="m-738.6109 623.26337h.234479v10.956841h-.234479z" fill="#00820e"/></g></svg>