<svg height="160" width="160" xmlns="http://www.w3.org/2000/svg" xmlns:xlink="http://www.w3.org/1999/xlink"><linearGradient id="a" gradientUnits="userSpaceOnUse" x1="69.190392" x2="333.44928" y1="99.568954" y2="457.06537"><stop offset="0" stop-color="#888a85"/><stop offset="1" stop-color="#d3d7cf"/></linearGradient><linearGradient id="b" gradientUnits="userSpaceOnUse" x1="-45.709007" x2="-145.90927" y1="267.43243" y2="146.808"><stop offset="0" stop-color="#fff"/><stop offset="1" stop-color="#fff" stop-opacity="0"/></linearGradient><g transform="matrix(.34579636 0 0 .34724585 -5.98844 -7.65539)"><path d="m247.56629 24.345646-50.9375 21.71875-22.46875 41.59375s-.30193.41959-.78125 1.03125c-4.72196 2.26844-9.33001 4.74888-13.8125 7.40625-.43624.0297-.88763.0625-1.34375.0625-11.39238 0-18.15625-10.75-18.15625-10.75l.75-14.625-6.5625-14.96875-32.375 42.6875v52.031254s-4.414469 12.13879-14.156254 13.875c-9.97653 1.79472-16.96875-3.4375-16.96875-3.4375l-2.90625-8.21875-17.09375-14.40625-6.46875 55.34375 22.21875 41.96875s5.53609 11.30702 1.46875 17.46875c-6.194896 9.38483-17.75 8.34375-17.75 8.34375l-28.71875-9.78125 18.53125 49.65625 41.4375 25.03125s11.478902 6.95717 10.3125 17.0625c-.7017 12.94051-11.09375 15.5-11.09375 15.5l-11.65625-.125-17.875 6.625 43.96875 34.53125 49.687504 1.09375s13.95797 1.49711 13.71875 16c-.0978 5.92798-5.28125 12.84375-5.28125 12.84375l-17.875 19.1875 53.625 7.4375 40.03125-22.625c-.10575-.15863 13.52448-5.71117 20.71875 1.09375 5.11529 4.83846 7.96875 15.5625 7.96875 15.5625l-5.9375 9.65625-2.78125 18.6875 49.90625-19.59375 22.78125-39.84375s6.5001-11.13239 19.59375-10.5625c7.65057.33298 15.34375 9.875 15.34375 9.875l-1.03125 13.5 7.40625 16.15625 32.84375-41.84375-.25-48.03125s1.22616-17.41269 13.46875-20.96875c7.03747-2.04415 15.625 5.71875 15.625 5.71875l7.4375 11.65625 12.96875 10.3125 7.40625-56.125-22.53125-36.9375s-7.72513-18.73165 1.1875-25.8125c7.26897-5.77501 14.71875-4.53125 14.71875-4.53125l9.03125 5.84375 20.90625 4.75-22.5-53.21875-36.5625-19s-12.64392-11.96202-12.375-23.78125c.15921-6.99756 10.59375-12.09375 10.59375-12.09375l13.6875.75 16.09375-7.65625-41.6875-32.59375h-46.78125s-16.61523-5.369173-19.9375-12.468754c-4.34895-9.293572 4.46875-19 4.46875-19l9.1875-3.9375 12.34375-15.34375-55.8125-7.125-39.4375 24.75c-5.23291-.45746-10.52336-.71875-15.875-.71875-1.88912 0-3.78115.036-5.65625.0937-8.05223-6.43364-7-17.5625-7-17.5625l6.9375-11.25 2.0625-17.96875zm3.65625 176.687504c27.61424 0 50 22.38576 50 50s-22.38576 50-50 50-50-22.38576-50-50 22.38576-50 50-50z" fill="url(#a)" stroke="#2e3436" stroke-width="5"/><circle cx="-91.199287" cy="210.57761" fill="none" r="57.051609" stroke="url(#b)" stroke-linecap="square" stroke-width="5.18651" transform="matrix(.96403942 0 0 .96403942 339.32975 49.12176)"/></g></svg>