<svg enable-background="new 0 0 720 720" height="16" viewBox="0 0 8 16" width="8" xmlns="http://www.w3.org/2000/svg"><g stroke-width=".048732"><path d="m7.3954357 9.73635c-1.813891-1.03069-.5904514-2.46044-.5904514-2.46044h-.00048c.4857438-.37687.8974199-.91709 1.0918979-1.69212.6679822-2.66197-2.1151908-4.56708-2.1151908-4.56708s-.7422443-.33927-.853546-.65245c-.1113132-.31313-.3339968-.36536-.5566347-.36536h-.3710706-.3710707c-.2226379 0-.4452986.0522-.556589.36536-.111313.31318-.8535459.65245-.8535459.65245s-2.783173 1.90511-2.11524804 4.56708c.19448954.77503.60616555 1.31525 1.09189794 1.69212h-.0004228s1.2234509 1.42975-.59050857 2.46049c-.46313836.23512-.77708961.53523-.50096657.87539.055428.0682.12861589.13037.21580362.1873.34228239.66583.92653952 2.18189-.081942 3.3542h.72933007s.48086375-.60013.63421085-1.61003c.3006485 1.01599.3912648 2.34897-.5617659 3.45674h.9940703s1.4745572-1.83995.7051703-4.64504c.7016389.0529 1.261645.0473 1.261645.0473s.5599946.006 1.2616448-.0473c-.7693983 2.80509.7051703 4.64504.7051703 4.64504h.9940132c-.9530307-1.10777-.8624144-2.44071-.5617659-3.45674.1532899 1.0099.634211 1.61003.634211 1.61003h.7293301c-1.0085503-1.17231-.4242816-2.68833-.0819422-3.3542.087199-.0569.1604442-.11912.2157466-.1873.276283-.3402-.0376-.64031-.5008637-.87544zm-3.024405-.85073h-.3710706-.3710707c-.2226379 0-.4452986.0161-.556589.11295-.111313.0968-.8535459.20165-.8535459.20165s-.017371.004-.049142.0109c.2435972-.31344.4452295-.75499.3161565-1.29143.8149635.24411 1.5142025.22166 1.5142025.22166s.6992389.0224 1.5142139-.22166c-.1290959.5364.072571.97799.316134 1.29143-.031656-.007-.049028-.0109-.049028-.0109s-.7422557-.10485-.853546-.20165c-.1114276-.0968-.334054-.11295-.5566917-.11295z" fill="#c07e2a"/><g fill="#be1e2d"><path d="m5.2897076 9.36957s-.5374005-.0759-.6179712-.14601c-.0805706-.0701-.2418262-.0818-.4030247-.0818h-.2687059-.2686945c-.1612556 0-.322454.0117-.4030818.0818-.080571.0701-.6179712.14601-.6179712.14601s-2.01527186.42639-1.5316194 1.02207c.4836982.59573 2.8213669.5724 2.8213669.5724s2.3376802.0233 2.8213898-.5724c.4835838-.59568-1.531688-1.02207-1.531688-1.02207z"/><path d="m5.4560946 1.62906s-.6067027-.27735-.6977418-.53337c-.0909707-.25602-.2729917-.29869-.45507-.29869h-.3033799-.3033228c-.1820324 0-.3640193.0427-.4550127.29869-.090971.25602-.6977418.53337-.6977418.53337s-2.27516646 1.5574-1.72911461 3.73347c.54606321 2.17606 3.18519191 2.09073 3.18519191 2.09073s2.6391745.0853 3.1852378-2.09073c.5460517-2.17611-1.7290461-3.73347-1.7290461-3.73347z"/></g></g></svg>