<svg height="480" width="395.39337" xmlns="http://www.w3.org/2000/svg"><path d="m0 0h395.39337v480h-395.39337z" fill="#fff"/><g transform="translate(20 24.940002)"><path d="m179.237 0c-40.255 0-95.849 11.502-118.853 21.087s-38.34 19.17-43.132 43.132l-17.252 132.841v183.045h29.712v28.705c0 35 51.218 35 51.218 0v-28.705h94.557.3 98.307v28.705c0 35 51.218 35 51.218 0v-28.705h29.712v-183.045l-17.252-132.841c-4.792-23.962-20.128-33.547-43.132-43.132s-78.598-21.087-118.853-21.087"/><g fill="#fff"><path d="m299.682 322.723c13.568 0 24.568-11.002 24.568-24.57s-11-24.57-24.568-24.57-24.569 11.002-24.569 24.57 11.001 24.57 24.569 24.57z"/><path d="m55.342 322.723c-13.568 0-24.568-11.002-24.568-24.57s11-24.57 24.568-24.57 24.569 11.002 24.569 24.57-11.001 24.57-24.569 24.57z"/><path d="m175.612 55.113h-71.136c-14.378 0-14.378-21.566 0-21.566h71.311 74.761c14.378 0 14.378 21.566 0 21.566z"/><path d="m175.612 76.887h-109.897c-15.188 0-19.156 7.717-21 19.423l-13.428 96.348c-1.252 9.235 1.419 18.402 14.178 18.402h130.322 133.772c12.759 0 15.43-9.167 14.178-18.402l-13.428-96.348c-1.844-11.706-5.812-19.423-21-19.423z"/></g></g></svg>