<svg height="16" width="16" xmlns="http://www.w3.org/2000/svg"><g transform="matrix(.02327946 0 0 .02714015 7.346054 2.684925)"><path d="m196.05775 418.2374h.0671 75.60036l55.22791 72.367h44.54661l-77.21144-103.518c25.7461-3.708 51.37472-27.708 51.37472-56.958v-213.858c0-30.192005-28.41782-57.906005-67.02466-57.906005l-82.26624-.048h.003l-82.89836.048c-38.606847 0-67.024669 27.714-67.024669 57.905995v213.858c0 29.25 25.628624 53.25 51.374724 56.958l-77.211447 103.518h44.546615l55.227907-72.367h75.60036.0671z"/><g transform="matrix(1.1188119 0 0 1 20.615738 18.940395)"><path d="m134.768 33.184c-9.165 0-16.591-7.428-16.591-16.593 0-9.163 7.426-16.591 16.591-16.591 9.163 0 16.591 7.428 16.591 16.591 0 9.165-7.428 16.593-16.591 16.593z"/><path d="m178.854 33.184c9.165 0 16.591-7.428 16.591-16.593 0-9.163-7.426-16.591-16.591-16.591-9.163 0-16.591 7.428-16.591 16.591 0 9.165 7.428 16.593 16.591 16.593z"/><g fill="#fff"><path d="m231.263 336.951c14.505 0 26.263-11.759 26.263-26.263 0-14.505-11.758-26.263-26.263-26.263s-26.263 11.758-26.263 26.263c0 14.504 11.758 26.263 26.263 26.263z"/><path d="m156.811 198.014h.06 71.751c16.5 0 30-11.326 29.848-29.826v-38.5c0-16-10.348-29.962-29.848-29.962h-71.751-.12-71.751c-19.5 0-29.848 13.962-29.848 29.962v38.5c-.152 18.5 13.348 29.826 29.848 29.826h71.751z"/><path d="m156.811 88.201h.06 29.001c5.5 0 9.816-4.513 9.816-9.763v-17c0-5.25-4.566-9.66-9.816-9.66h-29.001-.06-.06-29.001c-5.25 0-9.816 4.41-9.816 9.66v17c0 5.25 4.316 9.763 9.816 9.763h29.001z"/><path d="m81.75 336.951c-14.505 0-26.263-11.759-26.263-26.263 0-14.505 11.758-26.263 26.263-26.263s26.263 11.758 26.263 26.263c0 14.504-11.758 26.263-26.263 26.263z"/></g></g></g><g fill-rule="evenodd"><path d="m0 14h6v2h-6z"/><path d="m0 13h8v1h-8z"/></g></svg>