<svg height="16" viewBox="0 0 16 16" width="16" xmlns="http://www.w3.org/2000/svg"><g transform="translate(-365 -666.36218)"><path d="m365 680.36218h7.000001v2h-7.000001z" fill="#434343"/><path d="m372 678.36218h9.000001v4h-9.000001z" fill="#434343"/><path d="m376.27309 678.34987c-.16434-.0525-.29449-.1707-.33166-.30112-.0148-.052-.0219-1.11512-.022-3.30608l-.00012-3.22947h-.0832-.0832v1.21906c0 1.19507-.00085 1.22052-.043 1.29281-.0546.0936-.11603.1375-.23614.1688-.17758.0463-.37178-.0421-.44152-.20088-.0449-.10217-.042-2.82715.003-2.99607.10182-.38077.43146-.69271.81595-.77209.20254-.0418 2.07512-.0423 2.27705-.00062.2057.0425.38237.13855.5387.29296.16079.15881.23585.28765.29184.50092.039.14865.0412.22826.0412 1.5231 0 1.18364-.004 1.37624-.032 1.44092-.0431.10056-.0876.14578-.18655.19009-.16435.0735-.37323.0262-.4704-.10652l-.05-.0683-.006-1.24211-.006-1.2421h-.0828-.0828v3.24533c0 3.5575.008 3.32129-.12079 3.45376-.10192.10465-.2059.14423-.37878.14423s-.27684-.0396-.37878-.14423c-.12654-.12989-.1208-.0292-.1208-2.11532v-1.90691h-.0832-.0832v1.90691c0 1.554-.005 1.91898-.0281 1.97216-.042.0975-.13316.19362-.22893.24122-.0923.0459-.30184.0672-.38842.0395zm.46822-8.35239c-.25164-.0876-.40716-.22253-.51725-.44888-.061-.12528-.0653-.14935-.0653-.35782 0-.21093.004-.23098.0673-.3567.31729-.62793 1.23335-.62947 1.55012-.003.0656.12979.0687.14615.0687.36944 0 .21475-.005.24298-.0582.34908-.0898.17823-.22253.30819-.40378.39546-.14072.0678-.17645.0762-.34703.0819-.14313.005-.21596-.003-.2945-.0299z" fill="#734a08"/></g></svg>