<svg height="16" width="16" xmlns="http://www.w3.org/2000/svg"><path d="m11.549987 4.2299936c-1.014307 0-2.4151114.311845-2.9947441.5717158s-.9660546.5197416-1.0867988 1.169405l-.4346993 3.6016169v4.9627597h.7486545v.778257c0 .948928 1.2905419.948928 1.2905419 0v-.778257h2.3825568.0076 2.477045v.778257c0 .948928 1.290542.948928 1.290542 0v-.778257h.748655v-4.9627597l-.4347-3.6016169c-.120785-.6496634-.507207-.9095342-1.086839-1.169405-.579633-.2598708-1.980437-.5717158-2.994744-.5717158"/><g fill="#fff"><g transform="matrix(.02519704 0 0 .02711224 7.033745 4.229994)"><path d="m296.8254 328.69639c13.568 0 24.568-10.25901 24.568-22.91073s-11-22.91073-24.568-22.91073-24.569 10.25901-24.569 22.91073 11.001 22.91073 24.569 22.91073z"/><path d="m58.912774 326.70524c-13.568 0-24.568-9.96181-24.568-22.24703 0-12.28521 11-22.24702 24.568-22.24702s24.569 9.96181 24.569 22.24702c0 12.28522-11.001 22.24703-24.569 22.24703z"/></g><path d="m11.458647 5.7242305h-1.7924162c-.3622831 0-.3622831-.5847026 0-.5847026h1.7968262 1.883756c.362283 0 .362283.5847026 0 .5847026z"/><path d="m11.458647 6.3145724h-2.7690787c-.3826927 0-.4826745.2092252-.5291379.526601l-.3383458 2.6122101c-.0315467.2503816.0357546.4989195.3572436.4989195h3.2837288 3.370658c.321489 0 .388791-.2485379.357244-.4989195l-.338346-2.6122101c-.046463-.3173758-.146445-.526601-.529138-.526601z"/></g><path d="m0 14h5v2h-5z" fill-rule="evenodd"/><path d="m0 13h7v1h-7z" fill-rule="evenodd"/></svg>