<svg height="16" width="16" xmlns="http://www.w3.org/2000/svg"><g fill-rule="evenodd"><path d="m0 16h16v-16h-16z" fill="#fff"/><g transform="matrix(1.0308709 0 0 1.0490975 -.938408 -1.093982)"><path d="m1.866667 15.36v-.74667h1.013333v-.53333h1.493333v.53333h3.093334v-.53333h1.493333v.53333h1.813333v-2.142652h4.693334v2.889322z"/><path d="m3.36 13.81333a1.4933333 1.4933333 0 0 1 -1.493205-1.51288l.03292-2.51504a2.1333333 2.1333333 0 0 1 .03223-.34253l.131658-.74666a2.1333333 2.1333333 0 0 1 .122931-.42871l.746315-1.84719a.8.8 0 0 1 .227517-.31316l.000001.00001c.326844-.27426 1.159633-.61384 2.48422-.67418h.000005a1.401056 1.401056 0 0 0 -1.088953-1.01895h-.673527a.15284267.15284267 0 0 1 -.132366-.22927.15284267.15284267 0 0 1 .132366-.0764h4.075776a.15284267.15284267 0 0 1 .132366.22927.15284267.15284267 0 0 1 -.132366.0764h-.673527a1.401056 1.401056 0 0 0 -1.088953 1.01895h.000005c1.324587.0603 2.157376.39992 2.484224.67418l.000001-.00001a.8.8 0 0 1 .227517.31316l.746315 1.84719a2.1333333 2.1333333 0 0 1 .122931.42871l.131658.74666a2.1333333 2.1333333 0 0 1 .03223.34253l.03292 2.51504a1.4933333 1.4933333 0 0 1 -1.493209 1.51288z"/><g fill="#fff"><path d="m3.893333 12.26667a.50666667.50666667 0 0 0 -.76-.43879.50666667.50666667 0 0 0 0 .87757.50666667.50666667 0 0 0 .76-.43878z"/><path d="m8.96 12.26667a.50666667.50666667 0 0 0 -.76-.43879.50666667.50666667 0 0 0 0 .87757.50666667.50666667 0 0 0 .76-.43878z"/><path d="m6.426667 10.34667a.50666667.50666667 0 0 0 -.76-.43879.50666667.50666667 0 0 0 0 .87757.50666667.50666667 0 0 0 .76-.43878z"/><path d="m4.266667 8.5919-1.145444.10022a.32.32 0 0 1 -.324589-.43866l.482067-1.19315a.8.8 0 0 1 .416358-.43115h.000002c.389782-.17353 1.264939-.38916 2.224939-.38916s1.835157.21563 2.224939.38916h.000002a.8.8 0 0 1 .416358.43115l.482067 1.19315a.32.32 0 0 1 -.324589.43866l-1.145444-.10022c-.425045-.0372-1.12-.0586-1.653333-.0586s-1.228288.0214-1.653333.0586z"/><path d="m5.3 4.41404h1.239999a1.7067413 1.7067413 0 0 0 -.620005.87058h.000011a1.7067413 1.7067413 0 0 0 -.620004-.87058z"/></g></g></g></svg>