<svg viewBox="0 0 36 36" xmlns="http://www.w3.org/2000/svg"><path d="m1 17 8-7 16 1 1 16-7 8s.001-5.999-6-12-12-6-12-6z" fill="#a0041e"/><path d="m.973 35s-.036-7.979 2.985-11 11.042-2.813 11.042-2.813-.001 7.813-3.001 10.813-11.026 3-11.026 3z" fill="#ffac33"/><circle cx="8.999" cy="27" fill="#ffcc4d" r="4"/><path d="m35.999 0s-10 0-22 10c-6 5-6 14-4 16s11 2 16-4c10-12 10-22 10-22z" fill="#55acee"/><path d="m26.999 5c-1.623 0-3.013.971-3.641 2.36.502-.227 1.055-.36 1.641-.36 2.209 0 4 1.791 4 4 0 .586-.133 1.139-.359 1.64 1.389-.627 2.359-2.017 2.359-3.64 0-2.209-1.791-4-4-4z"/><path d="m8 28s0-4 1-5 13.001-10.999 14-10-9.001 13-10.001 14-4.999 1-4.999 1z" fill="#a0041e"/></svg>