<svg height="16" viewBox="0 0 15 16" width="15" xmlns="http://www.w3.org/2000/svg"><g transform="translate(0 -1036.3621)"><path d="m3.3636355 1038.3621c-1.3445635 0-2.3636355 1.0044-2.3636355 2.3333v8.1667c0 .707.6047586 1.1667 1.1818178 1.1667v2.3333h10.6363652v-2.3333c.561592 0 1.181817-.5156 1.181817-1.1667v-8.1667c0-1.3289-1.019072-2.3333-2.363636-2.3333z" fill="#fff"/><path d="m3.9999977 1039.3625c-1.137708 0-2 .8609-2 2v7c0 .606.511719 1 1 1v2h2.000001l.000001-2h5.0000013v2h2.000001v-2c.475194 0 1-.4419 1-1v-7c0-1.1391-.862292-2-2.000001-2z"/><g fill="#fff"><rect height="4.000022" rx="1" transform="scale(1 -1)" width="9.000002" x="2.999998" y="-1044.3621"/><ellipse cx="4" cy="-1047.3621" rx="1" ry="1.000004" transform="scale(1 -1)"/><ellipse cx="11.000001" cy="-1047.3621" rx="1" ry="1.000004" transform="scale(1 -1)"/><rect height="2" ry=".000079" width="9" x="3" y="1036.3623"/></g><rect height="2.000039" ry=".000039" width="7" x="4" y="1037.3621"/><rect fill="#ffe100" height="2.000039" rx="0" ry=".000039" width="5" x="5" y="1038.3621"/></g></svg>