<svg height="13" viewBox="0 0 16 13" width="16" xmlns="http://www.w3.org/2000/svg"><g transform="translate(-420 -569.3622)"><path d="m421 575.36218h14v7h-14z" fill="#fff"/><path d="m-420-575.36218a8 5.9999995 0 0 1 -4 5.19615 8 5.9999995 0 0 1 -8 0 8 5.9999995 0 0 1 -4-5.19615h8z" fill="#999" transform="scale(-1)"/><path d="m420 575.36218h1v7h-1z" fill="#999"/><path d="m435 575.36218h1v7h-1z" fill="#999"/><path d="m422.90909 576.3622c-.51714 0-.90909.43045-.90909 1v4c0 .616.3541 1 .90909 1h3.18182c.57005 0 .90909-.3619.90909-1v-4c0-.56955-.39195-1-.90909-1z"/><g fill="#fff"><rect height="2.000011" rx=".454546" ry=".5" transform="scale(1 -1)" width="4.09091" x="422.45453" y="-578.86206"/><circle cx="423.15454" cy="-580.66217" r=".7" transform="scale(1 -1)"/><circle cx="425.89886" cy="-580.66217" r=".7" transform="scale(1 -1)"/></g><path d="m429.90909 576.3622c-.51714 0-.90909.43045-.90909 1v4c0 .616.3541 1 .90909 1h3.18182c.57005 0 .90909-.3619.90909-1v-4c0-.56955-.39195-1-.90909-1z"/><rect fill="#fff" height="2.000011" rx=".454546" ry=".5" transform="scale(1 -1)" width="4.09091" x="429.45453" y="-578.86206"/><circle cx="430.15454" cy="-580.66217" fill="#fff" r=".7" transform="scale(1 -1)"/><circle cx="432.89886" cy="-580.66217" fill="#fff" r=".7" transform="scale(1 -1)"/></g></svg>