<svg height="16" width="14" xmlns="http://www.w3.org/2000/svg"><path d="m0 0h14v16h-14z" fill="#fff"/><g transform="matrix(.03216656 0 0 .02870469 .656508 1.007851)"><path d="m194.026 291.861h-.058-104.733v33.069c0 40.257-58.238 40.736-58.238 0v-33.069h-30.997v-103.56c0-27.796 22.358-42.485 34.984-44.088l31.874-81.397c6-15.5 19-28.748 43.5-28.748h45.539v-21.252c0-8.5 4.61-12.816 12.11-12.816h25.961.058-.062.059 26.461c7.5 0 12.11 4.316 12.11 12.816v21.252h45.016c24.5 0 37.5 13.248 43.5 28.748l31.874 81.397c12.626 1.603 35.007 16.292 35.007 44.088v103.56h-30.997v33.069c0 40.736-58.238 40.257-58.238 0v-33.069h-104.733-.059z"/><g fill="#fff"><path d="m193.964 142.296h-.059-125.921l23.998-62.98c3-9 7.502-15.5 18.002-15.597h83.921.059.059 83.963c10.5.097 15 6.597 18 15.597l23.998 62.98h-125.961z"/><path d="m61.043 228.552c-14.856 0-26.901-12.291-26.901-27.45s12.045-27.449 26.901-27.449 26.9 12.29 26.9 27.449-12.044 27.45-26.9 27.45z"/><path d="m326.926 228.552c14.856 0 26.9-12.291 26.9-27.45s-12.044-27.449-26.9-27.449-26.901 12.29-26.901 27.449 12.045 27.45 26.901 27.45z"/></g></g><g transform="matrix(.03718028 0 0 .02929435 -1.16009324693 -1.16747678221)"><path d="m83.23651 579.26282v-105.5746h-33.405445v-16.40969h85.313655v16.40969h-33.40545v105.5746h-18.50276z"/><path d="m128.57229 579.26283 44.5406-122.06802h15.23757l44.54059 122.06802h-19.42372l-9.37696-27.54484h-46.29878l-9.71185 27.54484h-19.50745zm34.66129-43.87081h35.33108c-2.56758-7.53501-4.59088-13.43747-6.06992-17.7074-1.47916-4.2698-2.76291-8.05128-3.85125-11.34446-1.08846-3.29302-2.19081-6.64193-3.30706-10.04675-1.11636-3.40464-2.59546-8.0094-4.43731-13.81428-1.95359 6.02814-3.51641 10.84221-4.68848 14.44221-1.17217 3.60016-2.30243 7.07466-3.39078 10.4235-1.08844 3.34898-2.34429 7.0886-3.76753 11.21887-1.42333 4.13039-3.36291 9.73982-5.81875 16.82831l0 0z"/><path d="m319.20817 579.26282-26.70761-45.37782-26.79133 45.37782h-20.84701l37.34042-62.54102-34.99618-59.44327h20.93073l24.36337 42.28008 24.27965-42.28008h20.93073l-34.99618 59.44327 37.42414 62.54102h-20.93073z"/><path d="m357.49438 579.26282v-121.98429h18.50277v121.98429h-18.50277z"/></g></svg>