<svg height="16" viewBox="0 0 15 16" width="15" xmlns="http://www.w3.org/2000/svg"><g transform="translate(0 -1036.3621)"><path d="m4.376685 1037.1121c-1.372083 0-2.376687.5446-2.376687 1.9962l.000002 12.2538h11.000001l.000001-12.2538c0-1.3422-1.035853-1.9962-2.376687-1.9962z" fill="#fff" stroke="#fff" stroke-linecap="round" stroke-linejoin="round" stroke-width="1.5"/><path d="m3.999999 1037.3621c-1.137708 0-2.0000013.8609-2.000001 2l.0000018 8c.0000002 1.232.7790292 2 2.0000002 2h7.000001c1.254116 0 2-.7238 2-2l.000001-8c0-1.1391-.862292-2-2.000001-2z"/><g fill="#fff" transform="scale(1 -1)"><rect height="4.000022" rx="1" width="9.000002" x="3" y="-1042.3618"/><ellipse cx="4" cy="-1046.3621" rx="1" ry="1.000004"/><ellipse cx="11" cy="-1046.3621" rx="1" ry="1.000004"/></g><rect fill="#c87137" height="2.000042" rx=".000055" width="15.000002" x="-.000001" y="1050.3622"/><rect height="2.000039" rx=".000055" ry=".00011" width="2" x="4" y="1049.3621"/><rect height="2.000039" rx=".000055" ry=".00011" width="2" x="9" y="1049.3621"/></g></svg>