<svg height="411.55203" width="811.34546" xmlns="http://www.w3.org/2000/svg"><path d="m0 0h811.34546v411.55203h-811.34546z" fill="#fff"/><g transform="translate(33.806061 26.564951)"><path d="m141.29386 64.772007 85.32714-56.2041685 83.47017 56.1588895-83.41226 56.184162z" fill="none" stroke="#000" stroke-width="7"/><g fill-rule="evenodd"><path d="m545.76835 224.85743c-1.21781 6.90104-6.26847 7.75147-10.08845 11.57145 7.84407-.0145 20.60217-.10126 20.6304-.82639l.41325-10.61305z"/><path d="m68.158738 321.23081c.296957 46.35986 66.699682 46.36071 66.699682.41687"/><path d="m205.72683 321.21721c.29696 46.35986 66.69968 46.36071 66.69968.41687"/><path d="m467.10621 321.21721c.29695 46.35986 66.69968 46.36071 66.69968.41687"/><path d="m605.09118 321.21721c.29696 46.35986 66.69968 46.36071 66.69968.41687"/><path d="m142.04948 342.38712h55.86098c-2.84312-4.92443-4.14019-10.14485-3.96029-20.84366h-47.00243c-.33274 10.84794-2.0335 15.88174-4.89826 20.84366z"/><path d="m541.10118 342.49133h55.86098c-2.84312-4.92443-4.14019-10.14485-3.96029-20.84366h-47.00243c-.33274 10.84794-2.0335 15.88174-4.89826 20.84366z"/><path d="m570.24997 144.88875c-5.20266 3.67303-10.00337 6.78009-10.00337 9.94023l.0608 129.10199c1.21781 6.90104 6.12263 8.04315 9.94261 11.86313l-23.73481-.18153-.29606-141.05182c0-2.79133-4.94253-6.05933-10.0435-9.66108l34.07437-.0109z"/><path d="m34.77654 124.52695h669.26028v21.11153h-669.082695z"/><path d="m405.02462 144.77233c5.20266 3.67303 10.00337 6.78009 10.00337 9.94023l-.0608 70.25496c-1.21781 6.90104-6.12263 8.04315-9.94261 11.86313h34.07437c-3.82864-3.82864-8.89453-4.73619-10.02759-11.69317l-.0159-70.69315c0-2.79133 4.94253-6.05933 10.0435-9.66108l-34.07437-.0109z"/><path d="m273.9892 144.66674c5.20266 3.67303 10.00337 6.78009 10.00337 9.94023l-.0608 70.25496c-1.21781 6.90104-6.12263 8.04315-9.94261 11.86313h34.07437c-3.82864-3.82864-8.89453-4.73619-10.02759-11.69317l-.0159-70.69315c0-2.79133 4.94253-6.05933 10.0435-9.66108l-34.07437-.0109z"/><path d="m143.85545 144.88875c5.20266 3.67303 10.00337 6.78009 10.00337 9.94023l-.0608 129.10199c-1.21781 6.90104-6.12263 8.04315-9.94261 11.86313l23.73481-.18153.29606-141.05182c0-2.79133 4.94253-6.05933 10.0435-9.66108l-34.07437-.0109z"/><path d="m628.05988 144.88875c5.20266 3.67303 10.00337 6.78009 10.00337 9.94023l-.0608 129.10199c-1.21781 6.90104-6.12263 8.04315-9.94261 11.86313l23.73481-.18153-.14581-150.6429-23.589-.0809z"/><path d="m112.14105 144.77017c-5.20266 3.67303-10.00337 6.78009-10.00337 9.94023l.0608 129.10199c1.21781 6.90104 6.12263 8.04315 9.94261 11.86313l-23.734811-.004.14581-150.82069 23.589001-.0809z"/><path d="m48.471006 144.5257-45.2526605 90.04234v54.62836c0 9.86566 11.6353775 20.14236 20.5169525 20.11466h692.748862c8.70568 0 20.51695-12.1808 20.51695-20.11466v-55.51646l-45.93352-89.50491h-13.15196l30.92496 60.94209c5.27567 19.88899-11.03294 28.47569-19.31007 31.38323l-38.94111-.16048.32096 59.2954h-103.79382v-59.29758h-380.16488v59.21625h-77.886574v-59.13709h-39.180741c-8.884597 0-23.886408-10.66321-18.507665-30.73695l30.102063-61.1542h-13.007747z"/><path d="m168.36959 224.926c1.21781 6.90104 6.26847 7.75147 10.08845 11.57145-7.84407-.0145-20.60217-.10126-20.6304-.82639l-.41325-10.61305z"/><path d="m298.81034 124.9591-7.14357-7.49204h-132.24318l-6.09816 7.3178z"/></g></g></svg>