<svg height="16" width="16" xmlns="http://www.w3.org/2000/svg"><path d="m1.792253.00176061c-1.14729917 0-1.792253.59215-1.792253 1.80201999v12.4719804c0 1.13171.57994055 1.72424 1.726228 1.72424h12.546522c1.146528 0 1.72725-.56291 1.72725-1.72424v-12.4719804c0-1.18038999-.580722-1.80201999-1.763142-1.80201999-.00008 0-12.4485419-.004-12.444605 0z" fill="#3274d7"/><g stroke="#fff" stroke-linecap="round" stroke-linejoin="round"><g transform="translate(6 1.999962)"><path d="m2.478544 11.578874v-8.0822h5.0753842v8.0822" fill="none" stroke-width="1.03558"/><path d="m2.833615 4.055426h4.292532v7.420784h-4.292532z" fill="#fff" opacity=".2" stroke-width="1.108252"/></g><path d="m1.3929143 3.6254839 4.1002521 3.0019997-.0122218-3.0124223" fill="none" stroke-width="1.232"/><path d="m1.3845781 3.5614666 4.0299397 3.1113747-2.9859564.9297784" fill="none" stroke-width="1.232"/></g></svg>