<svg height="725" width="725" xmlns="http://www.w3.org/2000/svg"><circle cx="362.5" cy="362.5" fill="#fff" r="350" stroke="#000" stroke-width="2.5"/><path d="m-176.30905 369.66949a309.2189 309.2189 0 1 1 -618.43781 0 309.2189 309.2189 0 1 1 618.43781 0z" fill="#039" transform="matrix(1.06121 0 0 1.06121 877.745 -29.7955)"/><path d="m308.46875 87.53125.15625 9.96875-.3125-9.75-104.28125 104.1875.125 75.78125 75.25-73.84375-.21875 434.71875 60.125-.0625-.09375-101c5.92084-41.76004 28.9925-70.56832 79.4375-81.03125-.00001-.00001 109.84375-.125 109.84375-.125l-73.28125 74.28125 76.75.21875 103.5-104.9375-9.96875.15625 9.75-.28125-104.1875-104.28125-75.75.09375 73.03125 73.25-105.5625-.71875c-32.93683 2.57531-60.24026 11.91219-83.6875 25.875l-.1875-215.53125 74.28125 73.28125.21875-76.75z" fill="#fff" fill-rule="evenodd"/></svg>