<svg height="945.59998" width="945.59998" xmlns="http://www.w3.org/2000/svg"><path d="m942.8 472.8c0-259.5738-210.42618-470-470-470-259.5739 0-470 210.4262-470 470 0 259.5739 210.4261 470 470 470 259.57382 0 470-210.4261 470-470z" fill="#c50000"/><path d="m106.8 472.8c0-202.1362 163.8638-366 366-366 202.13621 0 366.00001 163.8638 366.00001 366s-163.8638 366-366.00001 366c-202.1362 0-366-163.8638-366-366z" fill="#fff"/><path d="m121.0143 771.5526 53.033 53.033 650.53831-650.5382-53.033-53.033z" fill="#c50000"/><path d="m439.23834 204.28759-108.74546 106.35929 112.61162.55608c139.01327 5.82455 173.51318 124.45698 178.82914 159.0014v276.14862h-76.79267v-264.76754c0-12.80765-11.61087-82.73186-97.98084-97.27668l-118.63824.29657 110.79225 108.36118h-95.40339l-147.40705-144.20971h-.37904l.18952-.18536-.11365-.11115h.22742l147.44495-144.17264h95.36544z" fill-rule="evenodd"/></svg>