<svg height="945.59998" width="945.59998" xmlns="http://www.w3.org/2000/svg"><path d="m2.8 472.79998c0-259.57381 210.42618-469.99998 470-469.99998 259.5739 0 470 210.42617 470 469.99998 0 259.5739-210.4261 470-470 470-259.57382 0-470-210.4261-470-470z" fill="#c50000"/><path d="m838.8 472.79998c0-202.13618-163.8638-365.99997-366-365.99997-202.13621 0-366.00001 163.86379-366.00001 365.99997 0 202.1362 163.8638 366 366.00001 366 202.1362 0 366-163.8638 366-366z" fill="#fff"/><path d="m824.5857 771.55258-53.033 53.033-650.53831-650.5382 53.033-53.033z" fill="#c50000"/><path d="m469.45662 144.70847-212.24762 244.59051v112.346l167.42918-195.36124v497.15472h87.27801v-497.15472l167.42881 195.36124v-112.346"/></svg>