<svg height="725" width="725" xmlns="http://www.w3.org/2000/svg"><circle cx="362.5" cy="362.5" fill="#fff" r="350" stroke="#000" stroke-width="2.5" transform="matrix(-1 0 0 1 725 0)"/><path d="m34.355927 362.50146c0 181.23014 146.916053 328.14619 328.146193 328.14619s328.1462-146.91605 328.1462-328.14619-146.91606-328.146195-328.1462-328.146195-328.146193 146.916055-328.146193 328.146195z" fill="#039"/><g fill="#fff" fill-rule="evenodd"><path d="m252.18597 190.12946-83.46867 89.65625 86.43618.46875c106.70115 4.90984 133.18187 104.91181 137.26217 134.03125v232.78125h-58.94302v-223.1875c.00001-10.79629-8.91205-69.73935-75.20617-82l-91.06201.25 85.0397 91.34375h-73.22782l-113.143823-121.5625h-.290933l.145466-.15625-.087279-.09375h.174559l113.17292-121.53125z"/><path d="m471.70634 190.12946 83.46866 89.65625-86.43618.46875c-106.70114 4.90984-133.18186 104.91181-137.26216 134.03125v232.78125h58.94301v-223.1875c-.00001-10.79629 8.91206-69.73935 75.20617-82l91.06202.25-85.03971 91.34375h73.22783l113.14382-121.5625h.29094l-.14547-.15625.08728-.09375h-.17456l-113.17292-121.53125z"/></g></svg>