<svg height="725" width="725" xmlns="http://www.w3.org/2000/svg"><circle cx="362.5" cy="362.5" fill="#fff" r="350" stroke="#000" stroke-width="2.5"/><path d="m-176.30905 369.66949a309.2189 309.2189 0 1 1 -618.43781 0 309.2189 309.2189 0 1 1 618.43781 0z" fill="#039" transform="matrix(1.06121 0 0 1.06121 877.745 -29.7955)"/><path d="m383.65625 138.34375 89.65625 89.65625-92.84375.46875c-114.61097 4.90984-143.05472 104.91181-147.4375 134.03125v232.78125h63.3125v-223.1875c-.00001-10.79629 9.57271-69.73935 80.78125-82l97.8125.25-91.34375 91.34375h78.65625l121.53125-121.5625h.3125l-.15625-.15625.09375-.09375h-.1875l-121.5625-121.53125z" fill="#fff" fill-rule="evenodd"/></svg>