<svg height="725" width="725" xmlns="http://www.w3.org/2000/svg"><circle cx="362.5" cy="362.5" fill="#fff" r="350" stroke="#000" stroke-width="2.5" transform="matrix(-1 0 0 1 725 0)"/><path d="m34.355927 362.50146c0 181.23014 146.916053 328.14619 328.146193 328.14619s328.1462-146.91605 328.1462-328.14619-146.91606-328.146195-328.1462-328.146195-328.146193 146.916055-328.146193 328.146195z" fill="#039"/><path d="m341.34375 138.34375-89.65625 89.65625 92.84375.46875c114.61097 4.90984 143.05472 104.91181 147.4375 134.03125v232.78125h-63.3125v-223.1875c.00001-10.79629-9.57271-69.73935-80.78125-82l-97.8125.25 91.34375 91.34375h-78.65625l-121.53125-121.5625h-.3125l.15625-.15625-.09375-.09375h.1875l121.5625-121.53125z" fill="#fff" fill-rule="evenodd"/></svg>