<svg height="594.28571" width="422.85715" xmlns="http://www.w3.org/2000/svg"><g transform="translate(-220 -169.50504)"><path d="m220 169.50504h422.85715v594.28571h-422.85715z" fill="#e6e6e6"/><path d="m375 602.00504h36.07143v62.5h-36.07143z" fill="#b3b3b3"/><path d="m267.142857 602.36219h108.57143v125.71429h-108.57143z" fill="#b3b3b3"/><path d="m375 664.50504h35v33.57143h-35z" fill="#f00"/><path d="m374.82143 698.07645h36.42857v28.035715h-36.42857z" fill="#0f0"/><path d="m447.57193 687.0769h161.99907v21.999054h-161.99907z" fill="#808080" stroke="#000" stroke-width="5.143803"/><path d="m276.92017 209.79709h317.11389v333.7016h-317.11389z" fill="#59f" stroke="#000" stroke-width="16.298399"/><path d="m429.97329 511.86775v-14.40675c-10.23085-.73079-20.67055-2.14013-31.31904-4.22805-10.64845-2.08792-20.20076-5.84621-28.65689-11.27484-8.35172-5.53301-12.52757-12.89303-12.52757-22.07989 0-6.89018 2.19231-13.10179 6.577-18.63486 4.48904-5.53301 9.96988-8.29951 16.44244-8.29951 2.81874 0 7.88198 1.5659 15.18979 4.69782 7.30772 3.13192 13.25833 5.48087 17.85177 7.04678 4.69789 1.56593 10.17874 2.34893 16.4425 2.34893v-50.26698c-13.36276-4.07153-24.58543-8.29959-33.66793-12.68425-9.08251-4.48902-16.4425-9.39572-22.07993-14.71992-5.63739-5.42863-9.70885-11.27484-12.21439-17.53865-2.40112-6.26382-3.60169-13.20617-3.60169-20.82716 0-10.64847 1.87916-20.35738 5.63744-29.12667 3.75829-8.87373 8.87369-16.49472 15.34631-22.86292 6.577-6.47256 14.25013-11.64024 23.0195-15.50288 8.7693-3.86265 17.95621-6.15945 27.56069-6.89019v-15.18972c0-6.36819 3.18412-9.55231 9.55232-9.55231 6.47257 0 9.70889 3.18412 9.70889 9.55231v15.18972c7.82977.20881 16.12935 1.40938 24.89863 3.60169 8.87373 2.08791 16.39029 5.63738 22.54968 10.64845 6.15938 5.01104 9.23912 11.69242 9.23912 20.04414 0 4.07153-.93961 8.03861-2.81872 11.90128-1.77472 3.75827-4.33241 6.7858-7.67314 9.08251-3.23628 2.29675-6.89019 3.44511-10.96164 3.44511-2.50555 0-5.53309-.78302-9.08255-2.34897-3.44508-1.5659-6.577-3.07966-9.39574-4.54126-2.81866-1.56595-5.58516-2.81868-8.29951-3.75829-2.71428-1.04395-5.53301-1.56595-8.45613-1.56595v45.88237c21.81889 5.95063 39.30538 14.35461 52.45938 25.21181 13.25838 10.85728 19.88756 26.46459 19.88756 46.822 0 12.11001-2.24451 22.91506-6.73361 32.41516-4.38465 9.39568-10.17863 17.27762-17.38206 23.64581-7.09899 6.26383-14.87652 11.0661-23.33264 14.4068-8.45617 3.34068-16.75568 5.32423-24.89863 5.95058v14.40675c0 6.36819-3.23632 9.55231-9.70889 9.55231-6.3682 0-9.55232-3.18412-9.55232-9.55231zm0-168.65288v-40.0884c-5.21982 1.14837-9.5001 3.60172-12.84076 7.35998-3.23634 3.65389-4.85449 8.35175-4.85449 14.09356 0 4.80227 1.61815 8.76936 4.85449 11.90127 3.34066 3.13183 7.62094 5.37642 12.84076 6.73359zm19.26121 58.56653v45.25598c5.11542 0 9.44792-2.24449 12.99738-6.73357 3.65388-4.48908 5.48086-9.60448 5.48086-15.34636 0-6.57694-1.56599-11.58797-4.69783-15.0331-3.02754-3.54949-7.62099-6.26385-13.78041-8.14295z" fill="#333" stroke-width="1pt"/><g stroke="#000"><path d="m-599.56348-616.21143h126.26997v14.841389h-126.26997z" fill="#808080" stroke-width="3.730039" transform="scale(-1)"/><path d="m266.42857 698.07646h142.85714" fill="none"/><path d="m268.92856 664.50503h139.28572" fill="none"/><path d="m269.28571 630.9336h140" fill="none"/><path d="m266.42857 698.07646h142.85714" fill="none"/><path d="m268.92856 664.50503h139.28572" fill="none"/><path d="m269.28571 630.9336h140" fill="none"/><path d="m338.92856 604.08319v121.55797" fill="none" stroke-width=".934197"/></g><path d="m374.99999 602.75109v125.65076" fill="#decd87" fill-rule="evenodd" stroke="#020200" stroke-width="5.083404"/><path d="m302.85713 604.08319v121.55797" fill="none" stroke="#000" stroke-width=".934197"/><path d="m266.69556 601.91486h143.75177v126.60889h-143.75177z" fill="none" stroke="#000" stroke-width="5"/></g></svg>