<svg height="124.61005" width="102.60609" xmlns="http://www.w3.org/2000/svg"><path d="m51.352947.20153197-51.03118503 53.90829303h12.28579103v70.361755h77.490779v-70.361755h12.186428z" fill="#fff" fill-rule="evenodd" stroke="#fff" stroke-width=".276949"/><path d="m51.353245 5.849877-44.028782 45.18912h8.805697v67.783653h70.446164v-67.783653h8.805748l-44.028827-45.18912z" fill-rule="evenodd" stroke="#000" stroke-width=".251772"/><path d="m49.138398 105.84399v-3.76215c-2.671675-.19084-5.397871-.55887-8.178587-1.10412-2.780722-.54523-5.275192-1.526664-7.483408-2.944294-2.180957-1.44488-3.271435-3.36684-3.271435-5.7659 0-1.79929.572499-3.42137 1.717505-4.86627 1.172266-1.444875 2.603517-2.167301 4.293756-2.167301.736074 0 2.058277.408923 3.966618 1.226783 1.908333.817848 3.462263 1.431248 4.661789 1.840178 1.226792.40893 2.658044.61339 4.293762.61339v-13.126626c-3.48953-1.063219-6.420191-2.167328-8.791983-3.312327-2.371792-1.172265-4.293755-2.453579-5.765904-3.84394-1.472143-1.417622-2.53536-2.944291-3.189646-4.580007-.627028-1.635718-.94054-3.448635-.94054-5.438762 0-2.780716.490717-5.316076 1.472148-7.60608.981431-2.317271 2.317264-4.307393 4.00751-5.97037 1.717498-1.690244 3.721254-3.039708 6.011259-4.048399 2.290004-1.00869 4.689056-1.608456 7.197156-1.799292v-3.966612c0-1.662977.831486-2.49447 2.49447-2.49447 1.690237 0 2.53536.831493 2.53536 2.49447v3.966612c2.044647.05453 4.211975.36804 6.501978.94054 2.317265.545238 4.280126 1.472142 5.888582 2.780716 1.608451 1.308573 2.412683 3.053338 2.412683 5.234294 0 1.063218-.245364 2.099176-.736074 3.107868-.463452.981429-1.131369 1.772024-2.003751 2.37179-.845123.59976-1.799293.899644-2.862511.899644-.654287 0-1.444882-.204466-2.371785-.613396-.899649-.408925-1.717505-.804227-2.453579-1.185897-.736075-.408924-1.458512-.736067-2.167326-.981431-.708808-.272615-1.444882-.408923-2.208217-.408923v11.981629c5.697746 1.55393 10.264125 3.748516 13.699134 6.58376 3.46226 2.835243 5.1934 6.910903 5.1934 12.226986 0 3.162385-.586127 5.983993-1.758397 8.464833-1.144999 2.45358-2.658038 4.51186-4.539118 6.17484-1.853813 1.6357-3.884824 2.88976-6.093041 3.762154-2.208223.87239-4.375549 1.39036-6.501978 1.55393v3.76215c0 1.66298-.845123 2.49446-2.53536 2.49446-1.662984 0-2.49447-.83148-2.49447-2.49446zm0-44.041692v-10.46859c-1.363102.299876-2.480839.940533-3.353222 1.921962-.845122.954172-1.267684 2.180958-1.267684 3.680367 0 1.254053.422562 2.290003 1.267684 3.107866.872383.817855 1.99012 1.403984 3.353222 1.758395zm5.02983 15.293955v11.818053c1.335834 0 2.467209-.58613 3.394112-1.7584.95417-1.172254 1.431252-2.508093 1.431252-4.007501 0-1.7175-.40893-3.026073-1.226786-3.925724-.790595-.926903-1.990122-1.635716-3.598578-2.126428z" fill="#fff" stroke-width="1pt"/></svg>