<svg height="16" width="12" xmlns="http://www.w3.org/2000/svg" xmlns:xlink="http://www.w3.org/1999/xlink"><marker id="a" orient="auto" overflow="visible" refX="0" refY="0"><path d="m8.7185878 4.0337352-10.9258773-4.01772194 10.9258779-4.01772106c-1.7454984 2.3720609-1.7354408 5.6174519-.0000006 8.035443z" fill-rule="evenodd" stroke="#000" stroke-linejoin="round" stroke-width=".625" transform="matrix(-1.1 0 0 -1.1 -1.1 0)"/></marker><g transform="translate(-220 -747.79074)"><path d="m220 747.79022h12.000006v16.00054h-12.000006z" fill="#e6e6e6"/><path d="m221 760.79071h7.000008v1h-7.000008z"/><path d="m221.37038 749.16107h9.25926v9.25926h-9.25926z" fill="#ff0" stroke="#000" stroke-width=".74074"/><path d="m225.79698 757.35498v-.36817c-.26146-.0187-.52825-.0547-.80037-.10806-.27214-.0534-.51626-.14939-.73236-.28813-.21342-.1414-.32014-.32949-.32014-.56427 0-.17608.056-.33482.16808-.47622.11472-.14139.25479-.2121.42019-.2121.072 0 .20143.0401.38819.12006.18676.08.33882.14006.45621.18008.12005.04.26013.06.4202.06v-1.28461c-.3415-.10404-.6283-.2121-.8604-.32415-.23211-.11472-.4202-.24011-.56427-.37618-.14406-.13873-.24812-.28814-.31214-.44821-.0613-.16007-.0921-.33748-.0921-.53225 0-.27213.048-.52024.14407-.74435.096-.22677.22677-.42153.39219-.58428.16808-.16541.36416-.29747.58827-.39618.2241-.0987.45888-.15741.70433-.17608v-.38818c0-.16275.0813-.24412.24411-.24412.16542 0 .24813.0813.24813.24412v.38818c.20009.006.41219.0359.63629.0921.22678.0534.41886.14406.57627.27212.1574.12807.23611.29882.23611.51225 0 .10405-.024.20543-.072.30414-.0454.096-.11072.17342-.19609.23212-.0826.0587-.17608.088-.28013.088-.0641 0-.1414-.02-.23211-.06-.0881-.04-.16808-.0787-.24011-.11605-.072-.0401-.14274-.072-.21211-.096-.0694-.0267-.1414-.0401-.2161-.0401v1.17255c.5576.15208 1.00448.36685 1.34064.64431.33882.27746.50824.67631.50824 1.19656 0 .30947-.0574.58561-.17209.82839-.11205.24011-.26012.44154-.44421.60428-.18141.16009-.38018.2828-.59628.36818-.2161.0853-.42819.13606-.6363.15207v.36817c0 .16274-.0826.24411-.24811.24411-.16274 0-.24412-.0813-.24412-.24411zm0-4.31003v-1.02448c-.1334.0293-.24279.0921-.32815.18809-.0826.0934-.12407.21343-.12407.36017 0 .12272.0414.2241.12407.30413.0853.08.19475.13741.32815.17209zm.49223 1.49671v1.15654c.13073 0 .24145-.0573.33215-.17208.0934-.11472.14008-.24545.14008-.39218 0-.16808-.0401-.29614-.12007-.38419-.0773-.0907-.19475-.16007-.35216-.20809z" fill="#333" stroke-width=".025556pt"/><path d="m221.68015 761.32749h8.61568" fill="none" marker-end="url(#a)" stroke="#000" stroke-width=".398475"/></g></svg>